<svg width="257" height="191" viewBox="0 0 257 191" fill="none" xmlns="http://www.w3.org/2000/svg">
<g filter="url(#filter0_d_15418_12160)">
<path d="M54.7157 34.3858C53.7681 28.9448 57.4108 23.7659 62.8517 22.8184L184.028 1.71564C189.469 0.768098 194.648 4.41073 195.595 9.85169L202.458 49.2586C203.406 54.6995 199.763 59.8784 194.322 60.826L73.1457 81.9287C67.7048 82.8763 62.5259 79.2336 61.5784 73.7927L54.7157 34.3858Z" fill="white" shape-rendering="crispEdges"/>
<rect x="65.082" y="35.6256" width="34" height="34" rx="17" transform="rotate(-9.87895 65.082 35.6256)" fill="#FFC107"/>
<path d="M84.8916 44.4048L86.2553 46.2515C86.4423 46.5091 86.8571 46.7151 87.1765 46.7128L89.0628 46.6981C90.2691 46.6894 90.6931 47.4919 89.9944 48.478L88.8174 50.1514C88.6181 50.4348 88.567 50.9233 88.6997 51.2437L89.415 52.9369C89.98 54.2773 89.3328 54.9466 87.9701 54.4319L86.0746 53.714C85.7323 53.5841 85.2208 53.6732 84.9368 53.9122L83.3956 55.2286C82.2929 56.1726 81.4507 55.7568 81.5303 54.31L81.6311 52.4746C81.6478 52.1283 81.4345 51.6858 81.1511 51.4865L79.4777 50.3095C78.4926 49.6166 78.6145 48.719 79.7529 48.3194L81.5331 47.6956C81.8287 47.5908 82.1494 47.2567 82.2383 46.9511L82.8975 44.752C83.258 43.5583 84.1545 43.4022 84.8916 44.4048Z" fill="white"/>
<path d="M121.132 40.0752L120.69 37.5374L115.787 38.3911L115.551 37.0355C115.854 36.2249 116.119 35.4154 116.346 34.6071C116.574 33.7987 116.764 32.9644 116.918 32.104C117.069 31.2331 117.168 30.3389 117.214 29.4214L118.932 29.1222C118.894 29.7134 118.822 30.3268 118.716 30.9624C118.619 31.5857 118.494 32.203 118.34 32.8144C118.198 33.4239 118.047 33.9914 117.89 34.5169C117.732 35.0424 117.58 35.5021 117.432 35.896C117.284 36.2899 117.161 36.5819 117.065 36.772L120.454 36.1818L119.913 33.0765C119.955 32.885 119.996 32.6831 120.035 32.4706C120.082 32.2458 120.124 32.0219 120.161 31.7989C120.196 31.5654 120.228 31.3434 120.256 31.1327C120.285 30.9221 120.31 30.7229 120.331 30.5351L121.135 30.3951L122.093 35.8963L123.48 35.6547L123.716 37.0103L122.329 37.2519L122.771 39.7897L121.132 40.0752ZM126.072 39.2148L125.753 37.3864L127.503 37.0817L127.821 38.9101L126.072 39.2148ZM133.609 38.0971C132.831 38.2325 132.175 38.1952 131.641 37.9852C131.106 37.7751 130.679 37.438 130.36 36.9739C130.039 36.4992 129.824 35.9466 129.714 35.3161L131.385 35.0251C131.46 35.456 131.587 35.8128 131.766 36.0956C131.944 36.3679 132.172 36.5608 132.452 36.6746C132.73 36.7778 133.063 36.7955 133.452 36.7278C134.04 36.6253 134.455 36.3961 134.696 36.0401C134.946 35.6718 135.079 35.1885 135.093 34.5904C135.108 33.9923 135.053 33.2983 134.926 32.5083C134.859 32.6824 134.721 32.8851 134.512 33.1164C134.301 33.3371 134.034 33.5407 133.709 33.7272C133.382 33.9032 133.009 34.0278 132.588 34.101C131.821 34.2346 131.164 34.192 130.617 33.9733C130.068 33.744 129.627 33.3825 129.291 32.8886C128.955 32.3843 128.729 31.8011 128.613 31.1391C128.485 30.4035 128.532 29.7402 128.754 29.1494C128.976 28.5586 129.334 28.0685 129.83 27.6791C130.325 27.2897 130.914 27.0355 131.597 26.9165C132.217 26.8086 132.79 26.8009 133.315 26.8935C133.84 26.9861 134.311 27.2072 134.729 27.5566C135.146 27.8956 135.503 28.391 135.8 29.0429C136.096 29.6844 136.331 30.5042 136.505 31.5025C136.697 32.6059 136.77 33.5568 136.725 34.355C136.678 35.1427 136.527 35.797 136.271 36.318C136.024 36.8266 135.676 37.2228 135.228 37.5066C134.779 37.7905 134.24 37.9873 133.609 38.0971ZM132.702 32.7008C133.164 32.6202 133.531 32.4589 133.803 32.2166C134.073 31.9639 134.252 31.6566 134.341 31.2947C134.438 30.9205 134.45 30.5232 134.377 30.1028C134.306 29.693 134.167 29.3328 133.961 29.0221C133.756 28.7115 133.484 28.4881 133.146 28.352C132.807 28.2054 132.406 28.1724 131.943 28.2529C131.481 28.3334 131.116 28.5053 130.848 28.7686C130.588 29.0195 130.414 29.3259 130.326 29.6877C130.237 30.0496 130.229 30.4408 130.303 30.8611C130.374 31.2709 130.513 31.6312 130.718 31.9418C130.922 32.242 131.188 32.4662 131.517 32.6147C131.845 32.7526 132.239 32.7813 132.702 32.7008ZM141.644 37.2987L142.912 24.3451L144.158 24.1282L142.889 37.0819L141.644 37.2987ZM153.995 34.547C153.238 34.6787 152.546 34.6531 151.919 34.47C151.302 34.2851 150.79 33.9574 150.383 33.4869C149.975 33.0058 149.706 32.3975 149.578 31.6619L151.265 31.3682C151.343 31.8201 151.501 32.1986 151.739 32.5037C151.974 32.7984 152.265 33.0076 152.611 33.1313C152.966 33.2427 153.349 33.2627 153.759 33.1914C154.158 33.1218 154.495 32.9765 154.771 32.7553C155.055 32.5217 155.251 32.2169 155.359 31.8408C155.475 31.4524 155.487 30.9955 155.396 30.4701C155.312 29.9867 155.158 29.602 154.935 29.3161C154.721 29.0177 154.448 28.8216 154.118 28.7275C153.796 28.6211 153.441 28.6018 153.052 28.6695C152.769 28.7189 152.509 28.8129 152.273 28.9514C152.036 29.0794 151.836 29.2386 151.674 29.4292C151.513 29.6198 151.383 29.8373 151.284 30.0818L149.701 30.1301L149.099 24.0634L155.263 22.9901L155.526 24.5033L150.797 25.3268L151.104 28.3917C151.25 28.2363 151.413 28.0834 151.592 27.9331C151.782 27.7809 152.008 27.6442 152.268 27.5231C152.539 27.4001 152.853 27.3075 153.21 27.2453C153.82 27.1391 154.393 27.1692 154.931 27.3354C155.469 27.5015 155.93 27.8165 156.314 28.2802C156.696 28.7333 156.957 29.3592 157.096 30.1579C157.233 30.946 157.198 31.6451 156.99 32.2551C156.782 32.8651 156.425 33.3658 155.92 33.757C155.414 34.1482 154.772 34.4116 153.995 34.547Z" fill="#242B3A"/>
<path d="M122.2 61.0874C121.41 60.4697 120.759 59.7386 120.247 58.894C119.733 58.0415 119.391 57.1266 119.221 56.1493C119.053 55.1878 119.067 54.219 119.263 53.243C119.458 52.267 119.824 51.3628 120.361 50.5303L121.154 50.3923C120.93 50.9266 120.738 51.5041 120.578 52.1247C120.426 52.744 120.33 53.3819 120.29 54.0385C120.257 54.6858 120.294 55.3208 120.403 55.9434C120.513 56.5739 120.693 57.1921 120.945 57.7979C121.205 58.4023 121.511 58.9703 121.863 59.5017C122.225 60.0396 122.601 60.5222 122.992 60.9494L122.2 61.0874ZM123.821 58.8927L123.757 58.5263C123.698 58.1874 123.707 57.8651 123.784 57.5594C123.867 57.2444 123.994 56.9502 124.166 56.6767C124.345 56.4018 124.55 56.1347 124.781 55.8752C125.012 55.6157 125.249 55.3635 125.49 55.1184C125.807 54.7952 126.097 54.4768 126.359 54.1631C126.621 53.8495 126.821 53.5265 126.958 53.1941C127.103 52.8603 127.143 52.5082 127.078 52.1377C127.041 51.9249 126.956 51.7368 126.822 51.5734C126.695 51.4086 126.52 51.2889 126.296 51.2142C126.071 51.1317 125.792 51.1192 125.461 51.1769C125.099 51.24 124.814 51.3545 124.608 51.5204C124.408 51.6771 124.271 51.8714 124.198 52.1034C124.131 52.3262 124.121 52.5755 124.17 52.8513L124.254 53.3361L123.024 53.5502C123.01 53.5121 122.992 53.4544 122.97 53.377C122.948 53.2995 122.927 53.2017 122.907 53.0835C122.805 52.5002 122.853 52.0087 123.052 51.6087C123.257 51.1995 123.561 50.8744 123.966 50.6334C124.377 50.3831 124.835 50.2141 125.339 50.1262C125.828 50.0411 126.25 50.0407 126.606 50.1249C126.968 50.1999 127.268 50.3345 127.504 50.5287C127.749 50.7216 127.939 50.9484 128.074 51.2092C128.216 51.4686 128.31 51.7283 128.356 51.9884C128.421 52.3667 128.414 52.7212 128.334 53.0519C128.261 53.3812 128.13 53.7005 127.94 54.0096C127.758 54.3174 127.532 54.6248 127.26 54.9319C126.995 55.2298 126.707 55.5317 126.395 55.8378C126.2 56.026 126.01 56.2174 125.825 56.4121C125.648 56.6054 125.494 56.7986 125.366 56.9915C125.235 57.1766 125.156 57.3488 125.127 57.5082L129.241 56.7917L129.436 57.9148L123.821 58.8927ZM133.425 57.3664C132.857 57.4652 132.338 57.446 131.868 57.3087C131.405 57.17 131.021 56.9242 130.716 56.5713C130.41 56.2105 130.209 55.7543 130.113 55.2026L131.377 54.9823C131.436 55.3212 131.555 55.6051 131.733 55.834C131.909 56.0549 132.128 56.2118 132.387 56.3047C132.654 56.3882 132.94 56.4032 133.248 56.3497C133.547 56.2975 133.8 56.1885 134.007 56.0226C134.22 55.8474 134.367 55.6188 134.448 55.3368C134.535 55.0455 134.544 54.7028 134.476 54.3087C134.413 53.9462 134.298 53.6577 134.13 53.4432C133.969 53.2195 133.765 53.0723 133.517 53.0018C133.276 52.922 133.01 52.9075 132.718 52.9583C132.505 52.9953 132.31 53.0658 132.134 53.1697C131.956 53.2657 131.806 53.3851 131.685 53.5281C131.563 53.671 131.466 53.8341 131.392 54.0175L130.205 54.0537L129.753 49.5037L134.376 48.6987L134.574 49.8336L131.027 50.4513L131.257 52.7499C131.366 52.6334 131.488 52.5187 131.623 52.406C131.766 52.2918 131.935 52.1893 132.13 52.0985C132.333 52.0062 132.569 51.9368 132.837 51.8901C133.294 51.8105 133.724 51.833 134.127 51.9577C134.531 52.0823 134.876 52.3185 135.164 52.6663C135.451 53.0061 135.646 53.4756 135.751 54.0746C135.854 54.6657 135.827 55.19 135.671 55.6475C135.515 56.105 135.248 56.4805 134.869 56.7739C134.489 57.0673 134.008 57.2648 133.425 57.3664ZM140.202 56.1862C139.634 56.285 139.115 56.2658 138.645 56.1285C138.182 55.9898 137.798 55.744 137.493 55.3911C137.187 55.0303 136.985 54.5741 136.889 54.0224L138.154 53.8021C138.213 54.141 138.332 54.4249 138.51 54.6538C138.686 54.8748 138.904 55.0316 139.164 55.1245C139.431 55.208 139.717 55.223 140.025 55.1695C140.324 55.1173 140.577 55.0083 140.784 54.8424C140.997 54.6672 141.144 54.4386 141.225 54.1566C141.312 53.8653 141.321 53.5226 141.253 53.1285C141.19 52.766 141.074 52.4775 140.907 52.263C140.746 52.0393 140.542 51.8921 140.294 51.8216C140.053 51.7418 139.787 51.7273 139.495 51.7781C139.282 51.8151 139.087 51.8856 138.911 51.9895C138.732 52.0855 138.583 52.2049 138.461 52.3479C138.34 52.4908 138.243 52.6539 138.169 52.8373L136.982 52.8735L136.53 48.3235L141.153 47.5185L141.35 48.6534L137.804 49.2711L138.034 51.5697C138.143 51.4532 138.265 51.3385 138.4 51.2258C138.543 51.1116 138.711 51.0091 138.907 50.9183C139.11 50.826 139.346 50.7566 139.613 50.7099C140.071 50.6303 140.501 50.6528 140.904 50.7775C141.308 50.9021 141.653 51.1383 141.941 51.4861C142.228 51.826 142.423 52.2954 142.527 52.8944C142.63 53.4855 142.604 54.0098 142.448 54.4673C142.292 54.9248 142.025 55.3003 141.646 55.5937C141.266 55.8871 140.785 56.0846 140.202 56.1862ZM146.754 54.899L145.671 48.6806L146.688 48.5035L146.969 49.4899L147.04 49.4775C147.077 49.2681 147.135 49.0671 147.215 48.8745C147.303 48.6805 147.428 48.5126 147.59 48.3707C147.76 48.2274 147.979 48.1324 148.247 48.0858C148.373 48.0638 148.486 48.0564 148.584 48.0636C148.691 48.0694 148.773 48.0754 148.831 48.0815L149.033 49.2401L148.619 49.3121C148.367 49.3561 148.149 49.4346 147.966 49.5477C147.79 49.6595 147.649 49.8058 147.543 49.9868C147.443 50.1585 147.381 50.3602 147.356 50.5918C147.339 50.8221 147.355 51.0752 147.403 51.351L147.983 54.6849L146.754 54.899ZM153.327 53.9004C152.689 54.0116 152.133 53.9906 151.66 53.8375C151.193 53.6752 150.807 53.3729 150.503 52.9306C150.199 52.4882 149.982 51.8966 149.853 51.1558C149.723 50.4071 149.726 49.777 149.865 49.2657C150.002 48.7465 150.267 48.3349 150.661 48.0308C151.053 47.7189 151.572 47.5067 152.219 47.3941C152.81 47.2912 153.322 47.3197 153.756 47.4796C154.196 47.6303 154.559 47.9164 154.843 48.3378C155.128 48.7592 155.331 49.3167 155.451 50.0103L155.534 50.4832L151.171 51.2429C151.264 51.6815 151.396 52.0402 151.566 52.3191C151.735 52.5902 151.95 52.776 152.211 52.8767C152.479 52.9681 152.798 52.9816 153.168 52.9171C153.397 52.8773 153.597 52.814 153.769 52.7273C153.939 52.6327 154.077 52.5192 154.184 52.3869C154.29 52.2467 154.364 52.0916 154.408 51.9217C154.45 51.7438 154.453 51.5524 154.417 51.3475L155.623 51.1375C155.688 51.5079 155.682 51.846 155.605 52.1517C155.528 52.4574 155.385 52.73 155.175 52.9696C154.972 53.1999 154.713 53.3951 154.4 53.5552C154.087 53.7153 153.729 53.8304 153.327 53.9004ZM151.039 50.3403L154.089 49.8091C154.035 49.5017 153.955 49.2518 153.848 49.0592C153.748 48.8574 153.624 48.7005 153.474 48.5884C153.325 48.4764 153.158 48.4079 152.975 48.3829C152.791 48.3501 152.589 48.3529 152.368 48.3913C152.037 48.4489 151.763 48.5575 151.548 48.7169C151.34 48.8749 151.195 49.091 151.112 49.3652C151.029 49.6314 151.004 49.9565 151.039 50.3403ZM158.891 52.7853L155.503 46.9684L156.791 46.744L158.384 49.5239C158.456 49.6576 158.547 49.8325 158.658 50.0487C158.767 50.257 158.878 50.4732 158.99 50.6973C159.102 50.9214 159.202 51.1232 159.291 51.3028L159.35 51.2925C159.365 51.103 159.385 50.8884 159.408 50.6489C159.438 50.4001 159.468 50.1553 159.499 49.9143C159.531 49.6734 159.561 49.4733 159.59 49.3139L160.137 46.1613L161.39 45.9431L160.156 52.565L158.891 52.7853ZM162.097 44.7116L161.879 43.4584L163.108 43.2443L163.326 44.4975L162.097 44.7116ZM163.367 52.0058L162.284 45.7874L163.514 45.5733L164.597 51.7917L163.367 52.0058ZM168.786 51.2083C168.148 51.3194 167.592 51.2985 167.119 51.1454C166.652 50.9831 166.266 50.6808 165.962 50.2384C165.657 49.7961 165.441 49.2045 165.312 48.4637C165.181 47.7149 165.185 47.0849 165.324 46.5736C165.461 46.0544 165.726 45.6428 166.119 45.3387C166.512 45.0268 167.031 44.8146 167.677 44.702C168.268 44.5991 168.781 44.6276 169.215 44.7875C169.655 44.9382 170.018 45.2242 170.302 45.6457C170.587 46.0671 170.789 46.6246 170.91 47.3182L170.992 47.791L166.63 48.5507C166.723 48.9893 166.854 49.3481 167.025 49.627C167.194 49.898 167.409 50.0839 167.67 50.1846C167.938 50.276 168.257 50.2895 168.627 50.225C168.856 50.1852 169.056 50.1219 169.227 50.0352C169.398 49.9405 169.536 49.8271 169.643 49.6948C169.749 49.5546 169.823 49.3995 169.867 49.2295C169.909 49.0517 169.912 48.8603 169.876 48.6554L171.082 48.4454C171.147 48.8158 171.14 49.1539 171.064 49.4595C170.987 49.7652 170.844 50.0379 170.634 50.2775C170.43 50.5078 170.172 50.703 169.859 50.8631C169.546 51.0232 169.188 51.1383 168.786 51.2083ZM166.497 47.6481L169.547 47.117C169.494 46.8096 169.414 46.5596 169.307 46.3671C169.207 46.1652 169.082 46.0083 168.933 45.8963C168.783 45.7843 168.617 45.7158 168.434 45.6908C168.25 45.658 168.047 45.6607 167.827 45.6992C167.496 45.7568 167.222 45.8653 167.006 46.0247C166.798 46.1828 166.653 46.3989 166.571 46.673C166.488 46.9393 166.463 47.2643 166.497 47.6481ZM173.889 50.1735L170.938 44.2804L172.215 44.058L173.718 47.3042C173.794 47.4615 173.864 47.628 173.927 47.8038C173.998 47.9782 174.061 48.1336 174.118 48.27C174.174 48.4064 174.215 48.5008 174.24 48.5532L174.311 48.5408C174.318 48.3935 174.325 48.2257 174.333 48.0376C174.341 47.8495 174.347 47.6778 174.353 47.5225C174.357 47.3594 174.36 47.2371 174.362 47.1555L174.603 43.6421L175.927 43.4115L177.367 46.6444C177.42 46.765 177.477 46.9053 177.538 47.0654C177.604 47.2161 177.667 47.3676 177.726 47.5197C177.793 47.6705 177.845 47.8036 177.881 47.9191L177.952 47.9067C177.956 47.7923 177.961 47.6574 177.967 47.5022C177.979 47.3377 177.991 47.1732 178.003 47.0087C178.015 46.8442 178.025 46.6922 178.033 46.5528L178.339 42.9915L179.509 42.7877L178.736 49.3294L177.459 49.5517L176.163 46.5861C176.105 46.4418 176.036 46.2753 175.954 46.0865C175.873 45.8977 175.795 45.7082 175.721 45.5181C175.647 45.3279 175.586 45.16 175.536 45.0143L175.465 45.0267C175.464 45.1161 175.463 45.2464 175.46 45.4174C175.465 45.587 175.463 45.7823 175.452 46.0033C175.442 46.2244 175.427 46.4626 175.406 46.7179L175.165 49.9511L173.889 50.1735ZM183.799 48.5937C183.366 48.6692 182.975 48.6885 182.628 48.6515C182.28 48.6146 181.982 48.5326 181.733 48.4055C181.483 48.2784 181.279 48.1109 181.121 47.9029C180.97 47.6857 180.869 47.4352 180.82 47.1515C180.813 47.1121 180.807 47.0766 180.801 47.0451C180.804 47.0122 180.803 46.9839 180.799 46.9603L182.016 46.7482C182.02 46.7719 182.025 46.7955 182.029 46.8192C182.031 46.8349 182.035 46.8546 182.039 46.8783C182.082 47.1226 182.183 47.308 182.343 47.4344C182.502 47.5529 182.697 47.6245 182.928 47.6491C183.167 47.6645 183.42 47.6488 183.688 47.6022C183.924 47.561 184.136 47.4957 184.323 47.4062C184.517 47.3074 184.667 47.188 184.773 47.0478C184.886 46.9062 184.927 46.7448 184.895 46.5636C184.854 46.3271 184.74 46.1603 184.552 46.063C184.365 45.9657 184.131 45.9049 183.851 45.8807C183.569 45.8485 183.275 45.8145 182.968 45.7786C182.696 45.7529 182.423 45.7234 182.149 45.6898C181.881 45.6471 181.634 45.5765 181.405 45.4782C181.177 45.3799 180.982 45.2393 180.82 45.0563C180.659 44.8734 180.551 44.6282 180.497 44.3209C180.447 44.0292 180.465 43.7621 180.553 43.5195C180.64 43.2768 180.782 43.0614 180.976 42.8733C181.179 42.6837 181.427 42.5228 181.72 42.3904C182.022 42.2567 182.358 42.1576 182.728 42.0931C183.114 42.0258 183.465 42.0095 183.779 42.044C184.093 42.0707 184.365 42.141 184.596 42.2551C184.835 42.3678 185.028 42.5209 185.175 42.7145C185.321 42.9002 185.415 43.1113 185.456 43.3477C185.464 43.395 185.469 43.4469 185.471 43.5034C185.479 43.5507 185.485 43.5823 185.487 43.598L184.282 43.808L184.263 43.7016C184.236 43.544 184.167 43.4097 184.059 43.2987C183.95 43.1877 183.794 43.1092 183.592 43.0634C183.397 43.0161 183.145 43.0193 182.838 43.0728C182.633 43.1085 182.455 43.1597 182.304 43.2266C182.152 43.2856 182.031 43.3555 181.939 43.4364C181.848 43.5173 181.782 43.6059 181.742 43.7022C181.71 43.7971 181.703 43.8998 181.722 44.0101C181.754 44.1914 181.842 44.3223 181.986 44.4028C182.136 44.474 182.324 44.5266 182.549 44.5604C182.773 44.5864 183.014 44.6176 183.272 44.6538C183.569 44.6832 183.871 44.7159 184.178 44.7518C184.483 44.7798 184.769 44.8356 185.035 44.9192C185.309 45.0013 185.541 45.1397 185.729 45.3343C185.925 45.5276 186.055 45.8094 186.12 46.1798C186.179 46.5187 186.163 46.8259 186.073 47.1015C185.983 47.377 185.83 47.6149 185.613 47.815C185.402 48.006 185.142 48.165 184.831 48.2922C184.522 48.4273 184.178 48.5278 183.799 48.5937ZM186.723 38.9856C187.521 39.6019 188.173 40.337 188.679 41.1908C189.191 42.0354 189.533 42.9463 189.703 43.9236C189.87 44.8852 189.856 45.8539 189.661 46.8299C189.472 47.7967 189.105 48.7009 188.562 49.5427L187.77 49.6806C188.001 49.145 188.193 48.5675 188.345 47.9482C188.497 47.329 188.59 46.6957 188.623 46.0483C188.663 45.3918 188.629 44.7521 188.52 44.1295C188.411 43.499 188.226 42.8815 187.966 42.2771C187.715 41.6713 187.413 41.1027 187.06 40.5713C186.707 40.032 186.33 39.5494 185.931 39.1235L186.723 38.9856Z" fill="#656B76"/>
<path d="M179.263 73.76C179.075 75.2882 177.304 76.0402 176.074 75.1137L165.008 66.7752C163.778 65.8487 164.012 63.9386 165.43 63.3369L178.184 57.9222C179.601 57.3206 181.138 58.4787 180.951 60.0068L179.263 73.76Z" fill="white"/>
</g>
<defs>
<filter id="filter0_d_15418_12160" x="-1" y="0" width="259.172" height="191.644" filterUnits="userSpaceOnUse" color-interpolation-filters="sRGB">
<feFlood flood-opacity="0" result="BackgroundImageFix"/>
<feColorMatrix in="SourceAlpha" type="matrix" values="0 0 0 0 0 0 0 0 0 0 0 0 0 0 0 0 0 0 127 0" result="hardAlpha"/>
<feOffset dy="54"/>
<feGaussianBlur stdDeviation="27"/>
<feComposite in2="hardAlpha" operator="out"/>
<feColorMatrix type="matrix" values="0 0 0 0 0.370833 0 0 0 0 0.370833 0 0 0 0 0.370833 0 0 0 0.25 0"/>
<feBlend mode="normal" in2="BackgroundImageFix" result="effect1_dropShadow_15418_12160"/>
<feBlend mode="normal" in="SourceGraphic" in2="effect1_dropShadow_15418_12160" result="shape"/>
</filter>
</defs>
</svg>
