<svg width="155" height="23" viewBox="0 0 155 23" fill="none" xmlns="http://www.w3.org/2000/svg">
<path d="M32.5443 7.65864C30.9747 7.65864 29.9712 8.17326 29.9712 9.09958C29.9712 10.0259 31.0261 10.4376 32.5957 10.592C34.8343 10.7721 37.7162 11.1581 37.7162 14.1686C37.7162 16.33 35.6835 17.8481 32.57 17.8481C30.6144 17.8481 28.7104 17.4107 27.0636 15.6867L28.3758 13.9627C29.4823 15.0692 30.9747 15.6867 32.5443 15.6867C33.8823 15.6867 35.2203 15.275 35.2203 14.1943C35.2203 13.1136 34.1911 12.7534 32.3899 12.599C30.1256 12.4189 27.4753 11.7499 27.4753 9.15104C27.4753 6.57794 30.2542 5.60016 32.4928 5.60016C34.1653 5.57443 35.8121 6.11478 37.1501 7.14402L35.8378 8.68788C34.8858 7.99314 33.7279 7.63291 32.5443 7.65864ZM46.0788 15.5838C47.3396 15.5838 48.832 15.1464 49.5782 14.323L51.225 15.8668C49.9642 17.2048 47.8799 17.8481 46.0273 17.8481C42.0647 17.8481 39.5174 15.4551 39.5174 11.7241C39.5174 8.17326 42.1677 5.60016 45.9758 5.60016C49.5267 5.60016 51.9712 7.60717 51.9712 11.6212C51.9712 11.9557 51.9454 12.3159 51.9197 12.6504H42.1419C42.3478 14.5031 43.8402 15.5838 46.0788 15.5838ZM45.9758 7.78729C44.1489 7.78729 42.5536 8.76507 42.1677 10.6434H49.501C49.3466 8.7908 48.0858 7.78729 45.9758 7.78729ZM63.6788 11.0294C63.6788 9.02238 62.4951 7.86449 60.4109 7.86449C59.4846 7.86449 58.6098 8.22472 57.9665 8.89373C57.3232 9.56274 56.9887 10.4633 57.0144 11.3896V17.5651H54.4671V5.90893H56.7829L56.9373 7.52998C57.9408 6.32063 59.4332 5.60016 61.0028 5.62589C63.9104 5.62589 66.2004 7.3756 66.2004 11.0037V17.5651H63.653L63.6788 11.0294ZM81.6133 17.5651H79.246L79.0916 15.7124C78.1396 17.1019 76.57 17.8996 74.8975 17.8481C71.3981 17.8481 68.722 15.6095 68.722 11.7241C68.722 7.76157 71.3466 5.60016 74.846 5.60016C76.3127 5.60016 78.294 6.2949 79.0916 7.68437V1.04578H81.639L81.6133 17.5651ZM71.2437 11.7241C71.2437 14.0914 72.9162 15.5838 75.0519 15.5838C77.1361 15.5838 78.8343 13.8598 78.8343 11.7499C78.8343 9.63992 77.1361 7.91595 75.0519 7.91595C72.9162 7.91595 71.2437 9.38262 71.2437 11.7241ZM86.322 0.762735C86.7337 0.737004 87.1454 0.865659 87.4285 1.1487C87.7373 1.43174 87.8916 1.84343 87.8916 2.25513C87.8402 3.07852 87.1454 3.74753 86.322 3.74753C85.4987 3.74753 84.8039 3.10425 84.7525 2.25513C84.7525 1.84343 84.9068 1.43174 85.2156 1.1487C85.5244 0.865659 85.9361 0.711273 86.322 0.762735ZM87.5829 17.5651H85.0355V5.90893H87.5829V17.5651ZM100.191 11.0294C100.191 9.02238 99.0074 7.86449 96.9232 7.86449C95.9969 7.86449 95.122 8.22472 94.4788 8.89373C93.8355 9.56274 93.501 10.4633 93.5267 11.4154V17.5908H90.9794V5.93467H93.2694L93.4238 7.55572C94.4273 6.34636 95.9197 5.62589 97.4893 5.65162C100.397 5.65162 102.687 7.40133 102.687 11.0294V17.5908H100.14C100.165 17.5651 100.191 11.0294 100.191 11.0294ZM108.502 7.81302C109.274 6.42355 111.281 5.62589 112.748 5.62589C116.221 5.62589 118.872 7.78729 118.872 11.7499C118.872 15.6352 116.016 17.8738 112.722 17.8738C111.204 17.8738 109.454 17.2306 108.502 15.7382L108.348 17.5908H105.981V1.0715H108.528L108.502 7.81302ZM108.631 11.7241C108.605 12.7534 109.017 13.7569 109.763 14.5031C110.483 15.2236 111.487 15.6095 112.516 15.5838C114.729 15.5838 116.324 14.0914 116.324 11.7241C116.324 9.35689 114.703 7.89021 112.516 7.89021C111.487 7.86448 110.509 8.25045 109.789 8.97092C109.043 9.71712 108.631 10.6949 108.631 11.7241ZM124.172 17.5651H121.625V1.04578H124.172V17.5651ZM130.039 12.2645C130.039 14.2458 131.197 15.6095 133.333 15.6095C134.259 15.6095 135.134 15.2493 135.751 14.5803C136.395 13.9113 136.729 13.0107 136.678 12.0844V5.90893H139.199V17.5651H136.935L136.781 15.944C135.751 17.1791 134.207 17.8996 132.612 17.8224C129.653 17.8224 127.517 15.7639 127.517 12.2388V5.85747H130.039V12.2645ZM148.462 15.5838C149.723 15.5838 151.216 15.1464 151.962 14.323L153.609 15.8668C152.348 17.2048 150.264 17.8481 148.411 17.8481C144.448 17.8481 141.901 15.4551 141.901 11.7241C141.901 8.17326 144.551 5.60016 148.385 5.60016C151.936 5.60016 154.381 7.60717 154.381 11.6212C154.381 11.9557 154.355 12.3159 154.329 12.6504H144.526C144.757 14.5031 146.25 15.5838 148.462 15.5838ZM148.385 7.78729C146.533 7.78729 144.963 8.76507 144.577 10.6434H151.91C151.73 8.7908 150.469 7.78729 148.385 7.78729Z" fill="#091E3F"/>
<path d="M18.4436 16.4842C17.8775 17.462 16.9512 18.1824 15.8705 18.4912C16.0249 17.9509 16.1021 17.4105 16.1021 16.8444C16.1021 14.0912 14.198 11.7754 11.6506 11.1321C12.1909 10.6175 12.8342 10.2316 13.5547 10.0514C14.6611 9.74267 15.8705 9.89705 16.8483 10.4889C18.9325 11.7239 19.6529 14.4 18.4436 16.4842ZM10.2611 21.2444C9.12896 21.2444 8.04826 20.7813 7.2506 20.0093C7.79095 19.8807 8.30557 19.6748 8.76873 19.3918C11.136 18.0023 12.1909 15.1976 11.4447 12.6503C13.2717 13.1649 14.6097 14.8631 14.6097 16.8444C14.6097 19.2889 12.6541 21.2444 10.2611 21.2444ZM2.07867 16.4842C1.51259 15.5064 1.3582 14.3228 1.64124 13.2421C2.02721 13.628 2.46464 13.9883 2.92779 14.2713C3.80265 14.7859 4.80616 15.069 5.83539 15.069C7.43072 15.069 8.94884 14.4257 10.0553 13.2678C10.5184 15.1204 9.72077 17.1275 8.02253 18.1052C7.35352 18.4912 6.60732 18.697 5.86113 18.697C4.29153 18.6713 2.8506 17.8479 2.07867 16.4842ZM2.07867 6.98944C2.64475 6.01167 3.57107 5.2912 4.65177 4.98243C4.49738 5.52278 4.42019 6.06313 4.42019 6.62921C4.42019 9.38243 6.32428 11.6982 8.87165 12.3415C7.50791 13.6538 5.39797 13.9883 3.67399 12.9848C2.67048 12.393 1.95002 11.4666 1.64124 10.3345C1.33247 9.20231 1.48686 7.99295 2.07867 6.98944ZM10.2611 2.22921C11.3933 2.22921 12.474 2.69237 13.2717 3.4643C12.7313 3.59296 12.2167 3.7988 11.7535 4.08185C10.3898 4.87951 9.43773 6.14032 9.02604 7.65845C8.743 8.68769 8.76873 9.79413 9.05177 10.8234C7.22487 10.3087 5.88686 8.6105 5.88686 6.62921C5.91259 4.2105 7.86814 2.22921 10.2611 2.22921ZM18.4436 6.98944C19.0097 7.99295 19.164 9.15085 18.881 10.2316C18.495 9.81986 18.0576 9.48535 17.5945 9.20231C16.2307 8.40465 14.6611 8.19881 13.143 8.6105C12.1138 8.89354 11.1617 9.45962 10.4412 10.2316C10.2611 9.51108 10.2611 8.76488 10.467 8.04442C10.7757 6.91225 11.4962 5.96021 12.4997 5.39413C13.5032 4.80232 14.6869 4.64793 15.7933 4.9567C16.9255 5.26547 17.8518 5.98594 18.4436 6.98944ZM19.7559 6.24325C18.9839 4.8795 17.7231 3.90173 16.205 3.49004C15.8447 3.38711 15.4845 3.33565 15.1243 3.30992C14.0436 1.71459 12.2167 0.736816 10.2869 0.736816C8.27984 0.736816 6.5044 1.76606 5.44943 3.30992C3.51961 3.4643 1.7699 4.545 0.79212 6.24325C0.0201908 7.60699 -0.185656 9.17659 0.200309 10.6947C0.303233 11.0549 0.431888 11.3895 0.586274 11.724C-0.262849 13.4737 -0.185657 15.5321 0.79212 17.2304C1.79563 18.9801 3.57107 20.0093 5.4237 20.1637C6.5044 21.759 8.3313 22.7368 10.2611 22.7368C12.2681 22.7368 14.0436 21.7076 15.0986 20.1637C17.0284 20.0093 18.7781 18.9286 19.7559 17.2304C20.7594 15.4807 20.7594 13.4222 19.9617 11.724C20.7851 9.99998 20.7079 7.91576 19.7559 6.24325Z" fill="#0092FF"/>
</svg>
