<svg width="118" height="30" viewBox="0 0 118 30" fill="none" xmlns="http://www.w3.org/2000/svg">
<g clip-path="url(#clip0_16548_2594)">
<path d="M15.3411 15.9596C13.3935 15.9596 11.846 16.7269 10.7521 18.2351C10.1118 17.0709 8.83117 15.9596 6.88352 15.9596C4.8825 15.9596 3.70858 16.8327 2.88149 17.7588V17.4942C2.88149 16.7269 2.24117 16.0919 1.46745 16.0919C0.693721 16.0919 0.0800781 16.7269 0.0800781 17.4942V28.1573C0.0800781 28.9246 0.693721 29.5331 1.46745 29.5331C2.24117 29.5331 2.88149 28.9246 2.88149 28.1573V20.7752C3.52182 19.7432 4.4823 18.579 6.21651 18.579C7.87068 18.579 8.511 19.3728 8.511 21.4366V28.1573C8.511 28.9246 9.12465 29.5331 9.89837 29.5331C10.6721 29.5331 11.3124 28.9246 11.3124 28.1573V20.7752C11.9527 19.7432 12.9132 18.579 14.6474 18.579C16.3016 18.579 16.9419 19.3728 16.9419 21.4366V28.1573C16.9419 28.9246 17.5556 29.5331 18.3293 29.5331C19.103 29.5331 19.7433 28.9246 19.7433 28.1573V20.9868C19.7967 18.5526 18.4093 15.9596 15.3411 15.9596ZM28.7879 15.9596C27.2405 15.9596 25.8264 16.2506 24.359 16.8857C23.8521 17.0973 23.5319 17.5207 23.5319 18.0763C23.5319 18.7643 24.0655 19.2934 24.7325 19.2934C24.8393 19.2934 24.9727 19.267 25.1327 19.2405C26.1199 18.923 27.0537 18.6584 28.3877 18.6584C30.5488 18.6584 31.4559 19.4522 31.4826 21.4102H28.7079C24.9193 21.4102 22.6782 23.0242 22.6782 25.6966C22.6782 28.316 24.8659 29.6919 27.027 29.6919C28.7612 29.6919 30.2553 29.1627 31.4826 28.1573V28.1837C31.4826 28.951 32.0963 29.5596 32.87 29.5596C33.6437 29.5596 34.284 28.951 34.284 28.1837V21.1456C34.284 18.5526 32.5765 15.9596 28.7879 15.9596ZM27.8808 27.1254C26.3067 27.1254 25.4796 26.5433 25.4796 25.4055C25.4796 24.9822 25.4796 23.7121 29.0014 23.7121H31.4559V25.432C30.7356 26.2257 29.3749 27.1254 27.8808 27.1254ZM39.7801 10.9853C40.6339 10.9853 41.3276 11.6732 41.3276 12.5199V12.6257C41.3276 13.4724 40.6339 14.1604 39.7801 14.1604H39.6201C38.7663 14.1604 38.0726 13.4724 38.0726 12.6257V12.5199C38.0726 11.6732 38.7663 10.9853 39.6201 10.9853H39.7801ZM39.7001 16.0654C40.5005 16.0654 41.1141 16.7004 41.1141 17.4678V28.1308C41.1141 28.8981 40.5005 29.5067 39.7001 29.5067C38.9264 29.5067 38.3127 28.8981 38.3127 28.1308V17.4678C38.3127 16.674 38.9264 16.0654 39.7001 16.0654ZM46.8237 10.5884C47.6241 10.5884 48.2377 11.2234 48.2377 11.9907V28.1308C48.2377 28.8981 47.6241 29.5067 46.8237 29.5067C46.05 29.5067 45.4363 28.8981 45.4363 28.1308V11.9907C45.4363 11.1969 46.05 10.5884 46.8237 10.5884ZM57.9493 15.9596C55.9483 15.9596 54.2941 16.7004 53.1736 18.1028C52.2131 19.3199 51.6795 20.9868 51.6795 22.8125C51.6795 27.0989 54.2141 29.6654 58.4296 29.6654C60.7507 29.6654 61.898 29.1362 62.9385 28.5277C63.4454 28.2366 63.7122 27.8133 63.7122 27.3899C63.7122 26.702 63.1519 26.1464 62.4316 26.1464C62.2181 26.1464 62.0314 26.1728 61.8713 26.2787C61.1242 26.6755 60.1904 27.0195 58.6163 27.0195C56.2685 27.0195 54.8811 25.9347 54.5343 23.8709H62.7251C63.5521 23.8709 64.1391 23.2888 64.1391 22.495C64.1925 17.9969 60.9642 15.9596 57.9493 15.9596ZM57.9493 18.3938C59.1232 18.3938 61.0976 19.0553 61.3644 21.4896H54.5343C54.8011 19.3464 56.4019 18.3938 57.9493 18.3938ZM73.9307 15.9596C74.7044 15.9596 75.2914 16.5417 75.2914 17.309C75.2914 18.0763 74.7044 18.632 73.8774 18.632H73.744C72.3032 18.632 71.0226 19.3464 70.1155 20.6429V28.1308C70.1155 28.8981 69.4751 29.5067 68.7014 29.5067C67.9277 29.5067 67.314 28.8981 67.314 28.1308V17.4678C67.314 16.7004 67.9277 16.0654 68.7014 16.0654C69.4751 16.0654 70.1155 16.7004 70.1155 17.4678V17.8117C71.236 16.5946 72.4633 15.9596 73.7973 15.9596H73.9307Z" fill="#292C31"/>
<path d="M115 4.41162H85V21.1763H115V4.41162Z" fill="white"/>
<path d="M113.508 0.214355H84.727C82.5088 0.214355 80.6694 2.03578 80.6694 4.23221V17.6251V20.2501V29.759L86.2688 24.2679H113.535C115.754 24.2679 117.593 22.4465 117.593 20.2501V4.23221C117.566 2.009 115.754 0.214355 113.508 0.214355ZM89.2985 18.2144C89.2985 18.8036 88.8116 19.259 88.2164 19.259C87.6213 19.259 87.1615 18.7769 87.1615 18.2144V6.83043C87.1615 6.24114 87.6213 5.759 88.2164 5.759C88.8116 5.759 89.2985 6.24114 89.2985 6.83043V18.2144ZM94.3298 18.2144C94.3298 18.8036 93.8429 19.259 93.2478 19.259C92.6527 19.259 92.1928 18.7769 92.1928 18.2144V10.6876C92.1928 10.0983 92.6527 9.61614 93.2478 9.61614C93.8429 9.61614 94.3298 10.0983 94.3298 10.6876V18.2144ZM94.4651 7.259C94.4651 7.90186 93.9511 8.41078 93.3019 8.41078H93.1937C92.5445 8.41078 92.0305 7.90186 92.0305 7.259V7.17864C92.0305 6.53578 92.5445 6.02686 93.1937 6.02686H93.3019C93.9511 6.02686 94.4651 6.53578 94.4651 7.17864V7.259ZM102.093 19.0179C101.579 19.259 101.065 19.3661 100.497 19.3661C98.6308 19.3661 97.6299 18.4822 97.6299 16.7947V11.6251H96.6561C96.3045 11.6251 96.061 11.3572 96.061 11.0358C96.061 10.8483 96.1422 10.6608 96.3045 10.5269L98.6849 8.1965C98.739 8.14293 98.9283 7.95543 99.1718 7.95543C99.5234 7.95543 99.7669 8.22328 99.7669 8.5715V9.6965H101.498C102.039 9.6965 102.472 10.1251 102.472 10.6608C102.472 11.1965 102.039 11.6251 101.498 11.6251H99.7939V16.6608C99.7939 17.384 100.173 17.4376 100.687 17.4376C100.984 17.4376 101.146 17.384 101.309 17.3572C101.444 17.3304 101.579 17.2769 101.742 17.2769C102.174 17.2769 102.661 17.6251 102.661 18.1876C102.634 18.5358 102.445 18.8572 102.093 19.0179ZM108.721 17.3572C109.83 17.3572 110.452 17.1161 110.993 16.8483C111.128 16.7679 111.263 16.7411 111.426 16.7411C111.967 16.7411 112.399 17.1697 112.399 17.7054C112.399 18.0536 112.183 18.3751 111.804 18.5894C111.047 19.0179 110.235 19.3929 108.558 19.3929C105.529 19.3929 103.689 17.5447 103.689 14.4644C103.689 10.8483 106.124 9.53578 108.207 9.53578C111.29 9.53578 112.697 11.9733 112.697 14.2233C112.697 14.8394 112.237 15.2679 111.615 15.2679H105.934C106.205 16.634 107.179 17.3572 108.721 17.3572ZM108.234 11.4376C107.206 11.4376 106.124 12.0536 105.934 13.4733H110.56C110.344 12.0536 109.262 11.4376 108.234 11.4376Z" fill="#09C269"/>
</g>
<defs>
<clipPath id="clip0_16548_2594">
<rect width="117.647" height="30" fill="white"/>
</clipPath>
</defs>
</svg>
