<svg width="110" height="30" viewBox="0 0 110 30" fill="none" xmlns="http://www.w3.org/2000/svg">
<g clip-path="url(#clip0_16548_2596)">
<path d="M9.61638 30.0146C6.84222 30.0146 1.61444 30.0146 1.61444 23.3123V18.7081C1.13149 18.5435 0.71419 18.2281 0.42406 17.8084C0.13393 17.3887 -0.0136832 16.8868 0.00297941 16.3769V13.6115C0.000849018 13.1047 0.154209 12.6095 0.442367 12.1926C0.730525 11.7758 1.13961 11.4573 1.61444 11.2802V6.70228C1.61153 0 6.7752 0 9.61638 0C9.93808 -2.27957e-07 10.2566 0.0634102 10.5538 0.186605C10.851 0.309801 11.1209 0.490364 11.3483 0.717971C11.5756 0.945579 11.7558 1.21576 11.8787 1.51308C12.0015 1.8104 12.0646 2.12901 12.0642 2.4507V4.25741C13.5474 3.22584 15.3541 3.09179 16.3216 3.09179H18.9034C19.2358 3.08731 19.5655 3.15284 19.8709 3.28412C20.1439 3.20538 20.426 3.16228 20.7101 3.1559H24.7694C25.0913 3.15552 25.4102 3.21865 25.7077 3.34167C26.0052 3.46469 26.2755 3.6452 26.5031 3.87284C26.7308 4.10049 26.9113 4.3708 27.0343 4.66831C27.1573 4.96582 27.2205 5.28467 27.2201 5.60661V8.96649H30.8976C31.2984 8.98333 31.6931 9.07114 32.0632 9.22584C32.8746 8.86357 33.7567 8.68734 34.645 8.71006C35.5573 8.69282 36.4625 8.87414 37.2977 9.24146C38.133 9.60877 38.8784 10.1533 39.4823 10.8373C39.7329 11.1118 39.95 11.415 40.1292 11.7407C40.4593 11.3025 40.8258 10.8931 41.2249 10.5168C42.58 9.35114 44.4508 8.71006 46.7091 8.71006C48.6441 8.71006 50.2584 9.09762 51.6135 9.93395L51.6776 9.86984C51.9094 9.58122 52.2045 9.34968 52.5399 9.19307C52.8754 9.03645 53.2423 8.95893 53.6125 8.96649H57.3541C58.0349 8.97681 58.6842 9.25536 59.1608 9.74162C59.6374 9.25536 60.2867 8.97681 60.9675 8.96649H63.5464C63.8773 8.95662 64.2062 9.02115 64.5088 9.1553C64.8114 9.28946 65.08 9.48982 65.2949 9.74162C65.7557 9.2672 66.3823 8.98944 67.0433 8.96649H70.7208C71.0909 8.95893 71.4579 9.03645 71.7933 9.19307C72.1288 9.34968 72.4238 9.58122 72.6557 9.86984C72.7198 9.93395 72.7839 10.0651 72.851 10.1292C74.2766 9.16461 75.9675 8.66854 77.6883 8.71006C80.139 8.71006 82.1409 9.48519 83.6241 11.0413C83.9381 11.3558 84.2193 11.7014 84.4634 12.0729C84.5916 11.8805 84.7839 11.6853 84.9151 11.49C85.9466 10.1991 87.8815 8.71588 91.2356 8.71588C92.7889 8.69597 94.3216 9.07312 95.6882 9.81156C96.0249 9.38028 96.5025 9.08113 97.0375 8.96649V5.53667C97.0371 5.21473 97.1002 4.89588 97.2232 4.59837C97.3462 4.30087 97.5267 4.03055 97.7544 3.8029C97.982 3.57526 98.2523 3.39476 98.5499 3.27173C98.8474 3.14871 99.1662 3.08558 99.4882 3.08596H103.553C103.875 3.08635 104.193 3.15004 104.49 3.27341C104.787 3.39677 105.056 3.5774 105.283 3.80497C105.51 4.03254 105.69 4.30259 105.813 4.59972C105.936 4.89684 105.998 5.21522 105.998 5.53667V8.96649C106.576 9.06777 107.099 9.36913 107.477 9.81775C107.855 10.2664 108.063 10.8336 108.064 11.4201V14.2584C108.063 14.8445 107.855 15.4114 107.477 15.8595C107.099 16.3077 106.576 16.6084 105.998 16.7091V18.6498H106.581C107.232 18.6498 107.856 18.9083 108.316 19.3685C108.776 19.8286 109.035 20.4527 109.035 21.1035V24.4517C109.035 24.7738 108.971 25.0927 108.848 25.3902C108.724 25.6877 108.544 25.958 108.316 26.1856C108.088 26.4132 107.817 26.5937 107.52 26.7167C107.222 26.8397 106.903 26.9028 106.581 26.9024H104.002C102.003 26.9024 100.324 26.3196 99.1618 25.2268C98.9793 25.0845 98.826 24.9084 98.7101 24.7081C98.5752 24.9113 98.4032 25.0873 98.2031 25.2268C97.3214 25.8654 96.3354 26.3456 95.289 26.646C94.0805 27.0368 92.8176 27.2335 91.5474 27.2288C88.9656 27.2288 86.7742 26.3254 85.1598 24.6469C85.0063 24.8567 84.8336 25.0518 84.6441 25.2297C83.7621 25.8677 82.7761 26.3479 81.73 26.6489C80.5005 27.0441 79.2158 27.2408 77.9243 27.2317C75.3425 27.2317 73.1482 26.3283 71.5367 24.6498C71.1355 24.205 70.7682 23.7306 70.4381 23.2307L70.0535 24.9791C69.927 25.5161 69.6215 25.9939 69.1871 26.334C68.7528 26.674 68.2156 26.856 67.664 26.8499H64.2575C63.8111 26.8411 63.3747 26.7164 62.991 26.488C62.6074 26.2597 62.2896 25.9355 62.069 25.5474C61.8592 25.945 61.5428 26.2764 61.1552 26.5044C60.7677 26.7324 60.3243 26.848 59.8748 26.8383H56.4508C55.8995 26.8442 55.3627 26.6621 54.9289 26.3221C54.495 25.982 54.19 25.5042 54.0642 24.9675L53.8048 23.7407C53.3838 24.4223 52.8102 24.9969 52.1292 25.4191C50.7101 26.4507 48.8393 27.0306 46.5926 27.0306C44.2613 27.0306 42.3993 26.3866 40.9131 25.1598C40.7526 25.6505 40.4402 26.0775 40.0212 26.3792C39.6022 26.6809 39.0982 26.8416 38.5819 26.8383H34.6479C34.3171 26.8481 33.9882 26.7836 33.6856 26.6495C33.383 26.5153 33.1144 26.3149 32.8995 26.0631C32.676 26.3242 32.399 26.5342 32.0873 26.679C31.7756 26.8238 31.4365 26.8999 31.0928 26.9024H27.1006C26.6896 26.9045 26.2861 26.7925 25.935 26.5789C25.5804 26.7845 25.1791 26.8958 24.7694 26.9024H20.6897C20.0878 26.8844 19.5115 26.6543 19.0626 26.2529C18.6137 25.8514 18.321 25.3043 18.2361 24.7081C18.1265 25.2641 17.83 25.7658 17.3958 26.1299C16.9617 26.4941 16.416 26.6988 15.8495 26.7101H12.7082C12.5158 26.7742 12.2594 26.8383 12.0001 26.9024V27.5493C12.0187 27.871 11.9704 28.1931 11.8583 28.4952C11.7462 28.7973 11.5726 29.0728 11.3487 29.3045C11.1247 29.5361 10.8551 29.7189 10.5569 29.8411C10.2588 29.9633 9.93852 30.0224 9.61638 30.0146Z" fill="#240C2E"/>
<path d="M103.612 5.61241V11.4842H105.678V14.3225H103.612V19.6114C103.581 19.8218 103.601 20.0362 103.668 20.2379C103.735 20.4395 103.848 20.6227 103.998 20.7731C104.148 20.9235 104.331 21.0369 104.533 21.1044C104.734 21.1718 104.948 21.1914 105.159 21.1617H106.654V24.5158H104.072C103.04 24.5158 101.741 24.3234 100.846 23.4842C99.9515 22.645 99.5552 21.5493 99.5552 19.9874V14.2584H97.6844V11.4201H99.5552V5.61241H103.612ZM91.5474 24.7693C89.6766 24.7693 88.0506 24.1224 86.9666 22.9626C85.8009 21.797 85.2881 20.2525 85.2881 18.4458V18C85.2881 16.001 85.8068 14.3866 86.8383 13.0957C87.8699 11.8718 89.3531 11.2248 91.2881 11.2248C93.0365 11.2248 94.4498 11.7406 95.4173 12.7751C96.4517 13.8708 96.9034 15.2899 96.9034 17.0966V19.2326H89.4843V19.2967C89.5528 19.9209 89.8572 20.4952 90.3352 20.9024C90.5786 21.1243 90.8636 21.2957 91.1738 21.4067C91.4839 21.5178 91.8129 21.5662 92.1419 21.5493C92.7502 21.5665 93.358 21.5008 93.9486 21.354C94.5501 21.1941 95.1354 20.9785 95.697 20.71L96.6645 23.2248C95.9961 23.7053 95.2554 24.0762 94.4702 24.3234C93.5278 24.6346 92.5398 24.7853 91.5474 24.7693ZM91.224 14.3166C90.9701 14.2929 90.7147 14.3406 90.4866 14.4544C90.2585 14.5682 90.0667 14.7436 89.933 14.9606C89.6493 15.4795 89.4739 16.0505 89.4173 16.6391L89.4843 16.7032H92.9578V16.3856C92.9578 15.6775 92.8296 15.22 92.5703 14.9024C92.4102 14.7031 92.2039 14.5461 91.9692 14.445C91.7345 14.3439 91.4787 14.3019 91.224 14.3225V14.3166ZM77.936 24.7693C76.0622 24.7693 74.4391 24.1224 73.3551 22.9626C72.2341 21.7326 71.6354 20.115 71.6853 18.4517V18C71.6853 16.001 72.2011 14.3866 73.2327 13.0957C74.2672 11.8718 75.7504 11.2248 77.6853 11.2248C79.4338 11.2248 80.8471 11.7406 81.8145 12.7751C82.782 13.8096 83.2978 15.2899 83.2978 17.0966V19.2326H75.8699V19.2967C75.9436 19.9387 76.2573 20.5291 76.748 20.9495C77.2387 21.3699 77.8702 21.5894 78.5159 21.5638C79.1241 21.5808 79.7319 21.5152 80.3226 21.3686C80.9241 21.2087 81.5094 20.9931 82.071 20.7246L83.0414 23.2394C82.3726 23.7193 81.632 24.0901 80.8471 24.338C79.9098 24.6528 78.9242 24.7988 77.936 24.7693ZM77.6766 14.3166C77.4228 14.2929 77.1674 14.3406 76.9392 14.4544C76.7111 14.5682 76.5194 14.7436 76.3857 14.9606C76.1004 15.4788 75.9248 16.0502 75.8699 16.6391L75.934 16.7032H79.4309V16.3856C79.4309 15.6775 79.2997 15.22 79.0433 14.9024C78.8811 14.7003 78.6714 14.5416 78.4329 14.4404C78.1945 14.3392 77.9346 14.2987 77.6766 14.3225V14.3166ZM65.6125 18.9616L67.0229 11.3647H70.7004L67.7397 24.4517H64.3216L62.1914 17.4842H62.1273L60.0001 24.4517H56.579L53.5484 11.4201H57.29L58.7091 19.0957H58.7733L60.8393 11.4201H63.4182L65.6125 18.9616ZM48.5158 20.7683C48.5021 20.581 48.4415 20.4001 48.3397 20.2423C48.2379 20.0845 48.098 19.9547 47.933 19.865C47.3156 19.5058 46.6367 19.2647 45.9311 19.1539C44.4478 18.8334 43.2881 18.3817 42.5129 17.8018C42.1314 17.4916 41.8274 17.0968 41.6251 16.6486C41.4228 16.2005 41.3277 15.7113 41.3473 15.22C41.3473 14.0544 41.866 13.0898 42.7694 12.2535C43.7368 11.4143 45.0248 11.0879 46.6392 11.0879C48.3177 11.0879 49.7368 11.4755 50.7189 12.2535C51.2035 12.5868 51.5905 13.0434 51.84 13.5761C52.0894 14.1088 52.1923 14.6984 52.138 15.2841V15.3482H48.2565C48.2736 15.1381 48.2483 14.9266 48.1823 14.7264C48.1162 14.5262 48.0106 14.3413 47.8718 14.1826C47.527 13.9022 47.0884 13.7636 46.645 13.795C46.2444 13.7837 45.8538 13.9219 45.5494 14.1826C45.4037 14.2826 45.2859 14.418 45.2069 14.576C45.1279 14.734 45.0903 14.9094 45.0977 15.0859C45.1036 15.2671 45.1537 15.4441 45.2436 15.6016C45.3335 15.759 45.4604 15.8921 45.6135 15.9893C45.934 16.2457 46.645 16.441 47.6125 16.6333C49.1598 16.9568 50.3867 17.4084 51.1093 17.9883C51.4973 18.3072 51.805 18.7128 52.0074 19.1724C52.2099 19.632 52.3015 20.1328 52.275 20.6343C52.275 21.7999 51.7592 22.7712 50.7276 23.5483C49.6931 24.3234 48.341 24.7139 46.6479 24.7139C44.8995 24.7139 43.4862 24.2622 42.4547 23.3618C41.4231 22.4614 40.9714 21.4881 41.0355 20.3283V20.2642H44.713C44.713 20.9082 44.9054 21.3599 45.2958 21.5551C45.7484 21.8188 46.2563 21.9735 46.7791 22.0068C47.2122 22.0342 47.6426 21.9207 48.0059 21.6833C48.1733 21.6017 48.3119 21.4709 48.403 21.3085C48.4941 21.146 48.5335 20.9596 48.5158 20.7741V20.7683ZM30.9675 11.3647L31.0957 13.1685C31.4908 12.5616 32.0177 12.0516 32.6373 11.6765C33.2553 11.2895 33.9712 11.0872 34.7004 11.0937C35.2534 11.0774 35.8036 11.1783 36.3149 11.3897C36.8262 11.6012 37.2869 11.9184 37.6669 12.3205C38.3779 13.0927 38.7655 14.4478 38.7655 16.2545V24.4517H34.8374V16.3186C34.8374 15.5464 34.7091 15.0947 34.3857 14.7712C34.2023 14.6079 33.9876 14.4837 33.7546 14.406C33.5217 14.3284 33.2753 14.299 33.0307 14.3196C32.6775 14.3155 32.327 14.3809 31.9991 14.5119C31.6926 14.6307 31.4252 14.8325 31.2269 15.0947V24.5158H27.2259V11.4201H30.9675V11.3647ZM24.7694 8.90236H20.6897V5.61241H24.7694V8.90236ZM24.7694 24.5158H20.6897V11.4201H24.7694V24.5158ZM11.8019 24.5158V14.1943H9.93401V11.3647H11.8077V10.001C11.8077 8.51479 12.2594 7.35501 13.0957 6.50411C13.9874 5.67652 15.3541 5.4842 16.3187 5.4842H18.9005V8.77414H17.4202C17.2098 8.75762 16.9983 8.7834 16.7981 8.84997C16.5979 8.91653 16.4131 9.02253 16.2546 9.16171C16.1154 9.32027 16.0094 9.5051 15.9428 9.7053C15.8762 9.90549 15.8505 10.117 15.867 10.3273V11.2948H18.3876V14.136H15.8699V24.3934H11.8077V24.5216L11.8019 24.5158ZM4.07971 6.70226C4.07971 2.77414 6.11953 2.45068 9.61638 2.45068V5.53665C8.002 5.53665 7.358 5.796 7.358 6.76346V11.8718C7.358 13.0374 7.42211 14.2584 6.45465 15.0335C7.42211 15.8057 7.358 16.9684 7.358 18.1923V23.289C7.358 24.3234 8.002 24.5158 9.61638 24.5158V27.6134C6.11953 27.6134 4.07971 27.2899 4.07971 23.356V18.1923C4.07971 17.356 4.07971 16.4439 2.46533 16.4439V13.7338C4.07971 13.7338 4.07971 12.7664 4.07971 11.9854V6.70226Z" fill="white"/>
</g>
<defs>
<clipPath id="clip0_16548_2596">
<rect width="109.032" height="30" fill="white"/>
</clipPath>
</defs>
</svg>
