<svg width="103" height="31" viewBox="0 0 103 31" fill="none" xmlns="http://www.w3.org/2000/svg">
<g clip-path="url(#clip0_16543_2908)">
<path d="M11.3096 5.55029V13.7519H3.77479V5.55029H0.199951V25.1287H3.77576V17.1932H11.3087V25.1287H14.8854V5.55029H11.3096ZM26.3309 18.8006C26.3309 19.5854 26.0192 20.338 25.4643 20.8929C24.9094 21.4478 24.1568 21.7595 23.372 21.7595C22.5873 21.7595 21.8347 21.4478 21.2798 20.8929C20.7249 20.338 20.4132 19.5854 20.4132 18.8006V10.4142H17.0212V18.8006C17.0212 20.4833 17.6897 22.097 18.8795 23.2869C20.0693 24.4767 21.6831 25.1451 23.3658 25.1451C25.0484 25.1451 26.6622 24.4767 27.852 23.2869C29.0418 22.097 29.7103 20.4833 29.7103 18.8006V10.4142H26.3309V18.8006ZM51.4641 11.2784C51.4641 9.55868 52.6012 9.01384 53.8467 9.01384C54.8512 9.01384 56.1771 9.77836 57.0451 10.7055L59.2661 8.08674C58.1571 6.58674 55.908 5.55029 54.0664 5.55029C50.3861 5.55029 47.7248 7.70545 47.7248 11.2784C47.7248 17.9074 55.8267 15.8035 55.8267 19.5138C55.8267 20.6577 54.7158 21.668 53.4441 21.668C51.438 21.668 50.7877 20.6877 49.8664 19.6503L47.4006 22.2138C48.978 24.1493 50.9232 25.1326 53.2525 25.1326C56.749 25.1326 59.5612 22.9513 59.5612 19.5409C59.5612 12.1822 51.4583 14.469 51.4583 11.2784M101.587 22.0009C99.5832 22.0009 99.0132 21.1338 99.0132 19.8061V13.9271H102.129V10.9484H99.0132V7.01836L95.5738 8.56191V20.5367C95.5738 23.5996 97.6874 25.1432 100.585 25.1432C101.04 25.1509 101.494 25.1142 101.942 25.0348L102.781 21.9458C102.402 21.9719 101.968 21.998 101.587 21.998M39.2425 10.5119C37.5625 10.5119 36.3896 10.9996 35.2554 12.1116V5.66739H31.8587V17.6122C31.8587 22.0832 35.0909 25.1471 38.7238 25.1471C42.7535 25.1471 46.2983 22.029 46.2983 17.8309C46.2983 13.6851 43.0361 10.5148 39.2425 10.5148M39.2212 21.728C38.715 21.728 38.2137 21.6283 37.746 21.4346C37.2783 21.2409 36.8533 20.9569 36.4953 20.5989C36.1374 20.241 35.8534 19.816 35.6597 19.3483C35.466 18.8806 35.3662 18.3793 35.3662 17.873C35.3662 17.3668 35.466 16.8655 35.6597 16.3978C35.8534 15.9301 36.1374 15.5051 36.4953 15.1471C36.8533 14.7892 37.2783 14.5052 37.746 14.3115C38.2137 14.1177 38.715 14.018 39.2212 14.018C40.2437 14.018 41.2242 14.4242 41.9471 15.1471C42.6701 15.8701 43.0762 16.8506 43.0762 17.873C43.0762 18.8954 42.6701 19.876 41.9471 20.5989C41.2242 21.3219 40.2437 21.728 39.2212 21.728ZM76.1329 17.6529C76.1329 13.4471 72.5958 10.3367 68.5583 10.3367C64.9264 10.3367 61.6932 13.3996 61.6932 17.8716V29.8232H65.09V23.3703C66.2222 24.4803 67.397 24.97 69.0751 24.97C72.8687 24.97 76.1319 21.7997 76.1319 17.6529M72.9161 17.6103C72.9161 18.6327 72.5099 19.6132 71.787 20.3362C71.064 21.0591 70.0835 21.4653 69.0611 21.4653C68.0387 21.4653 67.0581 21.0591 66.3352 20.3362C65.6122 19.6132 65.2061 18.6327 65.2061 17.6103C65.2061 16.5879 65.6122 15.6074 66.3352 14.8844C67.0581 14.1614 68.0387 13.7553 69.0611 13.7553C70.0835 13.7553 71.064 14.1614 71.787 14.8844C72.5099 15.6074 72.9161 16.5879 72.9161 17.6103Z" fill="#33475B"/>
<path d="M87.1089 10.1723V6.75906C87.56 6.54825 87.9419 6.21368 88.2102 5.79427C88.4785 5.37487 88.6221 4.88789 88.6244 4.39002V4.31164C88.6244 2.86002 87.4476 1.68325 85.996 1.68325H85.9176C85.2205 1.68325 84.552 1.96017 84.0591 2.45309C83.5662 2.946 83.2893 3.61454 83.2893 4.31164V4.39002C83.2916 4.88789 83.4352 5.37487 83.7035 5.79427C83.9718 6.21368 84.3537 6.54825 84.8047 6.75906V10.1723C83.5084 10.3708 82.2875 10.9083 81.2657 11.7303L71.9047 4.43938C71.9715 4.19841 72.0064 3.95067 72.0102 3.70196C72.0114 3.11619 71.8388 2.54324 71.5142 2.05558C71.1897 1.56792 70.7279 1.18746 70.1871 0.962321C69.6463 0.737184 69.0509 0.677486 68.4762 0.790778C67.9015 0.90407 67.3733 1.18526 66.9584 1.59879C66.5435 2.01231 66.2606 2.53959 66.1454 3.11393C66.0303 3.68826 66.088 4.28385 66.3114 4.82536C66.5348 5.36687 66.9137 5.82997 67.4003 6.15609C67.8869 6.4822 68.4593 6.65668 69.0451 6.65744C69.5575 6.65503 70.0604 6.51822 70.5035 6.26067L79.7212 13.4336C78.8931 14.6845 78.4611 16.156 78.4815 17.656C78.5019 19.1561 78.9737 20.6152 79.8354 21.8432L77.0318 24.6478C76.8052 24.5753 76.5691 24.5368 76.3312 24.5336C75.8504 24.534 75.3804 24.6769 74.9808 24.9442C74.5812 25.2116 74.2698 25.5914 74.0859 26.0357C73.9021 26.48 73.8541 26.9689 73.948 27.4404C74.0419 27.912 74.2735 28.3451 74.6135 28.6851C74.9535 29.0251 75.3866 29.2567 75.8582 29.3506C76.3298 29.4445 76.8186 29.3965 77.2629 29.2127C77.7072 29.0289 78.087 28.7175 78.3544 28.3178C78.6218 27.9182 78.7647 27.4483 78.7651 26.9674C78.7619 26.7295 78.7235 26.4934 78.6509 26.2668L81.4244 23.4923C82.3288 24.1886 83.3807 24.6686 84.4993 24.8956C85.6179 25.1226 86.7736 25.0906 87.8779 24.8019C88.9823 24.5133 90.0058 23.9757 90.8703 23.2303C91.7347 22.485 92.4171 21.5516 92.8651 20.5018C93.3132 19.452 93.515 18.3136 93.455 17.1737C93.3951 16.0339 93.0751 14.9229 92.5195 13.9258C91.9639 12.9288 91.1874 12.0721 90.2496 11.4215C89.3117 10.7709 88.2374 10.3436 87.1089 10.1723ZM85.9593 21.3981C85.4467 21.4122 84.9365 21.3234 84.4588 21.137C83.9811 20.9506 83.5456 20.6703 83.1781 20.3127C82.8105 19.9552 82.5184 19.5276 82.3189 19.0552C82.1194 18.5828 82.0166 18.0752 82.0166 17.5624C82.0166 17.0497 82.1194 16.5421 82.3189 16.0697C82.5184 15.5973 82.8105 15.1697 83.1781 14.8121C83.5456 14.4546 83.9811 14.1743 84.4588 13.9879C84.9365 13.8015 85.4467 13.7127 85.9593 13.7268C86.9527 13.7616 87.8939 14.1806 88.5846 14.8955C89.2753 15.6104 89.6616 16.5655 89.6621 17.5596C89.6626 18.5537 89.2773 19.5092 88.5873 20.2248C87.8973 20.9404 86.9566 21.3604 85.9631 21.3962" fill="#FF7A59"/>
</g>
<defs>
<clipPath id="clip0_16543_2908">
<rect width="102.581" height="30" fill="white" transform="translate(0.199951 0.736816)"/>
</clipPath>
</defs>
</svg>
