<svg width="119" height="31" viewBox="0 0 119 31" fill="none" xmlns="http://www.w3.org/2000/svg">
<path d="M15.9411 16.6964C13.9934 16.6964 12.446 17.4637 11.3521 18.9719C10.7118 17.8077 9.43114 16.6964 7.48349 16.6964C5.48248 16.6964 4.30855 17.5696 3.48147 18.4956V18.231C3.48147 17.4637 2.84115 16.8287 2.06742 16.8287C1.2937 16.8287 0.680054 17.4637 0.680054 18.231V28.8941C0.680054 29.6614 1.2937 30.27 2.06742 30.27C2.84115 30.27 3.48147 29.6614 3.48147 28.8941V21.512C4.12179 20.4801 5.08228 19.3159 6.81649 19.3159C8.47066 19.3159 9.11098 20.1096 9.11098 22.1735V28.8941C9.11098 29.6614 9.72462 30.27 10.4983 30.27C11.2721 30.27 11.9124 29.6614 11.9124 28.8941V21.512C12.5527 20.4801 13.5132 19.3159 15.2474 19.3159C16.9016 19.3159 17.5419 20.1096 17.5419 22.1735V28.8941C17.5419 29.6614 18.1555 30.27 18.9293 30.27C19.703 30.27 20.3433 29.6614 20.3433 28.8941V21.7236C20.3967 19.2894 19.0093 16.6964 15.9411 16.6964ZM29.3879 16.6964C27.8404 16.6964 26.4264 16.9875 24.959 17.6225C24.4521 17.8341 24.1319 18.2575 24.1319 18.8131C24.1319 19.5011 24.6655 20.0303 25.3325 20.0303C25.4392 20.0303 25.5726 20.0038 25.7327 19.9773C26.7199 19.6598 27.6537 19.3952 28.9877 19.3952C31.1488 19.3952 32.0559 20.189 32.0826 22.147H29.3078C25.5193 22.147 23.2781 23.761 23.2781 26.4334C23.2781 29.0528 25.4659 30.4287 27.627 30.4287C29.3612 30.4287 30.8553 29.8995 32.0826 28.8941V28.9205C32.0826 29.6879 32.6962 30.2964 33.47 30.2964C34.2437 30.2964 34.884 29.6879 34.884 28.9205V21.8824C34.884 19.2894 33.1765 16.6964 29.3879 16.6964ZM28.4808 27.8622C26.9066 27.8622 26.0796 27.2801 26.0796 26.1423C26.0796 25.719 26.0796 24.4489 29.6013 24.4489H32.0559V26.1688C31.3355 26.9626 29.9749 27.8622 28.4808 27.8622ZM40.3801 11.7221C41.2339 11.7221 41.9276 12.41 41.9276 13.2567V13.3626C41.9276 14.2092 41.2339 14.8972 40.3801 14.8972H40.22C39.3663 14.8972 38.6726 14.2092 38.6726 13.3626V13.2567C38.6726 12.41 39.3663 11.7221 40.22 11.7221H40.3801ZM40.3001 16.8022C41.1005 16.8022 41.7141 17.4373 41.7141 18.2046V28.8676C41.7141 29.6349 41.1005 30.2435 40.3001 30.2435C39.5263 30.2435 38.9127 29.6349 38.9127 28.8676V18.2046C38.9127 17.4108 39.5263 16.8022 40.3001 16.8022ZM47.4237 11.3252C48.2241 11.3252 48.8377 11.9602 48.8377 12.7275V28.8676C48.8377 29.6349 48.2241 30.2435 47.4237 30.2435C46.6499 30.2435 46.0363 29.6349 46.0363 28.8676V12.7275C46.0363 11.9338 46.6499 11.3252 47.4237 11.3252ZM58.5493 16.6964C56.5483 16.6964 54.8941 17.4373 53.7735 18.8396C52.8131 20.0567 52.2795 21.7236 52.2795 23.5493C52.2795 27.8357 54.8141 30.4023 59.0295 30.4023C61.3507 30.4023 62.4979 29.8731 63.5385 29.2645C64.0454 28.9735 64.3122 28.5501 64.3122 28.1268C64.3122 27.4388 63.7519 26.8832 63.0316 26.8832C62.8181 26.8832 62.6313 26.9096 62.4713 27.0155C61.7242 27.4124 60.7904 27.7563 59.2163 27.7563C56.8684 27.7563 55.4811 26.6715 55.1342 24.6077H63.325C64.1521 24.6077 64.7391 24.0256 64.7391 23.2318C64.7924 18.7338 61.5641 16.6964 58.5493 16.6964ZM58.5493 19.1306C59.7232 19.1306 61.6975 19.7921 61.9643 22.2264H55.1342C55.401 20.0832 57.0018 19.1306 58.5493 19.1306ZM74.5307 16.6964C75.3044 16.6964 75.8914 17.2785 75.8914 18.0458C75.8914 18.8131 75.3044 19.3688 74.4773 19.3688H74.3439C72.9032 19.3688 71.6226 20.0832 70.7154 21.3797V28.8676C70.7154 29.6349 70.0751 30.2435 69.3014 30.2435C68.5277 30.2435 67.914 29.6349 67.914 28.8676V18.2046C67.914 17.4373 68.5277 16.8022 69.3014 16.8022C70.0751 16.8022 70.7154 17.4373 70.7154 18.2046V18.5485C71.836 17.3314 73.0633 16.6964 74.3973 16.6964H74.5307Z" fill="#292C31"/>
<path d="M115.6 5.14844H85.6V21.9131H115.6V5.14844Z" fill="white"/>
<path d="M114.108 0.951172H85.3269C83.1088 0.951172 81.2694 2.7726 81.2694 4.96903V18.3619V20.9869V30.4958L86.8688 25.0047H114.135C116.354 25.0047 118.193 23.1833 118.193 20.9869V4.96903C118.166 2.74582 116.354 0.951172 114.108 0.951172ZM89.8984 18.9512C89.8984 19.5405 89.4115 19.9958 88.8164 19.9958C88.2213 19.9958 87.7615 19.5137 87.7615 18.9512V7.56724C87.7615 6.97796 88.2213 6.49581 88.8164 6.49581C89.4115 6.49581 89.8984 6.97796 89.8984 7.56724V18.9512ZM94.9298 18.9512C94.9298 19.5405 94.4429 19.9958 93.8478 19.9958C93.2527 19.9958 92.7928 19.5137 92.7928 18.9512V11.4244C92.7928 10.8351 93.2527 10.353 93.8478 10.353C94.4429 10.353 94.9298 10.8351 94.9298 11.4244V18.9512ZM95.065 7.99582C95.065 8.63867 94.5511 9.1476 93.9019 9.1476H93.7937C93.1445 9.1476 92.6305 8.63867 92.6305 7.99582V7.91546C92.6305 7.2726 93.1445 6.76367 93.7937 6.76367H93.9019C94.5511 6.76367 95.065 7.2726 95.065 7.91546V7.99582ZM102.693 19.7547C102.179 19.9958 101.665 20.103 101.097 20.103C99.2308 20.103 98.2299 19.219 98.2299 17.5315V12.3619H97.2561C96.9044 12.3619 96.661 12.094 96.661 11.7726C96.661 11.5851 96.7421 11.3976 96.9044 11.2637L99.2849 8.93332C99.339 8.87974 99.5283 8.69224 99.7718 8.69224C100.123 8.69224 100.367 8.9601 100.367 9.30832V10.4333H102.098C102.639 10.4333 103.072 10.8619 103.072 11.3976C103.072 11.9333 102.639 12.3619 102.098 12.3619H100.394V17.3976C100.394 18.1208 100.773 18.1744 101.287 18.1744C101.584 18.1744 101.746 18.1208 101.909 18.094C102.044 18.0672 102.179 18.0137 102.342 18.0137C102.774 18.0137 103.261 18.3619 103.261 18.9244C103.234 19.2726 103.045 19.594 102.693 19.7547ZM109.32 18.094C110.43 18.094 111.052 17.853 111.593 17.5851C111.728 17.5047 111.863 17.478 112.026 17.478C112.567 17.478 112.999 17.9065 112.999 18.4422C112.999 18.7905 112.783 19.1119 112.404 19.3262C111.647 19.7547 110.835 20.1297 109.158 20.1297C106.129 20.1297 104.289 18.2815 104.289 15.2012C104.289 11.5851 106.724 10.2726 108.807 10.2726C111.89 10.2726 113.297 12.7101 113.297 14.9601C113.297 15.5762 112.837 16.0047 112.215 16.0047H106.534C106.805 17.3708 107.779 18.094 109.32 18.094ZM108.834 12.1744C107.806 12.1744 106.724 12.7905 106.534 14.2101H111.16C110.944 12.7905 109.862 12.1744 108.834 12.1744Z" fill="#09C269"/>
</svg>
