<svg width="97" height="30" viewBox="0 0 97 30" fill="none" xmlns="http://www.w3.org/2000/svg">
<g clip-path="url(#clip0_16548_2588)">
<path d="M25.1613 0H4.83871C2.16636 0 0 2.16636 0 4.83871V25.1613C0 27.8337 2.16636 30 4.83871 30H25.1613C27.8337 30 30 27.8337 30 25.1613V4.83871C30 2.16636 27.8337 0 25.1613 0Z" fill="#FFD02F"/>
<path fill-rule="evenodd" clip-rule="evenodd" d="M20.3225 4.83887H17.4193L19.8387 9.19371L14.5161 4.83887H11.6129L14.2741 10.1614L8.70962 4.83887H5.8064L8.70962 11.6131L5.8064 25.1614H8.70962L14.2741 10.6453L11.6129 25.1614H14.5161L19.8387 9.67758L17.4193 25.1614H20.3225L25.6451 8.22596L20.3225 4.83887Z" fill="#050038"/>
<path fill-rule="evenodd" clip-rule="evenodd" d="M89.0323 6.77424C93.871 6.77424 96.7743 10.3862 96.7743 15C96.7743 19.5968 93.871 23.2259 89.0323 23.2259C84.1936 23.2259 81.2904 19.6139 81.2904 15C81.2904 10.3862 84.1936 6.77424 89.0323 6.77424ZM67.2581 7.74198V22.742H63.871V15.4839V11.8549V8.22585L67.2581 7.74198ZM79.8388 7.25811V10.6452L77.9033 10.8871C76.2097 11.1291 75.0001 12.0968 75.0001 14.0226V22.742H71.613V14.0226C71.613 9.88072 74.0323 7.98392 77.9033 7.50005L79.8388 7.25811ZM45.9678 7.25811C47.4194 7.25811 48.9204 7.85799 49.8388 9.1936C50.7605 7.97734 52.2581 7.25811 54.1936 7.25811C56.6129 7.25811 59.5162 8.70972 59.5162 13.5484V22.742H56.1291V13.5484C56.1291 11.8549 55.0742 10.6452 53.4678 10.6452C51.8613 10.6452 50.8065 11.8549 50.8065 13.5484V22.742H47.4194V13.5484C47.4194 11.8549 46.3643 10.6452 44.7581 10.6452C43.1231 10.6452 42.0968 11.8549 42.0968 13.5484V22.742H38.7097V13.5484V8.22585L42.0968 7.74198V9.1936C43.0433 8.03001 44.0323 7.25811 45.9678 7.25811ZM89.0323 10.1613C86.1291 10.1613 84.6775 12.3282 84.6775 15C84.6775 17.672 86.1291 19.8388 89.0323 19.8388C91.9355 19.8388 93.3872 17.6613 93.3872 15C93.3872 12.3315 91.9355 10.1613 89.0323 10.1613ZM65.5646 1.45166C66.7742 1.45166 67.742 2.17747 67.742 3.62908C67.742 5.08069 66.7742 5.8065 65.5646 5.8065C64.3549 5.8065 63.3871 5.08069 63.3871 3.62908C63.3871 2.17746 64.3549 1.45166 65.5646 1.45166Z" fill="#050038"/>
</g>
<defs>
<clipPath id="clip0_16548_2588">
<rect width="96.7742" height="30" fill="white"/>
</clipPath>
</defs>
</svg>
