<svg width="104" height="31" viewBox="0 0 104 31" fill="none" xmlns="http://www.w3.org/2000/svg">
<g clip-path="url(#clip0_16543_2906)">
<path fill-rule="evenodd" clip-rule="evenodd" d="M14.0131 1.75927C15.3501 0.396 17.5369 0.396 18.8732 1.75927L31.0913 14.2153C32.4269 15.577 32.4269 17.8082 31.0913 19.1715L22.5459 27.8828C21.9209 28.5201 21.057 28.9138 20.1039 28.9138H12.7839C11.9156 28.9138 11.1232 28.5876 10.5153 28.049L1.80167 19.1646C0.466094 17.8021 0.466094 15.5725 1.80167 14.2092L14.0131 1.75927ZM18.5332 24.4986L17.3144 25.7412C17.2251 25.8323 17.1016 25.8884 16.9655 25.8884H15.9215C15.7973 25.8884 15.6849 25.8421 15.5971 25.7647L14.3546 24.497C14.1648 24.3036 14.1648 23.9857 14.3546 23.7908L16.0964 22.0148C16.2876 21.8198 16.6001 21.8198 16.7899 22.0148L18.5332 23.7915C18.7244 23.9857 18.7244 24.3036 18.5332 24.4986ZM18.5332 17.0465L13.6597 22.0156C13.5696 22.1066 13.4468 22.1627 13.3114 22.1627H12.2668C12.1432 22.1627 12.0294 22.1164 11.9431 22.0391L10.6998 20.7722C10.5093 20.5772 10.5093 20.2586 10.6998 20.0651L16.0964 14.5627C16.2876 14.3685 16.6001 14.3685 16.7906 14.5627L18.5332 16.3395C18.7244 16.5337 18.7244 16.8523 18.5332 17.0465ZM18.5332 9.59444L10.0056 18.2891C9.91482 18.3802 9.79204 18.4363 9.65664 18.4363H8.61271C8.48921 18.4363 8.37539 18.39 8.28907 18.3127L7.04501 17.045C6.85453 16.8516 6.85453 16.5329 7.04501 16.3379L16.0964 7.1099C16.2876 6.91494 16.5986 6.91494 16.7899 7.1099L18.5332 8.88738C18.7244 9.08159 18.7244 9.40024 18.5332 9.59444Z" fill="#26A943"/>
<path d="M90.1921 12.1822V6.95215H86.4941V25.9059H90.1921V12.7367L94.7257 25.0562C94.8305 25.321 94.8811 25.613 94.8811 25.9059C94.8811 26.7555 94.4131 27.524 93.4498 27.6302C92.7211 27.6575 91.9928 27.5771 91.2898 27.4975V30.6048C92.0441 30.6845 92.7985 30.7368 93.5546 30.7368C96.0782 30.7368 97.3805 29.8341 98.1884 27.6302L103.812 12.1822H99.9847L97.0426 21.5794H96.9912L93.9439 12.1822H90.1921Z" fill="#2E2E2E"/>
<path d="M46.863 7.05834C46.2388 7.03181 45.5618 6.95215 44.9112 6.95215C41.8906 6.95215 40.4069 8.67802 40.4069 11.1193V12.1822H38.1934V14.7031H40.4069V25.9059H44.1034V14.7031H46.6555V12.1822H44.1034V11.3583C44.1034 10.2173 44.4941 9.7917 45.5087 9.7917C45.9522 9.7917 46.4202 9.81979 46.863 9.87288V7.05834Z" fill="#2E2E2E"/>
<path fill-rule="evenodd" clip-rule="evenodd" d="M85.6862 6.95215V25.9059H82.1705V24.1527H82.1191C81.2596 25.6403 79.7755 26.2768 78.0312 26.2768C74.3401 26.2768 72.3691 23.3606 72.0409 19.9597H62.3578C62.4626 22.3752 63.5809 23.4365 65.665 23.4365C67.1473 23.4365 68.3466 22.5064 68.5805 21.659H71.8356C70.7925 24.9242 68.5805 26.2768 65.5342 26.2768C61.5988 26.2768 59.052 23.7202 58.7032 19.9597H49.1827C49.2872 22.3752 50.4062 23.4365 52.4889 23.4365C53.9723 23.4365 55.1705 22.5064 55.4039 21.659H58.6584C57.6182 24.9242 55.404 26.2768 52.3591 26.2768C48.1136 26.2768 45.4841 23.3037 45.4841 19.0561C45.4841 14.9421 48.2701 11.8104 52.3591 11.8104C56.0676 11.8104 58.2409 14.3837 58.7827 17.6026C59.3585 14.2267 61.945 11.8104 65.5342 11.8104C69.4262 11.8104 71.6274 14.6439 72.0261 18.0836C72.3095 14.7304 74.2993 11.8104 77.9538 11.8104C79.5409 11.8104 81.1035 12.5 81.9362 13.8534H81.9897V6.95215H85.6862ZM52.255 14.65C49.8586 14.65 49.2612 16.5087 49.1827 17.5707H55.1965C54.8578 15.6582 54.0514 14.65 52.255 14.65ZM62.3578 17.5707C62.4366 16.5087 63.0348 14.65 65.4301 14.65C67.2261 14.65 68.0343 15.6582 68.3719 17.5707H62.3578ZM82.1191 19.0038C82.1191 16.7742 81.338 14.65 78.942 14.65C76.5225 14.65 75.6883 16.8007 75.6883 19.0304C75.6883 21.1811 76.6512 23.4365 78.942 23.4365C81.3648 23.4365 82.1191 21.26 82.1191 19.0038Z" fill="#2E2E2E"/>
</g>
<defs>
<clipPath id="clip0_16543_2906">
<rect width="103.012" height="30" fill="white" transform="translate(0.799988 0.736816)"/>
</clipPath>
</defs>
</svg>
