<svg width="98" height="31" viewBox="0 0 98 31" fill="none" xmlns="http://www.w3.org/2000/svg">
<g clip-path="url(#clip0_16543_2904)">
<path d="M25.5613 0.736816H5.23874C2.56639 0.736816 0.400024 2.90318 0.400024 5.57553V25.8981C0.400024 28.5705 2.56639 30.7368 5.23874 30.7368H25.5613C28.2337 30.7368 30.4 28.5705 30.4 25.8981V5.57553C30.4 2.90318 28.2337 0.736816 25.5613 0.736816Z" fill="#FFD02F"/>
<path fill-rule="evenodd" clip-rule="evenodd" d="M20.7226 5.57568H17.8194L20.2387 9.93052L14.9162 5.57568H12.0129L14.6742 10.8983L9.10971 5.57568H6.20648L9.10971 12.3499L6.20648 25.8983H9.10971L14.6742 11.3821L12.0129 25.8983H14.9162L20.2387 10.4144L17.8194 25.8983H20.7226L26.0452 8.96278L20.7226 5.57568Z" fill="#050038"/>
<path fill-rule="evenodd" clip-rule="evenodd" d="M89.4323 7.51106C94.271 7.51106 97.1742 11.123 97.1742 15.7369C97.1742 20.3336 94.271 23.9627 89.4323 23.9627C84.5936 23.9627 81.6903 20.3507 81.6903 15.7369C81.6903 11.123 84.5936 7.51106 89.4323 7.51106ZM67.6581 8.4788V23.4788H64.271V16.2207V12.5917V8.96267L67.6581 8.4788ZM80.2387 7.99493V11.382L78.3032 11.624C76.6097 11.8659 75.4 12.8336 75.4 14.7594V23.4788H72.0129V14.7594C72.0129 10.6175 74.4323 8.72073 78.3032 8.23686L80.2387 7.99493ZM46.3677 7.99493C47.8194 7.99493 49.3203 8.59481 50.2387 9.93041C51.1605 8.71415 52.6581 7.99493 54.5936 7.99493C57.0129 7.99493 59.9161 9.44654 59.9161 14.2853V23.4788H56.529V14.2853C56.529 12.5917 55.4742 11.382 53.8678 11.382C52.2613 11.382 51.2065 12.5917 51.2065 14.2853V23.4788H47.8194V14.2853C47.8194 12.5917 46.7643 11.382 45.1581 11.382C43.5231 11.382 42.4968 12.5917 42.4968 14.2853V23.4788H39.1097V14.2853V8.96267L42.4968 8.4788V9.93041C43.4432 8.76682 44.4323 7.99493 46.3677 7.99493ZM89.4323 10.8982C86.5291 10.8982 85.0774 13.065 85.0774 15.7369C85.0774 18.4088 86.5291 20.5756 89.4323 20.5756C92.3355 20.5756 93.7871 18.3982 93.7871 15.7369C93.7871 13.0683 92.3355 10.8982 89.4323 10.8982ZM65.9645 2.18848C67.1742 2.18848 68.1419 2.91428 68.1419 4.3659C68.1419 5.81751 67.1742 6.54331 65.9645 6.54331C64.7549 6.54331 63.7871 5.81751 63.7871 4.3659C63.7871 2.91428 64.7549 2.18848 65.9645 2.18848Z" fill="#050038"/>
</g>
<defs>
<clipPath id="clip0_16543_2904">
<rect width="96.7742" height="30" fill="white" transform="translate(0.400024 0.736816)"/>
</clipPath>
</defs>
</svg>
