<svg width="141" height="41" viewBox="0 0 141 41" fill="none" xmlns="http://www.w3.org/2000/svg">
<rect width="141" height="41" rx="8" fill="#111827"/>
<path d="M34.1294 20.3492C34.1011 17.2665 36.7014 15.7668 36.8203 15.697C35.3477 13.5899 33.0651 13.302 32.263 13.279C30.3459 13.081 28.4864 14.4048 27.5098 14.4048C26.5138 14.4048 25.0099 13.2981 23.3892 13.3307C21.3035 13.3622 19.3523 14.5473 18.2822 16.3875C16.0737 20.1398 17.7208 25.6538 19.8367 28.6868C20.8951 30.1722 22.1319 31.8307 23.7507 31.7723C25.3345 31.7083 25.9261 30.7814 27.8373 30.7814C29.731 30.7814 30.2865 31.7723 31.9375 31.735C33.6372 31.7083 34.7073 30.2429 35.7287 28.7442C36.9519 27.0416 37.4431 25.365 37.4626 25.2789C37.4226 25.2655 34.1616 24.0441 34.1294 20.3492Z" fill="white"/>
<path d="M31.0106 11.2838C31.8624 10.2384 32.4453 8.81612 32.2835 7.3728C31.0506 7.42637 29.5088 8.20971 28.6209 9.23218C27.8353 10.1332 27.1336 11.61 27.3149 12.9988C28.6998 13.1001 30.1218 12.313 31.0106 11.2838Z" fill="white"/>
<path d="M56.995 31.5592H54.7816L53.5692 27.8204H49.355L48.2 31.5592H46.0452L50.2204 18.8305H52.7992L56.995 31.5592ZM53.2037 26.2518L52.1073 22.9281C51.9913 22.5885 51.7739 21.7889 51.4533 20.5302H51.4143C51.2866 21.0715 51.081 21.8712 50.7984 22.9281L49.7214 26.2518H53.2037Z" fill="white"/>
<path d="M67.7323 26.8573C67.7323 28.4182 67.3025 29.6521 66.4429 30.5578C65.6729 31.3641 64.7168 31.7668 63.5755 31.7668C62.3436 31.7668 61.4587 31.3326 60.9197 30.4641H60.8807V35.2991H58.8029V25.4025C58.8029 24.4211 58.7765 23.414 58.7259 22.381H60.5533L60.6692 23.8358H60.7082C61.4012 22.7397 62.4528 22.1926 63.864 22.1926C64.9673 22.1926 65.8883 22.6201 66.6251 23.4761C67.3639 24.3331 67.7323 25.4599 67.7323 26.8573ZM65.6154 26.9319C65.6154 26.0385 65.4107 25.302 64.9995 24.7224C64.5502 24.1179 63.9469 23.8157 63.1906 23.8157C62.6779 23.8157 62.2121 23.984 61.7959 24.3159C61.3788 24.6507 61.1059 25.0878 60.9782 25.6291C60.9139 25.8817 60.8817 26.0883 60.8817 26.2509V27.7812C60.8817 28.4488 61.0903 29.0122 61.5074 29.4722C61.9245 29.9323 62.4664 30.1619 63.1331 30.1619C63.9157 30.1619 64.5248 29.8654 64.9605 29.2743C65.3971 28.6822 65.6154 27.9017 65.6154 26.9319Z" fill="white"/>
<path d="M78.4891 26.8573C78.4891 28.4182 78.0593 29.6521 77.1987 30.5578C76.4297 31.3641 75.4736 31.7668 74.3324 31.7668C73.1005 31.7668 72.2155 31.3326 71.6775 30.4641H71.6385V35.2991H69.5607V25.4025C69.5607 24.4211 69.5343 23.414 69.4837 22.381H71.3111L71.427 23.8358H71.466C72.158 22.7397 73.2096 22.1926 74.6218 22.1926C75.7241 22.1926 76.6451 22.6201 77.3839 23.4761C78.1197 24.3331 78.4891 25.4599 78.4891 26.8573ZM76.3722 26.9319C76.3722 26.0385 76.1666 25.302 75.7553 24.7224C75.306 24.1179 74.7047 23.8157 73.9474 23.8157C73.4338 23.8157 72.9689 23.984 72.5518 24.3159C72.1346 24.6507 71.8627 25.0878 71.735 25.6291C71.6717 25.8817 71.6385 26.0883 71.6385 26.2509V27.7812C71.6385 28.4488 71.8471 29.0122 72.2623 29.4722C72.6794 29.9313 73.2213 30.1619 73.8899 30.1619C74.6725 30.1619 75.2816 29.8654 75.7173 29.2743C76.1539 28.6822 76.3722 27.9017 76.3722 26.9319Z" fill="white"/>
<path d="M90.5158 27.9897C90.5158 29.0724 90.1328 29.9533 89.3638 30.6334C88.5189 31.3766 87.3425 31.7477 85.8309 31.7477C84.4352 31.7477 83.3164 31.4837 82.4694 30.9548L82.9509 29.2551C83.8631 29.7965 84.864 30.0681 85.9546 30.0681C86.7373 30.0681 87.3464 29.894 87.784 29.5478C88.2196 29.2016 88.437 28.7367 88.437 28.1571C88.437 27.6406 88.2576 27.2054 87.898 26.8525C87.5403 26.4995 86.9429 26.1715 86.1086 25.8683C83.8378 25.0371 82.7033 23.8195 82.7033 22.2184C82.7033 21.172 83.101 20.314 83.8972 19.6464C84.6906 18.9779 85.749 18.644 87.0725 18.644C88.2528 18.644 89.2332 18.8459 90.0159 19.2485L89.4964 20.9109C88.7654 20.5206 87.9389 20.3255 87.014 20.3255C86.2831 20.3255 85.712 20.5025 85.3026 20.8544C84.9566 21.1691 84.7831 21.5527 84.7831 22.007C84.7831 22.5101 84.981 22.9262 85.3786 23.2533C85.7246 23.5555 86.3533 23.8826 87.2655 24.2356C88.3814 24.6765 89.2011 25.192 89.7283 25.7831C90.2537 26.3723 90.5158 27.1098 90.5158 27.9897Z" fill="white"/>
<path d="M97.3859 23.9113H95.0955V28.3675C95.0955 29.5009 95.499 30.0671 96.308 30.0671C96.6793 30.0671 96.9873 30.0356 97.2309 29.9725L97.2884 31.521C96.8791 31.6711 96.3401 31.7467 95.6725 31.7467C94.8519 31.7467 94.2106 31.5009 93.7477 31.0102C93.2867 30.5186 93.0547 29.6941 93.0547 28.5358V23.9094H91.6902V22.379H93.0547V20.6985L95.0955 20.094V22.379H97.3859V23.9113Z" fill="white"/>
<path d="M107.72 26.8945C107.72 28.3053 107.308 29.4636 106.488 30.3694C105.627 31.302 104.485 31.7668 103.061 31.7668C101.689 31.7668 100.596 31.3201 99.7815 30.4268C98.9667 29.5334 98.5593 28.4058 98.5593 27.0466C98.5593 25.6244 98.9784 24.4594 99.8195 23.5536C100.659 22.6469 101.791 22.1935 103.215 22.1935C104.587 22.1935 105.692 22.6402 106.525 23.5345C107.322 24.402 107.72 25.522 107.72 26.8945ZM105.564 26.9605C105.564 26.1141 105.38 25.3881 105.006 24.7827C104.571 24.05 103.948 23.6846 103.141 23.6846C102.306 23.6846 101.671 24.051 101.236 24.7827C100.862 25.3891 100.678 26.1265 100.678 26.9988C100.678 27.8453 100.862 28.5712 101.236 29.1757C101.685 29.9084 102.313 30.2738 103.122 30.2738C103.916 30.2738 104.539 29.9007 104.988 29.1566C105.371 28.5397 105.564 27.8061 105.564 26.9605Z" fill="white"/>
<path d="M114.474 24.1744C114.268 24.1371 114.049 24.1179 113.819 24.1179C113.088 24.1179 112.523 24.3886 112.125 24.9309C111.779 25.4092 111.606 26.0136 111.606 26.7434V31.5593H109.529L109.548 25.2714C109.548 24.2136 109.522 23.2504 109.47 22.3819H111.28L111.356 24.138H111.414C111.633 23.5345 111.979 23.0486 112.452 22.6842C112.915 22.3561 113.415 22.1926 113.954 22.1926C114.146 22.1926 114.32 22.2059 114.474 22.2299V24.1744Z" fill="white"/>
<path d="M123.767 26.5359C123.767 26.9012 123.742 27.2092 123.691 27.4608H117.457C117.481 28.3675 117.783 29.0609 118.362 29.5392C118.887 29.9667 119.566 30.181 120.4 30.181C121.323 30.181 122.165 30.0365 122.923 29.7467L123.248 31.1623C122.363 31.5411 121.319 31.7295 120.113 31.7295C118.663 31.7295 117.524 31.3106 116.696 30.4737C115.869 29.6367 115.455 28.5129 115.455 27.1031C115.455 25.719 115.84 24.5665 116.611 23.6473C117.418 22.666 118.509 22.1753 119.881 22.1753C121.229 22.1753 122.249 22.666 122.942 23.6473C123.491 24.4269 123.767 25.391 123.767 26.5359ZM121.785 26.0069C121.799 25.4025 121.664 24.8802 121.382 24.4393C121.022 23.8721 120.47 23.589 119.726 23.589C119.047 23.589 118.494 23.8654 118.072 24.4202C117.726 24.8611 117.52 25.39 117.457 26.006H121.785V26.0069Z" fill="white"/>
<path d="M52.5166 11C52.5166 12.1257 52.1726 12.9732 51.4855 13.5423C50.8491 14.0674 49.9446 14.3304 48.7731 14.3304C48.1923 14.3304 47.6952 14.3055 47.2791 14.2558V8.10473C47.8219 8.01864 48.4067 7.97465 49.0382 7.97465C50.1542 7.97465 50.9953 8.21281 51.5625 8.68913C52.1979 9.22762 52.5166 9.99758 52.5166 11ZM51.4397 11.0277C51.4397 10.2979 51.2428 9.73838 50.8491 9.34814C50.4553 8.95885 49.8803 8.76373 49.123 8.76373C48.8014 8.76373 48.5275 8.78478 48.3004 8.82877V13.505C48.4262 13.5241 48.6562 13.5327 48.9905 13.5327C49.7721 13.5327 50.3754 13.3194 50.8003 12.8928C51.2253 12.4662 51.4397 11.8445 51.4397 11.0277Z" fill="white"/>
<path d="M58.2269 11.9832C58.2269 12.6766 58.0252 13.2448 57.6217 13.6905C57.1987 14.1487 56.6383 14.3773 55.9385 14.3773C55.2641 14.3773 54.7271 14.1582 54.3265 13.7182C53.9269 13.2792 53.7271 12.7254 53.7271 12.0578C53.7271 11.3596 53.9327 10.7867 54.346 10.3419C54.7592 9.89715 55.3147 9.67429 56.0145 9.67429C56.689 9.67429 57.2308 9.89332 57.6412 10.3323C58.031 10.7589 58.2269 11.3099 58.2269 11.9832ZM57.1675 12.0157C57.1675 11.5997 57.0759 11.2429 56.8936 10.9454C56.6792 10.5858 56.3742 10.406 55.9775 10.406C55.5672 10.406 55.2553 10.5858 55.0409 10.9454C54.8577 11.2429 54.767 11.6054 54.767 12.0339C54.767 12.45 54.8586 12.8067 55.0409 13.1042C55.2621 13.4638 55.5701 13.6436 55.9677 13.6436C56.3576 13.6436 56.6636 13.461 56.8839 13.0946C57.073 12.7914 57.1675 12.4318 57.1675 12.0157Z" fill="white"/>
<path d="M65.8835 9.76611L64.4459 14.2749H63.5103L62.9148 12.317C62.7637 11.8283 62.6409 11.3424 62.5454 10.8603H62.5269C62.4382 11.3558 62.3154 11.8407 62.1575 12.317L61.525 14.2749H60.5786L59.2268 9.76611H60.2765L60.796 11.9096C60.9217 12.4165 61.025 12.8995 61.1079 13.3567H61.1264C61.2024 12.9798 61.3281 12.4997 61.5055 11.9191L62.1575 9.76707H62.9898L63.6146 11.8732C63.7656 12.3868 63.8884 12.8813 63.983 13.3577H64.0112C64.0804 12.8938 64.1847 12.3993 64.3231 11.8732L64.8806 9.76707H65.8835V9.76611Z" fill="white"/>
<path d="M71.1785 14.2749H70.1571V11.6924C70.1571 10.8967 69.8492 10.4988 69.2313 10.4988C68.9282 10.4988 68.6835 10.6078 68.4935 10.8268C68.3054 11.0459 68.2099 11.3041 68.2099 11.5997V14.274H67.1885V11.0545C67.1885 10.6585 67.1758 10.2291 67.1514 9.76421H68.0491L68.0968 10.4691H68.1251C68.244 10.2501 68.4214 10.0693 68.6543 9.92489C68.9311 9.75655 69.241 9.67143 69.5802 9.67143C70.009 9.67143 70.3657 9.80725 70.6493 10.0798C71.0021 10.4136 71.1785 10.912 71.1785 11.5738V14.2749Z" fill="white"/>
<path d="M73.9952 14.2749H72.9748V7.69727H73.9952V14.2749Z" fill="white"/>
<path d="M80.0086 11.9832C80.0086 12.6766 79.8068 13.2448 79.4033 13.6905C78.9803 14.1487 78.419 14.3773 77.7202 14.3773C77.0448 14.3773 76.5077 14.1582 76.1081 13.7182C75.7085 13.2792 75.5088 12.7254 75.5088 12.0578C75.5088 11.3596 75.7144 10.7867 76.1276 10.3419C76.5409 9.89715 77.0964 9.67429 77.7952 9.67429C78.4706 9.67429 79.0115 9.89332 79.4228 10.3323C79.8126 10.7589 80.0086 11.3099 80.0086 11.9832ZM78.9482 12.0157C78.9482 11.5997 78.8566 11.2429 78.6743 10.9454C78.4609 10.5858 78.1548 10.406 77.7591 10.406C77.3479 10.406 77.036 10.5858 76.8225 10.9454C76.6393 11.2429 76.5487 11.6054 76.5487 12.0339C76.5487 12.45 76.6403 12.8067 76.8225 13.1042C77.0438 13.4638 77.3518 13.6436 77.7494 13.6436C78.1392 13.6436 78.4443 13.461 78.6646 13.0946C78.8546 12.7914 78.9482 12.4318 78.9482 12.0157Z" fill="white"/>
<path d="M84.9518 14.2749H84.0347L83.9587 13.7555H83.9304C83.6166 14.1697 83.1692 14.3773 82.5884 14.3773C82.1546 14.3773 81.8038 14.2405 81.5397 13.9688C81.2999 13.7221 81.18 13.415 81.18 13.0506C81.18 12.4997 81.4139 12.0798 81.8847 11.789C82.3544 11.4983 83.0152 11.3558 83.8661 11.3625V11.2783C83.8661 10.6843 83.5483 10.3878 82.9119 10.3878C82.4587 10.3878 82.0591 10.4997 81.7141 10.7216L81.5065 10.0636C81.9334 9.80437 82.4607 9.67429 83.0825 9.67429C84.2832 9.67429 84.8855 10.296 84.8855 11.5394V13.1998C84.8855 13.6503 84.9079 14.009 84.9518 14.2749ZM83.8914 12.7254V12.0301C82.7648 12.0109 82.2014 12.3141 82.2014 12.9387C82.2014 13.174 82.2658 13.35 82.3973 13.4676C82.5289 13.5853 82.6965 13.6436 82.8963 13.6436C83.1205 13.6436 83.33 13.5738 83.5211 13.4351C83.7131 13.2955 83.831 13.1185 83.8748 12.9014C83.8856 12.8526 83.8914 12.7933 83.8914 12.7254Z" fill="white"/>
<path d="M90.7556 14.2749H89.8492L89.8015 13.5509H89.7732C89.4837 14.1018 88.9906 14.3772 88.2976 14.3772C87.7441 14.3772 87.2831 14.164 86.9176 13.7374C86.5521 13.3108 86.3699 12.757 86.3699 12.0769C86.3699 11.3472 86.5677 10.7561 86.9654 10.3046C87.3503 9.88375 87.822 9.67333 88.3834 9.67333C89.0003 9.67333 89.4321 9.87706 89.6777 10.2855H89.6972V7.69727H90.7196V13.0602C90.7196 13.4992 90.7313 13.9038 90.7556 14.2749ZM89.6972 12.3734V11.6217C89.6972 11.4916 89.6874 11.3864 89.6689 11.306C89.6114 11.065 89.4876 10.8622 89.2995 10.6987C89.1095 10.5351 88.8805 10.4529 88.6163 10.4529C88.2353 10.4529 87.937 10.6011 87.7177 10.8986C87.5004 11.196 87.3903 11.5757 87.3903 12.0396C87.3903 12.4854 87.4946 12.8469 87.7041 13.1252C87.9253 13.4217 88.2236 13.57 88.5968 13.57C88.9321 13.57 89.2001 13.4466 89.4038 13.1989C89.6007 12.9703 89.6972 12.6948 89.6972 12.3734Z" fill="white"/>
<path d="M99.4911 11.9832C99.4911 12.6766 99.2893 13.2448 98.8858 13.6905C98.4629 14.1487 97.9034 14.3773 97.2027 14.3773C96.5292 14.3773 95.9922 14.1582 95.5907 13.7182C95.1911 13.2792 94.9913 12.7254 94.9913 12.0578C94.9913 11.3596 95.1969 10.7867 95.6102 10.3419C96.0234 9.89715 96.5789 9.67429 97.2797 9.67429C97.9531 9.67429 98.496 9.89332 98.9053 10.3323C99.2952 10.7589 99.4911 11.3099 99.4911 11.9832ZM98.4327 12.0157C98.4327 11.5997 98.341 11.2429 98.1588 10.9454C97.9434 10.5858 97.6393 10.406 97.2417 10.406C96.8323 10.406 96.5205 10.5858 96.3051 10.9454C96.1218 11.2429 96.0312 11.6054 96.0312 12.0339C96.0312 12.45 96.1228 12.8067 96.3051 13.1042C96.5263 13.4638 96.8343 13.6436 97.2319 13.6436C97.6218 13.6436 97.9288 13.461 98.149 13.0946C98.3371 12.7914 98.4327 12.4318 98.4327 12.0157Z" fill="white"/>
<path d="M104.983 14.2749H103.963V11.6924C103.963 10.8967 103.655 10.4988 103.036 10.4988C102.733 10.4988 102.488 10.6078 102.299 10.8268C102.11 11.0459 102.015 11.3041 102.015 11.5997V14.274H100.993V11.0545C100.993 10.6585 100.981 10.2291 100.957 9.76421H101.854L101.901 10.4691H101.93C102.049 10.2501 102.227 10.0693 102.459 9.92489C102.737 9.75655 103.046 9.67143 103.386 9.67143C103.813 9.67143 104.17 9.80725 104.454 10.0798C104.808 10.4136 104.983 10.912 104.983 11.5738V14.2749Z" fill="white"/>
<path d="M111.857 10.5169H110.732V12.7073C110.732 13.2639 110.932 13.5423 111.328 13.5423C111.511 13.5423 111.663 13.527 111.783 13.4954L111.809 14.2558C111.607 14.3304 111.342 14.3677 111.016 14.3677C110.612 14.3677 110.299 14.2472 110.071 14.0061C109.843 13.7651 109.73 13.3596 109.73 12.7905V10.5169H109.059V9.76612H109.73V8.93973L110.731 8.64322V9.76516H111.856V10.5169H111.857Z" fill="white"/>
<path d="M117.264 14.2749H116.242V11.7116C116.242 10.9034 115.934 10.4988 115.317 10.4988C114.843 10.4988 114.52 10.7331 114.342 11.2018C114.312 11.3003 114.294 11.4208 114.294 11.5624V14.274H113.274V7.69727H114.294V10.4146H114.314C114.636 9.9201 115.097 9.67333 115.694 9.67333C116.117 9.67333 116.467 9.80915 116.745 10.0817C117.091 10.4213 117.264 10.9263 117.264 11.5939V14.2749Z" fill="white"/>
<path d="M122.842 11.8072C122.842 11.987 122.828 12.1382 122.804 12.2615H119.741C119.754 12.7073 119.9 13.0468 120.184 13.2821C120.443 13.4925 120.778 13.5977 121.187 13.5977C121.64 13.5977 122.053 13.5269 122.426 13.3844L122.586 14.0807C122.15 14.2663 121.637 14.3591 121.044 14.3591C120.332 14.3591 119.772 14.1534 119.366 13.7422C118.959 13.3309 118.757 12.779 118.757 12.0865C118.757 11.4065 118.945 10.8402 119.324 10.3888C119.72 9.90671 120.255 9.66568 120.931 9.66568C121.591 9.66568 122.093 9.90671 122.433 10.3888C122.706 10.7714 122.842 11.2448 122.842 11.8072ZM121.867 11.548C121.875 11.2505 121.808 10.9942 121.669 10.7781C121.492 10.4997 121.222 10.3601 120.857 10.3601C120.523 10.3601 120.251 10.4959 120.044 10.7685C119.874 10.9856 119.774 11.2448 119.741 11.548H121.867Z" fill="white"/>
</svg>
