<svg width="141" height="41" viewBox="0 0 141 41" fill="none" xmlns="http://www.w3.org/2000/svg">
<rect width="112.8" height="32.8" rx="8" transform="matrix(1.25 0 0 -1.25 0 41)" fill="#111827"/>
<path d="M52.0955 11.7949C52.0955 12.545 51.867 13.1458 51.4168 13.5938C50.8992 14.125 50.225 14.3922 49.3988 14.3922C48.6092 14.3922 47.9351 14.1205 47.382 13.5848C46.8278 13.0413 46.5513 12.3743 46.5513 11.5759C46.5513 10.7775 46.8278 10.1104 47.382 9.57141C47.9351 9.03128 48.6092 8.75952 49.3988 8.75952C49.7919 8.75952 50.1667 8.83925 50.5244 8.98748C50.8809 9.13683 51.1711 9.33896 51.3814 9.58826L50.9037 10.0621C50.5369 9.63655 50.0376 9.42655 49.3988 9.42655C48.8229 9.42655 48.3236 9.62419 47.8996 10.0228C47.4803 10.4226 47.27 10.9403 47.27 11.5759C47.27 12.2115 47.4803 12.7336 47.8996 13.1334C48.3236 13.5276 48.8229 13.7297 49.3988 13.7297C50.0102 13.7297 50.5244 13.5276 50.93 13.1289C51.1974 12.865 51.3494 12.5012 51.3894 12.0363H49.3988V11.3872H52.0544C52.0864 11.5276 52.0955 11.6635 52.0955 11.7949Z" fill="white"/>
<path d="M56.3086 9.54446H53.8141V11.2513H56.0629V11.9004H53.8141V13.6073H56.3086V14.2687H53.1079V8.88304H56.3086V9.54446Z" fill="white"/>
<path d="M59.2818 14.2687H58.5757V9.54446H57.0456V8.88304H60.813V9.54446H59.2818V14.2687Z" fill="white"/>
<path d="M63.5395 14.2687V8.88304H64.2445V14.2687H63.5395Z" fill="white"/>
<path d="M67.3697 14.2687H66.6692V9.54446H65.1335V8.88304H68.9055V9.54446H67.3697V14.2687Z" fill="white"/>
<path d="M76.0381 13.5758C75.4976 14.1205 74.828 14.3922 74.0293 14.3922C73.226 14.3922 72.5563 14.1205 72.0159 13.5758C71.4765 13.0323 71.208 12.3653 71.208 11.5759C71.208 10.7864 71.4765 10.1194 72.0159 9.57591C72.5563 9.03128 73.226 8.75952 74.0293 8.75952C74.8234 8.75952 75.493 9.03127 76.0335 9.5804C76.5774 10.1284 76.846 10.7909 76.846 11.5759C76.846 12.3653 76.5774 13.0323 76.0381 13.5758ZM72.5381 13.1244C72.9449 13.5276 73.4396 13.7297 74.0293 13.7297C74.6143 13.7297 75.1137 13.5276 75.5159 13.1244C75.9215 12.7213 76.1272 12.2036 76.1272 11.5759C76.1272 10.9481 75.9215 10.4305 75.5159 10.0273C75.1137 9.62419 74.6143 9.42206 74.0293 9.42206C73.4396 9.42206 72.9449 9.62419 72.5381 10.0273C72.1324 10.4305 71.9267 10.9481 71.9267 11.5759C71.9267 12.2036 72.1324 12.7213 72.5381 13.1244Z" fill="white"/>
<path d="M77.8366 14.2687V8.88304H78.6937L81.3584 13.0716H81.3892L81.3584 12.0363V8.88304H82.0634V14.2687H81.3275L78.5371 9.87348H78.5063L78.5371 10.9133V14.2687H77.8366Z" fill="white"/>
<path d="M71.0343 22.134C68.8872 22.134 67.1332 23.7398 67.1332 25.9554C67.1332 28.153 68.8872 29.7757 71.0343 29.7757C73.186 29.7757 74.94 28.153 74.94 25.9554C74.94 23.7398 73.186 22.134 71.0343 22.134ZM71.0343 28.2709C69.8562 28.2709 68.8427 27.3153 68.8427 25.9554C68.8427 24.5776 69.8562 23.6388 71.0343 23.6388C72.2124 23.6388 73.2305 24.5776 73.2305 25.9554C73.2305 27.3153 72.2124 28.2709 71.0343 28.2709ZM62.5225 22.134C60.3708 22.134 58.6214 23.7398 58.6214 25.9554C58.6214 28.153 60.3708 29.7757 62.5225 29.7757C64.673 29.7757 66.4236 28.153 66.4236 25.9554C66.4236 23.7398 64.673 22.134 62.5225 22.134ZM62.5225 28.2709C61.3433 28.2709 60.3263 27.3153 60.3263 25.9554C60.3263 24.5776 61.3433 23.6388 62.5225 23.6388C63.7006 23.6388 64.7142 24.5776 64.7142 25.9554C64.7142 27.3153 63.7006 28.2709 62.5225 28.2709ZM52.3938 23.3053V24.929H56.3395C56.2241 25.8364 55.9155 26.5034 55.4425 26.9683C54.8666 27.5298 53.9696 28.153 52.3938 28.153C49.9656 28.153 48.0642 26.2272 48.0642 23.8409C48.0642 21.4546 49.9656 19.5288 52.3938 19.5288C53.7067 19.5288 54.662 20.033 55.3671 20.6865L56.5314 19.5423C55.5453 18.617 54.2335 17.9061 52.3938 17.9061C49.064 17.9061 46.2656 20.5686 46.2656 23.8409C46.2656 27.1132 49.064 29.7757 52.3938 29.7757C54.1935 29.7757 55.5453 29.1962 56.608 28.1092C57.697 27.0391 58.0363 25.5343 58.0363 24.3193C58.0363 23.942 58.0044 23.595 57.9472 23.3053H52.3938ZM93.8113 24.5641C93.4902 23.7095 92.4995 22.134 90.4815 22.134C88.4819 22.134 86.817 23.6826 86.817 25.9554C86.817 28.0958 88.4647 29.7757 90.6735 29.7757C92.4595 29.7757 93.4902 28.7055 93.9142 28.0823L92.5887 27.2142C92.1464 27.8498 91.5442 28.2709 90.6735 28.2709C89.8085 28.2709 89.188 27.8813 88.7904 27.1132L93.9907 24.9987L93.8113 24.5641ZM88.5093 25.8364C88.4647 24.3631 89.6737 23.6085 90.5398 23.6085C91.2186 23.6085 91.7945 23.942 91.9865 24.4192L88.5093 25.8364ZM84.2825 29.5432H85.992V18.3138H84.2825V29.5432ZM81.483 22.9852H81.4258C81.0419 22.5383 80.3094 22.134 79.3816 22.134C77.4345 22.134 75.6542 23.814 75.6542 25.9678C75.6542 28.1092 77.4345 29.7757 79.3816 29.7757C80.3094 29.7757 81.0419 29.3681 81.4258 28.9077H81.483V29.4557C81.483 30.9166 80.6888 31.7015 79.4079 31.7015C78.3634 31.7015 77.7156 30.9604 77.4482 30.3372L75.9615 30.9469C76.39 31.9598 77.5247 33.2063 79.4079 33.2063C81.4121 33.2063 83.1033 32.0474 83.1033 29.2277V22.3665H81.483V22.9852ZM79.5278 28.2709C78.3497 28.2709 77.3636 27.3018 77.3636 25.9678C77.3636 24.6214 78.3497 23.6388 79.5278 23.6388C80.6888 23.6388 81.6041 24.6214 81.6041 25.9678C81.6041 27.3018 80.6888 28.2709 79.5278 28.2709ZM101.815 18.3138H97.7261V29.5432H99.431V25.2884H101.815C103.708 25.2884 105.565 23.942 105.565 21.8005C105.565 19.6602 103.703 18.3138 101.815 18.3138ZM101.859 23.7264H99.431V19.8758H101.859C103.132 19.8758 103.859 20.9145 103.859 21.8005C103.859 22.6697 103.132 23.7264 101.859 23.7264ZM112.398 22.1127C111.166 22.1127 109.885 22.6472 109.359 23.8319L110.871 24.4552C111.197 23.8319 111.796 23.6298 112.429 23.6298C113.313 23.6298 114.21 24.152 114.224 25.0739V25.1918C113.916 25.0166 113.255 24.7572 112.443 24.7572C110.813 24.7572 109.153 25.6388 109.153 27.2839C109.153 28.7886 110.488 29.7577 111.988 29.7577C113.135 29.7577 113.768 29.249 114.166 28.6572H114.224V29.5253H115.871V25.2176C115.871 23.2267 114.358 22.1127 112.398 22.1127ZM112.192 28.2664C111.635 28.2664 110.858 27.9947 110.858 27.3153C110.858 26.4462 111.827 26.1126 112.666 26.1126C113.416 26.1126 113.768 26.2755 114.224 26.4899C114.09 27.5298 113.18 28.2664 112.192 28.2664ZM121.87 22.3586L119.91 27.2266H119.852L117.826 22.3586H115.987L119.031 29.1614L117.294 32.9469H119.076L123.767 22.3586H121.87ZM106.502 29.5432H108.211V18.3138H106.502V29.5432Z" fill="white"/>
<path d="M17.6573 9.36485C17.3888 9.6411 17.2334 10.0712 17.2334 10.6282V30.4954C17.2334 31.0524 17.3888 31.4825 17.6573 31.7587L17.7236 31.8193L29.0521 20.6909V20.4281L17.7236 9.29972L17.6573 9.36485Z" fill="url(#paint0_linear_16565_34391)"/>
<path d="M32.8237 24.4021L29.0518 20.6908V20.428L32.8283 16.7166L32.9129 16.7649L37.3853 19.2657C38.6617 19.9754 38.6617 21.1433 37.3853 21.8575L32.9129 24.3538L32.8237 24.4021Z" fill="url(#paint1_linear_16565_34391)"/>
<path d="M32.9126 24.354L29.0515 20.5595L17.6567 31.7587C18.0807 32.1967 18.772 32.2494 19.5582 31.8115L32.9126 24.354Z" fill="url(#paint2_linear_16565_34391)"/>
<path d="M32.9126 16.7651L19.5582 9.30763C18.772 8.87417 18.0807 8.92695 17.6567 9.3649L29.0515 20.5596L32.9126 16.7651Z" fill="url(#paint3_linear_16565_34391)"/>
<defs>
<linearGradient id="paint0_linear_16565_34391" x1="28.0463" y1="30.7023" x2="12.9719" y2="15.3631" gradientUnits="userSpaceOnUse">
<stop stop-color="#00A0FF"/>
<stop offset="0.0066" stop-color="#00A1FF"/>
<stop offset="0.2601" stop-color="#00BEFF"/>
<stop offset="0.5122" stop-color="#00D2FF"/>
<stop offset="0.7604" stop-color="#00DFFF"/>
<stop offset="1" stop-color="#00E3FF"/>
</linearGradient>
<linearGradient id="paint1_linear_16565_34391" x1="39.0474" y1="20.5581" x2="16.9279" y2="20.5581" gradientUnits="userSpaceOnUse">
<stop stop-color="#FFE000"/>
<stop offset="0.4087" stop-color="#FFBD00"/>
<stop offset="0.7754" stop-color="#FFA500"/>
<stop offset="1" stop-color="#FF9C00"/>
</linearGradient>
<linearGradient id="paint2_linear_16565_34391" x1="30.8131" y1="18.4968" x2="10.3711" y2="-2.30436" gradientUnits="userSpaceOnUse">
<stop stop-color="#FF3A44"/>
<stop offset="1" stop-color="#C31162"/>
</linearGradient>
<linearGradient id="paint3_linear_16565_34391" x1="14.7884" y1="38.3685" x2="23.9167" y2="29.0799" gradientUnits="userSpaceOnUse">
<stop stop-color="#32A071"/>
<stop offset="0.0685" stop-color="#2DA771"/>
<stop offset="0.4762" stop-color="#15CF74"/>
<stop offset="0.8009" stop-color="#06E775"/>
<stop offset="1" stop-color="#00F076"/>
</linearGradient>
</defs>
</svg>
