<svg width="411" height="329" viewBox="0 0 411 329" fill="none" xmlns="http://www.w3.org/2000/svg">
<g clip-path="url(#clip0_16028_83427)">
<path d="M378 305.209H26V305.385H378V305.209Z" fill="#EBEBEB"/>
<path d="M192.855 273.854H56.9197C54.7021 273.854 52.8999 272.054 52.8999 269.84V79.0143C52.8999 76.7998 54.7021 75 56.9197 75H192.862C195.08 75 196.882 76.7998 196.882 79.0143V269.84C196.875 272.054 195.073 273.854 192.855 273.854ZM56.9197 75.1758C54.8007 75.1758 53.0759 76.8982 53.0759 79.0143V269.84C53.0759 271.956 54.8007 273.678 56.9197 273.678H192.862C194.981 273.678 196.706 271.956 196.706 269.84V79.0143C196.706 76.8982 194.981 75.1758 192.862 75.1758H56.9197Z" fill="#EBEBEB"/>
<path d="M345.13 273.854H209.188C206.97 273.854 205.168 272.054 205.168 269.84V79.0143C205.168 76.7998 206.97 75 209.188 75H345.13C347.348 75 349.15 76.7998 349.15 79.0143V269.84C349.15 272.054 347.348 273.854 345.13 273.854ZM209.188 75.1758C207.069 75.1758 205.344 76.8982 205.344 79.0143V269.84C205.344 271.956 207.069 273.678 209.188 273.678H345.13C347.249 273.678 348.974 271.956 348.974 269.84V79.0143C348.974 76.8982 347.249 75.1758 345.13 75.1758H209.188Z" fill="#EBEBEB"/>
<path d="M292.529 301.605H298.161V197.52H292.529V301.605Z" fill="#F0F0F0"/>
<path d="M265.499 305.198H296.679V301.605H265.499V305.198Z" fill="#F0F0F0"/>
<path d="M292.527 197.518H264.008V301.603H292.527V197.518Z" fill="#F5F5F5"/>
<path d="M289.493 251.715H267.05V270.303H289.493V251.715Z" fill="#F0F0F0"/>
<path d="M289.493 276.04H267.05V294.629H289.493V276.04Z" fill="#F0F0F0"/>
<path d="M275.279 262.282H281.256C281.714 262.282 282.087 261.909 282.087 261.452V260.559C282.087 260.102 281.714 259.73 281.256 259.73H275.279C274.822 259.73 274.449 260.102 274.449 260.559V261.452C274.456 261.909 274.829 262.282 275.279 262.282Z" fill="#F5F5F5"/>
<path d="M275.279 286.614H281.256C281.714 286.614 282.087 286.241 282.087 285.784V284.891C282.087 284.434 281.714 284.062 281.256 284.062H275.279C274.822 284.062 274.449 284.434 274.449 284.891V285.784C274.456 286.241 274.829 286.614 275.279 286.614Z" fill="#F5F5F5"/>
<path d="M289.493 203.255H267.05V221.843H289.493V203.255Z" fill="#F0F0F0"/>
<path d="M289.493 227.39H267.05V245.978H289.493V227.39Z" fill="#F0F0F0"/>
<path d="M275.279 213.828H281.256C281.714 213.828 282.087 213.456 282.087 212.999V212.106C282.087 211.649 281.714 211.276 281.256 211.276H275.279C274.822 211.276 274.449 211.649 274.449 212.106V212.999C274.456 213.449 274.829 213.828 275.279 213.828Z" fill="#F5F5F5"/>
<path d="M275.279 237.957H281.256C281.714 237.957 282.087 237.584 282.087 237.127V236.234C282.087 235.777 281.714 235.405 281.256 235.405H275.279C274.822 235.405 274.449 235.777 274.449 236.234V237.127C274.456 237.584 274.829 237.957 275.279 237.957Z" fill="#F5F5F5"/>
<path d="M323.747 301.605H340.643V197.52H323.747V301.605Z" fill="#F0F0F0"/>
<path d="M296.705 305.198H338.91V301.605H296.705V305.198Z" fill="#F0F0F0"/>
<path d="M323.743 197.518H295.224V301.603H323.743V197.518Z" fill="#F5F5F5"/>
<path d="M320.709 251.715H298.265V270.303H320.709V251.715Z" fill="#F0F0F0"/>
<path d="M320.709 276.04H298.265V294.629H320.709V276.04Z" fill="#F0F0F0"/>
<path d="M306.495 262.282H312.472C312.929 262.282 313.302 261.909 313.302 261.452V260.559C313.302 260.102 312.929 259.73 312.472 259.73H306.495C306.037 259.73 305.664 260.102 305.664 260.559V261.452C305.664 261.909 306.037 262.282 306.495 262.282Z" fill="#F5F5F5"/>
<path d="M306.495 286.614H312.472C312.929 286.614 313.302 286.241 313.302 285.784V284.891C313.302 284.434 312.929 284.062 312.472 284.062H306.495C306.037 284.062 305.664 284.434 305.664 284.891V285.784C305.664 286.241 306.037 286.614 306.495 286.614Z" fill="#F5F5F5"/>
<path d="M320.709 203.255H298.265V221.843H320.709V203.255Z" fill="#F0F0F0"/>
<path d="M320.709 227.39H298.265V245.978H320.709V227.39Z" fill="#F0F0F0"/>
<path d="M306.495 213.828H312.472C312.929 213.828 313.302 213.456 313.302 212.999V212.106C313.302 211.649 312.929 211.276 312.472 211.276H306.495C306.037 211.276 305.664 211.649 305.664 212.106V212.999C305.664 213.449 306.037 213.828 306.495 213.828Z" fill="#F5F5F5"/>
<path d="M306.495 237.957H312.472C312.929 237.957 313.302 237.584 313.302 237.127V236.234C313.302 235.777 312.929 235.405 312.472 235.405H306.495C306.037 235.405 305.664 235.777 305.664 236.234V237.127C305.664 237.584 306.037 237.957 306.495 237.957Z" fill="#F5F5F5"/>
<path d="M232.013 175.79H326.849V92.649L232.013 92.649V175.79Z" fill="#E6E6E6"/>
<path d="M221.846 89.4192H332.986C333.507 89.4192 333.93 89.841 333.93 90.3613C333.93 90.8815 333.507 91.3033 332.986 91.3033H221.846C221.325 91.3033 220.902 90.8815 220.902 90.3613C220.909 89.834 221.332 89.4192 221.846 89.4192Z" fill="#E6E6E6"/>
<path d="M227.988 175.79H324.971V92.649L227.988 92.649V175.79Z" fill="#F0F0F0"/>
<path d="M232.012 175.794H326.847V178.459H229.238L232.012 175.794Z" fill="#E6E6E6"/>
<path d="M221.283 175.794H318.266L315.492 178.459H218.509L221.283 175.794Z" fill="#F0F0F0"/>
<path d="M319.335 170.166V98.2737L233.623 98.2737V170.166H319.335Z" fill="#FAFAFA"/>
<path d="M299.877 170.17L266.81 98.2773H251.203L284.269 170.17H299.877Z" fill="white"/>
<path d="M280.911 170.17L247.851 98.2773H241.762L274.829 170.17H280.911Z" fill="white"/>
<path d="M234.336 170.172V98.2791H233.618V170.172H234.336Z" fill="#E6E6E6"/>
<g opacity="0.4">
<path d="M319.268 156.347H328.962V87.7376H319.268V156.347Z" fill="#F0F0F0"/>
<path d="M315.492 156.347H323.046V87.7376H315.492V156.347Z" fill="#E6E6E6"/>
<path d="M309.577 156.347H319.271V87.7376H309.577V156.347Z" fill="#F0F0F0"/>
<path d="M305.795 156.347H313.349V87.7376H305.795V156.347Z" fill="#E6E6E6"/>
<path d="M299.879 156.347H309.573V87.7376H299.879V156.347Z" fill="#F0F0F0"/>
</g>
<g opacity="0.4">
<path d="M237.229 156.347H242.819V87.7376H237.229V156.347Z" fill="#F0F0F0"/>
<path d="M235.056 156.347H239.407V87.7376H235.056V156.347Z" fill="#E6E6E6"/>
<path d="M231.637 156.347H237.227V87.7376H231.637V156.347Z" fill="#F0F0F0"/>
<path d="M229.471 156.347H233.822V87.7376H229.471V156.347Z" fill="#E6E6E6"/>
<path d="M226.052 156.347H231.642V87.7376H226.052V156.347Z" fill="#F0F0F0"/>
</g>
<path d="M141.611 143.012H155.03L153.446 109.027H141.611V143.012Z" fill="#F5F5F5"/>
<path d="M162.611 144.854L165.505 159.948H162.611L144.856 144.854H162.611Z" fill="#F5F5F5"/>
<path d="M165.505 144.854V159.948L147.757 144.854H165.505Z" fill="#E6E6E6"/>
<path d="M93.0071 144.854L95.9006 159.948H93.0071L75.2593 144.854H93.0071Z" fill="#F5F5F5"/>
<path d="M95.9007 144.854V159.948L78.1528 144.854H95.9007Z" fill="#E6E6E6"/>
<path d="M178.536 143.068H159.232V145.248H178.536V143.068Z" fill="#E6E6E6"/>
<path d="M63.2597 145.243H159.229V143.063H63.2597V145.243Z" fill="#F5F5F5"/>
<path d="M121.892 143.012H150.7L154.262 101.835H125.454L121.892 143.012Z" fill="#E6E6E6"/>
<path d="M120.399 143.012H149.207L152.769 101.835H123.962L120.399 143.012Z" fill="#F0F0F0"/>
<path d="M146.792 138.456L150.052 106.391H126.384L123.124 138.456H146.792Z" fill="white"/>
<path d="M108.995 143.012H118.238L117.147 119.615H108.995V143.012Z" fill="#E0E0E0"/>
<path d="M95.4219 143.012H115.254L117.711 114.658H97.8718L95.4219 143.012Z" fill="#F0F0F0"/>
<path d="M94.394 143.012H114.233L116.683 114.658H96.844L94.394 143.012Z" fill="#F5F5F5"/>
<path d="M112.564 139.876L114.81 117.801H98.5124L96.2666 139.876H112.564Z" fill="#E0E0E0"/>
<path d="M210.701 202.594C210.884 204.787 209.251 206.714 207.055 206.889C204.858 207.072 202.929 205.441 202.753 203.248C202.577 201.054 204.204 199.128 206.4 198.952C208.596 198.769 210.518 200.4 210.701 202.594Z" fill="#E0E0E0"/>
<path d="M218.115 204.675C218.298 206.868 216.664 208.795 214.468 208.971C212.271 209.153 210.342 207.522 210.166 205.329C209.983 203.135 211.617 201.209 213.813 201.033C216.002 200.85 217.931 202.482 218.115 204.675Z" fill="#E0E0E0"/>
<path d="M223.472 202.299C223.655 204.492 222.022 206.419 219.825 206.594C217.629 206.777 215.7 205.146 215.524 202.953C215.341 200.759 216.974 198.833 219.171 198.657C221.36 198.474 223.289 200.105 223.472 202.299Z" fill="#E0E0E0"/>
<path d="M229.125 203.768C229.308 205.961 227.675 207.888 225.479 208.064C223.282 208.246 221.353 206.615 221.177 204.422C220.994 202.228 222.627 200.302 224.824 200.126C227.02 199.943 228.942 201.575 229.125 203.768Z" fill="#E0E0E0"/>
<path d="M234.201 204.415C234.201 204.415 233.737 215.481 215.932 215.481C198.128 215.481 197.664 204.415 197.664 204.415H234.201Z" fill="#F0F0F0"/>
<path d="M68.1543 305.204H74.624L74.624 215.475H68.1543L68.1543 305.204Z" fill="#E6E6E6"/>
<path d="M66.4282 305.204H70.2368L70.2368 215.475H66.4282L66.4282 305.204Z" fill="#F0F0F0"/>
<path d="M157.092 215.481H65.248V222.209H157.092V215.481Z" fill="#F0F0F0"/>
<path d="M244.073 305.204H250.543V215.475H244.073V305.204Z" fill="#E6E6E6"/>
<path d="M242.862 305.204H246.671V215.475H242.862V305.204Z" fill="#F0F0F0"/>
<path d="M251.695 215.481H159.852V222.209H251.695V215.481Z" fill="#E6E6E6"/>
<path d="M157.633 305.204H164.103V215.475H157.633V305.204Z" fill="#E6E6E6"/>
<path d="M155.906 305.204H159.715V215.475H155.906V305.204Z" fill="#F0F0F0"/>
<path d="M178.867 185.637H130.917L122.371 213.913H170.327L178.867 185.637Z" fill="#E6E6E6"/>
<path d="M170.327 213.913L170.137 215.481H122.173L122.37 213.913H170.327Z" fill="#E6E6E6"/>
<path d="M177.395 185.637H129.438L120.899 213.913H168.855L177.395 185.637Z" fill="#F0F0F0"/>
<path d="M167.912 212.619L175.67 186.93H130.382L122.617 212.619H167.912Z" fill="white"/>
<path d="M156.36 213.913L156.163 215.481H103.355L103.546 213.913H156.36Z" fill="#F0F0F0"/>
<path d="M291.795 113.105H210.772C205.112 113.105 200.184 117.731 199.818 123.383L187.244 317.112C186.878 322.764 191.208 327.39 196.868 327.39H277.891C283.551 327.39 288.479 322.764 288.846 317.112L297.885 177.868C298.652 177.601 299.237 176.891 299.293 176.062L300.912 151.153C300.968 150.316 300.469 149.613 299.743 149.346L301.426 123.39C301.785 117.724 297.455 113.105 291.795 113.105Z" fill="#FD2692"/>
<path d="M193.257 163.266H194.841C195.847 163.266 196.72 162.444 196.784 161.446L197.459 151.048C197.523 150.042 196.755 149.227 195.749 149.227H194.165C193.158 149.227 192.285 150.049 192.222 151.048L191.546 161.446C191.49 162.444 192.257 163.266 193.257 163.266Z" fill="#FD2692"/>
<path d="M192.053 181.834H193.637C194.643 181.834 195.516 181.011 195.58 180.013L196.256 169.615C196.319 168.609 195.552 167.794 194.545 167.794H192.961C191.954 167.794 191.081 168.616 191.018 169.615L190.342 180.013C190.279 181.018 191.053 181.834 192.053 181.834Z" fill="#FD2692"/>
<path d="M273.583 327.383H192.559C186.899 327.383 182.57 322.757 182.936 317.105L195.509 123.376C195.875 117.724 200.803 113.098 206.463 113.098H287.487C293.147 113.098 297.476 117.724 297.11 123.376L284.537 317.105C284.171 322.757 279.243 327.383 273.583 327.383Z" fill="#68616D"/>
<path opacity="0.2" d="M238.598 319.136C241.436 316.392 241.65 312.014 239.075 309.358C236.5 306.702 232.112 306.774 229.274 309.518C226.436 312.262 226.222 316.64 228.797 319.295C231.371 321.951 235.76 321.88 238.598 319.136Z" fill="white"/>
<path d="M280.904 302.229H188.8C187.477 302.229 186.428 301.111 186.512 299.789L197.297 133.647C197.375 132.445 198.374 131.503 199.585 131.503H291.69C293.013 131.503 294.062 132.621 293.978 133.943L283.192 300.084C283.115 301.293 282.115 302.229 280.904 302.229Z" fill="white"/>
<path opacity="0.2" d="M255.222 236.739C265.525 226.778 266.3 210.887 256.953 201.246C247.606 191.604 231.677 191.863 221.374 201.824C211.071 211.785 210.296 227.675 219.643 237.317C228.99 246.958 244.919 246.699 255.222 236.739Z" fill="#FD2692"/>
<path opacity="0.2" d="M235.771 258.008C214.39 258.008 198.121 240.635 199.508 219.284C200.895 197.933 219.417 180.561 240.797 180.561C262.178 180.561 278.447 197.933 277.06 219.284C275.674 240.635 257.151 258.008 235.771 258.008ZM240.748 181.264C219.755 181.264 201.57 198.32 200.205 219.284C198.846 240.249 214.82 257.304 235.813 257.304C256.806 257.304 274.991 240.249 276.356 219.284C277.715 198.32 261.741 181.264 240.748 181.264Z" fill="#FD2692"/>
<path d="M232.279 231.447L230.181 227.383C225.605 218.518 215.066 210.595 211.384 208.289L214.862 203.093C219.213 205.821 227.928 212.577 233.391 220.606C243.487 208.661 257.764 196.344 276.884 183.064L280.144 187.971C259.714 202.158 245.035 215.129 235.264 227.629L232.279 231.447Z" fill="#FD2692"/>
<path opacity="0.2" d="M231.283 124.15C232.431 123.04 232.516 121.267 231.472 120.19C230.428 119.113 228.651 119.14 227.503 120.25C226.355 121.36 226.27 123.133 227.314 124.21C228.358 125.287 230.135 125.26 231.283 124.15Z" fill="white"/>
<path opacity="0.2" d="M239.249 119.411H262.544C264.086 119.411 265.268 120.669 265.17 122.209C265.071 123.749 263.727 125.007 262.185 125.007H238.889C237.348 125.007 236.165 123.749 236.264 122.209C236.369 120.669 237.707 119.411 239.249 119.411Z" fill="white"/>
<path d="M152.537 171.379C151.347 172.588 150.073 173.931 148.905 175.274C147.715 176.617 146.546 177.981 145.448 179.387C144.343 180.793 143.301 182.227 142.294 183.682L141.562 184.786L140.879 185.904C140.647 186.276 140.435 186.656 140.231 187.036L139.668 188.069C139.478 188.442 139.344 189.166 139.281 189.918C139.218 190.684 139.232 191.521 139.281 192.365C139.386 194.066 139.64 195.838 139.957 197.602C140.259 199.374 140.647 201.153 141.076 202.924C141.484 204.696 141.949 206.489 142.414 208.232L139.802 209.209C138.211 205.75 136.915 202.235 135.845 198.551C135.331 196.702 134.874 194.825 134.606 192.836C134.473 191.837 134.381 190.818 134.388 189.728C134.402 188.639 134.487 187.479 135.001 186.136C135.162 185.742 135.247 185.587 135.36 185.348L135.683 184.68C135.895 184.231 136.113 183.788 136.352 183.366L137.056 182.072L137.795 180.814C138.802 179.155 139.872 177.538 141.041 176.012C142.195 174.472 143.392 172.975 144.652 171.527C145.934 170.085 147.194 168.707 148.651 167.323L152.537 171.379Z" fill="#7B271F"/>
<path d="M152.84 162.907C149.024 163.083 145.405 169.403 145.405 169.403L150.446 179.682C150.446 179.682 157.275 174.001 157.359 168.419C157.408 164.778 156.592 162.732 152.84 162.907Z" fill="#FD2692"/>
<path opacity="0.7" d="M152.84 162.907C149.024 163.083 145.405 169.403 145.405 169.403L150.446 179.682C150.446 179.682 157.275 174.001 157.359 168.419C157.408 164.778 156.592 162.732 152.84 162.907Z" fill="white"/>
<path opacity="0.2" d="M153.747 170.296C152.635 171.977 152.1 176.335 151.931 178.276C153.198 177.01 154.972 174.993 156.134 172.715C155.402 170.838 154.48 169.193 153.747 170.296Z" fill="#28283C"/>
<path d="M141.689 207.143L146.328 208.521L143.237 211.642C143.237 211.642 139.893 210.616 139.429 208.345L141.689 207.143Z" fill="#7B271F"/>
<path d="M149.137 212.085L148.355 215.066L143.237 211.635L146.328 208.513L149.137 212.085Z" fill="#7B271F"/>
<path d="M179.662 150.71C179.514 151.125 179.62 151.546 179.894 151.652C180.169 151.757 180.507 151.504 180.648 151.082C180.796 150.668 180.69 150.246 180.415 150.14C180.148 150.042 179.81 150.295 179.662 150.71Z" fill="#68616D"/>
<path d="M180.289 150.119L181.394 150.211C181.394 150.211 180.605 150.801 180.289 150.119Z" fill="#68616D"/>
<path d="M179.873 151.251C179.873 151.251 179.958 153.311 180.437 154.471C179.704 154.773 178.853 154.19 178.853 154.19L179.873 151.251Z" fill="#A02724"/>
<path d="M181.028 149.093C180.929 149.079 180.845 149.002 180.817 148.903C180.528 147.771 179.648 147.427 179.606 147.413C179.472 147.363 179.402 147.216 179.451 147.075C179.5 146.942 179.648 146.871 179.782 146.921C179.831 146.942 180.957 147.363 181.316 148.769C181.352 148.91 181.267 149.051 181.126 149.086C181.098 149.1 181.063 149.1 181.028 149.093Z" fill="#68616D"/>
<path d="M165.202 152.481C165.308 155.8 164.963 161.783 162.358 163.484C162.358 163.484 162.703 166.901 168.687 168.054C175.269 169.326 172.369 165.417 172.369 165.417C168.919 163.871 169.447 161.241 170.482 158.879L165.202 152.481Z" fill="#7B271F"/>
<path d="M184.766 175.232C185.364 176.849 186.033 178.592 186.751 180.244C187.462 181.918 188.202 183.57 189.004 185.194C189.8 186.818 190.659 188.393 191.546 189.946C191.996 190.713 192.461 191.479 192.954 192.21C193.193 192.583 193.439 192.948 193.7 193.3L194.08 193.834L194.27 194.101L194.369 194.235L194.432 194.312C194.742 194.713 195.34 195.205 195.995 195.662C196.657 196.126 197.396 196.562 198.163 196.977C199.712 197.799 201.359 198.558 203.042 199.261C204.724 199.979 206.442 200.646 208.181 201.279C209.906 201.933 211.68 202.538 213.412 203.142L212.757 205.849C208.97 205.23 205.288 204.344 201.599 203.227C199.761 202.65 197.924 202.01 196.093 201.195C195.178 200.78 194.263 200.33 193.348 199.782C192.426 199.226 191.503 198.594 190.581 197.581L190.412 197.391L190.292 197.244L190.06 196.948L189.596 196.365C189.279 195.978 188.976 195.585 188.694 195.177C188.103 194.382 187.547 193.567 187.012 192.751C185.942 191.106 184.942 189.426 184.062 187.704C183.168 185.981 182.316 184.245 181.549 182.473C180.788 180.68 180.077 178.944 179.444 177.017L184.766 175.232Z" fill="#7B271F"/>
<path d="M212.475 203.1L216.629 201.49L216.425 206.278C216.425 206.278 213.06 207.171 211.504 205.476L212.475 203.1Z" fill="#7B271F"/>
<path d="M219.762 203.142L221.184 206.201L216.425 206.285L216.629 201.49L219.762 203.142Z" fill="#7B271F"/>
<path d="M150.875 323.129L156.374 323.537L158.007 310.932L152.509 310.524L150.875 323.129Z" fill="#7B271F"/>
<path d="M107.326 294.614L110.917 298.875L121.575 292.034L117.985 287.774L107.326 294.614Z" fill="#7B271F"/>
<path d="M112.606 298.32L109.713 292.766C109.607 292.562 109.389 292.47 109.178 292.541L104.573 294.129C104.095 294.291 103.884 294.903 104.13 295.367C105.172 297.286 105.77 298.165 107.044 300.604C107.826 302.109 108.819 304.38 109.903 306.461C110.959 308.492 113.036 307.607 112.768 306.65C111.557 302.355 112.36 301.16 112.74 299.304C112.81 298.966 112.761 298.622 112.606 298.32Z" fill="#68616D"/>
<path d="M156.719 322.75H150.538C150.312 322.75 150.129 322.905 150.087 323.122L149.256 328.002C149.172 328.508 149.594 328.986 150.115 328.979C152.27 328.944 153.311 328.817 156.029 328.817C157.697 328.817 161.154 328.993 163.463 328.993C165.723 328.993 165.955 326.715 164.998 326.504C160.71 325.576 159.049 324.304 157.627 323.087C157.374 322.869 157.05 322.75 156.719 322.75Z" fill="#68616D"/>
<path opacity="0.2" d="M158.007 310.932L157.099 317.941L151.622 317.393L152.509 310.531L158.007 310.932Z" fill="#28283C"/>
<path opacity="0.2" d="M117.985 287.774L121.575 292.034L117.161 294.861L113.437 290.692L117.985 287.774Z" fill="#28283C"/>
<path d="M151.291 196.344C155.55 197.167 164.597 198.917 173.34 200.611C183.759 169.98 181.267 168.989 181.267 168.989C181.267 168.989 179.057 167.759 176.262 166.669C176.156 166.627 176.058 166.592 175.966 166.556C174.558 166.043 174.263 165.966 172.369 165.417C169.123 164.651 166.096 164.025 162.358 163.484C162.119 163.449 161.879 163.414 161.647 163.386C160.971 163.301 160.295 163.231 159.647 163.168C159.211 163.119 158.775 163.09 158.359 163.062C157.866 163.034 157.388 163.006 156.937 162.985C154.522 162.865 152.805 162.901 152.805 162.901C154.058 182.016 153.135 187.507 151.291 196.344Z" fill="#FD2692"/>
<path opacity="0.7" d="M151.291 196.344C155.55 197.167 164.597 198.917 173.34 200.611C183.759 169.98 181.267 168.989 181.267 168.989C181.267 168.989 179.057 167.759 176.262 166.669C176.156 166.627 176.058 166.592 175.966 166.556C174.558 166.043 174.263 165.966 172.369 165.417C169.123 164.651 166.096 164.025 162.358 163.484C162.119 163.449 161.879 163.414 161.647 163.386C160.971 163.301 160.295 163.231 159.647 163.168C159.211 163.119 158.775 163.09 158.359 163.062C157.866 163.034 157.388 163.006 156.937 162.985C154.522 162.865 152.805 162.901 152.805 162.901C154.058 182.016 153.135 187.507 151.291 196.344Z" fill="white"/>
<path opacity="0.2" d="M178.121 176.125L176.128 175.801C176.107 178.424 177.128 182.923 178.099 185.784C178.923 182.986 179.564 180.659 180.05 178.712L178.121 176.125Z" fill="#28283C"/>
<path d="M180.521 168.595C183.78 169.636 186.146 176.076 187.04 178.86L180.725 186.284C180.725 186.284 174.213 176.968 175.213 174.079C176.262 171.077 178.944 168.089 180.521 168.595Z" fill="#FD2692"/>
<path opacity="0.7" d="M180.521 168.595C183.78 169.636 186.146 176.076 187.04 178.86L180.725 186.284C180.725 186.284 174.213 176.968 175.213 174.079C176.262 171.077 178.944 168.089 180.521 168.595Z" fill="white"/>
<path d="M182.633 144.825C181.978 146.745 179.134 147.518 176.269 146.548C173.403 145.578 171.615 143.237 172.263 141.317C172.918 139.398 175.762 138.625 178.627 139.595C181.492 140.558 183.281 142.899 182.633 144.825Z" fill="#68616D"/>
<path d="M166.103 144.291C164.639 149.522 163.906 151.701 165.582 155.308C168.102 160.728 174.847 161.572 177.846 156.932C180.542 152.756 182.485 144.903 178.176 140.973C173.931 137.099 167.567 139.061 166.103 144.291Z" fill="#7B271F"/>
<path d="M174.276 138.189C172.136 139.398 167.68 131.819 162.111 138.189C158.127 142.744 160.661 149.444 160.661 149.444C160.661 149.444 157.493 143.869 154.952 146.59C151.65 150.126 155.071 162.683 165.983 161.825C176.895 160.967 175.846 152.116 175.846 152.116C175.846 152.116 180.957 146.928 180.704 142.295C180.507 138.765 177.796 136.199 174.276 138.189Z" fill="#68616D"/>
<path d="M175.6 148.783C175.297 149.726 175.389 150.85 175.691 151.743C176.149 153.086 177.177 153.093 177.726 152.165C178.219 151.328 178.578 149.627 177.796 148.544C177.036 147.483 175.952 147.715 175.6 148.783Z" fill="#7B271F"/>
<path d="M167.518 199.487C167.518 199.487 165.167 207.628 162.146 218.37C160.14 225.527 157.831 233.837 155.726 241.662C154.522 246.14 153.389 250.457 152.41 254.309C146.877 276.139 119.28 294.903 119.28 294.903L113.937 289.032C113.937 289.032 132.48 273.439 137.844 253.072C148.735 211.726 142.61 204.752 151.291 196.351L167.518 199.487Z" fill="#68616D"/>
<path opacity="0.2" d="M165.124 206.77C164.308 209.927 163.28 213.913 162.146 218.37C160.14 225.527 157.831 233.837 155.726 241.662C154.825 231.679 154.29 213.322 161.675 207.614C163.125 206.489 164.273 206.271 165.124 206.77Z" fill="#28283C"/>
<path d="M119.724 295.739L113.05 288.407L115.07 286.382L123.258 294.087L119.724 295.739Z" fill="#FD2692"/>
<path opacity="0.7" d="M119.724 295.739L113.05 288.407L115.07 286.382L123.258 294.087L119.724 295.739Z" fill="white"/>
<path d="M113.599 301.307C113.535 301.307 113.465 301.293 113.402 301.265C112.74 301.026 112.332 299.782 112.142 299.058C112.127 299.008 112.149 298.952 112.191 298.924C112.233 298.889 112.289 298.889 112.332 298.917C112.529 299.029 114.261 300.049 114.296 300.752C114.303 300.907 114.232 301.047 114.099 301.146C113.93 301.258 113.768 301.314 113.599 301.307ZM112.479 299.304C112.761 300.26 113.134 300.893 113.493 301.019C113.641 301.075 113.789 301.04 113.951 300.928C114.035 300.864 114.042 300.808 114.042 300.759C114.021 300.386 113.162 299.733 112.479 299.304Z" fill="#FD2692"/>
<path d="M173.009 200.612C173.009 200.612 174.382 244.073 171.306 260.447C168.109 277.474 158.366 316.212 158.366 316.212L150.439 315.192C150.439 315.192 155.451 276.061 157.585 259.146C159.908 240.699 156.866 197.497 156.866 197.497L173.009 200.612Z" fill="#68616D"/>
<path d="M160.056 316.655L148.756 315.199L148.89 312.521L161.189 313.055L160.056 316.655Z" fill="#FD2692"/>
<path opacity="0.7" d="M160.056 316.655L148.756 315.199L148.89 312.521L161.189 313.055L160.056 316.655Z" fill="white"/>
<path d="M113.866 299.606C113.254 299.578 112.514 299.353 112.198 299.135C112.162 299.107 112.134 299.064 112.141 299.022C112.141 298.973 112.169 298.938 112.212 298.917C112.268 298.889 113.641 298.179 114.387 298.467C114.591 298.544 114.732 298.685 114.809 298.889C114.929 299.198 114.788 299.374 114.69 299.451C114.514 299.578 114.211 299.62 113.866 299.606ZM112.55 299.036C113.155 299.318 114.225 299.472 114.528 299.24C114.577 299.198 114.626 299.135 114.563 298.973C114.514 298.847 114.422 298.755 114.295 298.706C113.852 298.53 113.021 298.825 112.55 299.036Z" fill="#FD2692"/>
<path d="M158.76 323.713C158.155 323.713 157.5 323.608 157.035 323.516C156.979 323.502 156.937 323.46 156.93 323.404C156.923 323.347 156.951 323.298 157 323.27C157.254 323.144 159.478 322.019 160.14 322.398C160.267 322.469 160.337 322.588 160.351 322.743C160.365 323.003 160.281 323.214 160.098 323.376C159.809 323.629 159.309 323.713 158.76 323.713ZM157.472 323.333C158.683 323.537 159.584 323.481 159.929 323.186C160.049 323.08 160.105 322.94 160.091 322.764C160.084 322.694 160.063 322.658 160.013 322.623C159.654 322.419 158.387 322.897 157.472 323.333Z" fill="#FD2692"/>
<path d="M157.064 323.516C157.036 323.516 157.008 323.509 156.986 323.488C156.951 323.46 156.93 323.418 156.93 323.369C156.944 323.27 157.198 320.894 158.528 321.034C158.887 321.07 158.986 321.252 159.007 321.393C159.106 322.012 157.775 323.2 157.106 323.502C157.099 323.516 157.078 323.516 157.064 323.516ZM158.43 321.295C157.634 321.295 157.324 322.595 157.226 323.158C157.909 322.75 158.817 321.815 158.754 321.442C158.747 321.414 158.732 321.323 158.5 321.302C158.479 321.295 158.458 321.295 158.43 321.295Z" fill="#FD2692"/>
<path d="M151.171 194.994L149.855 196.759C149.749 196.899 149.911 197.089 150.164 197.138L173.291 201.61C173.488 201.645 173.671 201.582 173.706 201.462L174.227 199.543C174.262 199.409 174.107 199.262 173.889 199.219L151.558 194.903C151.396 194.868 151.241 194.91 151.171 194.994Z" fill="#FD2692"/>
<path d="M153.762 198.059L153.163 197.947C153.044 197.926 152.966 197.848 152.987 197.771L153.691 195.282C153.712 195.212 153.825 195.17 153.945 195.191L154.543 195.303C154.663 195.325 154.74 195.402 154.719 195.479L154.015 197.968C153.994 198.038 153.881 198.08 153.762 198.059Z" fill="#68616D"/>
<path d="M168.863 201.012L168.264 200.9C168.145 200.878 168.067 200.801 168.088 200.724L168.792 198.235C168.814 198.165 168.926 198.123 169.046 198.144L169.644 198.256C169.764 198.277 169.841 198.355 169.82 198.432L169.116 200.921C169.095 200.998 168.983 201.033 168.863 201.012Z" fill="#68616D"/>
</g>
<g clip-path="url(#clip1_16028_83427)">
<path d="M77.531 206.346C74.863 197.13 62.5381 198.02 62.5381 198.02L62.8716 204.427C69.991 203.227 74.4135 211.356 74.4135 211.356L77.531 206.346Z" fill="#E0E0E0"/>
<path d="M258.345 86.1546C272.627 90.3602 281.516 74.3279 281.516 74.3279L272.83 69.5012C268.582 79.3239 254.314 78.1807 254.314 78.1807L258.345 86.1546Z" fill="#E0E0E0"/>
<path d="M376.896 185.953C374.127 178.29 363.759 179.673 363.759 179.673L364.397 185.078C370.357 183.695 374.533 190.342 374.533 190.342L376.896 185.953Z" fill="#E0E0E0"/>
<path d="M213.076 6.37904C210.307 -1.28432 199.939 0.098755 199.939 0.098755L200.577 5.50404C206.537 4.12096 210.713 10.7682 210.713 10.7682L213.076 6.37904Z" fill="#E0E0E0"/>
<path d="M89.3342 104.479C86.5647 96.8153 76.1973 98.1984 76.1973 98.1984L76.8353 103.604C82.7947 102.221 86.9707 108.868 86.9707 108.868L89.3342 104.479Z" fill="#EBEBEB"/>
<path d="M63.3355 32.7986C55.0995 34.1111 54.708 44.3007 54.708 44.3007L60.2905 44.6394C59.928 38.6837 67.3809 35.8329 67.3809 35.8329L63.3355 32.7986Z" fill="#EBEBEB"/>
<path d="M4.03098 271.294C18.3134 275.5 27.2018 259.468 27.2018 259.468L18.5164 254.655C14.2679 264.478 0 263.335 0 263.335L4.03098 271.294Z" fill="#EBEBEB"/>
<path d="M410.913 100.781C411.885 94.3455 403.997 91.5793 403.997 91.5793L402.387 95.6439C407.143 96.8153 407.578 103.053 407.578 103.053L410.913 100.781Z" fill="#E0E0E0"/>
<path d="M363.426 30.0747C357.858 33.6735 361.004 41.2381 361.004 41.2381L365.195 39.6998C362.918 35.4659 367.399 31.0062 367.399 31.0062L363.426 30.0747Z" fill="#EBEBEB"/>
<path d="M312.879 222.407C310.211 213.191 297.886 214.08 297.886 214.08L298.22 220.487C305.339 219.288 309.762 227.417 309.762 227.417L312.879 222.407Z" fill="#FD2692"/>
<path d="M191.732 115.134C185.091 115.826 184.294 123.941 184.294 123.941L188.745 124.449C188.745 119.678 194.821 117.717 194.821 117.717L191.732 115.134Z" fill="#FD2692"/>
<path d="M253.618 29.0729C257.678 39.1213 271.381 36.7927 271.381 36.7927L270.279 29.6374C262.434 31.7543 256.533 23.1172 256.533 23.1172L253.618 29.0729Z" fill="#FD2692"/>
<path d="M99.0053 198.951C92.3644 199.643 91.5669 207.758 91.5669 207.758L96.0184 208.266C96.0184 203.496 102.094 201.534 102.094 201.534L99.0053 198.951Z" fill="#FD2692"/>
<path d="M126.381 61.208C127.353 54.7725 119.465 52.0063 119.465 52.0063L117.855 56.0709C122.611 57.2423 123.046 63.4802 123.046 63.4802L126.381 61.208Z" fill="#FD2692"/>
<path d="M12.7454 160.013C11.5564 170.104 25.2878 172.546 25.2878 172.546L27.7673 165.941C19.5313 165.221 18.3278 155.765 18.3278 155.765L12.7454 160.013Z" fill="#FD2692"/>
<path d="M339.255 111.309C345.924 111.676 348.07 103.787 348.07 103.787L343.764 102.573C342.981 107.287 336.645 108.247 336.645 108.247L339.255 111.309Z" fill="#FD2692"/>
</g>
<defs>
<clipPath id="clip0_16028_83427">
<rect width="352" height="254" fill="white" transform="translate(26 75)"/>
</clipPath>
<clipPath id="clip1_16028_83427">
<rect width="411" height="272" fill="white"/>
</clipPath>
</defs>
</svg>
