<svg width="103" height="30" viewBox="0 0 103 30" fill="none" xmlns="http://www.w3.org/2000/svg">
<g clip-path="url(#clip0_16548_2592)">
<path d="M11.1097 4.81348V13.0151H3.57484V4.81348H0V24.3919H3.57581V16.4564H11.1087V24.3919H14.6855V4.81348H11.1097ZM26.131 18.0638C26.131 18.8485 25.8192 19.6011 25.2643 20.156C24.7094 20.7109 23.9568 21.0227 23.1721 21.0227C22.3874 21.0227 21.6348 20.7109 21.0799 20.156C20.525 19.6011 20.2132 18.8485 20.2132 18.0638V9.67735H16.8213V18.0638C16.8213 19.7465 17.4897 21.3602 18.6796 22.5501C19.8694 23.7399 21.4831 24.4083 23.1658 24.4083C24.8485 24.4083 26.4622 23.7399 27.6521 22.5501C28.8419 21.3602 29.5103 19.7465 29.5103 18.0638V9.67735H26.131V18.0638ZM51.2642 10.5415C51.2642 8.82186 52.4013 8.27703 53.6468 8.27703C54.6513 8.27703 55.9771 9.04154 56.8452 9.96864L59.0661 7.34993C57.9571 5.84993 55.7081 4.81348 53.8665 4.81348C50.1861 4.81348 47.5248 6.96864 47.5248 10.5415C47.5248 17.1706 55.6268 15.0667 55.6268 18.777C55.6268 19.9209 54.5158 20.9312 53.2442 20.9312C51.2381 20.9312 50.5877 19.9509 49.6665 18.9135L47.2006 21.477C48.7781 23.4125 50.7232 24.3957 53.0526 24.3957C56.549 24.3957 59.3613 22.2144 59.3613 18.8041C59.3613 11.4454 51.2584 13.7322 51.2584 10.5415M101.387 21.2641C99.3832 21.2641 98.8132 20.397 98.8132 19.0693V13.1903H101.929V10.2115H98.8132V6.28154L95.3739 7.82509V19.7999C95.3739 22.8628 97.4874 24.4064 100.385 24.4064C100.84 24.4141 101.295 24.3773 101.742 24.298L102.581 21.209C102.202 21.2351 101.768 21.2612 101.387 21.2612M39.0426 9.77509C37.3626 9.77509 36.1897 10.2628 35.0555 11.3748V4.93057H31.6587V16.8754C31.6587 21.3464 34.891 24.4103 38.5239 24.4103C42.5535 24.4103 46.0984 21.2922 46.0984 17.0941C46.0984 12.9483 42.8361 9.77799 39.0426 9.77799M39.0213 20.9912C38.515 20.9912 38.0138 20.8915 37.546 20.6978C37.0783 20.504 36.6534 20.2201 36.2954 19.8621C35.9374 19.5041 35.6535 19.0792 35.4597 18.6115C35.266 18.1438 35.1663 17.6425 35.1663 17.1362C35.1663 16.63 35.266 16.1287 35.4597 15.661C35.6535 15.1933 35.9374 14.7683 36.2954 14.4103C36.6534 14.0524 37.0783 13.7684 37.546 13.5747C38.0138 13.3809 38.515 13.2812 39.0213 13.2812C40.0437 13.2812 41.0242 13.6874 41.7472 14.4103C42.4701 15.1333 42.8763 16.1138 42.8763 17.1362C42.8763 18.1586 42.4701 19.1392 41.7472 19.8621C41.0242 20.5851 40.0437 20.9912 39.0213 20.9912ZM75.9329 16.9161C75.9329 12.7103 72.3958 9.59993 68.3584 9.59993C64.7265 9.59993 61.4932 12.6628 61.4932 17.1348V29.0864H64.89V22.6335C66.0223 23.7435 67.1971 24.2332 68.8752 24.2332C72.6687 24.2332 75.9319 21.0628 75.9319 16.9161M72.7161 16.8735C72.7161 17.8959 72.31 18.8764 71.587 19.5994C70.8641 20.3223 69.8835 20.7285 68.8611 20.7285C67.8387 20.7285 66.8582 20.3223 66.1352 19.5994C65.4123 18.8764 65.0061 17.8959 65.0061 16.8735C65.0061 15.8511 65.4123 14.8705 66.1352 14.1476C66.8582 13.4246 67.8387 13.0185 68.8611 13.0185C69.8835 13.0185 70.8641 13.4246 71.587 14.1476C72.31 14.8705 72.7161 15.8511 72.7161 16.8735Z" fill="#33475B"/>
<path d="M86.909 9.43546V6.02224C87.36 5.81144 87.7419 5.47686 88.0102 5.05746C88.2785 4.63806 88.4222 4.15108 88.4245 3.65321V3.57482C88.4245 2.12321 87.2477 0.946433 85.7961 0.946433H85.7177C85.0206 0.946433 84.3521 1.22335 83.8591 1.71627C83.3662 2.20919 83.0893 2.87773 83.0893 3.57482V3.65321C83.0916 4.15108 83.2353 4.63806 83.5036 5.05746C83.7718 5.47686 84.1537 5.81144 84.6048 6.02224V9.43546C83.3084 9.63396 82.0876 10.1715 81.0658 10.9935L71.7048 3.70256C71.7716 3.46159 71.8064 3.21385 71.8103 2.96514C71.8114 2.37937 71.6388 1.80642 71.3143 1.31876C70.9898 0.831102 70.5279 0.450641 69.9871 0.225504C69.4464 0.000367433 68.851 -0.0593305 68.2763 0.0539616C67.7015 0.167254 67.1733 0.448446 66.7585 0.86197C66.3436 1.27549 66.0607 1.80277 65.9455 2.37711C65.8303 2.95145 65.8881 3.54704 66.1115 4.08855C66.3348 4.63006 66.7138 5.09316 67.2004 5.41927C67.687 5.74538 68.2593 5.91986 68.8451 5.92063C69.3576 5.91821 69.8604 5.7814 70.3035 5.52385L79.5212 12.6968C78.6932 13.9477 78.2612 15.4191 78.2815 16.9192C78.3019 18.4193 78.7737 19.8784 79.6354 21.1064L76.8319 23.9109C76.6053 23.8385 76.3691 23.8 76.1312 23.7968C75.6504 23.7971 75.1805 23.94 74.7809 24.2074C74.3812 24.4748 74.0698 24.8546 73.886 25.2989C73.7022 25.7432 73.6542 26.232 73.7481 26.7036C73.842 27.1752 74.0735 27.6083 74.4135 27.9483C74.7535 28.2883 75.1867 28.5199 75.6583 28.6138C76.1298 28.7077 76.6186 28.6597 77.0629 28.4759C77.5072 28.292 77.8871 27.9806 78.1545 27.581C78.4218 27.1814 78.5647 26.7115 78.5651 26.2306C78.562 25.9927 78.5235 25.7566 78.4509 25.53L81.2245 22.7555C82.1289 23.4518 83.1807 23.9318 84.2993 24.1588C85.4179 24.3858 86.5737 24.3538 87.678 24.0651C88.7823 23.7764 89.8059 23.2388 90.6703 22.4935C91.5348 21.7481 92.2172 20.8148 92.6652 19.765C93.1132 18.7152 93.315 17.5768 93.2551 16.4369C93.1952 15.2971 92.8751 14.1861 92.3195 13.189C91.7639 12.192 90.9874 11.3353 90.0496 10.6847C89.1118 10.0341 88.0375 9.60675 86.909 9.43546ZM85.7593 20.6613C85.2467 20.6754 84.7365 20.5866 84.2588 20.4002C83.7811 20.2138 83.3456 19.9335 82.9781 19.5759C82.6106 19.2184 82.3184 18.7907 82.1189 18.3184C81.9195 17.846 81.8167 17.3384 81.8167 16.8256C81.8167 16.3128 81.9195 15.8053 82.1189 15.3329C82.3184 14.8605 82.6106 14.4329 82.9781 14.0753C83.3456 13.7178 83.7811 13.4375 84.2588 13.2511C84.7365 13.0647 85.2467 12.9759 85.7593 12.99C86.7528 13.0248 87.694 13.4438 88.3846 14.1587C89.0753 14.8736 89.4616 15.8287 89.4621 16.8228C89.4626 17.8169 89.0773 18.7723 88.3873 19.488C87.6974 20.2036 86.7566 20.6235 85.7632 20.6593" fill="#FF7A59"/>
</g>
<defs>
<clipPath id="clip0_16548_2592">
<rect width="102.581" height="30" fill="white"/>
</clipPath>
</defs>
</svg>
