<svg width="155" height="22" viewBox="0 0 155 22" fill="none" xmlns="http://www.w3.org/2000/svg">
<path d="M32.5442 6.92182C30.9746 6.92182 29.9711 7.43644 29.9711 8.36276C29.9711 9.28907 31.026 9.70077 32.5956 9.85515C34.8342 10.0353 37.7161 10.4212 37.7161 13.4318C37.7161 15.5932 35.6834 17.1113 32.5699 17.1113C30.6144 17.1113 28.7103 16.6739 27.0635 14.9499L28.3758 13.2259C29.4822 14.3323 30.9746 14.9499 32.5442 14.9499C33.8822 14.9499 35.2202 14.5382 35.2202 13.4575C35.2202 12.3768 34.191 12.0166 32.3898 11.8622C30.1255 11.6821 27.4752 11.0131 27.4752 8.41422C27.4752 5.84112 30.2541 4.86334 32.4927 4.86334C34.1652 4.83761 35.812 5.37796 37.15 6.4072L35.8377 7.95106C34.8857 7.25632 33.7278 6.89609 32.5442 6.92182ZM46.0787 14.847C47.3395 14.847 48.8319 14.4095 49.5781 13.5861L51.2249 15.13C49.9641 16.468 47.8799 17.1113 46.0272 17.1113C42.0646 17.1113 39.5173 14.7183 39.5173 10.9873C39.5173 7.43645 42.1676 4.86334 45.9758 4.86334C49.5266 4.86334 51.9711 6.87036 51.9711 10.8844C51.9711 11.2189 51.9453 11.5791 51.9196 11.9136H42.1418C42.3477 13.7663 43.8401 14.847 46.0787 14.847ZM45.9758 7.05048C44.1489 7.05048 42.5535 8.02826 42.1676 9.90662H49.5009C49.3465 8.05399 48.0857 7.05048 45.9758 7.05048ZM63.6787 10.2926C63.6787 8.28557 62.4951 7.12767 60.4108 7.12767C59.4845 7.12767 58.6097 7.48791 57.9664 8.15691C57.3231 8.82592 56.9886 9.7265 57.0144 10.6528V16.8283H54.467V5.17212H56.7828L56.9372 6.79317C57.9407 5.58381 59.4331 4.86334 61.0027 4.88907C63.9103 4.88907 66.2003 6.63878 66.2003 10.2669V16.8283H63.653L63.6787 10.2926ZM81.6132 16.8283H79.2459L79.0915 14.9756C78.1395 16.3651 76.5699 17.1628 74.8974 17.1113C71.398 17.1113 68.722 14.8727 68.722 10.9873C68.722 7.02475 71.3465 4.86334 74.8459 4.86334C76.3126 4.86334 78.2939 5.55808 79.0915 6.94755V0.308961H81.6389L81.6132 16.8283ZM71.2436 10.9873C71.2436 13.3546 72.9161 14.847 75.0518 14.847C77.136 14.847 78.8342 13.123 78.8342 11.013C78.8342 8.90311 77.136 7.17913 75.0518 7.17913C72.9161 7.17913 71.2436 8.6458 71.2436 10.9873ZM86.322 0.0259187C86.7337 0.000187742 87.1453 0.128843 87.4284 0.411884C87.7372 0.694925 87.8915 1.10662 87.8915 1.51831C87.8401 2.3417 87.1453 3.01072 86.322 3.01072C85.4986 3.01072 84.8038 2.36744 84.7524 1.51831C84.7524 1.10662 84.9068 0.694925 85.2155 0.411884C85.5243 0.128843 85.936 -0.0255433 86.322 0.0259187ZM87.5828 16.8283H85.0354V5.17212H87.5828V16.8283ZM100.191 10.2926C100.191 8.28557 99.0073 7.12767 96.9231 7.12767C95.9968 7.12767 95.122 7.48791 94.4787 8.15691C93.8354 8.82592 93.5009 9.7265 93.5266 10.6785V16.854H90.9793V5.19785H93.2693L93.4237 6.8189C94.4272 5.60954 95.9196 4.88908 97.4892 4.91481C100.397 4.91481 102.687 6.66451 102.687 10.2926V16.854H100.14C100.165 16.8283 100.191 10.2926 100.191 10.2926ZM108.502 7.07621C109.274 5.68674 111.281 4.88907 112.748 4.88907C116.221 4.88907 118.872 7.05048 118.872 11.013C118.872 14.8984 116.016 17.137 112.722 17.137C111.204 17.137 109.454 16.4937 108.502 15.0014L108.348 16.854H105.98V0.334686H108.528L108.502 7.07621ZM108.631 10.9873C108.605 12.0166 109.017 13.0201 109.763 13.7663C110.483 14.4867 111.487 14.8727 112.516 14.847C114.729 14.847 116.324 13.3546 116.324 10.9873C116.324 8.62007 114.703 7.1534 112.516 7.1534C111.487 7.12767 110.509 7.51364 109.789 8.2341C109.042 8.9803 108.631 9.95808 108.631 10.9873ZM124.172 16.8283H121.625V0.308961H124.172V16.8283ZM130.039 11.5277C130.039 13.509 131.197 14.8727 133.332 14.8727C134.259 14.8727 135.134 14.5125 135.751 13.8435C136.394 13.1745 136.729 12.2739 136.678 11.3476V5.17212H139.199V16.8283H136.935L136.78 15.2072C135.751 16.4423 134.207 17.1628 132.612 17.0856C129.653 17.0856 127.517 15.0271 127.517 11.5019V5.12065H130.039V11.5277ZM148.462 14.847C149.723 14.847 151.216 14.4095 151.962 13.5861L153.609 15.13C152.348 16.468 150.263 17.1113 148.411 17.1113C144.448 17.1113 141.901 14.7183 141.901 10.9873C141.901 7.43645 144.551 4.86334 148.385 4.86334C151.936 4.86334 154.38 6.87036 154.38 10.8844C154.38 11.2189 154.355 11.5791 154.329 11.9136H144.525C144.757 13.7663 146.249 14.847 148.462 14.847ZM148.385 7.05048C146.532 7.05048 144.963 8.02826 144.577 9.90662H151.91C151.73 8.05399 150.469 7.05048 148.385 7.05048Z" fill="#091E3F"/>
<path d="M18.4436 15.7474C17.8775 16.7251 16.9512 17.4456 15.8705 17.7544C16.0249 17.214 16.1021 16.6737 16.1021 16.1076C16.1021 13.3544 14.198 11.0386 11.6506 10.3953C12.1909 9.8807 12.8342 9.49474 13.5547 9.31462C14.6611 9.00585 15.8705 9.16023 16.8483 9.75205C18.9325 10.9871 19.6529 13.6632 18.4436 15.7474ZM10.2611 20.5076C9.12896 20.5076 8.04826 20.0444 7.2506 19.2725C7.79095 19.1439 8.30557 18.938 8.76873 18.655C11.136 17.2655 12.1909 14.4608 11.4447 11.9134C13.2717 12.4281 14.6097 14.1263 14.6097 16.1076C14.6097 18.552 12.6541 20.5076 10.2611 20.5076ZM2.07867 15.7474C1.51259 14.7696 1.3582 13.586 1.64124 12.5053C2.02721 12.8912 2.46464 13.2515 2.92779 13.5345C3.80265 14.0491 4.80616 14.3322 5.83539 14.3322C7.43072 14.3322 8.94884 13.6889 10.0553 12.531C10.5184 14.3836 9.72077 16.3906 8.02253 17.3684C7.35352 17.7544 6.60732 17.9602 5.86113 17.9602C4.29153 17.9345 2.8506 17.1111 2.07867 15.7474ZM2.07867 6.25263C2.64475 5.27485 3.57107 4.55439 4.65177 4.24561C4.49738 4.78596 4.42019 5.32631 4.42019 5.8924C4.42019 8.64561 6.32428 10.9614 8.87165 11.6047C7.50791 12.917 5.39797 13.2515 3.67399 12.248C2.67048 11.6561 1.95002 10.7298 1.64124 9.59766C1.33247 8.46549 1.48686 7.25614 2.07867 6.25263ZM10.2611 1.49239C11.3933 1.49239 12.474 1.95556 13.2717 2.72749C12.7313 2.85614 12.2167 3.06199 11.7535 3.34503C10.3898 4.14269 9.43773 5.40351 9.02604 6.92164C8.743 7.95088 8.76873 9.05731 9.05177 10.0866C7.22487 9.57193 5.88686 7.87368 5.88686 5.8924C5.91259 3.47368 7.86814 1.49239 10.2611 1.49239ZM18.4436 6.25263C19.0097 7.25614 19.164 8.41403 18.881 9.49474C18.495 9.08304 18.0576 8.74854 17.5945 8.4655C16.2307 7.66783 14.6611 7.46199 13.143 7.87369C12.1138 8.15673 11.1617 8.72281 10.4412 9.49474C10.2611 8.77427 10.2611 8.02807 10.467 7.3076C10.7757 6.17544 11.4962 5.22339 12.4997 4.65731C13.5032 4.0655 14.6869 3.91111 15.7933 4.21988C16.9255 4.52865 17.8518 5.24912 18.4436 6.25263ZM19.7559 5.50643C18.9839 4.14269 17.7231 3.16492 16.205 2.75322C15.8447 2.6503 15.4845 2.59883 15.1243 2.5731C14.0436 0.977778 12.2167 0 10.2869 0C8.27984 0 6.5044 1.02924 5.44943 2.5731C3.51961 2.72749 1.7699 3.80819 0.79212 5.50643C0.0201908 6.87017 -0.185656 8.43977 0.200309 9.9579C0.303233 10.3181 0.431888 10.6526 0.586274 10.9871C-0.262849 12.7368 -0.185657 14.7953 0.79212 16.4936C1.79563 18.2433 3.57107 19.2725 5.4237 19.4269C6.5044 21.0222 8.3313 22 10.2611 22C12.2681 22 14.0436 20.9708 15.0986 19.4269C17.0284 19.2725 18.7781 18.1918 19.7559 16.4936C20.7594 14.7439 20.7594 12.6854 19.9617 10.9871C20.7851 9.26316 20.7079 7.17895 19.7559 5.50643Z" fill="#0092FF"/>
</svg>
