<svg width="104" height="30" viewBox="0 0 104 30" fill="none" xmlns="http://www.w3.org/2000/svg">
<g clip-path="url(#clip0_16548_2590)">
<path fill-rule="evenodd" clip-rule="evenodd" d="M13.2131 1.02245C14.5501 -0.340817 16.7369 -0.340817 18.0732 1.02245L30.2913 13.4785C31.6269 14.8402 31.6269 17.0714 30.2913 18.4346L21.7459 27.146C21.1209 27.7833 20.257 28.177 19.3039 28.177H11.9839C11.1156 28.177 10.3232 27.8508 9.71527 27.3121L1.00168 18.4278C-0.333894 17.0653 -0.333894 14.8357 1.00168 13.4724L13.2131 1.02245ZM17.7332 23.7617L16.5144 25.0044C16.4251 25.0954 16.3016 25.1516 16.1655 25.1516H15.1216C14.9973 25.1516 14.885 25.1053 14.7972 25.0279L13.5546 23.7602C13.3649 23.5668 13.3649 23.2489 13.5546 23.054L15.2964 21.278C15.4876 21.083 15.8001 21.083 15.9899 21.278L17.7332 23.0547C17.9244 23.2489 17.9244 23.5668 17.7332 23.7617ZM17.7332 16.3097L12.8597 21.2788C12.7696 21.3698 12.6468 21.4259 12.5114 21.4259H11.4668C11.3433 21.4259 11.2294 21.3796 11.1431 21.3023L9.89982 20.0353C9.70934 19.8404 9.70934 19.5218 9.89982 19.3283L15.2964 13.8259C15.4876 13.6317 15.8001 13.6317 15.9906 13.8259L17.7332 15.6026C17.9244 15.7968 17.9244 16.1155 17.7332 16.3097ZM17.7332 8.85763L9.20559 17.5523C9.11483 17.6434 8.99205 17.6995 8.85665 17.6995H7.81272C7.68922 17.6995 7.5754 17.6532 7.48909 17.5758L6.24503 16.3082C6.05454 16.1147 6.05454 15.7961 6.24503 15.6011L15.2964 6.37309C15.4876 6.17812 15.7987 6.17812 15.9899 6.37309L17.7332 8.15057C17.9244 8.34477 17.9244 8.66342 17.7332 8.85763Z" fill="#26A943"/>
<path d="M89.392 11.4453V6.21533H85.6941V25.169H89.392V11.9999L93.9257 24.3194C94.0305 24.5842 94.0811 24.8762 94.0811 25.169C94.0811 26.0187 93.613 26.7872 92.6498 26.8934C91.9211 26.9207 91.1928 26.8403 90.4898 26.7607V29.868C91.2441 29.9477 91.9984 30 92.7546 30C95.2782 30 96.5805 29.0972 97.3883 26.8934L103.012 11.4453H99.1847L96.2425 20.8425H96.1912L93.1438 11.4453H89.392Z" fill="#2E2E2E"/>
<path d="M46.063 6.32152C45.4387 6.29499 44.7617 6.21533 44.1111 6.21533C41.0905 6.21533 39.6068 7.9412 39.6068 10.3825V11.4453H37.3933V13.9663H39.6068V25.169H43.3033V13.9663H45.8555V11.4453H43.3033V10.6215C43.3033 9.48049 43.694 9.05489 44.7086 9.05489C45.1521 9.05489 45.6202 9.08297 46.063 9.13607V6.32152Z" fill="#2E2E2E"/>
<path fill-rule="evenodd" clip-rule="evenodd" d="M84.8863 6.21533V25.169H81.3705V23.4158H81.3191C80.4596 24.9035 78.9755 25.54 77.2312 25.54C73.5401 25.54 71.5691 22.6238 71.241 19.2229H61.5578C61.6626 21.6384 62.781 22.6997 64.865 22.6997C66.3473 22.6997 67.5466 21.7696 67.7805 20.9222H71.0356C69.9925 24.1874 67.7805 25.54 64.7342 25.54C60.7988 25.54 58.252 22.9834 57.9032 19.2229H48.3828C48.4872 21.6384 49.6062 22.6997 51.6889 22.6997C53.1723 22.6997 54.3705 21.7696 54.604 20.9222H57.8584C56.8182 24.1874 54.604 25.54 51.5591 25.54C47.3136 25.54 44.6841 22.5669 44.6841 18.3193C44.6841 14.2053 47.4701 11.0736 51.5591 11.0736C55.2676 11.0736 57.441 13.6469 57.9828 16.8658C58.5585 13.4899 61.145 11.0736 64.7342 11.0736C68.6263 11.0736 70.8275 13.9071 71.2261 17.3468C71.5095 13.9936 73.4993 11.0736 77.1538 11.0736C78.7409 11.0736 80.3035 11.7632 81.1363 13.1166H81.1897V6.21533H84.8863ZM51.455 13.9132C49.0587 13.9132 48.4612 15.7718 48.3828 16.8339H54.3965C54.0578 14.9214 53.2514 13.9132 51.455 13.9132ZM61.5578 16.8339C61.6366 15.7718 62.2348 13.9132 64.6301 13.9132C66.4261 13.9132 67.2343 14.9214 67.5719 16.8339H61.5578ZM81.3191 18.267C81.3191 16.0374 80.5381 13.9132 78.142 13.9132C75.7225 13.9132 74.8883 16.0639 74.8883 18.2935C74.8883 20.4443 75.8512 22.6997 78.142 22.6997C80.5648 22.6997 81.3191 20.5232 81.3191 18.267Z" fill="#2E2E2E"/>
</g>
<defs>
<clipPath id="clip0_16548_2590">
<rect width="103.012" height="30" fill="white"/>
</clipPath>
</defs>
</svg>
