<svg width="44" height="48" viewBox="0 0 44 48" fill="none" xmlns="http://www.w3.org/2000/svg">
<path d="M3.48594 0.178049C2.05156 0.693673 1.02969 1.94055 0.814063 3.44055C0.692187 4.27492 0.692187 12.0374 0.814063 12.8905C0.992188 14.1468 1.81719 15.3562 2.85781 15.8812C3.93594 16.4249 3.42031 16.4062 15.7203 16.4062C25.9297 16.4062 27.0453 16.3874 27.2328 16.2562C27.5609 16.0312 27.6453 15.703 27.4859 15.328C27.4203 15.1499 27.3453 14.9905 27.3266 14.9812C27.3078 14.9624 22.1141 14.9343 15.7672 14.9062C4.26406 14.8593 4.23594 14.8593 3.80469 14.6624C3.26094 14.4093 2.77344 13.9218 2.49219 13.3499L2.26719 12.8905V8.24992C2.26719 3.9093 2.27656 3.58117 2.44531 3.14992C2.67969 2.53117 3.23281 1.94992 3.84219 1.67805C4.32031 1.46242 4.38594 1.45305 8.15469 1.40617C11.8109 1.3593 11.9891 1.34992 12.1203 1.18117C12.3172 0.909298 12.2891 0.412423 12.0641 0.187424C11.8859 0.00929832 11.7547 -7.62939e-05 7.92031 -7.62939e-05C4.32969 0.00929832 3.90781 0.0186729 3.48594 0.178049Z" fill="#FF008A"/>
<path d="M13.7602 0.24375C13.507 0.562499 13.507 0.843749 13.7602 1.15312L13.9477 1.40625L26.8102 1.425L39.6727 1.45312L40.1602 1.67812C40.7695 1.95 41.3227 2.53125 41.557 3.15C41.7258 3.58125 41.7352 3.90937 41.7352 8.25V12.8906L41.5102 13.35C41.2289 13.9219 40.7414 14.4094 40.1977 14.6625C39.7758 14.85 39.6164 14.8594 34.4883 14.9062C29.3977 14.9531 29.2008 14.9625 29.0695 15.1312C28.8445 15.45 28.9008 15.9844 29.182 16.2094C29.4258 16.4062 29.5195 16.4062 34.507 16.4062C39.9914 16.4062 40.132 16.3969 41.1258 15.8906C42.1758 15.3562 43.0102 14.1469 43.1883 12.8906C43.3102 12.0375 43.3102 4.26562 43.1883 3.43125C42.9914 2.11875 42.1102 0.91875 40.8914 0.318748L40.3289 0.046875L27.1383 0.0187492L13.957 0L13.7602 0.24375Z" fill="#FF008A"/>
<path d="M5.5 4.28437C5.425 4.3125 5.28438 4.39687 5.2 4.48125C5.04063 4.6125 5.03125 4.9125 5.03125 8.16562V11.7094L5.275 11.8969C5.5 12.075 5.65 12.0938 6.85938 12.0938C8.47188 12.0938 8.99688 11.9625 9.5875 11.4187C10.525 10.5562 10.6281 9.15937 9.82188 8.09062C9.49375 7.65937 9.475 7.60312 9.5875 7.39687C9.95312 6.73125 9.8125 5.69062 9.27813 5.07187C8.70625 4.39687 8.35938 4.275 6.90625 4.24687C6.2125 4.2375 5.575 4.24687 5.5 4.28437ZM8.04063 5.99062C8.36875 6.31875 8.3875 6.5625 8.09688 6.9C7.90938 7.11562 7.7875 7.15312 7.20625 7.2L6.53125 7.24687V6.47812V5.71875H7.15C7.70312 5.71875 7.7875 5.74687 8.04063 5.99062ZM8.15313 8.72812C8.86563 8.925 9.07188 9.77812 8.54688 10.3031C8.33125 10.5281 8.22813 10.5469 7.42188 10.575L6.53125 10.6125V9.61875V8.625H7.16875C7.51562 8.625 7.95625 8.67187 8.15313 8.72812Z" fill="#FF008A"/>
<path d="M16.1695 4.3123C15.0164 4.50918 13.8726 5.38105 13.357 6.45918C13.1039 6.98418 13.0476 7.21855 13.0195 7.93105C12.9726 8.98105 13.132 9.59043 13.6476 10.3686C14.0789 11.006 14.7539 11.5592 15.457 11.8404C15.8414 11.9904 16.1601 12.0373 16.8914 12.0373C17.7539 12.0467 17.8758 12.0279 18.457 11.7467C20.032 11.006 20.857 9.6373 20.7633 7.9123C20.6695 6.15918 19.4414 4.7248 17.7258 4.35918C17.0226 4.20918 16.8258 4.1998 16.1695 4.3123ZM17.9414 6.01855C19.7133 6.85293 19.7039 9.39355 17.9226 10.3404C17.3976 10.6217 16.3851 10.6217 15.8508 10.3404C14.9883 9.88105 14.5101 9.12168 14.5008 8.20292C14.5008 7.34043 14.8476 6.70293 15.6539 6.09355C16.1695 5.70918 17.2008 5.67168 17.9414 6.01855Z" fill="#FF008A"/>
<path d="M26.6124 4.32185C26.3405 4.36873 25.8624 4.53748 25.5436 4.69685C23.1999 5.8781 22.703 9.05623 24.5686 10.9312C26.0967 12.45 28.5811 12.4594 30.0905 10.95C32.3592 8.68123 31.1124 4.8281 27.9436 4.31248C27.3249 4.20935 27.2967 4.20935 26.6124 4.32185ZM28.3186 5.98123C29.5561 6.53435 30.0999 8.0531 29.4811 9.24373C28.6936 10.7531 26.8374 11.0344 25.6374 9.83435C23.7811 7.9781 25.8999 4.92185 28.3186 5.98123Z" fill="#FF008A"/>
<path d="M34.375 4.28437C34.3 4.3125 34.1594 4.39687 34.075 4.48125C33.9156 4.6125 33.9062 4.9125 33.9062 8.16562V11.7094L34.15 11.8969C34.4313 12.1219 34.8156 12.15 35.05 11.9625C35.3125 11.7656 35.4062 11.3812 35.4062 10.5375C35.4062 10.1062 35.4344 9.75 35.4719 9.75C35.5094 9.75 36.0719 10.275 36.7188 10.9219C37.7125 11.9062 37.9563 12.0938 38.1906 12.0938C38.6313 12.0938 38.9688 11.775 38.9688 11.3531C38.9688 11.0156 38.8844 10.9125 37.4594 9.51562L35.9406 8.03437L36.8219 7.22812C38.5 5.7 38.7812 5.4 38.7812 5.1C38.7812 4.56562 38.2656 4.19062 37.7781 4.37812C37.6656 4.41562 37.1031 4.89375 36.5125 5.4375L35.4531 6.42188L35.4062 5.55C35.3688 4.85625 35.3219 4.65937 35.1719 4.50937C34.9656 4.30312 34.5906 4.2 34.375 4.28437Z" fill="#FF008A"/>
<path d="M17.1087 18.1421C16.1619 18.3764 15.3556 18.8358 14.6431 19.5483C13.6212 20.5702 13.1056 21.7233 13.0681 23.0639C13.0494 23.6639 13.0681 23.7577 13.2744 23.9171C13.7525 24.3014 14.5025 23.9921 14.5025 23.4014C14.5025 22.8202 14.8025 21.8358 15.1494 21.3014C16.5556 19.1358 19.5087 18.8827 21.2525 20.7764C21.7962 21.3671 22.1806 22.2296 22.2556 23.0264C22.3025 23.5139 22.3681 23.7202 22.5275 23.8796C22.8181 24.1702 23.2587 24.1608 23.5494 23.8608C23.8494 23.5702 23.8587 23.0171 23.5962 21.9764C23.1181 20.1296 21.5994 18.6296 19.7056 18.1421C19.0306 17.9733 17.8306 17.9733 17.1087 18.1421Z" fill="#FF008A"/>
<path d="M17.4358 21.5258C16.9483 21.7039 16.3202 22.2945 16.0858 22.8102C15.9264 23.1758 15.9077 23.4758 15.9077 27.0758V30.957L15.6077 30.8727C15.4389 30.8352 15.0264 30.7977 14.6889 30.807C13.7514 30.807 12.9827 31.2945 12.5046 32.1945C12.2983 32.5695 12.2983 32.6352 12.3077 36.1883V39.7977L12.5608 40.7352C13.4983 44.1852 16.1233 46.8195 19.5358 47.7289C20.4733 47.982 22.5546 48.0758 23.5764 47.907C27.5139 47.2789 30.6827 44.2508 31.5358 40.3133C31.6858 39.6195 31.7046 39.057 31.7046 36.0008V32.4852L31.4139 31.9695C31.0764 31.3695 30.5046 30.8914 29.9421 30.7414C29.5483 30.6383 28.5546 30.6664 28.2639 30.7977C28.1139 30.8539 28.0952 30.807 28.0952 30.3758C28.0952 30.1039 28.0483 29.7195 27.9827 29.5133C27.8421 29.0445 27.2421 28.3602 26.7546 28.107C26.2389 27.8539 25.3577 27.7883 24.8327 27.9664L24.4296 28.107L24.2608 27.7602C24.0171 27.3008 23.5389 26.8602 23.0327 26.6352C22.5733 26.4289 21.6264 26.3727 21.2139 26.532L20.9702 26.6258V25.0883C20.9702 23.9164 20.9327 23.4383 20.8108 23.0727C20.4827 22.0414 19.5452 21.3664 18.4483 21.3852C18.1014 21.3852 17.6514 21.4508 17.4358 21.5258ZM18.9921 23.0258C19.4702 23.3633 19.4702 23.4102 19.4702 29.1758V34.5383L19.6764 34.7539C19.9577 35.0539 20.4358 35.0445 20.7358 34.7352L20.9702 34.5102V31.5383V28.5758L21.2889 28.257C21.5514 27.9945 21.6827 27.9383 22.0014 27.9383C22.3202 27.9383 22.4514 27.9945 22.7139 28.257L23.0327 28.5758V31.5383V34.5102L23.2671 34.7352C23.5577 35.0352 24.0171 35.0445 24.3171 34.7633C24.5327 34.5664 24.5327 34.5383 24.5327 32.4102C24.5327 30.0102 24.5796 29.7852 25.1327 29.4852C25.7233 29.1664 26.3983 29.4945 26.5952 30.1977C26.6514 30.3758 26.6889 31.4352 26.6889 32.5508C26.6889 34.4727 26.6983 34.6039 26.8764 34.782C27.1296 35.0352 27.6546 35.0352 27.9077 34.782C28.0577 34.632 28.0952 34.4727 28.0952 33.957C28.0952 33.1227 28.2264 32.6914 28.5733 32.4008C29.1171 31.9414 29.9514 32.1945 30.1577 32.8789C30.2327 33.132 30.2514 34.1914 30.2233 36.3758C30.1952 38.9633 30.1577 39.6289 30.0171 40.1633C29.4077 42.5727 27.8421 44.5602 25.7046 45.6289C24.4202 46.2852 23.4358 46.5102 21.9546 46.5102C18.2327 46.5102 15.0546 44.0258 14.0139 40.3227C13.8358 39.6758 13.8171 39.3008 13.7796 36.4039C13.7421 33.5539 13.7514 33.1695 13.8921 32.8789C14.1921 32.2414 15.0639 32.082 15.5233 32.5695C15.8514 32.9164 15.9077 33.3195 15.9077 35.1289V36.8352L16.1514 37.0227C16.4702 37.2758 16.7514 37.2758 17.0608 37.0227L17.3046 36.8352L17.3327 30.2539C17.3514 25.0133 17.3889 23.6258 17.4827 23.4289C17.7452 22.9227 18.5327 22.707 18.9921 23.0258Z" fill="#FF008A"/>
</svg>
