<svg width="112" height="32" viewBox="0 0 112 32" fill="none" xmlns="http://www.w3.org/2000/svg">
<path d="M110.656 28.3098C110.656 30.0151 109.246 31.3965 107.501 31.3965H4.27561C2.53226 31.3965 1.11719 30.0151 1.11719 28.3098V3.69469C1.11719 1.99018 2.53226 0.604004 4.27561 0.604004H107.501C109.246 0.604004 110.655 1.99018 110.655 3.69469L110.656 28.3098Z" fill="black"/>
<path d="M107.167 0.641001C109.066 0.641001 110.612 2.148 110.612 4V28C110.612 29.852 109.066 31.359 107.167 31.359H4.60256C2.70308 31.359 1.15744 29.852 1.15744 28V4C1.15744 2.148 2.70308 0.641001 4.60256 0.641001H107.167ZM107.167 1.90735e-06H4.60256C2.34718 1.90735e-06 0.5 1.801 0.5 4V28C0.5 30.199 2.34718 32 4.60256 32H107.167C109.422 32 111.269 30.199 111.269 28V4C111.269 1.801 109.422 1.90735e-06 107.167 1.90735e-06Z" fill="#A6A6A6"/>
<path d="M25.2206 15.8272C25.1968 13.2488 27.3859 11.9944 27.486 11.936C26.2462 10.1736 24.3246 9.93283 23.6493 9.91363C22.0354 9.74803 20.4698 10.8552 19.6477 10.8552C18.8091 10.8552 17.543 9.92963 16.1785 9.95683C14.4226 9.98323 12.78 10.9744 11.879 12.5136C10.0198 15.652 11.4064 20.264 13.1878 22.8008C14.0788 24.0432 15.1201 25.4304 16.4829 25.3816C17.8163 25.328 18.3143 24.5528 19.9234 24.5528C21.5176 24.5528 21.9853 25.3816 23.3752 25.3504C24.8062 25.328 25.7071 24.1024 26.567 22.8488C27.5968 21.4248 28.0103 20.0224 28.0267 19.9504C27.9931 19.9392 25.2477 18.9176 25.2206 15.8272Z" fill="white"/>
<path d="M22.5949 8.24483C23.3121 7.37043 23.8027 6.18083 23.6665 4.97363C22.6286 5.01843 21.3305 5.67363 20.583 6.52883C19.9217 7.28243 19.3309 8.51763 19.4836 9.67923C20.6495 9.76403 21.8466 9.10563 22.5949 8.24483Z" fill="white"/>
<path d="M40.7454 8.00696C40.7454 8.94856 40.4557 9.65736 39.8773 10.1334C39.3415 10.5726 38.58 10.7926 37.5938 10.7926C37.1048 10.7926 36.6863 10.7718 36.3359 10.7302V5.58536C36.793 5.51336 37.2853 5.47656 37.817 5.47656C38.7565 5.47656 39.4646 5.67576 39.9421 6.07416C40.4771 6.52456 40.7454 7.16856 40.7454 8.00696ZM39.8387 8.03016C39.8387 7.41976 39.673 6.95176 39.3415 6.62536C39.01 6.29976 38.5259 6.13656 37.8884 6.13656C37.6176 6.13656 37.387 6.15416 37.1958 6.19096V10.1022C37.3017 10.1182 37.4953 10.1254 37.7768 10.1254C38.4348 10.1254 38.9427 9.94696 39.3005 9.59016C39.6582 9.23336 39.8387 8.71336 39.8387 8.03016Z" fill="white"/>
<path d="M45.5539 8.82964C45.5539 9.40964 45.3841 9.88484 45.0444 10.2576C44.6883 10.6408 44.2165 10.832 43.6274 10.832C43.0596 10.832 42.6075 10.6488 42.2702 10.2808C41.9338 9.91364 41.7656 9.45044 41.7656 8.89204C41.7656 8.30804 41.9388 7.82884 42.2866 7.45684C42.6345 7.08484 43.1022 6.89844 43.6914 6.89844C44.2592 6.89844 44.7154 7.08164 45.0608 7.44884C45.389 7.80564 45.5539 8.26644 45.5539 8.82964ZM44.662 8.85684C44.662 8.50884 44.5849 8.21044 44.4315 7.96164C44.251 7.66084 43.9941 7.51044 43.6602 7.51044C43.3148 7.51044 43.0522 7.66084 42.8717 7.96164C42.7174 8.21044 42.6411 8.51364 42.6411 8.87204C42.6411 9.22004 42.7182 9.51844 42.8717 9.76724C43.0579 10.068 43.3172 10.2184 43.652 10.2184C43.9802 10.2184 44.2378 10.0656 44.4233 9.75924C44.5824 9.50564 44.662 9.20484 44.662 8.85684Z" fill="white"/>
<path d="M51.9986 6.9751L50.7884 10.7463H50.0007L49.4993 9.1087C49.3722 8.6999 49.2688 8.2935 49.1884 7.8903H49.1728C49.0981 8.3047 48.9947 8.7103 48.8618 9.1087L48.3293 10.7463H47.5326L46.3945 6.9751H47.2782L47.7156 8.7679C47.8214 9.1919 47.9084 9.5959 47.9781 9.9783H47.9937C48.0577 9.6631 48.1636 9.2615 48.3129 8.7759L48.8618 6.9759H49.5625L50.0885 8.7375C50.2157 9.1671 50.319 9.5807 50.3986 9.9791H50.4224C50.4807 9.5911 50.5685 9.1775 50.685 8.7375L51.1543 6.9759H51.9986V6.9751Z" fill="white"/>
<path d="M56.4568 10.7464H55.5969V8.5864C55.5969 7.9208 55.3376 7.588 54.8174 7.588C54.5622 7.588 54.3562 7.6792 54.1962 7.8624C54.0379 8.0456 53.9575 8.2616 53.9575 8.5088V10.7456H53.0976V8.0528C53.0976 7.7216 53.0869 7.3624 53.0664 6.9736H53.8221L53.8623 7.5632H53.8861C53.9862 7.38 54.1355 7.2288 54.3316 7.108C54.5647 6.9672 54.8256 6.896 55.1111 6.896C55.4721 6.896 55.7725 7.0096 56.0112 7.2376C56.3082 7.5168 56.4568 7.9336 56.4568 8.4872V10.7464Z" fill="white"/>
<path d="M58.8278 10.7462H57.9688V5.24463H58.8278V10.7462Z" fill="white"/>
<path d="M63.8899 8.82964C63.8899 9.40964 63.72 9.88484 63.3803 10.2576C63.0242 10.6408 62.5516 10.832 61.9633 10.832C61.3947 10.832 60.9426 10.6488 60.6062 10.2808C60.2698 9.91364 60.1016 9.45044 60.1016 8.89204C60.1016 8.30804 60.2747 7.82884 60.6226 7.45684C60.9705 7.08484 61.4382 6.89844 62.0265 6.89844C62.5951 6.89844 63.0505 7.08164 63.3967 7.44884C63.7249 7.80564 63.8899 8.26644 63.8899 8.82964ZM62.9972 8.85684C62.9972 8.50884 62.92 8.21044 62.7666 7.96164C62.5869 7.66084 62.3293 7.51044 61.9961 7.51044C61.6499 7.51044 61.3873 7.66084 61.2076 7.96164C61.0534 8.21044 60.9771 8.51364 60.9771 8.87204C60.9771 9.22004 61.0542 9.51844 61.2076 9.76724C61.3939 10.068 61.6532 10.2184 61.9879 10.2184C62.3161 10.2184 62.5729 10.0656 62.7584 9.75924C62.9184 9.50564 62.9972 9.20484 62.9972 8.85684Z" fill="white"/>
<path d="M68.0504 10.7464H67.2783L67.2143 10.312H67.1905C66.9263 10.6584 66.5497 10.832 66.0606 10.832C65.6955 10.832 65.4001 10.7176 65.1778 10.4904C64.9759 10.284 64.875 10.0272 64.875 9.72244C64.875 9.26164 65.0719 8.91044 65.4682 8.66724C65.8637 8.42404 66.42 8.30484 67.1363 8.31044V8.24004C67.1363 7.74324 66.8688 7.49524 66.3331 7.49524C65.9515 7.49524 65.6151 7.58884 65.3246 7.77444L65.1499 7.22404C65.5093 7.00724 65.9532 6.89844 66.4766 6.89844C67.4875 6.89844 67.9946 7.41844 67.9946 8.45844V9.84724C67.9946 10.224 68.0135 10.524 68.0504 10.7464ZM67.1577 9.45044V8.86884C66.2092 8.85284 65.7349 9.10644 65.7349 9.62884C65.7349 9.82564 65.7891 9.97284 65.8998 10.0712C66.0106 10.1696 66.1517 10.2184 66.3199 10.2184C66.5086 10.2184 66.6851 10.16 66.8459 10.044C67.0075 9.92724 67.1068 9.77924 67.1437 9.59764C67.1527 9.55684 67.1577 9.50724 67.1577 9.45044Z" fill="white"/>
<path d="M72.9384 10.7462H72.1753L72.1351 10.1406H72.1113C71.8676 10.6014 71.4524 10.8318 70.8691 10.8318C70.403 10.8318 70.0149 10.6534 69.7072 10.2966C69.3995 9.93983 69.2461 9.47663 69.2461 8.90783C69.2461 8.29743 69.4127 7.80303 69.7474 7.42543C70.0715 7.07343 70.4687 6.89743 70.9413 6.89743C71.4606 6.89743 71.8241 7.06783 72.0309 7.40943H72.0473V5.24463H72.908V9.73023C72.908 10.0974 72.9179 10.4358 72.9384 10.7462ZM72.0473 9.15583V8.52703C72.0473 8.41823 72.0391 8.33023 72.0235 8.26303C71.9751 8.06143 71.8709 7.89183 71.7125 7.75503C71.5525 7.61823 71.3597 7.54943 71.1374 7.54943C70.8165 7.54943 70.5655 7.67343 70.3809 7.92223C70.1979 8.17103 70.1052 8.48863 70.1052 8.87663C70.1052 9.24943 70.193 9.55183 70.3694 9.78463C70.5556 10.0326 70.8067 10.1566 71.121 10.1566C71.4032 10.1566 71.6289 10.0534 71.8003 9.84623C71.9661 9.65503 72.0473 9.42463 72.0473 9.15583Z" fill="white"/>
<path d="M80.2922 8.82964C80.2922 9.40964 80.1224 9.88484 79.7827 10.2576C79.4266 10.6408 78.9556 10.832 78.3657 10.832C77.7987 10.832 77.3466 10.6488 77.0085 10.2808C76.6721 9.91364 76.5039 9.45044 76.5039 8.89204C76.5039 8.30804 76.677 7.82884 77.0249 7.45684C77.3728 7.08484 77.8405 6.89844 78.4305 6.89844C78.9974 6.89844 79.4545 7.08164 79.7991 7.44884C80.1273 7.80564 80.2922 8.26644 80.2922 8.82964ZM79.4011 8.85684C79.4011 8.50884 79.324 8.21044 79.1706 7.96164C78.9892 7.66084 78.7332 7.51044 78.3985 7.51044C78.0539 7.51044 77.7913 7.66084 77.61 7.96164C77.4557 8.21044 77.3794 8.51364 77.3794 8.87204C77.3794 9.22004 77.4565 9.51844 77.61 9.76724C77.7962 10.068 78.0555 10.2184 78.3903 10.2184C78.7185 10.2184 78.9769 10.0656 79.1624 9.75924C79.3207 9.50564 79.4011 9.20484 79.4011 8.85684Z" fill="white"/>
<path d="M84.9169 10.7464H84.0578V8.5864C84.0578 7.9208 83.7985 7.588 83.2775 7.588C83.0223 7.588 82.8164 7.6792 82.6572 7.8624C82.498 8.0456 82.4184 8.2616 82.4184 8.5088V10.7456H81.5577V8.0528C81.5577 7.7216 81.5479 7.3624 81.5273 6.9736H82.2822L82.3224 7.5632H82.3462C82.4471 7.38 82.5965 7.2288 82.7918 7.108C83.0256 6.9672 83.2857 6.896 83.5721 6.896C83.9323 6.896 84.2326 7.0096 84.4713 7.2376C84.7692 7.5168 84.9169 7.9336 84.9169 8.4872V10.7464Z" fill="white"/>
<path d="M90.7033 7.60284H89.7565V9.43484C89.7565 9.90044 89.9247 10.1332 90.2578 10.1332C90.4121 10.1332 90.5401 10.1204 90.641 10.094L90.6631 10.73C90.4933 10.7924 90.2701 10.8236 89.9952 10.8236C89.6555 10.8236 89.3913 10.7228 89.2002 10.5212C89.0082 10.3196 88.913 9.98044 88.913 9.50444V7.60284H88.3477V6.97484H88.913V6.28364L89.7556 6.03564V6.97404H90.7025V7.60284H90.7033Z" fill="white"/>
<path d="M95.2537 10.7462H94.393V8.60223C94.393 7.92623 94.1337 7.58783 93.6143 7.58783C93.2156 7.58783 92.9432 7.78383 92.7938 8.17583C92.7684 8.25823 92.7536 8.35903 92.7536 8.47743V10.7454H91.8945V5.24463H92.7536V7.51743H92.77C93.0408 7.10383 93.4289 6.89743 93.9319 6.89743C94.288 6.89743 94.5825 7.01103 94.8164 7.23903C95.1077 7.52303 95.2537 7.94543 95.2537 8.50383V10.7462Z" fill="white"/>
<path d="M99.9505 8.68231C99.9505 8.83271 99.939 8.95911 99.9185 9.06231H97.3396C97.3511 9.43511 97.4742 9.71911 97.713 9.91591C97.9312 10.0919 98.2126 10.1799 98.5573 10.1799C98.9388 10.1799 99.2867 10.1207 99.6001 10.0015L99.7347 10.5839C99.3679 10.7391 98.9363 10.8167 98.4366 10.8167C97.8377 10.8167 97.3659 10.6447 97.0245 10.3007C96.6816 9.95671 96.5117 9.49511 96.5117 8.91591C96.5117 8.34711 96.6701 7.87351 96.9893 7.49591C97.3224 7.09271 97.7729 6.89111 98.3415 6.89111C98.8978 6.89111 99.3203 7.09271 99.6059 7.49591C99.8364 7.81591 99.9505 8.21191 99.9505 8.68231ZM99.13 8.46551C99.1365 8.21671 99.0799 8.00231 98.9634 7.82151C98.8141 7.58871 98.5868 7.47191 98.2791 7.47191C97.9985 7.47191 97.7696 7.58551 97.5948 7.81351C97.452 7.99511 97.3675 8.21191 97.3396 8.46551H99.13Z" fill="white"/>
<path d="M44.5153 25.203H42.652L41.6312 22.0758H38.0833L37.111 25.203H35.2969L38.812 14.5566H40.983L44.5153 25.203ZM41.3235 20.7638L40.4005 17.9838C40.3028 17.6998 40.1198 17.031 39.8499 15.9782H39.8171C39.7096 16.431 39.5365 17.0998 39.2985 17.9838L38.3918 20.7638H41.3235Z" fill="white"/>
<path d="M53.555 21.2703C53.555 22.5759 53.1932 23.6079 52.4695 24.3655C51.8213 25.0399 51.0163 25.3767 50.0555 25.3767C49.0184 25.3767 48.2734 25.0135 47.8196 24.2871H47.7868V28.3311H46.0375V20.0535C46.0375 19.2327 46.0153 18.3903 45.9727 17.5263H47.5111L47.6088 18.7431H47.6416C48.225 17.8263 49.1103 17.3687 50.2984 17.3687C51.2272 17.3687 52.0026 17.7263 52.6229 18.4423C53.2449 19.1591 53.555 20.1015 53.555 21.2703ZM51.7729 21.3327C51.7729 20.5855 51.6006 19.9695 51.2543 19.4847C50.876 18.9791 50.3681 18.7263 49.7314 18.7263C49.2998 18.7263 48.9076 18.8671 48.5573 19.1447C48.2061 19.4247 47.9763 19.7903 47.8689 20.2431C47.8147 20.4543 47.7876 20.6271 47.7876 20.7631V22.0431C47.7876 22.6015 47.9632 23.0727 48.3144 23.4575C48.6656 23.8423 49.1218 24.0343 49.683 24.0343C50.3419 24.0343 50.8547 23.7863 51.2215 23.2919C51.5891 22.7967 51.7729 22.1439 51.7729 21.3327Z" fill="white"/>
<path d="M62.6128 21.2703C62.6128 22.5759 62.2509 23.6079 61.5264 24.3655C60.879 25.0399 60.0741 25.3767 59.1133 25.3767C58.0762 25.3767 57.3311 25.0135 56.8782 24.2871H56.8454V28.3311H55.0961V20.0535C55.0961 19.2327 55.0739 18.3903 55.0312 17.5263H56.5697L56.6674 18.7431H56.7002C57.2827 17.8263 58.1681 17.3687 59.357 17.3687C60.285 17.3687 61.0604 17.7263 61.6823 18.4423C62.3018 19.1591 62.6128 20.1015 62.6128 21.2703ZM60.8306 21.3327C60.8306 20.5855 60.6575 19.9695 60.3112 19.4847C59.933 18.9791 59.4267 18.7263 58.7892 18.7263C58.3568 18.7263 57.9654 18.8671 57.6142 19.1447C57.263 19.4247 57.0341 19.7903 56.9266 20.2431C56.8733 20.4543 56.8454 20.6271 56.8454 20.7631V22.0431C56.8454 22.6015 57.021 23.0727 57.3705 23.4575C57.7217 23.8415 58.1779 24.0343 58.7408 24.0343C59.3997 24.0343 59.9125 23.7863 60.2793 23.2919C60.6468 22.7967 60.8306 22.1439 60.8306 21.3327Z" fill="white"/>
<path d="M72.7351 22.2177C72.7351 23.1233 72.4126 23.8601 71.7652 24.4289C71.0539 25.0505 70.0635 25.3609 68.7909 25.3609C67.6159 25.3609 66.674 25.1401 65.9609 24.6977L66.3663 23.2761C67.1343 23.7289 67.9769 23.9561 68.8951 23.9561C69.554 23.9561 70.0668 23.8105 70.4352 23.5209C70.802 23.2313 70.9849 22.8425 70.9849 22.3577C70.9849 21.9257 70.834 21.5617 70.5312 21.2665C70.2301 20.9713 69.7271 20.6969 69.0247 20.4433C67.1129 19.7481 66.1579 18.7297 66.1579 17.3905C66.1579 16.5153 66.4926 15.7977 67.163 15.2393C67.8309 14.6801 68.722 14.4009 69.8362 14.4009C70.8299 14.4009 71.6553 14.5697 72.3142 14.9065L71.8768 16.2969C71.2614 15.9705 70.5657 15.8073 69.787 15.8073C69.1716 15.8073 68.6908 15.9553 68.3462 16.2497C68.0549 16.5129 67.9088 16.8337 67.9088 17.2137C67.9088 17.6345 68.0754 17.9825 68.4102 18.2561C68.7014 18.5089 69.2307 18.7825 69.9987 19.0777C70.9382 19.4465 71.6282 19.8777 72.0721 20.3721C72.5144 20.8649 72.7351 21.4817 72.7351 22.2177Z" fill="white"/>
<path d="M78.5216 18.8066H76.5934V22.5338C76.5934 23.4818 76.9331 23.9554 77.6142 23.9554C77.9268 23.9554 78.186 23.929 78.3912 23.8762L78.4396 25.1714C78.095 25.297 77.6412 25.3602 77.0792 25.3602C76.3883 25.3602 75.8484 25.1546 75.4587 24.7442C75.0706 24.333 74.8753 23.6434 74.8753 22.6746V18.805H73.7266V17.525H74.8753V16.1194L76.5934 15.6138V17.525H78.5216V18.8066Z" fill="white"/>
<path d="M87.2198 21.3016C87.2198 22.4816 86.8736 23.4504 86.1827 24.208C85.4582 24.988 84.4965 25.3768 83.2978 25.3768C82.1425 25.3768 81.2227 25.0032 80.5367 24.256C79.8508 23.5088 79.5078 22.5656 79.5078 21.4288C79.5078 20.2392 79.8606 19.2648 80.5687 18.5072C81.2752 17.7488 82.2286 17.3696 83.4274 17.3696C84.5827 17.3696 85.5123 17.7432 86.2139 18.4912C86.885 19.2168 87.2198 20.1536 87.2198 21.3016ZM85.4048 21.3568C85.4048 20.6488 85.2498 20.0416 84.9355 19.5352C84.5687 18.9224 84.0444 18.6168 83.365 18.6168C82.6619 18.6168 82.1277 18.9232 81.7609 19.5352C81.4467 20.0424 81.2916 20.6592 81.2916 21.3888C81.2916 22.0968 81.4467 22.704 81.7609 23.2096C82.1392 23.8224 82.6676 24.128 83.3495 24.128C84.0174 24.128 84.5417 23.816 84.9199 23.1936C85.2424 22.6776 85.4048 22.064 85.4048 21.3568Z" fill="white"/>
<path d="M92.9078 19.0263C92.7347 18.9951 92.5501 18.9791 92.3565 18.9791C91.7411 18.9791 91.2652 19.2055 90.9304 19.6591C90.6391 20.0591 90.4931 20.5647 90.4931 21.1751V25.2031H88.7445L88.761 19.9439C88.761 19.0591 88.7388 18.2535 88.6953 17.5271H90.219L90.283 18.9959H90.3314C90.516 18.4911 90.8073 18.0847 91.2061 17.7799C91.5958 17.5055 92.0168 17.3687 92.4705 17.3687C92.6321 17.3687 92.7782 17.3799 92.9078 17.3999V19.0263Z" fill="white"/>
<path d="M100.728 21.0017C100.728 21.3073 100.707 21.5649 100.664 21.7753H95.4158C95.4363 22.5337 95.6899 23.1137 96.1772 23.5137C96.6195 23.8713 97.1914 24.0505 97.8937 24.0505C98.6708 24.0505 99.3797 23.9297 100.017 23.6873L100.291 24.8713C99.5463 25.1881 98.6667 25.3457 97.6517 25.3457C96.4308 25.3457 95.4724 24.9953 94.775 24.2953C94.0792 23.5953 93.7305 22.6553 93.7305 21.4761C93.7305 20.3185 94.0546 19.3545 94.7036 18.5857C95.383 17.7649 96.3011 17.3545 97.4564 17.3545C98.5912 17.3545 99.4503 17.7649 100.034 18.5857C100.496 19.2377 100.728 20.0441 100.728 21.0017ZM99.0597 20.5593C99.0712 20.0537 98.9571 19.6169 98.72 19.2481C98.4172 18.7737 97.952 18.5369 97.326 18.5369C96.7541 18.5369 96.2888 18.7681 95.9335 19.2321C95.6423 19.6009 95.4691 20.0433 95.4158 20.5585H99.0597V20.5593Z" fill="white"/>
</svg>
