<svg width="86" height="86" viewBox="0 0 86 86" fill="none" xmlns="http://www.w3.org/2000/svg">
<path d="M61.3963 6.98272L61.3968 6.98265C64.7878 6.49603 67.7895 7.0713 70.1574 8.5816C72.5274 10.0932 74.0963 12.4371 74.7939 15.1737C76.0694 20.1762 74.6787 24.1729 73.474 27.6352C73.2432 28.2984 73.0193 28.942 72.8222 29.5694C71.2089 34.707 70.8291 36.8078 71.4681 38.9155C71.8009 40.0131 72.4517 41.2288 73.6222 42.9128C74.7223 44.4954 76.194 46.3716 78.1443 48.858C78.2757 49.0255 78.4092 49.1957 78.545 49.3689C83.9269 56.2322 84.7537 64.0614 81.0264 70.1728C77.3313 76.2314 69.54 79.9788 58.9726 79.6356L58.9558 79.635L58.939 79.6342C57.6105 79.5687 56.4062 79.5037 55.3005 79.444C47.7111 79.0342 44.7677 78.8752 38.1899 80.5382C37.3843 80.742 36.3775 81.0278 35.2423 81.35C32.547 82.1151 29.1274 83.0858 25.956 83.6529C16.0769 85.4214 5.27545 80.3771 2.80956 68.4681C1.17871 60.5957 3.78908 55.0994 7.32208 49.2807L61.3963 6.98272ZM61.3963 6.98272C59.9817 7.18609 58.7502 7.44736 57.6247 7.68614M61.3963 6.98272L57.6247 7.68614M57.6247 7.68614C54.1225 8.42917 51.6469 8.95437 47.8769 6.83895M57.6247 7.68614L47.8769 6.83895M47.8769 6.83895C36.5417 0.476759 28.3351 0.829287 23.0158 5.3275C17.9434 9.61689 16.3122 17.0675 16.516 23.0885L47.8769 6.83895ZM14.0386 38.9337C15.6791 35.566 16.7871 31.1245 16.516 23.0888L14.0386 38.9337ZM14.0386 38.9337C13.2016 40.6521 12.1967 42.1523 11.0437 43.7866M14.0386 38.9337L11.0437 43.7866M11.0437 43.7866C10.8539 44.0556 10.6595 44.3291 10.4614 44.6077M11.0437 43.7866L10.4614 44.6077M10.4614 44.6077C9.47218 45.9991 8.39042 47.5207 7.32221 49.2805L10.4614 44.6077Z" fill="#FFECF5" stroke="#FFECF5" stroke-width="4"/>
<g clip-path="url(#clip0_16414_36193)">
<path d="M79.2549 28.6924C75.8816 28.6924 73.1216 31.4234 73.1216 34.7613C73.1216 38.0993 75.8816 40.8303 79.2549 40.8303C82.6282 40.8303 85.3882 38.0993 85.3882 34.7613C85.3882 31.4234 82.6282 28.6924 79.2549 28.6924ZM81.5549 34.0786C81.4016 34.1545 81.2482 34.2303 81.0949 34.2303C80.8649 34.2303 80.6349 34.0786 80.4816 33.9269C80.1749 33.5476 79.7149 33.2441 79.2549 33.2441C78.7949 33.2441 78.4882 32.9407 78.4882 32.4855C78.4882 32.0303 78.7949 31.7269 79.2549 31.7269C80.2516 31.7269 81.1716 32.182 81.7849 33.0165C82.0149 33.3958 81.9382 33.851 81.5549 34.0786Z" fill="#FFECF5"/>
<path d="M69.2884 28.6917C67.1417 28.6917 65.4551 27.0227 65.4551 24.8986C65.4551 22.7744 67.1417 21.1055 69.2884 21.1055C71.4351 21.1055 73.1217 22.7744 73.1217 24.8986C73.1217 27.0227 71.4351 28.6917 69.2884 28.6917Z" fill="#FFECF5"/>
<path d="M66.6048 37.7954C64.6881 37.7954 63.1548 36.2781 63.1548 34.3816C63.1548 32.485 64.6881 30.9678 66.6048 30.9678C68.5215 30.9678 70.0548 32.485 70.0548 34.3816C70.0548 36.2781 68.5215 37.7954 66.6048 37.7954Z" fill="#FFECF5"/>
<path d="M76.9547 23.382C76.4947 23.382 76.188 23.0785 76.188 22.6233V20.3475C76.188 19.8923 76.4947 19.5889 76.9547 19.5889C77.4147 19.5889 77.7213 19.8923 77.7213 20.3475V22.6233C77.7213 23.0785 77.4147 23.382 76.9547 23.382Z" fill="#FFECF5"/>
<path d="M82.3215 26.4167H80.0215C79.5615 26.4167 79.2549 26.1132 79.2549 25.658C79.2549 25.2029 79.5615 24.8994 80.0215 24.8994H82.3215C82.7815 24.8994 83.0882 25.2029 83.0882 25.658C83.0882 26.1132 82.7815 26.4167 82.3215 26.4167Z" fill="#FFECF5"/>
<path d="M79.1016 24.292C78.8716 24.292 78.7183 24.2161 78.565 24.0644C78.2583 23.761 78.2583 23.3058 78.565 23.0023L80.175 21.4092C80.4816 21.1058 80.9416 21.1058 81.2483 21.4092C81.555 21.7127 81.555 22.1678 81.2483 22.4713L79.6383 24.0644C79.485 24.2161 79.3316 24.292 79.1016 24.292Z" fill="#FFECF5"/>
</g>
<path d="M49.791 36.8496V56.7734H55.9886V37.5875C55.9886 37.1817 55.6788 36.8496 55.3 36.8496H49.791ZM52.5455 54.5596C52.5455 54.9655 52.2356 55.2976 51.8569 55.2976C51.4781 55.2976 51.1683 54.9655 51.1683 54.5596V52.4494C51.1683 52.0435 51.4781 51.7115 51.8569 51.7115C52.2356 51.7115 52.5455 52.0435 52.5455 52.4494V54.5596ZM52.5455 50.3463C52.5455 50.7521 52.2356 51.0842 51.8569 51.0842C51.4781 51.0842 51.1683 50.7521 51.1683 50.3463V48.236C51.1683 47.8301 51.4781 47.4981 51.8569 47.4981C52.2356 47.4981 52.5455 47.8301 52.5455 48.236V50.3463ZM52.5455 46.1253C52.5455 46.5311 52.2356 46.8632 51.8569 46.8632C51.4781 46.8632 51.1683 46.5311 51.1683 46.1253V44.0147C51.1683 43.6088 51.4781 43.2768 51.8569 43.2768C52.2356 43.2768 52.5455 43.6088 52.5455 44.0147V46.1253ZM52.5455 41.9116C52.5455 42.3174 52.2356 42.6495 51.8569 42.6495C51.4781 42.6495 51.1683 42.3174 51.1683 41.9116V39.8013C51.1683 39.3954 51.4781 39.0634 51.8569 39.0634C52.2356 39.0634 52.5455 39.3954 52.5455 39.8013V41.9116Z" fill="#FF008A"/>
<path d="M28.4424 37.5875V56.7734H34.64V36.8496H29.131C28.7523 36.8496 28.4424 37.1817 28.4424 37.5875ZM31.8855 39.8013C31.8855 39.3954 32.1954 39.0634 32.5741 39.0634C32.9529 39.0634 33.2628 39.3954 33.2628 39.8013V41.9116C33.2628 42.3174 32.9529 42.6495 32.5741 42.6495C32.1954 42.6495 31.8855 42.3174 31.8855 41.9116V39.8013ZM31.8855 44.0147C31.8855 43.6088 32.1954 43.2768 32.5741 43.2768C32.9529 43.2768 33.2628 43.6088 33.2628 44.0147V46.1253C33.2628 46.5311 32.9529 46.8632 32.5741 46.8632C32.1954 46.8632 31.8855 46.5311 31.8855 46.1253V44.0147ZM31.8855 48.2356C31.8855 47.8298 32.1954 47.4977 32.5741 47.4977C32.9529 47.4977 33.2628 47.8298 33.2628 48.2356V50.3459C33.2628 50.7518 32.9529 51.0838 32.5741 51.0838C32.1954 51.0838 31.8855 50.7518 31.8855 50.3459V48.2356ZM31.8855 52.4494C31.8855 52.0435 32.1954 51.7115 32.5741 51.7115C32.9529 51.7115 33.2628 52.0435 33.2628 52.4494V54.5596C33.2628 54.9655 32.9529 55.2976 32.5741 55.2976C32.1954 55.2976 31.8855 54.9655 31.8855 54.5596V52.4494Z" fill="#FF008A"/>
<path d="M58.0544 57.5107H26.3776C25.9973 57.5107 25.689 57.8408 25.689 58.2487V61.2003C25.689 61.6082 25.9973 61.9383 26.3776 61.9383H58.0544C58.4347 61.9383 58.743 61.6082 58.743 61.2003V58.2487C58.743 57.8408 58.4347 57.5107 58.0544 57.5107Z" fill="#FF008A"/>
<path d="M49.1016 56.7734V31.6842C49.1016 31.2784 48.7917 30.9463 48.413 30.9463H36.0177C35.639 30.9463 35.3291 31.2784 35.3291 31.6842V56.7734H39.4609V52.3459C39.4609 51.9381 39.7692 51.608 40.1495 51.608H44.2812C44.6615 51.608 44.9699 51.9381 44.9699 52.3459V56.7734H49.1016ZM40.1495 48.6563C40.1495 49.0622 39.8396 49.3942 39.4609 49.3942C39.0821 49.3942 38.7722 49.0622 38.7722 48.6563V46.546C38.7722 46.1402 39.0821 45.8081 39.4609 45.8081C39.8396 45.8081 40.1495 46.1402 40.1495 46.546V48.6563ZM40.1495 44.4429C40.1495 44.8488 39.8396 45.1809 39.4609 45.1809C39.0821 45.1809 38.7722 44.8488 38.7722 44.4429V42.3327C38.7722 41.9268 39.0821 41.5947 39.4609 41.5947C39.8396 41.5947 40.1495 41.9268 40.1495 42.3327V44.4429ZM40.1495 40.222C40.1495 40.6278 39.8396 40.9599 39.4609 40.9599C39.0821 40.9599 38.7722 40.6278 38.7722 40.222V38.1113C38.7722 37.7055 39.0821 37.3734 39.4609 37.3734C39.8396 37.3734 40.1495 37.7055 40.1495 38.1113V40.222ZM40.1495 36.0082C40.1495 36.4141 39.8396 36.7462 39.4609 36.7462C39.0821 36.7462 38.7722 36.4141 38.7722 36.0082V33.898C38.7722 33.4921 39.0821 33.16 39.4609 33.16C39.8396 33.16 40.1495 33.4921 40.1495 33.898V36.0082ZM42.904 48.6566C42.904 49.0624 42.5941 49.3945 42.2154 49.3945C41.8366 49.3945 41.5267 49.0624 41.5267 48.6566V46.5463C41.5267 46.1404 41.8366 45.8084 42.2154 45.8084C42.5941 45.8084 42.904 46.1404 42.904 46.5463V48.6566ZM42.904 44.4432C42.904 44.849 42.5941 45.1811 42.2154 45.1811C41.8366 45.1811 41.5267 44.849 41.5267 44.4432V42.3329C41.5267 41.9271 41.8366 41.595 42.2154 41.595C42.5941 41.595 42.904 41.9271 42.904 42.3329V44.4432ZM42.904 40.2222C42.904 40.6281 42.5941 40.9601 42.2154 40.9601C41.8366 40.9601 41.5267 40.6281 41.5267 40.2222V38.1116C41.5267 37.7057 41.8366 37.3737 42.2154 37.3737C42.5941 37.3737 42.904 37.7057 42.904 38.1116V40.2222ZM42.904 36.0085C42.904 36.4143 42.5941 36.7464 42.2154 36.7464C41.8366 36.7464 41.5267 36.4143 41.5267 36.0085V33.8982C41.5267 33.4924 41.8366 33.1603 42.2154 33.1603C42.5941 33.1603 42.904 33.4924 42.904 33.8982V36.0085ZM44.2812 33.8982C44.2812 33.4924 44.5911 33.1603 44.9699 33.1603C45.3486 33.1603 45.6585 33.4924 45.6585 33.8982V36.0085C45.6585 36.4143 45.3486 36.7464 44.9699 36.7464C44.5911 36.7464 44.2812 36.4143 44.2812 36.0085V33.8982ZM44.2812 38.1116C44.2812 37.7057 44.5911 37.3737 44.9699 37.3737C45.3486 37.3737 45.6585 37.7057 45.6585 38.1116V40.2222C45.6585 40.6281 45.3486 40.9601 44.9699 40.9601C44.5911 40.9601 44.2812 40.6281 44.2812 40.2222V38.1116ZM44.2812 42.3326C44.2812 41.9267 44.5911 41.5947 44.9699 41.5947C45.3486 41.5947 45.6585 41.9267 45.6585 42.3326V44.4429C45.6585 44.8487 45.3486 45.1808 44.9699 45.1808C44.5911 45.1808 44.2812 44.8487 44.2812 44.4429V42.3326ZM44.2812 48.6566V46.5463C44.2812 46.1404 44.5911 45.8084 44.9699 45.8084C45.3486 45.8084 45.6585 46.1404 45.6585 46.5463V48.6566C45.6585 49.0624 45.3486 49.3945 44.9699 49.3945C44.5911 49.3945 44.2812 49.0624 44.2812 48.6566Z" fill="#FF008A"/>
<path d="M33.9518 32.4216H34.6404V31.6837C34.6404 30.872 35.2602 30.2079 36.0177 30.2079H48.413C49.1704 30.2079 49.7902 30.872 49.7902 31.6837V32.4216H50.4788C50.8576 32.4216 51.1675 32.0896 51.1675 31.6837V28.7321C51.1675 28.3262 50.8576 27.9941 50.4788 27.9941H33.9518C33.5731 27.9941 33.2632 28.3262 33.2632 28.7321V31.6837C33.2632 32.0896 33.5731 32.4216 33.9518 32.4216Z" fill="#FF008A"/>
<path d="M34.6411 33.8975H26.3776C25.9988 33.8975 25.689 34.2295 25.689 34.6354V37.5871C25.689 37.9929 25.9988 38.325 26.3776 38.325H27.7548V37.5871C27.7548 36.7753 28.3746 36.1112 29.1321 36.1112H34.6411V33.8975Z" fill="#FF008A"/>
<path d="M49.791 36.1112H55.3C56.0575 36.1112 56.6773 36.7753 56.6773 37.5871V38.325H58.0545C58.4333 38.325 58.7432 37.9929 58.7432 37.5871V34.6354C58.7432 34.2295 58.4333 33.8975 58.0545 33.8975H49.791V36.1112Z" fill="#FF008A"/>
<path d="M27.7545 30.946C27.7545 31.3538 28.0629 31.6839 28.4431 31.6839C28.8234 31.6839 29.1318 31.3538 29.1318 30.946C29.1318 29.7251 30.0583 28.7322 31.1976 28.7322C31.5779 28.7322 31.8863 28.4021 31.8863 27.9943C31.8863 27.5865 31.5779 27.2564 31.1976 27.2564C30.0583 27.2564 29.1318 26.2635 29.1318 25.0426C29.1318 24.6348 28.8234 24.3047 28.4431 24.3047C28.0629 24.3047 27.7545 24.6348 27.7545 25.0426C27.7545 26.2635 26.828 27.2564 25.6886 27.2564C25.3083 27.2564 25 27.5865 25 27.9943C25 28.4021 25.3083 28.7322 25.6886 28.7322C26.828 28.7322 27.7545 29.7251 27.7545 30.946ZM28.4431 27.2541C28.6396 27.5344 28.8726 27.7838 29.1339 27.9943C28.8726 28.2048 28.6396 28.4542 28.4431 28.7345C28.2467 28.4542 28.0137 28.2048 27.7524 27.9943C28.0137 27.7838 28.2467 27.5344 28.4431 27.2541Z" fill="#FF008A"/>
<path d="M63.5629 52.3452C62.4235 52.3452 61.497 51.3524 61.497 50.1315C61.497 49.7236 61.1886 49.3936 60.8084 49.3936C60.4281 49.3936 60.1197 49.7236 60.1197 50.1315C60.1197 51.3524 59.1932 52.3452 58.0539 52.3452C57.6736 52.3452 57.3652 52.6753 57.3652 53.0831C57.3652 53.491 57.6736 53.8211 58.0539 53.8211C59.1932 53.8211 60.1197 54.8139 60.1197 56.0348C60.1197 56.4426 60.4281 56.7727 60.8084 56.7727C61.1886 56.7727 61.497 56.4426 61.497 56.0348C61.497 54.8139 62.4235 53.8211 63.5629 53.8211C63.9431 53.8211 64.2515 53.491 64.2515 53.0831C64.2515 52.6753 63.9431 52.3452 63.5629 52.3452ZM60.8084 53.8233C60.6119 53.543 60.3789 53.2936 60.1176 53.0831C60.3789 52.8726 60.6119 52.6232 60.8084 52.3429C61.0048 52.6232 61.2378 52.8726 61.4991 53.0831C61.2378 53.2936 61.0048 53.543 60.8084 53.8233Z" fill="#FF008A"/>
<defs>
<clipPath id="clip0_16414_36193">
<rect width="23" height="22" fill="white" transform="translate(62.6875 19.1523)"/>
</clipPath>
</defs>
</svg>
