<svg width="188" height="140" viewBox="0 0 188 140" fill="none" xmlns="http://www.w3.org/2000/svg">
<g clip-path="url(#clip0_15707_1431)">
<path d="M173.979 31.6937C166.559 24.853 158.669 18.126 148.299 16.7356C139.031 15.5006 129.666 18.3335 121.797 23.1399C113.23 28.377 106.578 36.4151 101.942 45.2479C99.557 49.7915 97.637 54.5495 96.0953 59.4418C95.3398 61.8724 94.665 64.3397 94.0707 66.8128C93.4764 69.2859 92.8699 71.7963 93.1675 74.3454C93.4322 76.5232 94.6067 78.6284 96.5498 79.7082C98.6047 80.8556 101.016 80.3173 102.948 79.1685C107.312 76.5712 110.177 71.3194 111.794 66.6372C114.937 57.5828 114.17 45.3103 105.794 39.2172C97.418 33.1242 85.9851 35.8869 77.7401 41.0543C69.4951 46.2217 61.655 54.3648 55.5232 62.4189C43.8807 77.7005 36.1845 95.9958 33.8969 115.106C33.6054 117.472 33.4254 119.844 33.3259 122.222C33.2034 124.953 38.0845 121.783 38.1988 119.895C39.1794 103.106 44.0253 86.7817 52.7129 72.3445C57.0045 65.2221 62.1467 58.5845 68.1042 52.7909C74.5236 46.5308 82.2548 40.134 91.715 40.2784C95.9685 40.3438 100.217 41.8082 103.253 44.8636C106.289 47.919 108.083 52.4108 108.557 56.841C109.031 61.2712 108.273 65.6272 106.603 69.6225C105.887 71.3347 104.985 73.0169 103.86 74.5022C103.337 75.1858 102.876 75.8382 101.96 75.8366C100.876 75.842 99.9317 75.11 99.2653 74.3148C96.5248 71.0164 98.6027 65.651 99.5812 62.0058C100.76 57.623 102.224 53.3131 104.042 49.1499C107.378 41.5185 112.108 34.1896 118.718 28.9809C125.649 23.5167 134.623 20.432 143.454 21.0811C154.02 21.8452 162.115 28.7631 169.591 35.5912C171.145 37.0073 175.391 33.0115 173.954 31.6753L173.966 31.669L173.979 31.6937Z" fill="#242B3A"/>
<path d="M46.8418 106.504L39.1849 121.537L35.4943 128.774C34.4644 130.785 33.5857 133.34 31.7729 134.785L34.6831 133.669C32.5474 132.454 31.5989 129.722 30.6905 127.591C29.6693 125.175 28.7469 122.71 27.8121 120.251C25.9363 115.32 24.0527 110.067 20.8431 105.812C19.6278 104.208 15.4554 107.95 16.4796 109.727C19.3648 114.721 21.5266 119.88 23.5656 125.256C24.5755 127.894 25.5731 130.539 26.7808 133.108C27.7633 135.202 28.8124 136.998 30.8675 138.176C31.7366 138.667 33.1796 137.533 33.7777 137.06C36.0222 135.272 37.3967 132.838 38.6779 130.312C40.0941 127.531 41.5102 124.751 42.9387 121.964L51.4415 105.262C52.0239 104.114 51.0856 103.425 50.0158 103.672C48.5874 104.007 47.4732 105.269 46.8357 106.523L46.8418 106.504Z" fill="#242B3A"/>
</g>
<defs>
<clipPath id="clip0_15707_1431">
<rect width="177.203" height="66.1414" fill="white" transform="translate(187.972 59.21) rotate(153.147)"/>
</clipPath>
</defs>
</svg>
