<svg width="24" height="25" viewBox="0 0 24 25" fill="none" xmlns="http://www.w3.org/2000/svg">
<path d="M20.97 19.6757C20.97 20.0357 20.89 20.4057 20.72 20.7657C20.55 21.1257 20.33 21.4657 20.04 21.7857C19.55 22.3257 19.01 22.7157 18.4 22.9657C17.8 23.2157 17.15 23.3457 16.45 23.3457C15.43 23.3457 14.34 23.1057 13.19 22.6157C12.04 22.1257 10.89 21.4657 9.75 20.6357C8.6 19.7957 7.51 18.8657 6.47 17.8357C5.44 16.7957 4.51 15.7057 3.68 14.5657C2.86 13.4257 2.2 12.2857 1.72 11.1557C1.24 10.0157 1 8.9257 1 7.8857C1 7.2057 1.12 6.5557 1.36 5.9557C1.6 5.3457 1.98 4.7857 2.51 4.2857C3.15 3.6557 3.85 3.3457 4.59 3.3457C4.87 3.3457 5.15 3.4057 5.4 3.5257C5.66 3.6457 5.89 3.8257 6.07 4.0857L8.39 7.3557C8.57 7.6057 8.7 7.8357 8.79 8.0557C8.88 8.2657 8.93 8.4757 8.93 8.6657C8.93 8.9057 8.86 9.1457 8.72 9.3757C8.59 9.6057 8.4 9.8457 8.16 10.0857L7.4 10.8757C7.29 10.9857 7.24 11.1157 7.24 11.2757C7.24 11.3557 7.25 11.4257 7.27 11.5057C7.3 11.5857 7.33 11.6457 7.35 11.7057C7.53 12.0357 7.84 12.4657 8.28 12.9857C8.73 13.5057 9.21 14.0357 9.73 14.5657C10.27 15.0957 10.79 15.5857 11.32 16.0357C11.84 16.4757 12.27 16.7757 12.61 16.9557C12.66 16.9757 12.72 17.0057 12.79 17.0357C12.87 17.0657 12.95 17.0757 13.04 17.0757C13.21 17.0757 13.34 17.0157 13.45 16.9057L14.21 16.1557C14.46 15.9057 14.7 15.7157 14.93 15.5957C15.16 15.4557 15.39 15.3857 15.64 15.3857C15.83 15.3857 16.03 15.4257 16.25 15.5157C16.47 15.6057 16.7 15.7357 16.95 15.9057L20.26 18.2557C20.52 18.4357 20.7 18.6457 20.81 18.8957C20.91 19.1457 20.97 19.3957 20.97 19.6757Z" stroke="#242B3A" stroke-width="1.8" stroke-miterlimit="10"/>
<path d="M17.5 10.3457C17.5 9.7457 17.03 8.8257 16.33 8.0757C15.69 7.3857 14.84 6.8457 14 6.8457" stroke="#242B3A" stroke-width="1.8" stroke-linecap="round" stroke-linejoin="round"/>
<path d="M21 10.3457C21 6.4757 17.87 3.3457 14 3.3457" stroke="#242B3A" stroke-width="1.8" stroke-linecap="round" stroke-linejoin="round"/>
</svg>
