<svg width="86" height="86" viewBox="0 0 86 86" fill="none" xmlns="http://www.w3.org/2000/svg">
<path d="M61.3963 6.98272L61.3968 6.98265C64.7878 6.49603 67.7895 7.0713 70.1574 8.5816C72.5274 10.0932 74.0963 12.4371 74.7939 15.1737C76.0694 20.1762 74.6787 24.1729 73.474 27.6352C73.2432 28.2984 73.0193 28.942 72.8222 29.5694C71.2089 34.707 70.8291 36.8078 71.4681 38.9155C71.8009 40.0131 72.4517 41.2288 73.6222 42.9128C74.7223 44.4954 76.194 46.3716 78.1443 48.858C78.2757 49.0255 78.4092 49.1957 78.545 49.3689C83.9269 56.2322 84.7537 64.0614 81.0264 70.1728C77.3313 76.2314 69.54 79.9788 58.9726 79.6356L58.9558 79.635L58.939 79.6342C57.6105 79.5687 56.4062 79.5037 55.3005 79.444C47.7111 79.0342 44.7677 78.8752 38.1899 80.5382C37.3843 80.742 36.3775 81.0278 35.2423 81.35C32.547 82.1151 29.1274 83.0858 25.956 83.6529C16.0769 85.4214 5.27545 80.3771 2.80956 68.4681C1.17871 60.5957 3.78908 55.0994 7.32208 49.2807L61.3963 6.98272ZM61.3963 6.98272C59.9817 7.18609 58.7502 7.44736 57.6247 7.68614M61.3963 6.98272L57.6247 7.68614M57.6247 7.68614C54.1225 8.42917 51.6469 8.95437 47.8769 6.83895M57.6247 7.68614L47.8769 6.83895M47.8769 6.83895C36.5417 0.476759 28.3351 0.829287 23.0158 5.3275C17.9434 9.61689 16.3122 17.0675 16.516 23.0885L47.8769 6.83895ZM14.0386 38.9337C15.6791 35.566 16.7871 31.1245 16.516 23.0888L14.0386 38.9337ZM14.0386 38.9337C13.2016 40.6521 12.1967 42.1523 11.0437 43.7866M14.0386 38.9337L11.0437 43.7866M11.0437 43.7866C10.8539 44.0556 10.6595 44.3291 10.4614 44.6077M11.0437 43.7866L10.4614 44.6077M10.4614 44.6077C9.47218 45.9991 8.39042 47.5207 7.32221 49.2805L10.4614 44.6077Z" fill="#FFECF5" stroke="#FFECF5" stroke-width="4"/>
<g clip-path="url(#clip0_16414_36364)">
<path d="M79.2549 28.6924C75.8816 28.6924 73.1216 31.4234 73.1216 34.7613C73.1216 38.0993 75.8816 40.8303 79.2549 40.8303C82.6282 40.8303 85.3882 38.0993 85.3882 34.7613C85.3882 31.4234 82.6282 28.6924 79.2549 28.6924ZM81.5549 34.0786C81.4016 34.1545 81.2482 34.2303 81.0949 34.2303C80.8649 34.2303 80.6349 34.0786 80.4816 33.9269C80.1749 33.5476 79.7149 33.2441 79.2549 33.2441C78.7949 33.2441 78.4882 32.9407 78.4882 32.4855C78.4882 32.0303 78.7949 31.7269 79.2549 31.7269C80.2516 31.7269 81.1716 32.182 81.7849 33.0165C82.0149 33.3958 81.9382 33.851 81.5549 34.0786Z" fill="#FFECF5"/>
<path d="M69.2882 28.6917C67.1415 28.6917 65.4548 27.0227 65.4548 24.8986C65.4548 22.7744 67.1415 21.1055 69.2882 21.1055C71.4348 21.1055 73.1215 22.7744 73.1215 24.8986C73.1215 27.0227 71.4348 28.6917 69.2882 28.6917Z" fill="#FFECF5"/>
<path d="M66.6048 37.7954C64.6881 37.7954 63.1548 36.2781 63.1548 34.3816C63.1548 32.485 64.6881 30.9678 66.6048 30.9678C68.5215 30.9678 70.0548 32.485 70.0548 34.3816C70.0548 36.2781 68.5215 37.7954 66.6048 37.7954Z" fill="#FFECF5"/>
<path d="M76.9549 23.382C76.4949 23.382 76.1882 23.0785 76.1882 22.6233V20.3475C76.1882 19.8923 76.4949 19.5889 76.9549 19.5889C77.4149 19.5889 77.7216 19.8923 77.7216 20.3475V22.6233C77.7216 23.0785 77.4149 23.382 76.9549 23.382Z" fill="#FFECF5"/>
<path d="M82.3215 26.4167H80.0215C79.5615 26.4167 79.2549 26.1132 79.2549 25.658C79.2549 25.2029 79.5615 24.8994 80.0215 24.8994H82.3215C82.7815 24.8994 83.0882 25.2029 83.0882 25.658C83.0882 26.1132 82.7815 26.4167 82.3215 26.4167Z" fill="#FFECF5"/>
<path d="M79.1016 24.292C78.8716 24.292 78.7183 24.2161 78.565 24.0644C78.2583 23.761 78.2583 23.3058 78.565 23.0023L80.175 21.4092C80.4816 21.1058 80.9416 21.1058 81.2483 21.4092C81.555 21.7127 81.555 22.1678 81.2483 22.4713L79.6383 24.0644C79.485 24.2161 79.3316 24.292 79.1016 24.292Z" fill="#FFECF5"/>
</g>
<path d="M41.4321 30.4822C42.9038 30.4822 44.097 29.2889 44.097 27.8173C44.097 26.3456 42.9031 25.1523 41.4321 25.1523C39.9601 25.1523 38.7678 26.3456 38.7678 27.8173C38.7678 29.2886 39.9601 30.4822 41.4321 30.4822ZM41.4321 26.4848C42.1669 26.4848 42.7646 27.0825 42.7646 27.8173C42.7646 28.552 42.1669 29.1497 41.4321 29.1497C40.6974 29.1497 40.0996 28.552 40.0996 27.8173C40.1 27.0825 40.6971 26.4848 41.4321 26.4848Z" fill="#FF008A"/>
<path d="M35.2144 32.2587C36.4411 32.2587 37.4348 31.2645 37.4348 30.0383C37.4348 28.8116 36.4409 27.8174 35.2144 27.8174C33.9876 27.8174 32.9934 28.8116 32.9934 30.0383C32.9937 31.2645 33.9883 32.2587 35.2144 32.2587ZM35.2144 29.1498C35.7036 29.1498 36.1023 29.5482 36.1023 30.0383C36.1023 30.5282 35.7036 30.9268 35.2144 30.9268C34.7236 30.9268 34.3259 30.5282 34.3259 30.0383C34.3262 29.5479 34.7242 29.1498 35.2144 29.1498Z" fill="#FF008A"/>
<path d="M63.5093 39.3621L60.9519 36.805C61.3057 36.4358 61.5853 35.9974 61.7576 35.5001C62.0742 34.5887 62.0159 33.6087 61.5946 32.7409C61.3134 32.1606 60.8849 31.6773 60.3628 31.3288C60.6009 30.452 60.5296 29.4978 60.1179 28.6502C59.4793 27.3351 58.1232 26.4854 56.6606 26.4854C56.0774 26.4854 55.5157 26.6152 54.989 26.8701C54.7556 26.9836 54.537 27.1181 54.3339 27.2728C53.5223 26.8096 52.5994 26.5622 51.6423 26.5622C50.8196 26.5622 50.025 26.7455 49.2809 27.1063C46.7173 28.3495 45.5761 31.3561 46.5961 33.9665L45.8756 34.6873C45.7888 34.7744 45.7107 34.8668 45.6307 34.9583C45.0417 34.3835 44.2695 34.0552 43.4423 34.036L43.3651 34.035C42.3023 34.035 41.3509 34.5627 40.7566 35.3669L35.393 35.3675C36.079 36.57 36.5469 38.1911 36.5469 40.2528V50.0235H51.6477V47.6804L52.9795 49.0128V51.3559H35.2152V40.2527C35.2152 37.9443 34.58 36.3607 33.8018 35.3674H27.6643C26.1929 35.3674 25 37.7539 25 40.6966C25 43.6396 26.1929 46.0258 27.6643 46.0258H29.8626L29.8853 61.1267H31.2171V56.685H33.7543V61.1267H35.0868V56.685H37.6249V61.1267H38.9567V56.685H41.4948V61.1267H42.8273V56.685H45.3651V61.1267H46.6976V56.685H49.2348V61.1267H50.5673V56.685H53.1052V61.1273H54.4376V56.685H56.9757V61.1267H58.3075L58.292 50.7822C59.1744 50.5599 59.9851 50.1101 60.6411 49.4528L63.5091 46.5851C64.4711 45.6246 65 44.3421 65 42.9746C65 41.6072 64.4711 40.3242 63.5098 39.3629L63.5093 39.3621ZM27.664 44.6938C27.332 44.6938 26.3322 43.2761 26.3322 40.6964C26.3322 38.1174 27.3323 36.6997 27.664 36.6997C27.9954 36.6997 28.9965 38.1174 28.9965 40.6964C28.9965 43.2761 27.9957 44.6938 27.664 44.6938ZM49.8632 28.3049C50.4374 28.0268 51.0448 27.8947 51.6434 27.8947C52.7043 27.8947 53.7354 28.3095 54.5049 29.0548C54.7458 28.6415 55.1085 28.2934 55.5708 28.0689C55.9227 27.8987 56.2944 27.8175 56.6611 27.8175C57.5921 27.8175 58.4859 28.3383 58.9199 29.2312C59.3896 30.1987 59.176 31.3179 58.4741 32.0517C59.2725 32.0979 60.0239 32.5527 60.3971 33.3234C60.8194 34.1936 60.6244 35.1878 60.0012 35.8541L55.966 31.8189C55.0053 30.8575 53.7221 30.3283 52.3549 30.3283C50.9874 30.3283 49.7051 30.8572 48.7441 31.8189L47.6618 32.9012C47.2463 31.0823 48.1129 29.1546 49.8632 28.3048L49.8632 28.3049ZM43.3665 35.3671C43.382 35.3671 43.3966 35.3671 43.4127 35.3674C44.0141 35.3811 44.5393 35.6719 44.8785 36.1127C43.9825 38.0082 44.3124 40.3442 45.878 41.9095L48.7463 44.7784C48.3529 44.9356 47.9282 45.0295 47.4796 45.0295C47.4526 45.0295 47.425 45.0292 47.3968 45.0286C45.9105 44.9945 44.6689 44.0191 44.217 42.6857C43.893 42.8928 43.5086 43.0125 43.0966 43.0125C43.0783 43.0125 43.0609 43.0125 43.0429 43.0122C41.8816 42.9858 40.9612 42.0201 40.9881 40.8584C41.0089 39.9544 41.5979 39.2007 42.4049 38.9229C41.8255 38.5816 41.4386 37.9523 41.455 37.2346C41.4798 36.1939 42.3327 35.3671 43.3666 35.3671L43.3665 35.3671ZM62.5673 45.6425L59.6996 48.5102C58.99 49.2196 58.0422 49.6108 57.0306 49.6108C56.0181 49.6108 55.0701 49.2202 54.3604 48.5102L46.8191 40.9681C45.3465 39.4961 45.3465 37.1015 46.8182 35.6295L49.6859 32.7615C50.3955 32.0522 51.3426 31.6609 52.3549 31.6609C53.3664 31.6609 54.3145 32.0515 55.0242 32.7615L62.5673 40.304C64.0396 41.7759 64.0396 44.1706 62.5673 45.6425H62.5673Z" fill="#FF008A"/>
<path d="M60.9882 42.8373C60.9882 43.5733 60.3917 44.1698 59.6557 44.1698C58.92 44.1698 58.3232 43.5733 58.3232 42.8373C58.3232 42.1014 58.92 41.5049 59.6557 41.5049C60.3917 41.5049 60.9882 42.1014 60.9882 42.8373Z" fill="#FF008A"/>
<path d="M51.6615 39.0633C51.6615 39.6765 51.1645 40.1738 50.5513 40.1738C49.9381 40.1738 49.4412 39.6765 49.4412 39.0633C49.4412 38.4504 49.9381 37.9531 50.5513 37.9531C51.1645 37.9531 51.6615 38.4504 51.6615 39.0633Z" fill="#FF008A"/>
<path d="M55.658 43.7268C55.658 44.2173 55.2605 44.615 54.77 44.615C54.2796 44.615 53.8818 44.2172 53.8818 43.7268C53.8818 43.2364 54.2796 42.8389 54.77 42.8389C55.2605 42.8389 55.658 43.2363 55.658 43.7268Z" fill="#FF008A"/>
<path d="M55.2141 38.8403C55.2141 39.3308 54.8167 39.7283 54.3262 39.7283C53.8357 39.7283 53.438 39.3308 53.438 38.8403C53.438 38.3498 53.8357 37.9521 54.3262 37.9521C54.8166 37.9521 55.2141 38.3499 55.2141 38.8403Z" fill="#FF008A"/>
<defs>
<clipPath id="clip0_16414_36364">
<rect width="23" height="22" fill="white" transform="translate(62.6875 19.1523)"/>
</clipPath>
</defs>
</svg>
