<svg width="48" height="48" viewBox="0 0 48 48" fill="none" xmlns="http://www.w3.org/2000/svg">
<path d="M32.0017 7.42861C31.776 6.52581 29.3124 6.70019 26.3025 7.29155C23.2 7.90114 23.0297 12.003 25.9766 13.149C26.8984 13.5075 27.9469 13.4569 28.7127 12.8312C30.5356 11.342 32.3702 8.90262 32.0017 7.42861Z" fill="#FF008A"/>
<path d="M43.4302 11.4286L41.1445 20H44.5731L45.716 13.1429L43.4302 11.4286Z" fill="#FF008A"/>
<path d="M14.2852 32.5714L18.8566 34.8571V37.1428L14.2852 38.8571V32.5714Z" fill="#FF008A"/>
<path d="M27.4297 33.1428L21.7154 35.2207V37.2987L27.4297 38.8571V33.1428Z" fill="#FF008A"/>
<path d="M23.3156 1.21875C22.4813 1.36875 21.525 1.69688 20.8125 2.08125C20.0625 2.475 18.9094 3.35625 18.7594 3.64688C18.675 3.7875 18.4969 3.825 17.6531 3.88125C16.3875 3.96563 15.975 4.05938 15.1031 4.47188C14.1844 4.90313 13.1063 5.9625 12.6656 6.85313C12.1031 8.00625 12.0656 8.2125 12.0281 11.3625L11.9813 14.25H11.55C10.7344 14.2594 9.8625 14.8125 9.44063 15.6094C9.2625 15.9281 9.23438 16.1344 9.23438 17.0625C9.23438 18.2438 9.3 18.4406 9.8625 19.0781C10.2563 19.5281 10.7906 19.7906 11.4469 19.8469L11.9906 19.9031L12.0188 21.0375C12.0375 21.7219 12.0094 22.2 11.9531 22.2375C11.9062 22.275 11.7188 22.3125 11.5594 22.3125H11.25V22.8469C11.25 23.1469 11.2219 23.4844 11.1938 23.5969C11.1469 23.775 11.1844 23.8031 11.7094 23.8781L12.2813 23.9531L12.6 24.8719C13.1344 26.4281 14.2969 28.1063 15.4969 29.0625L16.0312 29.4844V30.5813V31.6781L15.6844 31.7719C15.4875 31.8281 12.8906 32.4375 9.90938 33.1406C6.91875 33.8438 4.26562 34.5 4.00313 34.6031C2.56875 35.1656 1.36875 36.2625 0.703125 37.6219C0.009375 39.0375 0 39.1125 0 43.2375V46.875H20.8594H41.7188V45.1875V43.5H40.9688H40.2188V44.4375V45.375H38.7656H37.3125V40.7344V36.0844L37.7063 36.3C38.3063 36.6281 39.3 37.6594 39.6375 38.3063C40.0594 39.1125 40.2188 39.8906 40.2188 41.175V42.2813H40.9688H41.7188V41.0531C41.7188 38.7938 41.2219 37.4719 39.8438 36.0844C39.1688 35.3906 38.9156 35.2125 38.1562 34.8469C37.35 34.4625 36.7594 34.3031 32.0156 33.1875C29.1281 32.5125 26.5031 31.8938 26.1844 31.8094L25.5938 31.6688V30.6281V29.5875L26.4188 28.8188C27.7781 27.5531 28.6313 26.2781 29.1188 24.7875C29.2594 24.3469 29.4188 23.9719 29.475 23.9531C29.5313 23.9344 29.775 23.8969 30.0281 23.8594L30.4688 23.8031V23.3531C30.4688 22.5844 30.3844 22.3125 30.1406 22.3125C29.6344 22.3125 29.625 22.2844 29.625 21.0469V19.9031L30.2156 19.8563C31.1438 19.7813 31.8656 19.2938 32.3063 18.4688C32.5781 17.9625 32.5594 16.125 32.2781 15.6094C31.8375 14.7938 30.9844 14.2594 30.1219 14.25H29.625V13.4719V12.7031L30.1688 12.2719C30.4781 12.0281 30.9188 11.5688 31.1531 11.25C32.7188 9.16875 32.8406 6.6 31.4906 4.48125L31.2 4.03125L30.8156 4.3125C30.6 4.47188 30.3281 4.66875 30.2063 4.7625L29.9906 4.92188L30.3563 5.625C31.2844 7.425 31.0125 9.15 29.5688 10.6781C29.0719 11.2125 28.7719 11.4375 28.1813 11.7188C26.8969 12.3375 25.2094 12.6469 24.0188 12.4781C22.7063 12.2813 21.9188 11.8875 20.7188 10.8375C20.3813 10.5469 19.7531 10.125 19.3219 9.90938L18.5344 9.51563H17.3906C16.2656 9.51563 16.2469 9.51563 15.5344 9.87188C15.0844 10.0969 14.5688 10.4531 14.1938 10.8094L13.575 11.3813L13.6125 9.88125C13.6406 8.39063 13.6406 8.38125 13.9594 7.73438C14.5594 6.525 15.8063 5.5875 16.9969 5.46563C17.2875 5.4375 17.5312 5.4375 17.5312 5.46563C17.5312 5.50313 17.4094 5.7375 17.25 5.98125C17.1 6.23438 16.9688 6.47813 16.9688 6.525C16.9688 6.6 18.1031 7.3125 18.2156 7.3125C18.2344 7.3125 18.5906 6.75938 18.9938 6.08438C19.8844 4.60313 20.55 3.92813 21.6938 3.375C22.6313 2.91563 23.3438 2.72813 24.375 2.65313C25.8094 2.55938 27.3 2.925 28.4625 3.64688C28.8 3.8625 29.1094 4.0125 29.1469 3.98438C29.1938 3.96563 29.4094 3.70313 29.6344 3.4125L30.0375 2.8875L29.7656 2.65313C29.3438 2.31563 27.6938 1.5375 27 1.35938C26.2969 1.17188 24.0188 1.0875 23.3156 1.21875ZM18.7031 11.325C19.0125 11.4844 19.5844 11.8969 19.9688 12.2344C20.7375 12.9094 22.0031 13.5938 22.9031 13.8188C24.225 14.1563 25.8375 14.1 27.375 13.65L28.125 13.4344V17.6438V21.8531L27.8344 21.6844C27.675 21.5906 27.0938 21.1219 26.5406 20.6438C25.425 19.6688 24.6938 19.2563 23.8406 19.125C22.8938 18.9656 21.7781 19.2 21.1031 19.6781L20.8406 19.8656L20.5031 19.6313C20.0531 19.3313 19.8 19.2375 19.0781 19.125C17.7656 18.9188 16.6969 19.3031 15.375 20.4563C14.5219 21.2063 13.8 21.75 13.6688 21.75C13.6313 21.75 13.5938 20.0344 13.5938 17.925V14.1094L14.1094 13.35C14.9906 12.0469 15.7688 11.3531 16.6875 11.0531C17.175 10.8938 18.1125 11.0156 18.7031 11.325ZM12 17.0625V18.375H11.7656C11.4 18.375 10.9875 18.1219 10.8281 17.8125C10.65 17.4656 10.65 16.6594 10.8281 16.3125C10.9969 15.9938 11.3719 15.7594 11.7469 15.75H12V17.0625ZM30.4688 15.8906C30.8438 16.0781 31.0313 16.4813 31.0313 17.0625C31.0313 17.325 30.9656 17.6625 30.8906 17.8125C30.7313 18.1219 30.3188 18.375 29.9531 18.375H29.7188V17.0625V15.75H29.9531C30.0938 15.75 30.3188 15.8156 30.4688 15.8906ZM19.7812 21C20.2219 21.2813 20.3719 21.3281 20.8594 21.3281C21.3469 21.3281 21.5063 21.2813 21.9375 21C22.3594 20.7281 22.5469 20.6719 23.0813 20.6438C23.9062 20.5969 24.4125 20.8313 25.4531 21.7594C25.8656 22.125 26.2969 22.4906 26.4094 22.5656C26.5313 22.6406 26.6063 22.7438 26.5781 22.7813C26.5031 22.9125 24.5625 23.0906 23.7938 23.0344C23.2406 22.9969 22.6969 22.875 21.9375 22.6125L20.8688 22.2469L19.7344 22.6219C18.9563 22.8844 18.3844 23.0063 17.8688 23.0438C17.1281 23.0906 15.2156 22.9031 15.1406 22.7813C15.1125 22.7438 15.2344 22.6031 15.4031 22.4719C15.5625 22.35 16.0219 21.9656 16.4062 21.6188C17.3813 20.7563 17.6906 20.6156 18.5625 20.6438C19.1906 20.6719 19.3313 20.7094 19.7812 21ZM21.7875 24.1781C22.8188 24.5063 24.0469 24.6938 24.6938 24.6094C25.7156 24.4875 27.2438 24.2719 27.45 24.2344C27.7406 24.1688 27.7125 24.3094 27.2906 25.1813C26.2781 27.2719 24.1781 28.9969 21.5438 29.9156C20.9719 30.1125 20.8781 30.1219 20.4656 30.0188C19.8 29.8406 18.6281 29.3156 17.775 28.8094C16.8656 28.2656 15.2063 26.6625 14.7375 25.8563C14.4469 25.3688 13.95 24.2625 13.9969 24.2156C14.0063 24.2063 14.7563 24.3094 15.6563 24.4406C17.1 24.6469 17.4 24.6563 18.1406 24.5719C18.6094 24.5156 19.3406 24.3469 19.7812 24.1969C20.2219 24.0469 20.6625 23.9156 20.7563 23.9156C20.85 23.9063 21.3188 24.0281 21.7875 24.1781ZM24.0938 31.8188V33.1688L23.5125 33.3656L22.9313 33.5625L22.65 33.225C22.2469 32.7281 21.75 32.5313 20.9062 32.5313C20.5219 32.5313 20.0438 32.5781 19.8563 32.625C19.5188 32.7188 19.05 33.0844 18.8813 33.4031C18.7969 33.5531 18.7594 33.5531 18.2063 33.3656L17.625 33.1688V31.8656C17.625 31.1531 17.6438 30.5625 17.6625 30.5625C17.6813 30.5625 18.0094 30.7031 18.3938 30.8813C19.2188 31.2563 20.5406 31.6875 20.8594 31.6875C21.1875 31.6875 22.7344 31.1531 23.4375 30.7875C23.775 30.6188 24.0563 30.4781 24.075 30.4688C24.0844 30.4688 24.0938 31.0781 24.0938 31.8188ZM16.6875 34.4813L18.6094 35.1281L18.6375 35.8313L18.6656 36.5438L16.6313 37.2188C14.9906 37.7719 14.5875 37.875 14.5219 37.7719C14.4281 37.6219 14.4094 34.2188 14.4938 33.9938C14.5219 33.9094 14.5969 33.8438 14.6625 33.8438C14.7188 33.8438 15.6375 34.1344 16.6875 34.4813ZM27.1688 35.8406C27.1875 37.35 27.1688 37.8 27.075 37.8281C27.0094 37.8563 26.0906 37.5844 25.0313 37.2375L23.1094 36.5906V35.8594V35.1281L24.9844 34.4906C26.0156 34.1438 26.925 33.8625 27 33.8719C27.1219 33.8906 27.1406 34.1906 27.1688 35.8406ZM12.9563 36.1125C12.9844 38.4469 13.0219 38.5781 13.65 39.0563C13.9031 39.2531 14.1188 39.3281 14.5125 39.3563C14.9719 39.3844 15.3 39.3 16.8469 38.775L18.6469 38.175L18.7125 38.4844C18.7875 38.9063 19.3313 39.525 19.7344 39.6563L20.0625 39.7688V40.4625V41.1563H15.6094H11.1562V37.7906V34.425L11.8875 34.2375C12.2813 34.1344 12.6844 34.05 12.7688 34.0406C12.9094 34.0313 12.9281 34.2375 12.9563 36.1125ZM21.3563 34.1063C21.4406 34.1719 21.4688 34.65 21.45 36.1969L21.4219 38.2031H20.8125H20.2031L20.175 36.2438C20.1562 34.8844 20.1844 34.2469 20.2594 34.1625C20.3719 34.0219 21.1594 33.9844 21.3563 34.1063ZM29.7281 34.2281L30.5625 34.425V37.7906V41.1563H26.0625H21.5625V40.4719V39.7969L21.9844 39.6188C22.4813 39.4219 22.8656 38.9719 22.9406 38.5031L22.9875 38.175L24.7781 38.775C26.8031 39.45 27.2719 39.5063 27.8906 39.1594C28.0969 39.0375 28.35 38.7844 28.4719 38.5781C28.6781 38.2219 28.6875 38.1094 28.6875 36.1125C28.6875 34.6313 28.7156 34.0313 28.7906 34.0313C28.8469 34.0313 29.2688 34.1156 29.7281 34.2281ZM9.65625 38.7188V42.6563H20.8594H32.0625V38.7094C32.0625 34.9969 32.0719 34.7719 32.2313 34.8188C32.3156 34.8375 33.1406 35.0344 34.0594 35.25L35.7188 35.6438V40.5094V45.375H20.8125H5.90625V43.0781V40.7813H5.15625H4.40625V43.0781V45.375H2.95312H1.5V42.6281C1.5 39.6656 1.5375 39.3563 2.025 38.3531C2.325 37.7531 3.39375 36.6281 4.0125 36.3L4.40625 36.0844V37.7719V39.4688H5.15625H5.90625V37.5563V35.6531L7.0125 35.3906C7.6125 35.25 8.40938 35.0625 8.76562 34.9688C9.13125 34.875 9.47813 34.7906 9.54375 34.7906C9.62813 34.7813 9.65625 35.625 9.65625 38.7188Z" fill="#393F4D"/>
<path d="M16.5 16.9688V17.7188H17.2969H18.0938V16.9688V16.2188H17.2969H16.5V16.9688Z" fill="#393F4D"/>
<path d="M23.1562 16.9688V17.7188H23.9062H24.6562V16.9688V16.2188H23.9062H23.1562V16.9688Z" fill="#393F4D"/>
<path d="M4.3125 3.14062V3.84375H3.60938H2.90625V4.64062V5.4375H3.60938H4.3125V6.14062V6.84375H5.10938H5.90625V6.14062V5.4375H6.60938H7.3125V4.64062V3.84375H6.60938H5.90625V3.14062V2.4375H5.10938H4.3125V3.14062ZM5.8125 4.64062V5.34375H5.10938H4.40625V4.64062V3.9375H5.10938H5.8125V4.64062Z" fill="#393F4D"/>
<path d="M43.5 3.75V4.5H44.25H45V3.75V3H44.25H43.5V3.75Z" fill="#393F4D"/>
<path d="M37.8266 8.19375C36.9641 8.475 36.5141 8.70938 35.9891 9.17813C35.0797 9.975 34.5922 11.1 34.5922 12.3844C34.5922 12.9656 34.7422 13.8 35.3047 16.2844C35.6984 18.0281 36.1016 19.6031 36.1953 19.7906C36.4484 20.2875 36.9078 20.7188 37.4891 20.9813C37.9484 21.1875 38.0703 21.2063 38.8297 21.1594C39.6641 21.1031 39.6734 21.1031 39.6172 21.3094C39.5891 21.4219 39.3734 22.3781 39.1391 23.4375C38.8953 24.4969 38.6891 25.3688 38.6797 25.3875C38.6609 25.3969 38.4547 25.3031 38.2203 25.1719C37.4609 24.75 36.2422 24.7125 35.5109 25.0875C35.0422 25.3313 34.4984 25.8844 34.2359 26.3813C34.0203 26.7938 33.9828 26.9813 33.9828 27.6656C33.9828 28.3875 34.0109 28.5281 34.2734 29.0344L34.5641 29.6063L33.9078 30.2625L33.2422 30.9281L33.7109 31.4344C33.9641 31.7156 34.2078 31.95 34.2641 31.9594C34.3109 31.9688 34.6766 31.6406 35.0797 31.2469L35.8109 30.525L36.7203 30.5156C37.7797 30.5156 38.2484 30.3469 38.8484 29.7375C39.3641 29.2313 39.5328 28.8375 39.7953 27.5438C39.9266 26.9063 40.1703 25.7906 40.3391 25.05L40.6484 23.7094L41.1359 25.9406C41.4078 27.1688 41.6328 28.2375 41.6234 28.3125C41.6234 28.6406 42.0922 29.4188 42.5516 29.8313C43.1984 30.4125 43.7703 30.6 44.7172 30.5344L45.4484 30.4875L46.1797 31.2281C46.5828 31.6313 46.9578 31.9688 47.0141 31.9688C47.1172 31.9688 47.9984 31.0031 47.9984 30.8906C47.9984 30.8625 47.7078 30.5625 47.3422 30.225L46.6953 29.6063L46.9859 29.0906C47.2203 28.6781 47.2859 28.4344 47.3234 27.8906C47.3797 27 47.1828 26.4094 46.6297 25.7906C46.0203 25.1156 45.3922 24.8344 44.4828 24.825C43.8641 24.825 43.6766 24.8625 43.1891 25.1063C42.8703 25.2656 42.6078 25.3875 42.5984 25.3781C42.5891 25.3688 42.3828 24.4688 42.1391 23.3906C41.9047 22.3031 41.6797 21.3469 41.6609 21.2625C41.6234 21.1219 41.6984 21.1125 42.4484 21.1594C43.2078 21.2063 43.3297 21.1875 43.7891 20.9813C44.3703 20.7188 44.8297 20.2875 45.0922 19.7813C45.2609 19.4438 46.4797 14.2594 46.6859 13.0031C46.9672 11.2688 46.0297 9.4125 44.4641 8.60625C43.9016 8.31563 42.6734 7.90313 42.6172 7.9875C42.6078 8.00625 42.1766 9.87188 41.6703 12.1406C41.1641 14.4094 40.7234 16.3594 40.6953 16.4813C40.6578 16.6219 40.2922 15.1688 39.6547 12.3375C39.1109 9.9375 38.6328 7.96875 38.5766 7.97813C38.5297 7.97813 38.1922 8.08125 37.8266 8.19375ZM38.6328 14.7469C39.2047 17.3156 39.6641 19.4344 39.6453 19.4531C39.6266 19.4719 39.3453 19.5375 39.0266 19.6031C38.5109 19.7063 38.3984 19.7063 38.1172 19.5656C37.9391 19.4813 37.7141 19.3031 37.6297 19.1719C37.4141 18.8438 36.0922 12.9375 36.0922 12.3375C36.1016 11.775 36.2609 11.2781 36.5984 10.7906C36.8516 10.425 37.5266 9.88125 37.5641 10.0031C37.5734 10.05 38.0516 12.1781 38.6328 14.7469ZM44.2578 10.3031C44.7453 10.7063 45.1109 11.4375 45.1672 12.1406C45.2047 12.6375 45.1016 13.2094 44.5203 15.7875C44.1453 17.475 43.7609 18.975 43.6672 19.1344C43.5734 19.2844 43.3484 19.4813 43.1703 19.5656C42.8797 19.7063 42.7672 19.7063 42.2516 19.6031C41.9328 19.5375 41.6609 19.4719 41.6422 19.4531C41.5672 19.3781 43.7328 10.0313 43.8266 10.0313C43.8828 10.0313 44.0703 10.1531 44.2578 10.3031ZM37.7984 26.7938C38.1078 27.1313 38.1547 27.2344 38.1547 27.6281C38.1547 29.1375 36.2609 29.5875 35.6141 28.2469C35.2953 27.5906 35.5016 26.9063 36.1391 26.5125C36.3547 26.3719 36.5422 26.3438 36.9266 26.3719C37.3766 26.4 37.4703 26.4469 37.7984 26.7938ZM45.1953 26.5594C46.0953 27.1594 46.0016 28.4625 45.0359 28.9219C44.1641 29.3344 43.1234 28.6781 43.1234 27.7031C43.1234 26.6531 44.3328 25.9781 45.1953 26.5594Z" fill="#393F4D"/>
<path d="M3.65625 25.125V25.875H4.40625H5.15625V25.125V24.375H4.40625H3.65625V25.125Z" fill="#393F4D"/>
</svg>
