<svg width="49" height="48" viewBox="0 0 49 48" fill="none" xmlns="http://www.w3.org/2000/svg">
<path d="M2.07031 4.80048L3.44174 2.05762H37.0418V4.80048H2.07031Z" fill="#FF008A"/>
<path d="M17.4985 33.9429C17.4985 35.6471 15.0884 34.9716 13.3842 34.9716C11.68 34.9716 7.89844 35.6471 7.89844 33.9429C7.89844 32.2387 11.68 32.9144 13.3842 32.9144C15.0884 32.9144 17.4985 32.2387 17.4985 33.9429Z" fill="#FF008A"/>
<path d="M31.2072 38.4006L26.75 40.1148H44.9215V37.7148L31.2072 38.4006Z" fill="#FF008A"/>
<path d="M40.8089 10.6284L39.4375 12.3426H48.009L46.9804 8.91406L40.8089 10.6284Z" fill="#FF008A"/>
<path d="M48.1223 0H37.5312C37.213 0.238353 36.9053 0.492251 36.5736 0.708841C36.4441 0.792782 36.2607 0.825944 36.1021 0.826981C34.7114 0.835271 33.3217 0.832162 31.932 0.832162H4.28719C2.87883 0.832162 2.46949 1.13891 2.08501 2.48302C1.68189 3.89241 1.2798 5.3018 0.872523 6.71015C0.83107 6.85316 0.755419 6.98685 0.695312 7.12468V7.6874C0.900503 8.08016 1.2228 8.27499 1.66738 8.30401C2.056 8.32888 2.44254 8.39106 2.83012 8.43769C6.09867 8.82527 9.36721 9.21389 12.6368 9.60251C16.1996 10.0264 19.7625 10.4502 23.3254 10.8751C26.8882 11.3 30.4521 11.7176 34.0139 12.157C35.358 12.3228 36.7052 12.6265 37.9198 11.7073C37.9291 11.7 37.9488 11.7073 38.01 11.7073C38.1996 11.956 38.41 12.2234 38.6121 12.498C38.9696 12.984 39.4411 13.2358 40.0505 13.2348C42.6112 13.2327 45.1709 13.2379 47.7317 13.2327C48.3783 13.2307 48.6778 12.926 48.683 12.2835C48.6902 11.3933 48.682 10.5031 48.6861 9.61287C48.6882 9.1227 48.4913 8.75066 48.0975 8.45324C47.9752 8.361 47.8653 8.16825 47.8622 8.01798C47.8405 7.08115 47.8425 6.14432 47.8602 5.20749C47.8633 5.06863 47.9545 4.87794 48.0653 4.80229C48.512 4.50176 48.6923 4.09241 48.6871 3.56908C48.6788 2.7566 48.6602 1.94309 48.6934 1.13269C48.7151 0.625935 48.5514 0.258043 48.1223 0ZM35.5808 10.6813C34.8274 10.557 34.0626 10.502 33.3061 10.3911C33.1797 10.3725 32.9911 10.2367 32.9704 10.129C32.8294 9.39939 32.6377 9.12891 32.1755 9.10404C31.6998 9.07917 31.419 9.38178 31.2542 10.1487C29.907 9.98802 28.5536 9.82739 27.2147 9.66884C27.0789 8.59521 26.8893 8.29364 26.368 8.27603C25.8571 8.25841 25.6011 8.58589 25.4726 9.46364C24.1347 9.30405 22.7937 9.14342 21.3864 8.97554C21.3864 8.76413 21.3947 8.56723 21.3854 8.37033C21.3595 7.80036 21.0237 7.4449 20.5325 7.4563C20.0568 7.4677 19.749 7.81383 19.7242 8.36308C19.719 8.48433 19.7138 8.60661 19.7065 8.77449C18.3334 8.61179 16.9924 8.4522 15.5913 8.28639C15.5913 7.98068 15.6017 7.73092 15.5893 7.48324C15.5623 6.97234 15.239 6.64175 14.7747 6.63554C14.3063 6.62828 13.9736 6.94643 13.9322 7.4563C13.9166 7.63973 13.9291 7.82626 13.9291 8.08949C12.2554 7.88948 10.6253 7.69569 8.95787 7.49672C8.95787 7.17442 8.96926 6.89462 8.95579 6.61688C8.92988 6.12878 8.61588 5.81477 8.16301 5.80441C7.68734 5.79301 7.35883 6.10909 7.3267 6.62103C7.31323 6.83347 7.32463 7.04903 7.32463 7.30292C5.71419 7.11121 4.16905 6.92674 2.58763 6.73917C2.97832 5.36812 3.35346 4.03335 3.74623 2.70479C3.77525 2.60945 3.92655 2.52447 4.03847 2.4882C4.15143 2.45089 4.28615 2.47783 4.41051 2.47783H36.2544C36.2638 2.6965 36.2772 2.86231 36.2783 3.02915C36.2793 4.70073 36.2793 6.37231 36.2793 8.04389C36.2793 9.22633 36.2793 9.22633 36.9229 10.3041C36.5187 10.5849 36.1083 10.7694 35.5808 10.6813ZM47.0207 11.5933H46.5275C44.4994 11.5933 42.4703 11.5881 40.4422 11.5995C40.1334 11.6016 39.9282 11.5197 39.7417 11.2575C39.2183 10.5197 38.6587 9.8077 38.1219 9.08021C38.0338 8.96 37.9312 8.80766 37.9302 8.67086C37.9188 6.36299 37.9219 4.05511 37.9219 1.68712H47.0187C47.0187 2.20425 47.0301 2.71308 47.0093 3.22087C47.0052 3.31518 46.8912 3.42917 46.799 3.48928C46.399 3.75354 46.2083 4.12454 46.2072 4.59399C46.2031 5.93602 46.2041 7.27805 46.2052 8.62008C46.2062 9.10715 46.3979 9.48852 46.8156 9.76314C46.913 9.82636 47.0073 9.97248 47.0125 10.0854C47.0332 10.5663 47.0207 11.0482 47.0207 11.5933Z" fill="#203066"/>
<path d="M46.1986 36.5312C46.1831 35.413 45.5271 34.7725 44.4047 34.7643C43.499 34.757 42.5943 34.7632 41.5538 34.7632C41.729 34.6119 41.8046 34.5415 41.8854 34.4772C45.297 31.7641 46.3831 27.1307 44.4006 23.2591C42.729 19.9926 39.9672 18.2464 36.2987 18.2174C28.661 18.1552 21.0223 18.1967 13.3836 18.2029C12.8396 18.2029 12.2831 18.2101 11.7504 18.3107C7.91187 19.0371 5.3045 21.2414 4.32725 25.0343C3.36036 28.7816 4.5314 31.9569 7.49112 34.4596C7.57817 34.5332 7.66004 34.614 7.82275 34.7632C6.81648 34.7632 5.91592 34.7591 5.01536 34.7643C3.83603 34.7705 3.18834 35.4078 3.17694 36.583C3.16761 37.5043 3.17383 38.4266 3.17486 39.3479C3.1759 40.7822 3.76246 41.3708 5.18946 41.3729C5.61746 41.3739 6.04546 41.3729 6.46828 41.3729V46.3347C6.21542 46.3347 5.98536 46.3264 5.75529 46.3368C5.1905 46.3627 4.8195 46.7078 4.8309 47.1866C4.8423 47.6674 5.21641 47.9949 5.78742 47.996C7.91187 48.0001 10.0363 48.0011 12.1608 47.996C12.7421 47.9939 13.0903 47.6747 13.0914 47.1721C13.0914 46.6746 12.7453 46.3596 12.1639 46.3358C11.938 46.3275 11.712 46.3347 11.4955 46.3347V41.4081H37.8904V46.3378C37.6138 46.3378 37.365 46.3223 37.1184 46.341C36.6023 46.3803 36.2852 46.7078 36.2873 47.1742C36.2893 47.6612 36.6282 47.9928 37.1733 47.9949C39.3289 48.0022 41.4844 48.0011 43.6399 47.9949C44.1726 47.9928 44.5384 47.6488 44.5477 47.1835C44.5571 46.7202 44.2006 46.372 43.6669 46.3389C43.4233 46.3244 43.1777 46.3368 42.8855 46.3368V41.3729C43.4358 41.3729 43.9322 41.3801 44.4275 41.3708C45.5271 41.3511 46.1799 40.7169 46.1986 39.6246C46.2152 38.5945 46.2131 37.5623 46.1986 36.5312ZM18.8782 19.8682C24.7665 19.8672 30.6549 19.862 36.5432 19.8693C39.9382 19.8734 43.1902 22.7409 43.6161 26.0882C43.6296 26.1939 43.6171 26.3017 43.6171 26.4768H43.0192C38.7081 26.4768 34.397 26.4768 30.0859 26.4789C29.8839 26.4789 29.6766 26.4768 29.4807 26.5173C29.0548 26.6053 28.8444 26.8996 28.8299 27.3183C28.8154 27.7152 29.1387 28.0676 29.5429 28.1194C29.7129 28.1412 29.8859 28.1308 30.058 28.1308H43.6358C43.6016 29.0624 43.3301 29.8894 42.9207 30.6563C41.5041 33.3103 39.2656 34.7249 36.2634 34.7498C30.516 34.7953 24.7676 34.7622 19.0202 34.7622H18.7797C18.7466 34.8036 18.7144 34.8441 18.6813 34.8855C18.6243 34.8441 18.5683 34.8036 18.5113 34.7622H18.7797C19.1943 34.242 19.5984 33.7145 20.0378 33.217C20.1332 33.1093 20.3788 33.1041 20.5549 33.1041C24.2877 33.0979 28.0216 33.0999 31.7544 33.0989C32.5824 33.0989 32.9586 32.8346 32.9493 32.2595C32.941 31.6999 32.5752 31.446 31.771 31.446C28.4589 31.4449 25.1479 31.446 21.8369 31.446H21.2203C22.5239 28.6614 22.5177 25.9328 21.2182 23.1668H31.7202C31.8922 23.1668 32.0653 23.1741 32.2353 23.1534C32.655 23.1026 32.942 22.7782 32.9503 22.3627C32.9596 21.9409 32.6923 21.6093 32.2715 21.545C32.0871 21.517 31.8974 21.5212 31.7109 21.5212C28.0092 21.5201 24.3074 21.516 20.6057 21.5274C20.2637 21.5284 20.0316 21.432 19.7974 21.1781C19.3891 20.7356 18.9269 20.3429 18.444 19.889C18.615 19.8807 18.7466 19.8682 18.8782 19.8682ZM5.66202 27.2738C5.66928 23.1689 9.01347 19.8568 13.1391 19.8672C17.2439 19.8776 20.5715 23.2311 20.556 27.3411C20.5415 31.4366 17.1651 34.786 13.0738 34.7622C8.96788 34.7394 5.65477 31.391 5.66202 27.2738ZM9.7648 46.2985H8.16888V41.3977H9.7648V46.2985ZM41.2004 46.3088H39.6107V41.4008H41.2004V46.3088ZM44.526 39.7044H4.84333V36.4389H44.526V39.7044Z" fill="#203066"/>
<path d="M18.5078 34.7617C18.5648 34.8032 18.6208 34.8436 18.6778 34.885C18.7109 34.8436 18.7431 34.8032 18.7762 34.7617H18.5078Z" fill="white"/>
<path d="M44.5436 5.67907C44.4793 4.3899 43.4928 3.4085 42.2005 3.31109C41.0046 3.22093 39.8667 4.09247 39.6377 5.31844C39.561 5.72882 39.59 6.15785 39.5703 6.57756C39.5765 6.57756 39.5827 6.5786 39.589 6.5786C39.589 6.87498 39.5838 7.17137 39.59 7.46776C39.618 8.83362 40.6823 9.90932 42.0243 9.93108C43.3622 9.95285 44.4783 8.91238 44.5446 7.55066C44.5747 6.92784 44.5747 6.3019 44.5436 5.67907ZM42.8751 7.52372C42.842 7.95068 42.5238 8.24189 42.1093 8.26158C41.6657 8.28127 41.2958 8.00975 41.2699 7.5631C41.2336 6.94131 41.2346 6.31434 41.2668 5.69255C41.2896 5.24797 41.6626 4.95676 42.0927 4.97023C42.5155 4.98474 42.8492 5.30185 42.8782 5.7454C42.8969 6.04075 42.8813 6.33817 42.8813 6.63456C42.8803 6.63456 42.8803 6.63456 42.8793 6.63456C42.8793 6.93094 42.8979 7.22837 42.8751 7.52372Z" fill="#203066"/>
<path d="M27.1568 27.3306C27.1465 27.7648 26.8428 28.0923 26.3931 28.1224C26.0977 28.142 25.8003 28.1265 25.5039 28.1265V28.1275C25.2231 28.1275 24.9412 28.141 24.6614 28.1244C24.2178 28.0996 23.8904 27.7762 23.8613 27.3576C23.8323 26.9441 24.1266 26.5399 24.566 26.513C25.2023 26.4725 25.8449 26.4736 26.4801 26.5161C26.9071 26.5451 27.1682 26.913 27.1568 27.3306Z" fill="#203066"/>
<path d="M37.9146 32.3229C37.8928 32.7322 37.5975 33.0545 37.1716 33.0877C36.8617 33.1115 36.5477 33.0928 36.2358 33.0928C35.9549 33.0939 35.673 33.1105 35.3943 33.0897C34.9507 33.0566 34.6357 32.7187 34.6253 32.297C34.6139 31.8669 34.901 31.4969 35.3507 31.471C35.9725 31.4358 36.5995 31.4358 37.2203 31.4772C37.6711 31.5083 37.9374 31.8814 37.9146 32.3229Z" fill="#203066"/>
<path d="M37.9159 22.3382C37.919 22.7734 37.6226 23.104 37.1801 23.1579C37.149 23.162 37.1179 23.1641 37.0869 23.1641H36.2443V23.1579C35.9479 23.1579 35.6495 23.1786 35.3552 23.1527C34.9375 23.1164 34.6401 22.7807 34.6256 22.3744C34.6101 21.9423 34.8981 21.5682 35.3427 21.5443C35.9645 21.5122 36.5915 21.5122 37.2133 21.5464C37.6423 21.5703 37.9138 21.9185 37.9159 22.3382Z" fill="#203066"/>
<path d="M13.103 21.5215C9.91319 21.5163 7.32447 24.1019 7.32032 27.2969C7.31514 30.496 9.88935 33.0878 13.0781 33.0961C16.2793 33.1034 18.8742 30.5343 18.8856 27.3456C18.8981 24.1237 16.3197 21.5277 13.103 21.5215ZM13.1009 31.439C10.8127 31.438 8.95045 29.5737 8.96081 27.2959C8.97117 25.0201 10.8542 23.1547 13.1258 23.1682C15.388 23.1817 17.2244 25.0253 17.2368 27.2959C17.2493 29.5757 15.3891 31.439 13.1009 31.439Z" fill="#203066"/>
<path d="M13.0832 24.835C11.7152 24.8412 10.6209 25.947 10.625 27.317C10.6302 28.6808 11.7401 29.7948 13.0987 29.7969C14.4666 29.7989 15.6045 28.6466 15.5869 27.2776C15.5682 25.9138 14.4563 24.8288 13.0832 24.835ZM13.1111 28.1274C12.6448 28.1315 12.2883 27.775 12.2893 27.3066C12.2904 26.8548 12.6241 26.5086 13.0718 26.4941C13.5422 26.4776 13.9081 26.8226 13.9174 27.29C13.9257 27.7564 13.5733 28.1232 13.1111 28.1274Z" fill="#203066"/>
</svg>
