<svg width="48" height="48" viewBox="0 0 48 48" fill="none" xmlns="http://www.w3.org/2000/svg">
<path d="M33.1429 4.85709V4.28566C33.1429 2.8655 31.9916 1.71423 30.5714 1.71423C29.1513 1.71423 28 2.8655 28 4.28566V4.85709C28 6.27725 29.1513 7.42852 30.5714 7.42852C31.9916 7.42852 33.1429 6.27725 33.1429 4.85709Z" fill="#FF008A"/>
<path d="M42.8253 16H43.2863C44.6272 16 45.7143 14.913 45.7143 13.572C45.7143 12.3475 44.8025 11.3146 43.5874 11.1627L41.5598 10.9093C41.2879 10.8753 41.0121 10.9226 40.7671 11.0451C40.297 11.2801 40 11.7606 40 12.2862V13.1747C40 14.7351 41.2649 16 42.8253 16Z" fill="#FF008A"/>
<path d="M12.1449 38.6586L6.02049 40.1123C4.59033 40.4518 3.70712 41.8875 4.04898 43.3171C4.37235 44.6694 5.68309 45.544 7.05589 45.3236L13.2709 44.3257C15.6003 43.9517 16.525 41.0954 14.8568 39.4271C14.1474 38.7178 13.121 38.4269 12.1449 38.6586Z" fill="#FF008A"/>
<path d="M43.6163 36.2391L37.2985 37.8185C36.476 38.0241 36.1923 39.0484 36.7918 39.6479C37.0155 39.8715 37.3252 39.9871 37.6407 39.9645L44.1364 39.5006C44.7552 39.4564 45.2975 39.0703 45.5419 38.5001C46.0819 37.2402 44.9462 35.9066 43.6163 36.2391Z" fill="#FF008A"/>
<path d="M5.45625 1.66875C5.33438 1.79062 4.93125 3.25312 4.14375 6.40312L3 10.9688V18.9844V27H3.75H4.5V21.4312V15.8531L5.04375 16.1437C5.4 16.3219 5.79375 16.4437 6.16875 16.4719L6.75 16.5281V15.7125V14.9062H6.49688C5.86875 14.8969 5.025 14.2594 4.74375 13.5844C4.66875 13.3969 4.575 12.9656 4.5375 12.6187L4.47188 12H5.99063H7.5V11.25V10.5H6.14063C5.39062 10.5 4.78125 10.4719 4.78125 10.425C4.78125 10.3875 5.20312 8.70937 5.7 6.70312L6.61875 3.04687L8.475 3.01875L10.3313 3L10.2844 3.20625C10.1156 3.9375 9.35625 8.82187 9.40313 8.87812C9.49688 8.97187 10.8188 9.17812 10.8844 9.1125C10.9125 9.075 11.1656 7.6875 11.4375 6.01875L11.9344 3H13.8H15.675L15.6188 3.25312C15.5438 3.68437 15.15 8.89687 15.1875 8.94375C15.2156 8.9625 15.5719 9.00937 15.9844 9.04688L16.7438 9.1125L16.9594 6.4125C17.0719 4.92187 17.1938 3.54375 17.2219 3.34687L17.2781 3H19.1344H21V5.625V8.25H21.75H22.5V5.625V3H24.75H27V6.75V10.5H25.5H24V11.25V12H25.5094H27.0281L26.9625 12.6187C26.8875 13.3875 26.7094 13.8281 26.3156 14.2406C25.725 14.8594 24.7125 15.0844 23.9344 14.7656C23.7469 14.6906 23.5875 14.6344 23.5781 14.6437C23.025 15.5906 22.875 15.8812 22.875 15.975C22.875 16.2469 23.7188 16.4531 24.7969 16.4531C25.7344 16.4531 25.875 16.425 26.3531 16.1906C26.6438 16.05 27.075 15.7594 27.3188 15.5531L27.75 15.1687L28.1813 15.5531C28.425 15.7594 28.8563 16.05 29.1469 16.1906C29.625 16.4344 29.7656 16.4531 30.75 16.4531C31.7344 16.4531 31.875 16.4344 32.3531 16.1906C32.6438 16.05 33.075 15.7594 33.3188 15.5531L33.75 15.1687L34.1813 15.5531C34.425 15.7594 34.8563 16.05 35.1469 16.1906C35.625 16.4344 35.7656 16.4531 36.75 16.4531C37.7344 16.4531 37.875 16.4344 38.3531 16.1906C38.6438 16.05 39.075 15.7594 39.3188 15.5531L39.75 15.1687L40.1813 15.5531C40.425 15.7594 40.8563 16.05 41.1469 16.1906C41.625 16.4344 41.7656 16.4531 42.75 16.4531C43.7719 16.4531 43.8563 16.4344 44.4188 16.1531L45 15.8625V23.6812V31.5H45.75H46.5V21.2344V10.9688L45.3563 6.40312C44.5688 3.25312 44.1656 1.79062 44.0438 1.66875C43.8844 1.50937 43.1719 1.5 24.75 1.5C6.32813 1.5 5.61563 1.50937 5.45625 1.66875ZM32.2875 3.44062C32.3156 3.69375 32.4469 5.22187 32.5781 6.84375C32.7094 8.46562 32.8313 9.95625 32.8594 10.1437L32.9063 10.5H30.7031H28.5V6.75V3H30.3656H32.2313L32.2875 3.44062ZM38.1469 6.53437C38.475 8.48438 38.7563 10.1719 38.7844 10.2844L38.8313 10.5H36.675H34.5188L34.4625 10.05C34.4344 9.80625 34.3031 8.27812 34.1719 6.65625C34.0406 5.03437 33.9188 3.54375 33.8906 3.34687L33.8438 3H35.7H37.5656L38.1469 6.53437ZM43.8 6.70312C44.2969 8.70937 44.7188 10.3875 44.7188 10.425C44.7188 10.4719 43.7531 10.5 42.5813 10.5H40.4344L39.8531 6.95625C39.525 5.01562 39.2438 3.32812 39.2156 3.20625L39.1688 3L41.025 3.01875L42.8813 3.04687L43.8 6.70312ZM32.9625 12.6187C32.8875 13.3875 32.7094 13.8281 32.3156 14.2406C31.2656 15.3469 29.4 15.0281 28.7719 13.6406C28.6781 13.4344 28.575 12.975 28.5375 12.6281L28.4719 12H30.75H33.0281L32.9625 12.6187ZM38.9625 12.6187C38.8875 13.3875 38.7094 13.8281 38.3156 14.2406C37.2656 15.3469 35.4 15.0281 34.7719 13.6406C34.6781 13.4344 34.575 12.975 34.5375 12.6281L34.4719 12H36.75H39.0281L38.9625 12.6187ZM44.9625 12.6187C44.8875 13.3875 44.7094 13.8281 44.3156 14.2406C43.2656 15.3469 41.4 15.0281 40.7719 13.6406C40.6781 13.4344 40.575 12.975 40.5375 12.6281L40.4719 12H42.75H45.0281L44.9625 12.6187Z" fill="#393F4D"/>
<path d="M10.8109 9.89062C9.87344 10.1813 9.02969 10.9406 8.55156 11.9062C8.29844 12.4219 8.29844 12.4312 8.27031 14.8312L8.24219 17.25H7.94219C7.27656 17.2594 6.44219 17.8781 6.15156 18.5812C5.94531 19.0688 5.96406 20.0156 6.17969 20.4844C6.49844 21.1781 7.30469 21.75 7.95156 21.75C8.21406 21.75 8.22344 21.7781 8.38281 22.5C8.69219 23.9531 9.80781 25.6969 10.9141 26.4469C11.1016 26.5688 11.2516 26.7469 11.2516 26.8312C11.2516 26.9906 11.0828 27 8.97344 27C6.49844 27 6.08594 27.0562 5.25156 27.5438C4.83906 27.7781 3.84531 28.65 3.84531 28.7812C3.84531 28.8469 5.00781 29.7188 5.11094 29.7188C5.13906 29.7188 5.27969 29.5969 5.40156 29.4375C5.53281 29.2875 5.91719 29.025 6.25469 28.8563L6.88281 28.5469L9.06719 28.5187L11.2516 28.4813V30.1781C11.2516 31.7531 11.2609 31.8844 11.4391 32.0625C11.6922 32.3156 12.1141 32.2969 13.2203 32.0156C13.7078 31.8844 14.1391 31.7812 14.1859 31.7812C14.2234 31.7812 14.2516 33.0938 14.2516 34.6969V37.6125L13.9984 37.5562C13.6047 37.4719 9.90156 36.8438 9.82656 36.8438C9.77969 36.8438 9.75156 35.8125 9.75156 34.5469V32.25H9.00156H8.25156V33V33.75H6.36719H4.47344L4.52031 32.3062L4.57656 30.8531L4.13594 30.7594C3.90156 30.7125 3.54531 30.6375 3.34844 30.6094L2.99219 30.5437L3.02031 37.1812L3.04844 43.8281L3.32031 44.3906C3.67656 45.1125 4.38906 45.825 5.11094 46.1813L5.67344 46.4531H15.0016H24.3297L24.8922 46.1813C25.6141 45.825 26.3266 45.1125 26.6828 44.3906L26.9547 43.8281L26.9828 37.275C27.0016 31.4906 26.9922 30.6562 26.8516 30.1969C26.4578 28.8 25.2859 27.6094 23.8984 27.1781C23.4016 27.0281 23.0266 27 21.0391 27C18.9203 27 18.7516 26.9906 18.7516 26.8312C18.7516 26.7469 18.9016 26.5688 19.0891 26.4469C20.1953 25.6969 21.3109 23.9531 21.6203 22.5C21.7797 21.7594 21.7891 21.75 22.0703 21.75C22.7266 21.7406 23.5609 21.1219 23.8516 20.4188C24.0391 19.9688 24.0391 19.0312 23.8516 18.5812C23.5609 17.8687 22.7266 17.2594 22.0609 17.25H21.7516V16.0406C21.7516 14.9531 21.7703 14.8125 21.9484 14.5875C22.4078 14.0062 22.5016 13.5187 22.5016 11.7656C22.5016 10.2469 22.4828 10.1063 22.3141 9.9375C22.1266 9.75 22.0047 9.75 16.6703 9.75938C12.4047 9.75938 11.1203 9.7875 10.8109 9.89062ZM20.9828 12.1781C20.9172 13.4531 20.6078 13.9594 19.7266 14.1562C19.5297 14.2031 17.4578 14.25 15.1328 14.25C11.8984 14.25 10.8766 14.2781 10.7641 14.3625C10.6797 14.4281 10.4359 14.775 10.2203 15.1406C10.0047 15.4969 9.79844 15.8156 9.77969 15.8438C9.75156 15.8719 9.75156 15.2531 9.77031 14.4844C9.81719 12.9281 9.92031 12.5531 10.4359 12.0187C10.8016 11.6344 11.1391 11.4469 11.6547 11.3438C11.8703 11.3063 14.0641 11.2687 16.5391 11.2594L21.0297 11.25L20.9828 12.1781ZM19.2672 17.4375L20.2797 19.1344L20.2234 20.4656C20.1297 22.3594 19.8672 23.1844 18.9953 24.2906C18.4984 24.9187 17.4203 25.6687 16.6422 25.9219C15.8547 26.1844 14.1484 26.1844 13.3609 25.9219C12.5828 25.6687 11.5047 24.9187 11.0078 24.2906C10.1359 23.1844 9.87344 22.3594 9.77969 20.4656L9.72344 19.1344L10.7359 17.4375L11.7391 15.75H15.0016H18.2641L19.2672 17.4375ZM8.25156 19.5C8.25156 20.2219 8.13906 20.325 7.78281 19.9688C7.43594 19.6219 7.66094 18.8438 8.11094 18.8438C8.22344 18.8438 8.25156 18.975 8.25156 19.5ZM22.2203 19.0313C22.5672 19.3781 22.3422 20.1563 21.8922 20.1563C21.7797 20.1563 21.7516 20.025 21.7516 19.5C21.7516 18.7781 21.8641 18.675 22.2203 19.0313ZM15.0016 27.75C15.5453 27.75 16.2391 27.6844 16.5391 27.6187L17.0922 27.4875L16.0422 28.5281L15.0016 29.5781L13.9609 28.5281L12.9109 27.4875L13.4641 27.6187C13.7641 27.6844 14.4578 27.75 15.0016 27.75ZM23.3641 28.6781C24.1891 28.9406 25.0703 29.8219 25.3234 30.6375C25.3797 30.825 25.4453 31.6031 25.4734 32.3625L25.5297 33.75H23.6359H21.7516V33V32.25H21.0016H20.2516V34.5469C20.2516 35.8125 20.2234 36.8438 20.1859 36.8438C20.1391 36.8438 19.1453 37.0125 17.9547 37.2188C16.7734 37.425 15.7891 37.5938 15.7797 37.5938C15.7609 37.5938 15.7516 36.2812 15.7516 34.6875C15.7516 33.0844 15.7797 31.7812 15.8266 31.7812C15.8641 31.7812 16.2953 31.8844 16.7828 32.0156C17.8891 32.2969 18.3109 32.3156 18.5641 32.0625C18.7422 31.8844 18.7516 31.7531 18.7516 30.1781V28.4813L20.8891 28.5281C22.0984 28.5469 23.1672 28.6125 23.3641 28.6781ZM13.2016 30.3937C12.7891 30.5063 12.7516 30.4875 12.7516 30.075V29.6812L13.0891 30.0094C13.4172 30.3281 13.4172 30.3281 13.2016 30.3937ZM17.2234 30.4312C17.2047 30.45 17.0547 30.4406 16.8859 30.4125L16.5859 30.3469L16.8953 30.0281L17.2047 29.7094L17.2328 30.0469C17.2516 30.2437 17.2422 30.4125 17.2234 30.4312ZM8.25156 36V36.75H6.37656H4.50156V36V35.25H6.37656H8.25156V36ZM25.5016 36V36.75H23.6266H21.7516V36V35.25H23.6266H25.5016V36ZM9.31094 38.3531C9.68594 38.4187 10.0141 38.4937 10.0516 38.5219C10.0891 38.5594 8.93594 38.7937 7.48281 39.0375C6.02969 39.2906 4.76406 39.5156 4.67031 39.5437C4.52031 39.5812 4.50156 39.5156 4.50156 38.9156V38.25H6.57344C7.70781 38.25 8.94531 38.2969 9.31094 38.3531ZM25.5016 40.125V42H23.0922H20.6922L14.2609 43.5094C7.97969 44.9906 7.81094 45.0187 7.06094 44.9719C5.84219 44.8875 5.10156 44.4281 4.72656 43.5469C4.51094 43.0312 4.41719 41.1562 4.60469 41.1562C4.67969 41.1469 8.42969 40.5 12.9391 39.7125L21.1422 38.2688L23.3266 38.2594L25.5016 38.25V40.125ZM25.1828 43.7531C24.9859 44.1375 24.4797 44.5969 24.0578 44.7656C23.8609 44.85 23.3266 44.9438 22.8859 44.9719C22.1641 45.0094 21.9109 44.9719 20.3453 44.5969C19.3891 44.3625 18.6766 44.1469 18.7516 44.1188C18.8266 44.0906 19.3984 43.9406 20.0172 43.7906C21.0766 43.5375 21.2641 43.5187 23.2328 43.5094L25.3234 43.5L25.1828 43.7531Z" fill="#393F4D"/>
<path d="M11.5688 18.3187C11.2875 18.6 11.25 18.6937 11.25 19.125C11.25 19.8281 11.6719 20.25 12.375 20.25C12.8063 20.25 12.9 20.2125 13.1813 19.9312C13.4625 19.65 13.5 19.5562 13.5 19.125C13.5 18.6937 13.4625 18.6 13.1813 18.3187C12.9 18.0375 12.8063 18 12.375 18C11.9438 18 11.85 18.0375 11.5688 18.3187Z" fill="#393F4D"/>
<path d="M16.8188 18.3187C16.5375 18.6 16.5 18.6937 16.5 19.125C16.5 19.5562 16.5375 19.65 16.8188 19.9312C17.1 20.2125 17.1938 20.25 17.625 20.25C18.0563 20.25 18.15 20.2125 18.4313 19.9312C18.7125 19.65 18.75 19.5562 18.75 19.125C18.75 18.6937 18.7125 18.6 18.4313 18.3187C18.15 18.0375 18.0563 18 17.625 18C17.1938 18 17.1 18.0375 16.8188 18.3187Z" fill="#393F4D"/>
<path d="M12.702 22.472C12.2802 23.1095 12.2802 23.1095 12.4677 23.2689C13.0583 23.747 14.6333 24.0751 15.6364 23.9251C16.3395 23.822 17.2395 23.5126 17.5302 23.2689C17.7177 23.1095 17.7177 23.1095 17.2958 22.472C17.0614 22.1251 16.8552 21.8439 16.8364 21.8439C16.8177 21.8439 16.5552 21.9564 16.2552 22.097C15.8052 22.3032 15.5614 22.3501 14.9989 22.3501C14.4364 22.3501 14.1927 22.3032 13.7427 22.097C13.4427 21.9564 13.1802 21.8439 13.1614 21.8439C13.1427 21.8439 12.9364 22.1251 12.702 22.472Z" fill="#393F4D"/>
<path d="M24.75 18.7499V19.4999H27H29.25V25.4999V31.4999H28.875H28.5V32.2499V32.9999H29.4375C30.9094 32.9999 30.75 33.8999 30.75 25.4999C30.75 18.4968 30.75 18.3749 30.5625 18.1874C30.3844 18.0093 30.2531 17.9999 27.5625 17.9999H24.75V18.7499Z" fill="#393F4D"/>
<path d="M32.4375 18.1875C32.25 18.375 32.25 18.4969 32.25 27.1875V36H30.375H28.5V36.75V37.5H36.75H45V38.25V39H36.75H28.5V39.75V40.5H37.3125C46.0031 40.5 46.125 40.5 46.3125 40.3125C46.4906 40.1344 46.5 40.0031 46.5 36.5625V33H45.75H45V34.5V36H43.875H42.75V27.1875C42.75 18.4969 42.75 18.375 42.5625 18.1875C42.3844 18.0094 42.2531 18 37.5 18C32.7469 18 32.6156 18.0094 32.4375 18.1875ZM41.25 27.75V36H37.5H33.75V27.75V19.5H37.5H41.25V27.75Z" fill="#393F4D"/>
<path d="M38.25 27.75V30H39H39.75V27.75V25.5H39H38.25V27.75Z" fill="#393F4D"/>
<path d="M6 24V25.5H6.75H7.5V24V22.5H6.75H6V24Z" fill="#393F4D"/>
<path d="M11.25 34.5V35.25H12H12.75V34.5V33.75H12H11.25V34.5Z" fill="#393F4D"/>
</svg>
