<svg width="49" height="25" viewBox="0 0 49 25" fill="none" xmlns="http://www.w3.org/2000/svg">
<g clip-path="url(#clip0_13605_34038)">
<path d="M22.0021 1.88867L10.6797 3.89497L15.8691 4.60307L23.8892 5.66523V4.60307L22.0021 1.88867Z" fill="#FF008A"/>
<ellipse cx="9.73082" cy="21.7144" rx="1.88707" ry="1.88828" fill="#FF008A"/>
<ellipse cx="42.7543" cy="6.60898" rx="1.88707" ry="1.88828" fill="#FF008A"/>
<ellipse cx="39.9261" cy="21.7144" rx="1.88707" ry="1.88828" fill="#FF008A"/>
<path d="M33.2401 0.147387L33.0337 0.285812V6.33043V12.3658H29.4598C26.0924 12.3658 25.886 12.3566 25.9517 12.1997C25.9892 12.1167 26.0642 11.9321 26.1111 11.7844L26.2049 11.5353H27.7433C29.4974 11.5353 29.7131 11.4799 30.229 10.917C30.7637 10.3356 31.364 9.42195 31.4953 8.96976C31.7767 8.05614 31.4391 7.60395 29.1315 5.88747C27.7339 4.84465 26.8522 4.31863 26.2331 4.16175C26.0173 4.10638 25.5483 3.8203 25.1074 3.46962C24.6947 3.1374 23.9443 2.54678 23.4378 2.14073C21.6462 0.710321 21.1396 0.544209 18.213 0.488838C15.8586 0.433468 14.5735 0.553438 12.9132 0.968716C11.3655 1.36554 9.32061 2.21455 7.93234 3.05434C7.23821 3.46962 6.89114 3.61727 5.40907 4.09715C3.5987 4.697 3.22349 5.05691 3.32667 6.08126C3.38295 6.62574 4.04895 8.55448 4.56486 9.64343C5.09015 10.7601 5.99064 11.4245 7.08812 11.5076C8.16684 11.5814 8.24188 11.6091 8.35445 11.9229C8.41073 12.0797 8.43887 12.2274 8.42011 12.2551C8.39197 12.2735 6.75982 12.3104 4.7806 12.3381C2.80138 12.3658 1.05667 12.4212 0.887826 12.4673C0.400057 12.615 0.296875 12.9657 0.296875 14.5253C0.296875 15.9926 0.390677 16.4079 0.784644 16.6201C0.906586 16.6939 1.44126 16.7678 1.98531 16.7955L2.97023 16.8416L3.03589 17.5337C3.07341 17.9121 3.13907 18.3366 3.18597 18.4658C3.28915 18.7242 4.78998 20.5607 5.25899 20.9852C5.49349 21.2066 5.64358 21.262 6.08444 21.2897C6.96618 21.3451 7.02246 21.3728 7.08812 21.7234C7.27573 22.6924 8.1856 23.7906 9.18928 24.252C9.66767 24.4735 9.83651 24.5012 10.7558 24.5012C11.7219 24.5012 11.8251 24.4827 12.4161 24.2059C12.7631 24.049 13.2415 23.726 13.476 23.4861C13.9075 23.0616 14.4609 22.0833 14.4609 21.7327C14.4609 21.4004 14.6016 21.3082 15.0238 21.3358C15.4271 21.3635 15.4365 21.3728 15.549 21.788C15.8117 22.8216 16.6278 23.7906 17.6314 24.252C18.1098 24.4735 18.2787 24.5012 19.1979 24.5012C20.1266 24.5012 20.286 24.4735 20.7738 24.252C21.8244 23.7629 22.4904 23.0154 22.8187 21.9449L23.0157 21.3174H25.3044C27.5744 21.3174 27.5932 21.3174 27.7245 21.1144C28.0153 20.6714 28.0059 20.4222 27.7058 20.1177L27.4243 19.8408H25.1637H22.9125L22.5654 19.1948C21.618 17.4138 19.3949 16.6847 17.5752 17.5522C16.9185 17.8567 16.14 18.6319 15.8211 19.2871L15.549 19.8408H15.0144H14.4703L14.1233 19.1948C12.6881 16.5002 8.70151 16.5463 7.38829 19.2687C7.10688 19.8408 7.10688 19.8408 6.71292 19.8408C6.32833 19.8408 6.29081 19.8132 5.75614 19.1672C4.71494 17.9121 4.61176 17.7368 4.61176 17.2384V16.7955H18.8227H33.0337V18.3181V19.8408H31.5891C30.2759 19.8408 30.1258 19.8593 29.9007 20.0346C29.6099 20.2653 29.5724 20.7914 29.8257 21.1051C29.9851 21.2989 30.0508 21.2989 32.6866 21.3358C35.6414 21.3728 35.5007 21.3451 35.6039 21.9541C35.6789 22.434 36.3824 23.4215 36.9265 23.8275C37.7144 24.4181 38.2678 24.5658 39.4122 24.5289C40.1814 24.5012 40.4816 24.4458 40.7723 24.2982C41.8792 23.726 42.6765 22.7201 42.9204 21.5758L42.9767 21.3266L45.1623 21.2989L47.3572 21.2712L47.7043 21.0036C48.3328 20.5422 48.3234 20.5976 48.3234 15.8726V11.6275L47.0008 8.87747C44.7683 4.24481 44.0554 2.90668 43.6521 2.60215C42.8266 1.95616 42.6015 1.90079 40.9412 1.86387C39.506 1.82696 39.4216 1.83619 39.234 2.02076C38.962 2.28838 38.9713 2.80517 39.2528 3.08203C39.4497 3.27582 39.5904 3.30351 40.6785 3.35888C41.4571 3.40502 42.0011 3.47885 42.1981 3.57113C42.5077 3.70956 42.9767 4.18021 42.9767 4.34632C42.9767 4.39246 41.8229 4.42937 40.1626 4.42937H37.3486L36.9921 4.74314L36.6451 5.06614V6.15509C36.6451 7.17945 36.6638 7.28096 36.9358 7.85312C37.2829 8.57294 37.7332 9.02513 38.6149 9.53269C39.3559 9.9572 42.4795 11.4522 42.9673 11.6183C43.1549 11.6737 43.9428 11.7198 44.909 11.7198H46.5318L46.6819 11.9967C46.7663 12.1536 46.8507 12.5412 46.8882 12.8642L46.9445 13.4548L45.7626 13.4917C44.6276 13.5194 44.5619 13.5286 44.3368 13.7593C44.1961 13.8885 44.0554 14.1561 44.0085 14.3592C43.9616 14.553 43.9147 15.8726 43.9147 17.2753V19.8408H43.4082H42.9016L42.639 19.3056C42.1325 18.272 40.8474 17.3399 39.7499 17.2107C39.112 17.1277 38.1177 17.2846 37.5549 17.543C36.9265 17.8383 35.8946 18.8719 35.7539 19.3517C35.632 19.7393 35.4538 19.8408 34.8534 19.8408H34.6283V11.5814V3.32196H35.707C36.7389 3.32196 36.8045 3.31273 37.0203 3.09125C37.3204 2.80517 37.3392 2.29761 37.0672 2.02999C36.8983 1.86387 36.7576 1.84542 35.7633 1.84542H34.6565L34.5908 1.42091C34.5627 1.18097 34.5345 0.848747 34.5345 0.682634C34.5345 0.258127 34.2531 -0.000267029 33.8029 -0.000267029C33.6059 -0.000267029 33.3526 0.0643311 33.2401 0.147387ZM20.089 2.12227C20.6894 2.25147 21.1865 2.47295 21.7306 2.84208C22.3028 3.23891 23.2971 4.06947 23.2502 4.11561C23.2314 4.14329 22.406 4.19866 21.4304 4.25403L19.6388 4.34632L18.2036 4.0141C14.93 3.25736 13.8137 3.02666 13.1196 2.95283C12.7162 2.91591 12.3692 2.86054 12.341 2.83286C12.2472 2.74057 14.0295 2.31607 15.399 2.09458C15.8961 2.01153 19.6857 2.03921 20.089 2.12227ZM14.5078 4.78928C15.1832 4.93694 16.3651 5.21379 17.1343 5.39836C18.8321 5.80441 19.6951 5.88747 21.543 5.78595C22.3215 5.74904 23.6254 5.7029 24.4508 5.69367L25.9517 5.67521L26.5145 5.98898C26.824 6.15509 27.096 6.31197 27.1148 6.33043C27.1429 6.34889 26.9835 6.515 26.7771 6.69034C26.2987 7.09639 26.0924 7.51167 26.0924 8.10229C26.0924 8.86825 26.3081 9.24661 27.0679 9.79109L27.4337 10.0587H26.8146H26.1862L25.9517 9.59729C25.6609 9.03436 25.1168 8.48065 24.5728 8.19457C24.2257 8.01 24.0287 7.98232 23.2314 7.98232C22.4341 7.98232 22.2371 8.01 21.89 8.19457C21.271 8.51757 20.7738 9.00667 20.5112 9.56038L20.2673 10.0587H17.2281H14.1795L13.945 9.59729C13.4291 8.60062 12.5661 8.03769 11.4499 7.95463C10.1836 7.87158 9.04858 8.48065 8.51391 9.54192L8.24188 10.0772L7.66969 10.0126C6.99432 9.93874 6.55345 9.75417 6.30019 9.44041C6.11258 9.20047 5.28713 7.1979 5.04324 6.39503L4.90254 5.90592L6.09382 5.54601C9.38627 4.53089 9.9866 4.42015 11.8814 4.47552C13.007 4.5032 13.5323 4.5678 14.5078 4.78928ZM39.506 7.05947C39.506 7.69624 39.4779 8.21303 39.431 8.21303C39.3935 8.21303 39.2058 8.09306 39.0182 7.93618C38.5774 7.57627 38.1928 6.81954 38.1928 6.30275V5.90592H38.8494H39.506V7.05947ZM44.7589 7.9454C45.303 9.07127 45.7532 10.0218 45.772 10.0587C45.7907 10.0956 45.303 10.151 44.6933 10.1695L43.5864 10.2248L42.3482 9.6342L41.1006 9.05281V7.48398V5.90592H42.442L43.774 5.91515L44.7589 7.9454ZM29.3191 8.02846C29.6568 8.28686 29.9382 8.52679 29.9382 8.57294C29.9382 8.87747 29.291 8.92362 28.428 8.67445C28.0528 8.57294 27.6588 8.24994 27.7151 8.09306C27.762 7.93618 28.3436 7.56704 28.5312 7.56704C28.6156 7.56704 28.9721 7.77929 29.3191 8.02846ZM12.1722 9.90183C12.9132 10.6955 12.6881 11.8121 11.7126 12.172C10.8027 12.5135 9.81775 11.8398 9.81775 10.88C9.81775 10.3817 10.0241 10.0495 10.5306 9.70803C10.7933 9.52346 10.934 9.49578 11.3561 9.53269C11.797 9.56038 11.9095 9.61575 12.1722 9.90183ZM23.8224 9.6342C25.1637 10.3171 24.6853 12.2735 23.1845 12.2735C22.5373 12.2735 21.8807 11.646 21.8056 10.9539C21.7024 10.0033 22.9406 9.18201 23.8224 9.6342ZM20.3517 11.8767C20.408 12.0613 20.4361 12.2366 20.4174 12.2551C20.3986 12.2735 18.9165 12.3197 17.1249 12.3474C13.9544 12.3935 13.87 12.3935 13.9357 12.2182C13.9826 12.1259 14.0576 11.9321 14.1045 11.7844L14.1983 11.5353H17.2187H20.2485L20.3517 11.8767ZM33.0337 14.5806V15.3189H17.4157H1.7977V14.5806V13.8424H17.4157H33.0337V14.5806ZM46.9164 15.6419V16.334H46.2128H45.5093V15.6419V14.9498H46.2128H46.9164V15.6419ZM46.8976 18.6873C46.8788 19.1672 46.8226 19.6009 46.7663 19.6563C46.7194 19.7024 46.4098 19.7762 46.0909 19.8039L45.5093 19.8685V18.8349V17.8106H46.2222H46.9351L46.8976 18.6873ZM11.4311 18.8719C12.3223 19.1303 12.9132 19.9424 12.9038 20.9021C12.8945 22.1849 11.9377 23.0339 10.5963 22.96C9.79899 22.9139 9.28308 22.5817 8.90788 21.8711C8.27003 20.6991 8.83284 19.3148 10.1085 18.8719C10.5869 18.7057 10.8496 18.7057 11.4311 18.8719ZM20.0515 18.9549C20.6143 19.2133 21.1771 19.8316 21.3179 20.3392C21.4586 20.8375 21.2897 21.6219 20.952 22.1018C20.8113 22.3048 20.483 22.5909 20.2297 22.7293C19.817 22.9508 19.6763 22.9785 19.0854 22.96C18.2224 22.9231 17.7252 22.6186 17.35 21.8803C16.7497 20.7175 17.1718 19.5086 18.3537 18.9549C18.9447 18.6781 19.4418 18.6781 20.0515 18.9549ZM39.8906 18.8719C40.6879 19.1487 41.3727 20.0439 41.382 20.8006C41.3914 22.0187 40.4253 22.9785 39.1871 22.9785C37.5643 22.9785 36.5419 21.2528 37.3486 19.8685C37.9114 18.9088 38.8869 18.5304 39.8906 18.8719Z" fill="#203066"/>
</g>
<defs>
<clipPath id="clip0_13605_34038">
<rect width="48" height="24.7742" fill="white" transform="translate(0.296875)"/>
</clipPath>
</defs>
</svg>
