<svg width="40" height="40" viewBox="0 0 40 40" fill="none" xmlns="http://www.w3.org/2000/svg">
<path d="M10 13.3334H20C20 15.1743 18.5076 16.6667 16.6667 16.6667H10V13.3334Z" fill="#FF008A"/>
<path d="M28.3333 30L26.25 31.6667V32.9167H28.3333H36.25L35.4167 31.6667L34.1667 30.8333H32.0833L30.4167 30H28.3333Z" fill="#FF008A"/>
<path d="M3.33203 36.25C3.33203 35.0994 4.26477 34.1666 5.41536 34.1666H21.6654V38.3333H5.41537C4.26478 38.3333 3.33203 37.4006 3.33203 36.25Z" fill="#FF008A"/>
<path d="M18.332 2.5H24.9987V6.66667H22.4987C20.1975 6.66667 18.332 4.80119 18.332 2.5Z" fill="#FF008A"/>
<path d="M20.3752 1.40625C19.1877 1.54688 18.1877 2.03906 17.297 2.92969C16.7814 3.44531 16.6017 3.6875 16.3048 4.29688C15.7033 5.52344 15.5314 6.875 15.9377 7.20312C16.0861 7.32031 16.2736 7.34375 17.2345 7.34375H18.3595V8.00781V8.67188H17.9767C17.6798 8.67188 17.5392 8.71875 17.3673 8.85938L17.1486 9.04688L17.1252 10.6953L17.1017 12.3438H16.5314H15.9611L15.922 11.5781C15.8908 10.9766 15.8439 10.7188 15.6877 10.375C15.3283 9.59375 14.5939 8.94531 13.8048 8.71094L13.4767 8.61719L13.4377 7.39062C13.3986 6.21094 13.3908 6.14844 13.2111 6.00781C13.1095 5.92969 12.9142 5.85938 12.7736 5.85938H12.5236L12.4767 5.28906C12.4455 4.98438 12.4064 4.25 12.3752 3.67188C12.3283 2.50781 12.2502 2.14844 12.0314 2.03125C11.9455 1.98438 11.0627 1.95312 9.89859 1.95312C7.45328 1.95312 7.58609 1.89844 7.50016 2.97656C7.46109 3.38281 7.41422 4.19531 7.38297 4.78125L7.32828 5.85938H7.03922C6.83609 5.85938 6.69547 5.91406 6.57828 6.03906C6.42203 6.20312 6.40641 6.3125 6.39078 7.41406L6.36734 8.61719L6.05484 8.71094C5.56266 8.85156 5.14078 9.10156 4.81266 9.42969C4.16422 10.0703 3.90641 10.7188 3.90641 11.6953V12.3438H2.82047C1.86734 12.3438 1.71109 12.3594 1.55484 12.4922L1.36734 12.6406V15.0625C1.36734 17.9219 1.33609 17.8125 2.15641 17.8125H2.64859L2.67203 26.6953L2.69547 35.5859L2.87516 36.0469C3.33609 37.2578 4.24234 38.125 5.42984 38.4922C5.87516 38.625 6.61734 38.6328 21.7189 38.6328C37.0783 38.6328 37.547 38.625 37.8361 38.4844C38.0002 38.4062 38.2267 38.2109 38.3439 38.0625L38.5548 37.7891L38.5783 35.6719C38.5939 34.5078 38.5783 33.4766 38.5548 33.3828C38.4923 33.1094 38.1173 32.7266 37.7736 32.5703C37.5783 32.4766 37.2736 32.4219 36.9455 32.4219H36.4377L36.258 32C35.7345 30.7344 34.2892 30.0469 33.0236 30.4453L32.5627 30.5859L32.2267 30.2734C31.3908 29.5 30.5002 29.1797 29.3361 29.2344C28.5392 29.2812 27.9611 29.4688 27.3439 29.8906L26.9533 30.1562V29.2969V28.4375L27.2111 28.5938C27.5548 28.8047 27.8595 28.7891 28.0861 28.5547C28.3205 28.3281 28.3361 27.9844 28.133 27.7266C28.0548 27.625 27.758 27.3828 27.4689 27.1875L26.9533 26.8359V22.3281V17.8125H27.4533C27.9064 17.8125 27.9767 17.7891 28.1173 17.6094C28.2736 17.4062 28.2814 17.3125 28.2814 15.0781C28.2814 12.8438 28.2736 12.75 28.1173 12.5469L27.9611 12.3438H26.1642H24.3752V10.7109C24.3752 8.8125 24.3595 8.76562 23.7267 8.69531L23.3595 8.64844V8.00781V7.35938L23.8908 7.32812C24.3752 7.29688 24.422 7.30469 24.5705 7.49219C24.6564 7.60156 24.9064 7.875 25.1252 8.10156C25.7892 8.75781 27.297 9.375 27.7189 9.14844C27.9923 9 28.1486 8.71094 28.0861 8.44531C28.0236 8.13281 27.8517 8.00781 27.3048 7.85156C26.2111 7.54688 25.5314 6.86719 25.3595 5.92969C25.3127 5.67969 25.3361 5.64062 25.508 5.5625C25.6252 5.50781 26.1017 5.46875 26.6408 5.46875C27.1642 5.46875 27.6564 5.42969 27.7658 5.38281C28.0939 5.22656 28.133 4.99219 28.1095 3.29688C28.0861 1.78125 28.0783 1.71875 27.9064 1.54688L27.7267 1.36719L24.3127 1.35938C22.4377 1.35156 20.6642 1.375 20.3752 1.40625ZM24.8439 3.55469V4.44531L24.6173 4.5625C24.2814 4.74219 23.6877 5.44531 23.5861 5.78906L23.4923 6.09375H20.258C18.4845 6.09375 17.0314 6.08594 17.0314 6.07031C17.0314 5.91406 17.3361 5.09375 17.5158 4.74219C17.8127 4.1875 18.6564 3.375 19.2423 3.08594C20.0392 2.70312 20.2736 2.67188 22.6408 2.66406L24.8439 2.65625V3.55469ZM26.797 3.4375V4.21875H26.4455H26.0939V3.4375V2.65625H26.4455H26.797V3.4375ZM11.133 4.39062C11.1564 5.04688 11.2033 5.64844 11.2189 5.71875C11.258 5.85156 11.1564 5.85938 9.92203 5.85938H8.57828L8.62516 5.36719C8.64859 5.10156 8.68766 4.50781 8.71891 4.03906L8.76578 3.20312H9.92203H11.0783L11.133 4.39062ZM12.1877 7.85156V8.59375H9.92203H7.65641V7.85156V7.10938H9.92203H12.1877V7.85156ZM22.0314 8.00781V8.67188H20.8205H19.6095V8.00781V7.34375H20.8205H22.0314V8.00781ZM13.4611 9.95312C14.2189 10.2266 14.6095 10.8125 14.672 11.7656L14.7111 12.3438H9.92984H5.15641V11.8125C5.16422 10.9375 5.50016 10.3672 6.21109 10.0312L6.60172 9.84375L9.88297 9.85156C12.422 9.85156 13.2345 9.875 13.4611 9.95312ZM23.1252 11.1719V12.3438H20.7814H18.4377V11.1719V10H20.7814H23.1252V11.1719ZM9.45328 15.0781V16.5625H6.05484H2.65641V15.0781V13.5938H6.05484H9.45328V15.0781ZM19.3752 16.4766V19.3672L19.1642 19.2578C19.047 19.1953 18.8595 19.1641 18.7502 19.1953C18.3048 19.2969 18.3205 19.1016 18.2814 23.6406L18.2423 27.8281L18.0548 27.9766C17.8361 28.1562 17.7345 28.1641 17.5314 28.0156C17.3908 27.9062 17.383 27.7578 17.3439 24.4922L17.3048 21.0781L17.1173 20.9297C16.883 20.7422 16.4767 20.7422 16.2423 20.9297L16.0548 21.0781L16.0314 25.1875L16.008 29.2969L15.8127 29.4219C15.5705 29.5859 15.2658 29.4766 15.1564 29.1719C15.1095 29.0547 15.0783 27.4141 15.0783 25.0312C15.0783 21.1953 15.0705 21.0859 14.922 20.9375C14.6798 20.6953 14.1955 20.7266 13.9923 20.9844C13.8283 21.1875 13.8283 21.2734 13.8283 24.5C13.8283 27.7109 13.8205 27.8203 13.672 27.9688C13.4689 28.1719 13.3127 28.1641 13.0861 27.9297L12.8908 27.7422V24.4453C12.8908 21.1641 12.8908 21.1406 12.7189 20.9609C12.5002 20.7266 12.0705 20.7188 11.8205 20.9531L11.6408 21.1172V23.375V25.6328L11.4455 25.8203C11.2189 26.0547 11.172 26.0625 10.9064 25.8516L10.7033 25.6953V19.6406V13.5938H15.0392H19.3752V16.4766ZM27.0314 15.0781V16.5625H23.8283H20.6252V15.0781V13.5938H23.8283H27.0314V15.0781ZM9.45328 21.8906C9.45328 25.8672 9.46109 25.9766 9.61734 26.3047C9.92203 26.9297 10.6173 27.3203 11.3205 27.25L11.6408 27.2188V27.5703C11.6408 28.1094 11.8048 28.5234 12.1564 28.8828C12.5236 29.25 12.9377 29.3984 13.5002 29.3672C13.8283 29.3438 13.8595 29.3594 13.9142 29.5547C14.1877 30.5859 15.3752 31.0859 16.383 30.5859C16.8048 30.375 17.1564 29.9609 17.2345 29.5703C17.2736 29.3359 17.2814 29.3359 17.8048 29.3359C18.5158 29.3359 19.0002 29.0547 19.3127 28.4453L19.5314 28.0312V25.6094C19.5314 24.2812 19.5627 23.2031 19.5939 23.2188C19.633 23.2266 21.0236 24.2109 22.6798 25.3906L25.7033 27.5312V29.9766V32.4219H23.633C21.9455 32.4219 21.508 32.4453 21.2736 32.5391C20.883 32.7031 20.7111 32.8672 20.5392 33.2422C20.4142 33.5156 20.3908 33.7812 20.3908 35.4531V37.3438L13.1095 37.3281L5.82047 37.3047L5.42984 37.1094C4.92984 36.8672 4.46109 36.3906 4.21109 35.8984L4.02359 35.5078L4.00016 26.6562L3.98453 17.8125H6.71891H9.45328V21.8906ZM25.7033 21.875V25.9375L24.9064 25.3672C24.4611 25.0547 23.1408 24.1172 21.9689 23.2891L19.8361 21.7734L20.0861 21.5312C20.5627 21.0703 20.6252 20.8281 20.6252 19.2344V17.8125H23.1642H25.7033V21.875ZM30.3517 30.6328C30.8752 30.7891 31.2423 31.0859 31.883 31.8594C32.1486 32.1797 32.4533 32.1875 32.9455 31.875C33.3439 31.625 33.8517 31.5625 34.2736 31.7266C34.5002 31.8125 35.0002 32.25 35.0002 32.3594C35.0002 32.3906 33.2111 32.4219 31.0236 32.4219H27.0392L27.1252 32.1797C27.3595 31.5 28.0861 30.8125 28.8205 30.5938C29.3283 30.4297 29.7502 30.4453 30.3517 30.6328ZM37.2502 33.7344C37.3205 33.7891 37.3439 34.2031 37.3283 35.5547L37.3048 37.3047H29.4923H21.6798L21.6564 35.5938C21.6408 34.3984 21.6642 33.8516 21.7267 33.7812C21.8048 33.6875 23.0705 33.6719 29.4845 33.6719C33.6955 33.6719 37.1955 33.7031 37.2502 33.7344Z" fill="#393F4D"/>
<path d="M33.7499 8.33586C32.9218 8.47649 32.1171 8.89055 31.4765 9.50774C30.1327 10.8046 29.7968 12.7421 30.6249 14.4296C31.1015 15.3906 32.0937 16.2421 33.1171 16.5702C34.2109 16.9218 35.6718 16.7499 36.6015 16.164C38.6249 14.8984 39.2499 12.2265 37.9843 10.2734C37.0702 8.8593 35.3437 8.07024 33.7499 8.33586ZM35.6406 9.8593C36.2109 10.1249 36.7812 10.6952 37.0781 11.289C37.2812 11.7109 37.3046 11.8359 37.3046 12.539C37.3046 13.2421 37.2812 13.3671 37.0859 13.7734C36.7968 14.3515 36.2265 14.9218 35.6484 15.2109C35.2421 15.4062 35.1171 15.4296 34.414 15.4296C33.7109 15.4296 33.5859 15.4062 33.164 15.2031C32.5702 14.9062 32.0468 14.3827 31.7577 13.7968C31.4687 13.2031 31.3984 12.2577 31.5937 11.6562C31.8749 10.8124 32.4999 10.1484 33.3359 9.7968C33.9765 9.52336 34.9921 9.55461 35.6406 9.8593Z" fill="#393F4D"/>
<path d="M34.0098 10.4298C33.7754 10.5939 33.7129 10.9454 33.8614 11.2423C33.9864 11.4767 34.0567 11.5157 34.5489 11.6017C34.9239 11.6642 35.2911 12.0314 35.3536 12.4064C35.4395 12.9142 35.4786 12.9845 35.7442 13.0939C36.0489 13.2189 36.4395 13.1251 36.5645 12.8907C36.8145 12.4298 36.5411 11.5236 35.9864 10.9689C35.4004 10.3829 34.4473 10.1251 34.0098 10.4298Z" fill="#393F4D"/>
<path d="M30.7193 19.3437C29.399 20 29.1099 21.7969 30.1646 22.8203C31.2193 23.8515 32.9693 23.5625 33.6255 22.25C34.0318 21.4375 33.8443 20.3203 33.1959 19.7109C32.5552 19.1094 31.5005 18.9531 30.7193 19.3437ZM32.1099 20.5234C32.2349 20.5937 32.3912 20.7656 32.4693 20.8984C32.8599 21.625 31.9693 22.4765 31.274 22.039C30.7427 21.7109 30.6568 21.0781 31.0787 20.6875C31.4302 20.3594 31.7505 20.3047 32.1099 20.5234Z" fill="#393F4D"/>
</svg>
