<svg width="60" height="60" viewBox="0 0 60 60" fill="none" xmlns="http://www.w3.org/2000/svg">
<path d="M38.2029 2.69531C37.9451 2.95312 37.8982 3.44531 38.0857 3.91406C38.1678 4.16016 38.156 4.21875 37.9685 4.27734C37.8514 4.3125 37.3592 4.59375 36.8904 4.91016C34.4998 6.46875 32.742 8.85938 31.9451 11.6367C31.5232 13.1016 31.3357 15.0117 31.4998 16.3359L31.617 17.3906L31.1131 17.8828C30.1639 18.7969 30.117 20.1094 30.9724 21.0586C31.2068 21.3047 31.5935 21.5391 31.992 21.6797L32.6365 21.9023L32.8826 22.7812C33.1873 23.8477 33.3748 24.1641 33.9959 24.5742C34.3592 24.8086 34.6404 24.8906 35.3435 24.9375C36.3279 24.9961 36.3162 24.9844 35.8357 25.957C35.3553 26.918 35.9529 26.8359 29.2264 26.8359H23.2029L22.9217 26.3906C22.7576 26.1562 22.5467 25.7344 22.4529 25.4531L22.2771 24.9609H22.8279C23.5779 24.9609 24.1756 24.7734 24.6092 24.4102C25.0662 24.0352 25.3006 23.5781 25.5349 22.6406L25.7224 21.8906L26.3435 21.6914C27.0818 21.4336 27.492 21.082 27.7849 20.4492C28.0662 19.8516 28.0662 19.1719 27.7849 18.5625C27.574 18.1055 27.0232 17.5781 26.5896 17.4258C26.4724 17.3906 26.3787 17.168 26.3318 16.8516C26.2967 16.582 26.1209 15.9258 25.9451 15.4102C24.4334 10.8984 20.6482 7.72266 16.031 7.08984L15.4685 7.01953V6.55078C15.4685 5.94141 15.1521 5.625 14.5545 5.625C13.992 5.625 13.7107 5.90625 13.6287 6.53906L13.5701 7.00781L12.5154 7.19531C7.8162 8.0625 4.13651 11.5781 2.92948 16.3711C2.78885 16.8984 2.61307 17.332 2.49588 17.4023C2.39041 17.4609 2.1326 17.6602 1.93338 17.8477C0.527133 19.0312 1.15995 21.4219 2.95291 21.7383C3.35135 21.8203 3.40995 21.8672 3.51541 22.3125C3.80838 23.4258 4.0076 23.8828 4.37088 24.2344C4.82791 24.6797 5.47245 24.9609 6.04666 24.9609C6.4451 24.9609 6.46854 24.9727 6.38651 25.2773C6.35135 25.4648 6.16385 25.8633 5.98807 26.1914L5.65995 26.7773L3.53885 26.8359L1.42948 26.8945L0.984164 27.2578C0.234164 27.8555 0.0701018 28.1602 0.0232268 29.0508C-0.0119294 29.6836 0.0232268 29.9414 0.222446 30.3164C0.491977 30.8438 0.960727 31.2891 1.49979 31.5117L1.86307 31.6641L1.89823 33.8438C1.93338 36.3516 2.03885 36.7148 2.98807 37.6641C3.83182 38.5078 4.42948 38.7305 5.80057 38.7305C7.10135 38.7305 7.65213 38.543 8.40213 37.8281L8.77713 37.4648L9.26932 37.8984C10.6756 39.0938 12.9959 39.0938 14.3904 37.8984L14.8826 37.4766L15.2928 37.8398C16.0076 38.4609 16.617 38.707 17.6014 38.7656C18.7029 38.8359 19.5349 38.5898 20.3435 37.9805L20.9178 37.5469L21.5037 37.9805C22.3474 38.6016 23.1209 38.8359 24.2342 38.7656C25.2303 38.707 25.9334 38.4258 26.5662 37.8281L26.9412 37.4648L27.4334 37.8984C28.8396 39.0938 31.1599 39.0938 32.5662 37.8984L33.0584 37.4648L33.4334 37.8281C34.0662 38.4258 34.7693 38.707 35.7654 38.7656C36.867 38.8359 37.699 38.5898 38.5076 37.9805L39.0818 37.5469L39.656 37.9805C41.1678 39.1289 43.4295 39.0469 44.7303 37.8281L45.1053 37.4648L45.5974 37.8984C47.0037 39.0938 49.324 39.0938 50.7303 37.8984L51.2225 37.4648L51.5975 37.8281C52.3475 38.543 52.8982 38.7305 54.199 38.7305C55.1951 38.7305 55.4529 38.6836 55.9334 38.4492C56.6717 38.0859 57.4217 37.3359 57.7732 36.6211C58.0428 36.0703 58.0662 35.8945 58.1014 33.8672L58.1365 31.6992L58.6756 31.4062C58.9803 31.2422 59.3787 30.9141 59.5779 30.668C59.9178 30.2461 59.9412 30.1523 59.9412 29.2383C59.9412 28.1484 59.8357 27.9141 59.0154 27.2578L58.5701 26.8945L55.7693 26.8594L52.9685 26.8242L52.6756 26.4375C52.4412 26.1328 52.031 25.2188 52.031 25.0078C52.031 24.9844 52.1834 24.9609 52.3709 24.9609C52.5467 24.9609 52.8748 24.9023 53.0975 24.8203C53.9998 24.5156 54.4217 23.9531 54.785 22.582C54.949 21.9375 55.031 21.7969 55.2303 21.7969C55.7342 21.7969 56.5076 21.3047 56.8475 20.7656C57.6326 19.5352 57.0701 17.8711 55.7107 17.4023C55.3475 17.2852 55.242 17.168 55.1365 16.8047C54.9139 16.0547 54.6443 15.6445 54.0818 15.1406C53.1326 14.3086 51.9373 14.1094 50.4959 14.5312C49.9568 14.6836 49.9451 14.6836 49.3826 14.2734C49.0662 14.0391 48.574 13.7812 48.2928 13.6875C48.0115 13.582 47.824 13.4766 47.8826 13.4414C47.9412 13.418 49.1248 12.9492 50.5076 12.4219C53.6951 11.2031 53.6951 11.2031 53.9529 10.7695C54.2693 10.2422 54.1404 9.65625 53.5193 8.69531C51.6209 5.76562 48.3514 3.66797 44.8943 3.15234C43.7576 2.98828 41.6599 3.07031 40.6404 3.31641C40.0193 3.46875 39.9607 3.46875 39.9021 3.26953C39.867 3.16406 39.7264 2.92969 39.5974 2.76562C39.2928 2.37891 38.5545 2.34375 38.2029 2.69531ZM45.0818 5.10938C47.0623 5.51953 48.7029 6.35156 50.156 7.69922C51.1756 8.64844 51.9959 9.69141 51.8435 9.83203C51.6326 10.0195 33.5037 16.8984 33.4217 16.8164C33.3748 16.7812 33.3514 16.043 33.3514 15.1992C33.3631 13.9453 33.4217 13.4414 33.6678 12.5273C34.8631 8.01562 38.6482 4.98047 43.1599 4.93359C43.7224 4.92188 44.5896 5.00391 45.0818 5.10938ZM16.4998 9.09375C19.9099 9.79688 22.8162 12.3398 24.0232 15.6797C24.199 16.1836 24.3748 16.7227 24.4217 16.8984L24.492 17.2266H14.5896C8.84745 17.2266 4.68729 17.1797 4.68729 17.1211C4.68729 16.7812 5.24979 15.2695 5.6951 14.4141C7.20682 11.543 9.97245 9.51562 13.1248 8.98828C13.8514 8.87109 15.6795 8.91797 16.4998 9.09375ZM43.8279 15.0586C43.8279 15.0938 43.7224 15.3398 43.5818 15.6094C43.4412 15.8789 43.3006 16.3359 43.2537 16.6289L43.1834 17.168L40.6053 17.1914L38.0271 17.2148L38.9646 16.8516C39.4803 16.6523 40.7459 16.1602 41.7771 15.75C43.7224 15 43.8279 14.9531 43.8279 15.0586ZM48.1756 15.7734C49.3357 16.5586 50.074 16.7109 51.0935 16.3477C51.3631 16.2539 51.7381 16.1719 51.9139 16.1719C52.2771 16.1719 52.9217 16.5703 53.1795 16.957L53.3435 17.2266H49.2303C45.1639 17.2266 45.117 17.2266 45.117 16.9922C45.117 16.4648 45.7029 15.7148 46.2889 15.4805C46.9099 15.2344 47.5193 15.3281 48.1756 15.7734ZM25.9685 19.2656C26.1443 19.4062 26.1678 19.4766 26.0623 19.6523C25.9334 19.8516 25.406 19.8633 14.5896 19.8633C4.13651 19.8633 3.23416 19.8516 3.1287 19.6641C3.03495 19.5234 3.04666 19.418 3.15213 19.2891C3.29276 19.125 4.42948 19.1016 14.5193 19.1016C24.1053 19.1016 25.7693 19.125 25.9685 19.2656ZM55.2303 19.3594C55.324 19.5 55.3123 19.6055 55.2068 19.7344C55.0662 19.8984 53.9178 19.9219 43.781 19.9219C32.5428 19.9219 32.2264 19.9102 32.2264 19.5586C32.2264 19.5117 32.3084 19.3828 32.4139 19.2891C32.5779 19.1133 33.7381 19.1016 43.8514 19.125C54.2107 19.1602 55.1248 19.1719 55.2303 19.3594ZM23.7185 22.1133C23.6717 22.3008 23.5779 22.5703 23.5076 22.7344L23.3787 23.0273L14.6248 23.0625L5.87088 23.0859L5.6951 22.8281C5.60135 22.6758 5.49588 22.3828 5.44901 22.1719L5.36698 21.7969H14.5779H23.7889L23.7185 22.1133ZM52.91 22.2305C52.7459 23.1562 53.5193 23.0859 43.7224 23.0625L34.9803 23.0273L34.8514 22.7344C34.781 22.5703 34.6873 22.3008 34.6404 22.1133L34.5701 21.7969H43.781H52.992L52.91 22.2305ZM20.6365 25.8984L20.9295 26.8359H14.3904C10.7928 26.8359 7.85135 26.8125 7.85135 26.7773C7.85135 26.7539 7.93338 26.5547 8.02713 26.3438C8.12088 26.1328 8.24979 25.7344 8.3201 25.4531L8.44901 24.9609H14.3904L20.3318 24.9727L20.6365 25.8984ZM50.156 25.1953C50.156 25.3242 50.2615 25.7344 50.3904 26.0977C50.5193 26.4727 50.6248 26.7891 50.6248 26.8008C50.6248 26.8242 47.6951 26.8359 44.1209 26.8359C40.5467 26.8359 37.617 26.8242 37.617 26.8008C37.617 26.7891 37.7224 26.4727 37.8514 26.0977C37.9803 25.7344 38.0857 25.3242 38.0857 25.1953C38.0857 24.9609 38.1443 24.9609 44.1209 24.9609C50.0974 24.9609 50.156 24.9609 50.156 25.1953ZM57.9842 28.8516C58.16 29.0273 58.16 29.4492 57.9842 29.625C57.785 29.8242 2.21463 29.8242 2.01541 29.625C1.93338 29.543 1.87479 29.3789 1.87479 29.2383C1.87479 29.0977 1.93338 28.9336 2.01541 28.8516C2.21463 28.6523 57.785 28.6523 57.9842 28.8516ZM7.85135 33.4453C7.85135 35.3789 7.78104 35.7305 7.28885 36.2461C6.83182 36.7266 6.42166 36.9141 5.78885 36.9141C5.07401 36.9141 4.39432 36.5273 4.03104 35.9062C3.76151 35.4609 3.74979 35.3203 3.74979 33.5391V31.6406H5.80057H7.85135V33.4453ZM13.9451 33.4219C13.9451 35.4844 13.8045 35.9414 13.0545 36.5156C12.6678 36.8086 12.5154 36.8555 11.8357 36.8555C11.1678 36.8555 10.992 36.8086 10.6287 36.5273C9.86698 35.9531 9.79666 35.6836 9.74979 33.5391L9.70291 31.6406H11.824H13.9451V33.4219ZM20.0154 33.4805C19.9803 35.1094 19.9451 35.3906 19.7107 35.8242C19.0896 37.0195 17.4724 37.2773 16.4764 36.3516C15.9021 35.8125 15.8201 35.4492 15.8201 33.457V31.6406H17.9412H20.0623L20.0154 33.4805ZM26.0154 33.4453C26.0154 35.3789 25.9451 35.7305 25.4529 36.2578C24.5154 37.2539 22.8865 37.0781 22.1951 35.9062C21.9256 35.4609 21.9139 35.3203 21.9139 33.5391V31.6406H23.9646H26.0154V33.4453ZM32.1092 33.4219C32.1092 35.4844 31.9685 35.9414 31.2185 36.5156C30.8318 36.8086 30.6795 36.8555 29.9998 36.8555C29.3201 36.8555 29.1678 36.8086 28.781 36.5156C28.031 35.9414 27.8904 35.4844 27.8904 33.4219V31.6406H29.9998H32.1092V33.4219ZM38.0857 33.5273C38.0857 35.2617 38.0623 35.4492 37.8279 35.8828C37.1834 37.0312 35.6131 37.2539 34.6404 36.3516C34.0662 35.8125 33.9842 35.4492 33.9842 33.457V31.6406H36.0349H38.0857V33.5273ZM44.1795 33.4453C44.1795 35.3789 44.1092 35.7305 43.617 36.2578C42.656 37.2773 40.9334 37.0547 40.2889 35.8242C40.0545 35.3906 40.0193 35.1094 39.9842 33.4805L39.9373 31.6406H42.0584H44.1795V33.4453ZM50.2498 33.5391C50.2029 35.6836 50.1326 35.9531 49.3709 36.5273C49.0076 36.8086 48.8318 36.8555 48.1639 36.8555C47.4842 36.8555 47.3318 36.8086 46.9451 36.5156C46.1951 35.9414 46.0545 35.4844 46.0545 33.4219V31.6406H48.1756H50.2967L50.2498 33.5391ZM56.2498 33.5273C56.2498 35.2617 56.2264 35.4492 55.992 35.8828C55.6404 36.5039 54.9256 36.9141 54.2107 36.9141C53.5779 36.9141 53.1678 36.7266 52.7107 36.2461C52.2185 35.7305 52.1482 35.3789 52.1482 33.4453V31.6406H54.199H56.2498V33.5273Z" fill="#111827"/>
<path d="M2.10938 39.2578C1.88672 39.4805 1.875 39.6445 1.875 43.7344C1.875 47.9414 1.875 48 2.15625 48.5742C2.46094 49.2305 3.21094 49.9687 3.85547 50.2383C4.08984 50.3437 4.73438 50.4492 5.30859 50.4844L6.32812 50.543V52.9336C6.32812 55.7812 6.41016 56.2266 7.07812 56.8945C8.13281 57.9375 10.1484 57.9375 11.2031 56.8945C11.8594 56.2266 11.9531 55.7344 11.9531 52.8516V50.5078H30.0469H48.1523L48.1875 53.2969L48.2227 56.0977L48.5391 56.5664C48.75 56.8945 49.0664 57.1523 49.5 57.3633C50.0742 57.6445 50.2617 57.6797 51.0586 57.6328C52.1719 57.5859 52.7695 57.3047 53.2617 56.6133L53.6133 56.1094L53.6484 53.332L53.6836 50.543L54.7031 50.4844C55.2656 50.4492 55.9102 50.3437 56.1445 50.2383C56.7891 49.9687 57.5391 49.2305 57.8438 48.5742C58.125 48 58.125 47.9414 58.125 43.7578V39.5273L57.8555 39.2812C57.5625 39.0117 57.082 38.9531 56.7188 39.1406C56.2969 39.3633 56.25 39.8789 56.25 43.8281C56.25 47.543 56.2383 47.6719 56.0039 47.9766C55.4531 48.6797 57.3984 48.6328 30 48.6328C2.97656 48.6328 4.60547 48.668 4.04297 48.0469C3.82031 47.8008 3.80859 47.5781 3.75 43.6523C3.69141 39.7969 3.67969 39.5039 3.46875 39.2695C3.16406 38.9414 2.4375 38.9297 2.10938 39.2578ZM10.0781 52.9102C10.0781 55.1602 10.0664 55.3242 9.84375 55.5469C9.69141 55.6992 9.45703 55.7812 9.14062 55.7812C8.82422 55.7812 8.58984 55.6992 8.4375 55.5469C8.21484 55.3242 8.20312 55.1602 8.20312 52.9102V50.5078H9.14062H10.0781V52.9102ZM51.7969 52.957C51.7969 55.7578 51.7852 55.7812 50.918 55.7812C50.0508 55.7812 50.0391 55.7578 50.0391 52.957V50.5078H50.918H51.7969V52.957Z" fill="#111827"/>
</svg>
