<svg width="60" height="60" viewBox="0 0 60 60" fill="none" xmlns="http://www.w3.org/2000/svg">
<path d="M30 57.9278C45.4238 57.9278 57.9273 45.4243 57.9273 30.0005C57.9273 14.5767 45.4238 2.07324 30 2.07324C14.5762 2.07324 2.07275 14.5767 2.07275 30.0005C2.07275 45.4243 14.5762 57.9278 30 57.9278Z" fill="#E7E3E6"/>
<path d="M30.0002 58.8002C14.1201 58.8002 1.2002 45.8803 1.2002 30.0002C1.2002 14.1201 14.1201 1.2002 30.0002 1.2002C45.8803 1.2002 58.8002 14.1201 58.8002 30.0002C58.8002 45.8803 45.8803 58.8002 30.0002 58.8002ZM30.0002 2.94565C15.082 2.94565 2.94565 15.082 2.94565 30.0002C2.94565 44.9184 15.082 57.0547 30.0002 57.0547C44.9183 57.0547 57.0547 44.9184 57.0547 30.0002C57.0547 15.082 44.9184 2.94565 30.0002 2.94565Z" fill="#D2D2D2"/>
<path d="M30 58.8002C20.6511 58.8002 13.0454 45.8803 13.0454 30.0002C13.0454 14.1201 20.6511 1.2002 30 1.2002C39.3483 1.2002 46.954 14.1201 46.954 30.0002C46.954 45.8803 39.3483 58.8002 30 58.8002ZM30 2.94565C21.6136 2.94565 14.7909 15.082 14.7909 30.0002C14.7909 44.9183 21.6136 57.0547 30 57.0547C38.3858 57.0547 45.2085 44.9184 45.2085 30.0002C45.2085 15.082 38.3858 2.94565 30 2.94565Z" fill="#D2D2D2"/>
<path d="M30.8729 2.07324H29.1274V57.9278H30.8729V2.07324Z" fill="#D2D2D2"/>
<path d="M30.0002 46.9545C14.1201 46.9545 1.2002 39.3488 1.2002 30.0005C1.2002 20.6516 14.1201 13.0459 30.0002 13.0459C45.8803 13.0459 58.8002 20.6516 58.8002 30.0005C58.8002 39.3488 45.8803 46.9545 30.0002 46.9545ZM30.0002 14.7914C15.082 14.7914 2.94565 21.6141 2.94565 30.0005C2.94565 38.3863 15.082 45.209 30.0002 45.209C44.9183 45.209 57.0547 38.3863 57.0547 30.0005C57.0547 21.6141 44.9184 14.7914 30.0002 14.7914Z" fill="#D2D2D2"/>
<path d="M57.9273 29.1279H2.07275V30.8734H57.9273V29.1279Z" fill="#D2D2D2"/>
<path d="M57.9271 18.4558C57.9271 26.2545 50.2018 32.352 50.2018 32.352C50.2018 32.352 42.4766 26.2545 42.4766 18.4558C42.4766 14.1892 45.9353 10.7305 50.2018 10.7305C54.4684 10.7305 57.9271 14.1892 57.9271 18.4558Z" fill="#FFC966"/>
<path d="M50.2017 23.0527C52.7406 23.0527 54.7988 20.9945 54.7988 18.4556C54.7988 15.9166 52.7406 13.8584 50.2017 13.8584C47.6627 13.8584 45.6045 15.9166 45.6045 18.4556C45.6045 20.9945 47.6627 23.0527 50.2017 23.0527Z" fill="white"/>
<path d="M17.7157 12.0183C17.7157 19.817 9.99042 25.9145 9.99042 25.9145C9.99042 25.9145 2.26514 19.817 2.26514 12.0183C2.26514 7.75171 5.72386 4.29297 9.99042 4.29297C14.257 4.29297 17.7157 7.75171 17.7157 12.0183Z" fill="#53B1E2"/>
<path d="M9.99024 16.6152C12.5292 16.6152 14.5874 14.557 14.5874 12.0181C14.5874 9.47912 12.5292 7.4209 9.99024 7.4209C7.45129 7.4209 5.39307 9.47912 5.39307 12.0181C5.39307 14.557 7.45129 16.6152 9.99024 16.6152Z" fill="white"/>
<path d="M33.8773 40.8376C33.8773 48.6363 26.152 54.7339 26.152 54.7339C26.152 54.7339 18.4268 48.6363 18.4268 40.8376C18.4268 36.571 21.8855 33.1123 26.152 33.1123C30.4186 33.1123 33.8773 36.571 33.8773 40.8376Z" fill="#EC6E62"/>
<path d="M26.1519 45.4346C28.6908 45.4346 30.749 43.3764 30.749 40.8374C30.749 38.2985 28.6908 36.2402 26.1519 36.2402C23.6129 36.2402 21.5547 38.2985 21.5547 40.8374C21.5547 43.3764 23.6129 45.4346 26.1519 45.4346Z" fill="white"/>
</svg>
