<svg width="158" height="172" viewBox="0 0 158 172" fill="none" xmlns="http://www.w3.org/2000/svg">
<path d="M100.745 33.6584L100.746 33.6583C105.696 32.9717 110.168 33.8206 113.735 36.118C117.307 38.4181 119.64 41.9599 120.659 46.0331L100.745 33.6584ZM100.745 33.6584C98.5979 33.9567 96.7957 34.3287 95.1966 34.6588M100.745 33.6584L95.1966 34.6588M96.9981 136.966L96.9646 136.964C95.1114 136.864 93.435 136.766 91.8993 136.676C81.3694 136.06 77.4534 135.831 68.4894 138.051C67.4249 138.315 66.0635 138.695 64.5122 139.127C60.7456 140.176 55.8596 141.538 51.3874 142.316C37.1285 144.799 21.425 137.443 17.9196 120.118C15.6102 108.709 19.4763 100.753 24.4692 92.6191L96.9981 136.966ZM96.9981 136.966L97.0316 136.967M96.9981 136.966L97.0316 136.967M97.0316 136.967C111.994 137.522 123.342 132.27 128.818 123.389M97.0316 136.967L128.818 123.389M95.1966 34.6588C90.4811 35.6321 87.5326 36.2407 82.7315 33.5188L95.1966 34.6588ZM128.818 123.389C134.36 114.401 133.106 102.968 125.429 93.0898M128.818 123.389L125.429 93.0898M125.429 93.0898C125.246 92.8542 125.066 92.6225 124.889 92.3946M125.429 93.0898L124.889 92.3946M124.889 92.3946C122.182 88.9117 120.17 86.324 118.673 84.1495M124.889 92.3946L118.673 84.1495M118.673 84.1495C117.085 81.8432 116.272 80.2742 115.871 78.9287M118.673 84.1495L115.871 78.9287M115.871 78.9287C115.12 76.4135 115.514 73.8579 117.805 66.6809M115.871 78.9287L117.805 66.6809M117.805 66.6809C118.067 65.8616 118.371 65.0045 118.689 64.1078M117.805 66.6809L118.689 64.1078M118.689 64.1078C120.392 59.3102 122.496 53.3787 120.659 46.0334L118.689 64.1078ZM82.7311 33.5186C66.8219 24.4966 54.8007 24.6986 46.8141 31.3856C39.3223 37.6584 36.9826 48.4548 37.2317 56.9816C37.5527 68.0056 36.0018 73.9544 33.8133 78.3926C32.685 80.6806 31.3274 82.6911 29.722 84.9433C29.4607 85.3098 29.1918 85.6842 28.9165 86.0673C27.5328 87.9935 25.9903 90.1405 24.4695 92.6186L82.7311 33.5186Z" fill="#ECECF5" stroke="#D8D9EA" stroke-width="8"/>
<path d="M120.61 14.728C116.21 14.728 112.61 18.328 112.61 22.728C112.61 27.128 116.21 30.728 120.61 30.728C125.01 30.728 128.61 27.128 128.61 22.728C128.61 18.328 125.01 14.728 120.61 14.728ZM123.61 21.828C123.41 21.928 123.21 22.028 123.01 22.028C122.71 22.028 122.41 21.828 122.21 21.628C121.81 21.128 121.21 20.728 120.61 20.728C120.01 20.728 119.61 20.328 119.61 19.728C119.61 19.128 120.01 18.728 120.61 18.728C121.91 18.728 123.11 19.328 123.91 20.428C124.21 20.928 124.11 21.528 123.61 21.828Z" fill="#ECECF5"/>
<path d="M107.61 14.728C104.81 14.728 102.61 12.528 102.61 9.72803C102.61 6.92803 104.81 4.72803 107.61 4.72803C110.41 4.72803 112.61 6.92803 112.61 9.72803C112.61 12.528 110.41 14.728 107.61 14.728Z" fill="#ECECF5"/>
<path d="M104.11 26.728C101.61 26.728 99.6099 24.728 99.6099 22.228C99.6099 19.728 101.61 17.728 104.11 17.728C106.61 17.728 108.61 19.728 108.61 22.228C108.61 24.728 106.61 26.728 104.11 26.728Z" fill="#ECECF5"/>
<path d="M117.61 7.72803C117.01 7.72803 116.61 7.32803 116.61 6.72803V3.72803C116.61 3.12803 117.01 2.72803 117.61 2.72803C118.21 2.72803 118.61 3.12803 118.61 3.72803V6.72803C118.61 7.32803 118.21 7.72803 117.61 7.72803Z" fill="#ECECF5"/>
<path d="M124.61 11.728H121.61C121.01 11.728 120.61 11.328 120.61 10.728C120.61 10.128 121.01 9.72803 121.61 9.72803H124.61C125.21 9.72803 125.61 10.128 125.61 10.728C125.61 11.328 125.21 11.728 124.61 11.728Z" fill="#ECECF5"/>
<path d="M120.41 8.92812C120.11 8.92812 119.91 8.82812 119.71 8.62812C119.31 8.22812 119.31 7.62812 119.71 7.22812L121.81 5.12813C122.21 4.72813 122.81 4.72813 123.21 5.12813C123.61 5.52813 123.61 6.12813 123.21 6.52813L121.11 8.62812C120.91 8.82812 120.71 8.92812 120.41 8.92812Z" fill="#ECECF5"/>
<g clip-path="url(#clip0_16414_36821)">
<g clip-path="url(#clip1_16414_36821)">
<path d="M124.604 138.429V117H112.359V59.8573V58.3267V42.5103H76.6443V56.796H46.032V117H33.7871V138.429H29.1953V141.49H129.195V138.429H124.604ZM46.032 138.429H36.8484V120.061H46.032V138.429ZM84.8076 138.429H73.5832V129.245H77.6648V133.837H80.726V129.245H84.8076V138.429ZM109.297 138.429H87.8687V129.245H91.4402V126.184H66.9504V129.245H70.5219V138.428H49.0934V122.102H109.297V138.429H109.297ZM55.2156 119.041V109.857H64.3992V119.041H55.2156ZM74.6035 119.041V109.857H83.7871V119.041H74.6035ZM93.9912 119.041V109.857H103.175V119.041H93.9912ZM109.297 119.041H106.236V106.796H90.9301V119.041H86.8484V106.796H71.5424V119.041H67.4607V106.796H52.1547V119.041H49.0936V103.735H109.298V119.041H109.297ZM109.297 100.674H49.0934V97.6124H109.297V100.674H109.297ZM55.2156 94.5511V85.3675H64.3992V94.5511H55.2156ZM74.6035 94.5511V85.3675H83.7871V94.5511H74.6035ZM93.9912 94.5511V85.3675H103.175V94.5511H93.9912ZM109.297 94.5511H106.236V82.3062H90.9301V94.5511H86.8484V82.3062H71.5424V94.5511H67.4607V82.3062H52.1547V94.5511H49.0936V78.2245H109.298V94.5511H109.297ZM55.2156 75.1634V65.9798H64.3992V75.1634H55.2156ZM74.6035 75.1634V65.9798H83.7871V75.1634H74.6035ZM93.9912 75.1634V65.9798H103.175V75.1634H93.9912ZM109.297 75.1634H106.236V62.9185H90.9301V75.1634H86.8484V62.9185H71.5424V75.1634H67.4607V62.9185H52.1547V75.1634H49.0936V59.8573H109.298V75.1634H109.297ZM109.297 56.796H79.7055V45.5716H109.297V56.796ZM121.542 138.429H112.359V120.061H121.542V138.429Z" fill="#282B8B"/>
<path d="M87.3585 49.6533H83.2769V52.7145H87.3585V49.6533Z" fill="#282B8B"/>
<path d="M93.4811 49.6533H89.3994V52.7145H93.4811V49.6533Z" fill="#282B8B"/>
<path d="M99.6036 49.6533H95.522V52.7145H99.6036V49.6533Z" fill="#282B8B"/>
<path d="M105.726 49.6533H101.644V52.7145H105.726V49.6533Z" fill="#282B8B"/>
<path d="M52.1545 125.163V135.367H63.379V125.163H52.1545ZM60.3178 132.306H55.2159V128.224H60.3178V132.306Z" fill="#282B8B"/>
<path d="M95.0117 125.163V135.367H106.236V125.163H95.0117ZM103.175 132.306H98.073V128.224H103.175V132.306Z" fill="#282B8B"/>
</g>
</g>
<defs>
<clipPath id="clip0_16414_36821">
<rect width="100" height="100" fill="white" transform="translate(29 41.728)"/>
</clipPath>
<clipPath id="clip1_16414_36821">
<rect width="100" height="100" fill="white" transform="translate(29.1953 42)"/>
</clipPath>
</defs>
</svg>
