<svg width="16" height="16" viewBox="0 0 16 16" fill="none" xmlns="http://www.w3.org/2000/svg">
<g clip-path="url(#clip0_16414_36143)">
<path d="M14.6086 13.9131H4.86948L4.17383 5.91309H15.3043L14.6086 13.9131Z" fill="#FF008A"/>
<path d="M15.3043 5.21777V5.91343L15.2438 6.60909H4.23433L4.17383 5.91343V5.21777H15.3043Z" fill="#203066" fill-opacity="0.54"/>
<path d="M15.9998 4.52183V5.21748C15.9998 5.6017 15.6883 5.91314 15.3041 5.91314H4.17368C3.78946 5.91314 3.47803 5.6017 3.47803 5.21748V4.52183C3.47803 4.13761 3.78946 3.82617 4.17368 3.82617H15.3041C15.6883 3.82617 15.9998 4.13761 15.9998 4.52183Z" fill="url(#paint0_linear_16414_36143)"/>
<path d="M14.9565 13.5655C14.9565 14.1417 14.4894 14.6089 13.9131 14.6089H11.7665C11.805 14.7177 11.8261 14.8348 11.8261 14.9567C11.8261 15.533 11.359 16.0002 10.7827 16.0002H1.04347C0.467156 16.0002 0 15.533 0 14.9568C0 14.3805 0.467156 13.9133 1.04347 13.9133H3.19003C3.15156 13.8045 3.13041 13.6875 3.13041 13.5655C3.13041 12.9892 3.59756 12.522 4.17387 12.522H13.913C14.4893 12.522 14.9565 12.9892 14.9565 13.5655ZM12.1053 4.86645C12.258 4.8813 12.4011 4.84586 12.5217 4.77598V6.24442C12.5217 6.62164 12.815 6.94289 13.192 6.9563C13.5878 6.97039 13.913 6.65373 13.913 6.26111V3.82633C13.913 3.63423 13.7573 3.47852 13.5652 3.47852H12.8695H12.5217H11.8261C11.634 3.47852 11.4782 3.63423 11.4782 3.82633V4.15833C11.4782 4.51892 11.7464 4.83155 12.1053 4.86645Z" fill="#448FFC"/>
<path d="M5.56536 13.5651C5.56536 13.7572 5.40964 13.913 5.21755 13.913H4.17408C3.98199 13.913 3.82627 13.7572 3.82627 13.5651C3.82627 13.373 3.98199 13.2173 4.17408 13.2173H5.21755C5.40964 13.2173 5.56536 13.373 5.56536 13.5651ZM3.82624 14.6086H1.04361C0.85152 14.6086 0.695801 14.7643 0.695801 14.9564C0.695801 15.1485 0.85152 15.3042 1.04361 15.3042H3.82621C4.0183 15.3042 4.17402 15.1485 4.17402 14.9564C4.17402 14.7643 4.01833 14.6086 3.82624 14.6086ZM13.2176 4.17383C13.0255 4.17383 12.8697 4.32955 12.8697 4.52164V6.26077C12.8697 6.45286 13.0255 6.60858 13.2176 6.60858C13.4096 6.60858 13.5654 6.45286 13.5654 6.26077V4.52164C13.5654 4.32955 13.4096 4.17383 13.2176 4.17383Z" fill="#448FFC"/>
<path d="M11.1303 11.8261H13.2173C14.7541 11.8261 15.9999 13.0719 15.9999 14.6087V15.6521C15.9999 15.8442 15.8441 15.9999 15.6521 15.9999H9.04334C7.50652 15.9999 6.26074 14.7541 6.26074 13.2174V10.7826C6.26074 10.3984 6.57218 10.0869 6.9564 10.0869H9.73899C10.1232 10.0869 10.4346 10.3984 10.4346 10.7826V11.1304C10.4346 11.5146 10.7461 11.8261 11.1303 11.8261Z" fill="#A89B80"/>
<path d="M16.0002 14.6086V15.9999H10.4349C8.89812 15.9999 7.65234 14.7541 7.65234 13.2174V10.7826C7.65234 10.3984 7.96378 10.0869 8.348 10.0869H9.73931C10.1235 10.0869 10.435 10.3984 10.435 10.7826V11.1304C10.435 11.5146 10.7464 11.826 11.1306 11.826H12.5219H13.2176C14.7543 11.826 16.0002 13.0719 16.0002 14.6086Z" fill="#C1B291"/>
<path d="M16 14.6088V16.0001H11.8261C10.2892 16.0001 9.04346 14.7543 9.04346 13.2175V11.8262C9.04346 13.363 10.2893 14.6088 11.8261 14.6088H16Z" fill="#A89B80"/>
<path d="M15.6268 13.2173H11.8261C10.2892 13.2173 9.04346 11.9715 9.04346 10.4347V10.0869H9.73911C10.1233 10.0869 10.4348 10.3984 10.4348 10.7826V11.1304C10.4348 11.5146 10.7462 11.826 11.1304 11.826H13.2174C14.2471 11.826 15.1456 12.3858 15.6268 13.2173Z" fill="#DBCBA1"/>
<path d="M9.04362 0.695656V8.34784V9.0435H7.65234V8.34781V0.695656C7.65234 0.311437 7.96378 0 8.34797 0C8.73219 0 9.04362 0.311437 9.04362 0.695656Z" fill="#203066" fill-opacity="0.51"/>
<path d="M8.34797 0.695656V9.04347H7.65234V0.695656C7.65234 0.311437 7.96378 0 8.34797 0C8.47481 0 8.59341 0.0345 8.69578 0.0938125C8.48809 0.214156 8.34797 0.438344 8.34797 0.695656Z" fill="#203066"/>
<path d="M10.7826 9.73894C10.7826 10.1232 10.4712 10.4346 10.087 10.4346H6.60874C6.22452 10.4346 5.91309 10.1232 5.91309 9.73894C5.91309 9.35472 6.22452 9.04328 6.60874 9.04328H7.3044V8.69547C7.3044 8.50337 7.46012 8.34766 7.65221 8.34766H9.04352C9.23562 8.34766 9.39134 8.50337 9.39134 8.69547V9.04328H10.087C10.4712 9.04328 10.7826 9.35472 10.7826 9.73894Z" fill="#FFC248"/>
<path d="M10.7826 9.7396H5.91309C5.91309 9.35538 6.22452 9.04395 6.60874 9.04395H10.087C10.4712 9.04395 10.7826 9.35538 10.7826 9.7396Z" fill="#FFFF63"/>
</g>
<defs>
<linearGradient id="paint0_linear_16414_36143" x1="3.62799" y1="3.82617" x2="14.5769" y2="9.56047" gradientUnits="userSpaceOnUse">
<stop stop-color="#FF008A"/>
<stop offset="1" stop-color="#203066"/>
</linearGradient>
<clipPath id="clip0_16414_36143">
<rect width="16" height="16" fill="white"/>
</clipPath>
</defs>
</svg>
