<svg width="86" height="86" viewBox="0 0 86 86" fill="none" xmlns="http://www.w3.org/2000/svg">
<path d="M61.3963 6.98272L61.3968 6.98265C64.7878 6.49603 67.7895 7.0713 70.1574 8.5816C72.5274 10.0932 74.0963 12.4371 74.7939 15.1737C76.0694 20.1762 74.6787 24.1729 73.474 27.6352C73.2432 28.2984 73.0193 28.942 72.8222 29.5694C71.2089 34.707 70.8291 36.8078 71.4681 38.9155C71.8009 40.0131 72.4517 41.2288 73.6222 42.9128C74.7223 44.4954 76.194 46.3716 78.1443 48.858C78.2757 49.0255 78.4092 49.1957 78.545 49.3689C83.9269 56.2322 84.7537 64.0614 81.0264 70.1728C77.3313 76.2314 69.54 79.9788 58.9726 79.6356L58.9558 79.635L58.939 79.6342C57.6105 79.5687 56.4062 79.5037 55.3005 79.444C47.7111 79.0342 44.7677 78.8752 38.1899 80.5382C37.3843 80.742 36.3775 81.0278 35.2423 81.35C32.547 82.1151 29.1274 83.0858 25.956 83.6529C16.0769 85.4214 5.27545 80.3771 2.80956 68.4681C1.17871 60.5957 3.78908 55.0994 7.32208 49.2807L61.3963 6.98272ZM61.3963 6.98272C59.9817 7.18609 58.7502 7.44736 57.6247 7.68614M61.3963 6.98272L57.6247 7.68614M57.6247 7.68614C54.1225 8.42917 51.6469 8.95437 47.8769 6.83895M57.6247 7.68614L47.8769 6.83895M47.8769 6.83895C36.5417 0.476759 28.3351 0.829287 23.0158 5.3275C17.9434 9.61689 16.3122 17.0675 16.516 23.0885L47.8769 6.83895ZM14.0386 38.9337C15.6791 35.566 16.7871 31.1245 16.516 23.0888L14.0386 38.9337ZM14.0386 38.9337C13.2016 40.6521 12.1967 42.1523 11.0437 43.7866M14.0386 38.9337L11.0437 43.7866M11.0437 43.7866C10.8539 44.0556 10.6595 44.3291 10.4614 44.6077M11.0437 43.7866L10.4614 44.6077M10.4614 44.6077C9.47218 45.9991 8.39042 47.5207 7.32221 49.2805L10.4614 44.6077Z" fill="#FFECF5" stroke="#FFECF5" stroke-width="4"/>
<g clip-path="url(#clip0_16414_36303)">
<path d="M79.2549 28.6924C75.8816 28.6924 73.1216 31.4234 73.1216 34.7613C73.1216 38.0993 75.8816 40.8303 79.2549 40.8303C82.6282 40.8303 85.3882 38.0993 85.3882 34.7613C85.3882 31.4234 82.6282 28.6924 79.2549 28.6924ZM81.5549 34.0786C81.4016 34.1545 81.2482 34.2303 81.0949 34.2303C80.8649 34.2303 80.6349 34.0786 80.4816 33.9269C80.1749 33.5476 79.7149 33.2441 79.2549 33.2441C78.7949 33.2441 78.4882 32.9407 78.4882 32.4855C78.4882 32.0303 78.7949 31.7269 79.2549 31.7269C80.2516 31.7269 81.1716 32.182 81.7849 33.0165C82.0149 33.3958 81.9382 33.851 81.5549 34.0786Z" fill="#FFECF5"/>
<path d="M69.2884 28.6917C67.1417 28.6917 65.4551 27.0227 65.4551 24.8986C65.4551 22.7744 67.1417 21.1055 69.2884 21.1055C71.4351 21.1055 73.1217 22.7744 73.1217 24.8986C73.1217 27.0227 71.4351 28.6917 69.2884 28.6917Z" fill="#FFECF5"/>
<path d="M66.6048 37.7954C64.6881 37.7954 63.1548 36.2781 63.1548 34.3816C63.1548 32.485 64.6881 30.9678 66.6048 30.9678C68.5215 30.9678 70.0548 32.485 70.0548 34.3816C70.0548 36.2781 68.5215 37.7954 66.6048 37.7954Z" fill="#FFECF5"/>
<path d="M76.9547 23.382C76.4947 23.382 76.188 23.0785 76.188 22.6233V20.3475C76.188 19.8923 76.4947 19.5889 76.9547 19.5889C77.4147 19.5889 77.7213 19.8923 77.7213 20.3475V22.6233C77.7213 23.0785 77.4147 23.382 76.9547 23.382Z" fill="#FFECF5"/>
<path d="M82.3215 26.4167H80.0215C79.5615 26.4167 79.2549 26.1132 79.2549 25.658C79.2549 25.2029 79.5615 24.8994 80.0215 24.8994H82.3215C82.7815 24.8994 83.0882 25.2029 83.0882 25.658C83.0882 26.1132 82.7815 26.4167 82.3215 26.4167Z" fill="#FFECF5"/>
<path d="M79.1016 24.292C78.8716 24.292 78.7183 24.2161 78.565 24.0644C78.2583 23.761 78.2583 23.3058 78.565 23.0023L80.175 21.4092C80.4816 21.1058 80.9416 21.1058 81.2483 21.4092C81.555 21.7127 81.555 22.1678 81.2483 22.4713L79.6383 24.0644C79.485 24.2161 79.3316 24.292 79.1016 24.292Z" fill="#FFECF5"/>
</g>
<g clip-path="url(#clip1_16414_36303)">
<path d="M37.1828 37.0073L37.0977 37.1349C36.5399 37.9745 36.1282 38.9025 35.8799 39.8794H44.0614C43.8146 38.9015 43.4023 37.9732 42.8419 37.1349L42.7568 37.007V37.0073C42.024 35.9103 41.5773 34.6476 41.4575 33.334H38.4821C38.3623 34.6476 37.9156 35.9106 37.1828 37.0073L37.1828 37.0073Z" fill="#FF008A"/>
<path d="M38.5151 29.6982H41.4242V31.88H38.5151V29.6982Z" fill="#FF008A"/>
<path d="M37.0192 29.6982H36.1591C35.761 31.0109 35.1322 32.2423 34.3022 33.3346H35.3029C36.2604 32.3447 36.8636 31.0664 37.0191 29.6982H37.0192Z" fill="#FF008A"/>
<path d="M48.6968 34.0615H57.424V41.3342H48.6968V34.0615Z" fill="#FF008A"/>
<path d="M54.8459 57.3633C55.1501 57.1156 55.3417 56.7552 55.3764 56.3642C55.4112 55.973 55.2862 55.5847 55.03 55.2873L47.2421 46.2393V46.7448C47.2431 47.4065 46.9921 48.0438 46.5402 48.5275C46.3379 48.7451 46.0992 48.9256 45.835 49.061L52.8265 57.1837H52.8268C53.0726 57.472 53.4219 57.6525 53.7995 57.6863C54.1771 57.7197 54.5527 57.6035 54.8459 57.3629V57.3633Z" fill="#FF008A"/>
<path d="M56.1722 29.6974H55.2421C54.8405 29.6974 54.5148 29.3718 54.5148 28.9702V27.5156H51.6057V28.9702C51.6057 29.163 51.5291 29.3481 51.3928 29.4844C51.2564 29.6208 51.0713 29.6974 50.8785 29.6974H49.9483L48.9785 32.6065H57.1421L56.1722 29.6974Z" fill="#FF008A"/>
<path d="M50.8789 23.1523H55.2425V26.0614H50.8789V23.1523Z" fill="#FF008A"/>
<path d="M32.6973 26.0615H33.4245V27.5161H32.6973V26.0615Z" fill="#FF008A"/>
<path d="M42.8788 27.7115C42.8781 27.2742 42.7044 26.8546 42.395 26.5453C42.0856 26.2359 41.6661 26.0622 41.2288 26.0615H34.8789V28.2433H42.8788L42.8788 27.7115Z" fill="#FF008A"/>
<path d="M47.2427 42.7881V44.0108C47.2466 44.015 47.2505 44.0186 47.2544 44.0228L48.6956 45.6972H61.7881V42.7881L47.2427 42.7881Z" fill="#FF008A"/>
<path d="M45.0605 56.6064H37.7878C37.7875 57.037 37.6596 57.4577 37.4209 57.8162C37.182 58.1743 36.8427 58.4542 36.4453 58.6201C36.556 58.885 36.7424 59.1113 36.9813 59.2707C37.22 59.4302 37.5008 59.5152 37.7878 59.5155H45.0605C45.5803 59.5155 46.0605 59.2383 46.3202 58.7883C46.58 58.3383 46.58 57.7837 46.3202 57.3337C46.0605 56.8837 45.5803 56.6065 45.0605 56.6065L45.0605 56.6064Z" fill="#FF008A"/>
<path d="M33.7475 47.1515C34.0436 47.1625 34.3316 47.0524 34.5449 46.8469C34.7585 46.6411 34.879 46.3576 34.879 46.0612V44.243C34.879 43.8414 35.2046 43.5158 35.6063 43.5158C36.0079 43.5158 36.3335 43.8414 36.3335 44.243V46.745C36.3335 47.3495 36.8046 47.8583 37.3839 47.8788C37.68 47.8898 37.9679 47.7798 38.1813 47.5742C38.3949 47.3684 38.5153 47.085 38.5153 46.7885V44.2431C38.5153 43.8415 38.841 43.5158 39.2426 43.5158C39.6442 43.5158 39.9699 43.8415 39.9699 44.2431V46.7885C39.9699 47.3911 40.4582 47.8794 41.0608 47.8794C41.6634 47.8794 42.1517 47.3911 42.1517 46.7885V44.2431C42.1517 43.8415 42.4773 43.5158 42.879 43.5158C43.2806 43.5158 43.6062 43.8415 43.6062 44.2431V46.7885C43.6062 47.085 43.7267 47.3684 43.9403 47.5742C44.1536 47.7798 44.4416 47.8898 44.7377 47.8788C45.3169 47.858 45.788 47.3496 45.788 46.745V42.7885C45.7877 42.4028 45.6341 42.0333 45.3614 41.7606C45.0887 41.4879 44.7192 41.3343 44.3335 41.334H34.1518C33.7661 41.3343 33.3966 41.4879 33.1239 41.7606C32.8512 42.0333 32.6976 42.4028 32.6973 42.7885V46.0177C32.6973 46.6223 33.1684 47.1307 33.7476 47.1515L33.7475 47.1515Z" fill="#FF008A"/>
<path d="M56.1328 54.3382C56.639 54.9223 56.8916 55.684 56.8354 56.4548C56.7789 57.2259 56.4179 57.9424 55.8322 58.447C55.2462 58.9512 54.4838 59.2015 53.7131 59.1424C52.9423 59.0837 52.227 58.7204 51.7244 58.1327L44.0888 49.2617C43.6521 49.1549 43.2518 48.9335 42.9294 48.6205C42.9119 48.6036 42.8947 48.5868 42.8778 48.5692C42.3999 49.0585 41.7446 49.3341 41.0606 49.3341C40.3766 49.3341 39.7213 49.0585 39.2431 48.5692C39.2262 48.5864 39.209 48.6036 39.1915 48.6205H39.1918C38.7041 49.0939 38.0464 49.351 37.3668 49.3335C36.6873 49.3163 36.0434 49.0257 35.5808 48.528C35.4659 48.4049 35.3633 48.2712 35.274 48.1286C34.7746 48.4897 34.1604 48.6553 33.5471 48.5949C32.9341 48.5345 32.364 48.252 31.9445 47.8007C31.765 47.6082 31.6156 47.3897 31.5013 47.1523H29.8511L31.0455 61.4849C31.0858 61.9385 31.2939 62.3609 31.629 62.669C31.964 62.9774 32.402 63.1495 32.8575 63.1521H34.8789V58.7233C34.8789 58.7034 34.8802 58.684 34.8818 58.6645C34.2406 58.4392 33.7409 57.9278 33.5302 57.2817C33.3198 56.6353 33.4227 55.9278 33.8084 55.3681C34.1945 54.8087 34.8188 54.4606 35.498 54.4276C36.1769 54.3944 36.8325 54.6795 37.2711 55.199C37.4415 55.1681 37.6146 55.1525 37.7879 55.1522H45.0606C45.832 55.1532 46.5713 55.46 47.1168 56.0052C47.6619 56.5506 47.9687 57.2899 47.9697 58.0613C47.9697 58.1103 47.9684 58.159 47.9661 58.2074C47.9684 58.2314 47.9697 58.2561 47.9697 58.2808V63.1521H57.2638C57.7193 63.1495 58.1573 62.9774 58.4923 62.669C58.8274 62.3609 59.0355 61.9385 59.0757 61.4849L60.2702 47.1524H49.9472L56.1328 54.3382ZM39.2428 54.4249C38.6642 54.4249 38.109 54.195 37.7 53.786C37.2909 53.3769 37.061 52.8216 37.061 52.2432C37.061 51.6647 37.2909 51.1094 37.7 50.7003C38.109 50.2913 38.6643 50.0614 39.2428 50.0614C39.8213 50.0614 40.3766 50.2913 40.7856 50.7003C41.1946 51.1094 41.4245 51.6647 41.4245 52.2432C41.4239 52.8217 41.1937 53.3763 40.7849 53.7854C40.3758 54.1941 39.8213 54.4243 39.2427 54.425L39.2428 54.4249Z" fill="#FF008A"/>
<path d="M39.9697 52.2429C39.9697 52.6445 39.644 52.9702 39.2424 52.9702C38.8408 52.9702 38.5151 52.6445 38.5151 52.2429C38.5151 51.8413 38.8408 51.5156 39.2424 51.5156C39.644 51.5156 39.9697 51.8413 39.9697 52.2429Z" fill="#FF008A"/>
<path d="M37.788 60.9703C37.277 60.9707 36.7753 60.8356 36.3335 60.5791V63.1521H46.5152V60.5791C46.0734 60.8356 45.5717 60.9707 45.0607 60.9703H37.788Z" fill="#FF008A"/>
<path d="M28.3335 42.7881H31.2426V45.6972H28.3335V42.7881Z" fill="#FF008A"/>
<path d="M36.305 56.4076C36.2771 56.3586 36.2554 56.3063 36.2404 56.2521C36.0505 55.9118 35.6278 55.7787 35.2774 55.9489C34.9268 56.119 34.7696 56.5333 34.9193 56.893C35.0693 57.2527 35.4735 57.4332 35.8414 57.3043C36.2093 57.1758 36.4125 56.7823 36.305 56.4076L36.305 56.4076Z" fill="#FF008A"/>
</g>
<defs>
<clipPath id="clip0_16414_36303">
<rect width="23" height="22" fill="white" transform="translate(62.6875 19.1523)"/>
</clipPath>
<clipPath id="clip1_16414_36303">
<rect width="40" height="40" fill="white" transform="translate(25 23.1523)"/>
</clipPath>
</defs>
</svg>
