<svg width="33" height="32" viewBox="0 0 33 32" fill="none" xmlns="http://www.w3.org/2000/svg">
<g clip-path="url(#clip0_15355_33324)">
<path d="M26.982 3.0335C26.9257 2.81133 26.7797 2.6773 26.5464 2.67952C26.313 2.681 26.1671 2.81578 26.116 3.03942C26.096 3.12829 26.1056 3.22382 26.1049 3.31639V7.99146H25.216V7.20574C25.216 5.86387 25.2174 4.522 25.2145 3.17939C25.2137 2.8728 25.0374 2.67952 24.7767 2.67656C24.5144 2.67285 24.3374 2.86539 24.3278 3.16902C24.3241 3.29417 24.327 3.42006 24.327 3.54226H23.4218C23.0885 1.30728 21.3024 0.0831584 19.6046 0.00688206C18.6423 -0.0360697 17.7401 0.113521 16.9489 0.697072C15.9896 1.40504 15.5111 2.37811 15.4274 3.56299H15.2088C13.9769 3.56299 12.7457 3.56521 11.5146 3.56225C10.9375 3.56077 10.3908 3.68074 9.89598 3.97844C8.82927 4.62123 8.31443 5.57876 8.32924 6.81844C8.33221 7.05171 8.30258 7.20278 8.06256 7.34497C7.21215 7.8515 7.23512 9.06155 8.08034 9.58142C8.16035 9.63104 8.24035 9.67917 8.38628 9.76878H6.54694C6.54694 9.60215 6.55212 9.44738 6.5462 9.29261C6.51805 8.57057 5.92617 8.00331 5.20687 8.00702C4.4898 8.01072 3.89274 8.58316 3.88607 9.30742C3.87422 10.5108 3.87496 11.7142 3.88533 12.9176C3.892 13.6441 4.48314 14.2187 5.19947 14.2261C5.92913 14.2328 6.52397 13.6574 6.54694 12.9198C6.55138 12.7673 6.54768 12.614 6.54768 12.4755H8.37369C8.22776 12.5614 8.13886 12.6088 8.05516 12.6628C7.24475 13.1857 7.2166 14.3772 8.04108 14.8697C8.36258 15.0615 8.34035 15.2681 8.30998 15.5599H7.9633C5.60171 15.5599 3.24086 15.5591 0.880005 15.5606C0.529618 15.5606 0.327386 15.728 0.328127 16.0057C0.328868 16.2752 0.527396 16.447 0.855559 16.4478C3.46605 16.4493 6.07729 16.4493 8.68778 16.447C9.05002 16.447 9.20928 16.2826 9.21447 15.919C9.21817 15.6554 9.21521 15.391 9.21521 15.1222H11.8813C11.8813 15.725 11.8872 16.3056 11.8805 16.8862C11.865 18.1355 10.9049 19.096 9.65671 19.113C9.22188 19.1189 8.7863 19.1093 8.35147 19.1174C8.06775 19.1226 7.88256 19.3085 7.88404 19.561C7.88552 19.8136 8.07219 19.9972 8.35665 20.0002C8.86631 20.0061 9.3767 20.0209 9.88413 19.9906C11.3109 19.9054 12.5331 18.8042 12.7109 17.3838C12.7991 16.681 12.7591 15.962 12.768 15.2503C12.7695 15.1074 12.8006 15.0244 12.9406 14.9511C13.405 14.7082 13.6539 14.3091 13.6554 13.7848C13.6562 13.2612 13.4102 12.8576 12.9443 12.6177C12.7865 12.5362 12.768 12.4392 12.7687 12.2918C12.7732 11.5239 12.7754 10.7552 12.768 9.98724C12.7657 9.8058 12.7969 9.69176 12.9828 9.59771C13.328 9.42294 13.5562 9.12302 13.6154 8.73497C13.6502 8.50466 13.6221 8.26398 13.6221 8.00257C13.7939 8.00257 13.9695 8.01516 14.1428 7.99961C14.3843 7.97813 14.5599 7.77893 14.5443 7.5501C14.5288 7.30572 14.388 7.16131 14.1473 7.1228C14.0658 7.11021 13.9806 7.11762 13.8977 7.11762H9.2441C9.04335 5.61949 10.0486 4.45609 11.5235 4.45239C12.7361 4.44869 13.9495 4.45165 15.1622 4.45165H15.4377C15.4377 5.91867 15.4333 7.34348 15.4422 8.7683C15.4437 8.98232 15.3896 9.10451 15.1925 9.22373C14.4095 9.69917 14.0362 10.4227 14.128 11.3276C14.2243 12.2792 14.7584 12.9331 15.6785 13.2271C15.937 13.3101 16.2229 13.3219 16.4978 13.3338C16.8815 13.3508 17.2667 13.3382 17.6601 13.3382C17.6601 13.8625 17.6652 14.3439 17.6549 14.8245C17.6534 14.9045 17.6015 14.9963 17.5467 15.0607C17.103 15.5865 17.103 16.1982 17.5475 16.7233C17.6015 16.7877 17.6489 16.878 17.6556 16.9595C17.6926 17.4216 17.4267 17.7585 17.0252 17.7785C16.6119 17.8 16.3281 17.4838 16.3274 16.9958C16.3252 16.2093 16.3304 15.4221 16.3237 14.6357C16.3215 14.3498 16.137 14.1691 15.8814 14.1691C15.6251 14.1698 15.4422 14.3505 15.4407 14.6371C15.4355 15.4977 15.4222 16.3589 15.4459 17.2194C15.4666 17.9726 16.0933 18.5961 16.8467 18.665C17.6023 18.7338 18.3112 18.2325 18.4919 17.5008C18.5142 17.4127 18.5349 17.3246 18.5601 17.2172C18.846 17.3127 19.112 17.4194 19.3868 17.4882C19.5742 17.5349 19.6016 17.6364 19.6083 17.8037C19.6779 19.5973 19.7461 21.3917 19.8335 23.1853C19.8683 23.8881 20.2268 24.4124 20.8624 24.7189C22.0677 25.2988 23.4314 24.4212 23.4359 23.0586C23.4433 20.4482 23.4381 17.8385 23.4381 15.2281C23.4381 15.1726 23.4425 15.1155 23.4322 15.0622C23.3848 14.8238 23.2403 14.6779 22.9951 14.6771C22.7492 14.6764 22.6003 14.8193 22.5566 15.0592C22.5403 15.1489 22.5492 15.2436 22.5492 15.3362V20.4734C22.5492 21.3435 22.5551 22.2137 22.5469 23.0831C22.541 23.6585 22.0929 24.0554 21.5291 24.0043C21.0698 23.9621 20.7358 23.5785 20.715 23.0712C20.638 21.1851 20.5609 19.2981 20.4839 17.412C20.4661 16.981 20.4046 16.898 19.9876 16.7573C19.4801 16.5855 18.9727 16.413 18.4623 16.2478C18.2512 16.1797 18.0675 16.0879 18.1149 15.8302C18.1586 15.591 18.3505 15.5547 18.5638 15.5584C18.9705 15.5643 19.3779 15.5606 19.7853 15.5599C20.2646 15.5591 20.4039 15.4206 20.3905 14.9511C20.3728 14.3128 20.3491 13.6744 20.3298 13.0361C20.3165 12.5836 20.1802 12.4503 19.7194 12.4496C18.6179 12.4488 17.5156 12.457 16.4141 12.4436C16.1896 12.4407 15.9489 12.3955 15.7451 12.3052C15.1918 12.0593 14.894 11.4328 15.0192 10.8559C15.157 10.2235 15.6763 9.78729 16.3274 9.78581C18.346 9.78063 20.3646 9.78359 22.3832 9.78507C22.4343 9.78507 22.4862 9.79988 22.5492 9.81025V11.4328C22.5492 12.0615 22.5447 12.691 22.5521 13.3204C22.5558 13.5996 22.7529 13.787 23.004 13.7803C23.2448 13.7744 23.4188 13.5922 23.4366 13.3271C23.4411 13.2531 23.4381 13.179 23.4381 13.1049V8.00627H24.327C24.327 8.12254 24.3263 8.20474 24.327 8.28694C24.33 8.75867 24.4663 8.89419 24.9411 8.89493C25.4226 8.89567 25.9041 8.89567 26.3856 8.89493C26.8553 8.89419 26.9938 8.75497 26.9938 8.28028C26.9938 6.61405 26.9938 4.94855 26.9931 3.28232C26.9931 3.19938 27.0012 3.11274 26.982 3.0335ZM5.65875 12.8087C5.65801 13.1353 5.48466 13.3353 5.2165 13.336C4.9476 13.3367 4.77352 13.1375 4.7713 12.8117C4.76833 12.2378 4.77056 11.6638 4.77056 11.0899C4.77056 10.5345 4.76833 9.97909 4.7713 9.42368C4.77352 9.09636 4.9439 8.89789 5.21354 8.89715C5.48244 8.89567 5.65801 9.09488 5.65875 9.42146C5.66097 10.5501 5.66097 11.6794 5.65875 12.8087ZM8.31072 11.5483H6.56916V10.69H8.31072V11.5483ZM12.3413 8.01146C12.5887 8.01294 12.768 8.20696 12.7665 8.43727C12.7657 8.68388 12.6302 8.83347 12.3946 8.88753C11.945 8.9912 11.882 9.06452 11.882 9.51921V12.4496C11.4583 12.4496 11.0627 12.4481 10.6671 12.4503C10.313 12.4518 10.1115 12.6095 10.1064 12.8857C10.1012 13.1701 10.3093 13.3367 10.679 13.3375C11.1968 13.339 11.7146 13.336 12.2331 13.339C12.5635 13.3404 12.762 13.5048 12.7687 13.7722C12.7754 14.0484 12.5687 14.2254 12.2257 14.2261C11.1064 14.2284 9.98636 14.2276 8.86705 14.2261C8.54629 14.2254 8.35517 14.078 8.32998 13.8233C8.30554 13.5693 8.47073 13.3915 8.78408 13.3375C9.09224 13.2842 9.21373 13.136 9.21447 12.7969C9.21669 11.8075 9.21521 10.8181 9.21521 9.78359H10.2078C10.319 9.78359 10.4301 9.78877 10.5412 9.78137C10.8057 9.76433 10.9864 9.58734 10.9908 9.34666C10.9953 9.09488 10.8094 8.90234 10.5286 8.89789C9.97302 8.88975 9.41818 8.90086 8.86334 8.89049C8.74037 8.88827 8.56851 8.86679 8.50851 8.78681C8.41517 8.6624 8.32258 8.45282 8.36776 8.33063C8.41814 8.19363 8.62111 8.02479 8.76112 8.02183C9.95376 7.99739 11.1479 8.00405 12.3413 8.01146ZM18.566 13.3515H19.4579V14.6505H18.566V13.3515ZM22.344 2.90613C22.3973 3.10978 22.461 3.31046 22.5314 3.55114H19.4527V2.69063C19.5246 2.68544 19.6038 2.67507 19.6824 2.67507C20.4587 2.67359 21.235 2.68248 22.0106 2.66915C22.2047 2.66545 22.2973 2.72987 22.344 2.90613ZM17.6601 4.48719V8.87938H16.343C16.3378 8.80755 16.3274 8.72905 16.3274 8.64981C16.3267 6.99395 16.3222 5.33882 16.3281 3.68296C16.3341 2.27222 17.2689 1.13992 18.6586 0.934788C19.7164 0.778532 20.7239 0.945156 21.5676 1.76124C21.4802 1.77161 21.4158 1.78494 21.3506 1.78494C20.6017 1.78642 19.852 1.7842 19.1023 1.78642C18.7045 1.7879 18.5519 1.94267 18.5497 2.34183C18.5475 2.73802 18.549 3.13421 18.549 3.54744C17.6601 3.61039 17.6601 3.61039 17.6601 4.48719ZM19.4172 8.88382H18.5645V8.0196H19.4172V8.88382ZM22.5269 8.87568H20.3394V7.57676H22.5269V8.87568ZM24.3085 7.10207H23.4574C23.3159 6.73253 23.2329 6.67403 22.8418 6.67329C21.9069 6.67255 20.9728 6.67255 20.0379 6.67329C19.6438 6.67403 19.5579 6.73327 19.4187 7.10355H18.5645C18.5586 7.05615 18.5505 7.02135 18.5505 6.98654C18.5497 6.15491 18.5497 5.32327 18.5497 4.47164H24.3085V7.10207Z" fill="#242B3A"/>
<path d="M11.6984 23.5436C11.3347 22.5728 10.6991 21.7774 9.98799 21.0413C9.76872 20.8147 9.50056 20.8207 9.28944 21.088C8.7983 21.71 8.31384 22.3403 7.87382 22.9986C7.59084 23.4229 7.45083 23.9206 7.4375 24.3412C7.4375 25.6372 8.39458 26.631 9.57908 26.6658C11.2192 26.7139 12.2962 25.1373 11.6984 23.5436ZM9.66797 25.7786C8.81534 25.7838 8.16865 24.9951 8.36273 24.165C8.56126 23.3178 9.10276 22.6698 9.6576 21.987C10.188 22.6187 10.6702 23.2304 10.911 23.9858C11.2021 24.8981 10.5865 25.7734 9.66797 25.7786Z" fill="#242B3A"/>
<path d="M6.99066 19.5573C6.9914 19.8335 6.78695 20.0024 6.43804 20.0024C4.58685 20.0038 2.73491 20.0038 0.882968 20.0024C0.53184 20.0024 0.328868 19.8372 0.328127 19.5603C0.327386 19.2825 0.529618 19.1159 0.880005 19.1152C1.81486 19.1137 2.75046 19.1144 3.68532 19.1144C4.60166 19.1144 5.51874 19.1137 6.43508 19.1152C6.78621 19.1159 6.98918 19.2803 6.99066 19.5573Z" fill="#242B3A"/>
<path d="M21.6573 11.1106C21.661 11.3876 21.4558 11.5594 21.1091 11.5602C20.3965 11.5624 19.6831 11.5609 18.9705 11.5609C18.2764 11.5609 17.5816 11.5624 16.8875 11.5602C16.5341 11.5594 16.3319 11.3987 16.3282 11.1218C16.3245 10.8441 16.5282 10.673 16.8756 10.673C18.2831 10.6715 19.6906 10.6715 21.0973 10.673C21.4506 10.673 21.6529 10.8344 21.6573 11.1106Z" fill="#242B3A"/>
</g>
<defs>
<clipPath id="clip0_15355_33324">
<rect width="32" height="32" fill="white" transform="translate(0.328125)"/>
</clipPath>
</defs>
</svg>
