<svg width="33" height="32" viewBox="0 0 33 32" fill="none" xmlns="http://www.w3.org/2000/svg">
<g clip-path="url(#clip0_15355_33283)">
<path d="M32.3256 15.123V16.8247C32.2441 17.4876 32.1791 18.1538 32.0773 18.8144C31.8354 20.3914 31.3452 21.8949 30.6217 23.3101C30.2364 24.063 29.7705 24.7757 29.3219 25.4932C29.0893 25.8649 28.715 25.9533 28.4143 25.756C28.0949 25.5453 28.0322 25.1704 28.293 24.7891C28.986 23.7749 29.5959 22.7157 30.0454 21.5682C30.754 19.7623 31.1127 17.891 31.0915 15.9454C31.0641 13.4719 30.4635 11.1506 29.2835 8.98646C28.1137 6.84203 26.5178 5.08275 24.4882 3.73232C22.7523 2.57762 20.8519 1.82466 18.8027 1.49633C15.059 0.897277 11.5542 1.56342 8.33202 3.61314C8.14723 3.73074 7.96792 3.8586 7.77764 3.96594C7.43546 4.15931 7.08153 4.08512 6.89752 3.79546C6.71272 3.50501 6.78241 3.11275 7.10659 2.91543C7.89901 2.43319 8.6836 1.92885 9.5144 1.52395C11.1869 0.707853 12.9691 0.241397 14.8178 0.0717044C17.0745 -0.135083 19.2905 0.100118 21.4391 0.845974C25.5712 2.28086 28.6469 4.95647 30.6319 8.88386C31.5786 10.756 32.1157 12.7505 32.2731 14.8476C32.2801 14.9407 32.3076 15.0315 32.3256 15.123Z" fill="#242B3A"/>
<path d="M25.8191 28.3115C25.6468 28.0676 25.3493 27.9816 25.0721 28.1094C24.9499 28.1655 24.8356 28.2412 24.7244 28.3186C23.0527 29.4914 21.2141 30.2665 19.2205 30.6777C17.8902 30.9516 16.956 30.1939 16.9544 28.8277C16.9521 27.4622 16.9537 26.0968 16.9544 24.7322C16.9544 24.6311 16.9646 24.5301 16.9693 24.437C18.0139 24.2176 18.3247 23.8253 18.3247 22.7543C18.3247 22.5759 18.3036 22.3936 18.3326 22.2199C18.3498 22.1205 18.4273 21.9918 18.5127 21.9508C20.7772 20.8482 21.9439 19.0463 21.9502 16.5001C21.9525 15.5869 21.9509 14.6737 21.9509 13.7574C23.0675 13.332 23.7402 12.5546 23.6822 11.3336C23.6227 10.0605 22.8585 9.32884 21.6385 9.03997V8.68796C21.6385 7.53326 21.6401 6.37778 21.6377 5.22229C21.6362 4.49932 21.3621 3.90974 20.7404 3.52774C19.4734 2.74873 17.9176 3.63508 17.8917 5.15678C17.8714 6.33279 17.887 7.50958 17.887 8.68559V9.01077H14.7612V8.65086C14.7612 7.50643 14.7635 6.36199 14.7604 5.21756C14.758 4.4938 14.4816 3.9058 13.8583 3.52458C12.5891 2.74952 11.0387 3.63902 11.0136 5.16231C10.9948 6.34857 11.0097 7.53563 11.0097 8.72269V9.04944C9.62294 9.33358 9.02158 10.343 8.96755 11.2105C8.88768 12.4938 9.53525 13.306 10.6996 13.7614C10.6996 14.7921 10.6699 15.8221 10.7059 16.8498C10.7834 19.0226 11.8029 20.6548 13.6735 21.6951C14.1872 21.98 14.3673 22.2475 14.3376 22.8206C14.2859 23.8213 14.679 24.2515 15.7032 24.4346V24.7874C15.7032 26.2057 15.6875 27.6232 15.7086 29.0408C15.7353 30.8829 17.2864 32.2389 19.0905 31.9642C21.2399 31.6367 23.2124 30.8166 25.0337 29.6264C25.2866 29.4614 25.5388 29.2886 25.7604 29.0857C25.9874 28.8782 25.9914 28.5554 25.8191 28.3115ZM19.1422 5.10864C19.1814 4.75426 19.4249 4.5159 19.7514 4.50958C20.0905 4.50327 20.3755 4.74794 20.3794 5.11811C20.3935 6.40619 20.3849 7.69506 20.3849 9.00761H19.1532C19.1477 8.91132 19.1383 8.81898 19.1383 8.72742C19.1367 7.58456 19.1375 6.44092 19.1375 5.29727C19.1375 5.23492 19.1352 5.17099 19.1422 5.10864ZM12.2649 5.10785C12.304 4.75347 12.5483 4.5159 12.8749 4.50958C13.2139 4.50406 13.4981 4.74873 13.5021 5.11811C13.5162 6.40698 13.5075 7.69585 13.5075 9.01629H12.2766C12.2704 8.91053 12.261 8.81898 12.261 8.72663C12.2602 7.58378 12.2602 6.44013 12.2602 5.29648C12.2602 5.23413 12.2578 5.1702 12.2649 5.10785ZM10.2251 11.6643C10.0912 11.0747 10.4882 10.4496 11.0786 10.3328C11.2203 10.3044 11.3675 10.2941 11.5132 10.2941C14.7205 10.2917 17.9277 10.2917 21.135 10.2933C21.7841 10.2933 22.207 10.553 22.3808 11.0447C22.6345 11.7653 22.1537 12.5198 21.3848 12.5467C20.5008 12.5767 19.6152 12.5585 18.7303 12.5601C18.3286 12.5609 17.9277 12.5609 17.5268 12.5609H14.8246C13.7002 12.5617 12.5757 12.5617 11.4505 12.5593C10.7881 12.5569 10.3543 12.2333 10.2251 11.6643ZM12.0402 17.609C12.0049 17.4457 11.9681 17.2783 11.9665 17.1118C11.9603 16.0313 11.9634 14.95 11.9634 13.8379H20.7004C20.7004 14.6588 20.713 15.4646 20.6957 16.2696C20.6856 16.7393 20.6816 17.2207 20.5806 17.6753C20.1233 19.7353 18.3592 21.1434 16.3045 21.1276C14.2256 21.1126 12.4833 19.6761 12.0402 17.609ZM15.5935 23.1181V22.3786C15.6413 22.3707 15.6711 22.3612 15.7008 22.3612C16.1463 22.3604 16.5911 22.3612 17.0554 22.3612V23.1181H15.5935Z" fill="#242B3A"/>
<path d="M7.21365 25.0895C6.3578 24.3105 5.36414 24.2016 4.29296 24.6428C4.2585 24.6191 4.23736 24.6105 4.22483 24.5955C4.19273 24.5536 4.16454 24.5094 4.13557 24.466C2.57186 22.1187 1.72462 19.5355 1.61422 16.7083C1.4905 13.5299 2.27744 10.6033 3.99697 7.93405C4.12147 7.74147 4.25459 7.54968 4.34933 7.3421C4.47383 7.06823 4.36421 6.75252 4.1246 6.59309C3.87717 6.42813 3.5757 6.45655 3.35567 6.67517C3.27502 6.75568 3.21003 6.85276 3.14582 6.94747C1.6197 9.19846 0.700424 11.6728 0.418534 14.3902C0.167965 16.8101 0.43811 19.1629 1.23053 21.4573C1.69878 22.8133 2.34713 24.0761 3.15757 25.2545C3.24996 25.3887 3.30791 25.4929 3.20376 25.6712C2.6439 26.6262 2.65016 27.6018 3.25309 28.5213C3.84115 29.4179 4.70561 29.7975 5.77679 29.6902C6.72426 29.5947 7.66389 28.8449 7.94108 27.9301C8.2723 26.8362 8.0601 25.8607 7.21365 25.0895ZM5.4307 28.4652C4.65393 28.451 4.04317 27.803 4.0604 27.0138C4.07684 26.2466 4.71736 25.631 5.48081 25.6483C6.24504 25.6657 6.84798 26.3026 6.83623 27.0801C6.8237 27.8512 6.18632 28.4802 5.4307 28.4652Z" fill="#242B3A"/>
<path d="M5.9966 5.19918C6.00129 5.52989 5.68338 5.84954 5.35451 5.8448C5.02564 5.84007 4.74767 5.54804 4.75001 5.20944C4.75236 4.87006 5.02799 4.59303 5.36626 4.58987C5.70296 4.58671 5.9919 4.86611 5.9966 5.19918Z" fill="#242B3A"/>
<path d="M27.8185 27.0757C27.8044 27.4127 27.5225 27.6795 27.185 27.674C26.8483 27.6692 26.575 27.3882 26.5782 27.052C26.5813 26.7213 26.8679 26.4332 27.1944 26.4316C27.5342 26.4301 27.8318 26.7371 27.8185 27.0757Z" fill="#242B3A"/>
<path d="M17.7532 17.0453C17.3241 17.8709 16.8598 18.6791 16.3876 19.481C16.2271 19.7525 15.8693 19.8078 15.6101 19.6617C15.3376 19.5086 15.2076 19.2103 15.3243 18.9127C15.419 18.6704 15.5584 18.4463 15.6829 18.2166C15.8019 17.9964 15.9272 17.7786 16.0486 17.5584C16.058 17.5418 16.0564 17.5189 16.0682 17.4431C15.8826 17.4431 15.7033 17.4471 15.524 17.4423C15.2444 17.436 15.0158 17.335 14.8889 17.0659C14.7668 16.8062 14.8404 16.5741 15.0056 16.3634C15.5138 15.7123 16.0204 15.0587 16.5388 14.4147C16.8144 14.0714 17.1801 14.0201 17.4674 14.2576C17.7556 14.496 17.7744 14.8535 17.5042 15.2103C17.2725 15.5165 17.0305 15.8157 16.7377 16.1882C16.9593 16.1882 17.0939 16.1787 17.2263 16.1898C17.6718 16.2269 17.9592 16.6507 17.7532 17.0453Z" fill="#242B3A"/>
</g>
<defs>
<clipPath id="clip0_15355_33283">
<rect width="32" height="32" fill="white" transform="translate(0.328125)"/>
</clipPath>
</defs>
</svg>
