<svg width="32" height="32" viewBox="0 0 32 32" fill="none" xmlns="http://www.w3.org/2000/svg">
<path d="M31.2257 5.37282C31.8307 5.37217 31.9956 5.20995 31.9962 4.61733C31.9969 4.04629 31.9988 3.47525 31.9956 2.90421C31.9929 2.42344 31.8137 2.24094 31.3277 2.23898C30.287 2.23506 29.247 2.23767 28.2069 2.23767H27.8236C27.8236 1.93482 27.8256 1.65486 27.823 1.3749C27.8184 0.853577 27.6378 0.668464 27.1263 0.668464C25.495 0.666502 23.8629 0.666502 22.2316 0.668464C21.739 0.669118 21.5565 0.856848 21.548 1.35724C21.5434 1.62216 21.5421 1.88707 21.5369 2.15199C21.5369 2.16965 21.5192 2.18665 21.4918 2.23767H21.1189C14.5621 2.23767 8.00455 2.23898 1.44704 2.23506C1.11148 2.23506 0.812547 2.26972 0.664063 2.62621V5.01241C0.835441 5.29498 1.09055 5.38721 1.41172 5.37675C1.8467 5.36236 2.28235 5.37282 2.74873 5.37282V5.76202C2.74873 8.871 2.74873 11.98 2.74938 15.0883C2.74938 15.5737 2.85666 15.7117 3.30342 15.819C3.63375 15.8988 3.8012 16.076 3.78485 16.3501C3.76915 16.615 3.63048 16.7877 3.36098 16.8328C3.07644 16.8812 2.9031 16.7602 2.76901 16.4319C2.75789 16.4044 2.74219 16.3782 2.71995 16.3344C2.44195 16.3344 2.15741 16.3337 1.87287 16.335C1.82381 16.3357 1.77475 16.3475 1.65047 16.3645C1.7669 16.6588 1.84736 16.9414 1.98799 17.19C2.0763 17.3456 2.06583 17.4313 1.96706 17.5628C1.5275 18.1489 1.09774 18.7422 0.664062 19.3328V21.719C1.05849 22.1298 1.44181 22.5511 1.85325 22.9429C1.96575 23.0495 2.16199 23.1116 2.32225 23.1169C2.95412 23.1365 3.58731 23.1398 4.21853 23.1156C4.39579 23.1084 4.56913 22.988 4.74248 22.916C4.76864 22.9049 4.78434 22.8709 4.80854 22.8533C5.68702 22.2227 5.99969 21.3959 5.91269 20.3009C5.85709 19.5997 5.76486 18.996 5.27689 18.4668C4.97469 18.1391 4.73332 17.7551 4.46186 17.3921C4.5554 17.2096 4.66464 17.0376 4.73528 16.8511C5.00674 16.1349 4.69865 15.3284 4.01968 14.9719C3.87446 14.896 3.78616 14.828 3.78681 14.6344C3.79466 11.6052 3.7927 8.57665 3.7927 5.54812C3.7927 5.50757 3.79924 5.46767 3.80447 5.40029H21.548C21.548 5.4971 21.5461 5.60307 21.548 5.70969C21.5565 6.23036 21.7358 6.41155 22.2486 6.41547C22.5233 6.41744 22.798 6.41613 23.097 6.41613V30.9367H21.0391V10.0929H20.0023V12.1376H16.8606V11.1395H15.8068V12.1402H12.6848C12.6749 11.9761 12.6664 11.8263 12.656 11.6529H11.6434C11.631 11.8138 11.6192 11.9715 11.6061 12.1442H8.5213V10.5939H15.2711V9.5552H8.50102V7.47448H7.46687V30.9341C6.98675 30.9838 6.59624 30.9976 6.23713 30.5907C5.63076 29.9039 4.95114 29.2818 4.30095 28.6343C3.91829 28.2536 3.67496 28.2529 3.29034 28.6356C2.58978 29.3335 1.88726 30.0301 1.1952 30.7366C1.04149 30.8936 0.888424 30.9976 0.664062 30.9603V32.0003H31.9962V30.9734C31.8719 30.9636 31.7647 30.9557 31.6181 30.9439C31.9354 30.4861 32.0917 30.002 31.9262 29.4683C31.7607 28.9365 31.3905 28.5931 30.8541 28.4086C31.0752 27.6184 30.913 26.9539 30.2144 26.5006C29.6695 26.146 29.0867 26.1513 28.5438 26.5071C27.855 26.9584 27.7091 27.6211 27.9067 28.3811C26.8215 28.8161 26.4434 29.9118 27.1414 30.9328H26.2727V6.41613H27.0531C27.6548 6.41482 27.8164 6.25522 27.823 5.65671C27.8243 5.57625 27.8236 5.49514 27.8236 5.37282H28.1664C29.1861 5.37282 30.2059 5.37348 31.2257 5.37282ZM3.52451 4.31382H1.72504V3.23127C1.93174 3.29995 2.12274 3.32742 2.27319 3.4203C2.70425 3.68522 3.11961 3.97695 3.54086 4.25822C3.53563 4.27719 3.5304 4.2955 3.52451 4.31382ZM4.83405 20.0059C4.83405 20.4376 4.87722 20.8674 4.81443 21.2814C4.7863 21.4659 4.53643 21.6118 4.40103 21.7851C4.21657 22.0212 3.98959 22.1259 3.68804 22.0853C3.54806 22.0664 3.39892 22.0598 3.26156 22.086C2.63688 22.2063 2.18619 21.9421 1.83231 21.4587C1.77606 21.3822 1.71523 21.2867 1.71261 21.1977C1.69887 20.8124 1.70672 20.4265 1.70672 20.0059H4.83405ZM4.30422 18.9306H2.24571C2.50671 18.5852 2.71668 18.2365 3.00187 17.9684C3.10457 17.8716 3.46433 17.8873 3.57619 17.9919C3.84961 18.2483 4.04715 18.5858 4.30422 18.9306ZM5.36454 4.21832C4.92301 3.92397 4.49522 3.63878 3.99744 3.30649H6.73033C6.23713 3.63616 5.80345 3.92528 5.36454 4.21832ZM9.77655 4.31251H7.11234C7.59311 3.99003 7.99866 3.714 8.41076 3.44843C8.45524 3.41965 8.55401 3.4275 8.60176 3.4589C9.00731 3.72119 9.40632 3.99265 9.80664 4.26149C9.79683 4.2785 9.78636 4.2955 9.77655 4.31251ZM11.6303 4.21766C11.1934 3.92658 10.763 3.63943 10.2717 3.31172H12.9896C12.4983 3.63878 12.0699 3.92462 11.6303 4.21766ZM16.0548 4.32036H13.473C13.4625 4.30204 13.4514 4.28373 13.4403 4.26541C13.8635 3.98545 14.2854 3.70419 14.7112 3.42946C14.7426 3.40918 14.8146 3.42096 14.8499 3.44385C15.2626 3.71465 15.6714 3.99069 16.0816 4.26476C16.0724 4.28373 16.0639 4.30204 16.0548 4.32036ZM17.8974 4.21963C17.45 3.9207 17.0281 3.63878 16.5447 3.31499H19.2455C18.7693 3.63485 18.3409 3.92201 17.8974 4.21963ZM21.5317 4.30466H19.7525C20.3183 3.93836 20.7742 3.37386 21.5317 3.245V4.30466ZM2.53353 30.9348C2.96263 30.507 3.38453 30.0857 3.79532 29.6763C4.19498 30.0857 4.61558 30.5168 5.0244 30.9348H2.53353ZM16.8783 13.2287H19.9677V18.4073H16.8783V13.2287ZM12.6887 13.228H15.7833V17.5949C15.7584 17.6125 15.7342 17.6295 15.71 17.6472C15.4687 17.3908 15.209 17.1494 14.9912 16.8747C14.6478 16.4423 14.22 16.286 13.6784 16.3416C13.3578 16.375 13.0308 16.3475 12.6887 16.3475V13.228ZM8.52065 13.2189H11.6002V14.0483H8.52065V13.2189ZM19.9716 30.9387H8.51738V15.1289H11.5989C11.6074 15.2041 11.6231 15.2806 11.6238 15.3578C11.6264 15.7856 11.6244 16.214 11.6251 16.6425C11.6264 17.2371 11.788 17.3967 12.393 17.398C12.8516 17.3993 13.3114 17.3849 13.7686 17.4065C13.9145 17.413 14.0878 17.4791 14.1925 17.5779C14.7485 18.1025 15.2914 18.6414 15.8284 19.1857C16.0207 19.3812 16.2307 19.4689 16.5067 19.4663C17.5461 19.4558 18.5862 19.4623 19.6262 19.4623H19.9716V30.9387ZM30.4538 29.3983C30.7259 29.412 30.9536 29.6521 30.9483 29.9203C30.9418 30.2074 30.6984 30.4318 30.4061 30.42C30.1261 30.4082 29.9115 30.1819 29.9161 29.9026C29.9207 29.6161 30.1686 29.3839 30.4538 29.3983ZM29.3948 27.3019C29.6584 27.3077 29.9017 27.553 29.9057 27.816C29.9096 28.0999 29.6656 28.338 29.3765 28.3327C29.0828 28.3282 28.8597 28.0907 28.8728 27.7977C28.8852 27.5256 29.1266 27.296 29.3948 27.3019ZM28.3652 29.3983C28.6386 29.412 28.8637 29.6508 28.8584 29.9203C28.8519 30.2081 28.6092 30.4318 28.3168 30.42C28.0342 30.4082 27.8256 30.1865 27.8295 29.9026C27.8341 29.6135 28.0781 29.3832 28.3652 29.3983ZM22.6142 1.72681H24.6708V3.77222H22.6142V1.72681ZM24.1756 7.28544V6.43313H24.7316C24.553 6.70721 24.3902 6.95708 24.1756 7.28544ZM25.1784 7.66024V10.3859C24.8847 9.94636 24.6191 9.56305 24.3731 9.16731C24.3293 9.09667 24.328 8.95146 24.3712 8.88147C24.6171 8.48573 24.8827 8.10177 25.1784 7.66024ZM25.058 12.101C25.0802 12.135 25.0541 12.2194 25.0253 12.2632C24.7695 12.655 24.5092 13.0436 24.2469 13.4315C24.2358 13.4478 24.2018 13.4491 24.1697 13.4602V10.7555C24.4974 11.2487 24.7826 11.6719 25.058 12.101ZM25.0201 18.5361C24.763 18.9391 24.4942 19.3348 24.1906 19.7914V17.0539C24.4942 17.5111 24.7669 17.9134 25.0273 18.3235C25.06 18.3739 25.0541 18.4831 25.0201 18.5361ZM25.1869 20.1773V22.9317C24.8683 22.4536 24.5929 22.0454 24.326 21.632C24.3012 21.5941 24.3058 21.5104 24.3313 21.4711C24.5988 21.0577 24.8729 20.6489 25.1869 20.1773ZM25.058 24.6364C25.0796 24.6704 25.0541 24.7541 25.0253 24.7979C24.761 25.2035 24.4915 25.6051 24.2234 26.0087C24.205 25.9995 24.1874 25.991 24.1691 25.9819V23.2889C24.4994 23.7854 24.7833 24.2079 25.058 24.6364ZM24.171 30.9322V29.6684C24.188 29.658 24.205 29.6475 24.222 29.637C24.5027 30.057 24.7833 30.4776 25.0868 30.9322H24.171ZM25.1928 29.2112C24.867 28.7193 24.5838 28.2968 24.3104 27.8683C24.2888 27.8356 24.3189 27.7519 24.3483 27.7067C24.6093 27.3077 24.8755 26.9127 25.1404 26.5156C25.1581 26.5222 25.1757 26.5287 25.1928 26.5352V29.2112ZM25.1934 16.6785C24.8709 16.1931 24.5916 15.7804 24.3241 15.3604C24.2979 15.3192 24.3189 15.2224 24.3509 15.1734C24.6099 14.773 24.8768 14.378 25.1934 13.9031V16.6785ZM26.7587 5.35058H22.6116V4.84103H24.1167C24.4425 4.84103 24.7689 4.84496 25.0953 4.83972C25.5381 4.83318 25.7252 4.65265 25.7311 4.20393C25.7396 3.51057 25.7337 2.81721 25.7337 2.12386V1.73466H26.7587V5.35058ZM30.9405 3.39087V4.30924H29.6708C29.6597 4.29354 29.6492 4.27719 29.6381 4.26084C30.0568 3.98153 30.4754 3.70157 30.9405 3.39087ZM27.84 3.3006H29.1946C28.7099 3.62373 28.2933 3.90107 27.84 4.20327V3.3006Z" fill="#242B3A"/>
<path d="M16.8355 24.709H15.8281V25.7124H16.8355V24.709Z" fill="#242B3A"/>
<path d="M16.8361 26.7988H15.8359V27.8029H16.8361V26.7988Z" fill="#242B3A"/>
<path d="M16.8374 28.8945H15.8359V29.8927H16.8374V28.8945Z" fill="#242B3A"/>
<path d="M16.8276 22.6152H15.8281V23.6284H16.8276V22.6152Z" fill="#242B3A"/>
<path d="M16.8244 20.5283H15.8203V21.5304H16.8244V20.5283Z" fill="#242B3A"/>
<path d="M12.6323 20.5293H11.6328V21.5307H12.6323V20.5293Z" fill="#242B3A"/>
<path d="M10.5757 20.5273H9.5625V21.5281H10.5757V20.5273Z" fill="#242B3A"/>
<path d="M10.562 24.707H9.5625V25.7216H10.562V24.707Z" fill="#242B3A"/>
<path d="M14.7411 18.4434H13.7266V19.4383H14.7411V18.4434Z" fill="#242B3A"/>
<path d="M12.6545 18.4375H11.6484V19.4481H12.6545V18.4375Z" fill="#242B3A"/>
<path d="M10.564 26.8047H9.5625V27.8087H10.564V26.8047Z" fill="#242B3A"/>
<path d="M12.6512 26.8047H11.6406V27.8081H12.6512V26.8047Z" fill="#242B3A"/>
<path d="M10.5633 28.8877H9.5625V29.9016H10.5633V28.8877Z" fill="#242B3A"/>
<path d="M12.6538 28.8994H11.6406V29.895H12.6538V28.8994Z" fill="#242B3A"/>
<path d="M14.7358 28.8926H13.7422V29.9058H14.7358V28.8926Z" fill="#242B3A"/>
<path d="M10.562 22.6143H9.5625V23.6209H10.562V22.6143Z" fill="#242B3A"/>
<path d="M18.9338 28.8906H17.9297V29.8966H18.9338V28.8906Z" fill="#242B3A"/>
<path d="M10.5646 18.4336H9.5625V19.4363H10.5646V18.4336Z" fill="#242B3A"/>
<path d="M12.6349 22.6182H11.6328V23.6222H12.6349V22.6182Z" fill="#242B3A"/>
<path d="M14.7472 22.6293V23.6405C14.4489 23.6405 14.167 23.6497 13.8871 23.6333C13.8288 23.63 13.7745 23.5332 13.7229 23.4757C13.7124 23.4646 13.7209 23.4364 13.7203 23.4162C13.6751 22.5514 13.7602 22.484 14.7472 22.6293Z" fill="#242B3A"/>
<path d="M18.9246 22.6172H17.9297V23.6239H18.9246V22.6172Z" fill="#242B3A"/>
<path d="M12.6447 24.7197H11.6328V25.7199H12.6447V24.7197Z" fill="#242B3A"/>
<path d="M14.7385 24.7197H13.7266V25.7212H14.7385V24.7197Z" fill="#242B3A"/>
<path d="M14.7352 20.5234H13.7344V21.5347H14.7352V20.5234Z" fill="#242B3A"/>
<path d="M18.9286 24.709H17.9219V25.7124H18.9286V24.709Z" fill="#242B3A"/>
<path d="M14.7391 26.7988H13.7344V27.8022H14.7391V26.7988Z" fill="#242B3A"/>
<path d="M18.9194 20.5205H17.9297V21.5298H18.9194V20.5205Z" fill="#242B3A"/>
<path d="M18.924 26.7988H17.9219V27.8081H18.924V26.7988Z" fill="#242B3A"/>
</svg>
