<svg width="86" height="86" viewBox="0 0 86 86" fill="none" xmlns="http://www.w3.org/2000/svg">
<path d="M61.3963 6.98272L61.3968 6.98265C64.7878 6.49603 67.7895 7.0713 70.1574 8.5816C72.5274 10.0932 74.0963 12.4371 74.7939 15.1737C76.0694 20.1762 74.6787 24.1729 73.474 27.6352C73.2432 28.2984 73.0193 28.942 72.8222 29.5694C71.2089 34.707 70.8291 36.8078 71.4681 38.9155C71.8009 40.0131 72.4517 41.2288 73.6222 42.9128C74.7223 44.4954 76.194 46.3716 78.1443 48.858C78.2757 49.0255 78.4092 49.1957 78.545 49.3689C83.9269 56.2322 84.7537 64.0614 81.0264 70.1728C77.3313 76.2314 69.54 79.9788 58.9726 79.6356L58.9558 79.635L58.939 79.6342C57.6105 79.5687 56.4062 79.5037 55.3005 79.444C47.7111 79.0342 44.7677 78.8752 38.1899 80.5382C37.3843 80.742 36.3775 81.0278 35.2423 81.35C32.547 82.1151 29.1274 83.0858 25.956 83.6529C16.0769 85.4214 5.27545 80.3771 2.80956 68.4681C1.17871 60.5957 3.78908 55.0994 7.32208 49.2807L61.3963 6.98272ZM61.3963 6.98272C59.9817 7.18609 58.7502 7.44736 57.6247 7.68614M61.3963 6.98272L57.6247 7.68614M57.6247 7.68614C54.1225 8.42917 51.6469 8.95437 47.8769 6.83895M57.6247 7.68614L47.8769 6.83895M47.8769 6.83895C36.5417 0.476759 28.3351 0.829287 23.0158 5.3275C17.9434 9.61689 16.3122 17.0675 16.516 23.0885L47.8769 6.83895ZM14.0386 38.9337C15.6791 35.566 16.7871 31.1245 16.516 23.0888L14.0386 38.9337ZM14.0386 38.9337C13.2016 40.6521 12.1967 42.1523 11.0437 43.7866M14.0386 38.9337L11.0437 43.7866M11.0437 43.7866C10.8539 44.0556 10.6595 44.3291 10.4614 44.6077M11.0437 43.7866L10.4614 44.6077M10.4614 44.6077C9.47218 45.9991 8.39042 47.5207 7.32221 49.2805L10.4614 44.6077Z" fill="#FFECF5" stroke="#FFECF5" stroke-width="4"/>
<g clip-path="url(#clip0_16414_36222)">
<path d="M79.2549 28.6924C75.8816 28.6924 73.1216 31.4234 73.1216 34.7613C73.1216 38.0993 75.8816 40.8303 79.2549 40.8303C82.6282 40.8303 85.3882 38.0993 85.3882 34.7613C85.3882 31.4234 82.6282 28.6924 79.2549 28.6924ZM81.5549 34.0786C81.4016 34.1545 81.2482 34.2303 81.0949 34.2303C80.8649 34.2303 80.6349 34.0786 80.4816 33.9269C80.1749 33.5476 79.7149 33.2441 79.2549 33.2441C78.7949 33.2441 78.4882 32.9407 78.4882 32.4855C78.4882 32.0303 78.7949 31.7269 79.2549 31.7269C80.2516 31.7269 81.1716 32.182 81.7849 33.0165C82.0149 33.3958 81.9382 33.851 81.5549 34.0786Z" fill="#FFECF5"/>
<path d="M69.2882 28.6917C67.1415 28.6917 65.4548 27.0227 65.4548 24.8986C65.4548 22.7744 67.1415 21.1055 69.2882 21.1055C71.4348 21.1055 73.1215 22.7744 73.1215 24.8986C73.1215 27.0227 71.4348 28.6917 69.2882 28.6917Z" fill="#FFECF5"/>
<path d="M66.6048 37.7954C64.6881 37.7954 63.1548 36.2781 63.1548 34.3816C63.1548 32.485 64.6881 30.9678 66.6048 30.9678C68.5215 30.9678 70.0548 32.485 70.0548 34.3816C70.0548 36.2781 68.5215 37.7954 66.6048 37.7954Z" fill="#FFECF5"/>
<path d="M76.9549 23.382C76.4949 23.382 76.1882 23.0785 76.1882 22.6233V20.3475C76.1882 19.8923 76.4949 19.5889 76.9549 19.5889C77.4149 19.5889 77.7216 19.8923 77.7216 20.3475V22.6233C77.7216 23.0785 77.4149 23.382 76.9549 23.382Z" fill="#FFECF5"/>
<path d="M82.3215 26.4167H80.0215C79.5615 26.4167 79.2549 26.1132 79.2549 25.658C79.2549 25.2029 79.5615 24.8994 80.0215 24.8994H82.3215C82.7815 24.8994 83.0882 25.2029 83.0882 25.658C83.0882 26.1132 82.7815 26.4167 82.3215 26.4167Z" fill="#FFECF5"/>
<path d="M79.1016 24.292C78.8716 24.292 78.7183 24.2161 78.565 24.0644C78.2583 23.761 78.2583 23.3058 78.565 23.0023L80.175 21.4092C80.4816 21.1058 80.9416 21.1058 81.2483 21.4092C81.555 21.7127 81.555 22.1678 81.2483 22.4713L79.6383 24.0644C79.485 24.2161 79.3316 24.292 79.1016 24.292Z" fill="#FFECF5"/>
</g>
<g clip-path="url(#clip1_16414_36222)">
<path fill-rule="evenodd" clip-rule="evenodd" d="M63.4317 51.6526C62.7169 51.6526 62.117 52.1522 61.9289 52.8318H60.8216C60.7336 51.7022 60.3172 50.5958 59.5711 49.6832L60.3547 48.8684C60.5891 49.0035 60.8517 49.0732 61.1115 49.0732C61.5128 49.0732 61.913 48.9166 62.2188 48.5982C62.8292 47.9636 62.8292 46.93 62.2188 46.2953C61.6085 45.6607 60.6145 45.6607 60.0072 46.2953C59.5028 46.8199 59.4179 47.616 59.7474 48.2334L58.6746 49.3522C58.5045 49.526 58.5045 49.8099 58.6746 49.9868C60.4221 51.8039 60.4221 54.7587 58.6746 56.5758C56.9272 58.3929 54.0857 58.3929 52.3382 56.5758C52.1711 56.3988 51.8981 56.3988 51.7279 56.5758L50.6548 57.6917C50.0594 57.3487 49.2954 57.4401 48.791 57.9618C48.1807 58.5965 48.1807 59.6301 48.791 60.2647C49.0971 60.5828 49.497 60.7396 49.8984 60.7396C50.2997 60.7396 50.6998 60.5828 51.0057 60.2647C51.5101 59.7402 51.5951 58.9441 51.2655 58.3266L52.0491 57.5118C52.928 58.2879 53.9904 58.7238 55.077 58.8121V59.9636C54.4234 60.1592 53.943 60.7861 53.943 61.5263C53.943 62.4234 54.6443 63.1527 55.507 63.1527C56.3697 63.1527 57.071 62.4234 57.071 61.5263C57.071 60.783 56.5903 60.1592 55.9367 59.9636V58.8121C57.0231 58.7206 58.0871 58.2876 58.9647 57.5118L59.7452 58.3235C59.6183 58.5609 59.5483 58.8308 59.5483 59.1133C59.5483 59.5463 59.711 59.9559 60.008 60.2648C60.3139 60.5828 60.7138 60.7397 61.1154 60.7397C61.517 60.7397 61.9169 60.5828 62.2227 60.2648C62.8331 59.6301 62.8331 58.5965 62.2227 57.965C61.9273 57.6579 61.5346 57.4872 61.1154 57.4872C60.8437 57.4872 60.5872 57.5587 60.3558 57.692L59.5753 56.8804C60.3216 55.9664 60.7408 54.8614 60.8258 53.7317H61.9331C62.1212 54.4114 62.7241 54.911 63.4359 54.911C64.2986 54.911 64.9999 54.1816 64.9999 53.2846C64.9999 52.3815 64.2969 51.6519 63.4329 51.6519L63.4317 51.6526Z" fill="#FF008A"/>
<path fill-rule="evenodd" clip-rule="evenodd" d="M52.8223 51.64C52.5081 51.9546 52.3333 52.373 52.3333 52.8196C52.3333 53.2632 52.5063 53.6827 52.8223 53.9992C53.1476 54.325 53.5729 54.4857 54.0001 54.4857C54.4272 54.4857 54.8526 54.325 55.1779 53.9992C55.492 53.6845 55.6666 53.2662 55.6666 52.8196C55.6666 52.3759 55.4935 51.9564 55.1779 51.64C54.5255 50.9898 53.4682 50.9898 52.8223 51.64H52.8223Z" fill="#FF008A"/>
<path fill-rule="evenodd" clip-rule="evenodd" d="M58.0007 55.152C58.2587 55.152 58.514 55.0213 58.7076 54.7613C59.0975 54.2416 59.0975 53.3947 58.7076 52.8751C58.3178 52.3555 57.6824 52.3554 57.2926 52.8751C56.9025 53.3947 56.9025 54.2417 57.2926 54.7613C57.4888 55.0247 57.7454 55.152 58.0007 55.152Z" fill="#FF008A"/>
<path fill-rule="evenodd" clip-rule="evenodd" d="M31 47.707L32.8877 45.8193L42.3333 55.265L40.4457 57.1527L31 47.707Z" fill="#FF008A"/>
<path fill-rule="evenodd" clip-rule="evenodd" d="M32.3352 41.1527C34.2937 41.1527 36.1355 40.3562 37.5212 38.9068C40.3818 35.9176 40.3818 31.0545 37.5212 28.0652C36.1355 26.6172 34.2934 25.8193 32.3352 25.8193C30.3767 25.8193 28.5349 26.6189 27.1492 28.0652C25.7635 29.5132 25 31.4381 25 33.4843C25 35.5308 25.7652 37.4555 27.1492 38.9034C28.5305 40.3546 30.3723 41.1524 32.3352 41.1524V41.1527ZM35.4927 38.0744C35.4792 38.2101 35.4048 38.3316 35.2942 38.4048C34.386 39.0016 33.3628 39.3009 32.3352 39.3009C31.3613 39.3009 30.3872 39.0313 29.5087 38.4903C29.3937 38.4186 29.3176 38.2953 29.2983 38.1568C29.2818 38.0179 29.3281 37.8794 29.4207 37.7826L32.1278 34.9538C32.2069 34.8712 32.3189 34.8213 32.4335 34.8213C32.5485 34.8213 32.6557 34.868 32.7392 34.9538L35.3702 37.7031C35.4612 37.8028 35.5059 37.9385 35.4924 38.0741L35.4927 38.0744ZM36.8067 30.3172C36.9396 30.3345 37.0559 30.414 37.1259 30.537C38.1907 32.4182 38.1579 34.7328 37.0438 36.5829C36.9751 36.6998 36.8574 36.7744 36.7276 36.7903C36.7111 36.7934 36.6962 36.7934 36.6799 36.7934C36.5652 36.7934 36.4577 36.7468 36.3742 36.6609L33.7432 33.9116C33.6641 33.829 33.6164 33.712 33.6164 33.5922C33.6164 33.4721 33.661 33.36 33.7432 33.2728L36.4503 30.444C36.5412 30.3472 36.6741 30.3005 36.8067 30.3175L36.8067 30.3172ZM29.173 28.9003C29.1865 28.7647 29.2609 28.6431 29.3714 28.5699C31.2268 27.3463 33.6029 27.3824 35.4254 28.6587C35.5313 28.7335 35.6029 28.8551 35.6134 28.989C35.6269 29.1215 35.582 29.2555 35.488 29.3523L32.7362 32.2277C32.6513 32.3167 32.5425 32.3602 32.4305 32.3602C32.3186 32.3602 32.2098 32.3167 32.1249 32.2277L29.2923 29.2678C29.2044 29.171 29.1594 29.0357 29.1729 28.9L29.173 28.9003ZM27.6263 30.395C27.6949 30.278 27.8129 30.2034 27.9425 30.1876C28.0723 30.1735 28.2021 30.2204 28.2958 30.3187L31.1284 33.2786C31.2954 33.4531 31.2954 33.7383 31.1284 33.916L28.3766 36.7915C28.2948 36.8773 28.1856 36.924 28.071 36.924C28.0574 36.924 28.0412 36.924 28.0293 36.9208C27.9025 36.9067 27.7848 36.835 27.7132 36.7244C26.4901 34.8152 26.456 32.3338 27.6266 30.395L27.6263 30.395Z" fill="#FF008A"/>
<path fill-rule="evenodd" clip-rule="evenodd" d="M44.9999 24.4857C44.9999 25.222 44.403 25.819 43.6666 25.819C42.9302 25.819 42.3333 25.222 42.3333 24.4857C42.3333 23.7493 42.9302 23.1523 43.6666 23.1523C44.4029 23.1523 44.9999 23.7493 44.9999 24.4857Z" fill="#FF008A"/>
<path fill-rule="evenodd" clip-rule="evenodd" d="M64.3334 40.4857C64.3334 41.222 63.7365 41.819 63.0001 41.819C62.2637 41.819 61.6667 41.222 61.6667 40.4857C61.6667 39.7493 62.2637 39.1523 63.0001 39.1523C63.7364 39.1523 64.3334 39.7493 64.3334 40.4857Z" fill="#FF008A"/>
<path fill-rule="evenodd" clip-rule="evenodd" d="M58.6602 36.3022C58.4138 36.0347 58.0777 35.8841 57.7161 35.8751C57.3559 35.8691 57.015 36.0057 56.7582 36.2653L52.4022 40.6679C52.2319 40.84 51.9537 40.84 51.7803 40.6679C51.6935 40.5802 51.6511 40.4683 51.6511 40.353C51.6511 40.2377 51.6935 40.1255 51.7803 40.038L58.5933 33.1522C59.1072 32.6328 59.1345 31.7908 58.6557 31.2714C58.4093 31.0039 58.0732 30.8534 57.7116 30.8443C57.3514 30.8383 57.0106 30.9749 56.7538 31.2345L51.1555 36.8926C50.9852 37.0647 50.707 37.0647 50.5337 36.8926C50.4469 36.8049 50.4044 36.693 50.4044 36.5777C50.4044 36.4624 50.4469 36.3502 50.5337 36.2624L57.3756 29.3474C57.6293 29.091 57.7678 28.7465 57.7616 28.3793C57.7555 28.0152 57.6049 27.677 57.3391 27.4251C56.8251 26.9412 55.992 26.9719 55.4781 27.4882L54.2634 28.7162L48.6651 34.374C48.4949 34.5461 48.2167 34.5461 48.0433 34.374C47.9568 34.2865 47.9141 34.1743 47.9141 34.0591C47.9141 33.9438 47.9568 33.8316 48.0433 33.7441L53.6416 28.086C53.8953 27.8295 54.0338 27.4851 54.0277 27.1179C54.0215 26.7538 53.8712 26.4156 53.6051 26.1637C53.0912 25.6798 52.258 25.7105 51.7441 26.2268L42.1305 35.9432C41.9571 36.1153 41.6821 36.1153 41.5087 35.9432C41.4219 35.8554 41.3794 35.7435 41.3794 35.6282C41.3794 35.5129 41.4219 35.4008 41.5087 35.3133L45.2427 31.5391C45.4922 31.2869 45.6287 30.9504 45.6287 30.5955C45.6287 30.2405 45.4905 29.904 45.2427 29.652C44.7287 29.1326 43.8895 29.1326 43.3755 29.652L40.4881 32.5703C40.7315 35.0089 39.9301 37.5338 38.0889 39.3976C36.9928 40.5054 35.6457 41.2677 34.1798 41.6289L33 44.9404L42.4446 54.486L58.5882 38.1698C59.1097 37.6641 59.1386 36.8189 58.6595 36.3026L58.6602 36.3022Z" fill="#FF008A"/>
<path fill-rule="evenodd" clip-rule="evenodd" d="M31.6666 56.486C31.6666 57.9588 30.4727 59.1527 28.9999 59.1527C27.5272 59.1527 26.3333 57.9588 26.3333 56.486C26.3333 55.0133 27.5272 53.8193 28.9999 53.8193C30.4727 53.8193 31.6666 55.0133 31.6666 56.486Z" fill="#FF008A"/>
</g>
<defs>
<clipPath id="clip0_16414_36222">
<rect width="23" height="22" fill="white" transform="translate(62.6875 19.1523)"/>
</clipPath>
<clipPath id="clip1_16414_36222">
<rect width="40" height="40" fill="white" transform="translate(25 23.1523)"/>
</clipPath>
</defs>
</svg>
