<svg width="28" height="43" viewBox="0 0 28 43" fill="none" xmlns="http://www.w3.org/2000/svg">
<path d="M1.28037 38.438C2.16045 40.875 4.14353 42.2958 6.62932 42.3055C8.30396 42.3121 9.53593 41.7675 10.6136 40.5419C11.849 39.1337 12.1405 38.1929 12.416 34.6615C12.6378 31.4962 13.3542 28.987 14.0083 28.9896C14.6102 28.992 15.3832 32.0303 15.554 35.171C15.7269 37.7883 15.8548 38.5477 16.3744 39.4917C18.0371 42.5336 22.2729 43.3352 24.7675 41.1209C26.1855 39.8443 26.8981 38.2771 26.8799 36.2622C26.8938 32.7298 24.5491 30.1039 21.3569 30.0652C20.2056 30.0606 20.1796 30.0344 19.8437 28.934C19.6368 28.3314 19.0669 26.8638 18.5743 25.6844C18.0299 24.4001 17.7203 23.2737 17.8002 22.9338C17.8538 22.5939 18.9377 19.7983 20.1534 16.7154C22.7962 10.0795 23.3529 8.25003 23.3874 6.13067C23.3949 4.22053 22.9816 2.85824 21.9914 1.80768C21.1316 0.8623 19.8238 0.726327 19.4021 1.50967C19.1649 1.9274 15.123 11.6978 14.3301 13.7095C14.0657 14.415 13.8838 14.0741 11.474 8.07248C10.0748 4.56065 8.77839 1.52021 8.62211 1.33644C8.0753 0.653951 6.92295 0.911087 6.08183 1.87594C4.61004 3.51865 4.3386 6.00342 5.24135 9.33013C5.52496 10.4041 6.7931 13.9677 8.06239 17.2435L10.3679 23.1663L8.9938 26.5887L7.61967 30.0111L6.73002 30.0076C4.61056 29.9993 2.56465 31.2472 1.56262 33.2058C0.956368 34.3286 0.814319 37.1802 1.28037 38.438ZM3.31287 33.9453C3.60276 33.4232 4.25969 32.7192 4.75819 32.381C5.5715 31.8347 5.83337 31.7834 7.3504 31.9464L9.02442 32.11L9.31636 31.0645C9.76767 29.4177 11.1947 25.8385 11.4041 25.8393C11.4826 25.8397 11.795 26.2334 12.0287 26.7053C12.4963 27.5706 12.4961 27.623 11.9693 28.4844C11.179 29.842 10.6195 32.3779 10.6104 34.7067C10.6011 37.0617 10.2035 38.3684 9.09996 39.5154C7.8651 40.7927 6.05922 40.8903 4.41497 39.811C2.84901 38.7844 2.25902 35.7729 3.31287 33.9453ZM6.96407 3.76341L7.41209 2.95401L7.9826 4.26458C8.47533 5.39169 17.3621 27.8776 18.5536 30.97L18.9419 32.0182L20.6169 31.9462C21.8992 31.8989 22.4483 32.0058 23.127 32.4271C24.7453 33.454 25.5742 35.6029 25.0175 37.4324C24.3547 39.6278 22.282 41.0326 20.5046 40.5285C18.2307 39.8653 17.5292 38.6066 17.3351 34.7332C17.1143 30.9905 16.4684 28.8946 15.0607 27.5546C13.7052 26.2409 12.7966 24.3795 10.2836 17.985C6.5272 8.39319 5.90939 5.80026 6.96407 3.76341ZM17.7989 9.95518C19.2782 6.40234 20.546 3.39816 20.6772 3.29401C20.94 3.00721 21.7172 4.99893 21.7135 5.94092C21.708 7.32773 20.6481 10.6991 18.6402 15.5843C17.5568 18.2752 16.606 20.5218 16.5797 20.5479C16.4484 20.6782 15.1792 17.3762 15.155 16.8789C15.1298 16.6172 16.3196 13.508 17.7989 9.95518Z" fill="white"/>
<path d="M4.29257 37.7168C4.99288 39.2895 6.66515 39.8979 7.92463 39.0132C9.84001 37.6863 9.69629 34.3102 7.71167 33.2819C6.22328 32.4911 4.59748 33.3743 4.06674 35.2562C3.72206 36.4062 3.72175 36.4847 4.29257 37.7168ZM6.16025 35.2121C6.68604 34.5862 6.68604 34.5862 7.07648 35.1111C7.59723 35.7673 7.48742 37.0752 6.88416 37.4391C6.51701 37.647 6.33405 37.594 6.04776 37.2004C5.50105 36.4917 5.52938 35.9423 6.16025 35.2121Z" fill="white"/>
<path d="M13.0866 23.8578C13.581 24.5401 14.9425 24.3361 15.0503 23.5515C15.1039 23.2116 15.001 22.7664 14.8448 22.5564C14.3759 22.0312 13.3551 22.1057 13.0127 22.68C12.67 23.3328 12.6701 23.3067 13.0866 23.8578Z" fill="white"/>
<path d="M18.8418 37.5126C19.0489 38.0891 19.2301 38.587 19.23 38.6132C19.2299 38.6393 19.5692 38.85 20.0131 39.0872C21.2143 39.72 22.0521 39.5924 23.0503 38.602C23.8121 37.8462 23.9442 37.5327 23.9482 36.5122C23.9605 33.3984 21.1927 31.8961 19.3788 34.0346C19.0108 34.4518 18.7207 35.0263 18.7197 35.288C18.7187 35.5497 18.6649 35.9158 18.5856 36.1248C18.5325 36.3078 18.6347 36.9362 18.8418 37.5126ZM20.7869 35.27C21.2077 34.7483 21.3387 34.6965 21.7038 35.0119C22.2776 35.4852 22.1665 37.107 21.537 37.4971C21.1699 37.705 20.9869 37.6519 20.7006 37.2583C20.1539 36.5496 20.1822 36.0002 20.7869 35.27Z" fill="white"/>
</svg>
