<svg width="59" height="63" viewBox="0 0 59 63" fill="none" xmlns="http://www.w3.org/2000/svg">
<path d="M58.3288 48.9613C57.0935 42.0446 50.4529 37.8532 43.6819 39.7164C39.0191 41 35.5563 45.3415 35.3082 50.2126C35.0538 55.2128 37.9996 59.8982 42.556 61.629C43.5981 62.0262 44.7175 62.2151 45.8014 62.4992H48.0966C48.227 62.4589 48.3543 62.3991 48.4863 62.383C54.8644 61.566 59.4611 55.2984 58.3288 48.9613ZM46.9095 60.5618C41.5558 60.5553 37.2104 56.2041 37.2265 50.8664C37.2442 45.4755 41.588 41.1679 46.9868 41.1889C52.2681 41.2083 56.5684 45.5934 56.5507 50.9423C56.5346 56.217 52.1763 60.5666 46.9095 60.5618Z" fill="#FF008A"/>
<path d="M47.6042 13.0949C45.33 13.0916 43.0542 13.0949 40.78 13.0949H40.1228C40.1228 12.1148 40.1309 11.2268 40.1196 10.3405C40.1116 9.58808 39.7556 9.2345 39.0051 9.22158C38.4285 9.21189 37.8503 9.21996 37.2237 9.21996C37.2237 7.96708 37.2269 6.78201 37.2237 5.59532C37.2141 2.56644 35.1605 0.504671 32.139 0.503057C27.7903 0.498213 23.4417 0.499828 19.093 0.503057C18.7918 0.503057 18.4874 0.506286 18.191 0.554722C15.7123 0.958358 14.0501 2.91034 14.0324 5.43548C14.0244 6.68029 14.0308 7.9251 14.0308 9.21996C13.4059 9.21996 12.847 9.21512 12.2881 9.22158C11.4941 9.23127 11.1414 9.57516 11.1333 10.3631C11.1253 11.2478 11.1317 12.1326 11.1317 13.0949C8.57564 13.0949 6.10173 13.0916 3.62943 13.0965C1.70474 13.0981 0.506442 14.3009 0.503221 16.2335C0.498389 18.4939 0.5 20.7542 0.501611 23.0146C0.503221 24.6679 1.21995 25.6899 2.78869 26.1468C3.2912 26.2937 3.41361 26.5262 3.412 27.0235C3.39589 33.5624 3.39911 40.1013 3.40072 46.6402C3.40234 49.7982 5.42688 51.8422 8.55793 51.8439C16.3694 51.8455 24.1793 51.8439 31.9908 51.8439C32.1519 51.8439 32.3146 51.8535 32.474 51.8342C32.9975 51.768 33.3808 51.3498 33.3486 50.8509C33.3164 50.3181 33.0103 50.0017 32.4869 49.9193C32.2904 49.8886 32.0858 49.9064 31.8845 49.9064H8.57242C6.48828 49.9064 5.33347 48.7391 5.33347 46.6353V27.038C5.46232 27.0445 5.52674 27.0332 5.57989 27.051C11.1687 28.8447 16.7544 30.6433 22.3464 32.4274C22.6637 32.5291 22.741 32.6857 22.733 32.9892C22.7169 33.7352 22.7201 34.4827 22.7314 35.2286C22.741 35.9552 23.0905 36.3313 23.7912 36.3394C25.0185 36.3539 26.2474 36.3539 27.4746 36.3394C28.1495 36.3313 28.5087 35.9584 28.5232 35.277C28.5377 34.5715 28.5602 33.8627 28.5151 33.1588C28.4845 32.6889 28.6552 32.5 29.0901 32.3612C32.9991 31.1261 36.9016 29.8667 40.8057 28.6154C42.4856 28.0762 44.1687 27.5434 45.9211 26.9831V27.7C45.9211 30.5464 45.9162 33.3913 45.9243 36.2377C45.9275 36.8948 46.335 37.3178 46.9019 37.3081C47.4463 37.2985 47.8232 36.8884 47.8522 36.2668C47.8586 36.1053 47.8538 35.9439 47.8538 35.7824V26.3729C48.0519 26.3018 48.1824 26.2518 48.3161 26.2082C50.1377 25.593 50.7529 24.7373 50.7529 22.8112C50.7529 20.6315 50.7545 18.4519 50.7529 16.2723C50.7497 14.2896 49.5691 13.0981 47.6042 13.0949ZM38.1627 11.1994V13.0626H30.5091V11.1994H38.1627ZM21.4622 9.21996C20.942 9.21835 20.4234 9.21996 19.858 9.21996V6.34447H31.3804V9.21996C30.8698 9.21996 30.3528 9.21835 29.8374 9.21996C28.8421 9.22319 28.5312 9.52996 28.5264 10.5084C28.5232 11.3156 28.5199 12.1229 28.5151 12.9302C28.5151 12.9641 28.4861 12.9996 28.4587 13.0642H22.7282C22.7282 12.2101 22.7298 11.3528 22.7282 10.4938C22.7249 9.54449 22.406 9.22481 21.4622 9.21996ZM16.0086 4.95273C16.115 3.52871 17.3712 2.45181 18.8079 2.44696C23.3531 2.4292 27.8999 2.4292 32.4466 2.44696C33.9783 2.45342 35.2282 3.6724 35.2765 5.1933C35.3184 6.50108 35.2861 7.8137 35.2861 9.17153H33.3582V6.18624C33.3582 5.94406 33.3647 5.70188 33.3566 5.46131C33.3341 4.7493 32.9814 4.38119 32.2662 4.37957C27.8403 4.37311 23.4143 4.37311 18.9883 4.37957C18.2539 4.38119 17.9043 4.75737 17.8979 5.52105C17.8899 6.72873 17.8963 7.93479 17.8963 9.19252H15.9861C15.9861 7.76203 15.9056 6.35093 16.0086 4.95273ZM13.1128 11.1994H20.768V13.0642H13.1128V11.1994ZM26.555 34.3939H24.7092V29.6084H26.555V34.3939ZM48.0584 24.253C41.6481 26.3083 35.2394 28.3652 28.8292 30.4205C28.7551 30.4447 28.6746 30.4528 28.5264 30.4835C28.5264 29.8506 28.5344 29.2871 28.5232 28.7236C28.5087 28.0052 28.1543 27.637 27.4457 27.629C26.2393 27.6177 25.0313 27.6177 23.8234 27.629C23.1066 27.6354 22.7507 27.9971 22.7298 28.7075C22.7137 29.271 22.712 29.836 22.7024 30.3995C22.7024 30.4157 22.6847 30.4302 22.6476 30.4867C21.037 29.9733 19.4119 29.4566 17.7884 28.9367C13.0048 27.4045 8.22131 25.8691 3.43777 24.3353C2.59219 24.0641 2.43435 23.8445 2.43435 22.9339C2.43435 20.7155 2.43274 18.4955 2.43596 16.2755C2.43757 15.3633 2.76292 15.0339 3.6697 15.0339C18.3022 15.0323 32.9363 15.0323 47.5687 15.0339C48.4803 15.0339 48.817 15.3633 48.8186 16.261C48.8234 18.5407 48.8137 20.8204 48.8234 23.1002C48.8266 23.6733 48.6237 24.0721 48.0584 24.253Z" fill="#FF008A"/>
<path d="M20.6147 44.0922C18.5611 44.0971 16.5076 44.0939 14.4541 44.0939C12.4408 44.0939 10.4291 44.0971 8.41585 44.0922C7.75389 44.0906 7.34801 43.7774 7.27875 43.2462C7.19822 42.6408 7.65242 42.1645 8.35465 42.1596C10.1457 42.1499 11.9383 42.1564 13.7293 42.1564C16.0244 42.1564 18.3195 42.1532 20.6147 42.158C21.2766 42.1596 21.6809 42.4712 21.7518 43.004C21.8355 43.6256 21.3636 44.089 20.6147 44.0922Z" fill="#FF008A"/>
<path d="M15.9572 47.0238C15.9588 47.6131 15.5304 47.978 14.8137 47.9812C13.7474 47.9877 12.6812 47.9828 11.615 47.9828C10.5471 47.9828 9.48092 47.9877 8.41469 47.9812C7.69635 47.978 7.26954 47.6147 7.26954 47.027C7.26793 46.4474 7.7044 46.0535 8.41146 46.0502C10.5439 46.0405 12.678 46.0405 14.8105 46.0502C15.5207 46.0535 15.9556 46.4442 15.9572 47.0238Z" fill="#FF008A"/>
<path d="M50.7463 50.8852C50.7383 51.4519 50.3179 51.8314 49.6543 51.8394C48.7685 51.8507 47.8843 51.8524 47 51.8394C46.2914 51.8281 45.929 51.4632 45.9225 50.748C45.9112 49.5387 45.9112 48.3294 45.9225 47.1201C45.929 46.4566 46.3155 46.0368 46.8841 46.0352C47.451 46.0335 47.8392 46.4533 47.8488 47.1169C47.8601 48.0194 47.852 48.9236 47.852 49.9052C48.5156 49.9052 49.0954 49.8955 49.6769 49.9084C50.3324 49.923 50.7528 50.3169 50.7463 50.8852Z" fill="#FF008A"/>
<path d="M47.849 43.1403C47.8394 43.6635 47.3916 44.0978 46.8714 44.0881C46.3463 44.0784 45.9163 43.6328 45.9259 43.1081C45.9356 42.5801 46.3785 42.1506 46.9036 42.1603C47.427 42.17 47.8587 42.6156 47.849 43.1403Z" fill="#FF008A"/>
<path d="M40.1188 50.9019C40.1027 51.4267 39.6485 51.8545 39.1283 51.8384C38.6049 51.8222 38.1796 51.3701 38.1958 50.8454C38.2119 50.3175 38.6612 49.8945 39.1847 49.9106C39.7097 49.9267 40.1349 50.3788 40.1188 50.9019Z" fill="#FF008A"/>
<path d="M55.5795 50.8533C55.5908 51.3764 55.1608 51.8268 54.6373 51.8381C54.1155 51.8494 53.6677 51.42 53.6565 50.8936C53.6452 50.3673 54.072 49.9217 54.5971 49.9104C55.1205 49.8991 55.5683 50.3285 55.5795 50.8533Z" fill="#FF008A"/>
<path d="M47.849 58.6403C47.8394 59.1651 47.3916 59.5978 46.8698 59.5881C46.3463 59.5784 45.9163 59.1312 45.9259 58.6064C45.9356 58.0801 46.3785 57.6506 46.9036 57.6603C47.4286 57.67 47.8587 58.1156 47.849 58.6403Z" fill="#FF008A"/>
<path d="M43.9895 44.1645C43.9911 44.6893 43.5579 45.1284 43.036 45.13C42.519 45.1333 42.068 44.6877 42.0664 44.1726C42.0632 43.6479 42.4948 43.22 43.028 43.2168C43.5659 43.2152 43.9879 43.6285 43.9895 44.1645Z" fill="#FF008A"/>
<path d="M41.1673 54.7497C41.1705 55.268 40.7292 55.7136 40.209 55.7168C39.6743 55.7201 39.2571 55.3003 39.2539 54.761C39.2523 54.2234 39.6711 53.7907 40.1977 53.7891C40.7115 53.7859 41.1641 54.2347 41.1673 54.7497Z" fill="#FF008A"/>
<path d="M43.9886 57.6627C43.9451 58.1923 43.4957 58.5701 42.9529 58.5297C42.4263 58.4893 42.022 58.0179 42.0703 57.5012C42.1186 56.9846 42.6002 56.5793 43.1124 56.6245C43.6407 56.6714 44.0305 57.1331 43.9886 57.6627Z" fill="#FF008A"/>
<path d="M51.7241 57.6065C51.716 58.1393 51.2876 58.551 50.7497 58.5429C50.2214 58.5349 49.7897 58.0957 49.801 57.5742C49.8107 57.0543 50.2568 56.6249 50.7819 56.6329C51.3101 56.641 51.7321 57.0769 51.7241 57.6065Z" fill="#FF008A"/>
<path d="M41.1658 46.9779C41.1771 47.4929 40.7358 47.9514 40.2204 47.9611C39.6937 47.9708 39.2637 47.5494 39.254 47.0134C39.246 46.4725 39.6535 46.043 40.1866 46.0334C40.7052 46.0237 41.1562 46.458 41.1658 46.9779Z" fill="#FF008A"/>
<path d="M51.72 44.167C51.7152 44.6966 51.2851 45.1164 50.752 45.1099C50.227 45.1051 49.7921 44.6643 49.7969 44.1444C49.8034 43.6246 50.2447 43.1983 50.773 43.2032C51.3077 43.208 51.7264 43.6342 51.72 44.167Z" fill="#FF008A"/>
<path d="M54.5506 47.0058C54.5474 47.537 54.119 47.9681 53.5939 47.9665C53.0672 47.9649 52.6452 47.5338 52.6485 46.9994C52.6501 46.4666 53.0785 46.0355 53.6003 46.0371C54.1222 46.0403 54.5522 46.4795 54.5506 47.0058Z" fill="#FF008A"/>
<path d="M54.5506 54.7435C54.5506 55.2699 54.1157 55.7106 53.5971 55.7106C53.0753 55.7106 52.6484 55.2763 52.6484 54.7435C52.6468 54.2091 53.0672 53.7829 53.5971 53.7812C54.1222 53.7812 54.5506 54.2123 54.5506 54.7435Z" fill="#FF008A"/>
</svg>
