<svg width="21" height="20" viewBox="0 0 21 20" fill="none" xmlns="http://www.w3.org/2000/svg">
<g clip-path="url(#clip0_15514_68094)">
<path d="M10.25 0C15.7731 0 20.25 4.4775 20.25 10C20.25 15.5232 15.7731 20 10.25 20C4.72681 20 0.25 15.5231 0.25 10C0.25 4.4775 4.72688 0 10.25 0Z" fill="#3B5998"/>
<path d="M11.4672 6.88422H12.7559V4.98047H11.241V4.98733C9.40531 5.05235 9.02909 6.08421 8.99593 7.16797H8.99216V8.11861H7.74219V9.98296H8.99216V14.9804H10.8759V9.98296H12.4191L12.7171 8.11861H10.8766V7.54426C10.8766 7.17799 11.1203 6.88422 11.4672 6.88422Z" fill="white"/>
</g>
<defs>
<clipPath id="clip0_15514_68094">
<rect width="20" height="20" fill="white" transform="translate(0.25)"/>
</clipPath>
</defs>
</svg>
