<svg width="25" height="24" viewBox="0 0 25 24" fill="none" xmlns="http://www.w3.org/2000/svg">
<path d="M24.5 12.0004C24.5 18.0612 20.0074 23.0717 14.1712 23.8848C13.6255 23.9605 13.0671 24 12.5004 24C11.8463 24 11.2039 23.9479 10.5783 23.847C4.86394 22.9271 0.5 17.9729 0.5 12.0004C0.5 5.37295 5.87295 0 12.4996 0C19.1262 0 24.5 5.37295 24.5 12.0004Z" fill="#1877F2"/>
<path d="M14.1691 9.63515V12.2493H17.403L16.8909 15.7707H14.1691V23.884C13.6234 23.9596 13.0651 23.9992 12.4984 23.9992C11.8442 23.9992 11.2018 23.947 10.5762 23.8461V15.7707H7.59375V12.2493H10.5762V9.05077C10.5762 7.06639 12.1847 5.45703 14.1699 5.45703V5.45871C14.1758 5.45871 14.1809 5.45703 14.1868 5.45703H17.4038V8.50254H15.3017C14.677 8.50254 14.1699 9.00957 14.1699 9.63431L14.1691 9.63515Z" fill="white"/>
</svg>
