<svg width="24" height="24" viewBox="0 0 24 24" fill="none" xmlns="http://www.w3.org/2000/svg">
<path d="M23.9912 15.5218C23.944 15.2015 23.7643 15.0599 23.4029 15.0599H21.086C21.086 14.3028 21.0867 13.5951 21.086 12.8864C21.0847 12.0762 20.8148 11.7084 20.2182 11.7074C18.6491 11.7065 17.08 11.7074 15.5116 11.7074H15.2563V17.8285H14.4121V11.7084C12.7022 11.7084 11.0207 11.7037 9.33923 11.7121C8.90498 11.714 8.60878 12.1228 8.60254 12.7085C8.59421 13.4759 8.60046 14.2423 8.60046 15.0599H8.28691C7.57658 15.0599 6.86556 15.0609 6.15523 15.0599C5.91591 15.0599 5.74734 15.2052 5.69879 15.519C5.65231 15.8217 5.76607 16.0331 5.97765 16.1476C6.01649 16.1681 6.05534 16.1877 6.10251 16.2128V21.1391C6.10251 21.8832 6.09904 22.6282 6.1039 23.3732C6.10667 23.7484 6.28356 23.999 6.52357 23.9971C6.76497 23.9943 6.9266 23.7475 6.93423 23.3638C6.9377 23.2074 6.93493 23.0509 6.93493 22.8992H22.7509C22.7509 23.064 22.7481 23.2121 22.7516 23.3601C22.7599 23.7391 22.9236 23.9915 23.1622 23.9971C23.4043 24.0027 23.5729 23.7559 23.5826 23.3769C23.5854 23.2605 23.5833 23.1441 23.5833 23.0277V16.2286C23.9121 16.0256 24.0342 15.8114 23.9912 15.5218ZM17.8403 13.9424C17.9437 13.9406 18.0484 13.9368 18.1518 13.9443C18.4154 13.962 18.5902 14.192 18.5867 14.5086C18.5832 14.8234 18.407 15.0422 18.1407 15.059C18.0997 15.0618 18.0595 15.0609 18.0193 15.0599C17.9992 15.059 17.9783 15.059 17.9582 15.059C17.9291 15.0599 17.9007 15.0599 17.8715 15.0599H17.8285C17.5254 15.0497 17.3388 14.8327 17.3422 14.4928C17.3457 14.1538 17.5295 13.9499 17.8403 13.9424ZM11.5451 13.9434C11.5861 13.9406 11.6263 13.9415 11.6665 13.9424C11.6866 13.9434 11.7075 13.9434 11.7276 13.9434C11.7574 13.9424 11.7872 13.9415 11.8171 13.9415C11.8393 13.9415 11.8615 13.9424 11.8837 13.9434C12.166 13.9573 12.347 14.1808 12.3436 14.5096C12.3394 14.8243 12.1639 15.0441 11.8968 15.0581C11.7754 15.0646 11.654 15.0655 11.5327 15.0581C11.2697 15.0404 11.0956 14.8094 11.0991 14.4928C11.1033 14.1762 11.2781 13.9601 11.5451 13.9434ZM6.94741 16.1942H8.58658V17.8211C8.05245 17.957 7.48155 17.6954 6.94741 17.9934V16.1942ZM22.7301 21.1829H6.94741V20.1054H22.7301V21.1829ZM22.7356 18.0734C22.2271 17.6395 21.6583 17.9673 21.0964 17.8201V16.2007H22.7356V18.0734Z" fill="white"/>
<path d="M5.24632 23.2519C5.30597 23.5927 5.19498 23.8823 4.96954 23.9745C4.74895 24.0648 4.52489 23.9 4.44858 23.562C4.3154 22.9734 4.19608 22.3784 4.06983 21.7861C3.81109 20.5689 3.55165 19.3518 3.29222 18.1337C3.27418 18.049 3.25268 17.9643 3.18955 17.8842V23.1308C3.18955 23.2239 3.19232 23.318 3.18816 23.4102C3.1736 23.765 3.00295 24.0015 2.76918 23.9969C2.53749 23.9913 2.36268 23.7492 2.35991 23.3953C2.35297 22.5925 2.35713 21.7898 2.35713 20.9871C2.35713 19.9525 2.35713 18.9179 2.31343 17.8711C2.15458 18.6115 1.99572 19.3518 1.83756 20.0922C1.59269 21.2422 1.35129 22.3942 1.10226 23.5434C1.02734 23.886 0.810221 24.0593 0.591017 23.981C0.353084 23.8963 0.237933 23.5983 0.303139 23.237C0.313544 23.1811 0.32395 23.1243 0.336436 23.0684C0.831725 20.7459 1.3284 18.4234 1.82369 16.1008C1.85421 15.9565 1.87918 15.8103 1.91526 15.6185C1.73421 15.6185 1.57327 15.611 1.41303 15.6203C1.18897 15.6333 1.0981 15.4937 1.10642 15.1994C1.11544 14.92 1.11475 14.6406 1.10712 14.3613C1.09879 14.0679 1.18897 13.932 1.41303 13.9394C1.71548 13.9497 2.01792 13.9422 2.3391 13.9422V9.49272H1.52471V10.1614C1.52471 10.627 1.5261 11.0926 1.52402 11.5582C1.52263 12.0015 1.37141 12.2585 1.11475 12.2632C0.858778 12.2669 0.694376 12.0015 0.692988 11.5713C0.690907 10.8868 0.692295 10.2014 0.692295 9.46944H0C0.23169 7.41232 0.460605 5.38499 0.690214 3.34277H4.85508C5.08469 5.37103 5.3136 7.40021 5.54738 9.46664H3.20481V13.9422C3.51627 13.9422 3.81733 13.9525 4.11839 13.9385C4.35424 13.9282 4.45066 14.0633 4.44026 14.3752C4.43055 14.6425 4.42916 14.9116 4.44026 15.178C4.45413 15.5169 4.3369 15.6417 4.09619 15.6212C3.95121 15.6082 3.80415 15.6185 3.62588 15.6185C3.78542 16.3774 3.93595 17.101 4.08995 17.8236C4.46107 19.566 4.83427 21.3074 5.20608 23.0498C5.22065 23.1159 5.23452 23.1839 5.24632 23.2519Z" fill="white"/>
<path d="M10.2793 0V5.35652C10.3799 5.26899 10.4583 5.2038 10.5339 5.13302C11.2928 4.41876 12.051 3.70356 12.8105 2.99023C13.1657 2.65684 13.3176 2.68571 13.6041 3.13364C14.0037 3.75944 14.4039 4.3843 14.809 5.01662C14.9027 4.93188 14.9825 4.86389 15.0602 4.79126C15.6768 4.21016 16.2942 3.62906 16.9109 3.04797C17.3444 2.64008 17.4638 2.65871 17.8016 3.18858C18.0041 3.50707 18.2109 3.82183 18.4086 4.14497C18.4536 4.21947 18.4703 4.32563 18.5001 4.4169C18.5244 4.37965 18.548 4.34333 18.5723 4.30701V0H10.2793ZM15.2669 3.06845C14.9027 3.07311 14.6211 2.70434 14.619 2.21916C14.6162 1.73025 14.8902 1.35403 15.253 1.34844C15.6151 1.34192 15.8974 1.71349 15.9009 2.1996C15.9044 2.68757 15.6304 3.0638 15.2669 3.06845Z" fill="white"/>
<path d="M18.613 6.6622H14.5195C15.4671 5.77099 16.3626 4.92915 17.2707 4.0752C17.6987 4.74569 18.1239 5.38732 18.5228 6.05782C18.6039 6.19471 18.5831 6.44149 18.613 6.6622Z" fill="white"/>
<path d="M14.1248 5.66763C13.7835 5.98797 13.4589 6.29622 13.1322 6.5998C13.0912 6.63705 13.0385 6.67337 12.9913 6.6743C12.1367 6.67803 11.2821 6.6771 10.4102 6.61284C11.305 5.77099 12.1999 4.92915 13.1086 4.0752C13.4506 4.61159 13.7821 5.13123 14.1248 5.66763Z" fill="white"/>
<path d="M11.8175 13.9414C11.7877 13.9414 11.7579 13.9422 11.728 13.943C11.7079 13.943 11.6871 13.943 11.667 13.9422H11.728C11.7579 13.9422 11.7877 13.9414 11.8175 13.9414Z" fill="white"/>
<path d="M18.0198 15.0603H17.8721C17.9012 15.0603 17.9296 15.0603 17.9588 15.0596C17.9789 15.0596 17.9997 15.0596 18.0198 15.0603Z" fill="white"/>
</svg>
