<svg width="48" height="48" viewBox="0 0 48 48" fill="none" xmlns="http://www.w3.org/2000/svg">
<g clip-path="url(#clip0_15707_78062)">
<path d="M43.1997 35.6571H37.3711V32.2285H43.1997V35.6571Z" fill="#FF008A" stroke="#282B8B"/>
<path d="M1.02849 33.5996L6.17134 35.6568V41.1425H0.342773L1.02849 33.5996Z" fill="#FF008A"/>
<path d="M20.5712 1.02832H13.0283L14.0569 8.22832H19.8855L20.5712 1.02832Z" fill="#FF008A"/>
<path d="M33.2572 46.2862L27.7715 42.1719V46.9719L33.2572 46.2862Z" fill="#FF008A"/>
<path d="M10.4996 0.149849C9.21523 0.487347 7.90273 1.32172 7.08711 2.31547C6.00898 3.60922 5.53086 5.12797 5.53086 7.2186C5.53086 8.03422 5.52148 8.06235 5.27773 8.1936C5.12773 8.2686 4.91211 8.43735 4.78086 8.57797C4.55586 8.81235 4.54648 8.88735 4.51836 10.1717C4.48086 11.6623 4.54648 11.9155 5.06211 12.2905L5.33398 12.4967L5.08086 12.9748C4.85586 13.4061 4.82773 13.5561 4.82773 14.3905C4.82773 15.2061 4.85586 15.3936 5.07148 15.853C5.53086 16.8186 6.30898 17.4655 7.33086 17.7186C7.76211 17.8311 7.77148 17.8405 7.82773 18.2717C8.01523 19.6686 8.56836 21.1217 9.38398 22.3311C9.86211 23.0436 11.034 24.2248 11.6527 24.6092L12.0934 24.8905L12.0746 26.4373L12.0465 27.9842L11.784 28.1061C11.5402 28.228 11.5027 28.2186 11.3809 28.0498C11.1184 27.6748 10.6871 27.5623 9.42148 27.5623C8.56836 27.5623 8.16523 27.5998 7.97773 27.703C7.64961 27.8717 7.21836 28.3686 7.21836 28.5748C7.21836 28.8842 7.04961 28.978 6.25273 29.1186C4.35898 29.4467 3.25273 29.9998 2.06211 31.2092C1.14336 32.1467 0.749609 32.7561 0.337109 33.9092L0.0464844 34.7342L0.0183594 40.7248L-0.00976562 46.7061L0.233984 47.1186C0.374609 47.3623 0.637109 47.6248 0.880859 47.7655L1.28398 47.9998H11.7371C21.7402 47.9998 22.1996 47.9905 22.3402 47.8311C22.5559 47.5873 22.5465 46.9498 22.3309 46.753C22.1715 46.603 21.5059 46.5936 14.6434 46.5936H7.12461V41.3061C7.12461 38.3998 7.15273 35.953 7.18086 35.8686C7.23711 35.7373 8.17461 35.7186 16.884 35.7186H26.5309V41.1561V46.5936H25.6121C24.534 46.5936 24.3746 46.6873 24.3746 47.3155C24.3746 48.028 24.2246 47.9998 28.5371 47.9998C31.5746 47.9998 32.409 47.9717 32.6527 47.8686C33.0184 47.7092 33.5152 47.203 33.6465 46.8467C33.8152 46.4061 33.7777 35.5592 33.609 34.7623C33.1309 32.4842 31.584 30.5905 29.4652 29.6623C29.0434 29.4842 28.2934 29.2686 27.6371 29.1467C26.6434 28.9592 26.5309 28.9217 26.5309 28.7436C26.5309 28.4436 26.1934 27.9561 25.8559 27.7498C25.584 27.5905 25.3777 27.5623 24.2996 27.5623C22.9965 27.5623 22.7246 27.628 22.3684 28.0123C22.2277 28.1717 22.1527 28.1905 21.9559 28.1155C21.8152 28.0592 21.6746 27.9655 21.6371 27.9092C21.5996 27.8436 21.5621 27.1592 21.5621 26.3905V24.9842L22.3309 24.4217C23.2215 23.7655 24.1871 22.678 24.759 21.6842C25.2465 20.8217 25.7621 19.3592 25.8371 18.5717C25.9027 17.9436 26.0434 17.7186 26.3715 17.7186C26.6809 17.7186 27.4684 17.3155 27.909 16.9311C28.1434 16.7248 28.434 16.3311 28.6121 15.9561C28.8934 15.3842 28.9215 15.2623 28.9215 14.4373C28.9215 13.6592 28.884 13.4811 28.6684 13.0311L28.4152 12.5155L28.6871 12.2998C29.184 11.9155 29.2496 11.6623 29.2496 10.2842C29.2496 9.1311 29.2309 8.99985 29.034 8.70922C28.9215 8.5311 28.6684 8.3061 28.4715 8.20297L28.1246 8.01547V6.79672C28.1246 5.35297 27.984 4.65922 27.4684 3.60922C26.6527 1.9311 25.0871 0.646721 23.2871 0.187347C22.6027 0.00922394 22.2371 -0.000152588 16.7902 0.00922394C12.0371 0.00922394 10.9215 0.0373459 10.4996 0.149849ZM12.9184 4.56547C13.134 6.30922 13.3121 7.80922 13.3121 7.8936C13.3121 8.0436 13.1902 8.06235 12.1121 8.06235C11.0152 8.06235 10.884 8.0811 10.734 8.24985C10.6309 8.36235 10.5559 8.58735 10.5559 8.76547C10.5559 8.9436 10.6309 9.1686 10.734 9.2811C10.9027 9.4686 10.959 9.4686 19.3309 9.4686H27.7496V10.3123V11.1561L16.8559 11.1373L5.95273 11.1092V10.3123V9.51547L7.19961 9.4686C8.59649 9.41235 8.71836 9.3561 8.71836 8.74672C8.71836 8.2311 8.45586 8.06235 7.66836 8.06235H7.00273L7.05898 6.86235C7.14336 5.05297 7.53711 4.01235 8.53086 3.00922C9.53399 1.98735 10.6402 1.52797 12.3371 1.41547C12.5246 1.4061 12.5434 1.54672 12.9184 4.56547ZM19.6496 1.65922C19.6215 1.80922 19.4527 3.1686 19.2652 4.68735C19.0871 6.2061 18.909 7.5936 18.8809 7.76235L18.834 8.06235L16.8465 8.0436L14.8684 8.01547L14.4652 4.82797C14.2496 3.07485 14.0715 1.58422 14.0715 1.5186C14.0621 1.43422 14.6902 1.4061 16.884 1.4061H19.7059L19.6496 1.65922ZM22.734 1.61235C23.5027 1.77172 24.3371 2.22172 24.984 2.82172C26.1934 3.96547 26.6246 5.01547 26.6246 6.89047V8.06235H23.484H20.3527L20.3902 7.79985C20.4371 7.53735 21.1871 1.56547 21.1871 1.45297C21.1871 1.37797 22.0684 1.47172 22.734 1.61235ZM24.4402 15.3936C24.4121 17.9061 24.384 18.328 24.2059 19.003C23.3059 22.4811 20.4652 24.6655 16.8746 24.6655C14.7371 24.6655 12.8434 23.9061 11.4652 22.4905C10.5371 21.5342 10.0215 20.6436 9.59023 19.2467C9.34649 18.4405 9.33711 18.3467 9.29961 15.4873L9.26211 12.5623H16.8746H24.4871L24.4402 15.3936ZM7.78086 14.4842V16.3123L7.52773 16.2092C6.56211 15.8436 6.03711 14.728 6.38398 13.8092C6.55273 13.3592 7.33086 12.6561 7.66836 12.6561C7.75273 12.6561 7.78086 13.0873 7.78086 14.4842ZM26.7184 13.0217C27.1309 13.3405 27.4684 13.9967 27.4684 14.4748C27.4684 15.2061 26.8777 16.0123 26.2309 16.1717L25.9684 16.2373V14.4373V12.6467L26.184 12.703C26.2965 12.7405 26.5402 12.8811 26.7184 13.0217ZM14.7184 25.9967C15.834 26.278 17.9996 26.278 19.0309 25.9873C19.4152 25.8842 19.7996 25.7717 19.884 25.7342C20.0246 25.678 20.0434 25.8186 20.0715 26.9717C20.109 28.1811 20.1277 28.2936 20.3715 28.7061C20.5121 28.9498 20.709 29.1936 20.8121 29.2498C21.1121 29.4092 21.0371 29.503 20.4652 29.7186C18.9746 30.2811 16.9684 30.4873 15.3934 30.2436C14.6059 30.1217 12.8152 29.6248 12.6746 29.4842C12.6559 29.4655 12.7965 29.3061 12.984 29.1373C13.5184 28.678 13.5934 28.4061 13.5934 26.9436C13.5934 25.7623 13.6027 25.6686 13.7621 25.7342C13.8465 25.7623 14.2777 25.8842 14.7184 25.9967ZM10.2184 31.6405V34.2186H9.42148H8.62461V31.6405V29.0623H9.42148H10.2184V31.6405ZM25.1246 31.6405V34.2186H24.3277H23.5309V31.6405V29.0623H24.3277H25.1246V31.6405ZM7.12461 32.3155V34.1717L6.66523 34.3686C6.33711 34.5186 6.12148 34.6967 5.93398 34.978L5.67148 35.3717L5.64336 37.9405L5.61523 40.4998H3.49648H1.37773L1.43398 37.9405C1.49023 35.0998 1.54648 34.753 2.12773 33.6186C2.36211 33.1686 2.70898 32.7186 3.19648 32.2405C4.05898 31.3686 4.87461 30.9373 6.18711 30.6655C6.67461 30.5623 7.08711 30.478 7.10586 30.478C7.11523 30.4686 7.12461 31.303 7.12461 32.3155ZM28.5465 30.9467C30.2527 31.5561 31.6121 33.0561 32.0621 34.828C32.2309 35.4655 32.2496 35.8686 32.2496 38.0342V40.4998H30.1402H28.0309V37.9405V35.3811L27.759 34.9498C27.5621 34.6405 27.3746 34.4811 27.0559 34.3498L26.6246 34.1717V32.3342V30.4873L27.309 30.6186C27.6746 30.6842 28.2371 30.8342 28.5465 30.9467ZM12.3277 30.9842C13.0871 31.3217 14.4277 31.6498 15.5715 31.7905C17.5965 32.0248 19.8934 31.6592 21.8715 30.7967C22.0215 30.7311 22.0309 30.8436 22.0309 32.4748V34.2186H16.8746H11.7184V32.4842C11.7184 31.528 11.7371 30.7498 11.7559 30.7498C11.7746 30.7498 12.0277 30.853 12.3277 30.9842ZM5.62461 44.3061V46.603L3.65586 46.5748C2.20273 46.5561 1.66836 46.5186 1.57461 46.4248C1.48086 46.3311 1.44336 45.7592 1.42461 44.1561L1.39648 41.9998H3.50586H5.62461V44.3061ZM32.2496 44.1467C32.2496 46.2655 32.2496 46.303 32.0434 46.4436C31.8652 46.5655 31.4996 46.5936 29.934 46.5936H28.0309V44.2967V41.9998H30.1402H32.2496V44.1467Z" fill="#282B8B"/>
<path d="M12.4777 13.4908C12.2433 13.7252 12.1495 14.2314 12.2245 14.7939C12.3277 15.572 12.9839 15.8814 13.5183 15.4033C13.7808 15.1689 13.762 13.7627 13.4995 13.5002C13.2558 13.2564 12.7214 13.247 12.4777 13.4908Z" fill="#282B8B"/>
<path d="M20.2401 13.4908C20.062 13.6314 20.0151 13.7721 19.987 14.2877C19.9589 14.6533 19.9964 15.0189 20.062 15.1783C20.2682 15.6846 21.0276 15.7783 21.3276 15.3471C21.4214 15.2064 21.4682 14.9064 21.4682 14.4189C21.4682 13.8096 21.4401 13.6596 21.2807 13.5002C21.0464 13.2658 20.5307 13.2564 20.2401 13.4908Z" fill="#282B8B"/>
<path d="M16.0775 17.9062C15.9744 18.0187 15.8994 18.2437 15.8994 18.4219C15.8994 18.9469 16.1432 19.125 16.8463 19.125C17.315 19.125 17.4744 19.0875 17.6244 18.9375C17.8494 18.7125 17.8682 18.2156 17.6619 17.925C17.54 17.7469 17.4369 17.7188 16.8838 17.7188C16.3588 17.7188 16.2182 17.7562 16.0775 17.9062Z" fill="#282B8B"/>
<path d="M14.7188 20.4369C14.5969 20.5588 14.5312 20.7463 14.5312 20.9994C14.5312 21.3275 14.5781 21.4025 14.925 21.6557C15.8063 22.2932 17.3625 22.4057 18.375 21.8994C18.6562 21.7588 18.9656 21.5619 19.0594 21.4494C19.2938 21.1775 19.2656 20.6994 19.0031 20.4557C18.7219 20.1838 18.3375 20.1932 17.775 20.4838C17.1562 20.7932 16.5563 20.7932 15.9375 20.4838C15.375 20.2025 14.9719 20.1838 14.7188 20.4369Z" fill="#282B8B"/>
<path d="M34.9406 15.2062C34.725 15.3375 34.5188 15.5625 34.4062 15.7969C34.2375 16.1531 34.2188 16.3781 34.2188 18.4875V20.7844L33.6938 20.8406C33.1031 20.9062 32.6438 21.1687 32.3719 21.6094C32.2313 21.8437 32.2031 22.0875 32.2031 23.1094C32.2031 24.4969 32.3063 24.8062 32.9344 25.2094L33.2812 25.4344V27.5156C33.2812 29.8406 33.3656 30.3562 33.8719 31.2094C34.2938 31.9125 35.1094 32.6344 35.85 32.9625L36.4688 33.225V34.3406C36.4688 35.0719 36.5156 35.55 36.6 35.7562C36.7594 36.15 37.1813 36.5437 37.5188 36.6094L37.7719 36.6656L37.8 41.8594C37.8281 46.9594 37.8281 47.0531 38.025 47.3156C38.1281 47.4562 38.3625 47.6719 38.5313 47.7844C38.8125 47.9812 38.9438 48 40.1156 48C41.55 48 41.8313 47.9062 42.1875 47.325C42.3656 47.025 42.375 46.8375 42.375 41.85V36.675L42.6562 36.6281C43.0688 36.5437 43.5844 36.0187 43.6875 35.5781C43.7344 35.3719 43.7812 34.7437 43.7812 34.1906C43.7812 33.3094 43.8 33.1781 43.95 33.1312C45.4219 32.6437 46.5844 31.3219 46.875 29.8219C46.9219 29.5406 46.9688 28.425 46.9688 27.3375V25.3594L47.2781 25.2188C47.4375 25.1437 47.6719 24.9281 47.7938 24.75C48 24.4406 48.0094 24.3562 47.9813 23.0437L47.9531 21.6656L47.625 21.3281C47.2969 20.9906 46.8656 20.8125 46.3406 20.8125H46.0406L46.0125 18.3844C45.9844 15.675 45.9844 15.6844 45.2813 15.2062C45 15.0187 44.8688 15 43.6875 15C42.5063 15 42.375 15.0187 42.0844 15.2156C41.475 15.6187 41.4375 15.7969 41.4375 18.4406V20.8125H40.125H38.8125V18.4406C38.8125 16.1719 38.8031 16.0687 38.5969 15.7125C38.25 15.1125 37.9313 15 36.5156 15C35.4375 15 35.2594 15.0281 34.9406 15.2062ZM37.3125 18.6562V20.8125H36.5156H35.7188V18.6562V16.5H36.5156H37.3125V18.6562ZM44.5313 18.6562V20.8125H43.7344H42.9375V18.6562V16.5H43.7344H44.5313V18.6562ZM46.575 23.1281L46.6031 23.9062H40.125H33.6562V23.1094V22.3125L40.1063 22.3312L46.5469 22.3594L46.575 23.1281ZM45.45 27.5344C45.4219 29.4656 45.4031 29.7094 45.225 30.0938C44.7469 31.125 43.9781 31.6594 42.7313 31.8281L42.2812 31.8844V30.8062C42.2812 30.1969 42.2344 29.625 42.1781 29.4937C41.9719 29.0531 41.1938 28.9781 40.9219 29.3719C40.8188 29.5219 40.7812 29.8594 40.7812 30.7219V31.875H40.125H39.4688V30.7969C39.4688 30.1969 39.4219 29.625 39.3656 29.4937C39.1594 29.0531 38.3813 28.9781 38.1094 29.3719C38.0063 29.5219 37.9688 29.8594 37.9688 30.7219C37.9688 31.6125 37.9406 31.875 37.8469 31.875C37.5375 31.875 36.5906 31.6594 36.3469 31.5375C35.8875 31.2937 35.3438 30.7312 35.0813 30.2437C34.8281 29.775 34.8281 29.7375 34.8 27.5812L34.7719 25.4062H40.125H45.4875L45.45 27.5344ZM42.2812 34.2187V35.1562H40.125H37.9688V34.2187V33.2812H40.125H42.2812V34.2187ZM40.875 41.625V46.6031L40.1063 46.575L39.3281 46.5469L39.3 41.5969L39.2813 36.6562H40.0781H40.875V41.625Z" fill="#282B8B"/>
<path d="M15.7682 37.1906C15.5339 37.3969 14.587 40.2188 14.6057 40.6594C14.6339 41.3531 15.0276 41.625 16.0307 41.625C16.387 41.625 16.687 41.6531 16.687 41.6906C16.687 41.7375 16.612 42 16.5182 42.2906L16.3589 42.8156L16.1901 42.6C15.9651 42.3 15.2995 42.2812 15.0464 42.5625C14.7276 42.9094 14.8214 43.3031 15.412 44.1375C16.0401 45.0281 16.2276 45.1875 16.6964 45.1875C17.0432 45.1875 18.6745 44.5312 18.9651 44.2781C19.2089 44.0531 19.1714 43.4906 18.8901 43.2187C18.7026 43.0406 18.5901 43.0125 18.2807 43.0594C17.8307 43.1156 17.8307 43.125 18.1401 42.1594C18.412 41.325 18.4307 40.9781 18.2432 40.6031C18.0557 40.2469 17.7276 40.125 16.9682 40.125C16.6026 40.125 16.312 40.0875 16.312 40.05C16.312 40.0125 16.462 39.5344 16.6401 39C16.8182 38.4656 16.9682 37.8937 16.9682 37.725C16.9682 37.1531 16.1995 36.8156 15.7682 37.1906Z" fill="#282B8B"/>
</g>
<defs>
<clipPath id="clip0_15707_78062">
<rect width="48" height="48" fill="white"/>
</clipPath>
</defs>
</svg>
