<svg width="49" height="49" viewBox="0 0 49 49" fill="none" xmlns="http://www.w3.org/2000/svg">
<g clip-path="url(#clip0_15707_78093)">
<path d="M32.2995 7.72854C32.0738 6.82574 29.6102 7.00011 26.6004 7.59148C23.4978 8.20106 23.3276 12.3029 26.2745 13.4489C27.1962 13.8074 28.2447 13.7569 29.0106 13.1312C30.8334 11.642 32.668 9.20255 32.2995 7.72854Z" fill="#FF008A"/>
<path d="M43.7281 11.7285L41.4424 20.2999H44.871L46.0138 13.4428L43.7281 11.7285Z" fill="#FF008A"/>
<path d="M14.5859 32.8711L19.1574 35.1568V37.4425L14.5859 39.1568V32.8711Z" fill="#FF008A"/>
<path d="M27.7285 33.4424L22.0142 35.5203V37.5982L27.7285 39.1567V33.4424Z" fill="#FF008A"/>
<path d="M23.6154 1.51856C22.7811 1.66856 21.8248 1.99668 21.1123 2.38106C20.3623 2.77481 19.2092 3.65606 19.0592 3.94668C18.9748 4.08731 18.7967 4.12481 17.9529 4.18106C16.6873 4.26543 16.2748 4.35918 15.4029 4.77168C14.4842 5.20293 13.4061 6.26231 12.9654 7.15293C12.4029 8.30606 12.3654 8.51231 12.3279 11.6623L12.2811 14.5498H11.8498C11.0342 14.5592 10.1623 15.1123 9.74043 15.9092C9.56231 16.2279 9.53418 16.4342 9.53418 17.3623C9.53418 18.5436 9.5998 18.7404 10.1623 19.3779C10.5561 19.8279 11.0904 20.0904 11.7467 20.1467L12.2904 20.2029L12.3186 21.3373C12.3373 22.0217 12.3092 22.4998 12.2529 22.5373C12.2061 22.5748 12.0186 22.6123 11.8592 22.6123H11.5498V23.1467C11.5498 23.4467 11.5217 23.7842 11.4936 23.8967C11.4467 24.0748 11.4842 24.1029 12.0092 24.1779L12.5811 24.2529L12.8998 25.1717C13.4342 26.7279 14.5967 28.4061 15.7967 29.3623L16.3311 29.7842V30.8811V31.9779L15.9842 32.0717C15.7873 32.1279 13.1904 32.7373 10.2092 33.4404C7.21855 34.1436 4.56543 34.7998 4.30293 34.9029C2.86855 35.4654 1.66855 36.5623 1.00293 37.9217C0.30918 39.3373 0.299805 39.4123 0.299805 43.5373V47.1748H21.1592H42.0186V45.4873V43.7998H41.2686H40.5186V44.7373V45.6748H39.0654H37.6123V41.0342V36.3842L38.0061 36.5998C38.6061 36.9279 39.5998 37.9592 39.9373 38.6061C40.3592 39.4123 40.5186 40.1904 40.5186 41.4748V42.5811H41.2686H42.0186V41.3529C42.0186 39.0936 41.5217 37.7717 40.1436 36.3842C39.4686 35.6904 39.2154 35.5123 38.4561 35.1467C37.6498 34.7623 37.0592 34.6029 32.3154 33.4873C29.4279 32.8123 26.8029 32.1936 26.4842 32.1092L25.8936 31.9686V30.9279V29.8873L26.7186 29.1186C28.0779 27.8529 28.9311 26.5779 29.4186 25.0873C29.5592 24.6467 29.7186 24.2717 29.7748 24.2529C29.8311 24.2342 30.0748 24.1967 30.3279 24.1592L30.7686 24.1029V23.6529C30.7686 22.8842 30.6842 22.6123 30.4404 22.6123C29.9342 22.6123 29.9248 22.5842 29.9248 21.3467V20.2029L30.5154 20.1561C31.4436 20.0811 32.1654 19.5936 32.6061 18.7686C32.8779 18.2623 32.8592 16.4248 32.5779 15.9092C32.1373 15.0936 31.2842 14.5592 30.4217 14.5498H29.9248V13.7717V13.0029L30.4686 12.5717C30.7779 12.3279 31.2186 11.8686 31.4529 11.5498C33.0186 9.46856 33.1404 6.89981 31.7904 4.78106L31.4998 4.33106L31.1154 4.61231C30.8998 4.77168 30.6279 4.96856 30.5061 5.06231L30.2904 5.22168L30.6561 5.92481C31.5842 7.72481 31.3123 9.44981 29.8686 10.9779C29.3717 11.5123 29.0717 11.7373 28.4811 12.0186C27.1967 12.6373 25.5092 12.9467 24.3186 12.7779C23.0061 12.5811 22.2186 12.1873 21.0186 11.1373C20.6811 10.8467 20.0529 10.4248 19.6217 10.2092L18.8342 9.81543H17.6904C16.5654 9.81543 16.5467 9.81543 15.8342 10.1717C15.3842 10.3967 14.8686 10.7529 14.4936 11.1092L13.8748 11.6811L13.9123 10.1811C13.9404 8.69043 13.9404 8.68106 14.2592 8.03418C14.8592 6.82481 16.1061 5.88731 17.2967 5.76543C17.5873 5.73731 17.8311 5.73731 17.8311 5.76543C17.8311 5.80293 17.7092 6.03731 17.5498 6.28106C17.3998 6.53418 17.2686 6.77793 17.2686 6.82481C17.2686 6.89981 18.4029 7.61231 18.5154 7.61231C18.5342 7.61231 18.8904 7.05918 19.2936 6.38418C20.1842 4.90293 20.8498 4.22793 21.9936 3.67481C22.9311 3.21543 23.6436 3.02793 24.6748 2.95293C26.1092 2.85918 27.5998 3.22481 28.7623 3.94668C29.0998 4.16231 29.4092 4.31231 29.4467 4.28418C29.4936 4.26543 29.7092 4.00293 29.9342 3.71231L30.3373 3.18731L30.0654 2.95293C29.6436 2.61543 27.9936 1.83731 27.2998 1.65918C26.5967 1.47168 24.3186 1.38731 23.6154 1.51856ZM19.0029 11.6248C19.3123 11.7842 19.8842 12.1967 20.2686 12.5342C21.0373 13.2092 22.3029 13.8936 23.2029 14.1186C24.5248 14.4561 26.1373 14.3998 27.6748 13.9498L28.4248 13.7342V17.9436V22.1529L28.1342 21.9842C27.9748 21.8904 27.3936 21.4217 26.8404 20.9436C25.7248 19.9686 24.9936 19.5561 24.1404 19.4248C23.1936 19.2654 22.0779 19.4998 21.4029 19.9779L21.1404 20.1654L20.8029 19.9311C20.3529 19.6311 20.0998 19.5373 19.3779 19.4248C18.0654 19.2186 16.9967 19.6029 15.6748 20.7561C14.8217 21.5061 14.0998 22.0498 13.9686 22.0498C13.9311 22.0498 13.8936 20.3342 13.8936 18.2248V14.4092L14.4092 13.6498C15.2904 12.3467 16.0686 11.6529 16.9873 11.3529C17.4748 11.1936 18.4123 11.3154 19.0029 11.6248ZM12.2998 17.3623V18.6748H12.0654C11.6998 18.6748 11.2873 18.4217 11.1279 18.1123C10.9498 17.7654 10.9498 16.9592 11.1279 16.6123C11.2967 16.2936 11.6717 16.0592 12.0467 16.0498H12.2998V17.3623ZM30.7686 16.1904C31.1436 16.3779 31.3311 16.7811 31.3311 17.3623C31.3311 17.6248 31.2654 17.9623 31.1904 18.1123C31.0311 18.4217 30.6186 18.6748 30.2529 18.6748H30.0186V17.3623V16.0498H30.2529C30.3936 16.0498 30.6186 16.1154 30.7686 16.1904ZM20.0811 21.2998C20.5217 21.5811 20.6717 21.6279 21.1592 21.6279C21.6467 21.6279 21.8061 21.5811 22.2373 21.2998C22.6592 21.0279 22.8467 20.9717 23.3811 20.9436C24.2061 20.8967 24.7123 21.1311 25.7529 22.0592C26.1654 22.4248 26.5967 22.7904 26.7092 22.8654C26.8311 22.9404 26.9061 23.0436 26.8779 23.0811C26.8029 23.2123 24.8623 23.3904 24.0936 23.3342C23.5404 23.2967 22.9967 23.1748 22.2373 22.9123L21.1686 22.5467L20.0342 22.9217C19.2561 23.1842 18.6842 23.3061 18.1686 23.3436C17.4279 23.3904 15.5154 23.2029 15.4404 23.0811C15.4123 23.0436 15.5342 22.9029 15.7029 22.7717C15.8623 22.6498 16.3217 22.2654 16.7061 21.9186C17.6811 21.0561 17.9904 20.9154 18.8623 20.9436C19.4904 20.9717 19.6311 21.0092 20.0811 21.2998ZM22.0873 24.4779C23.1186 24.8061 24.3467 24.9936 24.9936 24.9092C26.0154 24.7873 27.5436 24.5717 27.7498 24.5342C28.0404 24.4686 28.0123 24.6092 27.5904 25.4811C26.5779 27.5717 24.4779 29.2967 21.8436 30.2154C21.2717 30.4123 21.1779 30.4217 20.7654 30.3186C20.0998 30.1404 18.9279 29.6154 18.0748 29.1092C17.1654 28.5654 15.5061 26.9623 15.0373 26.1561C14.7467 25.6686 14.2498 24.5623 14.2967 24.5154C14.3061 24.5061 15.0561 24.6092 15.9561 24.7404C17.3998 24.9467 17.6998 24.9561 18.4404 24.8717C18.9092 24.8154 19.6404 24.6467 20.0811 24.4967C20.5217 24.3467 20.9623 24.2154 21.0561 24.2154C21.1498 24.2061 21.6186 24.3279 22.0873 24.4779ZM24.3936 32.1186V33.4686L23.8123 33.6654L23.2311 33.8623L22.9498 33.5248C22.5467 33.0279 22.0498 32.8311 21.2061 32.8311C20.8217 32.8311 20.3436 32.8779 20.1561 32.9248C19.8186 33.0186 19.3498 33.3842 19.1811 33.7029C19.0967 33.8529 19.0592 33.8529 18.5061 33.6654L17.9248 33.4686V32.1654C17.9248 31.4529 17.9436 30.8623 17.9623 30.8623C17.9811 30.8623 18.3092 31.0029 18.6936 31.1811C19.5186 31.5561 20.8404 31.9873 21.1592 31.9873C21.4873 31.9873 23.0342 31.4529 23.7373 31.0873C24.0748 30.9186 24.3561 30.7779 24.3748 30.7686C24.3842 30.7686 24.3936 31.3779 24.3936 32.1186ZM16.9873 34.7811L18.9092 35.4279L18.9373 36.1311L18.9654 36.8436L16.9311 37.5186C15.2904 38.0717 14.8873 38.1748 14.8217 38.0717C14.7279 37.9217 14.7092 34.5186 14.7936 34.2936C14.8217 34.2092 14.8967 34.1436 14.9623 34.1436C15.0186 34.1436 15.9373 34.4342 16.9873 34.7811ZM27.4686 36.1404C27.4873 37.6498 27.4686 38.0998 27.3748 38.1279C27.3092 38.1561 26.3904 37.8842 25.3311 37.5373L23.4092 36.8904V36.1592V35.4279L25.2842 34.7904C26.3154 34.4436 27.2248 34.1623 27.2998 34.1717C27.4217 34.1904 27.4404 34.4904 27.4686 36.1404ZM13.2561 36.4123C13.2842 38.7467 13.3217 38.8779 13.9498 39.3561C14.2029 39.5529 14.4186 39.6279 14.8123 39.6561C15.2717 39.6842 15.5998 39.5998 17.1467 39.0748L18.9467 38.4748L19.0123 38.7842C19.0873 39.2061 19.6311 39.8248 20.0342 39.9561L20.3623 40.0686V40.7623V41.4561H15.9092H11.4561V38.0904V34.7248L12.1873 34.5373C12.5811 34.4342 12.9842 34.3498 13.0686 34.3404C13.2092 34.3311 13.2279 34.5373 13.2561 36.4123ZM21.6561 34.4061C21.7404 34.4717 21.7686 34.9498 21.7498 36.4967L21.7217 38.5029H21.1123H20.5029L20.4748 36.5436C20.4561 35.1842 20.4842 34.5467 20.5592 34.4623C20.6717 34.3217 21.4592 34.2842 21.6561 34.4061ZM30.0279 34.5279L30.8623 34.7248V38.0904V41.4561H26.3623H21.8623V40.7717V40.0967L22.2842 39.9186C22.7811 39.7217 23.1654 39.2717 23.2404 38.8029L23.2873 38.4748L25.0779 39.0748C27.1029 39.7498 27.5717 39.8061 28.1904 39.4592C28.3967 39.3373 28.6498 39.0842 28.7717 38.8779C28.9779 38.5217 28.9873 38.4092 28.9873 36.4123C28.9873 34.9311 29.0154 34.3311 29.0904 34.3311C29.1467 34.3311 29.5686 34.4154 30.0279 34.5279ZM9.95605 39.0186V42.9561H21.1592H32.3623V39.0092C32.3623 35.2967 32.3717 35.0717 32.5311 35.1186C32.6154 35.1373 33.4404 35.3342 34.3592 35.5498L36.0186 35.9436V40.8092V45.6748H21.1123H6.20605V43.3779V41.0811H5.45605H4.70605V43.3779V45.6748H3.25293H1.7998V42.9279C1.7998 39.9654 1.8373 39.6561 2.3248 38.6529C2.6248 38.0529 3.69355 36.9279 4.3123 36.5998L4.70605 36.3842V38.0717V39.7686H5.45605H6.20605V37.8561V35.9529L7.3123 35.6904C7.9123 35.5498 8.70918 35.3623 9.06543 35.2686C9.43106 35.1748 9.77793 35.0904 9.84356 35.0904C9.92793 35.0811 9.95605 35.9248 9.95605 39.0186Z" fill="#282B8B"/>
<path d="M16.7998 17.2686V18.0186H17.5967H18.3936V17.2686V16.5186H17.5967H16.7998V17.2686Z" fill="#282B8B"/>
<path d="M23.4561 17.2686V18.0186H24.2061H24.9561V17.2686V16.5186H24.2061H23.4561V17.2686Z" fill="#282B8B"/>
<path d="M4.6123 3.44043V4.14355H3.90918H3.20605V4.94043V5.7373H3.90918H4.6123V6.44043V7.14355H5.40918H6.20605V6.44043V5.7373H6.90918H7.6123V4.94043V4.14355H6.90918H6.20605V3.44043V2.7373H5.40918H4.6123V3.44043ZM6.1123 4.94043V5.64355H5.40918H4.70605V4.94043V4.2373H5.40918H6.1123V4.94043Z" fill="#282B8B"/>
<path d="M43.7998 4.0498V4.7998H44.5498H45.2998V4.0498V3.2998H44.5498H43.7998V4.0498Z" fill="#282B8B"/>
<path d="M38.1273 8.49356C37.2648 8.77481 36.8148 9.00918 36.2898 9.47793C35.3805 10.2748 34.893 11.3998 34.893 12.6842C34.893 13.2654 35.043 14.0998 35.6055 16.5842C35.9992 18.3279 36.4023 19.9029 36.4961 20.0904C36.7492 20.5873 37.2086 21.0186 37.7898 21.2811C38.2492 21.4873 38.3711 21.5061 39.1305 21.4592C39.9648 21.4029 39.9742 21.4029 39.918 21.6092C39.8898 21.7217 39.6742 22.6779 39.4398 23.7373C39.1961 24.7967 38.9898 25.6686 38.9805 25.6873C38.9617 25.6967 38.7555 25.6029 38.5211 25.4717C37.7617 25.0498 36.543 25.0123 35.8117 25.3873C35.343 25.6311 34.7992 26.1842 34.5367 26.6811C34.3211 27.0936 34.2836 27.2811 34.2836 27.9654C34.2836 28.6873 34.3117 28.8279 34.5742 29.3342L34.8648 29.9061L34.2086 30.5623L33.543 31.2279L34.0117 31.7342C34.2648 32.0154 34.5086 32.2498 34.5648 32.2592C34.6117 32.2686 34.9773 31.9404 35.3805 31.5467L36.1117 30.8248L37.0211 30.8154C38.0805 30.8154 38.5492 30.6467 39.1492 30.0373C39.6648 29.5311 39.8336 29.1373 40.0961 27.8436C40.2273 27.2061 40.4711 26.0904 40.6398 25.3498L40.9492 24.0092L41.4367 26.2404C41.7086 27.4686 41.9336 28.5373 41.9242 28.6123C41.9242 28.9404 42.393 29.7186 42.8523 30.1311C43.4992 30.7123 44.0711 30.8998 45.018 30.8342L45.7492 30.7873L46.4805 31.5279C46.8836 31.9311 47.2586 32.2686 47.3148 32.2686C47.418 32.2686 48.2992 31.3029 48.2992 31.1904C48.2992 31.1623 48.0086 30.8623 47.643 30.5248L46.9961 29.9061L47.2867 29.3904C47.5211 28.9779 47.5867 28.7342 47.6242 28.1904C47.6805 27.2998 47.4836 26.7092 46.9305 26.0904C46.3211 25.4154 45.693 25.1342 44.7836 25.1248C44.1648 25.1248 43.9773 25.1623 43.4898 25.4061C43.1711 25.5654 42.9086 25.6873 42.8992 25.6779C42.8898 25.6686 42.6836 24.7686 42.4398 23.6904C42.2055 22.6029 41.9805 21.6467 41.9617 21.5623C41.9242 21.4217 41.9992 21.4123 42.7492 21.4592C43.5086 21.5061 43.6305 21.4873 44.0898 21.2811C44.6711 21.0186 45.1305 20.5873 45.393 20.0811C45.5617 19.7436 46.7805 14.5592 46.9867 13.3029C47.268 11.5686 46.3305 9.71231 44.7648 8.90606C44.2023 8.61543 42.9742 8.20293 42.918 8.28731C42.9086 8.30606 42.4773 10.1717 41.9711 12.4404C41.4648 14.7092 41.0242 16.6592 40.9961 16.7811C40.9586 16.9217 40.593 15.4686 39.9555 12.6373C39.4117 10.2373 38.9336 8.26856 38.8773 8.27793C38.8305 8.27793 38.493 8.38106 38.1273 8.49356ZM38.9336 15.0467C39.5055 17.6154 39.9648 19.7342 39.9461 19.7529C39.9273 19.7717 39.6461 19.8373 39.3273 19.9029C38.8117 20.0061 38.6992 20.0061 38.418 19.8654C38.2398 19.7811 38.0148 19.6029 37.9305 19.4717C37.7148 19.1436 36.393 13.2373 36.393 12.6373C36.4023 12.0748 36.5617 11.5779 36.8992 11.0904C37.1523 10.7248 37.8273 10.1811 37.8648 10.3029C37.8742 10.3498 38.3523 12.4779 38.9336 15.0467ZM44.5586 10.6029C45.0461 11.0061 45.4117 11.7373 45.468 12.4404C45.5055 12.9373 45.4023 13.5092 44.8211 16.0873C44.4461 17.7748 44.0617 19.2748 43.968 19.4342C43.8742 19.5842 43.6492 19.7811 43.4711 19.8654C43.1805 20.0061 43.068 20.0061 42.5523 19.9029C42.2336 19.8373 41.9617 19.7717 41.943 19.7529C41.868 19.6779 44.0336 10.3311 44.1273 10.3311C44.1836 10.3311 44.3711 10.4529 44.5586 10.6029ZM38.0992 27.0936C38.4086 27.4311 38.4555 27.5342 38.4555 27.9279C38.4555 29.4373 36.5617 29.8873 35.9148 28.5467C35.5961 27.8904 35.8023 27.2061 36.4398 26.8123C36.6555 26.6717 36.843 26.6436 37.2273 26.6717C37.6773 26.6998 37.7711 26.7467 38.0992 27.0936ZM45.4961 26.8592C46.3961 27.4592 46.3023 28.7623 45.3367 29.2217C44.4648 29.6342 43.4242 28.9779 43.4242 28.0029C43.4242 26.9529 44.6336 26.2779 45.4961 26.8592Z" fill="#282B8B"/>
<path d="M3.95605 25.4248V26.1748H4.70605H5.45605V25.4248V24.6748H4.70605H3.95605V25.4248Z" fill="#282B8B"/>
</g>
<defs>
<clipPath id="clip0_15707_78093">
<rect width="48" height="48" fill="white" transform="translate(0.299805 0.299805)"/>
</clipPath>
</defs>
</svg>
