<svg width="36" height="37" viewBox="0 0 36 37" fill="none" xmlns="http://www.w3.org/2000/svg">
<rect y="0.925781" width="36" height="36" rx="18" fill="#F93939"/>
<path fill-rule="evenodd" clip-rule="evenodd" d="M17.1719 18.9594C10.6631 16.2042 13.5479 7.71782 19.7759 8.14022C18.5135 8.78822 18.3311 9.99782 19.0511 11.1162C19.8575 12.3738 18.9791 14.3922 17.8895 14.8842C16.0991 15.6882 15.7415 17.8362 17.1695 18.9594H17.1719ZM17.7167 18.6666C18.3239 11.6274 27.2927 11.7474 28.8047 17.7978C27.8015 16.8018 26.5967 17.001 25.7519 18.033C24.8087 19.185 22.6175 18.969 21.8159 18.0882C20.4959 16.6386 18.3359 16.9602 17.7167 18.669V18.6666ZM17.9375 19.3698C24.8495 17.8938 27.3551 26.5026 22.0103 29.7234C22.6727 28.4682 22.1303 27.3714 20.8967 26.8674C19.5191 26.301 19.0823 24.1434 19.6919 23.1186C20.6951 21.4314 19.7543 19.4634 17.9399 19.3674L17.9375 19.3698ZM8.99991 27.2778C10.3919 27.5178 11.2679 26.661 11.3663 25.3338C11.4791 23.8458 13.3943 22.7658 14.5583 23.0298C16.4735 23.4618 18.0551 21.9594 17.5823 20.2026C21.1247 26.3226 13.7111 31.3626 8.99751 27.2754L8.99991 27.2778ZM7.56711 14.1258C7.84311 15.513 8.95431 16.0218 10.2311 15.6378C11.6591 15.2106 13.3559 16.6122 13.5263 17.7978C13.8095 19.737 15.7775 20.673 17.2463 19.6074C12.8063 25.1034 5.43831 19.9914 7.56711 14.1234V14.1258Z" fill="white"/>
</svg>
