<svg width="36" height="37" viewBox="0 0 36 37" fill="none" xmlns="http://www.w3.org/2000/svg">
<rect y="0.925781" width="36" height="36" rx="18" fill="#249F58"/>
<path fill-rule="evenodd" clip-rule="evenodd" d="M31.2001 24.9259V22.5259H4.80006L9.60006 24.9259H24.0001C24.0001 26.2507 25.6129 27.3259 27.6001 27.3259C29.5873 27.3259 31.2001 26.2507 31.2001 24.9259ZM13.7521 10.3003C13.7233 10.3003 13.6801 10.3147 13.6249 10.3483C13.4953 10.4347 13.2409 10.7011 13.2313 11.0083C13.2241 11.1835 13.1905 11.1835 13.3033 11.2963C13.3849 11.4115 13.4713 11.4019 13.6345 11.3131C13.7305 11.2411 13.7617 11.2003 13.7953 11.0827C13.8337 10.8907 13.5865 11.1787 13.5553 10.9579C13.5001 10.7563 13.6585 10.6699 13.8073 10.4779C13.8121 10.3819 13.8121 10.3099 13.7521 10.3051V10.3003ZM16.1593 10.3123C16.1113 10.3219 16.0561 10.3843 15.9769 10.5235C15.9217 10.6723 15.6793 10.8979 15.8569 11.3635C15.9961 11.6587 16.0561 12.1363 15.9913 12.6715C15.8905 12.8227 15.8713 12.8755 15.7393 13.0267C15.5569 13.2259 15.3553 13.1755 15.2065 13.0987C15.0625 13.0027 14.9521 12.9547 14.8873 12.6523C14.8993 12.1723 14.9281 11.3755 14.8393 11.2075C14.7097 10.9483 14.4937 11.0395 14.4025 11.1187C13.9633 11.5267 13.7449 12.2059 13.6105 12.7507C13.4905 13.1443 13.3585 13.0291 13.2673 12.8707C13.0441 12.6595 13.0273 11.0227 12.7585 11.2939C12.3265 12.5275 13.0057 13.8787 13.4785 13.7467C13.8145 13.8907 14.0305 13.2427 14.1697 12.5347C14.2657 12.3355 14.3377 12.3115 14.3857 12.4147C14.3737 13.3555 14.4577 13.5667 14.6977 13.8499C15.2353 14.2675 15.6817 13.9027 15.7177 13.8691L16.1377 13.4515C16.2337 13.3555 16.3537 13.3459 16.4857 13.4323C16.6153 13.5523 16.5985 13.7515 16.8697 13.8883C17.1049 13.9843 17.5969 13.9123 17.7097 13.7131C17.8657 13.4491 17.9017 13.3579 17.9737 13.2571C18.0841 13.1131 18.2737 13.1779 18.2737 13.2235C18.2569 13.3075 18.1465 13.3915 18.2209 13.5355C18.3529 13.6315 18.3841 13.5691 18.4609 13.5475C18.7345 13.4179 18.9409 12.8227 18.9409 12.8227C18.9529 12.6019 18.8281 12.6187 18.7489 12.6643C18.6409 12.7291 18.6361 12.7507 18.5329 12.8155C18.3961 12.8347 18.1369 12.9235 18.0097 12.7243C17.8777 12.4843 17.8777 12.1531 17.7769 11.9083C17.7769 11.8939 17.6017 11.5315 17.7625 11.5099C17.8417 11.5243 18.0193 11.5699 18.0457 11.4235C18.1321 11.2795 17.8609 10.8715 17.6761 10.6699C17.5177 10.4947 17.2969 10.4731 17.0833 10.6507C16.9321 10.7899 16.9561 10.9435 16.9249 11.0899C16.8889 11.2579 16.8961 11.4667 17.0689 11.6899C17.2177 11.9827 17.4889 12.3619 17.3977 12.8947C17.3977 12.8947 17.2417 13.1491 16.9657 13.1155C16.8457 13.0915 16.6585 13.0435 16.5577 12.2995C16.4857 11.7403 16.5769 10.9555 16.3417 10.5883C16.2865 10.4515 16.2409 10.3171 16.1641 10.3243L16.1593 10.3123ZM15.3961 10.3747C15.3241 10.3819 15.2449 10.4659 15.1801 10.6267C15.1249 10.7515 15.0553 11.3947 15.0673 11.3947C15.0193 11.5867 15.2665 11.6683 15.3793 11.4235C15.5473 10.9675 15.5473 10.7755 15.5569 10.5883C15.5329 10.4443 15.4681 10.3723 15.3961 10.3771V10.3747ZM18.2113 10.4227C18.1393 10.4323 18.0793 10.4755 18.0577 10.5859C18.0265 10.8403 18.0433 10.9819 18.0865 11.1955C18.1177 11.3395 18.3265 11.5747 18.4273 11.7139C18.9145 12.3691 19.3873 13.0267 19.8385 13.7059C19.9105 14.2147 19.9585 14.7091 19.9945 15.2035C20.0713 16.2835 20.0905 17.6275 20.0257 18.7675C20.2273 18.7747 20.5537 18.4387 20.6665 17.9515C20.7385 17.2699 20.6425 15.8875 20.6329 15.4843L20.6089 14.9131C21.1369 15.7771 21.6457 16.6891 22.1449 17.6875C22.3297 17.6011 22.2889 16.5715 22.1833 16.4275C21.7801 15.5635 21.2233 14.7091 21.0481 14.3803C20.9833 14.2603 20.7649 13.9315 20.5081 13.5499C20.4601 13.0027 20.4073 12.5419 20.3737 12.4027C20.2897 11.8267 20.6089 12.4675 20.5657 12.1339C20.4601 11.5579 20.1433 11.1691 19.7689 10.6411C19.6489 10.4731 19.6489 10.4347 19.4641 10.6843C19.3561 10.9363 19.3561 11.1475 19.3921 11.3443C19.3393 11.2723 19.2793 11.1907 19.1929 11.0851L18.5809 10.5667C18.4969 10.5067 18.3337 10.4155 18.2113 10.4227ZM26.5537 10.5115C26.5177 10.5067 26.4817 10.5235 26.4337 10.5883C26.3497 10.6603 26.2609 10.7971 26.2657 10.9723C26.2825 11.2723 26.3377 11.5819 26.3569 11.8843L26.3809 12.0043C26.3473 11.9659 26.3185 11.9323 26.3017 11.9179C25.7089 11.2939 26.5729 11.8123 26.1865 11.3347C25.8625 10.9747 25.7665 10.8643 25.4905 10.6483C25.3465 10.5619 25.2649 10.3891 25.2193 10.6819C25.2001 10.9387 25.1809 11.2387 25.1953 11.4547C25.1953 11.5747 25.3225 11.8027 25.4305 11.9347C25.8241 12.4219 26.2273 12.9379 26.6305 13.4755C26.7169 14.5723 26.7385 15.5779 26.8225 16.6771C26.8129 17.1475 26.6689 17.7715 26.5345 17.8291C26.5345 17.8291 26.3233 17.9491 26.1841 17.8171C26.0809 17.7763 25.6753 17.1379 25.6753 17.1379C25.4665 16.9459 25.3273 17.0011 25.1809 17.1379C24.7729 17.5315 24.5857 18.2707 24.3097 18.7795C24.2377 18.8923 24.0385 18.9907 23.8153 18.7699C23.2465 17.9923 23.5753 16.8859 23.5081 17.1715C23.0041 17.7427 23.2249 18.6883 23.3401 18.8923C23.5081 19.2283 23.6425 19.4443 23.9641 19.6051C24.2641 19.8211 24.4921 19.6891 24.6217 19.5331C24.9193 19.2259 24.9241 18.4363 25.0633 18.2803C25.1593 17.9923 25.4065 18.0403 25.5265 18.1699C25.6465 18.3379 25.7809 18.4459 25.9513 18.5371C26.2297 18.7819 26.5609 18.8251 26.8873 18.6019C27.1105 18.4771 27.2569 18.3139 27.3865 17.9923C27.5305 17.6179 27.4585 15.6499 27.4273 14.5555L28.0513 15.4579C28.1377 16.4179 28.1785 17.3659 28.1473 18.2731C28.1281 18.4531 28.7785 17.7355 28.7713 17.3947C28.7713 17.0995 28.7761 16.8283 28.7713 16.5787C29.0905 17.0827 29.3953 17.5939 29.6833 18.1147C29.8633 18.0187 29.8033 17.0035 29.6905 16.8667C29.3881 16.3579 28.9993 15.8107 28.6993 15.3835C28.6393 14.8483 28.5601 14.2171 28.5217 14.0227C28.4665 13.7203 28.4089 13.2667 28.3225 12.9091C28.2985 12.7723 28.2265 12.3259 28.2505 12.2851C28.2841 12.1819 28.4185 12.2851 28.4833 12.1699C28.5793 12.0619 28.1425 10.9219 27.9193 10.6003C27.8401 10.4563 27.6937 10.5043 27.5161 10.7443C27.3481 10.8979 27.4105 11.2531 27.4729 11.5915C27.6361 12.4555 27.7849 13.3291 27.9001 14.2075C27.6841 13.8835 27.4201 13.4947 27.1609 13.1227L27.1273 12.9547C27.1273 12.9355 27.0937 12.2467 27.0625 12.0835C27.0553 12.0163 27.0385 11.9971 27.1105 12.0067C27.1825 12.0691 27.1921 12.0715 27.2377 12.0931C27.3145 12.1027 27.3817 11.9779 27.3337 11.8603L26.6377 10.5787C26.6137 10.5475 26.5801 10.5187 26.5417 10.5139L26.5537 10.5115ZM5.02566 10.5355C4.89366 10.5307 4.75446 10.6075 4.80966 10.7635C4.77606 10.8475 5.05926 11.1307 5.10966 11.2867C5.15046 11.3995 5.06166 11.7547 5.15766 11.7907C5.24166 11.8267 5.35926 11.5411 5.40246 11.2795C5.42646 11.1355 5.40966 10.6411 5.07366 10.5403C5.05686 10.5355 5.04006 10.5355 5.02086 10.5331L5.02566 10.5355ZM29.5537 10.5355C29.5225 10.5403 29.4865 10.5835 29.4337 10.7035C29.3017 10.9195 29.2561 11.3035 29.3089 11.6395C29.6209 13.7755 29.8609 15.8443 29.9089 17.7355C29.8801 17.9179 29.8705 18.0139 29.7889 18.2395C29.6017 18.4795 29.3953 18.7771 29.2009 18.9211C29.0089 19.0651 28.5961 19.2043 28.4617 19.3099C28.0297 19.5547 28.0297 19.8379 28.3753 19.8499C28.9705 19.7779 29.6761 19.7299 30.1609 18.9979C30.2905 18.7939 30.4441 18.2371 30.4489 17.8939C30.4969 15.9019 30.4249 13.9459 30.1249 12.5035C30.1057 12.3595 30.0433 12.0403 30.0673 11.9995C30.1033 11.8987 30.2977 12.0067 30.3673 11.8939C30.4705 11.7883 29.8633 11.0131 29.6521 10.6819C29.6089 10.6003 29.5801 10.5307 29.5465 10.5379L29.5537 10.5355ZM23.3065 10.5691C23.2825 10.5739 23.2489 10.6123 23.1817 10.7011C23.0137 11.2435 22.9561 11.6851 23.0209 12.0259C23.4529 14.2579 23.8849 16.2859 23.8177 18.4099C24.0193 18.4099 24.2545 17.9467 24.3553 17.4859C24.4105 16.8499 24.3169 16.4635 24.3025 16.0939C24.2857 15.7195 23.8801 12.6955 23.7985 12.4147C23.6977 11.8819 24.1921 12.3427 24.1393 12.0355C23.9665 11.6419 23.5393 11.0755 23.4097 10.7323C23.3617 10.6411 23.3521 10.5571 23.3137 10.5643L23.3065 10.5691ZM8.10486 10.6123C8.05686 10.6219 8.00166 10.6651 7.98486 10.7323C7.97286 10.7803 8.00406 10.8595 7.96086 10.8835C7.93686 10.9075 7.84566 10.8907 7.85046 10.7635C7.85046 10.7203 7.81926 10.6771 7.80246 10.6507C7.78326 10.6411 7.77126 10.6387 7.73766 10.6387C7.69686 10.6387 7.69686 10.6507 7.67526 10.6867C7.66566 10.7203 7.65126 10.7539 7.65126 10.7923C7.64646 10.8403 7.62726 10.8523 7.59606 10.8595C7.55766 10.8595 7.56486 10.8643 7.53606 10.8427C7.51206 10.8259 7.49286 10.8187 7.49286 10.7851C7.49286 10.7491 7.48326 10.6891 7.47366 10.6699C7.45686 10.6459 7.43046 10.6363 7.40166 10.6291C7.24326 10.6291 7.23366 10.8163 7.24086 10.8835C7.22886 10.8979 7.22406 11.2195 7.44006 11.3107C7.72806 11.4499 8.27526 11.3899 8.25606 10.9219C8.25606 10.8811 8.24406 10.7419 8.23926 10.7059C8.21046 10.6339 8.15526 10.6099 8.10246 10.6171L8.10486 10.6123ZM12.0073 10.6171C11.9065 10.6219 11.8153 10.6507 11.7433 10.6891C11.5513 10.8739 11.5033 11.1691 11.6569 11.3539C11.8009 11.4259 11.9521 11.5699 11.8537 11.6539C11.4361 12.0979 10.3489 12.8443 10.2937 12.9811V12.9955H10.3033V13.0003C10.3585 13.0363 11.0401 13.0363 11.1145 13.0003H11.1193C11.3545 12.9115 12.4633 11.6443 12.4633 11.6443C12.4057 11.5963 12.3529 11.5579 12.2953 11.5075C12.2329 11.4547 12.2401 11.4019 12.2953 11.3491C12.5689 11.1907 12.4825 10.8379 12.3385 10.6771C12.2185 10.6243 12.1081 10.6051 12.0073 10.6123V10.6171ZM22.2073 10.6171C22.1785 10.6243 22.1425 10.6651 22.0873 10.7851C21.9553 11.0011 21.8665 11.3731 21.8785 11.7211C22.1617 13.6891 22.2481 15.4099 22.4353 17.3779C22.4497 17.5699 22.4209 17.8435 22.2961 17.9539C21.8257 18.4435 21.1513 19.0435 20.4169 19.3219C20.3377 19.4107 20.6137 19.7875 20.9689 19.7875C21.5641 19.7155 22.0873 19.3843 22.5769 18.5035C22.7041 18.2995 22.9321 17.8603 22.9369 17.5195C22.9849 15.5227 22.8409 13.9675 22.5385 12.5275C22.5217 12.3835 22.5337 12.2155 22.5577 12.1771C22.5961 12.1291 22.7257 12.1771 22.7977 12.0643C22.8985 11.9587 22.5241 11.0971 22.3129 10.7683C22.2697 10.6843 22.2457 10.6171 22.2073 10.6195V10.6171ZM6.40566 10.6819C6.32406 10.6915 6.24726 10.7539 6.20886 10.8499C6.19686 11.1619 6.19446 11.4739 6.23286 11.7667C6.37686 12.2779 6.41766 12.7267 6.48726 13.2475C6.51126 13.9483 6.08406 13.5499 6.10326 13.2043C6.19926 12.7531 6.17526 12.0451 6.08886 11.8651C6.01686 11.6851 5.94006 11.6419 5.77206 11.6731C5.64006 11.6635 5.29686 12.0331 5.20086 12.6571C5.20086 12.6571 5.11926 12.9739 5.08566 13.2571C5.03766 13.5763 4.82646 13.8043 4.67766 13.2139C4.55046 12.7819 4.47366 11.7259 4.26006 11.9707C4.19766 12.7963 4.12566 14.2507 4.82646 14.3995C5.67606 14.4811 5.20566 12.9643 5.51286 12.6883C5.57286 12.5563 5.68086 12.5539 5.68806 12.7243V14.0131C5.67846 14.4307 5.95206 14.5555 6.16806 14.6419C6.39126 14.6251 6.53766 14.6323 6.62406 14.8483L6.73206 17.0803C6.73206 17.0803 7.24566 17.2243 7.26966 15.8251C7.29366 15.0019 7.10166 14.3131 7.21446 14.1523C7.21926 13.9939 7.42086 13.9843 7.56006 14.0635C7.78326 14.2195 7.88166 14.4115 8.22726 14.3347C8.75526 14.1907 9.06726 13.9363 9.07446 13.5331C9.05046 13.1491 9.00246 12.7651 8.83446 12.3811C8.85846 12.3139 8.73846 12.1339 8.76246 12.0643C8.85366 12.2083 8.99766 12.1987 9.02646 12.0643C8.94006 11.7691 8.80086 11.4883 8.57526 11.3683C8.39046 11.2003 8.11926 11.2363 8.01846 11.5771C7.97046 11.9707 8.16246 12.4363 8.45046 12.8179C8.50806 12.9667 8.59446 13.2139 8.55606 13.4371C8.40486 13.5235 8.25366 13.4851 8.12406 13.3531C8.12406 13.3531 7.70886 13.0411 7.70886 12.9691C7.82166 12.2611 7.73286 12.1771 7.67286 11.9851C7.62966 11.7115 7.50006 11.6251 7.39686 11.4379C7.29126 11.3251 7.14966 11.3251 7.08486 11.4379C6.89766 11.7571 6.98406 12.4459 7.11846 12.7507C7.21446 13.0339 7.36326 13.2115 7.29366 13.2115C7.23606 13.3675 7.11606 13.3315 7.02966 13.1467C6.90966 12.7627 6.88086 12.1963 6.88086 11.9395C6.84486 11.6227 6.80406 10.9435 6.59286 10.7707C6.53766 10.6939 6.47286 10.6675 6.40806 10.6747L6.40566 10.6819ZM9.38646 10.6819C9.34566 10.6915 9.29766 10.7155 9.24246 10.7299C9.06246 10.7851 8.89446 10.9411 8.94726 11.2435C9.16326 12.5395 9.30006 13.5307 9.51366 14.8267C9.54486 14.9803 9.41766 15.1795 9.25446 15.1627C8.97606 14.9707 8.90646 14.5867 8.43126 14.6059C8.08566 14.6059 7.69206 14.9851 7.64406 15.3451C7.58646 15.6331 7.56726 15.9451 7.64406 16.1947C7.88406 16.4827 8.17686 16.4539 8.43126 16.3867C8.64006 16.3027 8.81526 16.0987 8.88726 16.1467C8.93526 16.2259 8.88246 16.9003 7.90326 17.4187C7.29846 17.6923 6.81846 17.7547 6.55926 17.2651C6.40086 16.9579 6.57366 15.7867 6.18006 16.0555C5.01366 19.0603 8.90886 19.4779 9.34326 16.1803C9.37206 16.0843 9.45606 15.9931 9.51846 16.0171C9.54246 16.0291 9.56646 16.0651 9.57606 16.1323C9.48486 19.1179 6.56166 19.3243 6.06726 18.3835C5.94246 18.1627 5.90646 17.6683 5.89446 17.3755C5.87046 17.1955 5.82726 17.0923 5.77446 17.0515C5.65446 16.9627 5.49606 17.1955 5.46246 17.5963C5.41446 17.9203 5.42646 18.0091 5.42646 18.3211C5.58486 20.6803 9.34566 19.6651 9.95766 17.7211C10.2601 16.7131 9.95046 15.9523 10.0537 15.8587L10.0609 15.8539H10.0681L10.0801 15.8491C10.4545 16.2523 10.9777 15.8971 11.0929 15.7603C11.1409 15.6883 11.2657 15.6403 11.3521 15.7363C11.6401 15.9427 12.1537 15.8443 12.2593 15.4723C12.3217 15.1123 12.3745 14.7427 12.3865 14.3563C12.1945 14.4163 12.0409 14.4595 11.9785 14.5243C11.9641 14.5411 11.9545 14.5603 11.9497 14.5795L11.9017 14.8987C11.9017 14.9107 11.8969 14.9179 11.8921 14.9227C11.8849 14.9395 11.8681 14.9515 11.8585 14.9587C11.7913 14.9947 11.6737 14.9755 11.6665 14.8771C11.5777 14.4691 11.2057 14.4163 10.9801 15.0523C10.8289 15.1723 10.5481 15.1963 10.5241 15.0139C10.5601 14.5867 10.3873 14.5291 10.0441 14.7307L9.71286 12.2347C9.85686 12.2275 9.98646 12.3307 10.1209 12.1675C9.97686 11.7259 9.67686 10.8283 9.50646 10.7419H9.50166L9.47766 10.7179C9.47766 10.7131 9.47046 10.7107 9.46566 10.7083L9.45606 10.6939C9.44646 10.6939 9.43686 10.6891 9.43206 10.6867C9.41526 10.6819 9.40086 10.6819 9.38406 10.6819H9.38646ZM21.0073 10.6915C20.8585 10.6867 20.6953 10.7803 20.7577 10.9675C20.7193 11.0707 21.0769 11.4163 21.1345 11.6035C21.2377 11.8915 21.0553 12.1723 21.1633 12.2131C21.2641 12.2563 21.4033 11.9131 21.4513 11.5939C21.5137 11.3347 21.3313 10.8067 21.0673 10.6987L21.0073 10.6939V10.6915ZM11.9521 11.0059C12.0193 11.0011 12.1009 11.0635 12.1441 11.1499C12.1849 11.2459 12.1633 11.3347 12.0961 11.3515C12.0241 11.3683 11.9329 11.3083 11.8897 11.2123C11.8465 11.1163 11.8657 11.0275 11.9377 11.0107H11.9521V11.0059ZM28.7449 11.4427C28.6081 11.4379 28.4569 11.5387 28.5193 11.7427C28.4857 11.8531 28.8073 12.2275 28.8625 12.4339C28.9105 12.5779 28.7905 13.0483 28.8865 13.0915C28.9777 13.1395 29.1025 12.7651 29.1505 12.4195C29.1793 12.2275 29.0401 11.5675 28.8025 11.4499C28.7857 11.4451 28.7665 11.4403 28.7473 11.4403L28.7449 11.4427ZM19.4569 11.6731C19.4737 11.7283 19.4857 11.7835 19.4929 11.8411C19.5217 11.9611 19.5457 12.0811 19.5697 12.2059C19.4641 12.0571 19.3777 11.9371 19.3369 11.8939C19.0969 11.6059 19.3417 11.7067 19.4569 11.6731ZM21.6001 12.7243C21.5473 12.7339 21.4969 12.7795 21.4801 12.8515C21.4657 12.8947 21.4993 12.9715 21.4561 12.9955C21.4321 13.0195 21.3361 13.0051 21.3433 12.8755C21.3433 12.8323 21.3121 12.7867 21.2953 12.7627C21.2761 12.7507 21.2641 12.7459 21.2305 12.7459C21.1897 12.7459 21.1897 12.7579 21.1681 12.7939C21.1585 12.8275 21.1441 12.8611 21.1441 12.9019C21.1441 12.9499 21.1249 12.9643 21.0913 12.9739C21.0529 12.9739 21.0601 12.9739 21.0289 12.9571C21.0097 12.9331 20.9881 12.9283 20.9881 12.8947C20.9881 12.8587 20.9809 12.8035 20.9689 12.7795C20.9521 12.7555 20.9281 12.7483 20.8969 12.7387C20.7409 12.7387 20.7289 12.9211 20.7385 12.9883C20.7289 13.0027 20.7217 13.3291 20.9377 13.4203C21.2305 13.5571 21.7777 13.4923 21.7537 13.0267C21.7537 12.9859 21.7417 12.8467 21.7393 12.8107C21.7081 12.7387 21.6529 12.7147 21.6025 12.7219L21.6001 12.7243ZM11.8321 12.8203C11.7985 12.8203 11.7505 12.8299 11.6953 12.8635C11.4385 13.0027 11.3401 13.4155 11.5033 13.6555C11.6473 13.8715 11.8873 13.7923 11.9185 13.7923C12.1705 13.8259 12.3193 13.3219 12.3193 13.3219C12.3193 13.3219 12.3265 13.1779 12.0313 13.4467C11.9017 13.4707 11.8873 13.4227 11.8537 13.3507C11.8249 13.2235 11.8297 13.0867 11.8897 12.9595C11.9185 12.8803 11.8897 12.8299 11.8321 12.8251V12.8203ZM25.6393 12.8851C25.4953 12.8779 25.3441 12.9715 25.3033 13.1659C25.3033 13.2811 25.3561 13.3435 25.3465 13.4491C25.3345 13.5091 25.2745 13.5451 25.1257 13.4779C25.1497 13.4539 25.0297 13.2907 25.0297 13.2907C24.9169 13.2187 24.7657 13.2907 24.6649 13.3579C24.6097 13.4587 24.5689 13.6291 24.6313 13.8019C24.7945 14.1067 25.3585 14.6251 25.6273 14.6299C25.6321 14.3563 25.6585 13.9915 25.6753 13.7659C25.6801 13.6795 25.6993 13.5859 25.7833 13.5643C25.8649 13.5403 26.0065 13.6459 26.0065 13.5571C25.9921 13.3843 25.9585 13.1251 25.8625 13.0051C25.8097 12.9331 25.7257 12.8899 25.6417 12.8851H25.6393ZM14.2081 13.8379L14.2009 13.8451C14.2009 13.8451 14.1961 13.8451 14.1937 13.8499C14.1649 13.8739 14.1313 13.9219 14.0569 13.9699C13.9297 14.1139 13.9081 14.2171 13.9129 14.5051C13.9225 14.5363 14.1529 15.1843 14.3521 15.6379C14.4865 16.1107 14.6089 16.6531 14.5201 17.1643C14.2081 17.8411 13.5841 18.4483 12.9769 18.7795C12.6649 18.8755 12.4009 18.8419 12.3289 18.7747C12.1513 18.6547 12.1489 18.4387 12.1609 18.4051V18.3979C12.6697 18.0427 13.2529 17.7547 13.7089 16.7971C13.8433 16.4299 13.8865 16.2091 13.7521 15.6451C13.6993 15.4291 13.6321 15.2611 13.4881 15.1075H13.4929C13.5793 15.0667 13.8049 15.2323 13.8409 15.1315C13.7857 14.8579 13.6009 14.4955 13.3969 14.3083C13.2145 14.1403 13.0129 14.1235 12.8497 14.2747C12.6625 14.3803 12.6241 14.7547 12.7129 15.0811C12.8137 15.3259 13.0849 15.3691 13.2769 15.8659C13.2817 15.8995 13.3417 16.2379 13.2457 16.3771C13.1641 16.6219 12.1537 17.4187 12.0817 17.4667L12.0745 17.4715L12.0697 17.4763H12.0649H12.0601V17.4691C12.0553 17.4499 12.0601 17.3971 12.0601 17.3179C12.0529 17.1691 12.1153 16.8307 12.1081 16.7707V16.7659C11.7721 16.9819 11.6593 17.6419 11.5993 17.8387C10.7521 18.4219 9.79206 18.8563 9.23766 19.4467C8.94966 19.9027 11.2249 18.9331 11.4889 18.8155L11.4961 18.8227C11.5489 18.8779 11.5513 19.0699 11.7025 19.2451C11.9425 19.5643 12.4417 19.7611 12.9313 19.6387C13.7521 19.3435 14.2273 18.7843 14.7073 18.1627C14.7745 18.0667 14.8825 17.9851 14.9833 18.0619C15.3121 18.8011 16.2673 19.3291 17.4985 19.3819C17.7865 19.0363 17.6497 18.8659 17.5345 18.7939C17.4985 18.7699 16.9225 18.5443 16.8313 18.3211C16.7761 18.1147 16.9129 17.9299 17.1865 17.7931C17.9785 17.6971 18.7561 17.5891 19.5097 17.3467C19.5169 17.0923 19.6657 16.7155 19.7665 16.5499C19.8385 16.4371 19.8793 16.4251 19.8961 16.4107V16.4059H19.9009V16.3987V16.3747L19.7713 16.2979L17.2441 16.2883C17.2129 16.2763 17.1913 16.2643 17.1769 16.2523L17.1721 16.2451C17.1721 16.2451 17.1673 16.2451 17.1673 16.2403C17.1673 16.2355 17.1625 16.2355 17.1625 16.2355V16.2379V16.2331V16.2283V16.2235L17.1673 16.2163C17.1793 16.2019 17.2105 16.1851 17.2465 16.1683C17.8513 16.0891 18.9217 15.9139 18.9937 14.8843C18.9817 14.3467 18.7633 13.9963 18.1057 13.9003C17.6209 13.9363 17.2753 14.4043 17.3305 14.9179C17.3065 15.0547 17.3785 15.3259 17.2345 15.3571C16.3081 15.4435 15.2953 16.0243 15.2617 16.4419H15.2569H15.2521H15.2473C15.2473 16.4467 15.2425 16.4467 15.2401 16.4467H15.2305H15.2257H15.2161C15.1561 16.4275 15.0793 16.3267 15.0913 16.1899C15.0553 15.4699 14.8201 14.6539 14.4553 14.0299C14.3233 13.8979 14.2633 13.8451 14.2297 13.8379H14.2225H14.2153H14.2105H14.2081ZM16.6273 14.2171C16.5793 14.2267 16.5241 14.2699 16.5073 14.3419C16.4953 14.3899 16.5313 14.4667 16.4881 14.4907C16.4641 14.5147 16.3681 14.5003 16.3729 14.3707C16.3729 14.3299 16.3417 14.2843 16.3249 14.2579C16.3057 14.2459 16.2937 14.2435 16.2625 14.2435C16.2217 14.2435 16.2193 14.2531 16.1977 14.2867C16.1857 14.3203 16.1737 14.3587 16.1737 14.3947C16.1689 14.4427 16.1497 14.4571 16.1185 14.4619C16.0801 14.4619 16.0897 14.4691 16.0585 14.4499C16.0393 14.4307 16.0153 14.4211 16.0153 14.3875C16.0153 14.3515 16.0081 14.2915 15.9985 14.2675C15.9817 14.2507 15.9553 14.2435 15.9265 14.2339C15.7657 14.2339 15.7585 14.4139 15.7657 14.4835C15.7537 14.4955 15.7465 14.8195 15.9625 14.9107C16.2505 15.0499 16.9465 14.9683 16.7785 14.5195C16.7785 14.4787 16.7665 14.3395 16.7641 14.3035C16.7329 14.2315 16.6777 14.2075 16.6249 14.2147L16.6273 14.2171ZM26.3833 14.6179H26.3593C26.3593 14.6179 25.0105 15.5779 24.9793 15.6115C24.8449 15.7315 24.9121 16.1467 24.9793 16.0987C25.0753 16.1347 26.4313 15.2155 26.4049 15.1075C26.4649 15.1123 26.4937 14.6347 26.3809 14.6155L26.3833 14.6179ZM17.9017 14.7619C17.9545 14.7547 18.0265 14.7739 18.0937 14.8099C18.1969 14.8723 18.2617 14.9587 18.2497 15.0259V15.0355C18.2449 15.0355 18.2449 15.0355 18.2449 15.0403V15.0451C18.2449 15.0451 18.2401 15.0451 18.2401 15.0499C18.2401 15.0547 18.2329 15.0595 18.2281 15.0643C18.1801 15.1123 18.0697 15.1027 17.9641 15.0403C17.8633 14.9851 17.8033 14.8963 17.8081 14.8339V14.8267L17.8201 14.8027C17.8201 14.8027 17.8201 14.7979 17.8249 14.7955L17.8369 14.7811C17.8537 14.7691 17.8753 14.7571 17.9017 14.7571V14.7619ZM6.09846 15.0019C5.40246 15.0163 4.37766 15.9187 4.35126 16.4179L6.55926 15.3619C6.43926 15.1795 6.55206 15.0163 6.09846 15.0019ZM8.36166 15.3139C8.42886 15.3187 8.50086 15.3523 8.53926 15.4483C8.57286 15.5371 8.53926 15.6283 8.49846 15.6739V15.6811C8.46486 15.7195 8.36406 15.7051 8.28966 15.7051C8.20086 15.7003 8.15766 15.6859 8.10486 15.6139C8.07606 15.5299 8.15286 15.4507 8.18886 15.3931L8.20566 15.3691C8.22966 15.3451 8.27766 15.3259 8.32566 15.3211L8.35686 15.3163L8.36166 15.3139ZM26.1217 15.5947C25.9945 15.6091 25.8769 15.7267 25.9297 15.9139C25.8961 16.0243 26.0977 16.4107 26.1529 16.6147C26.2009 16.7587 26.0905 17.1739 26.1889 17.2147C26.2801 17.2627 26.5177 16.9747 26.5105 16.6051C26.5345 16.4131 26.4433 15.7171 26.2057 15.6019C26.1769 15.5947 26.1481 15.5923 26.1193 15.5947H26.1217ZM11.0401 16.2763C10.9297 16.2835 10.8313 16.3411 10.8769 16.4971C10.8697 16.6075 11.1889 16.7443 11.2057 17.0011C11.2489 17.1115 11.1337 17.4571 11.2297 17.4859C11.3161 17.5219 11.4361 17.2459 11.4817 16.9963C11.5057 16.8571 11.3713 16.3723 11.1457 16.2835C11.1097 16.2739 11.0737 16.2715 11.0377 16.2739L11.0401 16.2763ZM15.5521 16.8907H15.5809C15.8641 16.9675 16.2769 16.9771 16.6369 17.0107C16.9321 17.0347 17.0761 17.2603 16.8049 17.3587C16.5313 17.4499 16.2697 17.5267 16.2697 17.9155C16.3033 18.1075 16.2937 18.2083 16.2649 18.2515C16.2649 18.2587 16.2577 18.2635 16.2553 18.2659C16.2553 18.2659 16.2553 18.2707 16.2505 18.2707V18.2755H16.2433L16.2265 18.2827H16.2145C16.1497 18.2947 16.0561 18.2347 15.9865 18.1963C15.8185 18.0763 15.3505 17.7883 15.2833 17.1643C15.2737 17.0203 15.3793 16.9003 15.5473 16.8883L15.5521 16.8907ZM4.52646 17.3707C4.50966 17.3707 4.47846 17.4235 4.43046 17.4835C4.01286 18.1435 3.97446 19.1299 4.20486 19.4275C4.32486 19.5643 4.52646 19.6267 4.67526 19.5835C4.93926 19.4707 5.05206 18.9403 4.98726 18.7483C4.90326 18.6115 4.83366 18.5899 4.74726 18.7051C4.56246 19.0771 4.48326 18.8203 4.47126 18.6091C4.44246 18.2179 4.48086 17.8531 4.52406 17.5651C4.54806 17.4211 4.54806 17.3659 4.52406 17.3659L4.52646 17.3707ZM18.6793 18.2395C18.6481 18.2395 18.6169 18.2443 18.5833 18.2635C18.5761 18.2635 18.2857 18.4555 18.1921 18.5947C18.1345 18.6379 18.1441 18.6739 18.1585 18.7507C18.2017 18.8539 18.2785 18.8227 18.3697 18.7747C18.4897 18.7555 18.5449 18.8347 18.5377 18.9763C18.4825 19.1563 18.5617 19.2211 18.5617 19.2331C18.5617 19.2427 18.6745 19.3411 18.8089 19.2643C19.0897 19.1563 19.2649 19.0483 19.6609 18.9643C19.7641 18.9643 19.7569 18.6859 19.5937 18.6763C19.3777 18.6859 19.1857 18.7003 18.9697 18.8683C18.8377 18.8971 18.8161 18.8155 18.7849 18.7435C18.7513 18.5659 18.8617 18.4411 18.8377 18.3067C18.8425 18.3139 18.7705 18.2491 18.6769 18.2443L18.6793 18.2395ZM27.7417 18.5755L27.5497 18.5947C27.4633 18.6115 27.4345 18.6499 27.4177 18.7555C27.4249 18.9115 27.5209 18.9043 27.6217 18.9667C27.6793 19.0387 27.7177 19.1059 27.6169 19.2307C27.5209 19.3147 27.4561 19.3627 27.3601 19.4467C27.3193 19.5235 27.2881 19.6387 27.4273 19.6771C27.6793 19.7491 28.2625 19.3699 28.2625 19.3651C28.3585 19.2931 28.3249 19.1563 28.3177 19.1563C28.2601 19.0939 28.1353 19.1323 28.0537 19.1203C28.0129 19.1203 27.8857 19.1011 27.9433 18.9859C27.9961 18.9139 28.0153 18.8731 28.0513 18.7843C28.0873 18.6979 28.0513 18.6403 27.9121 18.5923C27.8401 18.5779 27.7921 18.5731 27.7369 18.5755H27.7417ZM24.2545 27.8395C24.9025 27.8707 25.5073 27.8467 26.1505 27.8779C26.2561 27.9643 26.2057 28.1659 26.1385 28.1995L26.1265 28.2043H26.1193H26.1097L25.5673 28.1899V28.1587C25.5145 28.0099 25.1545 28.0195 25.0681 28.1347V28.1419C25.0633 28.1419 25.0609 28.1491 25.0609 28.1515L25.0561 28.1635V28.1923C24.7681 28.2283 24.5161 28.1827 24.2329 28.1731C24.1489 28.0699 24.1609 27.8851 24.2569 27.8371L24.2545 27.8395Z" fill="white"/>
</svg>
