<svg width="20" height="20" viewBox="0 0 20 20" fill="none" xmlns="http://www.w3.org/2000/svg">
<g clip-path="url(#clip0_17849_42165)">
<path fill-rule="evenodd" clip-rule="evenodd" d="M9.41335 9.4107C9.73879 9.08527 10.2664 9.08527 10.5919 9.4107L13.9252 12.744C14.2506 13.0695 14.2506 13.5971 13.9252 13.9225C13.5998 14.248 13.0721 14.248 12.7467 13.9225L10.0026 11.1785L7.25853 13.9225C6.93309 14.248 6.40545 14.248 6.08002 13.9225C5.75458 13.5971 5.75458 13.0695 6.08002 12.744L9.41335 9.4107Z" fill="#242B3A"/>
<path fill-rule="evenodd" clip-rule="evenodd" d="M9.9974 9.16663C10.4576 9.16663 10.8307 9.53972 10.8307 9.99996V17.5C10.8307 17.9602 10.4576 18.3333 9.9974 18.3333C9.53716 18.3333 9.16406 17.9602 9.16406 17.5V9.99996C9.16406 9.53972 9.53716 9.16663 9.9974 9.16663Z" fill="#242B3A"/>
<path fill-rule="evenodd" clip-rule="evenodd" d="M7.21605 1.67379C8.34895 1.63205 9.47658 1.84768 10.5142 2.30447C11.5517 2.76126 12.4722 3.44732 13.2065 4.31108C13.7994 5.00852 14.2584 5.80715 14.5625 6.66665H14.9966C16.1075 6.66739 17.187 7.03804 18.0639 7.7201C18.9407 8.40217 19.5654 9.3568 19.8394 10.4333C20.1134 11.5099 20.0211 12.647 19.5771 13.6653C19.133 14.6835 18.3625 15.5249 17.3872 16.0567C16.9831 16.277 16.4769 16.128 16.2566 15.7239C16.0363 15.3198 16.1853 14.8136 16.5894 14.5933C17.2396 14.2388 17.7533 13.6779 18.0493 12.9991C18.3454 12.3202 18.4069 11.5621 18.2242 10.8444C18.0415 10.1268 17.6251 9.49033 17.0405 9.03562C16.456 8.58091 15.7367 8.33381 14.9961 8.33332H13.9466C13.5667 8.33332 13.2349 8.07638 13.1398 7.70858C12.9191 6.8549 12.5078 6.06236 11.9367 5.39055C11.3656 4.71874 10.6496 4.18513 9.84261 3.82985C9.0356 3.47457 8.15856 3.30686 7.27741 3.33932C6.39626 3.37179 5.53394 3.60359 4.75527 4.01729C3.9766 4.43099 3.30184 5.01584 2.78174 5.72785C2.26163 6.43987 1.9097 7.26053 1.75241 8.12813C1.59513 8.99574 1.63657 9.88771 1.87363 10.737C2.11068 11.5863 2.53719 12.3708 3.12108 13.0315C3.42584 13.3764 3.39333 13.903 3.04846 14.2078C2.70359 14.5125 2.17695 14.48 1.87219 14.1351C1.12148 13.2856 0.573112 12.277 0.268323 11.1851C-0.0364657 10.0931 -0.089749 8.94632 0.112479 7.83083C0.314708 6.71534 0.767185 5.6602 1.43589 4.74476C2.1046 3.82931 2.97214 3.07736 3.97329 2.54546C4.97444 2.01355 6.08314 1.71553 7.21605 1.67379Z" fill="#242B3A"/>
<path fill-rule="evenodd" clip-rule="evenodd" d="M9.41335 9.4107C9.73879 9.08527 10.2664 9.08527 10.5919 9.4107L13.9252 12.744C14.2506 13.0695 14.2506 13.5971 13.9252 13.9225C13.5998 14.248 13.0721 14.248 12.7467 13.9225L10.0026 11.1785L7.25853 13.9225C6.93309 14.248 6.40545 14.248 6.08002 13.9225C5.75458 13.5971 5.75458 13.0695 6.08002 12.744L9.41335 9.4107Z" fill="#242B3A"/>
</g>
<defs>
<clipPath id="clip0_17849_42165">
<rect width="20" height="20" fill="white"/>
</clipPath>
</defs>
</svg>
