<svg width="25" height="24" viewBox="0 0 25 24" fill="none" xmlns="http://www.w3.org/2000/svg">
<path d="M12.5273 0H12.4727C5.86035 0 0.5 5.36035 0.5 11.9727V12.0273C0.5 18.6397 5.86035 24 12.4727 24H12.5273C19.1397 24 24.5 18.6397 24.5 12.0273V11.9727C24.5 5.36035 19.1397 0 12.5273 0Z" fill="url(#paint0_linear_15538_16018)"/>
<path d="M16.2134 4.88281H8.78711C6.73547 4.88281 5.06641 6.55187 5.06641 8.60351V15.3975C5.06641 17.4491 6.73547 19.1182 8.78711 19.1182H16.2134C18.265 19.1182 19.9341 17.4491 19.9341 15.3975V8.60351C19.9341 6.55187 18.265 4.88281 16.2134 4.88281ZM6.37895 8.60351C6.37895 7.27583 7.45943 6.19536 8.78711 6.19536H16.2134C17.5411 6.19536 18.6215 7.27583 18.6215 8.60351V15.3975C18.6215 16.7252 17.5411 17.8056 16.2134 17.8056H8.78711C7.45943 17.8056 6.37895 16.7252 6.37895 15.3975V8.60351Z" fill="white"/>
<path d="M12.4999 15.4603C14.4078 15.4603 15.9608 13.9082 15.9608 11.9995C15.9608 10.0908 14.4086 8.53857 12.4999 8.53857C10.5912 8.53857 9.03906 10.0908 9.03906 11.9995C9.03906 13.9082 10.5912 15.4603 12.4999 15.4603ZM12.4999 9.85196C13.6847 9.85196 14.6483 10.8156 14.6483 12.0003C14.6483 13.185 13.6847 14.1486 12.4999 14.1486C11.3152 14.1486 10.3516 13.185 10.3516 12.0003C10.3516 10.8156 11.3152 9.85196 12.4999 9.85196Z" fill="white"/>
<path d="M16.2801 9.09789C16.7939 9.09789 17.2126 8.67999 17.2126 8.1654C17.2126 7.65081 16.7947 7.23291 16.2801 7.23291C15.7655 7.23291 15.3477 7.65081 15.3477 8.1654C15.3477 8.67999 15.7655 9.09789 16.2801 9.09789Z" fill="white"/>
<defs>
<linearGradient id="paint0_linear_15538_16018" x1="4.00629" y1="20.4937" x2="20.9937" y2="3.50713" gradientUnits="userSpaceOnUse">
<stop stop-color="#FAAD4F"/>
<stop offset="0.35" stop-color="#DD2A7B"/>
<stop offset="0.62" stop-color="#9537B0"/>
<stop offset="1" stop-color="#515BD4"/>
</linearGradient>
</defs>
</svg>
