<svg width="25" height="24" viewBox="0 0 25 24" fill="none" xmlns="http://www.w3.org/2000/svg">
<path d="M10.5 14H14.5C14.7652 14 15.0196 13.8946 15.2071 13.7071C15.3946 13.5196 15.5 13.2652 15.5 13C15.5 12.7348 15.3946 12.4804 15.2071 12.2929C15.0196 12.1054 14.7652 12 14.5 12H10.5C10.2348 12 9.98043 12.1054 9.79289 12.2929C9.60536 12.4804 9.5 12.7348 9.5 13C9.5 13.2652 9.60536 13.5196 9.79289 13.7071C9.98043 13.8946 10.2348 14 10.5 14ZM19.5 3H5.5C4.70435 3 3.94129 3.31607 3.37868 3.87868C2.81607 4.44129 2.5 5.20435 2.5 6V9C2.5 9.26522 2.60536 9.51957 2.79289 9.70711C2.98043 9.89464 3.23478 10 3.5 10H4.5V18C4.5 18.7956 4.81607 19.5587 5.37868 20.1213C5.94129 20.6839 6.70435 21 7.5 21H17.5C18.2956 21 19.0587 20.6839 19.6213 20.1213C20.1839 19.5587 20.5 18.7956 20.5 18V10H21.5C21.7652 10 22.0196 9.89464 22.2071 9.70711C22.3946 9.51957 22.5 9.26522 22.5 9V6C22.5 5.20435 22.1839 4.44129 21.6213 3.87868C21.0587 3.31607 20.2956 3 19.5 3ZM18.5 18C18.5 18.2652 18.3946 18.5196 18.2071 18.7071C18.0196 18.8946 17.7652 19 17.5 19H7.5C7.23478 19 6.98043 18.8946 6.79289 18.7071C6.60536 18.5196 6.5 18.2652 6.5 18V10H18.5V18ZM20.5 8H4.5V6C4.5 5.73478 4.60536 5.48043 4.79289 5.29289C4.98043 5.10536 5.23478 5 5.5 5H19.5C19.7652 5 20.0196 5.10536 20.2071 5.29289C20.3946 5.48043 20.5 5.73478 20.5 6V8Z" fill="#858585"/>
</svg>
