<svg width="25" height="24" viewBox="0 0 25 24" fill="none" xmlns="http://www.w3.org/2000/svg">
<path d="M12.5273 0H12.4727C5.86036 0 0.5 5.36035 0.5 11.9727V12.0273C0.5 18.6397 5.86036 24 12.4727 24H12.5273C19.1396 24 24.5 18.6397 24.5 12.0273V11.9727C24.5 5.36035 19.1396 0 12.5273 0Z" fill="#007EBB"/>
<path d="M6.22338 7.97796C5.90723 7.6845 5.75 7.32126 5.75 6.88907C5.75 6.45688 5.90807 6.07766 6.22338 5.78337C6.53954 5.48992 6.9465 5.34277 7.44512 5.34277C7.94373 5.34277 8.33473 5.48992 8.65004 5.78337C8.9662 6.07682 9.12342 6.44595 9.12342 6.88907C9.12342 7.33219 8.96536 7.6845 8.65004 7.97796C8.33389 8.27141 7.9328 8.41855 7.44512 8.41855C6.95743 8.41855 6.53954 8.27141 6.22338 7.97796ZM8.85773 9.66131V18.6583H6.01486V9.66131H8.85773Z" fill="#FEFFFC"/>
<path d="M18.3228 10.55C18.9425 11.2227 19.252 12.1459 19.252 13.3214V18.4993H16.5521V13.6863C16.5521 13.0936 16.3982 12.6328 16.0913 12.3048C15.7844 11.9769 15.3707 11.8121 14.8527 11.8121C14.3348 11.8121 13.9211 11.9761 13.6142 12.3048C13.3073 12.6328 13.1534 13.0936 13.1534 13.6863V18.4993H10.4375V9.63603H13.1534V10.8115C13.4283 10.4197 13.7992 10.1103 14.265 9.8824C14.7308 9.65453 15.2546 9.54102 15.8373 9.54102C16.8749 9.54102 17.704 9.87735 18.3228 10.55Z" fill="#FEFFFC"/>
</svg>
