<svg width="86" height="86" viewBox="0 0 86 86" fill="none" xmlns="http://www.w3.org/2000/svg">
<path d="M61.3963 6.98272L61.3968 6.98265C64.7878 6.49603 67.7895 7.0713 70.1574 8.5816C72.5274 10.0932 74.0963 12.4371 74.7939 15.1737C76.0694 20.1762 74.6787 24.1729 73.474 27.6352C73.2432 28.2984 73.0193 28.942 72.8222 29.5694C71.2089 34.707 70.8291 36.8078 71.4681 38.9155C71.8009 40.0131 72.4517 41.2288 73.6222 42.9128C74.7223 44.4954 76.194 46.3716 78.1443 48.858C78.2757 49.0255 78.4092 49.1957 78.545 49.3689C83.9269 56.2322 84.7537 64.0614 81.0264 70.1728C77.3313 76.2314 69.54 79.9788 58.9726 79.6356L58.9558 79.635L58.939 79.6342C57.6105 79.5687 56.4062 79.5037 55.3005 79.444C47.7111 79.0342 44.7677 78.8752 38.1899 80.5382C37.3843 80.742 36.3775 81.0278 35.2423 81.35C32.547 82.1151 29.1274 83.0858 25.956 83.6529C16.0769 85.4214 5.27545 80.3771 2.80956 68.4681C1.17871 60.5957 3.78908 55.0994 7.32208 49.2807L61.3963 6.98272ZM61.3963 6.98272C59.9817 7.18609 58.7502 7.44736 57.6247 7.68614M61.3963 6.98272L57.6247 7.68614M57.6247 7.68614C54.1225 8.42917 51.6469 8.95437 47.8769 6.83895M57.6247 7.68614L47.8769 6.83895M47.8769 6.83895C36.5417 0.476759 28.3351 0.829287 23.0158 5.3275C17.9434 9.61689 16.3122 17.0675 16.516 23.0885L47.8769 6.83895ZM14.0386 38.9337C15.6791 35.566 16.7871 31.1245 16.516 23.0888L14.0386 38.9337ZM14.0386 38.9337C13.2016 40.6521 12.1967 42.1523 11.0437 43.7866M14.0386 38.9337L11.0437 43.7866M11.0437 43.7866C10.8539 44.0556 10.6595 44.3291 10.4614 44.6077M11.0437 43.7866L10.4614 44.6077M10.4614 44.6077C9.47218 45.9991 8.39042 47.5207 7.32221 49.2805L10.4614 44.6077Z" fill="#FFECF5" stroke="#FFECF5" stroke-width="4"/>
<g clip-path="url(#clip0_16414_36276)">
<path d="M79.2549 28.6924C75.8816 28.6924 73.1216 31.4234 73.1216 34.7613C73.1216 38.0993 75.8816 40.8303 79.2549 40.8303C82.6282 40.8303 85.3882 38.0993 85.3882 34.7613C85.3882 31.4234 82.6282 28.6924 79.2549 28.6924ZM81.5549 34.0786C81.4016 34.1545 81.2482 34.2303 81.0949 34.2303C80.8649 34.2303 80.6349 34.0786 80.4816 33.9269C80.1749 33.5476 79.7149 33.2441 79.2549 33.2441C78.7949 33.2441 78.4882 32.9407 78.4882 32.4855C78.4882 32.0303 78.7949 31.7269 79.2549 31.7269C80.2516 31.7269 81.1716 32.182 81.7849 33.0165C82.0149 33.3958 81.9382 33.851 81.5549 34.0786Z" fill="#FFECF5"/>
<path d="M69.2884 28.6917C67.1417 28.6917 65.4551 27.0227 65.4551 24.8986C65.4551 22.7744 67.1417 21.1055 69.2884 21.1055C71.4351 21.1055 73.1217 22.7744 73.1217 24.8986C73.1217 27.0227 71.4351 28.6917 69.2884 28.6917Z" fill="#FFECF5"/>
<path d="M66.6048 37.7954C64.6881 37.7954 63.1548 36.2781 63.1548 34.3816C63.1548 32.485 64.6881 30.9678 66.6048 30.9678C68.5215 30.9678 70.0548 32.485 70.0548 34.3816C70.0548 36.2781 68.5215 37.7954 66.6048 37.7954Z" fill="#FFECF5"/>
<path d="M76.9547 23.382C76.4947 23.382 76.188 23.0785 76.188 22.6233V20.3475C76.188 19.8923 76.4947 19.5889 76.9547 19.5889C77.4147 19.5889 77.7213 19.8923 77.7213 20.3475V22.6233C77.7213 23.0785 77.4147 23.382 76.9547 23.382Z" fill="#FFECF5"/>
<path d="M82.3215 26.4167H80.0215C79.5615 26.4167 79.2549 26.1132 79.2549 25.658C79.2549 25.2029 79.5615 24.8994 80.0215 24.8994H82.3215C82.7815 24.8994 83.0882 25.2029 83.0882 25.658C83.0882 26.1132 82.7815 26.4167 82.3215 26.4167Z" fill="#FFECF5"/>
<path d="M79.1016 24.292C78.8716 24.292 78.7183 24.2161 78.565 24.0644C78.2583 23.761 78.2583 23.3058 78.565 23.0023L80.175 21.4092C80.4816 21.1058 80.9416 21.1058 81.2483 21.4092C81.555 21.7127 81.555 22.1678 81.2483 22.4713L79.6383 24.0644C79.485 24.2161 79.3316 24.292 79.1016 24.292Z" fill="#FFECF5"/>
</g>
<g clip-path="url(#clip1_16414_36276)">
<path d="M45.2051 23.1523H46.6336V41.0095H45.2051V23.1523Z" fill="#FF008A"/>
<path d="M31.6665 63.1528H33.4908C33.9086 62.6834 35.2051 60.7848 35.2051 55.2956H36.6337C36.6337 59.5584 35.8837 61.9005 35.2051 63.1528H36.348C36.7657 62.6834 38.0623 60.7848 38.0623 55.2956H39.4908C39.4908 59.5584 38.7408 61.9005 38.0623 63.1528H40.6337C41.0514 62.6834 42.348 60.7848 42.348 55.2956H43.7765C43.7765 59.5584 43.0265 61.9005 42.348 63.1528H47.0623C47.48 62.6834 48.7765 60.7848 48.7765 55.2956H50.2051C50.2051 59.5584 49.4551 61.9005 48.7765 63.1528H49.9194C50.3371 62.6834 51.6337 60.7848 51.6337 55.2956H53.0623C53.0623 59.5584 52.3123 61.9005 51.6337 63.1528H56.5623C56.7765 63.06 58.678 61.9522 58.7685 52.4385H33.0967C33.1764 54.6279 33.231 60.4943 31.6665 63.1528Z" fill="#FF008A"/>
<path d="M43.0625 42.4385H48.7768V43.867H43.0625V42.4385Z" fill="#FF008A"/>
<path d="M58.0625 45.2949H33.7768C33.3823 45.2949 33.0625 45.6148 33.0625 46.0092V51.0092H58.7768V46.0092C58.7768 45.8198 58.7015 45.638 58.5676 45.5041C58.4337 45.3702 58.2519 45.2949 58.0625 45.2949ZM35.9196 48.1521H34.4911V46.7235H35.9196V48.1521ZM53.0625 48.1521H50.2054V46.7235H53.0625V48.1521ZM57.3482 49.5806H55.9196V48.1521H54.4911V46.7235H56.6339C56.8233 46.7235 57.0051 46.7987 57.139 46.9327C57.273 47.0666 57.3482 47.2484 57.3482 47.4378V49.5806Z" fill="#FF008A"/>
<path d="M50.9194 36.0093C51.4876 36.0093 52.0329 36.2351 52.4346 36.6369C52.8363 37.0386 53.0622 37.584 53.0622 38.1521C53.0622 38.5466 53.382 38.8664 53.7765 38.8664C54.1709 38.8664 54.4908 38.5466 54.4908 38.1521C54.4908 37.5839 54.7165 37.0386 55.1183 36.6369C55.5201 36.2351 56.0654 36.0093 56.6336 36.0093C57.028 36.0093 57.3479 35.6895 57.3479 35.295C57.3479 34.9006 57.028 34.5807 56.6336 34.5807C56.0653 34.5807 55.52 34.355 55.1183 33.9532C54.7166 33.5514 54.4908 33.0061 54.4908 32.4379C54.4908 32.0435 54.1709 31.7236 53.7765 31.7236C53.382 31.7236 53.0622 32.0435 53.0622 32.4379C53.0622 33.0062 52.8364 33.5515 52.4346 33.9532C52.0328 34.3549 51.4875 34.5807 50.9194 34.5807C50.5249 34.5807 50.2051 34.9006 50.2051 35.295C50.2051 35.6895 50.5249 36.0093 50.9194 36.0093ZM53.7765 34.5587C53.9847 34.8387 54.2328 35.0868 54.5128 35.295C54.2328 35.5032 53.9847 35.7513 53.7765 36.0313C53.5683 35.7513 53.3202 35.5032 53.0402 35.295C53.3202 35.0868 53.5683 34.8387 53.7765 34.5587Z" fill="#FF008A"/>
<path d="M34.4911 39.5806C35.0594 39.5806 35.6047 39.8064 36.0064 40.2081C36.4081 40.6099 36.634 41.1552 36.634 41.7234C36.634 42.1179 36.9538 42.4377 37.3482 42.4377C37.7427 42.4377 38.0625 42.1179 38.0625 41.7234C38.0625 41.1552 38.2883 40.6099 38.6901 40.2081C39.0919 39.8064 39.6372 39.5806 40.2053 39.5806C40.5998 39.5806 40.9196 39.2608 40.9196 38.8663C40.9196 38.4719 40.5998 38.152 40.2053 38.152C39.6371 38.152 39.0918 37.9263 38.6901 37.5245C38.2884 37.1227 38.0625 36.5774 38.0625 36.0092C38.0625 35.6148 37.7427 35.2949 37.3482 35.2949C36.9538 35.2949 36.634 35.6148 36.634 36.0092C36.634 36.5774 36.4082 37.1228 36.0064 37.5245C35.6046 37.9262 35.0593 38.152 34.4911 38.152C34.0967 38.152 33.7769 38.4719 33.7769 38.8663C33.7769 39.2608 34.0967 39.5806 34.4911 39.5806ZM37.3483 38.13C37.5565 38.41 37.8046 38.658 38.0846 38.8663C37.8046 39.0745 37.5565 39.3226 37.3483 39.6026C37.1401 39.3226 36.892 39.0745 36.612 38.8663C36.892 38.658 37.1401 38.41 37.3483 38.13Z" fill="#FF008A"/>
</g>
<defs>
<clipPath id="clip0_16414_36276">
<rect width="23" height="22" fill="white" transform="translate(62.6875 19.1523)"/>
</clipPath>
<clipPath id="clip1_16414_36276">
<rect width="40" height="40" fill="white" transform="translate(25 23.1523)"/>
</clipPath>
</defs>
</svg>
