<svg width="50" height="12" viewBox="0 0 50 12" fill="none" xmlns="http://www.w3.org/2000/svg">
<path d="M3.56935 11.5926L3.77736 10.2717L3.31407 10.261H1.1018L2.63922 0.513565C2.64392 0.484136 2.65949 0.456699 2.68215 0.437217C2.70482 0.417735 2.7339 0.406998 2.76412 0.406998H6.49436C7.73277 0.406998 8.58735 0.66467 9.03358 1.17325C9.24273 1.41184 9.37598 1.66116 9.44043 1.93553C9.50797 2.22343 9.50923 2.56738 9.44318 2.9869L9.43837 3.01752V3.28632L9.64763 3.40482C9.82381 3.49826 9.9637 3.60523 10.0711 3.7277C10.2501 3.93169 10.3659 4.19096 10.4147 4.49833C10.4652 4.81446 10.4485 5.19062 10.3659 5.6165C10.2704 6.1064 10.1161 6.53307 9.90773 6.8822C9.71598 7.20389 9.4718 7.47065 9.18194 7.67749C8.90513 7.87391 8.57624 8.02306 8.20442 8.11852C7.84404 8.21227 7.4333 8.25965 6.98272 8.25965H6.6924C6.48486 8.25965 6.28315 8.3344 6.12494 8.46844C5.96627 8.60522 5.86119 8.79203 5.82902 8.99646L5.80715 9.11539L5.43968 11.4435L5.42297 11.529C5.41862 11.5561 5.41106 11.5696 5.39996 11.5788C5.39 11.587 5.37569 11.5926 5.36172 11.5926H3.56935Z" fill="#253B80"/>
<path d="M9.84498 3.04908C9.83388 3.12026 9.82117 3.19302 9.80686 3.26778C9.31484 5.79321 7.63191 6.66563 5.48237 6.66563H4.38797C4.12513 6.66563 3.90361 6.85649 3.86263 7.11575L3.1436 11.6763C3.11692 11.8465 3.24823 12 3.41995 12H5.36114C5.59101 12 5.78619 11.833 5.82237 11.6064L5.84148 11.5077L6.20701 9.18863L6.23048 9.06146C6.26619 8.83402 6.46183 8.66702 6.6917 8.66702H6.98202C8.86265 8.66702 10.3349 7.90354 10.7653 5.69419C10.945 4.77126 10.8519 4.00064 10.3763 3.45865C10.2324 3.29522 10.0538 3.15962 9.84498 3.04908Z" fill="#179BD7"/>
<path d="M9.32936 2.84327C9.25426 2.82139 9.17665 2.80151 9.09708 2.78362C9.01718 2.76613 8.93521 2.75062 8.85096 2.7371C8.55583 2.68938 8.23255 2.66672 7.88614 2.66672H4.9624C4.89039 2.66672 4.82205 2.68302 4.7608 2.71245C4.62595 2.77726 4.52578 2.90491 4.50151 3.06118L3.87944 7.00022L3.86158 7.11513C3.90257 6.85587 4.12408 6.665 4.38692 6.665H5.48132C7.63086 6.665 9.3139 5.79218 9.80581 3.26715C9.82047 3.1924 9.83283 3.11963 9.84393 3.04846C9.71949 2.98245 9.58464 2.92598 9.43948 2.87786C9.40377 2.86593 9.36679 2.85441 9.32936 2.84327Z" fill="#222D65"/>
<path d="M4.50298 3.06144C4.52725 2.90516 4.62753 2.77752 4.76227 2.7131C4.82397 2.68367 4.89197 2.66737 4.96386 2.66737H7.88772C8.23413 2.66737 8.55742 2.69004 8.85242 2.73776C8.93679 2.75128 9.01876 2.76679 9.09866 2.78428C9.17822 2.80218 9.25573 2.82206 9.33094 2.84392C9.36826 2.85506 9.40523 2.86659 9.44141 2.87813C9.58657 2.92624 9.72142 2.9831 9.84586 3.04871C9.99227 2.11545 9.84471 1.48002 9.3401 0.904627C8.78374 0.27119 7.77954 0 6.49465 0H2.7643C2.5018 0 2.278 0.190859 2.23736 0.450522L0.683674 10.2981C0.652994 10.4929 0.803303 10.6688 0.999746 10.6688H3.3028L4.50298 3.06144Z" fill="#253B80"/>
<path fill-rule="evenodd" clip-rule="evenodd" d="M19.0944 2.57414H16.363C16.1761 2.57414 16.0171 2.70997 15.988 2.89441L14.8833 9.89782C14.8613 10.0361 14.9683 10.1606 15.1085 10.1606H16.4125C16.5995 10.1606 16.7584 10.0248 16.7876 9.83998L17.0855 7.95108C17.1143 7.76608 17.2736 7.63044 17.4601 7.63044H18.3248C20.1241 7.63044 21.1625 6.75981 21.4338 5.03465C21.556 4.2799 21.439 3.68686 21.0854 3.27141C20.6972 2.81549 20.0086 2.57414 19.0944 2.57414ZM19.4096 5.13204C19.2602 6.11207 18.5113 6.11207 17.7873 6.11207H17.3751L17.6642 4.28175C17.6814 4.17123 17.7773 4.08973 17.8891 4.08973H18.078C18.5712 4.08973 19.0366 4.08973 19.277 4.37082C19.4203 4.53863 19.4643 4.78775 19.4096 5.13204ZM27.2593 5.10062H25.9513C25.8399 5.10062 25.7436 5.18212 25.7264 5.29282L25.6685 5.65856L25.577 5.52605C25.2939 5.11504 24.6625 4.97773 24.0323 4.97773C22.5867 4.97773 21.3523 6.07234 21.1118 7.60789C20.9869 8.37373 21.1645 9.10611 21.599 9.61692C21.9977 10.0865 22.5681 10.2822 23.2466 10.2822C24.4111 10.2822 25.0571 9.53338 25.0571 9.53338L24.9987 9.8969C24.9767 10.0359 25.0837 10.1604 25.2231 10.1604H26.4014C26.5888 10.1604 26.7468 10.0246 26.7764 9.83979L27.4833 5.36342C27.5057 5.22574 27.399 5.10062 27.2593 5.10062ZM25.436 7.64614C25.3098 8.39332 24.7167 8.89488 23.9604 8.89488C23.5805 8.89488 23.2769 8.77309 23.0821 8.54227C22.8887 8.31311 22.8152 7.98674 22.8767 7.62341C22.9946 6.88253 23.5977 6.3647 24.3426 6.3647C24.7139 6.3647 25.0159 6.48796 25.2148 6.72082C25.414 6.95608 25.4931 7.28429 25.436 7.64614ZM32.9111 5.10044H34.2256C34.4097 5.10044 34.5171 5.30687 34.4125 5.45785L30.0408 11.7675C29.97 11.8697 29.8534 11.9305 29.7288 11.9305H28.416C28.2311 11.9305 28.1232 11.7224 28.2302 11.5711L29.5915 9.64981L28.1437 5.40149C28.0936 5.25383 28.2027 5.10044 28.3598 5.10044H29.6513C29.8192 5.10044 29.9672 5.21058 30.0156 5.37118L30.784 7.93703L32.5969 5.26695C32.6679 5.16272 32.7858 5.10044 32.9111 5.10044Z" fill="#253B80"/>
<path fill-rule="evenodd" clip-rule="evenodd" d="M47.1628 9.8972L48.2838 2.76572C48.301 2.65502 48.3969 2.57352 48.5084 2.57315H49.7704C49.9097 2.57315 50.0167 2.69808 49.9947 2.83631L48.8893 9.83936C48.8605 10.0242 48.7015 10.16 48.5143 10.16H47.3872C47.2478 10.16 47.1408 10.0354 47.1628 9.8972ZM38.5778 2.57352H35.8459C35.6594 2.57352 35.5005 2.70935 35.4713 2.89379L34.3666 9.8972C34.3446 10.0354 34.4516 10.16 34.5911 10.16H35.9929C36.1232 10.16 36.2346 10.065 36.2549 9.93564L36.5684 7.95045C36.5972 7.76546 36.7566 7.62982 36.9431 7.62982H37.8073C39.6069 7.62982 40.6451 6.75919 40.9166 5.03403C41.0392 4.27928 40.9214 3.68623 40.568 3.27079C40.1801 2.81487 39.492 2.57352 38.5778 2.57352ZM38.893 5.13142C38.744 6.11145 37.9951 6.11145 37.2706 6.11145H36.8588L37.1484 4.28113C37.1656 4.17061 37.2606 4.08911 37.3728 4.08911H37.5617C38.0546 4.08911 38.5204 4.08911 38.7606 4.3702C38.9041 4.53801 38.9477 4.78713 38.893 5.13142ZM46.742 5.1H45.4349C45.3225 5.1 45.2271 5.1815 45.2103 5.2922L45.1525 5.65793L45.0606 5.52543C44.7775 5.11442 44.1465 4.97711 43.5162 4.97711C42.0707 4.97711 40.8366 6.07172 40.5961 7.60727C40.4716 8.37311 40.6484 9.10549 41.083 9.6163C41.4824 10.0859 42.052 10.2816 42.7305 10.2816C43.8951 10.2816 44.5409 9.53276 44.5409 9.53276L44.4827 9.89628C44.4607 10.0353 44.5677 10.1598 44.708 10.1598H45.8857C46.0722 10.1598 46.2311 10.024 46.2603 9.83917L46.9677 5.3628C46.9893 5.22512 46.8823 5.1 46.742 5.1ZM44.9189 7.64552C44.7934 8.39269 44.1995 8.89426 43.443 8.89426C43.0639 8.89426 42.7597 8.77247 42.5647 8.54165C42.3714 8.31249 42.2988 7.98612 42.3596 7.62279C42.478 6.88191 43.0804 6.36408 43.8252 6.36408C44.1967 6.36408 44.4986 6.48734 44.6976 6.7202C44.8976 6.95546 44.9767 7.28367 44.9189 7.64552Z" fill="#179BD7"/>
</svg>
