<svg width="42" height="28" viewBox="0 0 42 28" fill="none" xmlns="http://www.w3.org/2000/svg">
<g clip-path="url(#clip0_16572_155738)">
<path d="M0 3.5C0 1.567 1.567 0 3.5 0H38.5C40.433 0 42 1.567 42 3.5V24.5C42 26.433 40.433 28 38.5 28H3.5C1.567 28 0 26.433 0 24.5V3.5Z" fill="#F7F7FF"/>
<path d="M30.9949 8.63691L30.1822 10.4284H31.812L30.9949 8.63691ZM21.6174 9.74705C21.7706 9.67435 21.8608 9.51621 21.8608 9.31983C21.8608 9.12738 21.766 8.98801 21.6129 8.92251C21.4733 8.84991 21.2587 8.84153 21.0529 8.84153H19.599V9.8397H21.0334C21.2631 9.83975 21.4551 9.83668 21.6174 9.74705ZM2.98783 8.63691L2.18437 10.4284H3.79613L2.98783 8.63691ZM40.3956 20.1136H38.1155V19.1497H40.3864C40.6115 19.1497 40.7692 19.1229 40.8641 19.0384C40.9538 18.9631 41.0046 18.8566 41.0037 18.7453C41.0037 18.6143 40.9465 18.5103 40.8593 18.4481C40.7738 18.3795 40.649 18.3483 40.4433 18.3483C39.3347 18.314 37.9516 18.3794 37.9516 16.957C37.9516 16.3051 38.4067 15.6189 39.6457 15.6189H41.9976V14.7246H39.8125C39.1531 14.7246 38.674 14.8682 38.3348 15.0917V14.7246H35.1027C34.586 14.7246 33.9793 14.8411 33.6924 15.0917V14.7246H27.9205V15.0917C27.4613 14.7902 26.6861 14.7246 26.3285 14.7246H22.5214V15.0917C22.1581 14.7715 21.3498 14.7246 20.8574 14.7246H16.5967L15.6218 15.6845L14.7086 14.7246H8.34386V20.9969H14.5885L15.5931 20.0216L16.5394 20.9969L20.3886 21V19.5245H20.7672C21.2779 19.532 21.8802 19.5131 22.4118 19.3041V20.9967H25.5867V19.3619H25.7399C25.9352 19.3619 25.9546 19.3693 25.9546 19.547V20.9964H35.5998C36.2121 20.9964 36.8522 20.8539 37.2066 20.5949V20.9964H40.2661C40.9026 20.9964 41.5244 20.9152 41.9975 20.7073V19.5389C41.7108 19.9204 41.1517 20.1139 40.3955 20.1139L40.3956 20.1136ZM20.8178 18.6326H19.3445V20.1402H17.0496L15.5957 18.6523L14.0849 20.1402H9.40804V15.6454H14.1568L15.6094 17.1188L17.1112 15.6454H20.884C21.821 15.6454 22.8738 15.8814 22.8738 17.1262C22.8738 18.3748 21.8498 18.6326 20.8178 18.6326ZM27.9019 18.4288C28.0687 18.6482 28.0927 18.853 28.0976 19.2492V20.1403H26.9121V19.578C26.9121 19.3076 26.9408 18.9071 26.7213 18.6981C26.5489 18.5372 26.2858 18.4987 25.855 18.4987H24.5932V20.1403H23.4069V15.6454H26.1326C26.7306 15.6454 27.1659 15.6696 27.5534 15.8575C27.926 16.0623 28.1605 16.3429 28.1605 16.8557C28.1604 17.573 27.6344 17.939 27.3236 18.0515C27.5863 18.1397 27.8011 18.2978 27.9019 18.4288ZM32.7791 16.575H30.0143V17.3921H32.7115V18.3092H30.0143V19.2036L32.7791 19.2076V20.1402H28.8385V15.6454H32.7791V16.575ZM35.8131 20.1402H33.5135V19.1763H35.8039C36.028 19.1763 36.1867 19.1494 36.2863 19.065C36.3674 18.9955 36.4258 18.8944 36.4258 18.772C36.4258 18.6409 36.3626 18.5369 36.2817 18.4745C36.1913 18.406 36.0667 18.375 35.8612 18.375C34.757 18.3405 33.3742 18.4059 33.3742 16.9836C33.3742 16.3317 33.8245 15.6454 35.0623 15.6454H37.4294V16.602H35.2634C35.0487 16.602 34.9092 16.6094 34.7905 16.6834C34.661 16.7562 34.6131 16.8641 34.6131 17.0066C34.6131 17.1761 34.7229 17.2916 34.8714 17.3414C34.996 17.3809 35.1297 17.3924 35.3308 17.3924L35.9665 17.4082C36.6072 17.4221 37.0474 17.5232 37.3148 17.7695C37.5446 17.9859 37.668 18.2592 37.668 18.7218C37.6679 19.6888 37.0038 20.1402 35.8131 20.1402ZM26.6558 16.6475C26.5132 16.5704 26.3026 16.5663 26.0925 16.5663H24.6386V17.5758H26.0731C26.3027 17.5758 26.4981 17.5683 26.6558 17.4831C26.8089 17.399 26.9005 17.2439 26.9005 17.0517C26.9005 16.8595 26.8089 16.7203 26.6558 16.6475ZM39.8479 16.5662C39.6331 16.5662 39.4903 16.5736 39.3701 16.6474C39.2455 16.7203 39.1977 16.8282 39.1977 16.9708C39.1977 17.1403 39.3028 17.2557 39.4558 17.3057C39.5805 17.3451 39.7141 17.3566 39.9107 17.3566L40.5508 17.3721C41.1964 17.3866 41.6276 17.4877 41.8905 17.7341C41.9383 17.7682 41.9671 17.8067 42 17.8452V16.5663H39.848L39.8479 16.5662ZM20.8586 16.5662H19.3191V17.711H20.8449C21.2986 17.711 21.5807 17.5062 21.5809 17.1173C21.5807 16.7243 21.2849 16.5662 20.8586 16.5662ZM10.584 16.5662V17.3834H13.176V18.3005H10.584V19.1948H13.4869L14.8356 17.8761L13.5442 16.5662H10.584ZM18.1641 19.7095V16.1059L16.3514 17.8787L18.1641 19.7095ZM10.6831 12.4928V13.2673H20.5474L20.5428 11.6288H20.7337C20.8674 11.6331 20.9063 11.6443 20.9063 11.845V13.2673H26.0082V12.8858C26.4197 13.0865 27.0597 13.2673 27.9019 13.2673H30.0483L30.5076 12.2692H31.526L31.9752 13.2673H36.1113V12.3192L36.7375 13.2673H40.0521V7H36.772V7.74018L36.3126 7H32.9468V7.74018L32.525 7H27.9785C27.2173 7 26.5486 7.09663 26.0082 7.36597V7H22.8706V7.36597C22.5267 7.08835 22.0581 7 21.5372 7H10.0747L9.30568 8.61881L8.51585 7H4.90554V7.74018L4.50885 7H1.42986L5.38473e-05 9.97994V12.3636L2.11432 7.86974H3.86861L5.87657 12.1244V7.86974H7.80372L9.34886 10.9182L10.7684 7.86974H12.7342V12.3636H11.524L11.5196 8.84408L9.80743 12.3636H8.77076L7.05427 8.84096V12.3636H4.65268L4.19901 11.3612H1.74067L1.28232 12.3636H0V13.2676H2.01744L2.47229 12.2694H3.49076L3.94442 13.2676H7.91367V12.5044L8.26793 13.2708H10.3285L10.6828 12.4929L10.6831 12.4928ZM26.2272 8.39354C26.6087 8.03488 27.2066 7.86948 28.0202 7.86948H29.1632V8.83237H28.0442C27.6135 8.83237 27.3699 8.89066 27.1357 9.09865C26.9343 9.28782 26.7963 9.64551 26.7963 10.1165C26.7963 10.598 26.9015 10.9451 27.1209 11.1718C27.3026 11.3497 27.6331 11.4036 27.9438 11.4036H28.4743L30.1382 7.86963H31.9073L33.9063 12.1201V7.86969H35.7041L37.7795 10.9994V7.86969H38.9889V12.3634H37.3158L35.0778 8.99056V12.3634H32.6732L32.2137 11.361H29.761L29.3152 12.3634H27.9335C27.3597 12.3634 26.633 12.2479 26.2215 11.8663C25.8065 11.4848 25.5908 10.9679 25.5908 10.1508C25.5906 9.48425 25.7195 8.87501 26.2272 8.39354ZM23.7986 7.86953H25.0033V12.3634H23.7986V7.86953ZM18.3671 7.86953H21.0827C21.6859 7.86953 22.1308 7.8841 22.5125 8.08478C22.886 8.28551 23.1099 8.57857 23.1099 9.07973C23.1099 9.79629 22.5842 10.1664 22.2781 10.2776C22.5363 10.3671 22.7571 10.5251 22.8623 10.656C23.029 10.8795 23.0577 11.0792 23.0577 11.4805V12.3633H21.8669L21.8624 11.7966C21.8624 11.5262 21.8908 11.1373 21.676 10.9212C21.5036 10.7632 21.2405 10.7288 20.8154 10.7288H19.5479V12.3634H18.3672L18.3671 7.86953ZM13.6073 7.86953H17.5516V8.80533H14.7881V9.61535H17.4852V10.5365H14.7881V11.434H17.5516V12.3633H13.6073V7.86953Z" fill="#2557D6"/>
</g>
<defs>
<clipPath id="clip0_16572_155738">
<rect width="42" height="28" rx="3" fill="white"/>
</clipPath>
</defs>
</svg>
