<svg width="42" height="28" viewBox="0 0 42 28" fill="none" xmlns="http://www.w3.org/2000/svg">
<g clip-path="url(#clip0_16572_155739)">
<path d="M0 3.5C0 1.567 1.567 0 3.5 0H38.5C40.433 0 42 1.567 42 3.5V24.5C42 26.433 40.433 28 38.5 28H3.5C1.567 28 0 26.433 0 24.5V3.5Z" fill="#F7F7FF"/>
<path d="M9.42447 10.0777C8.98577 9.77616 8.41332 9.625 7.70709 9.625H4.97297C4.75647 9.625 4.63686 9.73328 4.61414 9.94962L3.50349 16.9215C3.49194 16.99 3.50908 17.0526 3.55473 17.1095C3.60011 17.1666 3.6572 17.1949 3.72558 17.1949H5.02426C5.25205 17.1949 5.37725 17.0869 5.40023 16.8703L5.70777 14.9907C5.719 14.8996 5.75906 14.8255 5.82743 14.7685C5.89575 14.7116 5.9812 14.6743 6.08373 14.6573C6.18626 14.6404 6.28294 14.6318 6.37424 14.6318C6.46528 14.6318 6.57345 14.6376 6.69897 14.6489C6.82417 14.6603 6.90398 14.6659 6.93819 14.6659C7.91785 14.6659 8.6868 14.3898 9.24511 13.8371C9.80315 13.2847 10.0825 12.5187 10.0825 11.5387C10.0825 10.8666 9.86295 10.3796 9.42447 10.0776V10.0777ZM8.01479 12.1712C7.95765 12.57 7.80973 12.8319 7.57051 12.9572C7.33123 13.0827 6.98948 13.1452 6.54525 13.1452L5.9813 13.1622L6.27187 11.3338C6.29454 11.2086 6.36855 11.1459 6.49396 11.1459H6.81873C7.27419 11.1459 7.60477 11.2115 7.80983 11.3423C8.01479 11.4734 8.08316 11.7498 8.01479 12.1712Z" fill="#003087"/>
<path d="M38.2785 9.625H37.0141C36.8885 9.625 36.8145 9.68768 36.792 9.81309L35.6812 16.9218L35.6641 16.956C35.6641 17.0132 35.6868 17.0671 35.7325 17.1183C35.7778 17.1695 35.8351 17.1952 35.9033 17.1952H37.0313C37.2474 17.1952 37.3671 17.0872 37.3902 16.8706L38.5009 9.88146V9.86448C38.5008 9.70491 38.4265 9.62521 38.2785 9.62521V9.625Z" fill="#009CDE"/>
<path d="M22.9993 12.3759C22.9993 12.3191 22.9764 12.2649 22.9311 12.2138C22.8854 12.1625 22.8341 12.1367 22.7773 12.1367H21.4615C21.336 12.1367 21.2334 12.194 21.1538 12.3076L19.3425 14.9734L18.5907 12.4102C18.5334 12.2281 18.4083 12.1367 18.2147 12.1367H16.9329C16.8758 12.1367 16.8246 12.1624 16.7793 12.2138C16.7336 12.2649 16.7109 12.3192 16.7109 12.3759C16.7109 12.3989 16.822 12.7348 17.0441 13.3842C17.2662 14.0337 17.5054 14.7343 17.7618 15.4863C18.0181 16.238 18.1519 16.637 18.1634 16.6822C17.2291 17.9583 16.7622 18.6418 16.7622 18.7328C16.7622 18.881 16.8361 18.955 16.9844 18.955H18.3001C18.4254 18.955 18.5279 18.8981 18.6078 18.7842L22.9653 12.4955C22.988 12.4729 22.9993 12.4332 22.9993 12.3759V12.3759Z" fill="#003087"/>
<path d="M35.2547 12.1391H33.956C33.7963 12.1391 33.6998 12.3272 33.6656 12.7032C33.369 12.2476 32.8283 12.0195 32.0421 12.0195C31.2219 12.0195 30.524 12.3272 29.9488 12.9424C29.3735 13.5575 29.0859 14.2812 29.0859 15.1127C29.0859 15.785 29.2824 16.3203 29.6754 16.7189C30.0684 17.1179 30.5952 17.317 31.2562 17.317C31.5865 17.317 31.9226 17.2486 32.2643 17.112C32.6061 16.9753 32.8735 16.7931 33.0676 16.5652C33.0676 16.5766 33.0559 16.6277 33.0334 16.7188C33.0104 16.8101 32.9991 16.8787 32.9991 16.9238C32.9991 17.1063 33.073 17.1972 33.2213 17.1972H34.4005C34.6167 17.1972 34.7421 17.0892 34.7762 16.8726L35.4769 12.4125C35.4882 12.3441 35.4711 12.2816 35.4256 12.2245C35.3798 12.1677 35.323 12.1391 35.2547 12.1391ZM33.0247 15.5057C32.7342 15.7905 32.3839 15.9328 31.9738 15.9328C31.6433 15.9328 31.3758 15.8419 31.1706 15.6595C30.9655 15.4776 30.8629 15.2269 30.8629 14.9076C30.8629 14.4864 31.0054 14.1301 31.2903 13.8396C31.5747 13.5491 31.9282 13.4039 32.3497 13.4039C32.6684 13.4039 32.9333 13.4978 33.1443 13.6857C33.3548 13.8738 33.4605 14.1329 33.4605 14.4634C33.4604 14.8735 33.3152 15.221 33.0247 15.5057Z" fill="#009CDE"/>
<path d="M15.8408 12.1391H14.5421C14.3824 12.1391 14.2857 12.3272 14.2515 12.7032C13.9439 12.2476 13.4028 12.0195 12.6281 12.0195C11.8079 12.0195 11.11 12.3272 10.5348 12.9424C9.95941 13.5575 9.67188 14.2812 9.67188 15.1127C9.67188 15.785 9.86842 16.3203 10.2615 16.7189C10.6545 17.1179 11.1813 17.317 11.8421 17.317C12.1609 17.317 12.4915 17.2486 12.8332 17.112C13.1749 16.9753 13.4484 16.7931 13.6534 16.5652C13.6077 16.7017 13.585 16.8214 13.585 16.9238C13.585 17.1063 13.6591 17.1972 13.8072 17.1972H14.9863C15.2025 17.1972 15.328 17.0892 15.3622 16.8726L16.0628 12.4125C16.074 12.3441 16.057 12.2816 16.0116 12.2245C15.966 12.1677 15.9091 12.1391 15.8408 12.1391ZM13.6108 15.5141C13.3202 15.7936 12.9641 15.9328 12.5428 15.9328C12.2123 15.9328 11.9474 15.8419 11.7482 15.6595C11.5487 15.4776 11.4491 15.2269 11.4491 14.9076C11.4491 14.4864 11.5914 14.1301 11.8764 13.8396C12.161 13.5491 12.5141 13.4038 12.9358 13.4038C13.2546 13.4038 13.5195 13.4978 13.7305 13.6857C13.9411 13.8738 14.0466 14.1329 14.0466 14.4634C14.0465 14.8849 13.9013 15.2353 13.6108 15.5141Z" fill="#003087"/>
<path d="M28.8386 10.0777C28.4 9.77616 27.8277 9.625 27.1213 9.625H24.4042C24.1763 9.625 24.0509 9.73328 24.0283 9.94962L22.9175 16.9215C22.906 16.99 22.9231 17.0526 22.9688 17.1095C23.014 17.1666 23.0713 17.1949 23.1396 17.1949H24.5408C24.6775 17.1949 24.7686 17.121 24.8143 16.9728L25.1219 14.9907C25.1332 14.8996 25.1731 14.8255 25.2415 14.7685C25.3099 14.7116 25.3953 14.6743 25.4979 14.6573C25.6003 14.6404 25.697 14.6318 25.7883 14.6318C25.8794 14.6318 25.9876 14.6376 26.113 14.6489C26.2382 14.6603 26.3182 14.6659 26.3522 14.6659C27.3321 14.6659 28.1008 14.3898 28.6591 13.8371C29.2174 13.2847 29.4965 12.5187 29.4965 11.5387C29.4965 10.8666 29.2771 10.3796 28.8386 10.0776V10.0777ZM27.0871 12.8888C26.8365 13.0596 26.4605 13.145 25.9594 13.145L25.4124 13.1622L25.703 11.3336C25.7255 11.2085 25.7996 11.1457 25.925 11.1457H26.2325C26.4832 11.1457 26.6825 11.1572 26.8308 11.1799C26.9787 11.2028 27.1213 11.2738 27.258 11.3934C27.3948 11.5131 27.463 11.6869 27.463 11.9146C27.463 12.3933 27.3376 12.7178 27.0871 12.8888Z" fill="#009CDE"/>
</g>
<defs>
<clipPath id="clip0_16572_155739">
<rect width="42" height="28" rx="3" fill="white"/>
</clipPath>
</defs>
</svg>
