<svg width="42" height="28" viewBox="0 0 42 28" fill="none" xmlns="http://www.w3.org/2000/svg">
<g clip-path="url(#clip0_16572_155737)">
<path d="M0 3.5C0 1.567 1.567 0 3.5 0H38.5C40.433 0 42 1.567 42 3.5V24.5C42 26.433 40.433 28 38.5 28H3.5C1.567 28 0 26.433 0 24.5V3.5Z" fill="#F4F7FF"/>
<path d="M25.3817 5.71111L16.3438 5.74219L16.6176 22.2883L25.6555 22.2572L25.3817 5.71111Z" fill="#FF5F00"/>
<path d="M16.937 14.0457C16.881 10.6804 18.3886 7.69014 20.7499 5.75053C18.9676 4.35189 16.7331 3.51084 14.3108 3.51913C8.57235 3.53879 4.00798 8.26617 4.10476 14.0897C4.20153 19.9132 8.92249 24.6088 14.6609 24.5891C17.0832 24.5808 19.2895 23.7246 21.0252 22.3139C18.6001 20.4199 16.9929 17.4111 16.937 14.0457Z" fill="#EB001B"/>
<path d="M37.8876 13.9072C37.9843 19.7307 33.42 24.4581 27.6815 24.4777C25.2593 24.486 23.0247 23.645 21.2424 22.2464C23.6325 20.3066 25.1113 17.3165 25.0554 13.9511C24.9994 10.5858 23.3927 7.60623 20.9671 5.68301C22.7028 4.27232 24.9091 3.41606 27.3314 3.40776C33.0698 3.38811 37.7913 8.11295 37.8876 13.9072Z" fill="#F79E1B"/>
</g>
<defs>
<clipPath id="clip0_16572_155737">
<rect width="42" height="28" rx="3" fill="white"/>
</clipPath>
</defs>
</svg>
