<svg width="42" height="28" viewBox="0 0 42 28" fill="none" xmlns="http://www.w3.org/2000/svg">
<g clip-path="url(#clip0_16572_155736)">
<path d="M0 3.5C0 1.567 1.567 0 3.5 0H38.5C40.433 0 42 1.567 42 3.5V24.5C42 26.433 40.433 28 38.5 28H3.5C1.567 28 0 26.433 0 24.5V3.5Z" fill="#F7F7FF"/>
<path d="M36.1457 8.78125H33.9454C33.2802 8.78125 32.7685 8.98593 32.4615 9.65113L28.2656 19.2198H31.2335C31.2335 19.2198 31.7452 17.9406 31.8475 17.6336C32.1545 17.6336 35.0712 17.6336 35.4805 17.6336C35.5829 17.9918 35.8387 19.1687 35.8387 19.1687H38.4995L36.1457 8.78125ZM32.6662 15.4845C32.9221 14.8704 33.7919 12.5678 33.7919 12.5678C33.7919 12.619 34.0478 11.9538 34.1501 11.5956L34.3548 12.5166C34.3548 12.5166 34.9177 15.0239 35.02 15.5356H32.6662V15.4845Z" fill="#3362AB"/>
<path d="M28.4719 15.7926C28.4719 17.9418 26.5275 19.3745 23.5085 19.3745C22.2292 19.3745 21.0011 19.1187 20.3359 18.8117L20.7453 16.4579L21.1035 16.6114C22.0245 17.0207 22.6386 17.1742 23.7643 17.1742C24.583 17.1742 25.4529 16.8672 25.4529 16.1508C25.4529 15.6903 25.0947 15.3833 23.969 14.8716C22.8944 14.3599 21.4617 13.5412 21.4617 12.0573C21.4617 10.0105 23.4573 8.62891 26.2716 8.62891C27.3462 8.62891 28.2672 8.83358 28.8301 9.08943L28.4207 11.3409L28.2161 11.1362C27.7044 10.9315 27.0392 10.7269 26.0669 10.7269C24.9924 10.778 24.4807 11.2386 24.4807 11.6479C24.4807 12.1084 25.0947 12.4666 26.0669 12.9272C27.7044 13.6947 28.4719 14.5646 28.4719 15.7926Z" fill="#3362AB"/>
<path d="M3.5 8.88437L3.55117 8.67969H7.95175C8.56579 8.67969 9.02632 8.88437 9.17982 9.54957L10.152 14.1548C9.17982 11.6987 6.92836 9.70308 3.5 8.88437Z" fill="#F9B50B"/>
<path d="M16.3417 8.78164L11.89 19.1691H8.87098L6.3125 10.4702C8.15461 11.6471 9.68969 13.4892 10.2526 14.7685L10.5596 15.843L13.3227 8.73047H16.3417V8.78164Z" fill="#3362AB"/>
<path d="M17.5175 8.73047H20.3318L18.5409 19.1691H15.7266L17.5175 8.73047Z" fill="#3362AB"/>
</g>
<defs>
<clipPath id="clip0_16572_155736">
<rect width="42" height="28" rx="3" fill="white"/>
</clipPath>
</defs>
</svg>
