<svg width="48" height="48" viewBox="0 0 48 48" fill="none" xmlns="http://www.w3.org/2000/svg">
<g clip-path="url(#clip0_15707_2835)">
<path d="M47.9247 36.4422C47.7133 35.1308 47.0767 34.0345 46.1828 33.0815C44.0286 30.7843 41.2426 29.581 38.3343 28.6057C37.8715 28.4506 37.3841 28.7491 37.2326 29.178C37.0752 29.6268 37.2596 30.091 37.7048 30.3284C37.8692 30.4153 38.0489 30.4729 38.2227 30.5446C39.1601 30.9288 40.1185 31.2696 41.0311 31.7055C42.4183 32.3683 43.715 33.1814 44.7804 34.313C46.5234 36.166 46.5622 38.1378 44.8978 40.0414C43.829 41.2658 42.4817 42.1107 41.0405 42.8075C37.0728 44.7264 32.8244 45.5477 28.4785 45.9296C24.4309 46.2845 20.3916 46.1693 16.371 45.5571C13.0858 45.0565 9.88388 44.2552 6.8852 42.7793C5.38998 42.0425 4.00751 41.1483 2.91633 39.8534C1.59259 38.2788 1.52211 36.5362 2.74954 34.8817C3.74323 33.5421 5.09516 32.6444 6.55163 31.9018C10.0753 30.1039 13.8715 29.2567 17.7641 28.7596C18.0777 28.7185 18.2456 28.8384 18.4242 29.0687C19.9547 31.0451 21.4945 33.0157 23.0344 34.9863C23.7004 35.837 24.2688 35.8288 24.9419 34.9651C25.548 34.1896 26.1846 33.4352 26.746 32.6279C27.096 32.1238 27.4484 31.9441 28.0874 32.0298C30.0419 32.2919 31.9858 32.5974 33.8169 33.353C34.5569 33.6585 35.2699 34.078 35.9112 34.5586C36.529 35.0215 36.5149 35.5503 35.9229 36.0509C35.4766 36.4304 34.968 36.7665 34.4359 37.0086C31.8636 38.1789 29.1069 38.522 26.3255 38.7171C24.0116 38.8781 21.7001 38.8041 19.4014 38.5103C17.3847 38.253 15.3809 37.8969 13.5333 36.9992C12.9413 36.7113 12.3904 36.3 11.8983 35.8582C11.4942 35.4951 11.5048 35.1214 11.903 34.756C12.3564 34.3388 12.8908 34.0075 13.4005 33.6526C13.8845 33.3142 14.0442 32.8124 13.7905 32.3624C13.5344 31.9088 13.0118 31.7549 12.4926 32.031C12.0251 32.2801 11.5553 32.5433 11.143 32.8712C9.24492 34.3776 9.29777 36.3705 11.2476 37.8346C12.1978 38.5479 13.2713 39.005 14.3907 39.3646C17.0593 40.2224 19.8149 40.5314 22.6033 40.6289C25.8815 40.7441 29.1304 40.5196 32.3217 39.7288C33.9508 39.3258 35.5248 38.777 36.8755 37.7289C38.6233 36.3729 38.6785 34.4164 36.9906 33.0004C36.6465 32.7102 36.2659 32.4552 35.8724 32.2355C34.1153 31.2578 32.1855 30.8113 30.2298 30.4588C29.7306 30.3683 29.2291 30.2931 28.6794 30.2026C28.805 30.0287 28.8908 29.9018 28.9847 29.7819C29.8293 28.6962 30.6797 27.6151 31.5206 26.527C32.8397 24.8208 34.275 23.1899 35.4414 21.385C38.2932 16.9703 38.6186 12.2853 36.2624 7.57803C34.0554 3.16803 30.3731 0.574674 25.4716 0.0870239C19.7056 -0.486405 15.1319 1.79556 12.1532 6.76841C9.38939 11.3829 9.48453 16.1748 12.1766 20.8315C12.9765 22.2146 14.0607 23.4343 15.0273 24.7198C15.5888 25.4671 16.1737 26.1957 16.7833 26.9771C16.5507 27.0182 16.384 27.0499 16.2172 27.0758C13.0282 27.5705 9.90737 28.3155 6.94746 29.6304C4.92015 30.5293 3.04318 31.6538 1.5503 33.3471C-0.368944 35.5245 -0.528686 38.3752 1.19676 40.703C2.41831 42.3504 4.07211 43.469 5.87625 44.3668C10.2104 46.523 14.8664 47.4172 19.6434 47.8191C20.374 47.8802 21.1046 47.9401 21.8351 48.0001H26.1482C26.8787 47.9401 27.6082 47.8802 28.3387 47.8191C33.1275 47.4161 37.7976 46.523 42.1364 44.3492C44.1085 43.3609 45.9397 42.1483 47.0966 40.2C47.5171 39.4938 47.7062 38.6489 47.9999 37.8675V36.5538C47.974 36.5174 47.9317 36.4821 47.9247 36.4422ZM14.5692 21.0618C10.3655 15.5426 11.5764 7.88942 17.2684 3.91889C22.3813 0.352587 29.6695 1.52177 33.4164 6.50872C36.7193 10.9058 36.7581 16.626 33.4258 21.0043C30.3778 25.0089 27.2511 28.9524 24.1584 32.9217C24.1126 32.9805 24.0574 33.0322 23.9658 33.1309C22.3332 31.0381 20.7357 28.9947 19.1418 26.9489C17.6149 24.9889 16.075 23.0395 14.5692 21.0618Z" fill="#FF008A"/>
<path d="M34.848 28.433C34.8304 28.9347 34.404 29.3389 33.9001 29.3319C33.3692 29.3236 32.9628 28.8995 32.9769 28.3671C32.9898 27.8536 33.4009 27.46 33.9131 27.4694C34.4381 27.4788 34.8656 27.9195 34.848 28.433Z" fill="#FF008A"/>
<path d="M16.8948 31.7431C16.9066 32.2731 16.4861 32.7102 15.9705 32.7031C15.4654 32.6961 15.0707 32.2883 15.0684 31.7713C15.0649 31.2555 15.4619 30.8465 15.9681 30.8418C16.4826 30.8371 16.8831 31.2273 16.8948 31.7431Z" fill="#FF008A"/>
<path d="M28.1527 21.304C26.8654 22.0396 25.4771 22.4062 23.9924 22.4015C19.0392 22.4109 15.1397 18.1666 15.5684 13.2326C15.9278 9.0893 19.3012 5.78973 23.4603 5.58762C24.3518 5.54414 25.2598 5.6969 26.1477 5.83321C26.8266 5.93779 27.1367 6.42309 27.0087 6.98947C26.8889 7.51942 26.4167 7.80143 25.7566 7.64515C24.7065 7.39839 23.6671 7.35961 22.6029 7.55585C19.3681 8.15395 16.9473 11.5828 17.4818 14.8389C18.0702 18.4287 20.8845 20.6965 24.5186 20.5097C28.0071 20.3311 30.9224 16.887 30.5042 13.4323C30.4572 13.0457 30.3856 12.6615 30.3081 12.2796C30.1648 11.5628 30.4114 11.0528 30.9705 10.9412C31.5543 10.826 31.9713 11.1703 32.1451 11.866C33.1106 15.7225 31.3182 19.4956 28.1527 21.304Z" fill="#FF008A"/>
<path d="M30.2254 8.72245C30.2007 9.22068 29.7438 9.64017 29.2587 9.61197C28.7419 9.58259 28.3332 9.11727 28.3672 8.60024C28.4013 8.09027 28.837 7.71072 29.3503 7.7448C29.8472 7.7777 30.2489 8.22658 30.2254 8.72245Z" fill="#FF008A"/>
</g>
<defs>
<clipPath id="clip0_15707_2835">
<rect width="48" height="48" fill="white"/>
</clipPath>
</defs>
</svg>
