<svg width="60" height="60" viewBox="0 0 60 60" fill="none" xmlns="http://www.w3.org/2000/svg">
<path d="M49.5973 55.2665L40.474 28.7236H19.5258L10.4025 55.2665C10.1339 56.0479 10.8447 56.8132 11.6438 56.6032L16.9892 55.1988L20.3414 59.5927C20.8426 60.2497 21.8737 60.0829 22.1422 59.3015L29.9999 36.4407L37.8576 59.3016C38.1262 60.0829 39.1572 60.2498 39.6584 59.5928L43.0106 55.1989L48.356 56.6034C49.1551 56.8131 49.8659 56.0479 49.5973 55.2665Z" fill="#FF6464"/>
<path d="M43.9036 38.7017L40.474 28.7236H19.5258L16.0962 38.7017C19.3553 41.2212 23.3133 42.8795 27.6334 43.3259L29.9999 36.4407L32.3664 43.3258C36.6865 42.8794 40.6445 41.2211 43.9036 38.7017Z" fill="#D2555A"/>
<path d="M30.0002 41.3794C41.4268 41.3794 50.6899 32.1163 50.6899 20.6897C50.6899 9.26309 41.4268 0 30.0002 0C18.5736 0 9.31055 9.26309 9.31055 20.6897C9.31055 32.1163 18.5736 41.3794 30.0002 41.3794Z" fill="#FFC36E"/>
<path d="M30.0002 0C18.5736 0 9.31055 9.26297 9.31055 20.6897C9.31055 32.1162 18.5735 41.3794 30.0002 41.3794C41.427 41.3794 50.6899 32.1162 50.6899 20.6897C50.6899 9.26297 41.4268 0 30.0002 0ZM30.0002 38.2759C20.2876 38.2759 12.414 30.4023 12.414 20.6897C12.414 10.9771 20.2876 3.10348 30.0002 3.10348C39.7128 3.10348 47.5864 10.9771 47.5864 20.6897C47.5864 30.4023 39.7128 38.2759 30.0002 38.2759Z" fill="#FFD782"/>
<path d="M29.9998 3.10352C20.2872 3.10352 12.4136 10.9771 12.4136 20.6897C12.4136 30.4023 20.2872 38.2759 29.9998 38.2759C39.7124 38.2759 47.586 30.4023 47.586 20.6897C47.586 10.9771 39.7124 3.10352 29.9998 3.10352ZM29.9998 36.207C21.4299 36.207 14.4825 29.2596 14.4825 20.6897C14.4825 12.1198 21.4299 5.17246 29.9998 5.17246C38.5697 5.17246 45.5171 12.1198 45.5171 20.6897C45.5171 29.2596 38.5697 36.207 29.9998 36.207Z" fill="#EBB45F"/>
<path d="M30.071 27.1832L24.9692 29.8654C24.1247 30.3094 23.1377 29.5924 23.299 28.6518L24.2733 22.9709L20.1458 18.9476C19.4625 18.2817 19.8396 17.1213 20.7838 16.984L26.4876 16.1552L29.0386 10.9865C29.4609 10.1308 30.681 10.1308 31.1032 10.9865L33.6541 16.1552L39.358 16.984C40.3022 17.1213 40.6793 18.2817 39.996 18.9476L35.8685 22.9709L36.8428 28.6518C37.004 29.5922 36.017 30.3093 35.1725 29.8654L30.071 27.1832Z" fill="#FFD782"/>
<path d="M30.0708 10.3453C30.4813 10.3453 30.8919 10.5592 31.1031 10.987L33.654 16.1557L39.3579 16.9846C40.3021 17.1218 40.6792 18.2822 39.9959 18.9482L35.8685 22.9714L36.8428 28.6523C36.9704 29.3964 36.3791 30.0007 35.7083 30.0007C35.5313 30.0007 35.3487 29.9586 35.1724 29.8659L30.0708 27.1837L24.9691 29.8659C24.7929 29.9586 24.6102 30.0007 24.4332 30.0007C23.7623 30.0007 23.1711 29.3965 23.2988 28.6523L24.273 22.9714L20.1457 18.9482C19.4624 18.2822 19.8395 17.1218 20.7837 16.9846L26.4875 16.1557L29.0385 10.987C29.2495 10.5592 29.6602 10.3453 30.0708 10.3453ZM30.0708 8.27637C28.8361 8.27637 27.7296 8.96414 27.1832 10.0714L25.1136 14.2648L20.4861 14.9372C19.2643 15.1147 18.2682 15.9545 17.8866 17.1287C17.505 18.3029 17.8173 19.5679 18.7015 20.4298L22.05 23.6937L21.2596 28.3025C21.0986 29.241 21.3566 30.1943 21.967 30.9186C22.5837 31.6501 23.4827 32.0696 24.4332 32.0696C24.9503 32.0696 25.4685 31.9409 25.932 31.6972L30.0709 29.5212L34.2098 31.6972C34.6733 31.9409 35.1915 32.0696 35.7086 32.0696C36.6591 32.0696 37.558 31.65 38.1748 30.9185C38.7852 30.1944 39.0432 29.2409 38.8822 28.3025L38.0918 23.6937L41.4403 20.4298C42.3245 19.568 42.6367 18.303 42.2552 17.1287C41.8737 15.9545 40.8776 15.1147 39.6557 14.9372L35.0282 14.2648L32.9586 10.0714C32.412 8.96414 31.3054 8.27637 30.0708 8.27637Z" fill="#EBB45F"/>
<path d="M39.3581 16.984L33.6542 16.1552L31.1033 10.9865C30.681 10.1308 29.4609 10.1308 29.0387 10.9865L27.4009 14.3053L36.4604 29.7064C36.7441 29.4594 36.917 29.0824 36.8431 28.6517L35.8688 22.9708L39.9962 18.9475C40.6793 18.2815 40.3024 17.1213 39.3581 16.984Z" fill="#FFE6A0"/>
<path d="M42.3126 9.90629C40.5271 9.49918 39.1214 8.09363 38.7143 6.30793C38.6836 6.1734 38.5056 6.1734 38.475 6.30793C38.0679 8.0934 36.6624 9.49906 34.8768 9.90629C34.7422 9.93699 34.7422 10.115 34.8768 10.1456C36.6622 10.5527 38.0679 11.9581 38.475 13.7438C38.5057 13.8784 38.6837 13.8784 38.7143 13.7438C39.1214 11.9581 40.527 10.5527 42.3126 10.1456C42.4471 10.115 42.4471 9.93687 42.3126 9.90629Z" fill="white"/>
<path d="M36.1248 15.7551C35.038 15.4737 34.1822 14.6178 33.9007 13.531C33.8724 13.4219 33.7311 13.4219 33.7029 13.531C33.4214 14.6178 32.5656 15.4737 31.4788 15.7551C31.3697 15.7835 31.3697 15.9247 31.4788 15.953C32.5656 16.2344 33.4214 17.0901 33.7029 18.1771C33.7313 18.2862 33.8725 18.2862 33.9007 18.1771C34.1822 17.09 35.038 16.2344 36.1248 15.953C36.2339 15.9246 36.2339 15.7833 36.1248 15.7551Z" fill="white"/>
</svg>
