<svg width="40" height="32" viewBox="0 0 40 32" fill="none" xmlns="http://www.w3.org/2000/svg">
<path d="M0.154243 22.4009C0.154573 24.404 0.810558 26.3519 2.022 27.9471C3.23344 29.5423 4.93374 30.6971 6.8632 31.2352C8.79265 31.7732 10.8452 31.6649 12.7073 30.9268C14.5694 30.1886 16.1387 28.8613 17.1755 27.1474C18.2124 25.4336 18.6597 23.4274 18.4492 21.4355C18.2387 19.4435 17.382 17.5752 16.0099 16.1159C14.6377 14.6566 12.8256 13.6865 10.8504 13.3539C8.87514 13.0212 6.84529 13.3443 5.0709 14.2737C5.68418 11.9989 6.54905 10.0935 7.58427 8.57345C9.65472 5.52806 12.3673 4.05515 15.224 4.05515C15.7453 4.05515 16.2452 3.84806 16.6139 3.47944C16.9825 3.11081 17.1896 2.61085 17.1896 2.08954C17.1896 1.56823 16.9825 1.06826 16.6139 0.69964C16.2452 0.331015 15.7453 0.123922 15.224 0.123922C10.8446 0.123922 7.00245 2.43811 4.33183 6.36148C1.6848 10.256 0.154243 15.7519 0.154243 22.4009Z" fill="#FF008A"/>
<path d="M21.4999 22.4009C21.5003 24.404 22.1563 26.3519 23.3677 27.9471C24.5791 29.5423 26.2794 30.6971 28.2089 31.2352C30.1384 31.7732 32.1909 31.6649 34.053 30.9268C35.9151 30.1886 37.4844 28.8613 38.5212 27.1474C39.5581 25.4336 40.0054 23.4274 39.7949 21.4355C39.5844 19.4435 38.7277 17.5752 37.3556 16.1159C35.9834 14.6566 34.1714 13.6865 32.1961 13.3539C30.2208 13.0212 28.191 13.3443 26.4166 14.2737C27.0299 11.9989 27.8947 10.0935 28.93 8.57345C31.0004 5.52806 33.713 4.05515 36.5697 4.05515C37.091 4.05515 37.5909 3.84806 37.9596 3.47944C38.3282 3.11081 38.5353 2.61085 38.5353 2.08954C38.5353 1.56823 38.3282 1.06826 37.9596 0.69964C37.5909 0.331015 37.091 0.123922 36.5697 0.123922C32.1903 0.123922 28.3482 2.43811 25.6775 6.36148C23.0305 10.256 21.4999 15.7519 21.4999 22.4009Z" fill="#FF008A"/>
</svg>
