<svg width="96" height="79" viewBox="0 0 96 79" fill="none" xmlns="http://www.w3.org/2000/svg">
<path d="M65.6479 58.3114C63.9395 58.3114 62.6298 57.5859 61.7187 56.1349C60.8076 54.6817 60.7507 53.1864 61.5479 51.6489L65.05 44.6447H58.2166C56.3375 44.6447 54.7294 43.975 53.3923 42.6357C52.053 41.2986 51.3833 39.6905 51.3833 37.8114V27.5614C51.3833 25.6822 52.053 24.0741 53.3923 22.737C54.7294 21.3977 56.3375 20.728 58.2166 20.728H68.4666C70.3458 20.728 71.9551 21.3977 73.2944 22.737C74.6314 24.0741 75.3 25.6822 75.3 27.5614V43.0218C75.3 43.5343 75.2567 44.0616 75.1701 44.6037C75.0859 45.1435 74.9014 45.6412 74.6166 46.0968L69.7479 55.7489C69.3493 56.5461 68.7798 57.1725 68.0396 57.628C67.2993 58.0836 66.502 58.3114 65.6479 58.3114ZM34.8979 58.3114C33.1896 58.3114 31.8798 57.5859 30.9687 56.1349C30.0576 54.6817 30.0007 53.1864 30.7979 51.6489L34.3 44.6447H27.4666C25.5875 44.6447 23.9794 43.975 22.6423 42.6357C21.303 41.2986 20.6333 39.6905 20.6333 37.8114V27.5614C20.6333 25.6822 21.303 24.0741 22.6423 22.737C23.9794 21.3977 25.5875 20.728 27.4666 20.728H37.7166C39.5958 20.728 41.2051 21.3977 42.5444 22.737C43.8814 24.0741 44.55 25.6822 44.55 27.5614V43.0218C44.55 43.5343 44.5078 44.0616 44.4236 44.6037C44.337 45.1435 44.1514 45.6412 43.8666 46.0968L38.9979 55.7489C38.5993 56.5461 38.0298 57.1725 37.2896 57.628C36.5493 58.0836 35.7521 58.3114 34.8979 58.3114Z" fill="#FF008A"/>
</svg>
