<svg width="14" height="14" viewBox="0 0 14 14" fill="none" xmlns="http://www.w3.org/2000/svg">
<g clip-path="url(#clip0_15424_13981)">
<path d="M9.33594 5.83337H11.0859C11.8914 5.83337 12.5443 6.48629 12.5443 7.29171H10.7943C9.98885 7.29171 9.33594 6.63879 9.33594 5.83337Z" fill="#242B3A"/>
<path d="M8.16406 10.7916H9.91406C10.7195 10.7916 11.3724 11.4445 11.3724 12.25H9.6224C8.81698 12.25 8.16406 11.597 8.16406 10.7916Z" fill="#242B3A"/>
<rect x="4.08594" y="0.583374" width="3.20833" height="0.875" rx="0.4375" fill="#242B3A"/>
<rect x="4.08594" y="10.7916" width="1.45833" height="0.875" rx="0.4375" fill="#242B3A"/>
<path d="M5.54258 0.0328074C5.51797 0.0519476 5.48789 0.101167 5.47148 0.139448C5.44961 0.205073 5.42773 0.213276 5.25547 0.226948C4.77695 0.273433 4.21094 0.560542 3.86094 0.940619C3.67773 1.1375 3.48633 1.45195 3.38789 1.71445C3.30312 1.9414 3.29766 1.97968 3.28672 2.3789L3.27578 2.80546L3.19648 2.84921C3.05156 2.93398 3.02969 3.11171 3.14727 3.22929C3.19648 3.27851 3.2293 3.28671 3.35234 3.27578L3.5 3.2621V3.38242V3.5H3.30312C2.88477 3.50273 2.625 3.75429 2.625 4.15625C2.625 4.35039 2.66602 4.46249 2.78906 4.60468C2.92305 4.75507 3.01602 4.79335 3.28945 4.8125L3.53008 4.82617L3.59297 4.98203C3.62852 5.06679 3.70234 5.20078 3.75977 5.27734C3.8582 5.41132 4.08242 5.61367 4.16172 5.63828C4.18906 5.64921 4.17812 5.70937 4.1207 5.8871L4.04414 6.125H3.94023C3.88555 6.125 3.81992 6.1414 3.79531 6.15781C3.7707 6.17695 3.6668 6.3246 3.56016 6.4832L3.36602 6.77578L3.15273 6.82226C2.66055 6.93164 2.19297 7.13398 1.89219 7.36367C1.66797 7.5332 1.38086 7.86132 1.27695 8.06367C1.09648 8.4082 1.09375 8.42187 1.09375 9.64687V10.7516L1.02539 10.8062C0.896875 10.9074 0.875 10.9894 0.875 11.375C0.875 11.7605 0.896875 11.8426 1.02539 11.9437L1.09375 11.9984V12.9445C1.09375 13.8551 1.09648 13.8934 1.14844 13.9453C1.20859 14.0055 1.36172 14.0191 1.44922 13.9727C1.54492 13.9207 1.55859 13.8004 1.55859 12.9035V12.0312H2.20117H2.84375V12.9609C2.84375 13.8551 2.84648 13.8934 2.89844 13.9453C2.95859 14.0055 3.11172 14.0191 3.19922 13.9727C3.30312 13.9152 3.30859 13.8332 3.30859 11.8973V10.0215L3.64492 9.94218C3.82812 9.89843 4.01133 9.84648 4.04961 9.82734C4.15898 9.77265 4.1918 9.66601 4.15898 9.4582C4.07695 8.95507 3.71055 8.28789 3.11172 7.55507L2.95039 7.3582L3.0543 7.33085C3.27852 7.2707 3.4043 7.24882 3.4207 7.26796C3.42891 7.2789 3.65586 7.5496 3.92383 7.87226C4.39414 8.43828 4.41602 8.47109 4.54727 8.7746C4.67852 9.08085 4.8125 9.5375 4.8125 9.66875C4.8125 9.70429 4.83711 9.75898 4.86719 9.78906C4.91914 9.84101 4.95742 9.84375 5.71211 9.84375H6.50508L6.55977 9.77265C6.59258 9.73164 6.61719 9.66054 6.61719 9.61132C6.61719 9.47734 6.73477 9.09726 6.88242 8.75273C7.0082 8.46289 7.03828 8.42187 7.5168 7.84765C7.875 7.41562 8.03086 7.24882 8.06367 7.25703C8.08828 7.2625 8.17852 7.28437 8.26602 7.30351C8.35352 7.32265 8.43008 7.34726 8.43555 7.3582C8.44375 7.3664 8.35625 7.49218 8.24141 7.63164C7.66445 8.34804 7.29531 9.05625 7.2543 9.51562C7.23242 9.78359 7.2707 9.8164 7.73828 9.93398L8.10742 10.0242L8.12109 11.9547C8.13477 13.8031 8.1375 13.8879 8.18672 13.9426C8.26602 14.0301 8.45469 14.0219 8.52852 13.9289C8.5832 13.8578 8.58594 13.825 8.58594 13.0539V12.25H9.22852H9.87109V12.6465V13.043H9.46094C8.90586 13.043 8.90312 13.0484 8.91953 13.5898C8.92773 13.8715 8.9332 13.8988 8.99336 13.948C9.08359 14.0219 9.24492 14.0164 9.31875 13.9371C9.36797 13.8852 9.37891 13.8414 9.37891 13.691V13.5078H10.623H11.8672V13.6828C11.8672 13.9152 11.9301 14 12.0996 14C12.1953 14 12.2309 13.9863 12.2746 13.9289C12.3266 13.8633 12.332 13.8195 12.332 13.516C12.332 13.1934 12.3293 13.1742 12.2637 13.1113C12.2008 13.0457 12.1871 13.043 11.7988 13.043H11.4023V12.6492V12.2527L12.0941 12.2445C12.7613 12.2363 12.7859 12.2336 12.8871 12.1734C12.9418 12.1379 13.0184 12.0559 13.0566 11.993C13.125 11.8781 13.125 11.8672 13.125 11.2738C13.125 10.5875 13.1059 10.5 12.9309 10.2977C12.8707 10.2293 12.7531 10.1418 12.6656 10.098C12.5125 10.0242 12.4988 10.0215 11.9574 10.0133L11.4023 10.0023V9.625V9.24765L11.4789 9.22851C11.6184 9.19296 11.8809 9.05351 12.023 8.93593C12.3129 8.69531 12.5398 8.31796 12.6191 7.94062C12.6465 7.80937 12.6602 7.57148 12.6602 7.15585C12.6602 6.62539 12.6547 6.54335 12.6027 6.39296C12.4441 5.91992 12.0695 5.6164 11.5691 5.54804C11.4324 5.5289 11.0113 5.52343 10.4672 5.5289C9.6168 5.53984 9.57852 5.54257 9.41992 5.60546C9.19844 5.69296 9.11641 5.74492 8.95234 5.90625C8.72266 6.1332 8.58594 6.45312 8.58594 6.75937C8.58594 6.83046 8.57773 6.89062 8.5668 6.89062C8.55312 6.89062 8.43555 6.86601 8.29883 6.8332L8.05273 6.77851L7.8668 6.49414C7.63711 6.14687 7.60703 6.11679 7.47031 6.11953L7.36367 6.12226L7.29531 5.89804L7.22422 5.67382L7.28437 5.63281C7.46758 5.50703 7.6918 5.25273 7.7793 5.07773C7.83125 4.97382 7.875 4.86992 7.875 4.85078C7.875 4.8207 7.92969 4.8125 8.10195 4.8125C8.30977 4.8125 8.34258 4.80429 8.47656 4.72226C8.57773 4.66484 8.65156 4.59101 8.70898 4.50078C8.78281 4.38046 8.79102 4.34218 8.79102 4.15625C8.79102 3.97031 8.78281 3.93203 8.70898 3.81171C8.65156 3.72148 8.57773 3.64765 8.47656 3.58749C8.34531 3.51093 8.3043 3.5 8.1293 3.5H7.92969V3.39062V3.28125H8.05273C8.30703 3.28125 8.4 3.05429 8.2168 2.88203L8.12109 2.79179V2.48007C8.12109 1.58867 7.62344 0.812104 6.80039 0.423823C6.5707 0.314448 6.22344 0.218745 6.05117 0.218745C5.9418 0.218745 5.92812 0.210542 5.90078 0.136714C5.88711 0.090229 5.85156 0.0410109 5.82422 0.027339C5.75312 -0.0109425 5.59727 -0.00547409 5.54258 0.0328074ZM6.15234 0.713667C6.68008 0.798432 7.13125 1.10742 7.40742 1.58046C7.57969 1.87304 7.63711 2.07265 7.65078 2.43632L7.66172 2.75078L7.39102 2.71796C6.55156 2.61132 4.9793 2.59765 4.21094 2.69062C3.69141 2.75624 3.74609 2.78359 3.74609 2.43906C3.74609 2.10546 3.78437 1.94414 3.92383 1.66796C4.31758 0.89687 5.12695 0.552339 6.15234 0.713667ZM6.41211 3.10351C6.77305 3.11718 7.17227 3.15273 7.37734 3.18554L7.46758 3.20195L7.45937 3.93203C7.45117 4.65937 7.45117 4.6621 7.37734 4.81796C7.25977 5.06953 7.11211 5.18984 6.68555 5.38398C5.88164 5.75039 5.57266 5.75039 4.74688 5.39218C4.31211 5.20351 4.12344 5.04218 4.02227 4.77695C3.96758 4.62382 3.96484 4.58007 3.97031 3.90195L3.97852 3.18554L4.29297 3.14999C4.67031 3.10898 5.56992 3.06796 5.83789 3.08164C5.94453 3.08437 6.20156 3.09531 6.41211 3.10351ZM3.5 4.15625V4.375H3.4043C3.25664 4.375 3.12266 4.30937 3.10078 4.22734C3.05703 4.05234 3.17188 3.94023 3.39883 3.9375H3.5V4.15625ZM8.27969 4.0332C8.40547 4.18085 8.30703 4.33945 8.07461 4.36679L7.92969 4.3832V4.15625V3.92929L8.07461 3.9457C8.18125 3.95937 8.2332 3.98125 8.27969 4.0332ZM5.2418 6.07304C5.68203 6.17968 6.27266 6.10859 6.68008 5.90351C6.75938 5.8625 6.78672 5.85703 6.79492 5.88437C6.85234 6.0375 6.97266 6.41484 6.97266 6.43945C6.97266 6.46679 5.76953 7.52226 5.71758 7.5414C5.6957 7.5496 4.47344 6.50781 4.44883 6.45859C4.44336 6.44765 4.48164 6.3082 4.53359 6.14687L4.62656 5.85703L4.81523 5.93632C4.91914 5.98007 5.11055 6.04296 5.2418 6.07304ZM11.7168 6.06484C11.8809 6.13867 12.0395 6.28906 12.1215 6.43945C12.1762 6.54062 12.1816 6.59531 12.1898 7.10937C12.2008 7.73007 12.1816 7.86953 12.0559 8.14023C11.8973 8.47382 11.5828 8.72812 11.2383 8.80468C11.1398 8.82656 10.8828 8.83476 10.4863 8.82656L9.88203 8.81835L9.7043 8.73085C9.48555 8.62148 9.32148 8.45195 9.21211 8.21953C9.07539 7.92968 9.04531 7.71093 9.05625 7.10937C9.06445 6.59257 9.06719 6.57343 9.13828 6.43671C9.25039 6.22343 9.4418 6.07304 9.67148 6.01835C9.72891 6.00468 10.1828 5.99374 10.6777 5.99648C11.5555 6.00195 11.5828 6.00468 11.7168 6.06484ZM7.5332 6.85507L7.6207 6.98359L7.22422 7.45937C7.00547 7.71914 6.81953 7.92421 6.80586 7.91054C6.74297 7.84218 6.50781 7.53593 6.50781 7.51953C6.50781 7.49218 7.41836 6.69921 7.43477 6.71289C7.44023 6.72109 7.48398 6.78398 7.5332 6.85507ZM4.42422 7.07382C4.6457 7.2625 4.85078 7.44023 4.87812 7.46757C4.92734 7.51406 4.92461 7.51953 4.76875 7.72187C4.68125 7.83398 4.59922 7.92421 4.59102 7.92148C4.58008 7.91875 4.39961 7.7082 4.18633 7.4539C3.75977 6.93984 3.78711 7.01093 3.92656 6.79492C3.95117 6.75664 3.98398 6.72656 3.99766 6.72656C4.01133 6.72656 4.20273 6.88242 4.42422 7.07382ZM2.95312 8.12656C3.25117 8.52031 3.5 8.93593 3.61211 9.22304C3.65586 9.34335 3.69141 9.44179 3.68594 9.44726C3.68047 9.45 3.59297 9.47461 3.48906 9.49921L3.30312 9.5457L3.2375 9.47461C3.15547 9.3871 2.98047 9.3789 2.89844 9.46093C2.84648 9.51289 2.84375 9.55117 2.84375 10.1172V10.7187H2.20117H1.55859V9.65234C1.55859 8.43281 1.55586 8.44648 1.80469 8.11835C1.93867 7.94062 2.22852 7.67812 2.39258 7.59335L2.47461 7.54687L2.59219 7.67539C2.65781 7.74648 2.82187 7.94882 2.95312 8.12656ZM5.71211 8.09375C5.79414 8.09375 5.84336 8.06914 5.9582 7.9707C6.0375 7.90234 6.11133 7.84765 6.125 7.84765C6.13594 7.84765 6.23438 7.95703 6.34375 8.09375L6.53789 8.3371L6.41484 8.64609C6.34648 8.81562 6.26445 9.05625 6.23164 9.17929L6.17148 9.40625H5.71211H5.25273L5.19531 9.20664C5.12422 8.96328 4.98477 8.57773 4.91914 8.44648L4.87266 8.35078L5.08047 8.08828L5.28828 7.82578L5.44688 7.95976C5.57812 8.06914 5.62734 8.09375 5.71211 8.09375ZM8.81016 8.47382C8.99062 8.83203 9.37617 9.15195 9.74258 9.24218L9.87109 9.275V9.6414V10.0078H9.3707C9.03984 10.0078 8.82383 10.0215 8.72813 10.0461L8.58594 10.0816V9.8164C8.58594 9.58945 8.57773 9.54023 8.52852 9.47734C8.44922 9.37617 8.25781 9.37617 8.18125 9.47461L8.12656 9.54296L7.93242 9.49648C7.82578 9.47187 7.73828 9.44179 7.73828 9.42812C7.73828 9.37617 7.88594 9.0207 7.97617 8.85937C8.09922 8.64062 8.34805 8.26601 8.50391 8.06914L8.62148 7.92148L8.6707 8.10742C8.69531 8.20859 8.7582 8.37265 8.81016 8.47382ZM10.9375 9.65234V10.0078H10.6367H10.3359V9.65234V9.29687H10.6367H10.9375V9.65234ZM12.4414 10.5164C12.507 10.5437 12.5727 10.5957 12.6055 10.6504C12.6574 10.7352 12.6602 10.7789 12.6547 11.2574L12.6465 11.7715H10.623H8.59961L8.59141 11.2629C8.58594 10.7734 8.58594 10.7516 8.64609 10.6613C8.78008 10.4644 8.70352 10.4727 10.6148 10.4727C12.1242 10.4727 12.343 10.4781 12.4414 10.5164ZM2.84375 11.375V11.5937H2.0918H1.33984V11.375V11.1562H2.0918H2.84375V11.375ZM10.9375 12.6465V13.043H10.6367H10.3359V12.6465V12.25H10.6367H10.9375V12.6465Z" fill="#242B3A"/>
<path d="M4.27802 10.3797C4.11123 10.4398 3.92802 10.6148 3.84326 10.7953C3.69834 11.1016 3.76123 11.4871 3.99091 11.7113C4.09209 11.8098 5.32256 12.5371 5.44013 12.5672C5.55224 12.5973 5.65068 12.5289 5.76006 12.3457C5.87216 12.1488 5.84756 12.1543 6.09365 12.2965L6.20849 12.3621L6.15654 12.4496C6.08545 12.5645 6.08818 12.6684 6.16474 12.7531C6.23584 12.8352 7.03974 13.125 7.1956 13.125C7.31591 13.125 7.3624 13.0785 7.51826 12.8023C7.63584 12.5973 7.65498 12.507 7.60576 12.4141C7.56474 12.3375 6.84834 11.7332 6.77724 11.7168C6.68154 11.6922 6.57216 11.7469 6.50927 11.8535C6.47646 11.9055 6.44638 11.9492 6.44365 11.9492C6.43818 11.9492 6.35888 11.9055 6.26865 11.8535L6.10459 11.7551L6.19756 11.5828C6.29873 11.4051 6.31787 11.2793 6.26045 11.2027C6.2167 11.148 4.95068 10.4152 4.81943 10.3688C4.69365 10.325 4.41748 10.3305 4.27802 10.3797ZM5.16943 11.0934C5.44834 11.252 5.6917 11.3941 5.71084 11.4078C5.76006 11.4461 5.42646 12.0121 5.36631 11.9902C5.22959 11.9383 4.32451 11.3914 4.2917 11.3395C4.18779 11.1809 4.21787 11.0086 4.37646 10.8746C4.52959 10.7461 4.60068 10.7652 5.16943 11.0934ZM6.96045 12.4551C7.03701 12.5234 7.08896 12.5836 7.08076 12.5945C7.06982 12.6027 6.97685 12.5836 6.87295 12.548L6.68427 12.4879L6.72802 12.4113C6.75263 12.3676 6.78545 12.332 6.79912 12.3348C6.81552 12.3348 6.88662 12.3895 6.96045 12.4551Z" fill="#242B3A"/>
</g>
<defs>
<clipPath id="clip0_15424_13981">
<rect width="14" height="14" fill="white"/>
</clipPath>
</defs>
</svg>
