<svg width="24" height="25" viewBox="0 0 24 25" fill="none" xmlns="http://www.w3.org/2000/svg">
<path fill-rule="evenodd" clip-rule="evenodd" d="M4 3.5C3.44772 3.5 3 3.94772 3 4.5V8.5C3 9.05228 3.44772 9.5 4 9.5H20C20.5523 9.5 21 9.05228 21 8.5V4.5C21 3.94772 20.5523 3.5 20 3.5H4ZM1 4.5C1 2.84315 2.34315 1.5 4 1.5H20C21.6569 1.5 23 2.84315 23 4.5V8.5C23 10.1569 21.6569 11.5 20 11.5H4C2.34315 11.5 1 10.1569 1 8.5V4.5Z" fill="#282B8B"/>
<path fill-rule="evenodd" clip-rule="evenodd" d="M4 15.5C3.44772 15.5 3 15.9477 3 16.5V20.5C3 21.0523 3.44772 21.5 4 21.5H20C20.5523 21.5 21 21.0523 21 20.5V16.5C21 15.9477 20.5523 15.5 20 15.5H4ZM1 16.5C1 14.8431 2.34315 13.5 4 13.5H20C21.6569 13.5 23 14.8431 23 16.5V20.5C23 22.1569 21.6569 23.5 20 23.5H4C2.34315 23.5 1 22.1569 1 20.5V16.5Z" fill="#282B8B"/>
</svg>
