<svg width="15" height="16" viewBox="0 0 15 16" fill="none" xmlns="http://www.w3.org/2000/svg">
<g clip-path="url(#clip0_15424_13991)">
<path d="M13.5011 11.6428H11.6797V10.5714H13.5011V11.6428Z" fill="#242B3A" stroke="#242B3A"/>
<path d="M0.323661 11L1.9308 11.6429V13.3571H0.109375L0.323661 11Z" fill="#242B3A"/>
<path d="M6.42746 0.821411H4.07031L4.39174 3.07141H6.21317L6.42746 0.821411Z" fill="#242B3A"/>
<path d="M10.394 14.9643L8.67969 13.6786V15.1786L10.394 14.9643Z" fill="#242B3A"/>
<path d="M3.28418 0.544717C2.88281 0.650201 2.47266 0.91098 2.21777 1.22157C1.88086 1.62592 1.73145 2.1006 1.73145 2.75401C1.73145 3.00893 1.72852 3.01772 1.65234 3.05874C1.60547 3.08218 1.53809 3.13493 1.49707 3.17888C1.42676 3.25213 1.42383 3.27557 1.41504 3.677C1.40332 4.14288 1.42383 4.22199 1.58496 4.3392L1.66992 4.40366L1.59082 4.5531C1.52051 4.68788 1.51172 4.73476 1.51172 4.99554C1.51172 5.25046 1.52051 5.30906 1.58789 5.45264C1.73145 5.75444 1.97461 5.95661 2.29395 6.03573C2.42871 6.07089 2.43164 6.07382 2.44922 6.2086C2.50781 6.64519 2.68066 7.09935 2.93555 7.47734C3.08496 7.70002 3.45117 8.06922 3.64453 8.18935L3.78223 8.27725L3.77637 8.76072L3.76758 9.24419L3.68555 9.28228C3.60938 9.32037 3.59766 9.31744 3.55957 9.2647C3.47754 9.14749 3.34277 9.11233 2.94727 9.11233C2.68066 9.11233 2.55469 9.12405 2.49609 9.15628C2.39355 9.20903 2.25879 9.36432 2.25879 9.42878C2.25879 9.52548 2.20605 9.55478 1.95703 9.59873C1.36523 9.70128 1.01953 9.87416 0.647461 10.2521C0.360352 10.5452 0.237305 10.7356 0.108398 11.096L0.0175781 11.3539L0.00878906 13.2262L0 15.0956L0.0761719 15.2245C0.120117 15.3007 0.202148 15.3827 0.27832 15.4267L0.404297 15.5H3.6709C6.79688 15.5 6.94043 15.497 6.98438 15.4472C7.05176 15.371 7.04883 15.1718 6.98145 15.1102C6.93164 15.0634 6.72363 15.0604 4.5791 15.0604H2.22949V13.4079C2.22949 12.4995 2.23828 11.7348 2.24707 11.7084C2.26465 11.6674 2.55762 11.6615 5.2793 11.6615H8.29395V13.361V15.0604H8.00684C7.66992 15.0604 7.62012 15.0897 7.62012 15.2861C7.62012 15.5087 7.57324 15.5 8.9209 15.5C9.87012 15.5 10.1309 15.4912 10.207 15.4589C10.3213 15.4091 10.4766 15.2509 10.5176 15.1396C10.5703 15.0018 10.5586 11.6117 10.5059 11.3627C10.3564 10.6506 9.87305 10.0588 9.21094 9.76868C9.0791 9.713 8.84473 9.64561 8.63965 9.60752C8.3291 9.54892 8.29395 9.5372 8.29395 9.48153C8.29395 9.38776 8.18848 9.2354 8.08301 9.17093C7.99805 9.12112 7.93359 9.11233 7.59668 9.11233C7.18945 9.11233 7.10449 9.13284 6.99316 9.25298C6.94922 9.30279 6.92578 9.30865 6.86426 9.28521C6.82031 9.26763 6.77637 9.23833 6.76465 9.22075C6.75293 9.20024 6.74121 8.98634 6.74121 8.74607V8.30655L6.98145 8.13075C7.25977 7.92564 7.56152 7.58575 7.74023 7.27516C7.89258 7.00559 8.05371 6.54849 8.07715 6.30237C8.09766 6.10605 8.1416 6.03573 8.24414 6.03573C8.34082 6.03573 8.58692 5.90973 8.72461 5.7896C8.79785 5.72514 8.88867 5.60207 8.94434 5.48487C9.03223 5.30613 9.04102 5.26804 9.04102 5.01019C9.04102 4.76699 9.0293 4.71132 8.96192 4.57068L8.88281 4.40952L8.96777 4.34213C9.12305 4.22199 9.14356 4.14288 9.14356 3.71216C9.14356 3.35175 9.1377 3.31073 9.07617 3.2199C9.04102 3.16423 8.96192 3.09391 8.90039 3.06167L8.79199 3.00307V2.62216C8.79199 2.17092 8.74805 1.9541 8.58692 1.62592C8.33203 1.10144 7.84277 0.700012 7.28027 0.556437C7.06641 0.500766 6.95215 0.497835 5.25 0.500766C3.76465 0.500766 3.41602 0.509556 3.28418 0.544717ZM4.04004 1.9248C4.10742 2.46979 4.16309 2.93861 4.16309 2.96498C4.16309 3.01186 4.125 3.01772 3.78809 3.01772C3.44531 3.01772 3.4043 3.02358 3.35742 3.07632C3.3252 3.11149 3.30176 3.18181 3.30176 3.23748C3.30176 3.29315 3.3252 3.36347 3.35742 3.39864C3.41016 3.45724 3.42773 3.45724 6.04395 3.45724H8.67481V3.72095V3.98466L5.27051 3.9788L1.86328 3.97001V3.72095V3.47189L2.25293 3.45724C2.68945 3.43966 2.72754 3.42208 2.72754 3.23162C2.72754 3.07046 2.64551 3.01772 2.39941 3.01772H2.19141L2.20898 2.64267C2.23535 2.07716 2.3584 1.75192 2.66895 1.4384C2.98242 1.11902 3.32813 0.975442 3.8584 0.940281C3.91699 0.937351 3.92285 0.981302 4.04004 1.9248ZM6.14356 1.01646C6.13477 1.06334 6.08203 1.48821 6.02344 1.96289C5.96777 2.43756 5.91211 2.87122 5.90332 2.92396L5.88867 3.01772L5.26758 3.01186L4.64941 3.00307L4.52344 2.00684C4.45606 1.45891 4.40039 0.993023 4.40039 0.972512C4.39746 0.946141 4.59375 0.937351 5.2793 0.937351H6.16113L6.14356 1.01646ZM7.10742 1.00181C7.34766 1.05162 7.6084 1.19227 7.81055 1.3798C8.18848 1.73727 8.32324 2.06544 8.32324 2.65146V3.01772H7.3418H6.36328L6.375 2.93568C6.38965 2.85364 6.62402 0.987163 6.62402 0.952002C6.62402 0.92856 6.89941 0.957862 7.10742 1.00181ZM7.64063 5.30906C7.63184 6.09433 7.62305 6.22618 7.56738 6.43715C7.28613 7.52422 6.39844 8.20693 5.27637 8.20693C4.6084 8.20693 4.0166 7.96959 3.58594 7.52715C3.2959 7.22828 3.13477 6.94992 3 6.51333C2.92383 6.26134 2.9209 6.23204 2.90918 5.33836L2.89746 4.42417H5.27637H7.65527L7.64063 5.30906ZM2.43457 5.02484V5.59621L2.35547 5.56398C2.05371 5.44971 1.88965 5.10102 1.99805 4.81387C2.05078 4.67323 2.29395 4.45347 2.39941 4.45347C2.42578 4.45347 2.43457 4.58826 2.43457 5.02484ZM8.35254 4.56775C8.48145 4.66737 8.58692 4.87248 8.58692 5.02191C8.58692 5.25046 8.40234 5.50245 8.2002 5.55226L8.11817 5.57277V5.01019V4.45054L8.18555 4.46812C8.2207 4.47984 8.29688 4.52379 8.35254 4.56775ZM4.60254 8.62301C4.95117 8.71091 5.62793 8.71091 5.9502 8.62008C6.07031 8.58784 6.19043 8.55268 6.2168 8.54096C6.26074 8.52338 6.2666 8.56733 6.27539 8.92774C6.28711 9.30572 6.29297 9.34088 6.36914 9.4698C6.41309 9.54599 6.47461 9.62217 6.50684 9.63975C6.60059 9.68956 6.57715 9.71886 6.39844 9.78626C5.93262 9.96206 5.30566 10.0265 4.81348 9.95034C4.56738 9.91225 4.00781 9.75695 3.96387 9.713C3.95801 9.70714 4.00195 9.65733 4.06055 9.60459C4.22754 9.46101 4.25098 9.37604 4.25098 8.91895C4.25098 8.54975 4.25391 8.52045 4.30371 8.54096C4.33008 8.54975 4.46484 8.58784 4.60254 8.62301ZM3.19629 10.3869V11.1927H2.94727H2.69824V10.3869V9.58115H2.94727H3.19629V10.3869ZM7.85449 10.3869V11.1927H7.60547H7.35645V10.3869V9.58115H7.60547H7.85449V10.3869ZM2.22949 10.5979V11.1781L2.08594 11.2396C1.9834 11.2865 1.91602 11.3421 1.85742 11.43L1.77539 11.5531L1.7666 12.356L1.75781 13.1559H1.0957H0.433594L0.451172 12.356C0.46875 11.4681 0.486328 11.3597 0.667969 11.0052C0.741211 10.8645 0.849609 10.7239 1.00195 10.5745C1.27148 10.302 1.52637 10.1672 1.93652 10.0822C2.08887 10.05 2.21777 10.0236 2.22363 10.0236C2.22656 10.0207 2.22949 10.2814 2.22949 10.5979ZM8.92383 10.1701C9.45703 10.3606 9.88184 10.8294 10.0225 11.3832C10.0752 11.5824 10.0811 11.7084 10.0811 12.3853V13.1559H9.42188H8.7627V12.356V11.556L8.67774 11.4213C8.61621 11.3246 8.55762 11.2747 8.45801 11.2337L8.32324 11.1781V10.6038V10.0265L8.53711 10.0675C8.65137 10.0881 8.82715 10.1349 8.92383 10.1701ZM3.85547 10.1818C4.09277 10.2873 4.51172 10.3899 4.86914 10.4338C5.50195 10.5071 6.21973 10.3928 6.83789 10.1232C6.88477 10.1027 6.8877 10.1379 6.8877 10.6477V11.1927H5.27637H3.66504V10.6506C3.66504 10.3518 3.6709 10.1086 3.67676 10.1086C3.68262 10.1086 3.76172 10.1408 3.85547 10.1818ZM1.76074 14.3455V15.0634L1.14551 15.0546C0.691406 15.0487 0.524414 15.037 0.495117 15.0077C0.46582 14.9784 0.454102 14.7997 0.448242 14.2986L0.439453 13.6247H1.09863H1.76074V14.3455ZM10.0811 14.2957C10.0811 14.9579 10.0811 14.9696 10.0166 15.0136C9.96094 15.0516 9.84668 15.0604 9.35742 15.0604H8.7627V14.3426V13.6247H9.42188H10.0811V14.2957Z" fill="#242B3A"/>
<path d="M3.89951 4.71431C3.82627 4.78756 3.79697 4.94579 3.82041 5.12159C3.85264 5.36479 4.05772 5.46149 4.22471 5.31205C4.30674 5.2388 4.30088 4.79928 4.21885 4.71724C4.14268 4.64106 3.97569 4.63813 3.89951 4.71431Z" fill="#242B3A"/>
<path d="M6.33205 4.71432C6.27639 4.75827 6.26174 4.80222 6.25295 4.96338C6.24416 5.07765 6.25588 5.19192 6.27639 5.24174C6.34084 5.39996 6.57815 5.42926 6.6719 5.29448C6.70119 5.25053 6.71584 5.15676 6.71584 5.0044C6.71584 4.81394 6.70705 4.76706 6.65725 4.71725C6.58401 4.64399 6.42287 4.64106 6.33205 4.71432Z" fill="#242B3A"/>
<path d="M5.03223 6.09431C5 6.12947 4.97656 6.19979 4.97656 6.25546C4.97656 6.41955 5.05273 6.47522 5.27246 6.47522C5.41895 6.47522 5.46875 6.4635 5.51563 6.41662C5.58594 6.3463 5.5918 6.191 5.52734 6.10017C5.48926 6.04449 5.45703 6.0357 5.28418 6.0357C5.12012 6.0357 5.07617 6.04742 5.03223 6.09431Z" fill="#242B3A"/>
<path d="M4.59766 6.88548C4.55957 6.92357 4.53906 6.98217 4.53906 7.06128C4.53906 7.16384 4.55371 7.18728 4.66211 7.26639C4.9375 7.46564 5.42383 7.5008 5.74023 7.34257C5.82812 7.29862 5.9248 7.23709 5.9541 7.20193C6.02734 7.11696 6.01855 6.96752 5.93652 6.89134C5.84863 6.80637 5.72852 6.8093 5.55273 6.90013C5.35938 6.99682 5.17188 6.99682 4.97852 6.90013C4.80273 6.81223 4.67676 6.80637 4.59766 6.88548Z" fill="#242B3A"/>
<path d="M10.918 5.25051C10.8506 5.29153 10.7861 5.36185 10.751 5.4351C10.6982 5.54645 10.6924 5.61677 10.6924 6.27604V6.99392L10.5283 7.0115C10.3438 7.03201 10.2002 7.11405 10.1152 7.25177C10.0713 7.32502 10.0625 7.4012 10.0625 7.72058C10.0625 8.15424 10.0947 8.25093 10.291 8.37692L10.3994 8.44725V9.09773C10.3994 9.82439 10.4258 9.98555 10.584 10.2522C10.7158 10.4719 10.9707 10.6976 11.2021 10.8001L11.3955 10.8822V11.2308C11.3955 11.4594 11.4102 11.6088 11.4365 11.6733C11.4863 11.7964 11.6182 11.9194 11.7236 11.9399L11.8027 11.9575L11.8115 13.5808C11.8203 15.1748 11.8203 15.2041 11.8818 15.2861C11.9141 15.3301 11.9873 15.3974 12.04 15.4326C12.1279 15.4941 12.1689 15.5 12.5352 15.5C12.9834 15.5 13.0713 15.4707 13.1826 15.289C13.2383 15.1953 13.2412 15.1367 13.2412 13.5779V11.9604L13.3291 11.9458C13.458 11.9194 13.6191 11.7553 13.6514 11.6176C13.666 11.5532 13.6807 11.3568 13.6807 11.184C13.6807 10.9085 13.6865 10.8675 13.7334 10.8529C14.1934 10.7005 14.5566 10.2874 14.6475 9.81853C14.6621 9.73063 14.6768 9.38195 14.6768 9.04206V8.42381L14.7734 8.37985C14.8232 8.35641 14.8965 8.28902 14.9346 8.23335C14.999 8.13666 15.002 8.11029 14.9932 7.70007L14.9844 7.26935L14.8818 7.16386C14.7793 7.05838 14.6445 7.00271 14.4805 7.00271H14.3867L14.3779 6.24381C14.3691 5.39701 14.3691 5.39994 14.1494 5.25051C14.0615 5.19191 14.0205 5.18604 13.6514 5.18604C13.2822 5.18604 13.2412 5.19191 13.1504 5.25344C12.96 5.37943 12.9482 5.4351 12.9482 6.26139V7.00271H12.5381H12.1279V6.26139C12.1279 5.55231 12.125 5.52008 12.0605 5.40873C11.9521 5.22121 11.8525 5.18604 11.4102 5.18604C11.0732 5.18604 11.0176 5.19483 10.918 5.25051ZM11.6592 6.32878V7.00271H11.4102H11.1611V6.32878V5.65486H11.4102H11.6592V6.32878ZM13.915 6.32878V7.00271H13.666H13.417V6.32878V5.65486H13.666H13.915V6.32878ZM14.5537 7.72644L14.5625 7.96964H12.5381H10.5166V7.72058V7.47152L12.5322 7.47738L14.5449 7.48617L14.5537 7.72644ZM14.2021 9.10359C14.1934 9.70719 14.1875 9.78337 14.1318 9.90351C13.9824 10.2258 13.7422 10.3928 13.3525 10.4456L13.2119 10.4632V10.1262C13.2119 9.93574 13.1973 9.757 13.1797 9.71598C13.1152 9.57827 12.8721 9.55482 12.7871 9.67789C12.7549 9.72477 12.7432 9.83025 12.7432 10.0998V10.4602H12.5381H12.333V10.1233C12.333 9.93574 12.3184 9.757 12.3008 9.71598C12.2363 9.57827 11.9932 9.55482 11.9082 9.67789C11.876 9.72477 11.8643 9.83025 11.8643 10.0998C11.8643 10.3782 11.8555 10.4602 11.8262 10.4602C11.7295 10.4602 11.4336 10.3928 11.3574 10.3547C11.2139 10.2786 11.0439 10.1028 10.9619 9.95039C10.8828 9.80388 10.8828 9.79216 10.874 9.11824L10.8652 8.43846H12.5381H14.2139L14.2021 9.10359ZM13.2119 11.1928V11.4858H12.5381H11.8643V11.1928V10.8997H12.5381H13.2119V11.1928ZM12.7725 13.5075V15.0634L12.5322 15.0546L12.2891 15.0458L12.2803 13.4987L12.2744 11.9546H12.5234H12.7725V13.5075Z" fill="#242B3A"/>
<path d="M4.93368 12.1216C4.86044 12.1861 4.56454 13.068 4.5704 13.2057C4.57919 13.4226 4.70223 13.5075 5.01571 13.5075C5.12704 13.5075 5.22079 13.5163 5.22079 13.528C5.22079 13.5427 5.19735 13.6247 5.16805 13.7156L5.11825 13.8797L5.06552 13.8123C4.9952 13.7185 4.7872 13.7126 4.70809 13.8005C4.60848 13.909 4.63778 14.032 4.82235 14.2928C5.01864 14.5712 5.07723 14.621 5.22372 14.621C5.33212 14.621 5.84188 14.4159 5.9327 14.3368C6.00888 14.2664 5.99716 14.0906 5.90927 14.0057C5.85067 13.95 5.81552 13.9412 5.71884 13.9558C5.57821 13.9734 5.57821 13.9763 5.67489 13.6745C5.75985 13.4138 5.76571 13.3054 5.70712 13.1882C5.64852 13.0768 5.54598 13.0387 5.30868 13.0387C5.19442 13.0387 5.1036 13.027 5.1036 13.0153C5.1036 13.0036 5.15048 12.8541 5.20614 12.6871C5.2618 12.5201 5.30868 12.3414 5.30868 12.2886C5.30868 12.1099 5.06845 12.0044 4.93368 12.1216Z" fill="#242B3A"/>
</g>
<defs>
<clipPath id="clip0_15424_13991">
<rect width="15" height="15" fill="white" transform="translate(0 0.5)"/>
</clipPath>
</defs>
</svg>
