<svg width="14" height="14" viewBox="0 0 14 14" fill="none" xmlns="http://www.w3.org/2000/svg">
<g clip-path="url(#clip0_15424_13939)">
<rect x="5.17188" y="7.35547" width="3.14453" height="0.519531" fill="#242B3A"/>
<rect x="0.273438" y="13.2344" width="13.4805" height="0.519531" fill="#242B3A"/>
<rect x="3.0625" y="10.8828" width="2.57031" height="0.710938" fill="#242B3A"/>
<path d="M5.18359 2.44727H6.93359L6.70117 3.45898L4.17188 3.70508L5.18359 2.44727Z" fill="#242B3A"/>
<path d="M8.77755 0.946094C8.0174 1.10469 6.35216 1.44922 5.07521 1.71172C3.79552 1.97422 2.72911 2.20391 2.70451 2.22305C2.67716 2.23945 2.40372 2.55937 2.09474 2.93398C1.56974 3.56289 1.53146 3.61758 1.53146 3.71875C1.53146 3.79258 1.5506 3.84727 1.58615 3.88281C1.64083 3.9375 1.67638 3.9375 4.10177 3.9375H6.56271V4.27383C6.56271 4.60469 6.55997 4.61289 6.49708 4.64297C6.38224 4.69492 6.22638 4.85078 6.17716 4.96289C6.11701 5.09414 6.1088 5.37578 6.16076 5.5043C6.18263 5.55352 6.22912 5.63008 6.2674 5.67383L6.33849 5.75586L5.77794 6.23438C5.47169 6.49688 5.17638 6.75117 5.12443 6.79766L5.03146 6.88516V7.43477C5.03146 7.94883 5.03419 7.98711 5.08615 8.03906C5.14083 8.09375 5.17638 8.09375 6.78146 8.09375C8.38654 8.09375 8.42208 8.09375 8.47677 8.03906C8.52872 7.98711 8.53146 7.94883 8.53146 7.43477V6.88516L8.43849 6.79766C8.38654 6.75117 8.09122 6.49688 7.78497 6.23438L7.22443 5.75586L7.29552 5.67383C7.3338 5.63008 7.38029 5.55352 7.40216 5.5043C7.45411 5.37578 7.44591 5.09414 7.38576 4.96289C7.33654 4.85078 7.18068 4.69492 7.06583 4.64297C7.00294 4.61289 7.00021 4.60469 7.00021 4.27383V3.9375H8.42208H9.84396V7.76562V11.5938H9.46115C8.94982 11.5938 8.96896 11.5746 8.96896 12.0859V12.4688H8.53146H8.09396V10.6641C8.09396 8.89492 8.09396 8.85938 8.03927 8.80469C7.98458 8.75 7.94904 8.75 6.28927 8.75H4.59396V6.83594C4.59396 4.95742 4.59396 4.92188 4.53927 4.86719C4.48732 4.81523 4.44904 4.8125 3.93771 4.8125C3.42638 4.8125 3.3881 4.81523 3.33615 4.86719C3.28419 4.91914 3.28146 4.95742 3.28146 6.07031V7.21875H2.95333H2.62521V6.07031C2.62521 4.95742 2.62247 4.91914 2.57052 4.86719C2.51857 4.81523 2.48029 4.8125 1.96896 4.8125C1.45763 4.8125 1.41935 4.81523 1.3674 4.86719C1.31544 4.91914 1.31271 4.95742 1.31271 6.07031V7.21875H1.03927C0.607239 7.21875 0.656458 6.88242 0.656458 9.89844V12.4688H0.383021C-0.0216668 12.4688 0.000208209 12.425 0.000208209 13.2344C0.000208209 13.8551 0.00294258 13.8934 0.0548957 13.9453C0.109583 14 0.14513 14 7.00021 14C13.8553 14 13.8908 14 13.9455 13.9453C13.9975 13.8934 14.0002 13.8551 14.0002 13.2344C14.0002 12.6137 13.9975 12.5754 13.9455 12.5234C13.8936 12.4715 13.8553 12.4688 13.1799 12.4688H12.469V12.0859C12.469 11.591 12.4717 11.5938 12.0861 11.5938H11.8127V7.74375V3.89648L12.1217 3.80625C12.2885 3.75703 12.4361 3.71875 12.4498 3.71875C12.4608 3.71875 12.469 3.94023 12.469 4.21094C12.469 4.66758 12.4717 4.70586 12.5236 4.75781C12.5756 4.80977 12.6139 4.8125 13.2346 4.8125C13.8553 4.8125 13.8936 4.80977 13.9455 4.75781C13.9975 4.70586 14.0002 4.66758 14.0002 3.50547C14.0002 2.58672 13.992 2.29688 13.9674 2.26406C13.9373 2.22852 12.5182 1.24414 11.8674 0.81211L11.635 0.65625L10.8967 0.658984L10.1584 0.661719L8.77755 0.946094ZM11.3752 1.64062V2.1875H10.5932C10.1639 2.1875 9.81662 2.17656 9.82208 2.16563C9.82755 2.15195 9.96427 1.90586 10.1283 1.61875L10.4291 1.09375H10.9022H11.3752V1.64062ZM9.77013 1.29063C9.74005 1.33984 9.61427 1.56133 9.48849 1.78281L9.2588 2.1875L7.19162 2.18477C6.05685 2.18203 5.15177 2.17383 5.18185 2.16836C5.21193 2.16016 6.26466 1.94141 7.51974 1.68164C8.77482 1.42188 9.80841 1.20586 9.81115 1.20586C9.81662 1.20312 9.79747 1.24414 9.77013 1.29063ZM12.5647 1.84023C12.8217 2.0207 13.035 2.17109 13.0404 2.17656C13.0459 2.18203 12.7807 2.1875 12.4471 2.1875H11.8401V1.76367V1.33711L11.9713 1.42734C12.0424 1.47656 12.3104 1.6625 12.5647 1.84023ZM4.24943 2.97227C4.0881 3.16641 3.94865 3.32227 3.93771 3.32227C3.92677 3.32227 3.78732 3.16641 3.62599 2.97227L3.33341 2.625H3.93771H4.54201L4.24943 2.97227ZM6.43693 2.97227C6.2756 3.16641 6.13615 3.32227 6.12521 3.32227C6.11427 3.32227 5.97482 3.16641 5.81349 2.97227L5.52091 2.625H6.12521H6.72951L6.43693 2.97227ZM8.62443 2.97227C8.4631 3.16641 8.32365 3.32227 8.31271 3.32227C8.30177 3.32227 8.16232 3.16641 8.00099 2.97227L7.70841 2.625H8.31271H8.91701L8.62443 2.97227ZM11.3752 3.0625V3.5H10.5002H9.62521V3.0625V2.625H10.5002H11.3752V3.0625ZM13.5627 2.75352V2.88477L12.6877 3.14727L11.8127 3.40977V3.01875V2.625H12.6877H13.5627V2.75352ZM3.15568 3.15L3.44826 3.5H2.84396H2.2424L2.53497 3.14453C2.69904 2.95039 2.83849 2.79453 2.84669 2.79727C2.85763 2.8 2.99435 2.95859 3.15568 3.15ZM5.34318 3.15L5.63576 3.5H5.03146H4.4299L4.72247 3.14453C4.88654 2.95039 5.02599 2.79453 5.03419 2.79727C5.04513 2.8 5.18185 2.95859 5.34318 3.15ZM7.53068 3.15L7.82326 3.5H7.21896H6.6174L6.90997 3.14453C7.07404 2.95039 7.21349 2.79453 7.22169 2.79727C7.23263 2.8 7.36935 2.95859 7.53068 3.15ZM9.18771 3.28125V3.5H8.9963H8.80216L8.98536 3.28125C9.08654 3.16094 9.17404 3.0625 9.17951 3.0625C9.18224 3.0625 9.18771 3.16094 9.18771 3.28125ZM13.5627 3.88281V4.375H13.2346H12.9065V3.97031V3.56836L13.1881 3.48359C13.3412 3.43437 13.4889 3.39609 13.5162 3.39336C13.56 3.39062 13.5627 3.43164 13.5627 3.88281ZM10.9514 3.95938C10.6779 4.19727 10.3416 4.47891 10.317 4.49531C10.2897 4.51172 10.2815 4.44883 10.2815 4.22734V3.9375H10.6287C10.8201 3.9375 10.9651 3.94844 10.9514 3.95938ZM11.3643 5.65195C11.3561 5.66016 10.5822 5.12422 10.4537 5.02031C10.4483 5.01484 10.6533 4.83711 10.9049 4.62109L11.3615 4.23008L11.3697 4.93555C11.3725 5.32383 11.3697 5.64648 11.3643 5.65195ZM6.91818 5.11328C6.94826 5.14336 6.97287 5.20352 6.97287 5.25C6.97287 5.29648 6.94826 5.35664 6.91818 5.38672C6.8881 5.4168 6.82794 5.44141 6.78146 5.44141C6.73497 5.44141 6.67482 5.4168 6.64474 5.38672C6.61466 5.35664 6.59005 5.29648 6.59005 5.25C6.59005 5.20352 6.61466 5.14336 6.64474 5.11328C6.67482 5.0832 6.73497 5.05859 6.78146 5.05859C6.82794 5.05859 6.8881 5.0832 6.91818 5.11328ZM2.18771 6.23438V7.21875H1.96896H1.75021V6.23438V5.25H1.96896H2.18771V6.23438ZM4.15646 6.67734V8.10742L3.93771 7.72461L3.71896 7.3418V6.29453V5.25H3.93771H4.15646V6.67734ZM11.1565 6.125C11.1565 6.13594 10.9651 6.28359 10.7326 6.45039L10.3088 6.75117V6.125V5.49883L10.7326 5.79961C10.9651 5.96641 11.1565 6.11406 11.1565 6.125ZM7.24904 6.40117L7.67833 6.76758L7.2299 6.77578C6.9838 6.77852 6.57911 6.77852 6.33302 6.77578L5.88458 6.76758L6.32482 6.39023C6.56818 6.18516 6.77599 6.01836 6.7924 6.02383C6.80607 6.0293 7.01115 6.19883 7.24904 6.40117ZM11.3752 7.21875C11.3752 7.56328 11.3697 7.84766 11.3615 7.84766C11.326 7.84766 10.5002 7.23516 10.5057 7.21328C10.5166 7.1832 11.3205 6.59531 11.3561 6.59258C11.367 6.58984 11.3752 6.87148 11.3752 7.21875ZM8.09396 7.4375V7.65625H6.78146H5.46896V7.4375V7.21875H6.78146H8.09396V7.4375ZM3.75997 8.37266C3.98693 8.76914 4.19201 9.11367 4.21935 9.13828C4.2631 9.18477 4.37794 9.1875 5.96115 9.1875H7.65646V10.8281V12.4688H6.78146H5.90646V11.6484C5.90646 10.8637 5.90372 10.8254 5.85177 10.7734C5.79982 10.7215 5.76154 10.7188 4.37521 10.7188C2.98888 10.7188 2.9506 10.7215 2.89865 10.7734C2.84669 10.8254 2.84396 10.8637 2.84396 11.6484V12.4688H1.96896H1.09396V10.0625V7.65625H2.22326H3.35255L3.75997 8.37266ZM11.1565 8.3125C11.1565 8.32344 10.9651 8.47109 10.7326 8.63789L10.3088 8.93867V8.3125V7.68633L10.7326 7.98711C10.9651 8.15391 11.1565 8.30156 11.1565 8.3125ZM11.3752 9.40625C11.3752 9.75078 11.3697 10.0352 11.3615 10.0352C11.326 10.0352 10.5002 9.42266 10.5057 9.40078C10.5166 9.3707 11.3205 8.78281 11.3561 8.78008C11.367 8.77734 11.3752 9.05898 11.3752 9.40625ZM11.2029 10.5109C11.2139 10.5191 10.3416 11.2656 10.3225 11.2656C10.3143 11.2656 10.3088 10.9512 10.3088 10.5684V9.87109L10.7545 10.1883C10.9979 10.3633 11.2002 10.5082 11.2029 10.5109ZM11.367 11.5855C11.3615 11.591 11.2084 11.591 11.0252 11.5883L10.6971 11.5801L11.0307 11.2957L11.3615 11.0113L11.3697 11.293C11.3725 11.4461 11.3725 11.5773 11.367 11.5855ZM5.46896 11.8125V12.4688H4.37521H3.28146V11.8125V11.1562H4.37521H5.46896V11.8125ZM12.0315 12.25V12.4688H10.719H9.40646V12.25V12.0312H10.719H12.0315V12.25ZM13.5627 13.2344V13.5625H7.00021H0.437708V13.2344V12.9062H7.00021H13.5627V13.2344Z" fill="#242B3A"/>
<path d="M1.80469 8.58594C1.76914 8.62148 1.75 8.67617 1.75 8.75C1.75 8.82383 1.76914 8.87852 1.80469 8.91406C1.85664 8.96602 1.89492 8.96875 2.40625 8.96875C2.91758 8.96875 2.95586 8.96602 3.00781 8.91406C3.04336 8.87852 3.0625 8.82383 3.0625 8.75C3.0625 8.67617 3.04336 8.62148 3.00781 8.58594C2.95586 8.53398 2.91758 8.53125 2.40625 8.53125C1.89492 8.53125 1.85664 8.53398 1.80469 8.58594Z" fill="#242B3A"/>
<path d="M1.80469 9.67969C1.76914 9.71523 1.75 9.76992 1.75 9.84375C1.75 9.91758 1.76914 9.97227 1.80469 10.0078C1.85664 10.0598 1.89492 10.0625 2.84375 10.0625C3.79258 10.0625 3.83086 10.0598 3.88281 10.0078C3.91836 9.97227 3.9375 9.91758 3.9375 9.84375C3.9375 9.76992 3.91836 9.71523 3.88281 9.67969C3.83086 9.62773 3.79258 9.625 2.84375 9.625C1.89492 9.625 1.85664 9.62773 1.80469 9.67969Z" fill="#242B3A"/>
<path d="M4.86719 9.67969C4.83164 9.71523 4.8125 9.76992 4.8125 9.84375C4.8125 9.91758 4.83164 9.97227 4.86719 10.0078C4.91914 10.0598 4.95742 10.0625 5.90625 10.0625C6.85508 10.0625 6.89336 10.0598 6.94531 10.0078C6.98086 9.97227 7 9.91758 7 9.84375C7 9.76992 6.98086 9.71523 6.94531 9.67969C6.89336 9.62773 6.85508 9.625 5.90625 9.625C4.95742 9.625 4.91914 9.62773 4.86719 9.67969Z" fill="#242B3A"/>
</g>
<defs>
<clipPath id="clip0_15424_13939">
<rect width="14" height="14" fill="white"/>
</clipPath>
</defs>
</svg>
