<svg width="86" height="86" viewBox="0 0 86 86" fill="none" xmlns="http://www.w3.org/2000/svg">
<path d="M61.3963 6.98272L61.3968 6.98265C64.7878 6.49603 67.7895 7.0713 70.1574 8.5816C72.5274 10.0932 74.0963 12.4371 74.7939 15.1737C76.0694 20.1762 74.6787 24.1729 73.474 27.6352C73.2432 28.2984 73.0193 28.942 72.8222 29.5694C71.2089 34.707 70.8291 36.8078 71.4681 38.9155C71.8009 40.0131 72.4517 41.2288 73.6222 42.9128C74.7223 44.4954 76.194 46.3716 78.1443 48.858C78.2757 49.0255 78.4092 49.1957 78.545 49.3689C83.9269 56.2322 84.7537 64.0614 81.0264 70.1728C77.3313 76.2314 69.54 79.9788 58.9726 79.6356L58.9558 79.635L58.939 79.6342C57.6105 79.5687 56.4062 79.5037 55.3005 79.444C47.7111 79.0342 44.7677 78.8752 38.1899 80.5382C37.3843 80.742 36.3775 81.0278 35.2423 81.35C32.547 82.1151 29.1274 83.0858 25.956 83.6529C16.0769 85.4214 5.27545 80.3771 2.80956 68.4681C1.17871 60.5957 3.78908 55.0994 7.32208 49.2807L61.3963 6.98272ZM61.3963 6.98272C59.9817 7.18609 58.7502 7.44736 57.6247 7.68614M61.3963 6.98272L57.6247 7.68614M57.6247 7.68614C54.1225 8.42917 51.6469 8.95437 47.8769 6.83895M57.6247 7.68614L47.8769 6.83895M47.8769 6.83895C36.5417 0.476759 28.3351 0.829287 23.0158 5.3275C17.9434 9.61689 16.3122 17.0675 16.516 23.0885L47.8769 6.83895ZM14.0386 38.9337C15.6791 35.566 16.7871 31.1245 16.516 23.0888L14.0386 38.9337ZM14.0386 38.9337C13.2016 40.6521 12.1967 42.1523 11.0437 43.7866M14.0386 38.9337L11.0437 43.7866M11.0437 43.7866C10.8539 44.0556 10.6595 44.3291 10.4614 44.6077M11.0437 43.7866L10.4614 44.6077M10.4614 44.6077C9.47218 45.9991 8.39042 47.5207 7.32221 49.2805L10.4614 44.6077Z" fill="#FFECF5" stroke="#FFECF5" stroke-width="4"/>
<g clip-path="url(#clip0_16414_36169)">
<path d="M79.2549 28.6924C75.8816 28.6924 73.1216 31.4234 73.1216 34.7613C73.1216 38.0993 75.8816 40.8303 79.2549 40.8303C82.6282 40.8303 85.3882 38.0993 85.3882 34.7613C85.3882 31.4234 82.6282 28.6924 79.2549 28.6924ZM81.5549 34.0786C81.4016 34.1545 81.2482 34.2303 81.0949 34.2303C80.8649 34.2303 80.6349 34.0786 80.4816 33.9269C80.1749 33.5476 79.7149 33.2441 79.2549 33.2441C78.7949 33.2441 78.4882 32.9407 78.4882 32.4855C78.4882 32.0303 78.7949 31.7269 79.2549 31.7269C80.2516 31.7269 81.1716 32.182 81.7849 33.0165C82.0149 33.3958 81.9382 33.851 81.5549 34.0786Z" fill="#FFECF5"/>
<path d="M69.2884 28.6917C67.1417 28.6917 65.4551 27.0227 65.4551 24.8986C65.4551 22.7744 67.1417 21.1055 69.2884 21.1055C71.4351 21.1055 73.1217 22.7744 73.1217 24.8986C73.1217 27.0227 71.4351 28.6917 69.2884 28.6917Z" fill="#FFECF5"/>
<path d="M66.6048 37.7954C64.6881 37.7954 63.1548 36.2781 63.1548 34.3816C63.1548 32.485 64.6881 30.9678 66.6048 30.9678C68.5215 30.9678 70.0548 32.485 70.0548 34.3816C70.0548 36.2781 68.5215 37.7954 66.6048 37.7954Z" fill="#FFECF5"/>
<path d="M76.9547 23.382C76.4947 23.382 76.188 23.0785 76.188 22.6233V20.3475C76.188 19.8923 76.4947 19.5889 76.9547 19.5889C77.4147 19.5889 77.7213 19.8923 77.7213 20.3475V22.6233C77.7213 23.0785 77.4147 23.382 76.9547 23.382Z" fill="#FFECF5"/>
<path d="M82.3215 26.4167H80.0215C79.5615 26.4167 79.2549 26.1132 79.2549 25.658C79.2549 25.2029 79.5615 24.8994 80.0215 24.8994H82.3215C82.7815 24.8994 83.0882 25.2029 83.0882 25.658C83.0882 26.1132 82.7815 26.4167 82.3215 26.4167Z" fill="#FFECF5"/>
<path d="M79.1016 24.292C78.8716 24.292 78.7183 24.2161 78.565 24.0644C78.2583 23.761 78.2583 23.3058 78.565 23.0023L80.175 21.4092C80.4816 21.1058 80.9416 21.1058 81.2483 21.4092C81.555 21.7127 81.555 22.1678 81.2483 22.4713L79.6383 24.0644C79.485 24.2161 79.3316 24.292 79.1016 24.292Z" fill="#FFECF5"/>
</g>
<path d="M54.7293 53.5733H29.8981V43.6982H25.0205V58.5113H26.7945V62.9999H29.4551L31.1602 58.5113H53.4675L55.1726 62.9999H57.8332V58.5113H59.6068V43.6982H54.7296L54.7293 53.5733Z" fill="#FF008A"/>
<path d="M31.228 49.5332H53.3981V52.2266H31.228V49.5332Z" fill="#FF008A"/>
<path d="M37.8788 29.7325C39.3481 29.7325 40.5394 28.5267 40.5394 27.0391C40.5394 25.5518 39.3483 24.3457 37.8788 24.3457C36.4096 24.3457 35.2183 25.5515 35.2183 27.0391C35.2189 28.5261 36.41 29.7325 37.8788 29.7325ZM37.8788 25.6927C38.612 25.6927 39.2092 26.2965 39.2092 27.0394C39.2092 27.7823 38.6124 28.3861 37.8788 28.3861C37.1456 28.3861 36.5485 27.782 36.5485 27.0394C36.5488 26.2968 37.1456 25.6927 37.8788 25.6927Z" fill="#FF008A"/>
<path d="M30.341 27.4887C31.5656 27.4887 32.558 26.484 32.558 25.2443C32.558 24.0046 31.5656 23 30.341 23C29.1164 23 28.124 24.0046 28.124 25.2443C28.124 26.4837 29.1164 27.4887 30.341 27.4887ZM30.341 24.3468C30.8299 24.3468 31.228 24.7501 31.228 25.2447C31.228 25.7397 30.8296 26.1423 30.341 26.1423C29.8521 26.1423 29.4544 25.7391 29.4544 25.2447C29.4544 24.7495 29.8521 24.3468 30.341 24.3468Z" fill="#FF008A"/>
<path d="M61.5854 35.0207C61.04 34.1379 60.2427 33.4788 59.3148 33.1094C59.6633 31.7583 59.4683 30.286 58.7112 29.0624C57.7715 27.5434 56.1526 26.6367 54.3802 26.6367C53.425 26.6367 52.4909 26.9085 51.679 27.4232C51.2546 27.6919 50.8757 28.0179 50.5524 28.3921C49.4995 27.8513 48.3249 27.5623 47.1378 27.5623C45.7369 27.5623 44.3668 27.9615 43.1748 28.7163C41.4755 29.793 40.2925 31.4747 39.8435 33.4522C39.7812 33.7243 39.7381 33.9979 39.7062 34.2716H36.4392C36.437 34.2594 36.4364 34.2474 36.4339 34.2352C35.9134 31.7022 33.6825 29.8633 31.1297 29.8633H31.1294C30.7583 29.8633 30.3844 29.9019 30.0193 29.9788C28.2543 30.3504 26.8111 31.5926 26.1294 33.2309C25.8733 33.2322 25.6157 33.2592 25.3636 33.3122C23.2954 33.7488 21.9636 35.807 22.393 37.9025C22.5855 38.8352 23.1107 39.6437 23.8331 40.1986C23.6334 40.7996 23.5888 41.4524 23.7211 42.0914C23.7766 42.3651 23.8659 42.6246 23.9788 42.8704C24.2224 42.5569 24.596 42.3516 25.0204 42.3516H25.212C25.1311 42.1834 25.0626 42.0073 25.0232 41.8162C24.8481 40.9694 25.1649 40.1412 25.7676 39.6105C24.7659 39.457 23.9152 38.6925 23.696 37.6289C23.4151 36.2593 24.2826 34.9163 25.6346 34.6313C25.806 34.5952 25.9772 34.5777 26.1458 34.5777C26.4707 34.5777 26.7873 34.6423 27.0787 34.7622C27.3193 33.0853 28.5612 31.6617 30.2909 31.2974C30.572 31.238 30.8535 31.2095 31.1301 31.2092C32.9502 31.2092 34.5856 32.4463 35.0723 34.271L31.2278 34.2713C28.7891 34.2713 26.7935 36.2916 26.7935 38.7602V42.3512H29.8969C29.979 42.3512 30.059 42.3612 30.1378 42.376C30.1616 42.3804 30.1852 42.3867 30.2094 42.3926C30.2646 42.4061 30.3182 42.4228 30.37 42.4432C30.3935 42.4526 30.4168 42.4601 30.4394 42.4711C30.9029 42.6811 31.2275 43.1509 31.2275 43.6985V48.1874H53.3975V43.6985C53.3975 42.9547 53.9931 42.3518 54.7279 42.3518H56.9216C57.1287 42.3797 57.3389 42.3954 57.5519 42.3954C58.4438 42.3954 59.3168 42.1412 60.0765 41.6598C61.1538 40.9768 61.9037 39.9104 62.1889 38.6569C62.4745 37.4031 62.2602 36.1113 61.5853 35.0207L61.5854 35.0207ZM38.8193 42.3518L37.879 43.3037L36.9194 42.3324L35.9599 43.3037L35.0196 42.3518L35.9791 41.3804L35.0196 40.4091L35.9599 39.4572L36.9194 40.4285L37.879 39.4572L38.8193 40.4091L37.8594 41.3804L38.8193 42.3518ZM49.6067 42.3518L48.6664 43.3037L47.7068 42.3324L46.7473 43.3037L45.807 42.3518L46.7665 41.3804L45.807 40.4091L46.7473 39.4572L47.7068 40.4285L48.6664 39.4572L49.6067 40.4091L48.6472 41.3804L49.6067 42.3518ZM59.3711 40.5184C58.8893 40.8234 58.3616 40.986 57.8318 41.0296V38.7605C57.8318 36.2918 55.8368 34.2716 53.3975 34.2716H41.0474C41.2954 32.5138 42.2754 30.8743 43.8798 29.8577C44.8945 29.2146 46.0221 28.9089 47.1372 28.9089C48.5045 28.9089 49.8518 29.3693 50.9481 30.2336C51.2423 29.5673 51.7278 28.981 52.3841 28.5648C53.0054 28.1713 53.6964 27.9836 54.38 27.9836C55.6375 27.9836 56.867 28.6198 57.5834 29.7769C58.4431 31.1663 58.3058 32.8968 57.3732 34.1246C57.4318 34.1214 57.4904 34.1202 57.5493 34.1202C58.6912 34.1202 59.8082 34.6829 60.4583 35.7355C61.4633 37.3603 60.9744 39.5013 59.3707 40.5181L59.3711 40.5184Z" fill="#FF008A"/>
<defs>
<clipPath id="clip0_16414_36169">
<rect width="23" height="22" fill="white" transform="translate(62.6875 19.1523)"/>
</clipPath>
</defs>
</svg>
