<svg width="41" height="40" viewBox="0 0 41 40" fill="none" xmlns="http://www.w3.org/2000/svg">
<path d="M26.3189 8.68337L28.6688 13.3834C28.9855 14.0334 29.8355 14.65 30.5522 14.7834L34.8022 15.4834C37.5189 15.9334 38.1522 17.9 36.2022 19.8667L32.8855 23.1834C32.3355 23.7334 32.0189 24.8167 32.2022 25.6L33.1522 29.7C33.9022 32.9334 32.1689 34.2 29.3189 32.5L25.3355 30.1334C24.6188 29.7 23.4189 29.7 22.7022 30.1334L18.7188 32.5C15.8688 34.1834 14.1355 32.9334 14.8855 29.7L15.8355 25.6C16.0189 24.8334 15.7022 23.75 15.1522 23.1834L11.8355 19.8667C9.88555 17.9167 10.5189 15.95 13.2355 15.4834L17.4855 14.7834C18.2022 14.6667 19.0522 14.0334 19.3689 13.3834L21.7189 8.68337C22.9689 6.13337 25.0356 6.13337 26.3189 8.68337Z" stroke="#242B3A" stroke-width="1.5" stroke-linecap="round" stroke-linejoin="round"/>
<path d="M14 8.33337H4" stroke="#242B3A" stroke-width="1.5" stroke-linecap="round" stroke-linejoin="round"/>
<path d="M9 31.6666H4" stroke="#242B3A" stroke-width="1.5" stroke-linecap="round" stroke-linejoin="round"/>
<path d="M5.66667 20H4" stroke="#242B3A" stroke-width="1.5" stroke-linecap="round" stroke-linejoin="round"/>
</svg>
