<svg width="40" height="40" viewBox="0 0 40 40" fill="none" xmlns="http://www.w3.org/2000/svg">
<path d="M30 31.4334H28.7333C27.4 31.4334 26.1333 31.95 25.2 32.8834L22.35 35.7C21.05 36.9834 18.9334 36.9834 17.6334 35.7L14.7833 32.8834C13.85 31.95 12.5667 31.4334 11.25 31.4334H10C7.23333 31.4334 5 29.2167 5 26.4834V8.28337C5 5.55004 7.23333 3.33337 10 3.33337H30C32.7667 3.33337 35 5.55004 35 8.28337V26.4667C35 29.2 32.7667 31.4334 30 31.4334Z" stroke="#242B3A" stroke-width="1.5" stroke-miterlimit="10" stroke-linecap="round" stroke-linejoin="round"/>
<path d="M20.1178 14.9166C20.0511 14.9166 19.951 14.9166 19.8677 14.9166C18.1177 14.85 16.7344 13.4333 16.7344 11.6666C16.7344 9.86663 18.1844 8.41663 19.9844 8.41663C21.7844 8.41663 23.2344 9.88329 23.2344 11.6666C23.2511 13.4333 21.8678 14.8666 20.1178 14.9166Z" stroke="#242B3A" stroke-width="1.5" stroke-linecap="round" stroke-linejoin="round"/>
<path d="M15.4164 19.9333C13.1997 21.4167 13.1997 23.8333 15.4164 25.3167C17.9331 27 22.0664 27 24.5831 25.3167C26.7997 23.8333 26.7997 21.4167 24.5831 19.9333C22.0664 18.2667 17.9497 18.2667 15.4164 19.9333Z" stroke="#242B3A" stroke-width="1.5" stroke-linecap="round" stroke-linejoin="round"/>
</svg>
