<svg width="17" height="17" viewBox="0 0 17 17" fill="none" xmlns="http://www.w3.org/2000/svg">
<path d="M9.29476 1.03491C8.98284 0.809004 8.62891 0.647719 8.25377 0.560538C7.87863 0.473357 7.48985 0.462038 7.11027 0.527246C6.73069 0.592453 6.36798 0.732872 6.04344 0.940252C5.71891 1.14763 5.43909 1.41779 5.22045 1.73484L4.71545 2.46894L3.83643 2.60879C3.45597 2.66952 3.0915 2.80571 2.76444 3.00936C2.43738 3.213 2.15434 3.47999 1.93197 3.79461C1.7096 4.10924 1.55238 4.46515 1.46956 4.84142C1.38674 5.21769 1.37999 5.60672 1.44971 5.98564L1.61025 6.86109L1.08875 7.5818C0.862836 7.89372 0.701552 8.24765 0.614371 8.62279C0.52719 8.99793 0.51587 9.38671 0.581078 9.76629C0.646286 10.1459 0.786705 10.5086 0.994084 10.8331C1.20146 11.1577 1.47162 11.4375 1.78867 11.6561L2.52179 12.1613L2.66163 13.0403C2.72237 13.4208 2.85856 13.7852 3.06221 14.1123C3.26585 14.4393 3.53283 14.7224 3.84746 14.9448C4.16208 15.1671 4.518 15.3244 4.89427 15.4072C5.27054 15.49 5.65957 15.4967 6.03848 15.427L6.91394 15.2665L7.63464 15.788C7.94656 16.0139 8.3005 16.1752 8.67564 16.2624C9.05078 16.3495 9.43956 16.3609 9.81913 16.2956C10.1987 16.2304 10.5614 16.09 10.886 15.8826C11.2105 15.6753 11.4903 15.4051 11.709 15.0881L12.2141 14.3549L13.0931 14.2151C13.4736 14.1544 13.8381 14.0182 14.1651 13.8145C14.4922 13.6109 14.7752 13.3439 14.9976 13.0293C15.22 12.7146 15.3772 12.3587 15.46 11.9825C15.5428 11.6062 15.5496 11.2172 15.4799 10.8382L15.3193 9.96279L15.8408 9.24209C16.0667 8.93016 16.228 8.57623 16.3152 8.20109C16.4024 7.82595 16.4137 7.43717 16.3485 7.05759C16.2833 6.67802 16.1429 6.3153 15.9355 5.99077C15.7281 5.66623 15.458 5.38642 15.1409 5.16777L14.4078 4.6626L14.2679 3.78359C14.2072 3.40313 14.071 3.03865 13.8674 2.71159C13.6637 2.38453 13.3967 2.1015 13.0821 1.87912C12.7675 1.65675 12.4116 1.49953 12.0353 1.41671C11.659 1.33389 11.27 1.32714 10.8911 1.39686L10.0156 1.55741L9.29493 1.0359L9.29476 1.03491ZM10.5908 6.88393L8.14202 10.3485C8.10412 10.4023 8.056 10.4481 8.0004 10.4832C7.9448 10.5183 7.88281 10.5421 7.818 10.5533C7.75318 10.5644 7.6868 10.5626 7.62266 10.5481C7.55853 10.5335 7.4979 10.5064 7.44424 10.4684L5.71193 9.24404C5.65824 9.2061 5.61255 9.15795 5.57747 9.10234C5.54239 9.04674 5.51861 8.98477 5.50748 8.91998C5.49635 8.85518 5.49809 8.78883 5.5126 8.72471C5.52711 8.66059 5.55411 8.59995 5.59206 8.54626C5.63 8.49258 5.67815 8.44689 5.73375 8.41181C5.78936 8.37673 5.85132 8.35294 5.91612 8.34181C5.98091 8.33068 6.04727 8.33242 6.11139 8.34693C6.17551 8.36145 6.23615 8.38845 6.28983 8.42639L7.61349 9.3628L9.77312 6.30602C9.84976 6.1976 9.96633 6.12405 10.0972 6.10157C10.228 6.07909 10.3625 6.10952 10.4709 6.18615C10.5793 6.26279 10.6529 6.37935 10.6754 6.51021C10.6978 6.64107 10.6674 6.7755 10.5908 6.88393Z" fill="#03C95A"/>
</svg>
