<svg width="46" height="46" viewBox="0 0 46 46" fill="none" xmlns="http://www.w3.org/2000/svg">
<path d="M14.0337 1.09116C12.4253 1.60093 11.5376 2.46227 9.46334 5.52091C8.73384 6.60198 7.85492 7.55121 7.26605 7.89399C6.62444 8.26314 5.83341 8.43013 5.20059 8.32466C4.40956 8.19283 3.73279 7.90278 3.12634 7.44574C2.24742 6.77776 2.15074 6.72503 1.72886 6.72503C0.674158 6.72503 0.261066 7.59516 0.639001 9.04538C1.11362 10.8911 2.63415 12.4819 4.51503 13.0884L4.97207 13.2378L4.99844 19.4518C5.0248 25.4899 5.03359 25.6833 5.21817 26.3337C5.5961 27.6872 6.19377 28.8298 7.04632 29.8582C7.97797 31.0008 11.1421 33.7166 13.2954 35.2372C13.8228 35.6151 14.2622 35.9491 14.271 35.9754C14.2886 36.0106 13.2954 36.6522 12.0825 37.3993C10.1753 38.5683 9.83249 38.8144 9.66549 39.1132C9.28756 39.79 9.50729 40.7392 10.1225 41.0995C10.8345 41.5126 12.6187 41.662 13.7261 41.4072C14.0161 41.3368 17.3297 40.0273 21.1002 38.5067L27.947 35.7293L31.4275 37.8651L34.908 40.0097L34.9608 40.8622C35.0399 41.9521 35.3036 42.7959 35.8485 43.6132C36.868 45.125 38.3798 45.9248 40.2431 45.9248C41.8163 45.9248 42.871 45.4853 43.9697 44.3955C45.0683 43.2968 45.499 42.2421 45.499 40.6513C45.499 39.7196 45.376 39.1483 44.9892 38.3397C44.0136 36.2567 41.6142 35.0526 39.2938 35.4745C39.0126 35.5272 38.5292 35.6678 38.2304 35.7821L37.6854 36.0018L35.3299 34.4285C34.0379 33.5584 32.8689 32.7322 32.7459 32.6004C32.3768 32.1961 32.2537 31.7566 32.3943 31.3523C32.4646 31.1765 32.5789 30.9305 32.658 30.8162C32.7283 30.7019 33.8973 29.8757 35.2508 28.9793C37.6591 27.3972 37.7206 27.362 37.9843 27.4675C39.1532 27.9421 40.4364 28.074 41.456 27.8279C43.372 27.362 44.875 25.8942 45.376 24.0134C45.5342 23.4157 45.5342 21.9303 45.3672 21.3151C44.9013 19.5397 43.4951 18.1158 41.6757 17.5709C40.8407 17.316 39.496 17.3599 38.5819 17.65C36.411 18.3707 34.9608 20.401 34.952 22.7389V23.3278L34.2928 23.7233C33.9236 23.943 33.6072 24.1276 33.5897 24.1276C33.5633 24.1276 33.5545 21.6754 33.5633 18.6783L33.5897 13.2202L34.1873 13.0093C34.5213 12.895 35.0135 12.6665 35.286 12.5083C35.91 12.1392 36.8504 11.1987 37.2196 10.5659C37.8964 9.44089 38.1952 7.92915 37.87 7.34906C37.6678 6.97113 37.2196 6.72503 36.7538 6.72503C36.3846 6.72503 36.2792 6.77776 35.3651 7.44574C34.0379 8.43013 32.6492 8.60592 31.3924 7.97309C30.7683 7.66547 29.74 6.5844 28.9753 5.4506C27.2966 2.95447 26.4089 1.97887 25.3015 1.42515C24.4313 0.99448 23.8776 0.897797 22.568 0.950535C21.2936 0.99448 20.7574 1.15268 19.8346 1.72398L19.2633 2.08434L18.9996 1.92613C18.2262 1.4691 17.6197 1.17905 17.1539 1.056C16.4156 0.871429 14.6753 0.880219 14.0337 1.09116ZM16.8023 2.64685C17.0484 2.70837 17.5406 2.94568 17.9185 3.16541C18.9732 3.79823 19.6324 3.79823 20.5817 3.15662C21.8825 2.2777 23.7282 2.25133 24.9499 3.10389C25.6882 3.62245 26.3034 4.36953 27.7449 6.48772C28.9314 8.24556 30.0916 9.28268 31.366 9.72214C32.2098 10.021 33.6072 10.0034 34.5565 9.68699C34.9432 9.56394 35.4354 9.34421 35.6551 9.20358C35.8748 9.07174 36.1034 8.93111 36.1561 8.88717C36.244 8.84322 36.2528 8.87838 36.1825 9.04538C35.576 10.6626 34.1522 11.5854 31.7 11.9634C30.5486 12.1392 27.947 12.1304 26.7253 11.9546C24.027 11.5591 22.3219 10.7768 20.7574 9.20358C20.2477 8.69381 19.9576 8.47408 19.7027 8.40376C18.9469 8.19283 18.6217 8.34224 17.6197 9.32663C16.1255 10.7856 14.3677 11.5854 11.8013 11.9546C10.685 12.1128 8.10102 12.1392 7.04632 11.9985C4.67324 11.6733 3.14392 10.812 2.48473 9.41452C2.19469 8.80807 2.20348 8.7817 2.51989 9.01022C3.2406 9.51999 4.70839 9.97703 5.62247 9.97703C6.23771 9.97703 7.18694 9.73093 7.83734 9.41452C8.94478 8.8608 9.66549 8.07856 11.4233 5.5297C12.856 3.45545 13.8755 2.62927 15.1763 2.50622C15.8355 2.44469 16.1871 2.47106 16.8023 2.64685ZM20.7047 11.3394C22.4889 12.7017 25.5651 13.6597 28.2107 13.6685C28.6501 13.6685 28.8874 13.7036 28.8874 13.7652C28.8874 13.8179 28.738 14.1695 28.5447 14.5474C27.5603 16.525 26.1364 17.8082 24.528 18.1773C23.6755 18.3795 23.2799 18.1686 22.8229 17.2633C22.4889 16.6129 21.9879 16.1734 21.3727 15.9976C20.9772 15.8834 20.5377 15.857 19.0172 15.8834L17.1539 15.9097L16.6881 16.1646C16.1871 16.4459 15.9322 16.7271 15.5894 17.4215C15.2818 18.0279 14.9917 18.2389 14.482 18.2389C13.5415 18.2389 12.2847 17.5797 11.353 16.6129C10.7993 16.0328 10.1489 15.0308 9.77097 14.1695L9.55124 13.6685H10.2104C12.4077 13.6685 15.2203 12.9302 16.9429 11.9106C17.6724 11.48 18.8062 10.5747 19.0699 10.2319L19.2545 9.97703L19.7115 10.4516C19.9664 10.7153 20.4147 11.1108 20.7047 11.3394ZM7.84613 13.7036C7.85492 13.7036 8.00434 14.064 8.17133 14.4947C9.28756 17.2457 11.1684 19.109 13.4185 19.6979C15.0796 20.1373 16.275 19.6276 17.0133 18.1686C17.1715 17.8521 17.356 17.6148 17.5054 17.5533C17.6549 17.483 18.2701 17.4478 19.2897 17.4478C21.0739 17.4478 21.109 17.4566 21.4694 18.1686C22.2692 19.7506 23.6139 20.1989 25.5827 19.5485C27.5691 18.8893 29.5115 16.7535 30.4256 14.2398C30.5134 13.9937 30.6101 13.774 30.6365 13.7476C30.6629 13.7124 30.9793 13.6597 31.3308 13.6245L31.9637 13.563V19.0123C31.9637 22.0006 31.9373 24.6286 31.9109 24.8395L31.8494 25.2263L24.7829 29.5769C20.8893 31.9676 17.2945 34.1825 16.7935 34.4901L15.8707 35.0526L15.106 34.534C13.0933 33.1717 10.6059 31.1502 9.0151 29.5769C8.00434 28.5749 7.42425 27.7312 7.04632 26.7204C6.58049 25.4812 6.56291 25.2702 6.56291 19.1881V13.563L7.20452 13.6245C7.5473 13.6597 7.84613 13.6949 7.84613 13.7036ZM40.8495 19.0299C42.0273 19.2584 43.0468 20.0319 43.5742 21.1041C43.8203 21.5963 43.873 21.8073 43.8994 22.4577C43.9433 23.4069 43.7939 23.987 43.2929 24.7341C42.8798 25.3493 42.2031 25.8767 41.4648 26.1579C40.5155 26.5183 39.0829 26.3601 38.3007 25.8064C37.7382 25.4021 37.6327 25.446 34.5389 27.5115C32.2537 29.032 31.6472 29.4802 31.4012 29.8142C31.2342 30.0427 30.8738 30.7986 30.5925 31.5017C30.2673 32.3191 29.9861 32.8817 29.8191 33.0662C29.5906 33.3123 28.3689 33.8309 21.6364 36.5555C17.2857 38.3134 13.5503 39.8075 13.3306 39.8603C12.8735 39.9833 11.5727 40.0009 11.3618 39.8866C11.2563 39.8339 14.3238 37.9003 23.8337 32.0467C30.7771 27.7751 36.4901 24.2067 36.5428 24.11C36.6044 23.9958 36.6131 23.6618 36.578 23.1608C36.4198 21.1305 37.6063 19.4781 39.5224 19.065C40.1464 18.9244 40.2782 18.9244 40.8495 19.0299ZM34.6707 35.9139C36.5516 37.1796 37.4921 37.7509 37.6591 37.7509C37.7909 37.7509 38.1776 37.6102 38.5116 37.4432C38.8544 37.2675 39.3729 37.0829 39.6806 37.0301C41.2187 36.7489 42.8886 37.6454 43.5918 39.1308C43.8554 39.6933 43.873 39.79 43.873 40.6952C43.873 41.6093 43.8554 41.6972 43.5918 42.2421C43.2402 42.9541 42.4492 43.7275 41.746 44.0615C41.289 44.2724 41.1308 44.2988 40.2694 44.2988C39.3642 44.2988 39.2675 44.2812 38.7313 44.0263C37.6766 43.5166 36.9559 42.664 36.6659 41.5742C36.5604 41.1699 36.5428 40.8359 36.578 40.1679C36.6395 39.3241 36.6307 39.2802 36.4286 39.1044C36.3231 38.9989 34.785 38.0321 33.0184 36.951L29.8103 34.9823L30.2322 34.7801C30.4607 34.6659 30.8299 34.367 31.0496 34.1121L31.4627 33.6463L31.6912 33.866C31.8142 33.9891 33.159 34.912 34.6707 35.9139Z" fill="white"/>
<path d="M39.6983 20.4613C38.5469 20.7777 37.8174 21.8412 37.9756 22.9574C38.0811 23.7748 38.626 24.4691 39.3906 24.7943C39.8213 24.9701 40.709 24.9789 41.1221 24.8031C41.9219 24.4691 42.5108 23.5902 42.5108 22.7289C42.5108 22.0433 42.3526 21.6127 41.9219 21.138C41.3506 20.4964 40.4981 20.2416 39.6983 20.4613ZM40.7354 22.2191C41.1397 22.5883 40.8409 23.3353 40.2959 23.3353C39.9444 23.3353 39.7422 23.2123 39.6192 22.9135C39.4698 22.5619 39.6192 22.2191 39.9795 22.0697C40.2959 21.9291 40.4454 21.9642 40.7354 22.2191Z" fill="white"/>
<path d="M27.7007 31.1145C27.5425 31.2639 27.481 31.4221 27.481 31.6594C27.4897 32.679 28.8696 32.7669 29.0366 31.7561C29.0806 31.4749 29.0454 31.3958 28.8169 31.1584C28.4741 30.8157 28.0171 30.7981 27.7007 31.1145Z" fill="white"/>
<path d="M39.4872 38.5068C38.8631 38.7001 38.2567 39.3417 38.0633 40.0009C37.8788 40.6425 37.9403 41.2138 38.2567 41.7939C38.6698 42.5498 39.3378 42.9365 40.243 42.9365C41.2362 42.9365 42.036 42.3916 42.3788 41.4951C42.5634 41.0117 42.5282 40.0537 42.3085 39.623C41.8075 38.6562 40.5595 38.164 39.4872 38.5068ZM40.5682 40.08C40.9901 40.291 41.0604 40.792 40.7089 41.1347C40.3485 41.5039 39.8124 41.3984 39.6102 40.9238C39.4784 40.5986 39.6278 40.2295 39.9618 40.0625C40.243 39.9218 40.2694 39.9218 40.5682 40.08Z" fill="white"/>
</svg>
