<svg width="70" height="60" viewBox="0 0 70 60" fill="none" xmlns="http://www.w3.org/2000/svg">
<g clip-path="url(#clip0_15594_32317)">
<path d="M36.5286 14.7459L36.6209 14.7734L36.6249 14.7688C37.0625 14.8481 37.4967 14.5861 37.6253 14.152C38.7969 10.2153 42.488 7.46514 46.6004 7.46514C47.0873 7.46514 47.4822 7.07026 47.4822 6.5834C47.4822 6.09653 47.0873 5.70166 46.6004 5.70166C41.5463 5.70166 37.2991 9.06675 35.9354 13.6494C35.7962 14.1162 36.0621 14.6068 36.5286 14.7459Z" fill="#68616D" stroke="#F9FFF9" stroke-width="0.3"/>
<path d="M56.8438 42.4384H52.4534C52.0494 42.4384 51.7217 42.1107 51.7217 41.7067C51.7217 41.3027 52.0494 40.9749 52.4534 40.9749H56.8438C62.8956 40.9749 67.8197 36.0509 67.8197 29.999C67.8197 23.9471 62.8956 19.023 56.8438 19.023H56.7382C56.526 19.023 56.3242 18.9311 56.1852 18.7706C56.0462 18.6101 55.9834 18.3974 56.0138 18.1873C56.0791 17.7315 56.112 17.2737 56.112 16.8279C56.112 11.5829 51.8444 7.31531 46.5995 7.31531C44.559 7.31531 42.6131 7.95296 40.9719 9.15978C40.6112 9.42478 40.099 9.30718 39.8905 8.91047C35.2425 0.059701 23.1023 -1.12887 16.8082 6.57053C14.1568 9.81417 13.115 14.0336 13.9498 18.146C14.0418 18.6002 13.6942 19.0236 13.2327 19.0236H12.9395C6.8876 19.0236 1.96353 23.9477 1.96353 29.9996C1.96353 36.0514 6.8876 40.9755 12.9395 40.9755H17.3298C17.7338 40.9755 18.0615 41.3032 18.0615 41.7072C18.0615 42.1113 17.7338 42.439 17.3298 42.439H12.9395C6.0805 42.439 0.5 36.8585 0.5 29.9995C0.5 23.3329 5.77155 17.8742 12.3651 17.5731C11.7457 13.3066 12.9301 9.00295 15.6751 5.64437C22.4138 -2.5996 35.328 -1.67556 40.7871 7.51707C42.5287 6.42522 44.5215 5.85244 46.5992 5.85244C52.9538 5.85244 57.9892 11.261 57.5486 17.58C64.0813 17.9463 69.2829 23.3763 69.2829 29.999C69.2829 36.8585 63.7028 42.4384 56.8438 42.4384Z" fill="#68616D"/>
<path d="M16.3516 41.2936C16.3516 51.4635 24.6253 59.7371 34.7951 59.7371C44.965 59.7371 53.2386 51.4634 53.2386 41.2936C53.2386 31.1236 44.965 22.8501 34.7951 22.8501C24.6251 22.8501 16.3516 31.1238 16.3516 41.2936ZM18.1154 41.2936C18.1154 32.0967 25.598 24.6139 34.7951 24.6139C43.992 24.6139 51.4748 32.0965 51.4748 41.2936C51.4748 50.4905 43.992 57.9733 34.7951 57.9733C25.5982 57.9733 18.1154 50.4906 18.1154 41.2936Z" fill="#68616D" stroke="#F9FFF9" stroke-width="0.3"/>
<path d="M34.4453 48.6578C34.4453 49.0364 34.7524 49.3435 35.131 49.3435C35.5096 49.3435 35.8167 49.0368 35.8167 48.6578V34.7292C35.8167 34.3506 35.5096 34.0435 35.131 34.0435C34.7523 34.0435 34.4453 34.3506 34.4453 34.7292V48.6578Z" fill="#68616D" stroke="#483EA8" stroke-width="0.3"/>
<path d="M35.1277 35.7005L38.9285 39.5012C39.0622 39.635 39.2382 39.702 39.4133 39.7021L35.1277 35.7005ZM30.3572 39.5012C30.625 39.769 31.0594 39.7691 31.327 39.5011L39.4133 39.7021C39.5881 39.702 39.7643 39.6355 39.8983 39.5012C40.1661 39.2333 40.1661 38.7993 39.8982 38.5315L35.6126 34.2458C35.3448 33.978 34.9104 33.9778 34.6428 34.2458L30.3572 38.5315C30.0893 38.7993 30.0893 39.2333 30.3572 39.5012Z" fill="#68616D"/>
<path d="M35.1277 35.7005L31.327 39.5011M35.1277 35.7005L38.9285 39.5012C39.0622 39.635 39.2382 39.702 39.4133 39.7021M35.1277 35.7005L39.4133 39.7021M31.327 39.5011C31.0594 39.7691 30.625 39.769 30.3572 39.5012C30.0893 39.2333 30.0893 38.7993 30.3572 38.5315L34.6428 34.2458C34.9104 33.9778 35.3448 33.978 35.6126 34.2458L39.8982 38.5315C40.1661 38.7993 40.1661 39.2333 39.8983 39.5012C39.7643 39.6355 39.5881 39.702 39.4133 39.7021M31.327 39.5011L39.4133 39.7021" stroke="#483EA8" stroke-width="0.3"/>
</g>
<defs>
<clipPath id="clip0_15594_32317">
<rect width="69" height="60" fill="white" transform="translate(0.5)"/>
</clipPath>
</defs>
</svg>
