<svg width="25" height="24" viewBox="0 0 25 24" fill="none" xmlns="http://www.w3.org/2000/svg">
<path d="M12.5273 0H12.4727C5.86035 0 0.5 5.36035 0.5 11.9727V12.0273C0.5 18.6397 5.86035 24 12.4727 24H12.5273C19.1397 24 24.5 18.6397 24.5 12.0273V11.9727C24.5 5.36035 19.1397 0 12.5273 0Z" fill="#00E510"/>
<path d="M14.8409 15.51C11.7693 15.51 9.27037 13.0102 9.26953 9.93862C9.27037 9.16 9.90437 8.52686 10.6813 8.52686C10.7612 8.52686 10.8402 8.53358 10.9159 8.54704C11.0824 8.57478 11.2405 8.63112 11.3859 8.71604C11.4069 8.72866 11.4212 8.74884 11.4246 8.77238L11.7492 10.8181C11.7534 10.8425 11.7458 10.8661 11.7298 10.8837C11.5507 11.0822 11.322 11.2251 11.0672 11.2966L10.9445 11.331L10.9907 11.4496C11.4095 12.5158 12.2621 13.3676 13.3291 13.788L13.4477 13.8351L13.4821 13.7123C13.5536 13.4575 13.6965 13.2288 13.895 13.0497C13.9093 13.0363 13.9286 13.0295 13.9479 13.0295C13.9522 13.0295 13.9564 13.0295 13.9614 13.0304L16.0072 13.3549C16.0315 13.3591 16.0517 13.3726 16.0643 13.3936C16.1484 13.5391 16.2048 13.698 16.2333 13.8645C16.2468 13.9385 16.2527 14.0167 16.2527 14.0982C16.2527 14.876 15.6195 15.5092 14.8409 15.51Z" fill="#FDFDFD"/>
<path d="M20.2878 11.3259C20.1222 9.4542 19.2645 7.71788 17.873 6.43728C16.473 5.14912 14.6568 4.43945 12.7573 4.43945C8.58844 4.43945 5.19651 7.83139 5.19651 12.0003C5.19651 13.3994 5.58245 14.7624 6.31314 15.9497L4.68359 19.5569L9.90099 19.0011C10.8083 19.3727 11.7685 19.5611 12.7565 19.5611C13.0163 19.5611 13.2828 19.5476 13.5502 19.5199C13.7857 19.4946 14.0236 19.4576 14.2574 19.4105C17.7485 18.7051 20.2971 15.6066 20.3173 12.0406V12.0003C20.3173 11.7732 20.3072 11.5462 20.287 11.3259H20.2878ZM10.1019 17.4178L7.21536 17.7255L8.07722 15.816L7.90484 15.5847C7.89223 15.5679 7.87962 15.5511 7.86533 15.5318C7.11698 14.4984 6.72178 13.2775 6.72178 12.0011C6.72178 8.67306 9.42928 5.96557 12.7573 5.96557C15.8751 5.96557 18.5179 8.39811 18.7727 11.5033C18.7861 11.6698 18.7937 11.8371 18.7937 12.0019C18.7937 12.049 18.7928 12.0953 18.792 12.1449C18.7281 14.9289 16.7832 17.2933 14.0623 17.8954C13.8546 17.9416 13.6419 17.9769 13.43 17.9996C13.2097 18.0249 12.9835 18.0375 12.759 18.0375C11.9594 18.0375 11.1824 17.8827 10.4484 17.5767C10.3668 17.5439 10.2869 17.5086 10.2121 17.4724L10.1028 17.4194L10.1019 17.4178Z" fill="#FDFDFD"/>
</svg>
