<svg width="86" height="86" viewBox="0 0 86 86" fill="none" xmlns="http://www.w3.org/2000/svg">
<path d="M61.3963 6.98272L61.3968 6.98265C64.7878 6.49603 67.7895 7.0713 70.1574 8.5816C72.5274 10.0932 74.0963 12.4371 74.7939 15.1737C76.0694 20.1762 74.6787 24.1729 73.474 27.6352C73.2432 28.2984 73.0193 28.942 72.8222 29.5694C71.2089 34.707 70.8291 36.8078 71.4681 38.9155C71.8009 40.0131 72.4517 41.2288 73.6222 42.9128C74.7223 44.4954 76.194 46.3716 78.1443 48.858C78.2757 49.0255 78.4092 49.1957 78.545 49.3689C83.9269 56.2322 84.7537 64.0614 81.0264 70.1728C77.3313 76.2314 69.54 79.9788 58.9726 79.6356L58.9558 79.635L58.939 79.6342C57.6105 79.5687 56.4062 79.5037 55.3005 79.444C47.7111 79.0342 44.7677 78.8752 38.1899 80.5382C37.3843 80.742 36.3775 81.0278 35.2423 81.35C32.547 82.1151 29.1274 83.0858 25.956 83.6529C16.0769 85.4214 5.27545 80.3771 2.80956 68.4681C1.17871 60.5957 3.78908 55.0994 7.32208 49.2807L61.3963 6.98272ZM61.3963 6.98272C59.9817 7.18609 58.7502 7.44736 57.6247 7.68614M61.3963 6.98272L57.6247 7.68614M57.6247 7.68614C54.1225 8.42917 51.6469 8.95437 47.8769 6.83895M57.6247 7.68614L47.8769 6.83895M47.8769 6.83895C36.5417 0.476759 28.3351 0.829287 23.0158 5.3275C17.9434 9.61689 16.3122 17.0675 16.516 23.0885L47.8769 6.83895ZM14.0386 38.9337C15.6791 35.566 16.7871 31.1245 16.516 23.0888L14.0386 38.9337ZM14.0386 38.9337C13.2016 40.6521 12.1967 42.1523 11.0437 43.7866M14.0386 38.9337L11.0437 43.7866M11.0437 43.7866C10.8539 44.0556 10.6595 44.3291 10.4614 44.6077M11.0437 43.7866L10.4614 44.6077M10.4614 44.6077C9.47218 45.9991 8.39042 47.5207 7.32221 49.2805L10.4614 44.6077Z" fill="#FFECF5" stroke="#FFECF5" stroke-width="4"/>
<g clip-path="url(#clip0_16414_36339)">
<path d="M79.2549 28.6924C75.8816 28.6924 73.1216 31.4234 73.1216 34.7613C73.1216 38.0993 75.8816 40.8303 79.2549 40.8303C82.6282 40.8303 85.3882 38.0993 85.3882 34.7613C85.3882 31.4234 82.6282 28.6924 79.2549 28.6924ZM81.5549 34.0786C81.4016 34.1545 81.2482 34.2303 81.0949 34.2303C80.8649 34.2303 80.6349 34.0786 80.4816 33.9269C80.1749 33.5476 79.7149 33.2441 79.2549 33.2441C78.7949 33.2441 78.4882 32.9407 78.4882 32.4855C78.4882 32.0303 78.7949 31.7269 79.2549 31.7269C80.2516 31.7269 81.1716 32.182 81.7849 33.0165C82.0149 33.3958 81.9382 33.851 81.5549 34.0786Z" fill="#FFECF5"/>
<path d="M69.2882 28.6917C67.1415 28.6917 65.4548 27.0227 65.4548 24.8986C65.4548 22.7744 67.1415 21.1055 69.2882 21.1055C71.4348 21.1055 73.1215 22.7744 73.1215 24.8986C73.1215 27.0227 71.4348 28.6917 69.2882 28.6917Z" fill="#FFECF5"/>
<path d="M66.6048 37.7954C64.6881 37.7954 63.1548 36.2781 63.1548 34.3816C63.1548 32.485 64.6881 30.9678 66.6048 30.9678C68.5215 30.9678 70.0548 32.485 70.0548 34.3816C70.0548 36.2781 68.5215 37.7954 66.6048 37.7954Z" fill="#FFECF5"/>
<path d="M76.9549 23.382C76.4949 23.382 76.1882 23.0785 76.1882 22.6233V20.3475C76.1882 19.8923 76.4949 19.5889 76.9549 19.5889C77.4149 19.5889 77.7216 19.8923 77.7216 20.3475V22.6233C77.7216 23.0785 77.4149 23.382 76.9549 23.382Z" fill="#FFECF5"/>
<path d="M82.3215 26.4167H80.0215C79.5615 26.4167 79.2549 26.1132 79.2549 25.658C79.2549 25.2029 79.5615 24.8994 80.0215 24.8994H82.3215C82.7815 24.8994 83.0882 25.2029 83.0882 25.658C83.0882 26.1132 82.7815 26.4167 82.3215 26.4167Z" fill="#FFECF5"/>
<path d="M79.1016 24.292C78.8716 24.292 78.7183 24.2161 78.565 24.0644C78.2583 23.761 78.2583 23.3058 78.565 23.0023L80.175 21.4092C80.4816 21.1058 80.9416 21.1058 81.2483 21.4092C81.555 21.7127 81.555 22.1678 81.2483 22.4713L79.6383 24.0644C79.485 24.2161 79.3316 24.292 79.1016 24.292Z" fill="#FFECF5"/>
</g>
<g clip-path="url(#clip1_16414_36339)">
<path d="M64.2327 57.3525H25.8006C25.3602 57.3525 25 57.6825 25 58.0858V61.0853C25 61.4886 25.3602 61.8186 25.8006 61.8186H64.2327C64.6811 61.8186 65.0333 61.4886 65.0333 61.0853V58.0861C65.0333 57.6825 64.6811 57.3525 64.2327 57.3525V57.3525Z" fill="#FF008A"/>
<path d="M44.2162 25.1523H29.075C28.6266 25.1523 28.2744 25.4749 28.2744 25.8856V40.5227H44.216L44.2162 25.1523ZM41.9262 34.8685C39.9484 34.8685 38.5155 36.1812 38.5155 37.9927C38.5155 38.396 38.1552 38.726 37.7149 38.726C37.2746 38.726 36.9144 38.396 36.9144 37.9927C36.9144 36.1812 35.4811 34.8685 33.5033 34.8685C33.063 34.8685 32.7028 34.5386 32.7028 34.1353C32.7028 33.732 33.063 33.4021 33.5033 33.4021C35.4811 33.4021 36.9144 32.0894 36.9144 30.2779C36.9144 29.8746 37.2746 29.5447 37.7149 29.5447C38.1552 29.5447 38.5155 29.8746 38.5155 30.2779C38.5155 32.0894 39.9487 33.4021 41.9262 33.4021C42.3665 33.4021 42.7267 33.732 42.7267 34.1353C42.7267 34.5386 42.3665 34.8685 41.9262 34.8685Z" fill="#FF008A"/>
<path d="M61.7664 25.8856C61.7664 25.4749 61.4062 25.1523 60.9658 25.1523H45.8203V40.5194H61.7671L61.7664 25.8856Z" fill="#FF008A"/>
<path d="M28.2747 41.9893H44.2163V55.8863H28.2747V41.9893Z" fill="#FF008A"/>
<path d="M61.7662 41.9893H45.8169V55.8863H61.7662V41.9893ZM58.2513 49.1024C56.2735 49.1024 54.8403 50.4151 54.8403 52.2263C54.8403 52.6296 54.4801 52.9595 54.0397 52.9595C53.5994 52.9595 53.2392 52.6296 53.2392 52.2263C53.2392 50.4148 51.806 49.1024 49.8285 49.1024C49.3882 49.1024 49.028 48.7725 49.028 48.3692C49.028 47.9659 49.3882 47.636 49.8285 47.636C51.8063 47.636 53.2392 46.3233 53.2392 44.5118C53.2392 44.1085 53.5994 43.7786 54.0397 43.7786C54.4801 43.7786 54.8403 44.1085 54.8403 44.5118C54.8403 46.3233 56.2735 47.636 58.2513 47.636C58.6917 47.636 59.0519 47.9659 59.0519 48.3692C59.0519 48.7725 58.6917 49.1024 58.2513 49.1024Z" fill="#FF008A"/>
</g>
<defs>
<clipPath id="clip0_16414_36339">
<rect width="23" height="22" fill="white" transform="translate(62.6875 19.1523)"/>
</clipPath>
<clipPath id="clip1_16414_36339">
<rect width="40" height="40" fill="white" transform="translate(25 23.1523)"/>
</clipPath>
</defs>
</svg>
