<svg width="16" height="16" viewBox="0 0 16 16" fill="none" xmlns="http://www.w3.org/2000/svg">
<path d="M9.623 4.7588C9.53802 4.7588 9.45258 4.72608 9.38714 4.66114L8.0224 3.2959C7.89227 3.16552 7.89227 2.9546 8.0224 2.82472C8.15253 2.69384 8.36373 2.69384 8.49386 2.82472L9.85882 4.18943C9.9887 4.31981 9.9887 4.53076 9.85882 4.66114C9.79388 4.72608 9.70844 4.7588 9.623 4.7588Z" fill="#242B3A"/>
<path d="M10.9199 1.45068C10.6519 1.13133 10.1303 0.776843 9.52538 0.503395C9.01758 0.273417 8.22777 0 7.34764 0C6.59692 0 5.90502 0.262198 5.39891 0.73731C4.87792 1.22705 4.59106 1.91161 4.59106 2.66504V2.99852H5.92455V5.33202H8.59131V3.3076L10.998 2.57907V1.54344L10.9199 1.45068Z" fill="#7879B6"/>
<path d="M9.9248 0.702148V2.9043L10.9981 2.5791V1.54343L10.9199 1.45065C10.7129 1.20407 10.3555 0.937001 9.9248 0.702148Z" fill="#FF008A"/>
<path d="M8.59123 3.99902H5.92456V5.66596H8.59123V3.99902Z" fill="#D8D9EA"/>
<path d="M8.95106 7.43112L8.92469 4.99461C8.92275 4.81201 8.7738 4.66504 8.5912 4.66504H6.25793H5.92444C5.8241 4.66504 5.72962 4.70998 5.66612 4.78711C4.68736 5.98681 4.48817 8.19674 4.41613 11.3559C4.36338 13.6753 4.59095 15.6841 4.59314 15.7041C4.61242 15.8726 4.75499 15.9995 4.92419 15.9995H11.2582C11.4423 15.9995 11.5917 15.8501 11.5917 15.6665V10.6655C11.5917 8.9834 9.58677 7.77294 8.95106 7.43112Z" fill="#FF008A"/>
<path opacity="0.2" d="M8.95119 7.43112L8.92481 4.99461C8.92287 4.81201 8.77393 4.66504 8.59133 4.66504H7.9248C8.10744 4.66504 8.25613 4.81201 8.25807 4.99461L8.28469 7.43112C8.92044 7.77294 10.9248 8.9834 10.9248 10.6655V15.6665C10.9248 15.8501 10.7759 15.9995 10.5913 15.9995H11.2583C11.4424 15.9995 11.5918 15.8501 11.5918 15.6665V10.6655C11.5918 8.9834 9.5869 7.77294 8.95119 7.43112Z" fill="white"/>
<path d="M5.21974 10.9986C5.40381 10.9986 5.553 10.8496 5.553 10.6655C5.553 10.4815 5.40384 10.332 5.21974 10.332H4.44605C4.43799 10.5489 4.43114 10.7715 4.42505 10.9986H5.21974Z" fill="#242B3A"/>
<path d="M5.51249 11.999C5.51249 11.8154 5.36333 11.666 5.17923 11.666H4.41092C4.40823 11.8926 4.40773 12.1153 4.40945 12.333H5.17923C5.36333 12.333 5.51249 12.1836 5.51249 11.999Z" fill="#242B3A"/>
<path d="M5.23269 9.66552C5.41651 9.66552 5.5657 9.51657 5.5657 9.3325C5.5657 9.14844 5.41654 8.99902 5.23269 8.99902H4.51588C4.5005 9.21484 4.48682 9.43701 4.4751 9.66552H5.23269Z" fill="#242B3A"/>
<path d="M5.40624 8.33203C5.59034 8.33203 5.73972 8.18262 5.73972 7.99855C5.73972 7.81398 5.59031 7.66504 5.40624 7.66504H4.65136C4.62158 7.87892 4.59545 8.10106 4.57227 8.33203H5.40624Z" fill="#242B3A"/>
</svg>
