<svg width="57" height="54" viewBox="0 0 57 54" fill="none" xmlns="http://www.w3.org/2000/svg">
<path d="M7.5 38.2257H15C16.9231 38.2257 18.5082 39.6733 18.7248 41.5384L18.75 41.9757V49.4757C18.75 51.3989 17.3023 52.9839 15.4373 53.2005L15 53.2257H7.5C5.57688 53.2257 3.99185 51.7781 3.77523 49.9131L3.75 49.4757V41.9757C3.75 40.0526 5.19767 38.4676 7.06267 38.251L7.5 38.2257H15H7.5ZM52.5 41.9757C54.5711 41.9757 56.25 43.6546 56.25 45.7257C56.25 47.7969 54.5711 49.4757 52.5 49.4757H30C27.9289 49.4757 26.25 47.7969 26.25 45.7257C26.25 43.6546 27.9289 41.9757 30 41.9757H52.5ZM15 41.9757H7.5V49.4757H15V41.9757ZM15 19.4757C17.0711 19.4757 18.75 21.1547 18.75 23.2257V30.7257C18.75 32.7968 17.0711 34.4757 15 34.4757H7.5C5.42895 34.4757 3.75 32.7968 3.75 30.7257V23.2257C3.75 21.1547 5.42895 19.4757 7.5 19.4757H15ZM52.5 23.2257C54.5711 23.2257 56.25 24.9047 56.25 26.9757C56.25 28.8989 54.8024 30.4839 52.9373 30.7005L52.5 30.7257H30C27.9289 30.7257 26.25 29.0468 26.25 26.9757C26.25 25.0526 27.6977 23.4676 29.5627 23.251L30 23.2257H52.5ZM15 23.2257H7.5V30.7257H15V23.2257ZM17.905 1.57376C18.9035 2.57225 18.9942 4.13476 18.1773 5.2358L17.905 5.55124L8.55124 14.905C8.0238 15.4324 7.30841 15.7287 6.5625 15.7287C5.96577 15.7287 5.38858 15.5391 4.91152 15.1932L4.57376 14.905L0.823762 11.155C-0.274587 10.0566 -0.274587 8.27588 0.823762 7.1775C1.82226 6.17901 3.38475 6.08824 4.48579 6.90519L4.80124 7.1775L6.5625 8.93876L13.9275 1.57376C15.0258 0.475414 16.8066 0.47541 17.905 1.57376ZM52.5 4.47574C54.5711 4.47574 56.25 6.15469 56.25 8.22574C56.25 10.1489 54.8024 11.7339 52.9373 11.9505L52.5 11.9757H30C27.9289 11.9757 26.25 10.2968 26.25 8.22574C26.25 6.30262 27.6977 4.71759 29.5627 4.50097L30 4.47574H52.5Z" fill="white"/>
</svg>
