<svg width="60" height="61" viewBox="0 0 60 61" fill="none" xmlns="http://www.w3.org/2000/svg">
<path d="M17.2417 17.3072H23.6137C24.0113 17.3072 24.3927 17.1697 24.6739 16.9248C24.955 16.68 25.113 16.348 25.113 16.0017C25.113 15.6555 24.955 15.3235 24.6739 15.0786C24.3927 14.8338 24.0113 14.6963 23.6137 14.6963H17.2417C16.8441 14.6963 16.4627 14.8338 16.1816 15.0786C15.9004 15.3235 15.7424 15.6555 15.7424 16.0017C15.7424 16.348 15.9004 16.68 16.1816 16.9248C16.4627 17.1697 16.8441 17.3072 17.2417 17.3072Z" fill="white"/>
<path d="M40.1059 47.9863H35.8479C35.4503 47.9863 35.0689 48.1239 34.7878 48.3687C34.5066 48.6135 34.3486 48.9456 34.3486 49.2918C34.3486 49.638 34.5066 49.9701 34.7878 50.2149C35.0689 50.4597 35.4503 50.5972 35.8479 50.5972H40.1059C40.5035 50.5972 40.8849 50.4597 41.1661 50.2149C41.4472 49.9701 41.6052 49.638 41.6052 49.2918C41.6052 48.9456 41.4472 48.6135 41.1661 48.3687C40.8849 48.1239 40.5035 47.9863 40.1059 47.9863Z" fill="white"/>
<path d="M29.0561 47.9863H17.2417C16.8441 47.9863 16.4627 48.1239 16.1816 48.3687C15.9004 48.6135 15.7424 48.9456 15.7424 49.2918C15.7424 49.638 15.9004 49.9701 16.1816 50.2149C16.4627 50.4597 16.8441 50.5972 17.2417 50.5972H29.0561C29.4538 50.5972 29.8351 50.4597 30.1163 50.2149C30.3974 49.9701 30.5554 49.638 30.5554 49.2918C30.5554 48.9456 30.3974 48.6135 30.1163 48.3687C29.8351 48.1239 29.4538 47.9863 29.0561 47.9863Z" fill="white"/>
<path d="M58.6972 48.6517L54.964 45.4142V10.3626C54.964 9.7129 54.817 9.06952 54.5314 8.46924C54.2458 7.86896 53.8273 7.32353 53.2996 6.86409C52.772 6.40466 52.1456 6.04022 51.4562 5.79157C50.7668 5.54293 50.0279 5.41495 49.2816 5.41495H12.744V2.29491C12.744 1.94868 12.586 1.61663 12.3048 1.37181C12.0237 1.12699 11.6423 0.98945 11.2447 0.98945H5.83224C4.33229 0.961149 2.87977 1.4478 1.78848 2.34426C0.697203 3.24072 0.054777 4.47501 0 5.78048V56.0406C0 57.3528 0.59867 58.6113 1.66431 59.5391C2.72995 60.467 4.17527 60.9883 5.68231 60.9883H49.2816C50.7887 60.9883 52.234 60.467 53.2996 59.5391C54.3653 58.6113 54.964 57.3528 54.964 56.0406V55.2443C55.8911 55.3416 56.83 55.1852 57.6504 54.7968C58.4708 54.4085 59.1321 53.8074 59.5425 53.077C59.9528 52.3466 60.0919 51.5231 59.9404 50.7208C59.789 49.9185 59.3545 49.1771 58.6972 48.5995V48.6517ZM2.99858 5.78048C3.03737 5.15822 3.35692 4.5745 3.88764 4.1564C4.41836 3.7383 5.11728 3.51969 5.83224 3.54815H9.74538V51.1973H5.83224C4.84405 51.1955 3.87065 51.4062 2.99858 51.8109V5.78048ZM49.2816 58.4296H5.68231C5.33775 58.421 4.99851 58.3534 4.68395 58.2307C4.36938 58.108 4.08566 57.9325 3.84899 57.7143C3.61231 57.4961 3.42731 57.2394 3.30455 56.959C3.18179 56.6785 3.12367 56.3798 3.13352 56.0798C3.14336 55.7797 3.22097 55.4844 3.36192 55.2105C3.50287 54.9366 3.7044 54.6895 3.955 54.4835C4.2056 54.2774 4.50036 54.1163 4.82246 54.0094C5.14456 53.9025 5.48768 53.8519 5.83224 53.8605H11.2447C11.6423 53.8605 12.0237 53.7229 12.3048 53.4781C12.586 53.2333 12.744 52.9013 12.744 52.555V8.02587H49.2816C49.6341 8.02587 49.9831 8.08631 50.3087 8.20374C50.6343 8.32118 50.9301 8.4933 51.1793 8.71029C51.4285 8.92728 51.6262 9.18488 51.7611 9.46839C51.896 9.7519 51.9654 10.0558 51.9654 10.3626V42.8033L50.2112 41.2759C50.0718 41.1535 49.906 41.0564 49.7233 40.9901C49.5406 40.9238 49.3446 40.8897 49.1467 40.8897C48.9488 40.8897 48.7528 40.9238 48.5701 40.9901C48.3874 41.0564 48.2216 41.1535 48.0822 41.2759L47.0327 42.1897L44.6488 40.114C46.1227 38.6406 47.2357 36.9208 47.9197 35.0598C48.6037 33.1989 48.8444 31.236 48.627 29.2912C48.4095 27.3465 47.7386 25.4609 46.6552 23.7497C45.5718 22.0386 44.0987 20.538 42.3261 19.3398C40.5536 18.1415 38.5189 17.2709 36.3465 16.7811C34.1741 16.2913 31.9097 16.1927 29.692 16.4913C27.4743 16.7899 25.35 17.4794 23.449 18.5177C21.5479 19.5559 19.9103 20.921 18.6362 22.5295H17.2418C16.8442 22.5295 16.4628 22.667 16.1817 22.9119C15.9005 23.1567 15.7425 23.4887 15.7425 23.835C15.7348 24.1385 15.8488 24.435 16.065 24.6733C16.2812 24.9115 16.586 25.0767 16.927 25.1404C15.6603 27.5956 15.2163 30.3125 15.646 32.9779C16.0757 35.6433 17.3618 38.1488 19.3558 40.2054H17.2418C16.8442 40.2054 16.4628 40.3429 16.1817 40.5878C15.9005 40.8326 15.7425 41.1646 15.7425 41.5108C15.7425 41.8571 15.9005 42.1891 16.1817 42.4339C16.4628 42.6788 16.8442 42.8163 17.2418 42.8163H22.6543C25.6162 44.5672 29.1519 45.4313 32.7275 45.2782C36.3032 45.1251 39.7245 43.9632 42.4749 41.9678L44.8587 44.0434L43.8092 44.9703C43.53 45.2149 43.3733 45.5458 43.3733 45.8907C43.3733 46.2355 43.53 46.5664 43.8092 46.811L51.9204 53.8866V56.0928C51.9205 56.7058 51.6439 57.2943 51.1503 57.7315C50.6567 58.1686 49.9856 58.4193 49.2816 58.4296ZM18.4862 30.9366C18.4862 28.6129 19.2776 26.3413 20.7603 24.4092C22.243 22.4771 24.3504 20.9711 26.8161 20.0819C29.2817 19.1926 31.9948 18.9599 34.6123 19.4133C37.2298 19.8666 39.6341 20.9856 41.5213 22.6288C43.4084 24.2719 44.6935 26.3654 45.2142 28.6445C45.7348 30.9236 45.4676 33.286 44.4463 35.4328C43.425 37.5797 41.6955 39.4147 39.4765 40.7057C37.2575 41.9967 34.6486 42.6858 31.9798 42.6858C28.4011 42.6858 24.969 41.4479 22.4384 39.2445C19.9079 37.0411 18.4862 34.0527 18.4862 30.9366ZM56.5682 52.3461C56.2873 52.5893 55.9073 52.7258 55.5112 52.7258C55.1151 52.7258 54.7351 52.5893 54.4542 52.3461L46.9577 45.8189L49.0717 43.9782L56.4932 50.4402C56.6479 50.5578 56.7733 50.7018 56.8614 50.8633C56.9496 51.0248 56.9987 51.2003 57.0057 51.379C57.0127 51.5577 56.9775 51.7358 56.9023 51.9021C56.827 52.0685 56.7133 52.2196 56.5682 52.3461Z" fill="white"/>
<path d="M36.4778 36.5632C36.4778 36.2169 36.3199 35.8849 36.0387 35.6401C35.7575 35.3952 35.3762 35.2577 34.9785 35.2577H33.4792V27.5163H35.9831V27.9733C35.9831 28.3195 36.141 28.6515 36.4222 28.8964C36.7034 29.1412 37.0847 29.2787 37.4823 29.2787C37.88 29.2787 38.2613 29.1412 38.5425 28.8964C38.8237 28.6515 38.9816 28.3195 38.9816 27.9733V26.2762C38.9816 25.9299 38.8237 25.5979 38.5425 25.3531C38.2613 25.1082 37.88 24.9707 37.4823 24.9707H26.4776C26.0799 24.9707 25.6986 25.1082 25.4174 25.3531C25.1362 25.5979 24.9783 25.9299 24.9783 26.2762V27.9733C24.9783 28.3195 25.1362 28.6515 25.4174 28.8964C25.6986 29.1412 26.0799 29.2787 26.4776 29.2787C26.8752 29.2787 27.2565 29.1412 27.5377 28.8964C27.8189 28.6515 27.9769 28.3195 27.9769 27.9733V27.5816H30.4807V35.323H29.0563C28.8594 35.323 28.6645 35.3567 28.4826 35.4224C28.3007 35.488 28.1354 35.5841 27.9962 35.7053C27.857 35.8266 27.7465 35.9705 27.6712 36.1289C27.5958 36.2872 27.557 36.457 27.557 36.6284C27.557 36.7999 27.5958 36.9696 27.6712 37.128C27.7465 37.2864 27.857 37.4303 27.9962 37.5515C28.1354 37.6728 28.3007 37.7689 28.4826 37.8345C28.6645 37.9001 28.8594 37.9339 29.0563 37.9339H34.9785C35.1819 37.9341 35.3832 37.8983 35.5701 37.8287C35.7571 37.759 35.9258 37.657 36.0661 37.5288C36.2063 37.4005 36.3152 37.2488 36.386 37.0828C36.4567 36.9168 36.488 36.74 36.4778 36.5632Z" fill="white"/>
</svg>
