<svg width="60" height="61" viewBox="0 0 60 61" fill="none" xmlns="http://www.w3.org/2000/svg">
<path d="M29.396 48.5285C29.7214 48.5285 30.0344 48.3852 30.2597 48.1375C30.8855 47.4598 45.618 31.2348 45.618 18.4765C45.618 8.83273 38.3457 0.987305 29.396 0.987305C20.4464 0.987305 13.1741 8.83261 13.1741 18.4765C13.1741 31.3001 27.9065 47.46 28.5324 48.1506C28.7577 48.3852 29.0706 48.5285 29.396 48.5285ZM29.396 3.48947C37.0188 3.48947 43.2147 10.2141 43.2147 18.4765C43.2147 28.5503 32.5503 41.7519 29.396 45.4269C26.2418 41.7519 15.5773 28.6155 15.5773 18.4765C15.5773 10.2141 21.7732 3.48947 29.396 3.48947Z" fill="white"/>
<path d="M37.2066 19.1281C37.2066 14.6321 33.7144 10.9961 29.396 10.9961C25.0777 10.9961 21.5854 14.6321 21.5854 19.1281C21.5854 23.6242 25.0777 27.2602 29.396 27.2602C33.7019 27.2602 37.2066 23.6112 37.2066 19.1281ZM23.9887 19.1281C23.9887 16.0135 26.4045 13.4983 29.396 13.4983C32.3875 13.4983 34.8033 16.0135 34.8033 19.1281C34.8033 22.2428 32.3875 24.758 29.396 24.758C26.4045 24.758 23.9887 22.2428 23.9887 19.1281Z" fill="white"/>
<path d="M59.8873 59.2022L51.476 40.4619C51.2757 40.0188 50.8502 39.7451 50.387 39.7451H39.6475C39.0091 39.7451 38.4584 40.2403 38.4083 40.9049C38.3707 41.6217 38.909 42.2211 39.5974 42.2211H49.661L56.9708 58.5113H49.1852C48.8598 55.5008 46.8195 53.4027 43.102 52.2689C39.5848 51.2002 34.7407 50.9527 29.6087 50.7051C27.7312 50.6138 25.7911 50.5096 23.8259 50.3792C21.3601 50.1968 18.1807 49.5451 17.1293 47.421C16.2281 45.6095 17.0667 43.3028 17.5549 42.2211H19.132C19.7704 42.2211 20.3211 41.726 20.3712 41.0613C20.4088 40.3445 19.8705 39.7451 19.1821 39.7451H8.28008C7.79192 39.7451 7.34131 40.0579 7.16612 40.5401L0.0814496 59.2804C-0.156411 59.919 0.143995 60.6487 0.757364 60.8964C0.895012 60.9486 1.04521 60.9876 1.19542 60.9876H58.7984C59.4617 60.9876 60 60.4272 60 59.7366C60 59.554 59.9624 59.3716 59.8873 59.2022ZM2.8852 58.5115L9.04354 42.2213H14.9766C14.4008 43.8764 13.9126 46.3395 15.0141 48.5549C16.2783 51.0961 19.1948 52.5427 23.6884 52.8686C25.666 53.0119 27.6186 53.1031 29.5213 53.1944C34.503 53.442 39.2094 53.6766 42.4513 54.667C45.1174 55.4749 46.4567 56.674 46.7697 58.5115H2.8852Z" fill="white"/>
</svg>
