<svg width="287" height="184" viewBox="0 0 287 184" fill="none" xmlns="http://www.w3.org/2000/svg">
<g filter="url(#filter0_d_15418_12234)">
<path d="M54.6931 39.6329C53.758 34.1897 57.4125 29.0192 62.8556 28.0841L216.479 1.69307C221.922 0.75799 227.093 4.41248 228.028 9.85559L232.091 33.5091C233.026 38.9522 229.372 44.1228 223.929 45.0578L70.3053 71.4489C64.8622 72.384 59.6916 68.7295 58.7566 63.2864L54.6931 39.6329Z" fill="white" shape-rendering="crispEdges"/>
<g clip-path="url(#clip0_15418_12234)">
<path d="M75.2948 41.0349C74.9828 40.809 74.6289 40.6477 74.2538 40.5605C73.8786 40.4734 73.4898 40.462 73.1103 40.5272C72.7307 40.5925 72.368 40.7329 72.0434 40.9403C71.7189 41.1476 71.4391 41.4178 71.2204 41.7348L70.7154 42.4689L69.8364 42.6088C69.456 42.6695 69.0915 42.8057 68.7644 43.0094C68.4374 43.213 68.1543 43.48 67.932 43.7946C67.7096 44.1092 67.5524 44.4651 67.4696 44.8414C67.3867 45.2177 67.38 45.6067 67.4497 45.9856L67.6103 46.8611L67.0887 47.5818C66.8628 47.8937 66.7016 48.2476 66.6144 48.6228C66.5272 48.9979 66.5159 49.3867 66.5811 49.7663C66.6463 50.1459 66.7867 50.5086 66.9941 50.8331C67.2015 51.1577 67.4716 51.4375 67.7887 51.6561L68.5218 52.1613L68.6616 53.0403C68.7224 53.4208 68.8586 53.7852 69.0622 54.1123C69.2658 54.4393 69.5328 54.7224 69.8475 54.9448C70.1621 55.1671 70.518 55.3244 70.8943 55.4072C71.2705 55.49 71.6596 55.4967 72.0385 55.427L72.9139 55.2665L73.6346 55.788C73.9466 56.0139 74.3005 56.1752 74.6756 56.2624C75.0508 56.3495 75.4396 56.3609 75.8191 56.2956C76.1987 56.2304 76.5614 56.09 76.886 55.8826C77.2105 55.6753 77.4903 55.4051 77.709 55.0881L78.2141 54.3549L79.0931 54.2151C79.4736 54.1544 79.8381 54.0182 80.1651 53.8145C80.4922 53.6109 80.7752 53.3439 80.9976 53.0293C81.22 52.7146 81.3772 52.3587 81.46 51.9825C81.5428 51.6062 81.5496 51.2172 81.4799 50.8382L81.3193 49.9628L81.8408 49.2421C82.0667 48.9302 82.228 48.5762 82.3152 48.2011C82.4024 47.826 82.4137 47.4372 82.3485 47.0576C82.2833 46.678 82.1429 46.3153 81.9355 45.9908C81.7281 45.6662 81.458 45.3864 81.1409 45.1678L80.4078 44.6626L80.2679 43.7836C80.2072 43.4031 80.071 43.0387 79.8674 42.7116C79.6637 42.3845 79.3967 42.1015 79.0821 41.8791C78.7675 41.6567 78.4116 41.4995 78.0353 41.4167C77.659 41.3339 77.27 41.3271 76.8911 41.3969L76.0156 41.5574L75.2949 41.0359L75.2948 41.0349ZM76.5908 46.8839L74.142 50.3485C74.1041 50.4023 74.056 50.4481 74.0004 50.4832C73.9448 50.5183 73.8828 50.5421 73.818 50.5533C73.7532 50.5644 73.6868 50.5626 73.6227 50.5481C73.5585 50.5335 73.4979 50.5064 73.4442 50.4684L71.7119 49.244C71.6582 49.2061 71.6126 49.1579 71.5775 49.1023C71.5424 49.0467 71.5186 48.9848 71.5075 48.92C71.4963 48.8552 71.4981 48.7888 71.5126 48.7247C71.5271 48.6606 71.5541 48.6 71.5921 48.5463C71.63 48.4926 71.6781 48.4469 71.7338 48.4118C71.7894 48.3767 71.8513 48.3529 71.9161 48.3418C71.9809 48.3307 72.0473 48.3324 72.1114 48.3469C72.1755 48.3614 72.2361 48.3884 72.2898 48.4264L73.6135 49.3628L75.7731 46.306C75.8498 46.1976 75.9663 46.1241 76.0972 46.1016C76.228 46.0791 76.3625 46.1095 76.4709 46.1862C76.5793 46.2628 76.6529 46.3794 76.6754 46.5102C76.6978 46.6411 76.6674 46.7755 76.5908 46.8839Z" fill="#03C95A"/>
</g>
<path d="M91.3974 49.708C90.7666 49.8164 90.2175 49.8093 89.75 49.6866C89.2903 49.5627 88.9151 49.339 88.6241 49.0156C88.341 48.6908 88.1575 48.284 88.0735 47.7952L88.0471 47.6414L89.2889 47.4281L89.3194 47.6055C89.3952 48.047 89.5915 48.3624 89.9081 48.5515C90.2325 48.7393 90.6471 48.7898 91.1517 48.7031C91.6405 48.6191 92.0118 48.4417 92.2656 48.1708C92.5273 47.8986 92.6162 47.5181 92.5322 47.0292C92.4713 46.6744 92.3457 46.4159 92.1555 46.2538C91.9639 46.0838 91.7313 45.9817 91.4576 45.9476C91.1838 45.9134 90.9011 45.9214 90.6094 45.9715L89.8406 46.1036L89.6659 45.0865L90.4701 44.9483C90.7382 44.9023 90.9752 44.8169 91.181 44.6923C91.3934 44.5584 91.5497 44.3813 91.6499 44.1612C91.7566 43.9318 91.7828 43.6594 91.7287 43.3441C91.6786 43.0523 91.5748 42.8266 91.4175 42.667C91.2681 42.5059 91.0795 42.4003 90.8517 42.3502C90.6226 42.2921 90.3779 42.2855 90.1177 42.3302C89.8418 42.3776 89.5983 42.4722 89.3872 42.614C89.1827 42.7465 89.0337 42.9182 88.94 43.1291C88.8464 43.34 88.8246 43.5913 88.8747 43.883L88.9052 44.0605L87.6516 44.2758L87.6089 44.0275C87.5317 43.578 87.5783 43.1642 87.7487 42.7859C87.927 42.4062 88.2016 42.0911 88.5726 41.8407C88.9501 41.5811 89.399 41.4065 89.9194 41.3171C90.4476 41.2264 90.9277 41.2332 91.3596 41.3376C91.7981 41.4327 92.1561 41.6269 92.4338 41.9201C92.7179 42.2041 92.9007 42.5826 92.9819 43.0557C93.0388 43.3869 93.0285 43.6809 92.9508 43.9377C92.8732 44.1946 92.7454 44.4194 92.5675 44.6124C92.3975 44.8039 92.1998 44.9759 91.9743 45.1282L91.9824 45.1755C92.4299 45.2286 92.8239 45.3963 93.1647 45.6786C93.5133 45.9597 93.7336 46.3683 93.8257 46.9044C93.9084 47.3854 93.8573 47.8203 93.6724 48.2092C93.4955 48.5968 93.2104 48.9217 92.8172 49.1841C92.4225 49.4386 91.9493 49.6132 91.3974 49.708ZM98.1764 48.5435C97.7428 48.618 97.3377 48.6226 96.9612 48.5574C96.5913 48.483 96.257 48.3091 95.9584 48.0357C95.6677 47.7609 95.4093 47.367 95.1831 46.8539C94.9635 46.3315 94.7826 45.6564 94.6404 44.8285C94.4982 44.0006 94.4441 43.3078 94.4781 42.75C94.5187 42.1829 94.6302 41.7214 94.8125 41.3654C95.0028 41.008 95.2605 40.7364 95.5858 40.5507C95.9175 40.3557 96.3002 40.221 96.7339 40.1465C97.1754 40.0706 97.5812 40.0699 97.9511 40.1443C98.3197 40.2109 98.6493 40.3816 98.9401 40.6563C99.2387 40.9297 99.4978 41.3276 99.7174 41.8499C99.9435 42.363 100.128 43.0335 100.27 43.8614C100.412 44.6893 100.463 45.3868 100.422 45.9538C100.388 46.5116 100.276 46.9692 100.086 47.3266C99.9036 47.6826 99.6505 47.9574 99.3266 48.1511C99.0013 48.3368 98.6179 48.4676 98.1764 48.5435ZM98.0017 47.5264C98.4196 47.4546 98.7167 47.294 98.893 47.0445C99.0758 46.7858 99.174 46.4361 99.1876 45.9955C99.2012 45.5548 99.1538 45.0191 99.0455 44.3883L98.9459 43.8088C98.8348 43.1623 98.6994 42.6336 98.5395 42.2227C98.3783 41.804 98.169 41.5071 97.9116 41.3322C97.6608 41.148 97.3265 41.0918 96.9086 41.1636C96.4986 41.234 96.2022 41.3986 96.0194 41.6573C95.8352 41.9081 95.7363 42.2538 95.7227 42.6945C95.7091 43.1351 95.7572 43.6748 95.8669 44.3134L95.9664 44.8929C96.0748 45.5237 96.2096 46.0484 96.3708 46.4672C96.532 46.8859 96.742 47.1867 97.0007 47.3696C97.258 47.5445 97.5917 47.5968 98.0017 47.5264ZM104.968 47.3768C104.534 47.4513 104.129 47.456 103.752 47.3908C103.382 47.3163 103.048 47.1424 102.75 46.869C102.459 46.5943 102.2 46.2003 101.974 45.6872C101.755 45.1648 101.574 44.4897 101.432 43.6619C101.289 42.834 101.235 42.1411 101.269 41.5833C101.31 41.0163 101.421 40.5547 101.604 40.1987C101.794 39.8413 102.052 39.5698 102.377 39.384C102.709 39.1891 103.091 39.0543 103.525 38.9798C103.967 38.904 104.372 38.9033 104.742 38.9777C105.111 39.0442 105.44 39.2149 105.731 39.4896C106.03 39.763 106.289 40.1609 106.509 40.6833C106.735 41.1964 106.919 41.8669 107.061 42.6948C107.203 43.5226 107.254 44.2201 107.214 44.7872C107.179 45.345 107.067 45.8026 106.877 46.1599C106.695 46.5159 106.442 46.7908 106.118 46.9844C105.792 47.1702 105.409 47.301 104.968 47.3768ZM104.793 46.3597C105.211 46.2879 105.508 46.1273 105.684 45.8778C105.867 45.6192 105.965 45.2695 105.979 44.8288C105.992 44.3882 105.945 43.8524 105.837 43.2217L105.737 42.6422C105.626 41.9956 105.491 41.4669 105.331 41.0561C105.169 40.6373 104.96 40.3405 104.703 40.1655C104.452 39.9813 104.118 39.9251 103.7 39.9969C103.29 40.0673 102.993 40.2319 102.811 40.4906C102.626 40.7414 102.527 41.0871 102.514 41.5278C102.5 41.9685 102.548 42.5081 102.658 43.1468L102.758 43.7263C102.866 44.357 103.001 44.8818 103.162 45.3005C103.323 45.7193 103.533 46.0201 103.792 46.2029C104.049 46.3779 104.383 46.4301 104.793 46.3597ZM111.723 46.0701L110.33 37.957L114.635 37.2174C115.084 37.1402 115.492 37.1553 115.86 37.2626C116.226 37.362 116.529 37.5453 116.77 37.8124C117.019 38.0782 117.178 38.4121 117.247 38.8142C117.299 39.1217 117.288 39.4118 117.214 39.6844C117.146 39.9556 117.025 40.1956 116.85 40.4043C116.683 40.6116 116.48 40.7803 116.243 40.9104L116.251 40.9577C116.554 40.9707 116.834 41.0442 117.093 41.1784C117.358 41.3033 117.581 41.4923 117.762 41.7452C117.95 41.9889 118.077 42.3 118.142 42.6784C118.23 43.1909 118.188 43.6324 118.016 44.0028C117.852 44.3719 117.599 44.6671 117.255 44.8885C116.91 45.1019 116.501 45.2493 116.028 45.3306L111.723 46.0701ZM112.853 44.7072L115.727 44.2135C116.09 44.1512 116.369 44.0058 116.565 43.7773C116.768 43.5395 116.832 43.2038 116.757 42.7702C116.713 42.51 116.624 42.298 116.49 42.1343C116.363 41.9613 116.192 41.8444 115.979 41.7837C115.764 41.715 115.507 41.7065 115.208 41.7579L112.428 42.2354L112.853 44.7072ZM112.237 41.1237L114.91 40.6645C115.163 40.6212 115.371 40.5366 115.536 40.4108C115.701 40.2851 115.816 40.1273 115.881 39.9376C115.954 39.7466 115.972 39.5446 115.935 39.3317C115.869 38.9454 115.714 38.6798 115.47 38.535C115.232 38.381 114.944 38.3331 114.605 38.3914L111.849 38.8648L112.237 41.1237ZM122.536 44.3588C121.889 44.4699 121.321 44.4497 120.833 44.2982C120.351 44.1375 119.954 43.8364 119.643 43.3947C119.339 42.9517 119.124 42.3596 118.996 41.6184C118.868 40.8694 118.873 40.2394 119.013 39.7284C119.159 39.2082 119.433 38.7958 119.835 38.4913C120.244 38.1775 120.772 37.9651 121.418 37.8541C122.08 37.7403 122.653 37.7638 123.135 37.9244C123.616 38.0772 124.008 38.3752 124.311 38.8182C124.621 39.252 124.84 39.8434 124.969 40.5924C125.096 41.3336 125.087 41.9642 124.941 42.4845C124.803 43.0034 124.533 43.419 124.132 43.7314C123.73 44.0359 123.198 44.245 122.536 44.3588ZM122.361 43.3417C122.755 43.274 123.065 43.1435 123.292 42.9504C123.517 42.7493 123.662 42.481 123.726 42.1453C123.798 41.8082 123.793 41.3992 123.71 40.9183L123.673 40.7054C123.591 40.2244 123.459 39.8371 123.279 39.5434C123.107 39.2483 122.881 39.0476 122.603 38.9411C122.324 38.8268 121.987 38.8035 121.593 38.8712C121.206 38.9375 120.901 39.0712 120.675 39.2723C120.449 39.4654 120.3 39.7305 120.228 40.0676C120.164 40.4033 120.173 40.8116 120.255 41.2926L120.292 41.5054C120.375 41.9864 120.502 42.3744 120.675 42.6695C120.855 42.9632 121.085 43.1672 121.364 43.2816C121.642 43.388 121.974 43.4081 122.361 43.3417ZM129.431 43.1743C128.784 43.2853 128.216 43.2652 127.728 43.1137C127.246 42.953 126.849 42.6519 126.538 42.2102C126.234 41.7671 126.019 41.1751 125.892 40.4339C125.763 39.6849 125.768 39.0549 125.908 38.5439C126.054 38.0236 126.328 37.6113 126.73 37.3068C127.139 36.993 127.667 36.7806 128.313 36.6696C128.975 36.5558 129.548 36.5792 130.03 36.7399C130.511 36.8927 130.903 37.1906 131.206 37.6337C131.516 38.0675 131.735 38.6589 131.864 39.4079C131.991 40.149 131.982 40.7797 131.836 41.3C131.698 41.8188 131.428 42.2345 131.027 42.5469C130.625 42.8514 130.093 43.0605 129.431 43.1743ZM129.256 42.1572C129.65 42.0895 129.961 41.959 130.187 41.7659C130.412 41.5648 130.557 41.2965 130.621 40.9608C130.693 40.6237 130.688 40.2147 130.605 39.7338L130.569 39.5209C130.486 39.0399 130.354 38.6526 130.174 38.3589C130.002 38.0638 129.776 37.8631 129.498 37.7566C129.219 37.6423 128.882 37.6189 128.488 37.6867C128.102 37.753 127.796 37.8867 127.571 38.0878C127.344 38.2809 127.195 38.546 127.123 38.8831C127.059 39.2188 127.068 39.6271 127.151 40.1081L127.187 40.3209C127.27 40.8019 127.397 41.1899 127.57 41.485C127.75 41.7787 127.98 41.9827 128.259 42.097C128.537 42.2035 128.87 42.2235 129.256 42.1572ZM133.652 42.303L132.183 33.7522L133.413 33.5409L134.301 38.7092L136.262 35.4502L137.716 35.2003L136.026 37.9746L138.903 41.4009L137.484 41.6447L135.388 39.0096L134.553 40.1757L134.882 42.0917L133.652 42.303ZM138.647 33.9324L138.432 32.6788L139.662 32.4675L139.877 33.7211L138.647 33.9324ZM139.9 41.2296L138.832 35.0087L140.062 34.7974L141.13 41.0183L139.9 41.2296ZM142.719 40.7454L141.65 34.5246L142.667 34.3498L142.926 35.2186L143.009 35.2043C143.119 34.9499 143.264 34.7302 143.443 34.5452C143.623 34.3602 143.828 34.2073 144.058 34.0864C144.297 33.9642 144.566 33.8774 144.866 33.8259C145.26 33.7582 145.619 33.7696 145.943 33.86C146.266 33.9426 146.537 34.1234 146.755 34.4025C146.981 34.6802 147.139 35.0792 147.228 35.5996L147.958 39.8454L146.728 40.0567L146.031 36.0001C145.99 35.7636 145.925 35.5719 145.835 35.425C145.752 35.2768 145.648 35.1649 145.521 35.0892C145.395 35.0136 145.253 34.9689 145.097 34.9552C144.94 34.9415 144.771 34.9503 144.59 34.9814C144.306 35.0302 144.058 35.1458 143.846 35.3284C143.64 35.5017 143.487 35.7228 143.387 35.9916C143.287 36.2604 143.266 36.5603 143.323 36.8915L143.949 40.5341L142.719 40.7454ZM150.909 41.5544C150.625 41.6032 150.347 41.5901 150.074 41.5152C149.809 41.4389 149.583 41.3033 149.395 41.1082C149.208 40.9132 149.087 40.658 149.032 40.3426C148.973 39.9957 149.019 39.6995 149.172 39.4542C149.331 39.1995 149.531 38.9947 149.773 38.8396C149.569 38.7854 149.393 38.6856 149.246 38.5404C149.108 38.3938 149.02 38.214 148.983 38.0011C148.933 37.7094 148.999 37.4546 149.181 37.2367C149.362 37.0188 149.59 36.8578 149.865 36.7539C149.558 36.6199 149.302 36.4285 149.097 36.1797C148.899 35.9294 148.771 35.6309 148.711 35.284C148.64 34.8661 148.676 34.4904 148.822 34.1569C148.966 33.8156 149.217 33.525 149.573 33.2851C149.938 33.044 150.4 32.8753 150.96 32.7791C151.204 32.7371 151.436 32.7176 151.656 32.7204C151.882 32.714 152.087 32.7275 152.271 32.7607C152.523 32.5714 152.691 32.368 152.775 32.1506C152.859 31.9253 152.897 31.7239 152.891 31.5464L154.097 31.3391C154.142 31.5993 154.127 31.8453 154.053 32.0772C153.986 32.2998 153.87 32.4983 153.705 32.6727C153.547 32.8379 153.342 32.9704 153.092 33.0703C153.32 33.2178 153.502 33.4056 153.639 33.6338C153.782 33.8527 153.878 34.1041 153.927 34.388C153.997 34.798 153.964 35.173 153.828 35.513C153.692 35.853 153.445 36.1429 153.089 36.3827C152.74 36.6212 152.286 36.7885 151.726 36.8847L150.756 37.0513C150.567 37.0838 150.42 37.1496 150.315 37.2488C150.218 37.3466 150.183 37.4743 150.211 37.632C150.234 37.7661 150.308 37.867 150.433 37.9347C150.558 38.0025 150.712 38.0208 150.893 37.9896L153.518 37.5386C153.976 37.46 154.381 37.5488 154.733 37.8048C155.084 38.0529 155.3 38.4135 155.382 38.8866C155.441 39.2335 155.404 39.5606 155.27 39.8677C155.145 40.1813 154.935 40.4447 154.639 40.658C154.352 40.8777 153.999 41.0235 153.582 41.0953L150.909 41.5544ZM151.154 40.5747L153.413 40.1866C153.579 40.1582 153.723 40.1009 153.846 40.0148C153.97 39.9287 154.06 39.8198 154.119 39.688C154.179 39.564 154.197 39.4311 154.172 39.2892C154.132 39.0526 154.025 38.8802 153.852 38.7719C153.687 38.6623 153.498 38.6257 153.285 38.6623L150.896 39.0727C150.676 39.1106 150.503 39.2174 150.379 39.3929C150.254 39.5606 150.209 39.7508 150.246 39.9637C150.284 40.1845 150.385 40.3497 150.55 40.4593C150.724 40.5755 150.926 40.614 151.154 40.5747ZM151.526 36.0058C151.991 35.9259 152.321 35.7638 152.514 35.5195C152.706 35.2673 152.771 34.9599 152.709 34.5972C152.645 34.2267 152.482 33.9625 152.219 33.8046C151.956 33.6389 151.591 33.596 151.126 33.6759C150.661 33.7558 150.331 33.9179 150.138 34.1622C149.943 34.3986 149.878 34.7021 149.941 35.0727C149.982 35.3092 150.065 35.51 150.191 35.6751C150.323 35.8309 150.5 35.9386 150.721 35.998C150.95 36.056 151.219 36.0586 151.526 36.0058ZM162.406 37.5095C161.578 37.6517 160.847 37.6271 160.213 37.4356C159.586 37.2348 159.066 36.8494 158.651 36.2794C158.237 35.7093 157.947 34.9434 157.782 33.9815C157.538 32.5622 157.7 31.4507 158.268 30.647C158.843 29.8339 159.745 29.3218 160.975 29.1105C161.653 28.994 162.28 29.004 162.855 29.1405C163.439 29.2757 163.923 29.5456 164.309 29.9501C164.702 30.3453 164.958 30.8938 165.079 31.5955L163.731 31.8271C163.656 31.3935 163.503 31.0463 163.272 30.7858C163.04 30.5252 162.742 30.3491 162.377 30.2576C162.021 30.1647 161.621 30.1561 161.18 30.232C160.628 30.3268 160.178 30.5178 159.829 30.8049C159.487 31.0828 159.255 31.4555 159.133 31.923C159.018 32.3892 159.018 32.9573 159.133 33.6275L159.178 33.8877C159.293 34.5579 159.482 35.0935 159.746 35.4947C160.018 35.8945 160.361 36.1683 160.776 36.3162C161.19 36.4561 161.677 36.478 162.236 36.3819C162.694 36.3033 163.08 36.164 163.394 35.9638C163.708 35.7557 163.93 35.4903 164.061 35.1674C164.2 34.8432 164.232 34.4642 164.158 34.0306L165.459 33.8071C165.579 34.5088 165.521 35.1154 165.284 35.6269C165.056 36.137 164.688 36.5492 164.182 36.8634C163.684 37.1763 163.092 37.3916 162.406 37.5095ZM169.947 36.214C169.3 36.3251 168.732 36.3049 168.244 36.1535C167.762 35.9928 167.365 35.6916 167.054 35.2499C166.75 34.8069 166.535 34.2148 166.407 33.4737C166.279 32.7246 166.284 32.0946 166.424 31.5836C166.57 31.0634 166.844 30.651 167.246 30.3465C167.655 30.0328 168.183 29.8204 168.829 29.7093C169.491 29.5955 170.064 29.619 170.546 29.7797C171.027 29.9325 171.419 30.2304 171.722 30.6734C172.032 31.1072 172.251 31.6986 172.38 32.4477C172.507 33.1888 172.498 33.8195 172.352 34.3397C172.214 34.8586 171.944 35.2742 171.543 35.5866C171.141 35.8911 170.609 36.1003 169.947 36.214ZM169.772 35.1969C170.166 35.1292 170.476 34.9988 170.703 34.8056C170.928 34.6046 171.073 34.3362 171.137 34.0005C171.209 33.6635 171.204 33.2545 171.121 32.7735L171.084 32.5606C171.002 32.0797 170.87 31.6924 170.69 31.3986C170.518 31.1036 170.292 30.9028 170.014 30.7964C169.735 30.682 169.398 30.6587 169.004 30.7264C168.617 30.7928 168.312 30.9265 168.086 31.1275C167.86 31.3207 167.711 31.5858 167.639 31.9228C167.575 32.2585 167.584 32.6669 167.666 33.1478L167.703 33.3607C167.786 33.8416 167.913 34.2297 168.086 34.5247C168.266 34.8184 168.496 35.0225 168.775 35.1368C169.053 35.2433 169.385 35.2633 169.772 35.1969ZM174.168 35.3427L173.099 29.1218L174.116 28.9471L174.375 29.8158L174.458 29.8016C174.561 29.5486 174.69 29.3316 174.845 29.1506C175.009 28.9683 175.198 28.8181 175.413 28.7C175.636 28.5805 175.882 28.4977 176.15 28.4517C176.536 28.3853 176.885 28.4066 177.196 28.5155C177.515 28.6231 177.781 28.8493 177.994 29.1941L178.077 29.1799C178.181 28.9348 178.315 28.721 178.478 28.5387C178.64 28.3485 178.833 28.1937 179.056 28.0742C179.287 27.9534 179.54 27.8692 179.816 27.8218C180.187 27.7582 180.526 27.769 180.832 27.8543C181.138 27.9317 181.4 28.1099 181.618 28.3889C181.835 28.6601 181.987 29.048 182.074 29.5526L182.813 33.8575L181.583 34.0688L180.882 29.9886C180.842 29.7521 180.781 29.5636 180.7 29.4233C180.618 29.2751 180.522 29.1658 180.412 29.0953C180.302 29.0169 180.176 28.9695 180.035 28.9531C179.894 28.9367 179.745 28.9421 179.587 28.9692C179.327 29.0139 179.107 29.1248 178.926 29.3019C178.744 29.4712 178.611 29.6889 178.527 29.955C178.443 30.221 178.429 30.5197 178.486 30.8508L179.112 34.4935L177.882 34.7048L177.181 30.6245C177.14 30.388 177.079 30.1996 176.998 30.0592C176.916 29.911 176.82 29.8017 176.711 29.7312C176.6 29.6528 176.474 29.6055 176.333 29.5891C176.192 29.5727 176.047 29.5773 175.897 29.6031C175.637 29.6478 175.413 29.7594 175.224 29.9379C175.034 30.1085 174.897 30.3268 174.813 30.5929C174.729 30.859 174.715 31.1576 174.772 31.4888L175.398 35.1314L174.168 35.3427ZM184.695 35.6407L183.275 27.3738L184.28 27.2011L184.533 28.0344L184.615 28.0202C184.771 27.6524 185.001 27.3574 185.303 27.1349C185.606 26.9124 185.962 26.766 186.372 26.6955C186.885 26.6075 187.342 26.6467 187.744 26.813C188.154 26.978 188.499 27.284 188.778 27.7311C189.058 28.1782 189.264 28.7842 189.395 29.549C189.522 30.2901 189.525 30.9188 189.403 31.4349C189.287 31.9419 189.067 32.3408 188.744 32.6318C188.42 32.9227 188.022 33.1088 187.549 33.1901C187.273 33.2375 187.011 33.25 186.764 33.2276C186.517 33.2051 186.287 33.1431 186.075 33.0416C185.87 32.9387 185.683 32.7963 185.514 32.6143L185.443 32.6265L185.925 35.4294L184.695 35.6407ZM186.94 32.1988C187.311 32.1352 187.598 32.0127 187.803 31.8315C188.006 31.6425 188.132 31.3854 188.181 31.0603C188.239 30.7338 188.227 30.334 188.146 29.861L188.109 29.6481C188.024 29.1514 187.9 28.7587 187.737 28.4702C187.573 28.1817 187.365 27.9861 187.112 27.8834C186.867 27.7794 186.567 27.7579 186.212 27.8189C185.85 27.8812 185.568 28.0148 185.368 28.2196C185.166 28.4166 185.037 28.6822 184.981 29.0166C184.933 29.3496 184.947 29.7408 185.025 30.1902L185.053 30.3558C185.117 30.7263 185.207 31.0396 185.324 31.2955C185.441 31.5513 185.582 31.7545 185.745 31.9049C185.908 32.0475 186.09 32.1419 186.293 32.1883C186.496 32.2346 186.712 32.2381 186.94 32.1988ZM191.192 32.4181L189.723 23.8674L190.953 23.6561L192.422 32.2068L191.192 32.4181ZM196.613 31.633C195.974 31.7427 195.418 31.7205 194.945 31.5664C194.479 31.403 194.094 31.0998 193.791 30.6567C193.487 30.2137 193.272 29.6216 193.145 28.8805C193.016 28.1314 193.021 27.5014 193.161 26.9904C193.299 26.4716 193.565 26.0605 193.96 25.7574C194.353 25.4464 194.872 25.2353 195.519 25.1242C196.11 25.0227 196.623 25.0523 197.056 25.2133C197.496 25.3649 197.858 25.6518 198.142 26.0739C198.425 26.496 198.627 27.054 198.746 27.7478L198.827 28.2209L194.463 28.9706C194.555 29.4094 194.685 29.7685 194.855 30.0477C195.023 30.3192 195.238 30.5055 195.499 30.6068C195.766 30.6988 196.085 30.713 196.456 30.6494C196.685 30.6101 196.885 30.5473 197.057 30.4609C197.227 30.3667 197.366 30.2536 197.473 30.1215C197.579 29.9816 197.654 29.8267 197.698 29.6568C197.74 29.479 197.744 29.2876 197.709 29.0826L198.915 28.8754C198.979 29.246 198.972 29.584 198.895 29.8895C198.817 30.195 198.673 30.4674 198.463 30.7065C198.259 30.9363 198 31.1309 197.686 31.2903C197.373 31.4497 197.015 31.5639 196.613 31.633ZM194.332 28.0677L197.384 27.5435C197.331 27.236 197.251 26.9858 197.145 26.793C197.045 26.591 196.921 26.4338 196.772 26.3214C196.623 26.2091 196.457 26.1402 196.274 26.1148C196.089 26.0815 195.887 26.0838 195.666 26.1218C195.335 26.1786 195.061 26.2865 194.845 26.4454C194.637 26.603 194.491 26.8188 194.408 27.0927C194.324 27.3588 194.299 27.6838 194.332 28.0677ZM202.132 30.6848C201.778 30.7458 201.486 30.7268 201.258 30.628C201.037 30.5199 200.864 30.3669 200.741 30.1689C200.624 29.9617 200.545 29.7359 200.503 29.4915L199.83 25.5768L199.05 25.7109L198.875 24.6938L199.679 24.5557L199.605 22.7785L200.587 22.6099L200.886 24.3484L202.009 24.1554L202.184 25.1725L201.06 25.3655L201.708 29.1383C201.74 29.3196 201.803 29.4508 201.898 29.5319C201.993 29.6129 202.131 29.6379 202.313 29.6067L202.928 29.5011L203.07 30.329C202.996 30.3741 202.903 30.4186 202.788 30.4625C202.683 30.5131 202.573 30.5563 202.458 30.5924C202.343 30.6364 202.235 30.6672 202.132 30.6848ZM206.765 29.889C206.126 29.9987 205.57 29.9765 205.097 29.8223C204.631 29.6589 204.246 29.3557 203.943 28.9127C203.639 28.4697 203.424 27.8776 203.297 27.1364C203.168 26.3874 203.173 25.7574 203.313 25.2464C203.451 24.7275 203.717 24.3165 204.112 24.0134C204.505 23.7023 205.025 23.4913 205.671 23.3802C206.262 23.2786 206.775 23.3083 207.208 23.4692C207.648 23.6209 208.01 23.9078 208.294 24.3299C208.577 24.752 208.779 25.3099 208.898 26.0038L208.979 26.4768L204.615 27.2265C204.707 27.6654 204.837 28.0244 205.007 28.3037C205.175 28.5751 205.39 28.7615 205.651 28.8628C205.918 28.9548 206.237 28.969 206.608 28.9053C206.837 28.8661 207.037 28.8033 207.209 28.7169C207.379 28.6227 207.518 28.5095 207.625 28.3775C207.731 28.2375 207.806 28.0826 207.85 27.9128C207.892 27.735 207.896 27.5436 207.861 27.3386L209.067 27.1314C209.131 27.5019 209.124 27.84 209.047 28.1455C208.969 28.451 208.825 28.7233 208.615 28.9624C208.411 29.1923 208.152 29.3869 207.838 29.5463C207.525 29.7057 207.167 29.8199 206.765 29.889ZM204.484 26.3236L207.536 25.7995C207.483 25.492 207.403 25.2418 207.297 25.049C207.197 24.847 207.073 24.6898 206.924 24.5774C206.775 24.465 206.609 24.3962 206.426 24.3708C206.241 24.3375 206.039 24.3398 205.818 24.3777C205.487 24.4346 205.213 24.5425 204.997 24.7014C204.789 24.859 204.643 25.0747 204.56 25.3487C204.476 25.6148 204.451 25.9398 204.484 26.3236ZM212.876 28.8392C212.371 28.9259 211.914 28.8867 211.504 28.7217C211.094 28.5567 210.746 28.2514 210.458 27.8056C210.178 27.3585 209.973 26.7526 209.841 25.9878C209.713 25.2388 209.71 24.6101 209.834 24.1018C209.958 23.5935 210.181 23.1939 210.505 22.903C210.828 22.612 211.226 22.4259 211.699 22.3446C211.975 22.2972 212.237 22.2847 212.484 22.3072C212.732 22.3296 212.958 22.3923 213.162 22.4952C213.374 22.5967 213.561 22.7391 213.722 22.9224L213.805 22.9082L213.275 19.8214L214.505 19.6101L215.974 28.1609L214.968 28.3336L214.704 27.5024L214.621 27.5166C214.473 27.883 214.244 28.1781 213.933 28.4019C213.63 28.6243 213.278 28.7701 212.876 28.8392ZM213.036 27.7159C213.399 27.6535 213.677 27.5246 213.871 27.329C214.071 27.1241 214.2 26.8585 214.257 26.532C214.313 26.1977 214.303 25.8058 214.226 25.3564L214.197 25.1908C214.132 24.8123 214.041 24.4952 213.924 24.2393C213.807 23.9834 213.667 23.7842 213.505 23.6416C213.341 23.4912 213.158 23.3928 212.955 23.3465C212.752 23.3001 212.533 23.2973 212.296 23.3379C211.933 23.4002 211.651 23.5259 211.448 23.715C211.243 23.8962 211.112 24.15 211.055 24.4765C211.005 24.8016 211.022 25.2086 211.106 25.6974L211.143 25.9103C211.227 26.3991 211.351 26.7878 211.514 27.0764C211.676 27.357 211.879 27.5493 212.124 27.6533C212.377 27.756 212.681 27.7768 213.036 27.7159Z" fill="black"/>
<path d="M102.982 74.6963C102.212 76.0296 100.288 76.0296 99.5179 74.6963L92.5897 62.6963C91.8199 61.363 92.7822 59.6963 94.3218 59.6963H108.178C109.718 59.6963 110.68 61.363 109.91 62.6963L102.982 74.6963Z" fill="white"/>
</g>
<defs>
<filter id="filter0_d_15418_12234" x="-1" y="0" width="288.785" height="183.696" filterUnits="userSpaceOnUse" color-interpolation-filters="sRGB">
<feFlood flood-opacity="0" result="BackgroundImageFix"/>
<feColorMatrix in="SourceAlpha" type="matrix" values="0 0 0 0 0 0 0 0 0 0 0 0 0 0 0 0 0 0 127 0" result="hardAlpha"/>
<feOffset dy="54"/>
<feGaussianBlur stdDeviation="27"/>
<feComposite in2="hardAlpha" operator="out"/>
<feColorMatrix type="matrix" values="0 0 0 0 0.370833 0 0 0 0 0.370833 0 0 0 0 0.370833 0 0 0 0.25 0"/>
<feBlend mode="normal" in2="BackgroundImageFix" result="effect1_dropShadow_15418_12234"/>
<feBlend mode="normal" in="SourceGraphic" in2="effect1_dropShadow_15418_12234" result="shape"/>
</filter>
<clipPath id="clip0_15418_12234">
<rect width="16" height="16" fill="white" transform="translate(65.2266 41.882) rotate(-9.74772)"/>
</clipPath>
</defs>
</svg>
