<svg width="1600" height="374" viewBox="0 0 1600 374" fill="none" xmlns="http://www.w3.org/2000/svg">
<path fill-rule="evenodd" clip-rule="evenodd" d="M1894.84 35.9261C1807 13.0744 1578.94 -22.2761 1369.24 19.1188C1336.47 25.5889 1313.75 33.5295 1298.37 42.5029C1282.99 51.4815 1274.93 61.5101 1271.55 72.1501C1268.17 82.7774 1269.47 93.9336 1272.65 105.117C1274.94 113.191 1278.22 121.326 1281.44 129.312L1281.44 129.314C1282.67 132.377 1283.9 135.417 1285.06 138.423C1289.25 149.302 1292.55 159.744 1292.3 169.346C1292.05 178.905 1288.29 187.66 1278.25 195.199C1268.17 202.761 1251.78 209.106 1226.26 213.742C1200.75 218.376 1166.17 221.293 1119.78 222.034C980.073 224.266 884.278 204.75 803.21 188.235C776.612 182.816 751.599 177.72 727.14 173.821C677.638 165.93 630.422 162.949 576.981 172.149C523.544 181.349 463.911 202.724 389.566 243.509C315.325 284.236 253.248 296.396 197.752 292.681C142.244 288.966 93.2771 269.369 45.248 246.501C33.6255 240.968 22.0576 235.242 10.4658 229.504C-73.7134 187.838 -159.159 145.545 -276 171.645L-275.782 172.621C-159.306 146.602 -74.1856 188.728 10.0037 230.393C21.5997 236.132 33.178 241.862 44.8181 247.404C92.8761 270.286 141.983 289.951 197.685 293.679C253.398 297.408 315.663 285.191 390.047 244.385C464.325 203.638 523.851 182.311 577.151 173.135C630.447 163.959 677.546 166.928 726.983 174.809C751.391 178.699 776.372 183.789 802.949 189.204C884.031 205.722 979.969 225.268 1119.8 223.034C1166.21 222.293 1200.85 219.373 1226.44 214.726C1252.01 210.08 1268.59 203.699 1278.85 195.999C1289.13 188.276 1293.05 179.235 1293.3 169.372C1293.56 159.552 1290.18 148.946 1285.99 138.063C1284.82 135.024 1283.59 131.963 1282.35 128.889C1279.13 120.922 1275.88 112.863 1273.61 104.844C1270.46 93.7445 1269.2 82.8113 1272.5 72.4532C1275.79 62.108 1283.64 52.2553 1298.88 43.3666C1314.12 34.4726 1336.72 26.5597 1369.44 20.0999C1578.93 -21.2564 1806.84 14.0654 1894.58 36.8938L1894.84 35.9261ZM1396.9 45.4723C1606.59 4.0774 1834.65 39.4279 1922.49 62.2796L1922.23 63.2474C1834.49 40.4189 1606.59 5.09711 1397.09 46.4534C1364.37 52.9132 1341.77 60.8261 1326.53 69.7201C1311.3 78.6089 1303.44 88.4615 1300.15 98.8068C1296.86 109.165 1298.11 120.098 1301.26 131.198C1303.54 139.217 1306.78 147.275 1310 155.243C1311.24 158.317 1312.47 161.377 1313.64 164.417C1317.83 175.3 1321.21 185.906 1320.95 195.725C1320.7 205.588 1316.78 214.629 1306.5 222.352C1296.24 230.052 1279.66 236.433 1254.09 241.079C1228.5 245.727 1193.87 248.646 1147.45 249.388C1007.62 251.621 911.682 232.076 830.6 215.557C804.023 210.142 779.041 205.053 754.634 201.162C705.197 193.282 658.098 190.313 604.801 199.488C551.502 208.664 491.975 229.991 417.697 270.739C343.314 311.544 281.048 323.761 225.336 320.033C169.634 316.305 120.527 296.639 72.4689 273.758C60.8287 268.216 49.2504 262.486 37.6544 256.747C-46.5348 215.082 -131.656 172.956 -248.131 198.974L-248.349 197.998C-131.508 171.898 -46.0626 214.191 38.1165 255.858L38.1216 255.86L38.1291 255.864C49.7167 261.6 61.2804 267.323 72.8987 272.855C120.928 295.722 169.895 315.32 225.402 319.035C280.898 322.749 342.976 310.589 417.216 269.862C491.562 229.077 551.194 207.703 604.632 198.503C658.072 189.303 705.289 192.284 754.791 200.175C779.25 204.074 804.262 209.169 830.861 214.588C911.929 231.104 1007.72 250.62 1147.43 248.388C1193.82 247.647 1228.4 244.729 1253.91 240.095C1279.43 235.46 1295.83 229.114 1305.9 221.553C1315.94 214.014 1319.71 205.258 1319.95 195.699C1320.2 186.097 1316.9 175.656 1312.71 164.776C1311.55 161.772 1310.33 158.733 1309.09 155.672L1309.09 155.668L1309.09 155.665C1305.87 147.68 1302.59 139.545 1300.3 131.471C1297.12 120.287 1295.82 109.131 1299.2 98.5037C1302.58 87.8636 1310.64 77.835 1326.02 68.8564C1341.4 59.883 1364.12 51.9424 1396.9 45.4723ZM1950.14 88.6338C1862.3 65.7822 1634.24 30.4317 1424.55 71.8266C1391.77 78.2967 1369.05 86.2373 1353.67 95.2107C1338.29 104.189 1330.23 114.218 1326.85 124.858C1323.47 135.485 1324.77 146.641 1327.95 157.825C1330.24 165.899 1333.52 174.034 1336.74 182.019L1336.74 182.023L1336.74 182.025C1337.98 185.086 1339.2 188.125 1340.36 191.131C1344.55 202.01 1347.85 212.451 1347.6 222.054C1347.36 231.612 1343.59 240.368 1333.55 247.907C1323.48 255.469 1307.08 261.814 1281.56 266.45C1256.05 271.084 1221.47 274.001 1175.09 274.742C1035.37 276.974 939.58 257.458 858.512 240.942C831.913 235.524 806.901 230.428 782.442 226.529C732.94 218.638 685.723 215.657 632.283 224.857C578.845 234.057 519.213 255.432 444.867 296.216C370.627 336.943 308.549 349.103 253.053 345.389C197.546 341.674 148.579 322.077 100.55 299.209C88.9272 293.676 77.3594 287.95 65.7675 282.212C-18.4117 240.546 -103.857 198.252 -220.698 224.352L-220.48 225.328C-104.005 199.31 -18.8838 241.436 65.3055 283.101C76.9014 288.84 88.4797 294.57 100.12 300.112C148.178 322.993 197.285 342.659 252.987 346.387C308.699 350.116 370.965 337.898 445.348 297.093C519.626 256.346 579.153 235.019 632.452 225.843C685.749 216.667 732.848 219.636 782.284 227.517C806.692 231.407 831.674 236.497 858.251 241.911C939.333 258.43 1035.27 277.976 1175.1 275.742C1221.52 275.001 1256.15 272.081 1281.74 267.434C1307.31 262.787 1323.89 256.406 1334.15 248.706C1344.44 240.984 1348.35 231.943 1348.6 222.08C1348.86 212.26 1345.48 201.654 1341.29 190.771C1340.12 187.732 1338.89 184.671 1337.65 181.597C1334.44 173.63 1331.19 165.571 1328.91 157.552C1325.76 146.452 1324.51 135.519 1327.8 125.161C1331.09 114.816 1338.95 104.963 1354.18 96.0744C1369.42 87.1804 1392.02 79.2675 1424.74 72.8077C1634.24 31.4514 1862.14 66.7732 1949.89 89.6016L1950.14 88.6338ZM1977.79 114.988C1889.95 92.1361 1661.89 56.7855 1452.2 98.1805C1419.42 104.651 1396.7 112.591 1381.33 121.565C1365.94 130.543 1357.89 140.572 1354.5 151.212C1351.12 161.839 1352.43 172.995 1355.6 184.179C1357.89 192.253 1361.17 200.388 1364.39 208.373L1364.39 208.376L1364.4 208.38C1365.63 211.441 1366.86 214.48 1368.01 217.484C1372.2 228.364 1375.51 238.805 1375.26 248.408C1375.01 257.966 1371.24 266.722 1361.2 274.261C1351.13 281.822 1334.73 288.168 1309.21 292.804C1283.7 297.438 1249.13 300.355 1202.74 301.096C1063.03 303.328 967.233 283.812 886.165 267.296C859.566 261.877 834.553 256.782 810.095 252.883C760.593 244.992 713.376 242.011 659.936 251.211C606.498 260.411 546.866 281.785 472.52 322.57C398.28 363.297 336.202 375.457 280.706 371.743C225.199 368.028 176.232 348.431 128.203 325.563C116.583 320.031 105.018 314.306 93.4285 308.57L93.4258 308.569L93.4232 308.567L93.4205 308.566C9.2413 266.899 -76.2041 224.606 -193.045 250.706L-192.827 251.682C-76.3517 225.664 8.76913 267.79 92.9584 309.455C104.554 315.194 116.133 320.924 127.773 326.466C175.831 349.347 224.938 369.013 280.64 372.741C336.352 376.47 398.618 364.252 473.001 323.447C547.279 282.699 606.806 261.373 660.105 252.197C713.402 243.021 760.501 245.99 809.937 253.87C834.345 257.761 859.327 262.851 885.904 268.265C966.986 284.784 1062.92 304.33 1202.75 302.096C1249.17 301.355 1283.81 298.435 1309.39 293.787C1334.97 289.141 1351.55 282.76 1361.8 275.06C1372.09 267.338 1376 258.296 1376.26 248.433C1376.51 238.614 1373.14 228.008 1368.95 217.125C1367.78 214.086 1366.54 211.025 1365.3 207.951C1362.09 199.983 1358.84 191.925 1356.56 183.906C1353.41 172.806 1352.16 161.873 1355.45 151.515C1358.74 141.17 1366.6 131.317 1381.83 122.428C1397.07 113.534 1419.67 105.621 1452.39 99.1616C1661.89 57.8053 1889.79 93.1271 1977.54 115.956L1977.79 114.988Z" fill="#FF0080" fill-opacity="0.15"/>
</svg>
