<svg width="25" height="24" viewBox="0 0 25 24" fill="none" xmlns="http://www.w3.org/2000/svg">
<g clip-path="url(#clip0_48_15106)">
<path d="M18.9999 16.5H20.0499C20.3499 16.5 20.6499 16.2 20.6499 15.9V5.1C20.6499 4.8 20.3499 4.5 20.0499 4.5H18.9999C18.6999 4.5 18.3999 4.8 18.3999 5.1V15.9C18.3999 16.2 18.6999 16.5 18.9999 16.5ZM9.9999 16.5H11.0499C11.3499 16.5 11.6499 16.2 11.6499 15.9V6.6C11.6499 6.3 11.3499 6 11.0499 6H9.9999C9.6999 6 9.3999 6.3 9.3999 6.6V15.9C9.3999 16.2 9.6999 16.5 9.9999 16.5ZM14.4999 16.5H15.5499C15.8499 16.5 16.1499 16.2 16.1499 15.9V9.6C16.1499 9.3 15.8499 9 15.5499 9H14.4999C14.1999 9 13.8999 9.3 13.8999 9.6V15.9C13.8999 16.2 14.1999 16.5 14.4999 16.5ZM23.6499 18.75H2.6499V3.75C2.6499 3.33562 2.31428 3 1.8999 3H1.1499C0.735527 3 0.399902 3.33562 0.399902 3.75V19.5C0.399902 20.3283 1.07162 21 1.8999 21H23.6499C24.0643 21 24.3999 20.6644 24.3999 20.25V19.5C24.3999 19.0856 24.0643 18.75 23.6499 18.75ZM5.4999 16.5H6.5499C6.8499 16.5 7.1499 16.2 7.1499 15.9V12.6C7.1499 12.3 6.8499 12 6.5499 12H5.4999C5.1999 12 4.8999 12.3 4.8999 12.6V15.9C4.8999 16.2 5.1999 16.5 5.4999 16.5Z" fill="#333333"/>
</g>
<defs>
<clipPath id="clip0_48_15106">
<rect width="24" height="24" fill="white" transform="translate(0.399902)"/>
</clipPath>
</defs>
</svg>
