<svg width="48" height="48" viewBox="0 0 48 48" fill="none" xmlns="http://www.w3.org/2000/svg">
<path d="M37.0183 29.7512C37.002 28.5475 36.2658 27.57 35.1283 27.165C34.332 26.8813 33.5683 26.985 32.792 27.355C32.4433 26.535 31.8358 26.03 31.0158 25.7887C30.2033 25.55 29.4183 25.6613 28.692 26.0613C27.7383 24.6413 26.4508 24.4037 24.9583 24.885V16.8188C29.2545 16.0163 31.782 13.5013 32.2858 9.40375C32.7445 5.68 30.7108 1.6025 26.382 0.37875C25.817 0.21875 25.232 0.125 24.657 0H23.157C22.5533 0.1425 21.9308 0.23 21.3508 0.43625C18.1545 1.57125 16.312 3.90125 15.7858 7.18875C15.252 10.5262 16.412 13.265 19.1495 15.2925C19.4008 15.4787 19.5108 15.6513 19.4945 15.975C19.447 16.895 19.4308 17.8175 19.4308 18.7388C19.4333 23.69 19.4433 28.6412 19.4495 33.5925C19.4495 33.7637 19.4345 33.9362 19.422 34.19C19.122 33.9287 18.9108 33.7463 18.702 33.56C17.4858 32.4838 16.2833 31.3913 15.0458 30.3388C14.7245 30.0663 14.3195 29.83 13.9145 29.73C12.7883 29.455 11.5958 30.0212 10.9958 31.0325C10.3883 32.0537 10.507 33.1862 11.3333 34.1512C13.9433 37.2012 16.5595 40.2438 19.1583 43.3025C19.3208 43.495 19.427 43.7938 19.4345 44.0462C19.467 45.045 19.4583 46.0462 19.4433 47.045C19.437 47.4775 19.567 47.8063 19.9695 48H20.3445C20.7408 47.7988 20.867 47.4725 20.8595 47.0387C20.8408 45.945 20.8358 44.8512 20.862 43.7575C20.872 43.2875 20.722 42.9312 20.417 42.5775C17.7433 39.4787 15.082 36.37 12.422 33.2588C11.8745 32.62 11.8995 31.9725 12.4658 31.4312C13.002 30.9187 13.5995 30.9275 14.2158 31.4662C14.9208 32.0837 15.6208 32.7088 16.322 33.33C17.3983 34.2825 18.477 35.2325 19.547 36.1912C19.812 36.43 20.0895 36.57 20.437 36.4212C20.7933 36.2675 20.862 35.9525 20.8533 35.6037C20.8483 35.4162 20.8533 35.2287 20.8533 35.0412C20.8483 28.885 20.8445 22.73 20.842 16.5737C20.842 16.3713 20.8445 16.1675 20.8683 15.9663C20.9295 15.4613 21.227 15.1487 21.7033 15.0025C22.7195 14.6875 23.5108 15.2775 23.5108 16.365C23.5158 20.5675 23.512 24.77 23.5145 28.9725C23.5145 29.5562 23.742 29.8312 24.202 29.835C24.6558 29.84 24.907 29.5487 24.917 28.9862C24.927 28.3925 24.912 27.7987 24.9308 27.2062C24.947 26.6812 25.232 26.3312 25.7183 26.1525C26.6758 25.7987 27.5108 26.3538 27.5358 27.3775C27.5558 28.2362 27.5358 29.0963 27.542 29.955C27.547 30.5125 27.807 30.8213 28.2445 30.815C28.6808 30.8088 28.9358 30.4975 28.9445 29.9387C28.9545 29.345 28.9358 28.7512 28.9583 28.1575C28.9795 27.5687 29.3645 27.1737 29.9458 27.0925C30.9095 26.9587 31.5508 27.5025 31.5645 28.485C31.577 29.39 31.5633 30.2975 31.5695 31.2025C31.5733 31.7913 31.7958 32.065 32.2533 32.07C32.7108 32.075 32.9595 31.79 32.9708 31.2225C32.982 30.6612 32.9595 30.0975 32.9845 29.5362C33.017 28.8487 33.4883 28.4188 34.1733 28.41C35.0108 28.4 35.6058 28.9862 35.6145 29.86C35.6245 31.0312 35.6145 32.2038 35.6195 33.375C35.622 33.8887 35.8858 34.2038 36.3008 34.2125C36.7345 34.2225 37.0195 33.8975 37.022 33.36C37.027 32.1575 37.0345 30.9537 37.0183 29.7512ZM24.7158 15.1637C24.0908 13.4737 21.7633 13.0237 20.3795 14.1362C20.3195 14.185 20.2558 14.2262 20.1683 14.29C18.5708 13.2162 17.5645 11.755 17.1858 9.87375C16.512 6.525 18.3845 3.045 21.522 1.86875C26.0983 0.15125 31.5995 3.50375 30.8595 9.41875C30.4633 12.5912 28.3808 14.6825 25.2458 15.335C25.0483 15.375 24.8358 15.49 24.7158 15.1637Z" fill="#FF008A"/>
<path d="M47.8101 16.957C46.9713 12.8483 42.9863 9.8995 38.8551 10.3358C34.5388 10.7908 31.2126 14.4333 31.2463 18.6695C31.2801 23.0945 34.1401 26.4258 38.5413 27.0283C42.4226 27.5608 46.3126 25.4495 47.5413 21.4033C47.7388 20.7508 47.8488 20.0733 47.9988 19.407V17.8133C47.9363 17.5283 47.8688 17.2433 47.8101 16.957ZM39.6313 25.767C35.8413 25.7733 32.6676 22.617 32.6513 18.8258C32.6351 14.817 35.6864 11.7308 39.6414 11.7545C43.6139 11.777 46.5926 14.802 46.5913 18.812C46.5901 22.602 43.4301 25.7595 39.6313 25.767Z" fill="#FF008A"/>
<path d="M9.29375 27.1189C4.4925 27.6339 0.70375 24.0752 0.09 19.8589C0.0725 19.7377 0.03125 19.6202 0 19.5002V17.8127C0.21375 17.0502 0.42375 16.2877 0.6425 15.5277C0.68125 15.3939 0.7525 15.2702 0.81375 15.1439C1.09375 14.5689 1.445 14.3789 1.86125 14.5727C2.27875 14.7664 2.35375 15.1652 2.0825 15.7402C1.2925 17.4139 1.195 19.1314 1.775 20.8852C2.79125 23.9527 5.655 25.9577 8.72625 25.7564C12.02 25.5427 14.6362 23.2202 15.25 19.9677C15.765 17.2389 14.5963 14.4952 12.255 12.9339C9.8525 11.3314 6.9475 11.3014 4.58625 12.8452C4.4075 12.9614 4.1675 13.1327 4.00625 13.0902C3.75375 13.0227 3.46 12.8414 3.33625 12.6227C3.155 12.2989 3.35125 11.9989 3.65 11.7877C4.835 10.9464 6.14875 10.4414 7.59625 10.3289C11.9538 9.99016 15.8362 12.9739 16.6462 17.2664C17.5338 21.9689 14.0325 26.6102 9.29375 27.1189Z" fill="#FF008A"/>
<path d="M35.127 42.3921C34.2458 43.2509 33.8458 44.1521 34.0045 45.3584C34.0745 45.8796 33.997 46.4196 34.022 46.9496C34.042 47.3871 33.9333 47.7446 33.5633 47.9996H33.0945C32.7108 47.7859 32.5933 47.4584 32.602 47.0259C32.6245 45.8859 32.622 44.7446 32.6058 43.6046C32.5995 43.2334 32.7183 42.9521 32.972 42.6859C33.4883 42.1421 34.0108 41.6009 34.4708 41.0109C35.2233 40.0471 35.577 38.9246 35.6145 37.7046C35.627 37.2771 35.7858 36.9734 36.2408 36.9134C36.707 36.8521 37.0358 37.1896 37.0195 37.7346C36.9683 39.5209 36.4045 41.1459 35.127 42.3921Z" fill="#FF008A"/>
<path d="M11.3943 21.4865C10.6656 19.5115 9.93681 17.5365 9.16431 15.579C9.05806 15.3102 8.71056 15.1377 8.37931 14.834C8.05931 15.149 7.76181 15.3377 7.61681 15.6077C7.38306 16.0427 7.24681 16.5327 7.07056 16.999C6.51556 18.4727 5.95556 19.944 5.40681 21.4202C5.25181 21.839 5.43556 22.2527 5.80056 22.3927C6.15306 22.5277 6.58806 22.389 6.66431 21.984C6.85181 20.9865 7.49056 20.8577 8.31806 20.9752C8.39556 20.9865 8.47556 20.9877 8.55181 20.9752C9.34556 20.8515 9.96306 20.9977 10.0706 21.9465C10.0718 21.9602 10.0843 21.974 10.0918 21.9877C10.2831 22.379 10.6531 22.5365 11.0206 22.3865C11.3531 22.2502 11.5356 21.8677 11.3943 21.4865ZM7.62931 19.5277C7.87556 18.8665 8.11556 18.2202 8.39181 17.4752C8.66556 18.204 8.90306 18.8377 9.16306 19.5277H7.62931Z" fill="#FF008A"/>
<path d="M25.8797 7.97216C26.7059 6.26966 25.7572 4.73341 23.9034 4.71966C23.4359 4.71716 22.9672 4.70841 22.4997 4.72341C21.9459 4.74091 21.6947 4.98216 21.6909 5.53966C21.6809 7.47466 21.6809 9.40841 21.6922 11.3434C21.6947 11.8484 21.9772 12.1409 22.4759 12.1484C23.2234 12.1597 23.9734 12.1522 24.7197 12.1072C25.3597 12.0684 25.8697 11.7397 26.2584 11.2347C27.0122 10.2547 26.8784 9.08091 25.8797 7.97216ZM23.0947 6.98216C23.1122 6.70841 23.1134 6.21091 23.1797 6.20091C23.5847 6.14091 24.0259 6.12341 24.4134 6.23591C24.5859 6.28591 24.7359 6.66591 24.7584 6.90841C24.7897 7.24341 24.5272 7.45216 24.1972 7.48216C23.8584 7.51216 23.5134 7.48841 23.1147 7.48841C23.1059 7.28841 23.0859 7.13341 23.0947 6.98216ZM24.6222 10.6909C24.1334 10.7397 23.6372 10.7022 23.1234 10.7022C23.1122 10.5747 23.0947 10.4697 23.0934 10.3634C23.0909 9.89841 23.0922 9.43466 23.0922 8.92341C23.6247 8.92341 24.1197 8.88716 24.6072 8.93466C25.0534 8.97841 25.3272 9.37216 25.3209 9.83341C25.3159 10.2822 25.0609 10.6472 24.6222 10.6909Z" fill="#FF008A"/>
<path d="M42.0193 21.5079C41.1305 22.3942 40.063 22.6279 38.8705 22.3192C37.1805 21.8804 36.0655 20.4342 36.0743 18.7279C36.0893 15.9767 39.0205 14.1629 41.4243 15.4204C41.548 15.4854 41.6705 15.5567 41.783 15.6404C42.1168 15.8842 42.2118 16.2592 42.0305 16.5829C41.8393 16.9204 41.4293 17.0479 41.058 16.8279C40.4805 16.4854 39.8893 16.3329 39.2243 16.4992C38.098 16.7804 37.4005 17.7804 37.4918 18.9992C37.568 20.0254 38.498 20.9329 39.5618 21.0242C40.1405 21.0742 40.6318 20.8979 41.053 20.4942C41.4405 20.1229 41.8193 20.0992 42.123 20.3979C42.438 20.7079 42.4055 21.1229 42.0193 21.5079Z" fill="#FF008A"/>
</svg>
