<svg width="48" height="48" viewBox="0 0 48 48" fill="none" xmlns="http://www.w3.org/2000/svg">
<path d="M46.9066 3.20826C44.0079 3.20693 41.1079 3.20027 38.2092 3.21759C37.8386 3.21893 37.5948 3.10696 37.3535 2.83506C36.6578 2.04998 35.9208 1.3009 35.2278 0.513162C34.9026 0.143952 34.5428 0 34.051 0C26.2864 0.011996 18.5219 0.00799733 10.756 0.00933022C9.83643 0.00933022 9.60586 0.238587 9.60586 1.15695C9.60453 4.82239 9.60053 8.48784 9.61253 12.1533C9.61386 12.4892 9.5219 12.6251 9.19405 12.7504C3.8924 14.7684 0.789782 18.5765 0.0940912 24.2213C-0.622923 30.0367 2.82221 35.8294 8.23714 38.094C8.68094 38.2806 9.13407 38.4445 9.60453 38.6271C9.60453 40.2972 9.60453 41.962 9.60586 43.6268C9.60586 44.5785 9.82843 44.7997 10.7827 44.7997C13.031 44.8011 15.2793 44.7997 17.6036 44.7997V46.895C17.6063 47.7481 17.8529 47.9987 18.6992 48H46.8933C47.7476 48 47.9995 47.7507 47.9995 46.9044V4.3159C47.9995 3.46018 47.7516 3.20826 46.9066 3.20826ZM35.2265 2.88437C37.5574 5.4062 39.8244 7.86005 42.1554 10.3832H35.2265V2.88437ZM1.60675 25.5541C1.61342 18.963 7.01102 13.5981 13.6267 13.6061C20.2518 13.6141 25.6147 19.007 25.6014 25.6501C25.5881 32.2266 20.2012 37.6075 13.6347 37.6008C6.97103 37.5955 1.59876 32.2146 1.60675 25.5541ZM11.2225 43.1736V38.9883C14.2891 39.5108 17.1892 39.047 19.8773 37.6621C21.7311 39.5175 23.5583 41.3476 25.3829 43.1736H11.2225ZM19.2429 46.3899V44.8277C19.3735 44.8197 19.5175 44.8011 19.6601 44.8011C22.0217 44.7997 24.3833 44.7931 26.7436 44.8131C26.9755 44.8144 27.246 44.9424 27.4259 45.097C27.8617 45.4715 28.2549 45.8954 28.756 46.3899H19.2429ZM32.6583 45.7341C31.6747 46.2086 30.6378 46.0113 29.7862 45.1636C27.6512 43.0377 25.5228 40.905 23.3904 38.7751C22.732 38.118 22.071 37.4622 21.4619 36.8557C22.6041 35.7148 23.7063 34.6138 24.8404 33.4808C24.8431 33.4808 24.9284 33.5395 25.0017 33.6128C27.7445 36.3559 30.4912 39.095 33.2247 41.8461C34.4735 43.1043 34.1869 44.997 32.6583 45.7341ZM26.0172 32.3599C25.888 32.2306 25.7267 32.1346 25.6161 32.0507C27.9937 26.955 27.8351 22.0873 24.5539 17.5955C21.2847 13.121 16.7094 11.4882 11.2318 12.1773V1.63679H33.6019V2.19394C33.6019 5.09297 33.6005 7.992 33.6019 10.891C33.6019 11.7667 33.8458 12.0053 34.736 12.0067H43.1643V43.1869H35.621C35.5903 43.1123 35.545 43.0417 35.533 42.9643C35.3877 42.0207 34.9226 41.2582 34.2536 40.5918C31.5041 37.8514 28.764 35.1016 26.0172 32.3599ZM46.3749 46.3619H34.5961C34.844 45.8967 35.0679 45.4209 35.3518 44.981C35.4277 44.8624 35.6809 44.8091 35.8542 44.8077C38.453 44.7971 41.0519 44.8011 43.6521 44.7997C44.5663 44.7997 44.7996 44.5665 44.7996 43.6481C44.7996 32.9504 44.7982 22.2539 44.8075 11.5575C44.8075 11.0896 44.6703 10.7378 44.3531 10.3979C42.7245 8.65845 41.1159 6.9017 39.5006 5.15028C39.4246 5.06764 39.3553 4.97834 39.2314 4.83172H46.3749V46.3619Z" fill="#FF008A"/>
<path d="M31.1779 8.04297H14.4453V9.58112H31.1779V8.04297Z" fill="#FF008A"/>
<path d="M41.5789 14.4316H27.2266V15.9698H41.5789V14.4316Z" fill="#FF008A"/>
<path d="M41.5787 18.4297H27.2344V19.9705H41.5787V18.4297Z" fill="#FF008A"/>
<path d="M41.5781 22.4375H28.8438V23.9783H41.5781V22.4375Z" fill="#FF008A"/>
<path d="M31.1898 4.04883H21.6367V5.57099H31.1898V4.04883Z" fill="#FF008A"/>
<path d="M41.5771 26.4395H33.6406V27.9776H41.5771V26.4395Z" fill="#FF008A"/>
<path d="M19.1623 4.0332H14.4258V5.57269H19.1623V4.0332Z" fill="#FF008A"/>
<path d="M31.981 26.4395H28.8438V27.9776H31.981V26.4395Z" fill="#FF008A"/>
<path d="M13.753 15.2071C7.87697 15.1831 3.21637 19.8016 3.20704 25.6543C3.19905 31.3298 7.87963 35.9869 13.6051 36.0015C19.2946 36.0162 23.9925 31.3391 24.0018 25.6516C24.0111 19.9429 19.3865 15.2298 13.753 15.2071ZM13.5544 34.4021C8.76191 34.3914 4.809 30.4327 4.80633 25.641C4.80367 20.7666 8.74591 16.7973 13.5784 16.8079C18.4843 16.8173 22.3998 20.7399 22.3998 25.641C22.3998 30.4767 18.4256 34.4114 13.5544 34.4021Z" fill="#FF008A"/>
</svg>
