<svg width="14" height="16" viewBox="0 0 14 16" fill="none" xmlns="http://www.w3.org/2000/svg">
<g clip-path="url(#clip0_37_6037)">
<path d="M13.625 5C13.8313 5 14 4.83125 14 4.625V3.375C14 3.16875 13.8313 3 13.625 3H13V1.5C13 0.671875 12.3281 0 11.5 0H1.5C0.671875 0 0 0.671875 0 1.5V14.5C0 15.3281 0.671875 16 1.5 16H11.5C12.3281 16 13 15.3281 13 14.5V13H13.625C13.8313 13 14 12.8313 14 12.625V11.375C14 11.1687 13.8313 11 13.625 11H13V9H13.625C13.8313 9 14 8.83125 14 8.625V7.375C14 7.16875 13.8313 7 13.625 7H13V5H13.625ZM11.5 14.5H1.5V1.5H11.5V14.5ZM6.5 8C7.60313 8 8.5 7.10313 8.5 6C8.5 4.89687 7.60313 4 6.5 4C5.39687 4 4.5 4.89687 4.5 6C4.5 7.10313 5.39687 8 6.5 8ZM3.7 12H9.3C9.6875 12 10 11.7312 10 11.4V10.8C10 9.80625 9.05937 9 7.9 9C7.5625 9 7.31563 9.25 6.5 9.25C5.65938 9.25 5.45625 9 5.1 9C3.94062 9 3 9.80625 3 10.8V11.4C3 11.7312 3.3125 12 3.7 12Z" fill="#858585"/>
</g>
<defs>
<clipPath id="clip0_37_6037">
<rect width="14" height="16" fill="white"/>
</clipPath>
</defs>
</svg>
