<svg width="79" height="79" viewBox="0 0 79 79" fill="none" xmlns="http://www.w3.org/2000/svg">
<path d="M5.35938 0.8125C3.04688 1.375 1.26562 3.20312 0.765625 5.5625C0.515625 6.73438 0.515625 72.2656 0.765625 73.4375C1.28125 75.8594 3.15625 77.7344 5.5625 78.2344C6.73438 78.4844 71.0469 78.4844 71.5781 78.2344C72.2031 77.9531 72.3125 77.4688 72.3125 74.8906V72.4688H75.0156C78.5625 72.4688 78.3125 72.7188 78.375 69.0625C78.4375 65.8906 78.2656 64.6875 77.6094 63.2812C77.0469 62.1094 75.6875 60.6875 74.5625 60.0938C73.2031 59.3594 72.1875 59.1875 69.3906 59.1875H66.8438V53.6406V48.0938L67.5469 47.4531C68.6094 46.4688 69.7344 44.6719 70.2188 43.2031C70.5781 42.1094 70.6406 41.6406 70.6562 40.0469C70.6562 38.6719 70.5781 37.9219 70.375 37.2344C69.5469 34.5156 67.5312 32.0938 65.125 30.9375C64.3906 30.5938 63.5625 30.2656 63.2969 30.2031L62.7812 30.0938V22.5781V15.0469L55.5469 7.8125L48.3281 0.59375L27.2344 0.609375C11.25 0.609375 5.95312 0.671875 5.35938 0.8125ZM46.4062 7.96875L46.4531 12.7031L46.875 13.5938C47.4062 14.7344 48.4844 15.8125 49.625 16.3438L50.5156 16.7656L55.4062 16.8125L60.2812 16.8594V23.3281V29.7969L59.7031 29.8906C57.0312 30.2656 55.2188 31.125 53.5469 32.7812C52.25 34.0625 51.4531 35.3438 50.875 37.0781C50.5781 37.9844 50.5156 38.5 50.5312 40.0469C50.5312 41.6875 50.5781 42.0781 50.9688 43.1719C51.5469 44.8281 52.3281 46.0938 53.5156 47.25L54.5 48.2031V53.7031V59.1875H51.875C50.0312 59.1875 48.9844 59.2656 48.3281 59.4219C45.5781 60.1406 43.4531 62.4219 42.9531 65.1875C42.8594 65.7031 42.7812 67.3594 42.7812 68.875C42.7812 71.4375 42.8125 71.6719 43.1094 72.0625L43.4219 72.4688H46.2344H49.0312V74.1094V75.75H27.5156C6.875 75.75 5.95312 75.7344 5.35938 75.4531C4.59375 75.0938 3.8125 74.2969 3.5 73.5312C3.28125 73.0156 3.25 69.3594 3.25 39.5C3.25 9.64062 3.28125 5.98438 3.5 5.46875C3.8125 4.70312 4.59375 3.90625 5.35938 3.54688C5.95312 3.26562 6.84375 3.25 26.1719 3.25H46.3594L46.4062 7.96875ZM55.0938 14.3125C51.3594 14.3594 50.8125 14.2656 49.8906 13.3281C48.9844 12.4375 48.875 11.8438 48.875 8.0625V4.89062L53.5625 9.57812L58.25 14.2656L55.0938 14.3125ZM62.5469 32.7031C65.0156 33.3438 67.1094 35.4219 67.8438 37.9219C68.1719 39.0156 68.1562 40.9219 67.8438 42.0156C67.3906 43.5156 66.8438 44.375 65.5781 45.6094L64.3438 46.8125V53V59.1875H60.6719H57V53.0312C57 46.1094 57.125 46.7969 55.6875 45.6719C54.1094 44.4219 53.0938 42.1875 53.0938 39.9844C53.0938 37.9844 53.7344 36.4062 55.1562 34.8906C56.0938 33.875 57.4531 33.0469 58.7031 32.6875C59.7031 32.4219 61.4531 32.4219 62.5469 32.7031ZM72.3906 62C73.7031 62.4375 74.625 63.25 75.3281 64.5625C75.625 65.125 75.6719 65.5 75.7188 67.5781L75.7812 69.9688H60.5938H45.4062L45.4688 67.5781C45.5156 65.4688 45.5625 65.125 45.875 64.5312C46.6562 63.0625 47.875 62.125 49.3438 61.875C49.7188 61.8125 54.9062 61.7656 60.8906 61.7812C69.5469 61.7812 71.8906 61.8281 72.3906 62ZM69.6562 74.1094V75.75H60.5938H51.5312V74.1094V72.4688H60.5938H69.6562V74.1094Z" fill="#333333"/>
<path d="M9.09375 7.15625C8.25 7.5 8.25 7.54687 8.25 13.7656V19.5156L8.64062 19.8906L9.01562 20.2812H18.6406H28.2656L28.6406 19.8906L29.0312 19.5156V13.7344V7.95312L28.6562 7.51562L28.2812 7.07812L18.8438 7.04687C13.6719 7.03125 9.26562 7.07812 9.09375 7.15625ZM26.375 13.7187V17.7812H18.6406H10.9062V13.7187V9.65625H18.6406H26.375V13.7187Z" fill="#333333"/>
<path d="M33.3125 8.90625C32.9688 9.0625 32.625 9.64062 32.625 10.0469C32.625 10.4688 32.9688 11.0312 33.3594 11.2031C33.6094 11.3125 35.25 11.375 38.1719 11.375C41.0938 11.375 42.7344 11.3125 42.9844 11.2031C43.375 11.0312 43.7188 10.4688 43.7188 10.0469C43.7188 9.625 43.375 9.0625 42.9844 8.89062C42.4844 8.65625 33.7812 8.67188 33.3125 8.90625Z" fill="#333333"/>
<path d="M32.9518 16.625C32.5143 17.1875 32.5299 17.8594 33.0143 18.3281L33.3893 18.7188H38.1705H42.9518L43.3268 18.3281C43.8112 17.8594 43.8268 17.1875 43.3893 16.625L43.0768 16.2188H38.1705H33.2643L32.9518 16.625Z" fill="#333333"/>
<path d="M9.03202 25C8.17264 25.4531 8.03202 26.4844 8.75077 27.1562C9.03202 27.4219 9.29764 27.4688 10.3758 27.4688C12.0008 27.4688 12.4695 27.1719 12.4695 26.1562C12.4695 25.1719 12.1258 24.9375 10.6258 24.8594C9.82889 24.8125 9.29764 24.8594 9.03202 25Z" fill="#333333"/>
<path d="M16.5954 24.9219C16.0798 25.0156 15.7204 25.5156 15.7048 26.1562C15.6891 26.5937 15.7829 26.8125 16.1266 27.0937L16.5485 27.4688H35.5016C54.4391 27.4688 54.4548 27.4688 54.8766 27.1406C55.1735 26.9062 55.2829 26.6719 55.2829 26.2812C55.2829 25.5312 55.0641 25.1875 54.486 24.9844C54.1266 24.8594 48.6266 24.8125 35.4548 24.8281C25.2673 24.8437 16.7673 24.8906 16.5954 24.9219Z" fill="#333333"/>
<path d="M8.72011 34C8.22011 34.5 8.14198 34.875 8.42323 35.4844C8.67323 36.0312 9.20448 36.2188 10.5014 36.2188C11.9857 36.2188 12.4701 35.9062 12.4701 34.9062C12.4701 33.8906 12.1107 33.6562 10.5014 33.5781C9.22011 33.5312 9.18886 33.5469 8.72011 34Z" fill="#333333"/>
<path d="M16.4524 33.7188C15.6086 34.0469 15.4211 35.25 16.1399 35.8594L16.5461 36.2188H31.4524C42.0461 36.2188 46.468 36.1719 46.7336 36.0469C47.1242 35.875 47.468 35.3125 47.468 34.8906C47.468 34.4688 47.1242 33.9062 46.7336 33.7344C46.2805 33.5312 16.9524 33.5 16.4524 33.7188Z" fill="#333333"/>
<path d="M9.09375 42.2969C8.6875 42.4688 8.25 43.0625 8.25 43.4375C8.25 43.9062 8.57812 44.4531 8.98438 44.6406C9.1875 44.7344 9.875 44.8125 10.5 44.8125C11.9844 44.8125 12.4688 44.5 12.4688 43.5C12.4688 42.5 12.1094 42.25 10.6094 42.2031C9.95312 42.1719 9.26562 42.2188 9.09375 42.2969Z" fill="#333333"/>
<path d="M16.4524 42.2969C15.6086 42.6562 15.4211 43.8438 16.1399 44.4531L16.5461 44.8125H31.7649C42.593 44.8125 47.093 44.7656 47.3586 44.6406C48.1242 44.2969 48.2961 43.3438 47.718 42.6719L47.343 42.2344L32.0461 42.2031C23.6399 42.1875 16.6242 42.2344 16.4524 42.2969Z" fill="#333333"/>
<path d="M17.9838 49.1875C15.1869 49.7031 12.2963 51.4375 10.6557 53.6094C8.85882 55.9844 8.17132 58.2344 8.28069 61.3438C8.34319 63.0469 8.42132 63.5156 8.82757 64.7031C9.51507 66.6406 10.1557 67.6563 11.7651 69.2656C12.9057 70.4219 13.4213 70.7969 14.4994 71.3281C16.2182 72.1719 17.3432 72.4688 19.2651 72.5781C24.5619 72.8906 29.2026 69.8281 31.0932 64.7813C31.5307 63.6406 31.5932 63.25 31.6557 61.4219C31.7182 59.375 31.7182 59.3594 31.3276 58.9688C30.8276 58.4688 30.1713 58.4375 29.5932 58.8906C29.2182 59.1875 29.1869 59.2969 29.1869 60.5156C29.1869 62.2656 28.9682 63.2188 28.2182 64.8125C27.0932 67.1406 24.7807 69.0469 22.2182 69.7344C21.0307 70.0625 18.7494 70.0625 17.5619 69.7344C15.0932 69.0781 12.9526 67.3281 11.8432 65.0781C10.7494 62.8594 10.4994 60.8281 11.0619 58.6406C11.8901 55.3906 14.5307 52.7656 17.7807 51.9219C18.5307 51.7188 19.2338 51.6719 20.4369 51.7188C22.3432 51.7969 23.4057 52.125 24.8901 53.0938C25.9682 53.7969 26.6088 53.8906 27.1713 53.4219C27.4526 53.2031 27.5463 52.9688 27.5463 52.4688C27.5463 51.9063 27.4526 51.75 26.9994 51.3594C26.2182 50.7188 24.5932 49.8906 23.3276 49.5C22.0776 49.1094 19.3119 48.9531 17.9838 49.1875Z" fill="#4C40ED"/>
<path d="M32.7812 50.0469C32.5625 50.1719 29.7656 52.9531 26.5469 56.2187L20.7031 62.1719L18.4844 59.9844C16.3594 57.875 16.25 57.7812 15.625 57.7812C14.875 57.7812 14.3438 58.3125 14.3438 59.0937C14.3438 59.5156 14.6875 59.9219 17.1562 62.3437C18.7188 63.875 20.1562 65.1719 20.3594 65.2187C20.5781 65.2656 20.9219 65.2812 21.1094 65.2187C21.3281 65.1719 24.375 62.1875 28.0625 58.4219C34.5469 51.8281 34.6562 51.7187 34.6562 51.0937C34.6562 50.0469 33.7188 49.5156 32.7812 50.0469Z" fill="#4C40ED"/>
</svg>
