<svg width="14" height="15" viewBox="0 0 14 15" fill="none" xmlns="http://www.w3.org/2000/svg">
<g clip-path="url(#clip0_306_1618)">
<path d="M5.95312 2.32935L6.64687 1.72231C6.94062 1.46528 7.41563 1.46528 7.70625 1.72231L13.7812 7.0352C14.075 7.29224 14.075 7.70786 13.7812 7.96216L7.70625 13.2778C7.4125 13.5348 6.9375 13.5348 6.64687 13.2778L5.95312 12.6708C5.65625 12.411 5.6625 11.9872 5.96562 11.7329L9.73125 8.5938H0.75C0.334375 8.5938 0 8.30122 0 7.93755V7.06255C0 6.69888 0.334375 6.4063 0.75 6.4063H9.73125L5.96562 3.26724C5.65937 3.01294 5.65312 2.58911 5.95312 2.32935Z" fill="#FF0080"/>
</g>
<defs>
<clipPath id="clip0_306_1618">
<rect width="14" height="14" fill="white" transform="translate(0 0.5)"/>
</clipPath>
</defs>
</svg>
