<svg width="81" height="80" viewBox="0 0 81 80" fill="none" xmlns="http://www.w3.org/2000/svg">
<path d="M6.35938 0.15625C5.875 0.359375 5.32812 0.9375 5.09375 1.5C4.90625 1.9375 4.875 6.65625 4.875 31.25C4.875 60.0156 4.875 60.4844 5.1875 61.0781C5.35938 61.4219 5.75 61.8594 6.07812 62.0469C6.65625 62.4062 6.78125 62.4219 10.6562 62.4688L14.6406 62.5156L16.5938 64.4531C17.6719 65.5156 18.75 66.4688 18.9844 66.5469C19.2812 66.6562 22.4375 66.7188 28.3594 66.7188H37.2969L38.4688 68.3125C39.1094 69.1875 40.3438 70.625 41.2031 71.5156C42.5312 72.8906 42.8438 73.125 43.25 73.125C43.9844 73.125 44.5625 72.5938 44.5625 71.9219C44.5625 71.4375 44.375 71.1875 43.1406 69.875C39.7188 66.25 37.1875 62.0156 35.6094 57.2188C34.875 55 33.9844 51.3125 34.1406 51.1406C34.1875 51.0938 35.1406 50.8594 36.2344 50.6094C40.5312 49.6562 44.5312 47.9688 47.4531 45.8594C49.2188 44.6094 51.375 42.6094 52.5781 41.125C53.2188 40.3594 53.625 40 53.8594 40C54.0938 40 54.5156 40.375 55.2188 41.2188C57.4688 43.8906 60.3594 46.1875 63.625 47.875C66 49.0938 67.9531 49.7812 71.1094 50.5156C72.4219 50.8281 73.5469 51.1094 73.5938 51.1562C73.7031 51.2812 72.9062 54.75 72.3594 56.5156C69.6406 65.375 64.3281 71.75 55.7344 76.4688L53.9062 77.4688L53.0312 77C51.0312 75.9531 50.0469 75.375 48.75 74.5C47.6562 73.7812 47.2656 73.5938 46.7656 73.5938C46.0469 73.5938 45.6562 74 45.6562 74.7344C45.6562 75.4531 45.875 75.6875 47.6719 76.8594C50.2344 78.5312 53.1406 80 53.8594 80C54.2969 80 54.9844 79.7188 56.3906 78.9844C65.4688 74.2031 71.4531 67.2969 74.4844 58.0625C75.3125 55.5625 76.125 52.1719 76.125 51.2188C76.125 50.5469 75.5625 49.4375 75.0312 49.0625C74.7656 48.875 73.6094 48.5156 72.2656 48.2031C68.9219 47.4375 67.5469 46.9844 65.2656 45.8438C62.7812 44.625 60.7656 43.2031 58.75 41.25L57.2188 39.7656V35.6094C57.2188 31.75 57.2031 31.4062 56.9219 31.0781C56.5 30.5625 55.4375 30.5625 55.0156 31.0781C54.75 31.4062 54.7188 31.7344 54.7188 34.4688V37.5H53.8594C52.6406 37.5 51.9688 37.8906 50.7656 39.3281C50.2031 40 49.4062 40.875 48.9844 41.2812L48.2344 42.0156L38.4219 42.0625L28.5938 42.1094L28.2188 42.5469C27.7656 43.0781 27.7344 43.5781 28.1719 44.125L28.4844 44.5312H36.6406C45.7969 44.5469 45.2656 44.4375 42.8281 45.7031L41.4688 46.4062H35.2031C30.8906 46.4062 28.8281 46.4688 28.5625 46.5781C27.7812 46.9375 27.6719 48.1875 28.3594 48.6719C28.6094 48.8438 29.1875 48.9062 30.7969 48.9062H32.8906L32.5 49.2188C32.2812 49.3906 31.9844 49.8125 31.8438 50.1562L31.5938 50.7812H30.1406C29.125 50.7812 28.5938 50.8438 28.3594 51.0156C27.6719 51.5 27.7812 52.75 28.5625 53.1094C28.7812 53.2031 29.6094 53.2812 30.4219 53.2812H31.9062L32 53.7031C32.7969 57.1875 33.9375 60.4688 35.2812 63.1562L35.8125 64.2188H28.2344H20.6562V60.875C20.6562 57.6719 20.6406 57.5312 20.2969 57.0156C20.1094 56.7344 19.7031 56.3281 19.4219 56.1406C18.9062 55.7969 18.7656 55.7812 15.5469 55.7812H12.2188L12.25 31.3594L12.2969 6.95312L33.5156 6.90625L54.7188 6.875V17.3281C54.7188 27.6562 54.7188 27.7812 55.0469 28.1875C55.4844 28.7344 56.2969 28.75 56.8281 28.2031L57.2188 27.8281V17.1562V6.46875L56.875 5.78125C56.6094 5.26562 56.3281 4.98438 55.8125 4.71875C55.2031 4.42188 54.8906 4.375 53.0469 4.375H50.9688V3.20312C50.9688 1.84375 50.75 1.20312 50.0469 0.546875L49.5469 0.078125L32.0625 0.03125L14.5938 0L14.2656 0.40625C13.8438 0.9375 13.8438 1.40625 14.2656 1.9375L14.5781 2.34375L31.4844 2.375L48.3906 2.42188L48.4375 3.39062L48.4844 4.375H30.1719C12.2188 4.375 11.8438 4.375 11.2188 4.6875C10.8594 4.85938 10.4062 5.25 10.1875 5.57812L9.79688 6.15625L9.75 31.3906C9.73438 45.2812 9.75 56.875 9.79688 57.1562C9.85938 57.4844 10.1719 57.9531 10.625 58.4219C11.0312 58.8438 11.5312 59.3594 11.7344 59.5938L12.1094 60H9.75H7.375L7.40625 31.2031L7.45312 2.42188L9.45312 2.34375C11.2031 2.28125 11.4844 2.23438 11.6875 1.96875C12.0156 1.51562 11.9688 0.6875 11.5938 0.3125C11.3125 0.03125 11.0781 0 8.98438 0.015625C7.70312 0.015625 6.53125 0.078125 6.35938 0.15625ZM18.1562 60.2344C18.1562 61.3125 18.1406 62.1875 18.1094 62.1875C18.0938 62.1875 17.2031 61.3125 16.125 60.2344L14.1719 58.2812H16.1719H18.1562V60.2344Z" fill="#333333"/>
<path d="M21.0471 8.73438C20.3128 8.92188 19.6878 9.29688 19.1565 9.875C18.2971 10.7812 18.094 11.3281 18.0315 13.1094C17.9534 14.9375 18.1096 15.6719 18.7971 16.6719C19.4534 17.6094 19.3128 17.9531 18.1253 18.5312C16.1409 19.4688 15.8284 20.2188 16.1878 22.9531C16.6253 26.0625 16.6721 26.0938 22.0628 26.0938C27.5159 26.0938 27.5628 26.0625 27.969 22.7656L28.2034 20.7969L27.8284 20.0469C27.4846 19.4062 27.2659 19.2188 26.2503 18.6719C24.844 17.9375 24.6721 17.5781 25.2815 16.7656C25.9221 15.9219 26.1253 15.0938 26.1253 13.375C26.1253 12.125 26.0471 11.6562 25.7971 11.0938C25.4065 10.2344 24.6878 9.45312 23.9065 9.04688C23.2503 8.70312 21.7503 8.54688 21.0471 8.73438ZM23.2034 11.7188C23.5784 12.1406 23.6253 12.3125 23.6253 13.3594C23.6253 14.7031 23.4221 15.25 22.8284 15.5625C22.0003 15.9844 21.1565 15.7344 20.7346 14.9375C20.344 14.2344 20.4534 12.2031 20.8909 11.7188C21.5784 10.9531 22.5003 10.9688 23.2034 11.7188ZM22.6565 18.8125C22.969 19.6562 23.3909 20.0781 24.469 20.5938C25.0159 20.8594 25.5003 21.1406 25.5471 21.2031C25.594 21.2812 25.5628 21.8594 25.469 22.4688L25.3128 23.5938H22.0628H18.7971L18.7034 22.6875C18.6409 22.2031 18.5784 21.6562 18.5628 21.4844C18.5471 21.25 18.7971 21.0469 19.5628 20.6719C20.6721 20.125 21.3753 19.4219 21.5159 18.7188C21.594 18.375 21.7034 18.2812 22.0471 18.2812C22.3909 18.2812 22.5003 18.3906 22.6565 18.8125Z" fill="#333333"/>
<path d="M29.6719 11.8438L29.25 12.2812V15.4219C29.25 18.5312 29.25 18.5781 29.625 19.0156L30 19.4531H40.5H51L51.375 19.0156C51.75 18.5781 51.75 18.5312 51.75 15.4531V12.3125L51.2969 11.8594L50.8438 11.4062H40.4688H30.0938L29.6719 11.8438ZM49.25 15.4688V17.0312H40.5H31.75V15.4688V13.9062H40.5H49.25V15.4688Z" fill="#333333"/>
<path d="M30.3755 21.8125C30.1724 21.9531 29.9536 22.2344 29.8755 22.4375C29.7036 22.8906 29.9536 23.7031 30.3442 23.9062C30.5005 24 31.563 24.0625 32.688 24.0625C34.6724 24.0625 34.7505 24.0469 35.1411 23.6562C35.4692 23.3281 35.5161 23.1562 35.438 22.6875C35.2817 21.6875 34.9692 21.5625 32.7036 21.5625C31.1411 21.5625 30.6567 21.6094 30.3755 21.8125Z" fill="#333333"/>
<path d="M38.4066 21.8906C37.8597 22.3125 37.8441 23.2344 38.3597 23.7188C38.7035 24.0312 38.891 24.0625 40.7972 24.0625C42.7816 24.0625 42.8753 24.0469 43.2347 23.6719C43.4847 23.4375 43.6253 23.1094 43.6253 22.8125C43.6253 22.5156 43.4847 22.1875 43.2347 21.9531C42.8753 21.5781 42.7816 21.5625 40.8441 21.5625C39.0316 21.5625 38.7816 21.5938 38.4066 21.8906Z" fill="#333333"/>
<path d="M46.5156 21.9531C46.2656 22.1875 46.125 22.5156 46.125 22.8125C46.125 23.1094 46.2656 23.4375 46.5156 23.6719C46.875 24.0469 46.9688 24.0625 48.9844 24.0625C50.9688 24.0625 51.0938 24.0469 51.4062 23.7031C51.9062 23.1719 51.875 22.3125 51.3438 21.8906C50.9688 21.5938 50.7188 21.5625 48.9062 21.5625C46.9688 21.5625 46.875 21.5781 46.5156 21.9531Z" fill="#333333"/>
<path d="M17.8431 29.5156C17.2963 30.0625 17.2494 30.5781 17.7025 31.1562L18.015 31.5625H21.2963C24.3588 31.5625 24.5775 31.5469 24.8744 31.25C25.3431 30.7812 25.3431 29.9531 24.8588 29.4531C24.5775 29.1719 24.3119 29.1406 21.4369 29.0938L18.3119 29.0469L17.8431 29.5156Z" fill="#333333"/>
<path d="M28.2813 29.5312C27.8907 29.9375 27.8282 30.0938 27.9063 30.5156C27.9532 30.7969 28.1563 31.1406 28.3282 31.2812C28.6407 31.5469 29.3751 31.5625 38.7657 31.5625H48.8907L49.2188 31.2031C49.6407 30.75 49.6563 30 49.2657 29.5156L48.9688 29.1406L38.8594 29.0938L28.7657 29.0625L28.2813 29.5312Z" fill="#333333"/>
<path d="M17.8281 33.7344C17.3125 34.1562 17.3125 35.2188 17.8281 35.6406C18.1562 35.9062 18.4844 35.9375 21.3438 35.9375C24.7188 35.9219 24.875 35.8906 25.1719 35.1094C25.375 34.5938 25.1875 34.0312 24.6875 33.6875C24.3906 33.4844 23.8281 33.4375 21.2656 33.4375C18.4844 33.4375 18.1562 33.4688 17.8281 33.7344Z" fill="#333333"/>
<path d="M28.4992 33.5469C28.1554 33.6875 27.8117 34.5313 27.9211 35.0156C28.1398 35.9688 27.7179 35.9375 38.7492 35.9375H48.7961L49.1711 35.5469C49.6867 35.0469 49.6867 34.3281 49.1711 33.8281L48.7961 33.4375L38.7492 33.4531C33.2179 33.4531 28.6086 33.5 28.4992 33.5469Z" fill="#333333"/>
<path d="M17.891 38.0469C17.2035 38.5312 17.3129 39.7812 18.0941 40.1406C18.3441 40.25 19.5785 40.3125 21.4379 40.3125C24.2816 40.3125 24.4066 40.2969 24.7816 39.9531C25.3441 39.4531 25.391 38.6406 24.8754 38.125C24.5785 37.8281 24.3597 37.8125 21.391 37.8125C18.8597 37.8125 18.1566 37.8594 17.891 38.0469Z" fill="#333333"/>
<path d="M28.3282 38.0781C28.1563 38.2344 27.9532 38.5781 27.9063 38.8594C27.8282 39.2812 27.8907 39.4375 28.2813 39.8438L28.7657 40.3125L38.8594 40.2812L48.9688 40.2344L49.2657 39.8594C49.6719 39.3594 49.6563 38.5781 49.2032 38.1562L48.8438 37.8125H38.7501C29.3751 37.8125 28.6407 37.8281 28.3282 38.0781Z" fill="#333333"/>
<path d="M18.3594 42.1406C17.9219 42.2344 17.375 42.9062 17.375 43.3594C17.375 43.5469 17.5156 43.8906 17.7031 44.125L18.0156 44.5312H21.3438C24.4375 44.5312 24.6875 44.5156 24.9375 44.2344C25.3281 43.7969 25.2969 42.8594 24.8906 42.4375C24.5781 42.125 24.3906 42.1094 21.625 42.0781C20.0156 42.0781 18.5469 42.0938 18.3594 42.1406Z" fill="#333333"/>
<path d="M18.0463 46.5938C17.6088 46.7969 17.3275 47.5 17.4681 48.0312C17.6713 48.8438 17.9369 48.9062 21.39 48.9062C24.3588 48.9062 24.5775 48.8906 24.8744 48.5938C25.39 48.0781 25.3431 47.2656 24.7806 46.75C24.4056 46.4219 24.2806 46.4062 21.39 46.4219C19.6244 46.4219 18.2494 46.5 18.0463 46.5938Z" fill="#333333"/>
<path d="M52.3281 47.875C50.3125 48.625 49.25 50.2969 49.25 52.6719V53.7344L48.5938 53.9375C47.7188 54.1875 46.5781 55.3282 46.3125 56.1875C46.1875 56.6407 46.125 58.2813 46.125 61.4844C46.125 64.6875 46.1875 66.3282 46.3125 66.7813C46.4375 67.1719 46.7969 67.7032 47.2344 68.1407C48.2656 69.1875 48.6719 69.25 54.3281 69.1875C58.8281 69.1407 59.0469 69.125 59.6719 68.7969C60.5 68.3438 61.2031 67.4844 61.4219 66.625C61.6719 65.6563 61.6562 57.0313 61.4062 56.1875C61.1562 55.3438 60 54.1875 59.1562 53.9375L58.5 53.75L58.4375 52.375C58.3281 50.2657 57.5469 48.9375 55.9219 48.0938C55.0938 47.6719 53.2031 47.5469 52.3281 47.875ZM55.1406 50.6407C55.75 51.2188 55.9688 51.7813 55.9688 52.8125V53.75H53.8594H51.75V52.8125C51.75 51.5782 52.2812 50.6094 53.1562 50.2657C53.6406 50.0625 54.7344 50.2813 55.1406 50.6407ZM58.7031 56.6407L59.0938 57.0157V61.4844V65.9532L58.7031 66.3282L58.3281 66.7188H53.8594H49.3906L49.0156 66.3282L48.625 65.9532V61.4844V57.0157L49.0156 56.6407L49.3906 56.25H53.8594H58.3281L58.7031 56.6407Z" fill="#4C40ED"/>
<path d="M53.1094 59.4062C52.3438 60 52.3438 62.3281 53.1094 62.9062C53.5312 63.2187 54.2969 63.1719 54.6875 62.8125C54.9844 62.5312 55.0312 62.3281 55.0312 61.1719C55.0312 60.0469 54.9844 59.7969 54.7188 59.5312C54.3594 59.1719 53.5156 59.1094 53.1094 59.4062Z" fill="#4C40ED"/>
<path d="M17.891 51.0156C17.2035 51.5 17.3129 52.75 18.0941 53.1094C18.3441 53.2188 19.5785 53.2812 21.4379 53.2812C24.2816 53.2812 24.4066 53.2656 24.7816 52.9219C25.3441 52.4219 25.391 51.6094 24.8754 51.0938C24.5785 50.7969 24.3597 50.7812 21.391 50.7812C18.8597 50.7812 18.1566 50.8281 17.891 51.0156Z" fill="#333333"/>
</svg>
