<svg width="16" height="16" viewBox="0 0 16 16" fill="none" xmlns="http://www.w3.org/2000/svg">
<path fill-rule="evenodd" clip-rule="evenodd" d="M2.66669 5.33333C2.2985 5.33333 2.00002 5.63181 2.00002 6V12.6667C2.00002 13.0349 2.2985 13.3333 2.66669 13.3333H13.3334C13.7015 13.3333 14 13.0349 14 12.6667V6C14 5.63181 13.7015 5.33333 13.3334 5.33333H2.66669ZM0.666687 6C0.666687 4.89543 1.56212 4 2.66669 4H13.3334C14.4379 4 15.3334 4.89543 15.3334 6V12.6667C15.3334 13.7712 14.4379 14.6667 13.3334 14.6667H2.66669C1.56212 14.6667 0.666687 13.7712 0.666687 12.6667V6Z" fill="#858585"/>
<path fill-rule="evenodd" clip-rule="evenodd" d="M5.25247 1.91928C5.62755 1.54421 6.13625 1.3335 6.66669 1.3335H9.33335C9.86379 1.3335 10.3725 1.54421 10.7476 1.91928C11.1226 2.29436 11.3334 2.80306 11.3334 3.3335V14.0002C11.3334 14.3684 11.0349 14.6668 10.6667 14.6668C10.2985 14.6668 10 14.3684 10 14.0002V3.3335C10 3.15669 9.92978 2.98712 9.80476 2.86209C9.67973 2.73707 9.51016 2.66683 9.33335 2.66683H6.66669C6.48988 2.66683 6.32031 2.73707 6.19528 2.86209C6.07026 2.98712 6.00002 3.15669 6.00002 3.3335V14.0002C6.00002 14.3684 5.70154 14.6668 5.33335 14.6668C4.96516 14.6668 4.66669 14.3684 4.66669 14.0002V3.3335C4.66669 2.80306 4.8774 2.29436 5.25247 1.91928Z" fill="#858585"/>
</svg>
