<svg width="40" height="40" viewBox="0 0 40 40" fill="none" xmlns="http://www.w3.org/2000/svg">
<g clip-path="url(#clip0_15376_12968)">
<path d="M8.9403 18.021L7.8125 18.6983L8.56436 19.8057C9.31623 20.9314 10.0773 22.0022 10.444 22.4781L10.6457 22.7344L11.15 22.2951C11.5902 21.9107 12.5804 21.2426 12.883 21.1327C12.9472 21.1144 12.5988 20.6843 12.1128 20.1901C11.0859 19.1284 10.5632 18.4512 10.2698 17.8105L10.0589 17.3438L8.9403 18.021Z" fill="#FF008A"/>
<path d="M12.3945 0.867188C10.332 1.16406 8.88672 2.0625 8.19922 3.46875C7.66016 4.55469 7.54297 5.19531 7.54297 6.91406C7.54297 7.85938 7.58203 8.52344 7.64453 8.75C7.69922 8.94531 7.73828 9.13281 7.73047 9.17969C7.62109 10.6797 7.62891 10.7656 7.83984 11.2109C8.05859 11.6484 8.49609 12.0625 8.83203 12.1484C8.96484 12.1797 9.06641 12.2969 9.16016 12.5313C9.41016 13.1328 10.0508 14.0234 10.6445 14.5859C11.6523 15.5391 12.9023 16.0391 14.293 16.0391C15.5898 16.0391 16.5508 15.6406 17.457 14.7188C18.7695 13.3828 19.5586 11.3125 19.8008 8.57031C19.8398 8.08594 19.832 8.03125 19.6523 7.85156C19.4102 7.60938 19.332 7.60938 19.0977 7.85156C18.9336 8.00781 18.9023 8.11719 18.9023 8.49219C18.9023 10.1719 18.0742 12.625 17.1133 13.7969C16.6602 14.3516 15.9336 14.8672 15.3633 15.0391C14.8477 15.1953 13.7773 15.1875 13.168 15.0313C11.8242 14.6875 10.582 13.5469 9.89453 12.0156C9.72266 11.6406 9.63672 11.5391 9.30859 11.375C8.77734 11.1094 8.58984 10.7891 8.58984 10.1641C8.58984 9.89844 8.63672 9.5625 8.69922 9.42188C8.79297 9.20313 8.85547 9.15625 9.13672 9.10938C9.32422 9.07813 9.73828 8.95313 10.0664 8.82813L10.6602 8.59375H12.8086C14.082 8.59375 15.082 8.5625 15.2539 8.50781C15.4414 8.46094 15.7617 8.23438 16.0977 7.92969C16.9961 7.10156 17.793 6.8125 19.332 6.74219C19.918 6.71875 20.3945 6.73438 20.5977 6.78906C21.2617 6.96875 21.668 7.57031 21.207 7.6875C20.9336 7.75781 20.7383 8.07031 20.8555 8.27344C20.9883 8.53125 21.1836 8.59375 21.5195 8.50781C22.0977 8.34375 22.4258 7.76563 22.2617 7.19531C22.082 6.55469 21.5039 6.07031 20.5977 5.78125L20.2227 5.66406L19.957 4.88281C19.082 2.375 18.0117 1.25781 16.1289 0.898438C15.4648 0.765626 13.1836 0.750001 12.3945 0.867188ZM16.0195 1.82813C17.3789 2.11719 18.1836 2.90625 18.8633 4.63281C18.9805 4.92188 19.0664 5.17969 19.043 5.19531C19.0273 5.21094 18.7148 5.14063 18.3555 5.03125C16.957 4.625 16.2461 4.52344 15.4492 4.60938C13.7695 4.79688 13.0664 5.16406 11.457 6.70313C10.8555 7.28125 10.332 7.71094 10.0352 7.86719C9.54297 8.125 8.63672 8.35938 8.53516 8.25C8.49609 8.21875 8.47266 7.58594 8.48047 6.85156C8.48828 5.74219 8.51953 5.40625 8.65234 4.89844C8.98828 3.66406 9.63672 2.83594 10.6445 2.35156C11.5195 1.92969 11.5352 1.94531 11.0664 2.64063C10.5977 3.32813 10.3477 3.91406 10.2383 4.59375C10.1602 5.07813 10.2148 5.25781 10.4727 5.39063C10.6836 5.50781 10.9961 5.3125 11.0508 5.01563C11.3008 3.8125 11.582 3.23438 12.2617 2.57031C12.5117 2.32813 12.8945 2.03906 13.1289 1.92969C13.5117 1.73438 13.6133 1.71875 14.5195 1.71875C15.0664 1.71875 15.7383 1.77344 16.0195 1.82813ZM17.3477 5.67969C17.8164 5.78906 18.1914 5.89844 18.1758 5.91406C18.1602 5.92969 17.8867 6.01563 17.5664 6.10156C16.7852 6.32031 16.1836 6.64844 15.5898 7.19531L15.0898 7.65625H13.4258H11.7617L11.9961 7.41406C12.4258 6.95313 13.3398 6.20313 13.7305 5.99219C14.7305 5.44531 15.9648 5.34375 17.3477 5.67969Z" fill="#393F4D" stroke="#393F4D" stroke-width="0.3"/>
<path d="M10.3808 15.4609C10.2245 15.5859 10.1854 15.7031 10.1542 16.1406L10.1151 16.6719L8.51357 17.6328C7.63075 18.1562 6.68544 18.7031 6.40419 18.8359C4.58388 19.7344 2.17763 21.6172 1.39638 22.75C0.80263 23.625 0.755755 23.789 0.80263 25.1172C0.888568 27.414 1.38076 30.0781 2.15419 32.4531C2.65419 33.9844 2.7245 34.1328 2.95107 34.1953C3.13857 34.2422 4.16982 34.1328 4.69325 34.0156C4.87294 33.9765 5.05263 34.1328 6.37294 35.4453C7.86513 36.9297 8.71669 37.6719 9.7245 38.3437C10.0292 38.539 10.3183 38.75 10.3651 38.7969C10.4198 38.8515 10.7011 38.9687 10.9823 39.0625C11.4354 39.2187 11.6151 39.2344 12.2558 39.1953C13.037 39.1484 14.1151 38.914 14.4979 38.7109C14.6229 38.6484 14.7636 38.5937 14.8183 38.5937C14.9667 38.5937 17.2011 37.8594 19.5917 37.0234C20.8808 36.5703 21.9276 36.25 22.0995 36.25C22.3573 36.25 22.6854 36.3125 24.2089 36.6484C24.9042 36.7969 27.2323 36.6953 28.6151 36.4531C29.2479 36.3437 29.8651 36.2031 29.9901 36.1328C30.6151 35.8125 31.0917 35.125 31.0917 34.5312V34.2187H35.0292C38.5057 34.2187 38.9823 34.2031 39.0917 34.0937C39.2011 33.9844 39.2167 33.4219 39.2167 29.0625C39.2167 24.7031 39.2011 24.1406 39.0917 24.0312C38.9823 23.9218 37.9433 23.9062 28.8183 23.9062H18.662L18.4745 24.1015L18.2792 24.289V27.6718C18.2792 30.6093 18.2948 31.0781 18.4042 31.2344C18.5604 31.4609 18.9433 31.4687 19.0761 31.25C19.162 31.1094 19.2636 31.0937 19.9433 31.0937C20.6542 31.0937 20.7245 31.0781 20.8964 30.8984C21.1386 30.664 21.1386 30.5859 20.8964 30.3515C20.7245 30.1719 20.6464 30.1562 19.9589 30.1562H19.2167V29.0625V27.9687H20.9354H22.6542V28.3984C22.6542 28.7578 22.6854 28.8672 22.8495 29.0234C22.9511 29.1328 23.0761 29.2187 23.1229 29.2187C23.1698 29.2187 23.2948 29.1328 23.3964 29.0234C23.5604 28.8672 23.5917 28.7578 23.5917 28.3984V27.9687H30.9354H38.2792V29.0625V30.1484L31.0761 30.1719C22.6776 30.1953 23.7714 30.0625 22.0995 31.3125L21.0526 32.0859L17.0839 32.6953L13.1073 33.2969L12.7167 32.9219C12.5058 32.7109 12.0292 32.1797 11.662 31.7344C11.1386 31.1015 11.0058 30.8984 11.0448 30.7578C11.0683 30.6328 10.7792 29.8672 10.1229 28.3203C9.0995 25.9297 8.94325 25.6719 8.5995 25.8515C8.20107 26.0703 8.20888 26.125 9.16982 28.375C9.88857 30.0469 10.0604 30.5156 9.99013 30.6015C9.81825 30.7969 8.49013 31.6484 7.81044 31.9922C7.44325 32.1719 6.8495 32.4297 6.48232 32.5625C5.787 32.8047 4.24013 33.1719 3.71669 33.2187L3.412 33.2422L3.14638 32.4609C2.35732 30.1328 1.71669 26.6328 1.71669 24.6328C1.71669 24.0937 1.74794 23.9765 1.95888 23.5937C2.27138 23.0547 3.24794 22.0781 4.2245 21.3515C5.29482 20.5469 7.29482 19.2969 7.37294 19.3828C7.38857 19.3984 7.74794 19.9219 8.16982 20.5469C9.56044 22.6015 10.3651 23.5937 10.6229 23.5937C10.6698 23.5937 11.0136 23.3047 11.3964 22.9453C12.0761 22.3047 12.7792 21.8594 13.2401 21.7656L13.4745 21.7187L14.3261 23.7265C15.1073 25.5937 15.3886 26.0937 15.6308 26.0937C15.6698 26.0937 15.787 26.0156 15.8808 25.914C16.0136 25.7812 16.1854 25.2031 16.6308 23.414C17.162 21.2734 17.2167 21.0937 17.3729 21.0937C17.662 21.1015 18.1542 21.375 18.7401 21.8672C19.0526 22.125 19.3495 22.3437 19.3964 22.3437C19.4354 22.3437 19.6073 22.2109 19.7636 22.039C20.1464 21.6406 20.4667 20.8125 20.5214 20.1015L20.5683 19.539L22.2167 20.3672C23.7792 21.1484 23.8886 21.2187 24.2479 21.6562C24.7323 22.25 24.9354 22.3828 25.1464 22.2656C25.2323 22.2187 25.3417 22.1172 25.3886 22.0312C25.4979 21.8359 25.4276 21.7031 24.8495 21L24.412 20.4531L20.9901 18.7422C19.1151 17.8047 17.5214 17.0312 17.4589 17.0312C17.3729 17.0312 17.3417 16.9453 17.3417 16.7187C17.3417 16.4844 17.287 16.3515 17.1464 16.2109C16.912 15.9687 16.8339 15.9687 16.5839 16.2187C16.4042 16.3984 16.3886 16.4531 16.4354 16.8515C16.4979 17.3515 16.5683 17.5234 16.8964 17.8672C17.1229 18.1093 17.1308 18.1328 17.0839 18.7109C17.0526 19.1875 16.9745 19.4453 16.7245 19.9844C16.5136 20.4297 16.287 21.1562 16.0526 22.1094C15.5448 24.1406 15.537 24.1719 15.4745 24.0937C15.4433 24.0547 15.1229 23.3359 14.7636 22.5C14.2011 21.1719 14.0761 20.9453 13.7948 20.7031C13.1776 20.1875 12.0917 19.1015 11.7167 18.6328C11.1151 17.875 11.0917 17.7969 11.0917 16.6797C11.0917 15.7422 11.0839 15.6875 10.8964 15.5078C10.6698 15.2734 10.6151 15.2656 10.3808 15.4609ZM10.2636 17.8984C10.3417 18.3125 10.9823 19.1875 11.8651 20.0937L12.7167 20.9844L12.1542 21.2734C11.8417 21.4375 11.3651 21.7656 11.0917 22.0078C10.6229 22.4375 10.5995 22.4453 10.4901 22.2969C10.2167 21.9375 8.89638 20.0625 8.52138 19.5078L8.11513 18.9062L8.52138 18.6484C9.58388 17.9922 10.1229 17.6719 10.162 17.664C10.1933 17.6562 10.2323 17.7656 10.2636 17.8984ZM19.6542 19.2656C19.7401 19.6015 19.6386 20.414 19.4589 20.8125L19.2948 21.1875L19.0058 20.9375C18.8495 20.7969 18.4823 20.5703 18.2011 20.4453C17.9198 20.3125 17.6854 20.2031 17.6698 20.1953C17.6542 20.1797 17.7167 19.914 17.8026 19.6015C17.8964 19.2812 17.9823 18.8594 18.0058 18.6562L18.0526 18.2812L18.8261 18.6719C19.4433 18.9844 19.6151 19.1015 19.6542 19.2656ZM22.6542 25.9375V27.0312H20.9354H19.2167V25.9375V24.8437H20.9354H22.6542V25.9375ZM38.2792 25.9375V27.0312H30.9354H23.5917V25.9375V24.8437H30.9354H38.2792V25.9375ZM27.0292 31.25C27.0292 31.4765 26.7714 31.6094 25.8573 31.8359C24.9354 32.0703 24.6308 32.2578 24.4198 32.7187C24.1464 33.3203 24.4823 34 25.1151 34.1406C25.287 34.1797 26.4901 34.2187 27.7948 34.2187H30.1542V34.4844C30.1542 34.7969 29.8808 35.1719 29.5526 35.3047C29.4276 35.3515 28.7401 35.4765 28.0214 35.5859C26.3495 35.8359 24.912 35.8515 23.9667 35.625C23.6073 35.539 22.9901 35.4375 22.5839 35.3906L21.8495 35.3047L20.4745 35.789C17.7167 36.75 14.4667 37.8047 13.6308 38.0156C13.0292 38.164 12.5604 38.2344 12.0604 38.2344C11.4042 38.2422 11.3183 38.2265 10.8573 37.9765C10.1776 37.625 9.56825 37.1797 8.54482 36.3047C7.4745 35.375 5.88857 33.7578 5.98232 33.6797C6.02138 33.6484 6.3495 33.5234 6.71669 33.4062C7.61513 33.1094 8.66982 32.5859 9.56825 31.9922L10.3104 31.5L11.0136 32.3437C11.8417 33.3359 12.6464 34.1015 12.9042 34.1562C13.1308 34.1953 21.3104 32.9531 21.4823 32.8515C21.5448 32.8125 22.0604 32.4453 22.6151 32.0312C23.1776 31.6172 23.7011 31.2344 23.787 31.1875C23.8886 31.1328 24.4745 31.1015 25.4901 31.0937C26.9745 31.0937 27.0292 31.1015 27.0292 31.25ZM38.2792 32.1875V33.2812H31.7636C27.662 33.2812 25.2245 33.25 25.1933 33.2031C25.0839 33.0312 25.4823 32.8281 26.3261 32.6172C27.4745 32.3359 27.7479 32.1094 27.9198 31.3047L27.9667 31.0937H33.1229H38.2792V32.1875Z" fill="#393F4D" stroke="#393F4D" stroke-width="0.3"/>
<path d="M4.65625 35.9063C4.55469 36.0078 4.53125 36.2656 4.53125 37.5C4.53125 39.1172 4.55469 39.2188 5 39.2188C5.4375 39.2188 5.46875 39.1172 5.46875 37.5703C5.46875 36.1797 5.46875 36.1641 5.27344 35.9766C5.05469 35.75 4.82812 35.7266 4.65625 35.9063Z" fill="#393F4D" stroke="#393F4D" stroke-width="0.3"/>
<path d="M22.2266 37.2266C22.0469 37.3984 22.0312 37.4688 22.0312 38.1953C22.0312 39.0625 22.1016 39.2188 22.5 39.2188C22.9062 39.2188 22.9688 39.0625 22.9688 38.125C22.9688 37.4609 22.9453 37.25 22.8438 37.1563C22.6719 36.9766 22.4453 37 22.2266 37.2266Z" fill="#393F4D" stroke="#393F4D" stroke-width="0.3"/>
<path d="M15.5336 5.40508C14.0461 5.59912 12.9901 6.172 11.7321 7.46559L11.3281 7.89062H13.1829H15.0378L15.6346 7.33623C16.3876 6.66171 16.9936 6.30136 17.8751 6.0334C18.4627 5.85784 18.527 5.82088 18.3526 5.74696C18.0771 5.64532 16.3692 5.30344 16.2131 5.31268C16.1488 5.32192 15.8366 5.35888 15.5336 5.40508Z" fill="#FF008A"/>
<path d="M19.2188 25.9375V27.0312H20.9375H22.6562V25.9375V24.8438H20.9375H19.2188V25.9375Z" fill="#FF008A"/>
<path d="M27.9691 31.3047C27.9691 31.6094 27.6644 32.1094 27.3675 32.3125C27.2269 32.4062 26.7269 32.5781 26.2582 32.6953C25.4222 32.8984 25.1644 33.0312 25.2738 33.2031C25.305 33.2578 27.3832 33.2812 31.805 33.2812H38.2816V32.1875V31.0938H35.3675H32.4535L32.2738 31.3359C31.7503 32.0391 30.7894 32.0547 30.2582 31.3594L30.0628 31.0938H29.016H27.9691V31.3047Z" fill="#FF008A"/>
</g>
<defs>
<clipPath id="clip0_15376_12968">
<rect width="40" height="40" fill="white"/>
</clipPath>
</defs>
</svg>
