<svg width="40" height="40" viewBox="0 0 40 40" fill="none" xmlns="http://www.w3.org/2000/svg">
<g clip-path="url(#clip0_15376_14257)">
<rect x="3.33203" y="37.5" width="17.5" height="1.66667" fill="#FF008A"/>
<path d="M38.1366 8.84112L39.0028 11.1529C39.2484 11.8085 39.0163 12.547 38.4399 12.9443C37.9861 13.257 37.3989 13.3007 36.9038 13.0586L34.6862 11.9737C32.9632 11.1309 32.7857 8.74458 34.365 7.65609C35.7084 6.73021 37.5642 7.31331 38.1366 8.84112Z" fill="#FF008A"/>
<path d="M18.8228 27.0833H6.54362C6.35439 27.0833 6.1708 27.0189 6.02304 26.9007C5.40793 26.4086 5.75589 25.4166 6.54362 25.4166H18.8228C19.5652 25.4166 19.937 26.3142 19.412 26.8392C19.2558 26.9955 19.0438 27.0833 18.8228 27.0833Z" fill="#FF008A"/>
<path d="M0.296875 0.109358C0.21875 0.164045 0.125 0.30467 0.078125 0.421858C0.0234375 0.562483 0 3.85154 0 10.4609V20.289L0.179688 20.4531C0.359375 20.625 0.398438 20.625 3.01562 20.625C5.67188 20.625 5.67969 20.625 5.83594 20.4453C6.11719 20.1484 6.10156 19.8359 5.78906 19.5234L5.5625 19.2969H3.44531H1.32812V11.4219C1.32812 7.09373 1.35156 3.05467 1.38281 2.43748L1.42969 1.32811H11.9844H22.5391L23.5 3.07811L24.4531 4.82811V12.0625V19.2969H21.7656C20.1719 19.2969 18.9922 19.3281 18.8672 19.375C18.6719 19.4531 18.4375 19.8515 18.4375 20.1172C18.4375 20.1875 18.5234 20.3281 18.6328 20.4297L18.8203 20.625H23.1797H27.5391L27.6328 21.1094C27.9219 22.6172 29.1562 23.914 30.8125 24.4375C31.4375 24.6406 32.7891 24.6094 33.4375 24.3828C35.0781 23.8047 36.125 22.5859 36.5156 20.7578L36.5625 20.5469H38.1094C39.6328 20.5469 39.6641 20.5469 39.8281 20.3672L40 20.1875V15.7969V11.414L38.3047 8.70311C36.4453 5.73436 36.0078 5.18748 35.1172 4.71092C33.9609 4.10936 33.5 4.05467 29.1094 3.99217L25.5156 3.9453L24.5312 2.12498C23.9844 1.12498 23.4766 0.24217 23.3984 0.156233C23.2578 -1.71661e-05 23.125 -1.71661e-05 11.8438 -1.71661e-05C2.60156 0.00779533 0.40625 0.0234203 0.296875 0.109358ZM31 9.09373C31.0156 12.8203 31.0156 12.8437 31.1875 13.0234L31.3516 13.2031H35.0156H38.6719V16.2109V19.2187H37.5547H36.4375L36.2969 18.75C35.9062 17.4609 34.7969 16.3203 33.4688 15.8515C32.8906 15.6406 31.8125 15.5703 31.1562 15.6953C29.6562 15.9922 28.2734 17.2187 27.7969 18.6797L27.625 19.2187H26.7031H25.7812V12.2656V5.31248L28.3828 5.32811L30.9766 5.35155L31 9.09373ZM34.2422 5.80467C34.6484 6.0078 34.9453 6.22655 35.2109 6.51561C35.5234 6.86717 38.6719 11.7656 38.6719 11.9062C38.6719 11.9297 37.2344 11.9531 35.4688 11.9531H32.2656V8.70311V5.45311L32.9609 5.48436C33.5703 5.51561 33.7344 5.55467 34.2422 5.80467ZM33.3203 17.1719C34.6406 17.789 35.4219 19.2265 35.1719 20.5625C34.9219 21.9219 33.9609 22.8984 32.625 23.1719C32.0859 23.2812 31.9766 23.2812 31.4375 23.1719C30.0781 22.8984 29.1172 21.8984 28.8906 20.5234C28.6328 18.9844 29.6641 17.4375 31.2422 16.9844C31.8281 16.8125 32.7188 16.8906 33.3203 17.1719Z" fill="#203066"/>
<path d="M31.249 18.2031C30.8115 18.4062 30.4287 18.7656 30.21 19.1797C29.9678 19.625 29.9756 20.5312 30.21 20.9844C30.5381 21.6016 31.3584 22.1094 32.0303 22.1094C32.4365 22.1094 33.0537 21.8672 33.3662 21.5859C33.7881 21.2031 33.999 20.7734 34.0459 20.1875C34.0772 19.7891 34.0459 19.6328 33.8897 19.2891C33.5303 18.5078 32.9522 18.1094 32.1084 18.0703C31.7178 18.0469 31.5225 18.0781 31.249 18.2031ZM32.5225 19.5156C32.7568 19.7266 32.8272 19.9844 32.7334 20.2812C32.624 20.6094 32.3897 20.7812 32.0459 20.7812C31.6787 20.7812 31.4912 20.6562 31.3584 20.3359C31.249 20.0937 31.2568 20.0391 31.3818 19.7812C31.6162 19.2969 32.1475 19.1719 32.5225 19.5156Z" fill="#203066"/>
<path d="M4.64063 3.04687C4.42188 3.13281 4.21875 3.42187 4.21875 3.65625C4.21875 3.75781 4.32031 3.94531 4.44531 4.07031L4.67969 4.29688L11.875 4.28125L19.0781 4.25781L19.2266 4.07031C19.3906 3.875 19.4219 3.51562 19.2969 3.28125C19.2578 3.20312 19.1094 3.10156 18.9766 3.05469C18.6719 2.95312 4.89844 2.9375 4.64063 3.04687Z" fill="#203066"/>
<path d="M9.96113 10.2196C9.45565 10.5077 8.95017 11.2568 8.65752 12.1211C8.41809 12.8413 8.24073 14.1666 8.38261 14.1666C8.42696 14.1666 8.87923 14.037 9.3847 13.8785C11.4687 13.2159 13.6946 13.2159 15.7076 13.8785C16.1776 14.037 16.5856 14.1666 16.6122 14.1666C16.6388 14.1666 16.6654 13.9217 16.6654 13.6192C16.6565 12.4236 16.0091 10.9543 15.2021 10.3348C14.7676 10.0035 14.6967 9.98912 12.5417 10.0035C10.8391 10.0035 10.236 10.0612 9.96113 10.2196Z" fill="#FF008A"/>
<path d="M4.71094 5.75781C4.48437 5.80469 4.21875 6.14062 4.21875 6.38281C4.21875 6.49219 4.32031 6.67187 4.44531 6.80469L4.67187 7.03125H11.8359H18.9922L19.1797 6.83594C19.5234 6.5 19.4141 5.94531 18.9766 5.78906C18.7969 5.72656 16.6797 5.70312 11.8047 5.71094C8 5.71875 4.80469 5.74219 4.71094 5.75781Z" fill="#203066"/>
<path d="M9.69531 9.6875C8.52344 10.1172 7.61719 11.1094 7.35156 12.2734C7.30469 12.4609 7.26562 12.875 7.26562 13.1797C7.26562 13.75 7.26562 13.75 7.05469 13.75C6.42188 13.75 5.79688 14.1563 5.53906 14.7266C5.34375 15.1484 5.32812 16.8125 5.50781 17.25C5.75 17.8281 6.30469 18.2031 6.90625 18.2031H7.25L7.30469 18.5313C7.36719 18.8984 7.75 20.1328 7.89062 20.3906C7.9375 20.4766 8.13281 20.7422 8.32812 20.9766L8.67188 21.4063H7.25C5.72656 21.4063 5.07812 21.5 4.29688 21.8125C2.83594 22.3984 1.59375 23.6094 0.992188 25.0469C0.578125 26.0156 0.546875 26.4219 0.546875 30.2031C0.546875 33.5703 0.539062 33.6953 0.390625 33.9063C0.0703125 34.3594 0 34.7266 0 35.9766C0 37.1484 0 37.1719 0.242188 37.6484C0.664062 38.4844 1.42188 38.9063 2.51562 38.9063H3.04688V39.25C3.04688 39.4766 3.10156 39.6563 3.21094 39.7969L3.36719 40H12.2578H21.1484L21.3125 39.8203C21.4375 39.6875 21.4844 39.5391 21.4844 39.2734V38.9063H22.0938C22.4531 38.9063 22.8594 38.8516 23.0703 38.7813C23.5703 38.6094 24.1562 38.0703 24.3828 37.5625C24.5547 37.1797 24.5703 37.0469 24.5703 35.9297V34.7109L24.3203 34.2188L24.0625 33.7266V30.4219C24.0625 28.4844 24.0312 26.8672 23.9766 26.5156C23.875 25.7734 23.5469 24.8438 23.1562 24.1953C22.7812 23.5859 21.8203 22.625 21.2344 22.2734C20.0703 21.5938 19.2188 21.4063 17.2578 21.4063H15.8594L16.2031 20.9766C16.3984 20.7422 16.5938 20.4844 16.6328 20.4063C16.7812 20.125 17.1797 18.9063 17.2266 18.5547L17.2812 18.2031H17.625C18.0703 18.2031 18.4141 18.0547 18.7266 17.7266C19.0938 17.3359 19.1406 17.1328 19.1406 15.9922C19.1406 15.1563 19.1094 14.8984 18.9922 14.6406C18.7891 14.2031 18.3906 13.9141 17.8281 13.8047L17.3672 13.7188L17.2812 12.9063C17.2109 12.2266 17.1484 11.9922 16.9219 11.5234C16.5625 10.7891 16 10.2344 15.2422 9.85938L14.6562 9.57031L12.3906 9.55469C10.3047 9.53125 10.0859 9.54688 9.69531 9.6875ZM14.4609 10.9141C15.0547 11.1016 15.7188 11.7656 15.8906 12.3438C16 12.7188 16.0547 13.2031 15.9922 13.2031C15.9766 13.2031 15.6328 13.1328 15.2266 13.0469C13.1562 12.6172 11.1016 12.6563 8.71875 13.1797L8.49219 13.2266L8.55469 12.8438C8.65625 12.1172 8.99219 11.5547 9.53125 11.2031C10.1094 10.8203 10.3047 10.7891 12.2344 10.7813C13.7344 10.7813 14.1172 10.8047 14.4609 10.9141ZM14.9141 14.2891C15.3125 14.375 15.6641 14.4609 15.6875 14.4844C15.8281 14.6328 15.1953 15.4063 14.7578 15.6328C14.0547 15.9844 12.4531 16.1719 11.3672 16.0156C9.96094 15.8203 9.35938 15.5 8.98438 14.7578L8.83594 14.4766L9.4375 14.3438C10.6172 14.0938 10.9219 14.0703 12.5391 14.1016C13.8203 14.1172 14.3359 14.1641 14.9141 14.2891ZM7.25 15.9922C7.22656 16.8672 7.21875 16.9141 7.0625 16.9375C6.74219 16.9844 6.64062 16.7656 6.64062 16.0469C6.64062 15.2578 6.71094 15.0781 7.03906 15.0781H7.27344L7.25 15.9922ZM17.7969 15.1719C17.8594 15.2344 17.8906 15.5391 17.8906 16.0156C17.8906 16.8125 17.8359 16.9531 17.5234 16.9531C17.3438 16.9531 17.3438 16.9453 17.3438 16.0156C17.3438 15.0859 17.3438 15.0781 17.5234 15.0781C17.625 15.0781 17.7422 15.1172 17.7969 15.1719ZM9.29688 16.7891C10.8359 17.5938 14.2969 17.4922 15.6328 16.6016C15.7969 16.4922 15.9531 16.4063 15.9766 16.4063C16.0469 16.4063 16.0156 18.0156 15.9375 18.4453C15.8281 19.0156 15.3906 19.8906 15.0078 20.2891C12.9141 22.4531 9.32031 21.4922 8.63281 18.5781C8.57031 18.2969 8.51562 17.7031 8.51562 17.1953V16.3125L8.69531 16.4375C8.78906 16.5078 9.0625 16.6641 9.29688 16.7891ZM19.0234 22.8516C20.6953 23.2031 22.1172 24.5625 22.5391 26.2109C22.625 26.5547 22.6562 27.1094 22.6562 28.3359V30H22.0781H21.4922L21.4688 27.5313L21.4453 25.0625L21.2266 24.875L21.0078 24.6875H12.2656H3.52344L3.32031 24.8594L3.125 25.0391L3.08594 27.5L3.05469 29.9609L2.46094 29.9844L1.85938 30.0078L1.89062 28.2266C1.92188 26.5313 1.92969 26.4141 2.13281 25.8594C2.71875 24.2266 4.14844 23.0469 5.85938 22.7891C5.96875 22.7734 8.85156 22.75 12.2656 22.75C17.4375 22.7422 18.5703 22.7578 19.0234 22.8516ZM20.1562 27.2656V28.5938H12.2656H4.375V27.2656V25.9375H12.2656H20.1562V27.2656ZM20.1562 31.6406V33.3594L19.8438 33.6406C19.6719 33.7969 19.4375 34.1172 19.3203 34.3594C19.1094 34.7891 19.1016 34.8516 19.1016 35.9766C19.1016 37.0938 19.1094 37.1641 19.3125 37.5391C19.4219 37.75 19.6641 38.0703 19.8359 38.2422C20.0156 38.4063 20.1562 38.5781 20.1562 38.6094C20.1562 38.6406 16.6094 38.6719 12.2656 38.6719C7.04688 38.6719 4.375 38.6484 4.375 38.5938C4.375 38.5469 4.51562 38.3828 4.69531 38.2266C4.86719 38.0703 5.10156 37.7578 5.21875 37.5469C5.39844 37.1875 5.42188 37.0391 5.45312 36.125C5.5 34.7734 5.39062 34.3984 4.80469 33.7656L4.375 33.2969V31.6094V29.9219H12.2656H20.1562V31.6406ZM3.10938 32.125L3.13281 32.9688H2.79688C2.60938 32.9688 2.32812 32.9922 2.17188 33.0156L1.875 33.0703V32.1563V31.2422L2.48438 31.2656L3.08594 31.2891L3.10938 32.125ZM22.6562 32.1484V33.0469H22.0703H21.4844V32.1484V31.25H22.0703H22.6562V32.1484ZM3.64844 34.4531C4.10156 34.7266 4.17969 34.9297 4.17969 35.8984C4.17969 36.8906 4.0625 37.2031 3.59375 37.4375C3.25 37.6094 2.29688 37.625 1.91406 37.4688C1.4375 37.2656 1.32812 36.9766 1.32812 35.8828C1.32812 34.9688 1.33594 34.9219 1.53906 34.6875C1.82031 34.3516 1.96094 34.3047 2.73438 34.3047C3.25781 34.2969 3.45312 34.3281 3.64844 34.4531ZM22.7109 34.4531C23.1719 34.7266 23.2422 34.9297 23.2422 35.9375C23.2422 36.9531 23.1328 37.25 22.6875 37.4609C22.3047 37.6406 21.2031 37.6172 20.8828 37.4219C20.4766 37.1797 20.3906 36.9219 20.3906 35.9219C20.3906 34.9141 20.4922 34.6563 20.9453 34.4297C21.3359 34.2344 22.3828 34.25 22.7109 34.4531Z" fill="#203066"/>
<path d="M10.882 19.3751C10.5773 19.5001 10.4445 19.9767 10.6242 20.3048C10.8585 20.7501 12.3273 20.9923 13.2492 20.7423C14.0304 20.5314 14.3039 20.0079 13.8664 19.5704C13.6476 19.3517 13.4523 19.3282 13.007 19.4923C12.5695 19.6485 12.1789 19.6329 11.6632 19.4532C11.171 19.2814 11.132 19.2735 10.882 19.3751Z" fill="#203066"/>
<path d="M8.82031 30.7812L8.58594 31.0078L8.60937 33.7812C8.63281 36.5547 8.63281 36.5625 8.8125 36.7344L8.99219 36.9141H12.2656H15.5391L15.7187 36.7344C15.8984 36.5625 15.8984 36.5547 15.9219 33.7812L15.9453 31.0078L15.7109 30.7812L15.4844 30.5469H12.2656H9.04687L8.82031 30.7812ZM14.6094 33.7109V35.625H12.2656H9.92187V33.7109V31.7969H12.2656H14.6094V33.7109Z" fill="#203066"/>
<path d="M26.9123 26.8516C26.5607 26.9375 26.4045 27.1875 26.4045 27.6719V28.125H25.467C24.5685 28.125 24.5138 28.1328 24.3342 28.3203C24.0685 28.5781 24.0763 28.9531 24.3576 29.3125C24.4748 29.4688 24.9826 30.0313 25.4904 30.5703L26.4045 31.5391V33.6484V35.7578L26.6076 35.9453L26.8107 36.1328H33.2013H39.592L39.7951 35.9453L39.9982 35.7578V31.4844V27.2109L39.7951 27.0234L39.592 26.8359L33.3342 26.8281C29.8888 26.8203 26.9982 26.8281 26.9123 26.8516ZM38.6701 31.4844V34.7656H33.2013H27.7326V32.8906V31.0234L27.2717 30.4922C27.0217 30.1953 26.7248 29.875 26.6076 29.7734C26.4982 29.6641 26.4045 29.5547 26.4045 29.5156C26.4045 29.4844 26.631 29.4531 26.9045 29.4531C27.3576 29.4531 27.4279 29.4297 27.5685 29.25C27.6857 29.0938 27.7326 28.9297 27.7326 28.625V28.2031H33.2013H38.6701V31.4844Z" fill="#203066"/>
<path d="M29.0625 29.6641C28.8125 29.7578 28.6719 29.9531 28.6719 30.2109C28.6719 30.8594 28.8906 30.9375 30.7891 30.9375C32.5859 30.9375 32.8828 30.8438 32.8906 30.2969C32.8984 29.6719 32.7031 29.6094 30.7656 29.6172C29.8906 29.6172 29.125 29.6406 29.0625 29.6641Z" fill="#203066"/>
<path d="M33.7726 29.6875C33.4288 29.8281 33.3117 30.4218 33.5851 30.6953C33.8976 31.0078 34.9523 31.0156 35.257 30.7187C35.507 30.4687 35.4757 30.0312 35.2023 29.7968C35.0226 29.6406 34.9054 29.6093 34.4679 29.6172C34.1788 29.6172 33.8663 29.6484 33.7726 29.6875Z" fill="#203066"/>
<path d="M36.2106 29.7031C35.82 29.9297 35.7496 30.3359 36.0465 30.6797C36.2262 30.8828 36.2731 30.8984 36.859 30.8984C37.4137 30.8984 37.5075 30.875 37.6871 30.7109C38.0153 30.3984 37.9371 29.9219 37.5231 29.7031C37.3043 29.5859 36.4137 29.5859 36.2106 29.7031Z" fill="#203066"/>
<path d="M29.0225 32.125C28.6475 32.3281 28.5538 32.8047 28.8194 33.1328L28.9679 33.3203H33.3585H37.7491L37.8975 33.1328C38.046 32.9531 38.0929 32.625 37.9991 32.3828C37.8663 32.0391 37.7413 32.0313 33.3429 32.0313C30.4835 32.0391 29.1319 32.0625 29.0225 32.125Z" fill="#203066"/>
</g>
<defs>
<clipPath id="clip0_15376_14257">
<rect width="40" height="40" fill="white"/>
</clipPath>
</defs>
</svg>
