<svg width="48" height="48" viewBox="0 0 48 48" fill="none" xmlns="http://www.w3.org/2000/svg">
<g clip-path="url(#clip0_15376_13007)">
<path d="M39.0188 8.25937C38.7938 8.57812 38.6438 8.86875 38.6906 8.90625C38.7281 8.94375 39.6656 9.62812 40.7719 10.4156L42.7875 11.85L42.3656 12.0281C41.5688 12.375 39.7594 12.9281 38.8406 13.1156C35.5312 13.7906 32.0625 13.5938 28.9688 12.5531C28.4813 12.3937 27 11.7844 25.6875 11.2031L23.2969 10.1531L23.25 12.2625L23.2031 14.3812L22.9688 14.4375C22.0875 14.6812 21.0094 15.6 20.6344 16.4437C20.4188 16.9312 20.25 17.8125 20.25 18.4219C20.2594 18.8531 20.5875 19.725 20.9625 20.2687C21.4031 20.8969 22.3875 21.5062 23.2594 21.6937C23.4563 21.7406 23.5406 21.8531 23.7188 22.3312C24.2063 23.7 25.2281 25.1156 26.3344 25.9688L27 26.4844V27.1875V27.8906L23.2313 29.1469C21.15 29.8312 19.0969 30.5625 18.6656 30.7687C17.325 31.4062 16.275 32.6719 15.8906 34.125C15.7781 34.5562 15.75 35.7188 15.75 40.9406V47.25H31.5H47.25V40.9406C47.25 35.7188 47.2219 34.5562 47.1094 34.125C46.725 32.6719 45.675 31.4062 44.3344 30.7687C43.9031 30.5625 41.85 29.8312 39.7781 29.1469L36 27.8906V27.1875V26.4844L36.6656 25.9688C37.7719 25.1156 38.7938 23.7 39.2812 22.3312C39.4594 21.8531 39.5438 21.7406 39.7406 21.6937C40.6125 21.5062 41.5969 20.8969 42.0375 20.2687C42.4125 19.725 42.7406 18.8531 42.75 18.4219C42.75 16.7156 41.9625 15.3469 40.5656 14.6719L39.9094 14.3625L40.6031 14.1562C40.9875 14.0437 41.5781 13.8562 41.9156 13.725C42.2625 13.5938 42.6469 13.4719 42.7781 13.4437C43.0313 13.4062 45.6563 12.3094 45.7688 12.1969C45.8438 12.1312 42.9094 9.99375 42.5906 9.87187C42.4969 9.83437 41.7563 9.32812 40.9406 8.74687C40.1344 8.16562 39.4594 7.6875 39.4406 7.6875C39.4313 7.6875 39.2438 7.95 39.0188 8.25937ZM26.6906 13.3125C28.575 14.1281 30.6563 14.6906 32.6156 14.9156C33.5719 15.0187 36.9375 14.9812 37.8656 14.85L38.2781 14.7937L38.2219 17.5875C38.1844 20.0344 38.1562 20.4844 37.9781 21.1219C37.35 23.4844 35.4563 25.3781 33.1313 25.9688C32.1656 26.2219 30.8344 26.2219 29.8688 25.9688C27.5438 25.3781 25.6594 23.4937 25.0125 21.1219C24.825 20.4469 24.8156 20.1 24.7688 16.425L24.7313 12.4688L25.1906 12.6656C25.4344 12.7781 26.1094 13.0687 26.6906 13.3125ZM23.25 18V20.0719L22.9969 19.9312C22.6219 19.7344 22.1531 19.2281 21.9938 18.825C21.6844 18.1031 21.8625 17.1187 22.3875 16.5562C22.5938 16.3406 23.1375 15.9375 23.2313 15.9375C23.2406 15.9375 23.25 16.8656 23.25 18ZM40.5656 16.5187C40.9594 16.9312 41.1563 17.4187 41.1563 18C41.1563 18.7969 40.6875 19.575 40.0125 19.9312L39.75 20.0719V18V15.9281L40.0125 16.0687C40.1531 16.1437 40.3969 16.3406 40.5656 16.5187ZM29.25 27.4875C29.7844 27.6656 30.0563 27.6937 31.5 27.6937C32.9438 27.6937 33.2156 27.6656 33.75 27.4875C34.0875 27.375 34.3875 27.2812 34.4344 27.2812C34.4719 27.2812 34.5 27.4594 34.5 27.675V28.0781L33 29.2781L31.5 30.4688L30 29.2781L28.5 28.0781V27.675C28.5 27.4594 28.5281 27.2812 28.575 27.2812C28.6125 27.2812 28.9125 27.375 29.25 27.4875ZM28.9969 30.525L30.2719 31.5469L29.2219 32.6062L28.1719 33.6562L27.6656 31.6312C27.2438 29.9531 27.1781 29.5875 27.2906 29.5219C27.5156 29.3719 27.6844 29.475 28.9969 30.525ZM35.7094 29.5219C35.8219 29.5875 35.7563 29.9531 35.3344 31.6312L34.8281 33.6562L33.7781 32.6062L32.7188 31.5469L34.05 30.4875C34.7719 29.9156 35.4188 29.4375 35.475 29.4375C35.5312 29.4375 35.6344 29.475 35.7094 29.5219ZM26.475 33.4219C26.925 35.25 27.3281 36.75 27.3656 36.75C27.3938 36.75 28.3406 35.8312 29.4563 34.7156L31.5 32.6719L33.5438 34.7156C34.6594 35.8312 35.6063 36.75 35.6344 36.75C35.6719 36.75 36.075 35.25 36.525 33.4219C36.9844 31.5937 37.3875 30.0938 37.425 30.0938C37.4719 30.0938 37.5 31.9312 37.5 34.1719V38.25H31.5H25.5V34.1719C25.5 31.9312 25.5281 30.0938 25.575 30.0938C25.6125 30.0938 26.0156 31.5937 26.475 33.4219ZM24 35.2031V39.75H31.5H39V35.2031C39 32.7 39.0281 30.6562 39.0656 30.6562C39.1031 30.6562 39.6094 30.8156 40.1906 31.0031L41.25 31.35V38.55V45.75H31.5H21.75V38.55V31.35L22.7625 31.0125C23.3156 30.825 23.8219 30.6656 23.8875 30.6656C23.9719 30.6562 24 31.6219 24 35.2031ZM20.25 38.8125V45.75H18.75H17.25V40.7531C17.25 38.0156 17.2969 35.4656 17.3438 35.0906C17.5219 33.7125 18.3844 32.5875 19.6406 32.0719C19.9031 31.9687 20.1375 31.8844 20.1844 31.8844C20.2219 31.875 20.25 34.9969 20.25 38.8125ZM43.65 32.2125C44.6906 32.7 45.4969 33.8531 45.6563 35.0906C45.7031 35.4656 45.75 38.0156 45.75 40.7531V45.75H44.25H42.75V38.8031V31.8656L42.9656 31.9312C43.0781 31.9594 43.3875 32.0906 43.65 32.2125Z" fill="#393F4D"/>
<path d="M26.4375 15.9375C26.3156 16.0594 26.25 16.2469 26.25 16.5C26.25 16.7531 26.3156 16.9406 26.4375 17.0625C26.5594 17.1844 26.7469 17.25 27 17.25C27.2531 17.25 27.4406 17.1844 27.5625 17.0625C27.6844 16.9406 27.75 16.7531 27.75 16.5C27.75 16.2469 27.6844 16.0594 27.5625 15.9375C27.4406 15.8156 27.2531 15.75 27 15.75C26.7469 15.75 26.5594 15.8156 26.4375 15.9375Z" fill="#393F4D"/>
<path d="M35.4375 15.9375C35.3156 16.0594 35.25 16.2469 35.25 16.5C35.25 16.7531 35.3156 16.9406 35.4375 17.0625C35.5594 17.1844 35.7469 17.25 36 17.25C36.2531 17.25 36.4406 17.1844 36.5625 17.0625C36.6844 16.9406 36.75 16.7531 36.75 16.5C36.75 16.2469 36.6844 16.0594 36.5625 15.9375C36.4406 15.8156 36.2531 15.75 36 15.75C35.7469 15.75 35.5594 15.8156 35.4375 15.9375Z" fill="#393F4D"/>
<path d="M28.5195 21.4593C28.6039 22.3687 29.2789 23.2968 30.1695 23.7375C30.807 24.0468 32.1945 24.0468 32.832 23.7375C33.7227 23.2968 34.3977 22.3687 34.482 21.4593L34.5289 21H33.7133C32.9352 21 32.907 21.0093 32.907 21.2062C32.907 21.8062 32.1945 22.4062 31.5008 22.4062C30.807 22.4062 30.0945 21.8062 30.0945 21.2062C30.0945 21.0093 30.0664 21 29.2883 21H28.4727L28.5195 21.4593Z" fill="#393F4D"/>
<path d="M0.75 14.9719C0.75 16.7437 0.890625 19.4062 1.45312 27.8438C1.8375 33.6937 2.18438 38.7094 2.2125 38.9812L2.26875 39.4781L3.38438 40.2281L4.5 40.9687V43.6219C4.5 46.0969 4.50938 46.2844 4.6875 46.575C5.07188 47.2031 5.25 47.25 7.5 47.25C9.75 47.25 9.92813 47.2031 10.3125 46.575C10.4906 46.2844 10.5 46.0969 10.5 43.6219V40.9687L11.6156 40.2281L12.7313 39.4781L12.7875 38.9812C12.8156 38.7094 13.1625 33.6937 13.5469 27.8438C14.1094 19.4062 14.25 16.7437 14.25 14.9719V12.75H7.5H0.75V14.9719ZM3.75 15V15.75H3H2.25V15V14.25H3H3.75V15ZM6.75 15V15.75H6H5.25V15V14.25H6H6.75V15ZM9.75 15V15.75H9H8.25V15V14.25H9H9.75V15ZM12.75 15V15.75H12H11.25V15V14.25H12H12.75V15ZM12.6188 17.6812C12.5906 17.925 12.5625 18.2625 12.5625 18.4312V18.75H7.5H2.4375V18.4875C2.4375 18.3469 2.40938 18.0094 2.38125 17.7375L2.31563 17.25H7.5H12.6844L12.6188 17.6812ZM12.4406 20.6437C12.4125 20.8687 12.3375 21.8812 12.2719 22.8937L12.1594 24.75H7.5H2.84063L2.72813 22.8937C2.6625 21.8812 2.5875 20.8687 2.55938 20.6437L2.5125 20.25H7.5H12.4875L12.4406 20.6437ZM11.6531 32.1281C11.4375 35.3719 11.2594 38.1281 11.25 38.2687C11.25 38.4937 11.1094 38.6156 10.3406 39.1406L9.42188 39.75H7.5H5.57812L4.65938 39.1406C3.89063 38.6156 3.75 38.4937 3.75 38.2687C3.74063 38.1281 3.5625 35.3719 3.34688 32.1281L2.94375 26.25H7.5H12.0563L11.6531 32.1281ZM9 43.5V45.75H7.5H6V43.5V41.25H7.5H9V43.5Z" fill="#393F4D"/>
<path d="M29.2973 0.937471C24.741 1.89372 21.366 5.28747 20.4379 9.83435C20.2692 10.6687 20.2504 11.1 20.2598 14.0343C20.2598 16.875 20.2785 17.25 20.391 16.9031C20.5785 16.2937 20.9348 15.7406 21.4598 15.2531C21.9285 14.8125 22.7629 14.3437 23.091 14.3437C23.241 14.3437 23.2504 14.175 23.2504 12.1968V10.05L25.5285 11.0625C28.0317 12.1781 29.0067 12.5437 30.366 12.8812C31.8942 13.275 33.1879 13.425 34.9692 13.425C36.8067 13.4156 38.0629 13.2656 39.7129 12.8437C40.8942 12.5343 42.5817 11.9156 42.5442 11.8031C42.5254 11.7656 41.6535 11.1093 40.5942 10.3593C39.5348 9.60935 38.6442 8.96247 38.5973 8.9156C38.5129 8.83122 39.3567 7.63122 39.4879 7.66872C39.5442 7.68747 40.2379 8.1656 41.0348 8.7281C41.8317 9.29997 42.4973 9.74997 42.5254 9.73122C42.6285 9.61872 42.0379 7.91247 41.5785 6.97497C40.0223 3.8156 37.1817 1.65935 33.666 0.937471C32.4285 0.684345 30.4973 0.684345 29.2973 0.937471Z" fill="#FF008A"/>
<path d="M42.0484 13.7437C41.7391 13.8749 41.1578 14.0624 40.7547 14.1749L40.0234 14.3812L40.4922 14.5499C41.3641 14.878 42.3109 15.928 42.6109 16.903C42.7234 17.2593 42.7422 17.1093 42.7422 15.3937C42.7516 14.353 42.7234 13.4999 42.6859 13.5093C42.6391 13.5093 42.3578 13.6218 42.0484 13.7437Z" fill="#FF008A"/>
<path d="M3.75 21.2437C3.75 22.3781 3.88125 22.7062 4.44375 23.0531C4.74375 23.2406 4.89375 23.25 7.5 23.25C10.1063 23.25 10.2563 23.2406 10.5563 23.0531C11.1188 22.7062 11.25 22.3781 11.25 21.2437V20.25H7.5H3.75V21.2437Z" fill="#FF008A"/>
<path d="M6.6682 30.1031C6.20883 30.2438 5.47758 31.0219 5.34633 31.5C5.2807 31.7531 5.25258 32.625 5.27133 33.9844L5.29945 36.075L5.5807 36.4781C5.74008 36.7031 6.04945 37.0125 6.27445 37.1719C6.64945 37.4344 6.73383 37.4531 7.50258 37.4531C8.27133 37.4531 8.3557 37.4344 8.7307 37.1719C8.9557 37.0125 9.26508 36.7031 9.42445 36.4781L9.7057 36.075V33.75V31.425L9.42445 31.0219C9.26508 30.7969 8.96508 30.4875 8.74945 30.3375C8.42133 30.1125 8.25258 30.0656 7.67133 30.0375C7.29633 30.0188 6.84633 30.0469 6.6682 30.1031Z" fill="#FF008A"/>
</g>
<defs>
<clipPath id="clip0_15376_13007">
<rect width="48" height="48" fill="white"/>
</clipPath>
</defs>
</svg>
