<svg width="40" height="40" viewBox="0 0 40 40" fill="none" xmlns="http://www.w3.org/2000/svg">
<g clip-path="url(#clip0_15376_14201)">
<path d="M11.6406 37.1094L27.6953 37.7734L28.2812 38.6719H11.6406V37.1094Z" fill="#FF008A"/>
<path d="M21.7188 13.9844H18.7561L18.2031 17.2656L21.7188 17.0195V13.9844Z" fill="#FF008A"/>
<rect x="30.625" y="4.29688" width="8.125" height="1.32812" fill="#FF008A"/>
<path d="M1.71875 28.4375H15.625C16.8763 28.4375 17.8906 29.4519 17.8906 30.7031H1.71875V28.4375Z" fill="#FF008A"/>
<path d="M17.9846 0.617184C16.9064 0.671871 16.883 0.679684 16.8674 1.25C16.8674 1.44531 16.8361 1.77343 16.8127 1.98437C16.758 2.35156 16.7424 2.36718 16.383 2.50781L16.0002 2.65625L15.5236 2.22656C14.7424 1.51562 14.5783 1.53906 13.6096 2.46093L12.9064 3.125H7.71895C1.86738 3.125 2.10176 3.10156 1.41426 3.71875C1.20332 3.91406 0.94551 4.23437 0.843947 4.4375L0.66426 4.80468L0.640822 17.3359C0.617385 31.6719 0.554885 30.4141 1.32051 31.1797C2.05488 31.9141 1.67207 31.875 8.49239 31.875H14.3752V33.125V34.375H13.7658C12.9768 34.375 12.5236 34.5312 12.0314 34.9766C11.3361 35.6016 11.2971 35.7344 11.2658 37.5469C11.2346 39.1172 11.2346 39.125 11.4143 39.25C11.5783 39.3594 12.383 39.375 20.0002 39.375C27.6174 39.375 28.4221 39.3594 28.5861 39.25C28.7658 39.125 28.7658 39.1172 28.7346 37.5469C28.7033 35.7344 28.6643 35.6016 27.969 34.9766C27.4768 34.5312 27.0236 34.375 26.2346 34.375H25.6252V33.125V31.875H31.5471C38.219 31.875 37.8986 31.9062 38.5861 31.2812C38.7971 31.0859 39.0549 30.7656 39.1565 30.5625L39.3361 30.1953L39.3596 17.6641C39.383 3.33593 39.4377 4.58593 38.6877 3.82812C37.9455 3.08593 38.2736 3.125 32.2658 3.125H27.0627L26.5627 2.60937C25.9221 1.96093 25.4768 1.6875 25.1643 1.75781C25.0393 1.78125 24.7268 2 24.4611 2.24218L23.9768 2.67187L23.6096 2.51562L23.2424 2.35937L23.1799 1.70312C23.0861 0.789059 23.0705 0.726559 22.8752 0.679684C22.5783 0.609371 19.0158 0.562496 17.9846 0.617184ZM21.8752 2.52343C21.8752 2.92187 21.9143 3.22656 21.9768 3.30468C22.1096 3.48437 23.7189 4.15625 24.1174 4.19531C24.4221 4.23437 24.4768 4.21093 24.8674 3.83593L25.2815 3.44531L26.5471 4.71093L27.8205 5.98437L27.5783 6.21093C27.1877 6.58593 27.008 6.92187 27.0549 7.21093C27.1096 7.58593 27.7893 9.16406 27.9455 9.27343C28.0236 9.33593 28.3283 9.375 28.7268 9.375H29.3752V11.25V13.125H28.7268C28.3283 13.125 28.0236 13.1641 27.9455 13.2187C27.7736 13.3594 27.094 14.9609 27.0549 15.3516C27.0236 15.6406 27.0549 15.7031 27.4143 16.0937L27.8049 16.5234L26.5393 17.7891L25.2815 19.0547L24.8674 18.6641C24.4768 18.2891 24.4221 18.2656 24.1174 18.3047C23.7111 18.3437 22.1018 19.0156 21.9768 19.1953C21.9143 19.2734 21.8752 19.5781 21.8752 19.9766V20.625H20.0002H18.1252V19.9766C18.1252 19.5781 18.0861 19.2734 18.0314 19.1953C17.8908 19.0156 16.2814 18.3437 15.883 18.3047C15.5783 18.2656 15.5236 18.2891 15.133 18.6641L14.7189 19.0547L13.4533 17.7891L12.1799 16.5156L12.4221 16.2891C12.8127 15.9141 12.9924 15.5781 12.9455 15.2891C12.8908 14.9141 12.2111 13.3359 12.0549 13.2187C11.9768 13.1641 11.6721 13.125 11.2736 13.125H10.6252V11.25V9.375H11.2736C11.6721 9.375 11.9768 9.33593 12.0549 9.27343C12.2268 9.14062 12.9064 7.53906 12.9455 7.14843C12.9768 6.85937 12.9455 6.79687 12.5861 6.40625L12.1955 5.97656L13.4611 4.71093L14.7189 3.44531L15.133 3.83593C15.5236 4.21093 15.5783 4.23437 15.883 4.19531C16.2893 4.15625 17.8986 3.48437 18.0314 3.30468C18.0861 3.22656 18.1252 2.92187 18.1252 2.52343V1.875H20.0002H21.8752V2.52343ZM11.0939 4.97656C10.2971 5.85156 10.2814 6.00781 10.9846 6.78125L11.4221 7.27343L11.2658 7.64062L11.1096 8.00781L10.4533 8.07031C9.46114 8.17187 9.46895 8.16406 9.40645 8.5C9.32832 8.875 9.32832 13.625 9.40645 14C9.46895 14.3359 9.46114 14.3359 10.4611 14.4297L11.1096 14.4922L11.258 14.8672L11.4064 15.25L10.9768 15.7266C10.5158 16.2344 10.4221 16.4375 10.5002 16.7656C10.5627 17 13.7971 20.2656 14.2971 20.5937C14.7033 20.8672 14.9221 20.8047 15.5314 20.2656L16.0236 19.8281L16.3908 19.9766L16.758 20.125L16.7971 20.8359C16.8596 21.9609 16.5939 21.875 20.008 21.875C23.258 21.875 23.1174 21.9062 23.133 21.2656C23.133 21.0625 23.1643 20.7266 23.1877 20.5156C23.2424 20.1484 23.258 20.1328 23.6252 19.9844L24.008 19.8359L24.3283 20.1406C25.2268 20.9922 25.3205 20.9922 26.2971 20.1016C26.7111 19.7344 27.6018 18.8359 28.2893 18.1094C29.8049 16.4922 29.7971 16.5234 28.9221 15.6094L28.5705 15.2422L28.7346 14.8672L28.8908 14.4922L29.5471 14.4297C30.5393 14.3281 30.5315 14.3359 30.594 14C30.6721 13.625 30.6721 8.875 30.594 8.5C30.5315 8.16406 30.5393 8.16406 29.5393 8.07031L28.8908 8.00781L28.7424 7.63281L28.594 7.25L29.0236 6.77343C29.7111 6.01562 29.7033 5.85156 28.9065 4.98437L28.3518 4.38281L32.4377 4.42187C34.6877 4.44531 36.7111 4.47656 36.9377 4.5C37.4377 4.55468 37.7502 4.78906 37.9299 5.25781C38.0393 5.55468 38.0471 6.73437 38.0315 17.6719C38.008 29.7187 38.008 29.7578 37.844 29.9766C37.758 30.0937 37.5158 30.2812 37.3127 30.3828L36.9377 30.5703H20.133C10.883 30.5703 3.16426 30.5391 2.97676 30.5078C2.73457 30.4687 2.55488 30.3672 2.34395 30.1562C2.05488 29.8672 2.04707 29.8437 1.99238 29.1328C1.96895 28.7266 1.95332 23.1953 1.96895 16.8359C1.98457 7.70312 2.01582 5.23437 2.09395 5.10156C2.14863 5.00781 2.32051 4.82812 2.47676 4.71093L2.75801 4.49218L5.92988 4.45312C7.67207 4.42968 9.67989 4.39843 10.3752 4.39062L11.6564 4.375L11.0939 4.97656ZM24.3752 33.125V34.375H20.0002H15.6252V33.125V31.875H20.0002H24.3752V33.125ZM26.5783 35.7812C27.133 35.9375 27.3596 36.3906 27.4611 37.5156L27.5158 38.125H20.0002H12.4846L12.5393 37.5156C12.633 36.4141 12.8049 36.0469 13.3205 35.8125C13.508 35.7266 14.7893 35.7109 19.9221 35.7031C24.0314 35.7031 26.3908 35.7344 26.5783 35.7812Z" fill="#393F4D"/>
<path d="M18.1797 4.53123C16.8984 4.90623 15.8594 5.54686 14.9453 6.50779C14.25 7.24998 13.7578 8.06248 13.4062 9.04686C13.1719 9.71873 13.1641 9.74217 13.1641 11.25C13.1719 12.6953 13.1797 12.8047 13.3828 13.3984C13.7266 14.4297 14.2422 15.2578 15.0391 16.0625C15.4297 16.4453 15.9531 16.9062 16.2109 17.0703C16.8359 17.4765 17.7578 17.8672 18.4141 18.0078C19.1016 18.1562 20.8906 18.1562 21.5703 18.0156C23.7031 17.5625 25.625 15.8906 26.4766 13.75C26.8359 12.8437 26.8984 12.3515 26.8594 10.9219C26.8203 9.73436 26.7969 9.60154 26.5703 8.97654C25.8047 6.89842 24.2266 5.34373 22.1484 4.64061C21.5781 4.44529 21.4062 4.42186 20.1172 4.39842C18.8906 4.38279 18.6406 4.39842 18.1797 4.53123ZM21.3672 5.89842C21.625 5.96092 22.1328 6.16404 22.5 6.34373C23.0234 6.60154 23.2891 6.79686 23.8281 7.33592C24.8516 8.37498 25.3281 9.32029 25.4609 10.6172C25.6484 12.4062 25.0312 14.0703 23.7344 15.2734C23.1953 15.7734 22.6797 16.1406 22.6094 16.0703C22.5781 16.0469 22.5391 15.7969 22.5234 15.5234L22.4766 15.0156L23.0156 14.4765C23.9609 13.5312 24.3984 12.4687 24.3984 11.1328C24.3984 10.2344 24.2656 9.67967 23.8516 8.89061C23.1641 7.57029 21.3594 6.46873 20.7656 7.00779C20.6406 7.12498 20.625 7.28904 20.625 8.98436V10.8281L20.3125 11.1328L20 11.4375L19.6875 11.1328L19.375 10.8281V8.99217C19.375 6.88279 19.375 6.87498 18.7578 6.87498C17.9062 6.88279 16.6406 7.89842 16.0703 9.02342C15.7344 9.70311 15.6016 10.289 15.6016 11.1328C15.5937 12.4609 16.0391 13.5312 16.9844 14.4765L17.5234 15.0156L17.4766 15.5234C17.4609 15.7969 17.4219 16.0469 17.3906 16.0703C17.2422 16.2265 15.9141 15.0312 15.4375 14.3125C14.7734 13.289 14.5156 12.4609 14.5156 11.289C14.5078 10.3594 14.625 9.74217 14.9219 9.09373C15.6016 7.58592 16.8437 6.46873 18.3984 5.96873C19.0781 5.74217 20.625 5.71092 21.3672 5.89842ZM22.7109 9.81248C22.9766 10.3672 22.9844 10.3828 22.9531 11.2187C22.9219 12.3281 22.7266 12.7344 21.8594 13.5547L21.25 14.125V15.3828C21.25 16.6094 21.25 16.6328 21.0781 16.6875C20.8516 16.7578 18.9531 16.7578 18.8359 16.6875C18.7812 16.6484 18.75 16.2109 18.75 15.3828V14.125L18.125 13.5469C17.4375 12.8906 17.1875 12.4609 17.0234 11.6484C16.8594 10.7812 17.2109 9.60154 17.8047 9.03123L18.0234 8.82029L18.0703 9.70311C18.1016 10.1875 18.125 10.8359 18.125 11.1484V11.7031L18.875 12.414C19.6094 13.1094 19.6328 13.125 20.0078 13.125C20.375 13.125 20.3984 13.1094 21.1328 12.414L21.875 11.7031V10.2109V8.71873L22.1562 8.99217C22.3047 9.13279 22.5547 9.50779 22.7109 9.81248Z" fill="#393F4D"/>
<path d="M3.25 5.79688C3.14062 5.95312 3.125 7.07812 3.125 16.25C3.125 25.0078 3.14062 26.5547 3.23438 26.6875C3.34375 26.8359 3.60156 26.8359 20 26.8359C36.3984 26.8359 36.6562 26.8359 36.7656 26.6875C36.8594 26.5547 36.875 25.0078 36.875 16.2344C36.875 6.03906 36.875 5.9375 36.7188 5.78125C36.5703 5.63281 36.4609 5.625 33.5938 5.625H30.625V6.25V6.875H33.125H35.625V16.25V25.625H20H4.375V16.25V6.875H6.875H9.375V6.25V5.625H6.375H3.36719L3.25 5.79688Z" fill="#393F4D"/>
<path d="M15 23.75V24.375H18.75H22.5V23.75V23.125H18.75H15V23.75Z" fill="#393F4D"/>
<path d="M23.75 23.75V24.375H24.375H25V23.75V23.125H24.375H23.75V23.75Z" fill="#393F4D"/>
<path d="M30.625 28.75V29.375H31.25H31.875V28.75V28.125H31.25H30.625V28.75Z" fill="#393F4D"/>
<path d="M33.125 28.75V29.375H33.75H34.375V28.75V28.125H33.75H33.125V28.75Z" fill="#393F4D"/>
<path d="M35.625 28.75V29.375H36.25H36.875V28.75V28.125H36.25H35.625V28.75Z" fill="#393F4D"/>
</g>
<defs>
<clipPath id="clip0_15376_14201">
<rect width="40" height="40" fill="white"/>
</clipPath>
</defs>
</svg>
