<svg width="60" height="61" viewBox="0 0 60 61" fill="none" xmlns="http://www.w3.org/2000/svg">
<path d="M5.39072 0.723633C4.61728 1.12207 4.26572 1.66113 3.76181 3.17285C2.51962 6.84082 2.29697 10.5557 3.10556 13.7549L3.39853 14.9033L2.87119 15.7354C1.74619 17.5518 0.832124 19.8369 0.339936 22.1104C-0.0116264 23.751 -0.105376 27.126 0.164155 28.8486C0.738374 32.458 2.29697 35.6104 4.78134 38.2119C5.90634 39.3838 7.79306 40.9072 8.68369 41.3525C8.9415 41.4932 9.129 41.6338 9.09384 41.6807C9.07041 41.7275 8.754 42.2197 8.40244 42.7822C7.21884 44.6807 6.44541 46.9189 6.21103 49.2158C6.04697 50.8213 6.05869 57.8525 6.22275 58.5205C6.37509 59.1416 7.00791 59.915 7.629 60.2197C8.03916 60.4307 8.32041 60.4541 10.6407 60.4541C13.4767 60.4541 13.5118 60.4424 13.6642 59.6689C13.711 59.3994 13.6642 59.2471 13.4415 58.9775L13.1485 58.6377L10.7931 58.6025L8.43759 58.5674L8.20322 58.2627C8.05087 58.0635 7.96884 57.7822 7.96884 57.4541V56.9502L9.76181 56.915C11.4962 56.8799 11.5782 56.8682 12.047 56.5518C12.8321 56.0361 13.172 55.415 13.2188 54.4189C13.2774 53.4111 13.0431 52.8486 12.3048 52.2158C11.672 51.6768 11.0977 51.5479 9.37509 51.5479H7.95712L7.99228 50.751L8.02744 49.9658L10.6056 49.9072C13.172 49.8486 13.1837 49.8486 13.7462 49.5205C14.7188 48.9463 15.1642 47.9268 14.9767 46.6963C14.8595 45.8994 14.379 45.2432 13.6056 44.8447C13.0079 44.5283 12.9142 44.5166 11.2852 44.5166H9.59775L9.84384 44.0713C9.98447 43.8369 10.2774 43.3916 10.5001 43.0752L10.8985 42.5244L11.3438 42.7119C12.5392 43.2275 14.5665 43.8369 16.172 44.1533L16.8165 44.2822V45.4893C16.8165 46.5791 16.8517 46.7432 17.1563 47.3877C17.6017 48.2783 18.3868 49.0752 19.2774 49.4971C19.9102 49.8018 20.0977 49.8369 21.1524 49.8486C22.2071 49.8486 22.4063 49.8135 23.0626 49.5088C24.0001 49.0752 24.9493 48.0791 25.3243 47.1299C25.5352 46.6025 25.5938 46.2158 25.6056 45.3721V44.2822L26.2501 44.165C27.7618 43.8604 30.047 43.1572 31.3595 42.5713C31.4884 42.5127 32.6954 44.1768 32.6954 44.4111C32.6954 44.4697 32.0157 44.5166 31.1602 44.5166C29.2735 44.5166 28.8165 44.6338 28.1251 45.3369C27.3634 46.0986 27.1407 47.001 27.4337 48.0908C27.6095 48.7119 28.5001 49.6025 29.1212 49.7783C29.3907 49.8486 30.586 49.9072 31.9688 49.9072H34.336V50.7275V51.5479H32.9649C32.2032 51.5479 31.3712 51.6064 31.1251 51.665C29.1915 52.1104 28.4181 54.5596 29.7423 56.0244C30.4454 56.8096 30.8556 56.9385 32.7306 56.9385H34.336V57.5244C34.336 57.958 34.2774 58.1689 34.1017 58.3447C33.8673 58.5791 33.7149 58.5791 25.3829 58.5791C16.6407 58.5791 16.3009 58.5908 16.0548 59.0479C15.8673 59.4111 15.9259 59.9736 16.172 60.2197C16.4063 60.4541 16.5587 60.4541 25.3477 60.4541H34.3009L34.8048 60.1846C35.4845 59.833 35.9298 59.2471 36.129 58.4619C36.2931 57.8525 36.3165 57.8174 36.8087 57.6885C41.8243 56.3643 46.3126 52.3213 48.3165 47.3291C49.2774 44.915 49.629 42.8408 49.5352 40.0166C49.4298 37.0049 49.0665 35.5869 47.5665 32.4346C46.3243 29.8213 46.1368 29.1064 46.1368 26.9385C46.1368 25.5674 46.1837 25.0635 46.3829 24.3252C47.2032 21.3486 49.2657 18.8291 51.9727 17.5049C53.2852 16.8604 54.4923 16.5439 56.1798 16.4033C57.7032 16.2861 58.3946 16.0049 59.0977 15.2314C59.836 14.4111 59.9415 14.1182 59.9415 12.8174C59.9415 11.751 59.9181 11.5986 59.6251 11.0947C59.1681 10.3213 58.3712 9.66504 57.586 9.41895C56.3204 9.02051 53.4376 9.33691 51.0118 10.1338C47.086 11.4111 43.5821 14.2002 41.4727 17.6924L40.9337 18.5947L40.6173 17.8447C40.4415 17.4463 39.9962 16.6143 39.6446 16.0166L39.0001 14.9268L39.2462 13.8721C39.7735 11.6338 39.8673 9.44238 39.5392 7.12207C39.1993 4.66113 38.3438 1.93066 37.711 1.28613C36.7735 0.325195 35.6837 0.196289 33.9845 0.852539C31.172 1.94238 28.7931 3.44238 26.8712 5.34082L25.9923 6.20801L24.8556 5.99707C23.2735 5.7041 19.0313 5.7041 17.4845 5.99707L16.3829 6.19629L15.2345 5.10645C13.3477 3.31348 10.8985 1.80176 8.41416 0.875977C7.00791 0.360352 6.16415 0.313477 5.39072 0.723633ZM7.64072 2.61035C8.67197 2.99707 9.99619 3.62988 10.9571 4.21582C12.2696 5.00098 14.3438 6.68848 14.1681 6.81738C14.1446 6.84082 13.7813 6.98145 13.3595 7.13379C11.6954 7.71973 9.09384 9.18457 7.67587 10.333C7.35947 10.5908 6.58603 11.3057 5.96494 11.915L4.82822 13.0166L4.71103 12.2783C4.26572 9.65332 4.54697 6.75879 5.5079 3.89941C6.09384 2.17676 6.24619 2.08301 7.64072 2.61035ZM36.3048 2.62207C36.5977 2.98535 37.1954 4.83691 37.5118 6.31348C37.9102 8.22363 37.9337 11.7979 37.547 12.8174C37.5118 12.9111 37.254 12.7236 36.879 12.3135C34.9923 10.2979 32.2032 8.42285 29.4376 7.29785C28.7462 7.0166 28.1954 6.74707 28.1954 6.71191C28.2306 6.55957 29.8009 5.27051 30.5743 4.74316C32.2501 3.62988 34.9806 2.34082 35.7071 2.3291C35.9649 2.3291 36.1407 2.42285 36.3048 2.62207ZM22.0079 9.0791C21.9727 10.4619 21.961 10.5674 21.6915 10.7783C21.3399 11.0596 21.0821 11.0596 20.6954 10.7549C20.3907 10.5205 20.3907 10.4971 20.3907 9.05566V7.60254H21.2227H22.0548L22.0079 9.0791ZM18.5157 9.2666C18.5157 11.083 18.6563 11.5283 19.4415 12.1963C20.7188 13.2861 22.6056 12.9814 23.4962 11.54C23.836 10.9775 23.8477 10.9072 23.8829 9.36035L23.9298 7.75488L24.4688 7.84863C25.6642 8.07129 25.547 7.83691 25.547 9.87598C25.547 11.6221 25.5587 11.6924 25.8751 12.3018C26.8477 14.1885 29.6368 14.1885 30.6095 12.3018C30.8673 11.8096 30.9376 11.5166 30.9376 10.9189C30.9376 10.0166 30.8907 10.0166 32.1915 10.8955C36.4571 13.7549 39.3048 17.9971 40.2657 22.9541C40.5821 24.5947 40.5587 27.6299 40.2071 29.2471C38.8126 35.8564 33.5509 40.708 26.1446 42.2314C22.0431 43.0869 17.754 42.8643 13.8868 41.6221C7.67587 39.6182 3.41025 35.1299 2.14462 29.2471C1.85165 27.876 1.85165 24.126 2.14462 22.7197C2.57822 20.6455 3.42197 18.4658 4.45322 16.8018C5.76572 14.6572 7.92197 12.4072 10.0313 11.001L11.3087 10.1455L11.4259 11.0713C11.6134 12.4072 12.0704 13.1104 13.0313 13.5088C13.9571 13.9072 15.2813 13.6846 15.9727 13.0166C16.6759 12.3604 16.7931 11.9385 16.8634 9.8877L16.9337 8.0127L17.6368 7.88379C18.0235 7.80176 18.3751 7.74316 18.4337 7.73145C18.4806 7.71973 18.5157 8.42285 18.5157 9.2666ZM14.9767 10.251C14.9298 11.4932 14.754 11.8213 14.1212 11.8213C13.4767 11.8213 13.3009 11.4932 13.3009 10.2627V9.19629L14.1212 8.87988L14.9415 8.56348L14.9767 8.86816C15.0001 9.04395 15.0001 9.66504 14.9767 10.251ZM29.004 9.12598C29.0392 9.12598 29.0626 9.61816 29.0626 10.2158C29.0626 11.458 28.8751 11.8213 28.2423 11.8213C28.0431 11.8213 27.797 11.7158 27.6563 11.5635C27.4454 11.3408 27.422 11.1533 27.422 9.93457V8.55176L28.1837 8.83301C28.6056 8.99707 28.9806 9.12598 29.004 9.12598ZM57.1642 11.2822C57.7735 11.5986 58.0431 12.0088 58.0899 12.665C58.1251 13.1455 58.0782 13.3799 57.9024 13.6611C57.5157 14.2822 57.1759 14.4229 55.8048 14.5518C51.1993 14.9502 47.4493 17.4463 45.5157 21.3721C45.1642 22.0752 44.7423 23.1885 44.5665 23.833C44.2852 24.876 44.2501 25.2158 44.2501 26.9385C44.2501 29.4111 44.4962 30.3838 45.7501 33.0088C47.2267 36.0908 47.6954 37.9424 47.6954 40.6494C47.6954 43.2393 47.1212 45.5947 45.9376 47.9033C44.3673 50.9736 42.047 53.2471 38.9181 54.8291C38.1563 55.2158 36.4571 55.8838 36.2462 55.8838C36.2227 55.8838 36.211 55.0752 36.211 54.0908V52.3096L36.8907 52.0518C39.1407 51.1729 42.422 48.126 42.422 46.8955C42.422 46.3799 42.0704 46.04 41.5313 46.04C41.0743 46.04 41.1212 45.9932 39.8204 47.5518C39.1056 48.4189 37.8634 49.415 36.8907 49.9189L36.211 50.2588V49.8135C36.211 49.0049 35.8477 47.1768 35.4493 45.958C34.9923 44.5752 34.4415 43.4502 33.7149 42.3838L33.1993 41.6338L33.7618 41.3057C36.0001 40.0518 38.3907 37.6963 39.879 35.2705L40.4884 34.2861L41.1563 35.6807C42.0938 37.626 42.3282 38.5752 42.3517 40.4736C42.3517 41.3057 42.3165 42.3486 42.2579 42.7705C42.1642 43.4854 42.1759 43.5674 42.4102 43.8018C42.7735 44.165 43.5001 44.1416 43.8048 43.7549C44.1446 43.333 44.3438 41.7041 44.2618 40.0635C44.1681 38.0127 43.8165 36.7471 42.7852 34.6846C42.4454 34.0166 42.0235 33.0791 41.836 32.5986C41.5196 31.7783 41.5079 31.6963 41.6602 31.2627C41.9649 30.3955 42.3165 28.3096 42.3868 26.8799C42.4571 25.415 42.3048 23.5518 42.0001 22.0518L41.8243 21.208L42.2931 20.1885C44.1915 16.1572 48.0118 12.9229 52.336 11.6924C54.2345 11.165 56.5431 10.9658 57.1642 11.2822ZM23.6837 44.8213C23.9532 45.501 23.5665 46.7197 22.8985 47.3525C22.1602 48.0439 21.0938 48.2197 20.1563 47.7861C19.4767 47.4814 19.254 47.2705 18.9142 46.6025C18.6446 46.0752 18.5392 45.1377 18.6915 44.7275C18.7384 44.6104 19.254 44.5752 21.1759 44.5869C23.4493 44.5986 23.6017 44.6104 23.6837 44.8213ZM12.8907 46.626C13.0196 46.7549 13.1251 47.0127 13.1251 47.2119C13.1251 47.4111 13.0196 47.6689 12.8907 47.7979C12.6681 48.0205 12.504 48.0322 10.4884 48.0322C9.29306 48.0322 8.32041 47.9854 8.32041 47.9385C8.32041 47.8096 8.68369 46.5908 8.754 46.4736C8.77744 46.4268 9.66806 46.3916 10.7345 46.3916C12.504 46.3916 12.6798 46.415 12.8907 46.626ZM33.8087 47.0596C33.9142 47.4346 34.0196 47.8096 34.0431 47.8799C34.0782 47.9971 33.5977 48.0322 31.8751 48.0322H29.6602L29.4259 47.7275C29.1095 47.3174 29.1212 47.0361 29.4727 46.6846C29.754 46.3916 29.7892 46.3916 31.6876 46.3916H33.6212L33.8087 47.0596ZM11.0626 53.6689C11.4376 53.9619 11.4727 54.4893 11.1329 54.8291C10.922 55.04 10.7462 55.0635 9.43369 55.0635H7.96884V54.2432V53.4229H9.36337C10.5938 53.4229 10.7813 53.4463 11.0626 53.6689ZM34.336 54.2432V55.0752L32.8595 55.04C31.3946 55.0049 31.3712 55.0049 31.1368 54.6885C30.9376 54.4189 30.9142 54.3018 31.0079 54.0439C31.1837 53.54 31.5587 53.4229 33.0235 53.4229H34.336V54.2432Z" fill="#111827"/>
<path d="M18.2461 14.6921C16.0781 14.9617 14.2148 15.4421 12.3047 16.239C10.8633 16.8484 10.5469 17.1999 10.793 17.9148C11.0391 18.6179 11.5547 18.6648 12.7852 18.1023C13.793 17.6335 15.6211 17.0593 16.875 16.8132C22.0664 15.782 27.832 16.7312 31.7109 19.2624C33.6328 20.5163 35.168 22.2859 35.7422 23.9031C36.0938 24.9343 36.1875 26.5281 35.9297 27.489C34.4414 33.3015 25.3828 36.9929 16.8633 35.2585C13.3125 34.532 10.4883 33.1023 8.49609 31.0281C5.49609 27.8992 5.49609 24.3015 8.48438 20.9968C9.02344 20.4109 9.14062 20.1999 9.14062 19.8601C9.14062 19.2976 8.80078 18.9695 8.23828 18.9695C7.85156 18.9695 7.71094 19.0632 7.11328 19.6843C5.27344 21.6296 4.40625 23.6453 4.40625 26.0593C4.40625 27.9812 4.91016 29.5281 6.03516 31.1101C9.82031 36.4187 18.9258 38.8913 27.0938 36.8288C31.2656 35.7859 34.7227 33.5593 36.5625 30.7351C37.6172 29.1296 38.0391 27.5242 37.9336 25.5554C37.8047 23.1413 36.8672 21.2429 34.8164 19.2859C31.0898 15.7234 24.5977 13.9304 18.2461 14.6921Z" fill="#111827"/>
<path d="M13.3945 22.509C13.0547 22.6731 12.8906 23.177 12.8906 24.091C12.8906 24.8762 13.1016 25.4504 13.418 25.5793C13.8164 25.7317 14.2617 25.6496 14.5078 25.3801C14.7305 25.134 14.7656 24.9817 14.7656 23.9856C14.7656 22.9074 14.7539 22.8488 14.4609 22.6145C14.1211 22.3449 13.793 22.3098 13.3945 22.509Z" fill="#111827"/>
<path d="M28.055 22.4853C27.6683 22.6377 27.5042 23.1885 27.5628 24.2549C27.598 25.0752 27.6331 25.2275 27.8792 25.4267C28.2542 25.7314 28.8402 25.7197 29.1566 25.3799C29.3792 25.1338 29.4144 24.9814 29.4144 23.9853C29.4144 22.9072 29.4027 22.8486 29.1097 22.6142C28.7816 22.3564 28.4652 22.3213 28.055 22.4853Z" fill="#111827"/>
<path d="M17.3788 24.7121C16.582 25.0285 16.7343 26.4816 17.6718 27.4426C18.4452 28.2395 19.7577 28.4152 20.7304 27.8645C21.1171 27.6301 21.1171 27.6301 21.6679 27.8996C22.8281 28.4738 24.3398 28.0988 25.0195 27.0793C25.3827 26.5285 25.582 25.6379 25.4413 25.2512C25.3007 24.9113 24.8788 24.5949 24.539 24.5949C24.1992 24.5949 23.6718 25.0285 23.6718 25.3098C23.6718 25.6848 23.3437 26.2004 23.0624 26.2824C22.6874 26.3762 22.2304 26.0129 22.1367 25.5207C22.0312 25.0637 21.5507 24.5949 21.164 24.5949C20.7421 24.5949 20.3554 24.9816 20.2265 25.5441C20.1327 25.9309 20.0156 26.0949 19.7577 26.2238C19.4648 26.3645 19.3945 26.3527 19.1132 26.1535C18.9492 26.0246 18.7968 25.8137 18.7734 25.6965C18.6913 25.216 18.4804 24.8527 18.2109 24.7238C17.871 24.5715 17.7304 24.5715 17.3788 24.7121Z" fill="#111827"/>
</svg>
