<svg width="48" height="48" viewBox="0 0 48 48" fill="none" xmlns="http://www.w3.org/2000/svg">
<g clip-path="url(#clip0_15376_13039)">
<path d="M11.6914 40C11.6914 38.9804 12.518 38.1538 13.5376 38.1538H22.1529C23.1725 38.1538 23.9991 38.9804 23.9991 40H11.6914Z" fill="#FF008A"/>
<path d="M3.69141 3.69235C3.69141 2.67274 4.51796 1.84619 5.53756 1.84619H11.6914C12.711 1.84619 13.5376 2.67274 13.5376 3.69235H3.69141Z" fill="#FF008A"/>
<path d="M24.9216 16.9231H28.9216L29.8447 18.7692L28.9216 21.8462L24.9216 23.0769L22.1523 24.3077L23.3831 19.6923L24.9216 16.9231Z" fill="#FF008A" stroke="#393F4D"/>
<path d="M33.5397 22.1538L31.0781 29.2307H40.3089V28.6153L37.5397 22.1538H33.5397Z" fill="#FF008A"/>
<path d="M23.4735 0.750004C23.2204 0.787502 22.8172 0.909378 22.5829 1.0125C22.3579 1.11563 20.136 2.76563 17.6422 4.67813C15.1485 6.59063 13.0954 8.15625 13.0766 8.15625C13.0485 8.15625 13.0297 7.65938 13.0297 7.04063V5.925L13.4516 5.86875C13.7422 5.82188 13.9297 5.72813 14.061 5.55938C14.2391 5.33438 14.2485 5.18438 14.2485 3.375C14.2485 1.54688 14.2391 1.41563 14.0516 1.18125L13.8641 0.937504H8.84848C3.96411 0.937504 3.84223 0.937504 3.65473 1.125C3.47661 1.30313 3.46723 1.43438 3.46723 3.36563C3.46723 5.8125 3.45786 5.79375 4.38598 5.87813L4.96723 5.93438V10.1719V14.4094L3.44848 15.5625C1.57348 16.9781 1.35786 17.175 1.04848 17.7656C0.720358 18.3938 0.692233 19.4438 1.00161 20.0156C1.45161 20.8594 2.33286 21.3938 3.28911 21.3938H3.84223V34.1719V46.9594L4.08598 47.1469L4.33911 47.3438L24.0454 47.325C43.2829 47.2969 43.761 47.2969 43.9579 47.1188L44.1547 46.9406V34.1625V21.3938H44.7079C45.6641 21.3938 46.5454 20.8594 46.9954 20.0156C47.2766 19.4906 47.2766 18.3094 46.9954 17.7656C46.7047 17.2219 46.4329 16.9875 42.6266 14.0625C39.3266 11.5313 39.1766 11.4 39.3454 11.25C39.4391 11.1656 40.6766 10.0594 42.0922 8.79375C43.5079 7.52813 44.7829 6.32813 44.9235 6.12188C45.5891 5.11875 45.6547 3.7125 45.1016 2.5875C44.2954 0.946877 42.0922 0.21563 40.461 1.05C39.7954 1.3875 39.6079 1.58438 36.8704 4.65C35.1922 6.54375 34.1422 7.65 34.0766 7.60313C32.6516 6.45938 25.6391 1.15313 25.4047 1.03125C25.1047 0.881252 24.861 0.815628 24.1391 0.712502C24.036 0.693752 23.736 0.712502 23.4735 0.750004ZM24.5141 2.34375C24.786 2.44688 32.9985 8.78438 32.9985 8.89688C32.9985 8.93438 32.736 9.24375 32.4172 9.6L31.8266 10.2375L28.0766 7.32188C24.786 4.77188 24.2891 4.41563 23.9985 4.41563C23.7079 4.41563 22.5547 5.26875 13.686 12.1406C4.65786 19.1344 3.67348 19.875 3.36411 19.875C2.97036 19.875 2.55786 19.5938 2.42661 19.2375C2.22036 18.7031 2.42661 18.4688 4.33911 16.9875C5.33286 16.2188 9.88911 12.6844 14.4829 9.13125C19.0766 5.57813 23.0141 2.57813 23.2391 2.46563C23.6891 2.23125 24.1204 2.19375 24.5141 2.34375ZM42.636 2.4C43.3391 2.69063 43.8641 3.44063 43.8735 4.14375C43.8735 4.93125 43.7329 5.10938 40.8922 7.65938C39.4204 8.99063 37.911 10.3313 37.5547 10.6313C36.5047 11.5125 34.686 13.1438 34.611 13.2656C34.536 13.4063 30.0735 17.4375 29.9985 17.4375C29.9704 17.4375 29.8485 17.2875 29.7266 17.1C29.5954 16.9219 29.3141 16.6406 29.0891 16.4813L28.686 16.1813L28.9016 15.9469C29.0329 15.8156 31.5829 12.9375 34.5922 9.5625C40.8454 2.53125 40.8266 2.55 41.2016 2.38125C41.5766 2.2125 42.2141 2.22188 42.636 2.4ZM12.6547 3.375V4.3125H8.81098H4.96723V3.375V2.4375H8.81098H12.6547V3.375ZM11.436 7.66875V9.44063L9.12036 11.2219C7.83598 12.1969 6.73911 13.0313 6.68286 13.0688C6.58911 13.125 6.56098 12.3844 6.56098 9.525V5.90625H8.99848H11.436V7.66875ZM27.4297 8.775C29.5954 10.4625 30.7391 11.4094 30.711 11.4938C30.6829 11.5688 29.8579 12.525 28.8735 13.6219L27.0829 15.6281L26.2766 15.6844C24.7766 15.7781 23.6329 16.5563 22.9672 17.9531C22.6485 18.6281 22.2266 19.8563 21.936 20.9719L21.8329 21.375H16.3672C10.0485 21.375 10.3297 21.3375 9.46723 22.2094C8.63286 23.0438 8.62348 23.1 8.62348 27.1969V30.6563H7.85473C7.19848 30.6563 7.05786 30.6844 6.87036 30.8625L6.65473 31.0594V35.9719C6.65473 40.7531 6.66411 40.8844 6.84223 41.0625C7.01098 41.2313 7.15161 41.25 8.34223 41.25H9.65473V42.5531C9.65473 43.9031 9.74848 44.3813 10.0297 44.5313C10.2922 44.6719 14.0704 44.6438 14.2579 44.5031C14.5672 44.2688 14.6235 43.9875 14.6235 42.6188V41.25H17.3422H20.061V42.75C20.061 44.7656 19.8829 44.625 22.4141 44.625C23.4829 44.625 24.4297 44.5969 24.5141 44.5688C24.8516 44.4375 24.936 44.025 24.936 42.6094V41.25H26.2297C27.4391 41.25 27.5422 41.2313 27.711 41.0531C27.8797 40.8656 27.8891 40.6406 27.8891 35.9344V31.0125L27.6641 30.8344C27.4954 30.6938 27.2985 30.6563 26.7079 30.6563H25.9672V27.2063V23.7656L26.9329 23.5031C27.4672 23.3625 28.1141 23.1375 28.386 23.0156C28.9954 22.7344 29.7172 22.0219 30.0454 21.375C30.3266 20.8313 30.5985 19.6594 30.5235 19.3594C30.4766 19.1906 30.8891 18.7875 32.9141 16.9875L35.3516 14.8125L36.1672 15.4406C36.6266 15.7969 38.2672 17.0625 39.8235 18.2719L42.6547 20.4656V33.1125V45.75H23.9985H5.34223V33.1125V20.475L14.6047 13.3406C19.6954 9.4125 23.9141 6.19688 23.9797 6.19688C24.0454 6.1875 25.6016 7.35 27.4297 8.775ZM41.6047 15.3375C43.6016 16.8656 45.3079 18.2063 45.3922 18.3188C45.7485 18.7688 45.6547 19.35 45.1766 19.6688C44.961 19.8188 44.7829 19.875 44.5954 19.8375C44.4079 19.8 37.311 14.4844 36.6079 13.8563C36.5235 13.7813 37.7235 12.5813 37.9016 12.5625C37.9485 12.5625 39.6079 13.8094 41.6047 15.3375ZM27.561 17.4844C28.3954 17.9063 28.8641 18.6094 28.8735 19.4438C28.8735 20.5969 28.2454 21.4875 27.1579 21.8813C26.2391 22.2 23.136 23.1656 23.0985 23.1375C23.0422 23.0813 23.6047 20.7375 23.8672 19.9219C23.9985 19.5094 24.2141 18.9563 24.336 18.6844C24.9266 17.4469 26.3985 16.8938 27.561 17.4844ZM21.5141 23.0813C21.3266 23.9625 21.2797 24.4688 21.3829 24.6844C21.5704 25.0969 22.1329 25.2469 22.5266 24.9844C22.6391 24.9094 23.1454 24.7031 23.6516 24.525L24.561 24.1875V27.4219V30.6563H23.7641C23.0329 30.6563 22.9391 30.675 22.7329 30.8906C22.5266 31.0969 22.4985 31.1906 22.4985 31.875V32.625H17.2485H11.9985V31.8281C11.9985 30.75 11.9047 30.6563 10.8735 30.6563H10.1235V27.3844C10.1235 23.9813 10.1422 23.775 10.5266 23.3531C10.9672 22.8844 10.9391 22.8844 16.4329 22.875H21.561L21.5141 23.0813ZM10.4985 34.5375C10.4985 36.7969 10.5079 36.9281 10.6954 37.1625L10.8829 37.4063H17.2579C23.5016 37.4063 23.6235 37.4063 23.811 37.2188C23.9891 37.0406 23.9985 36.9094 23.9985 34.5938V32.1563H25.2172H26.436V35.9531V39.75H17.2954H8.15473V35.9531V32.1563H9.32661H10.4985V34.5375ZM22.4985 35.0156V35.9063H17.2485H11.9985V35.0156V34.125H17.2485H22.4985V35.0156ZM13.0297 42.1875V43.125H12.1391H11.2485V42.1875V41.25H12.1391H13.0297V42.1875ZM23.3422 42.1875V43.125H22.4047H21.4672V42.1875V41.25H22.4047H23.3422V42.1875Z" fill="#393F4D"/>
<path d="M17.7094 12.0938C17.625 12.1406 17.3062 12.6281 17.0062 13.1625L16.4625 14.1469L15.6 14.625C14.3906 15.2906 14.2969 15.375 14.2969 15.825C14.2969 16.0313 14.3531 16.2656 14.4281 16.3406C14.4937 16.425 14.9812 16.7344 15.5062 17.0344L16.4625 17.5688L16.9969 18.525C17.2969 19.05 17.6062 19.5375 17.6906 19.6031C17.8781 19.7625 18.4969 19.7625 18.6844 19.6125C18.7594 19.5469 19.0687 19.0594 19.3687 18.525L19.9031 17.5594L20.8594 17.025C21.8906 16.4625 21.975 16.3875 22.0594 16.0406C22.1812 15.5531 21.9281 15.2625 20.8875 14.7L19.9125 14.1563L19.3594 13.1813C19.0219 12.5719 18.7312 12.1688 18.5906 12.1031C18.3187 11.9813 17.9156 11.9719 17.7094 12.0938ZM18.4594 14.9813C18.6187 15.3188 18.7687 15.4875 19.0875 15.6469C19.3125 15.7688 19.5 15.9 19.5 15.9281C19.5 15.9656 19.3219 16.0781 19.0969 16.1906C18.8062 16.3313 18.6281 16.5094 18.4594 16.8188C18.3375 17.0531 18.2156 17.25 18.1875 17.25C18.1594 17.25 18.0375 17.0625 17.9062 16.8281C17.7469 16.5375 17.5406 16.3406 17.2219 16.1625L16.7625 15.9188L17.2312 15.6375C17.5219 15.45 17.7656 15.2063 17.9156 14.9438C18.0375 14.7188 18.1594 14.5313 18.1969 14.5313C18.225 14.5313 18.3469 14.7375 18.4594 14.9813Z" fill="#393F4D"/>
<path d="M32.9344 21.4874C32.6531 21.8062 29.625 29.3531 29.625 29.7468C29.625 29.9531 29.6906 30.1312 29.8219 30.2437C30 30.4031 30.2063 30.4218 31.6031 30.4499L33.1875 30.4781V35.4749V40.4718L32.5219 40.5281C31.7812 40.5937 31.4906 40.7437 31.2188 41.1843C31.0594 41.4374 31.0312 41.6624 31.0312 42.6374C31.0312 43.9312 31.1063 44.1843 31.6125 44.5499L31.9219 44.7656H35.4844C39.45 44.7656 39.3563 44.7843 39.7594 44.1281C39.9281 43.8562 39.9375 43.6874 39.9188 42.5437L39.8906 41.2499L39.6 40.9593C39.2906 40.6593 38.8313 40.5093 38.1844 40.4999H37.7812V35.4843V30.4687H38.2031H38.6156L38.6438 33.6656L38.6719 36.8624L38.9062 37.0499C39.0844 37.1906 39.225 37.2281 39.5063 37.1906C40.1906 37.0968 40.1719 37.2093 40.2 33.6656L40.2281 30.4968L40.6219 30.4406C41.0531 30.3843 41.3438 30.1124 41.3438 29.7749C41.3438 29.4562 38.1562 21.6281 37.95 21.4406C37.7812 21.2999 37.5188 21.2812 35.4469 21.2812C33.1594 21.2812 33.1219 21.2812 32.9344 21.4874ZM38.2219 25.7999L39.45 28.8281L37.4344 28.8562C36.3281 28.8656 34.5469 28.8656 33.4781 28.8562L31.5281 28.8281L32.7938 25.7999L34.0594 22.7812H35.5312H36.9938L38.2219 25.7999ZM36.2813 35.4843V40.4999H35.5312H34.7812V35.4843V30.4687H35.5312H36.2813V35.4843ZM38.4375 42.6562V43.2187H35.4844H32.5312V42.6562V42.0937H35.4844H38.4375V42.6562Z" fill="#393F4D"/>
<path d="M16.4719 24.4969C16.35 24.6094 16.0781 25.0406 15.8531 25.4625C15.45 26.2125 15.45 26.2125 14.6156 26.6625C13.7156 27.1406 13.5 27.3562 13.5 27.7781C13.5 28.2187 13.65 28.3687 14.5688 28.875L15.4594 29.3531L15.9375 30.2344C16.4344 31.1719 16.5844 31.3125 17.0625 31.3125C17.4469 31.3125 17.6719 31.0687 18.1781 30.1219L18.5906 29.3437L19.4625 28.875C20.3719 28.3781 20.5313 28.2187 20.5313 27.7781C20.5313 27.3562 20.3063 27.1406 19.4156 26.6531L18.5813 26.2125L18.15 25.3875C17.9062 24.9375 17.6156 24.4969 17.5031 24.4219C17.2031 24.2156 16.7156 24.2437 16.4719 24.4969ZM17.9156 27.5812L18.2906 27.7875L17.9813 27.9469C17.625 28.125 17.4281 28.3312 17.2219 28.725L17.0813 29.0062L16.8844 28.6219C16.7719 28.3875 16.5375 28.1437 16.3125 28.0031L15.9375 27.7781L16.2938 27.6187C16.5656 27.4969 16.7156 27.3375 16.8656 27.0281L17.0719 26.5969L17.3063 26.9812C17.4375 27.1969 17.7 27.4594 17.9156 27.5812Z" fill="#393F4D"/>
</g>
<defs>
<clipPath id="clip0_15376_13039">
<rect width="48" height="48" fill="white"/>
</clipPath>
</defs>
</svg>
