<svg width="40" height="40" viewBox="0 0 40 40" fill="none" xmlns="http://www.w3.org/2000/svg">
<path d="M8.75 0.124996C7.67969 0.406246 6.58594 1.10156 5.90625 1.92968C5.00781 3.00781 4.60938 4.27343 4.60938 6.01562C4.60938 6.69531 4.60156 6.71875 4.39844 6.82812C4.27344 6.89062 4.09375 7.03125 3.98438 7.14843C3.79688 7.34375 3.78906 7.40625 3.76563 8.47656C3.73438 9.71875 3.78906 9.92968 4.21875 10.2422L4.44531 10.4141L4.23438 10.8125C4.04688 11.1719 4.02344 11.2969 4.02344 11.9922C4.02344 12.6719 4.04688 12.8281 4.22656 13.2109C4.60938 14.0156 5.25781 14.5547 6.10938 14.7656C6.46875 14.8594 6.47656 14.8672 6.52344 15.2266C6.67969 16.3906 7.14063 17.6016 7.82031 18.6094C8.21875 19.2031 9.19531 20.1875 9.71094 20.5078L10.0781 20.7422L10.0625 22.0312L10.0391 23.3203L9.82031 23.4219C9.61719 23.5234 9.58594 23.5156 9.48438 23.375C9.26563 23.0625 8.90625 22.9687 7.85156 22.9687C7.14063 22.9687 6.80469 23 6.64844 23.0859C6.375 23.2266 6.01563 23.6406 6.01563 23.8125C6.01563 24.0703 5.875 24.1484 5.21094 24.2656C3.63281 24.5391 2.71094 25 1.71875 26.0078C0.953125 26.7891 0.625 27.2969 0.28125 28.2578L0.0390625 28.9453L0.015625 33.9375L-0.0078125 38.9219L0.195313 39.2656C0.3125 39.4687 0.53125 39.6875 0.734375 39.8047L1.07031 40H9.78125C18.1172 40 18.5 39.9922 18.6172 39.8594C18.7969 39.6562 18.7891 39.125 18.6094 38.9609C18.4766 38.8359 17.9219 38.8281 12.2031 38.8281H5.9375V34.4219C5.9375 32 5.96094 29.9609 5.98438 29.8906C6.03125 29.7812 6.8125 29.7656 14.0703 29.7656H22.1094V34.2969V38.8281H21.3438C20.4453 38.8281 20.3125 38.9062 20.3125 39.4297C20.3125 40.0234 20.1875 40 23.7813 40C26.3125 40 27.0078 39.9766 27.2109 39.8906C27.5156 39.7578 27.9297 39.3359 28.0391 39.0391C28.1797 38.6719 28.1484 29.6328 28.0078 28.9687C27.6094 27.0703 26.3203 25.4922 24.5547 24.7187C24.2031 24.5703 23.5781 24.3906 23.0313 24.2891C22.2031 24.1328 22.1094 24.1016 22.1094 23.9531C22.1094 23.7031 21.8281 23.2969 21.5469 23.125C21.3203 22.9922 21.1484 22.9687 20.25 22.9687C19.1641 22.9687 18.9375 23.0234 18.6406 23.3437C18.5234 23.4766 18.4609 23.4922 18.2969 23.4297C18.1797 23.3828 18.0625 23.3047 18.0313 23.2578C18 23.2031 17.9688 22.6328 17.9688 21.9922V20.8203L18.6094 20.3516C19.3516 19.8047 20.1563 18.8984 20.6328 18.0703C21.0391 17.3516 21.4688 16.1328 21.5313 15.4766C21.5859 14.9531 21.7031 14.7656 21.9766 14.7656C22.2344 14.7656 22.8906 14.4297 23.2578 14.1094C23.4531 13.9375 23.6953 13.6094 23.8438 13.2969C24.0781 12.8203 24.1016 12.7187 24.1016 12.0312C24.1016 11.3828 24.0703 11.2344 23.8906 10.8594L23.6797 10.4297L23.9063 10.25C24.3203 9.92968 24.375 9.71875 24.375 8.57031C24.375 7.60937 24.3594 7.5 24.1953 7.25781C24.1016 7.10937 23.8906 6.92187 23.7266 6.83593L23.4375 6.67968V5.66406C23.4375 4.46093 23.3203 3.88281 22.8906 3.00781C22.2109 1.60937 20.9063 0.539059 19.4063 0.156246C18.8359 0.00780869 18.5313 -3.8147e-06 13.9922 0.00780869C10.0313 0.00780869 9.10156 0.0312462 8.75 0.124996ZM10.7656 3.80468C10.9453 5.25781 11.0938 6.50781 11.0938 6.57812C11.0938 6.70312 10.9922 6.71875 10.0938 6.71875C9.17969 6.71875 9.07031 6.73437 8.94531 6.875C8.85938 6.96875 8.79688 7.15625 8.79688 7.30468C8.79688 7.45312 8.85938 7.64062 8.94531 7.73437C9.08594 7.89062 9.13281 7.89062 16.1094 7.89062H23.125V8.59375V9.29687L14.0469 9.28125L4.96094 9.25781V8.59375V7.92968L6 7.89062C7.16406 7.84375 7.26563 7.79687 7.26563 7.28906C7.26563 6.85937 7.04688 6.71875 6.39063 6.71875H5.83594L5.88281 5.71875C5.95313 4.21093 6.28125 3.34375 7.10938 2.50781C7.94531 1.65625 8.86719 1.27343 10.2813 1.17968C10.4375 1.17187 10.4531 1.28906 10.7656 3.80468ZM16.375 1.38281C16.3516 1.50781 16.2109 2.64062 16.0547 3.90625C15.9063 5.17187 15.7578 6.32812 15.7344 6.46875L15.6953 6.71875L14.0391 6.70312L12.3906 6.67968L12.0547 4.02343C11.875 2.5625 11.7266 1.32031 11.7266 1.26562C11.7188 1.19531 12.2422 1.17187 14.0703 1.17187H16.4219L16.375 1.38281ZM18.9453 1.34375C19.5859 1.47656 20.2813 1.85156 20.8203 2.35156C21.8281 3.30468 22.1875 4.17968 22.1875 5.74218V6.71875H19.5703H16.9609L16.9922 6.5C17.0313 6.28125 17.6563 1.30468 17.6563 1.21093C17.6563 1.14843 18.3906 1.22656 18.9453 1.34375ZM20.3672 12.8281C20.3438 14.9219 20.3203 15.2734 20.1719 15.8359C19.4219 18.7344 17.0547 20.5547 14.0625 20.5547C12.2813 20.5547 10.7031 19.9219 9.55469 18.7422C8.78125 17.9453 8.35156 17.2031 7.99219 16.0391C7.78906 15.3672 7.78125 15.2891 7.75 12.9062L7.71875 10.4687H14.0625H20.4063L20.3672 12.8281ZM6.48438 12.0703V13.5937L6.27344 13.5078C5.46875 13.2031 5.03125 12.2734 5.32031 11.5078C5.46094 11.1328 6.10938 10.5469 6.39063 10.5469C6.46094 10.5469 6.48438 10.9062 6.48438 12.0703ZM22.2656 10.8516C22.6094 11.1172 22.8906 11.6641 22.8906 12.0625C22.8906 12.6719 22.3984 13.3437 21.8594 13.4766L21.6406 13.5312V12.0312V10.5391L21.8203 10.5859C21.9141 10.6172 22.1172 10.7344 22.2656 10.8516ZM12.2656 21.6641C13.1953 21.8984 15 21.8984 15.8594 21.6562C16.1797 21.5703 16.5 21.4766 16.5703 21.4453C16.6875 21.3984 16.7031 21.5156 16.7266 22.4766C16.7578 23.4844 16.7734 23.5781 16.9766 23.9219C17.0938 24.125 17.2578 24.3281 17.3438 24.375C17.5938 24.5078 17.5313 24.5859 17.0547 24.7656C15.8125 25.2344 14.1406 25.4062 12.8281 25.2031C12.1719 25.1016 10.6797 24.6875 10.5625 24.5703C10.5469 24.5547 10.6641 24.4219 10.8203 24.2812C11.2656 23.8984 11.3281 23.6719 11.3281 22.4531C11.3281 21.4687 11.3359 21.3906 11.4688 21.4453C11.5391 21.4687 11.8984 21.5703 12.2656 21.6641ZM8.51563 26.3672V28.5156H7.85156H7.1875V26.3672V24.2187H7.85156H8.51563V26.3672ZM20.9375 26.3672V28.5156H20.2734H19.6094V26.3672V24.2187H20.2734H20.9375V26.3672ZM5.9375 26.9297V28.4766L5.55469 28.6406C5.28125 28.7656 5.10156 28.9141 4.94531 29.1484L4.72656 29.4766L4.70313 31.6172L4.67969 33.75H2.91406H1.14844L1.19531 31.6172C1.24219 29.25 1.28906 28.9609 1.77344 28.0156C1.96875 27.6406 2.25781 27.2656 2.66406 26.8672C3.38281 26.1406 4.0625 25.7812 5.15625 25.5547C5.5625 25.4687 5.90625 25.3984 5.92188 25.3984C5.92969 25.3906 5.9375 26.0859 5.9375 26.9297ZM23.7891 25.7891C25.2109 26.2969 26.3438 27.5469 26.7188 29.0234C26.8594 29.5547 26.875 29.8906 26.875 31.6953V33.75H25.1172H23.3594V31.6172V29.4844L23.1328 29.125C22.9688 28.8672 22.8125 28.7344 22.5469 28.625L22.1875 28.4766V26.9453V25.4062L22.7578 25.5156C23.0625 25.5703 23.5313 25.6953 23.7891 25.7891ZM10.2734 25.8203C10.9063 26.1016 12.0234 26.375 12.9766 26.4922C14.6641 26.6875 16.5781 26.3828 18.2266 25.6641C18.3516 25.6094 18.3594 25.7031 18.3594 27.0625V28.5156H14.0625H9.76563V27.0703C9.76563 26.2734 9.78125 25.625 9.79688 25.625C9.8125 25.625 10.0234 25.7109 10.2734 25.8203ZM4.6875 36.9219V38.8359L3.04688 38.8125C1.83594 38.7969 1.39063 38.7656 1.3125 38.6875C1.23438 38.6094 1.20313 38.1328 1.1875 36.7969L1.16406 35H2.92188H4.6875V36.9219ZM26.875 36.7891C26.875 38.5547 26.875 38.5859 26.7031 38.7031C26.5547 38.8047 26.25 38.8281 24.9453 38.8281H23.3594V36.9141V35H25.1172H26.875V36.7891Z" fill="#393F4D"/>
<path d="M10.4 11.2422C10.2047 11.4376 10.1266 11.8594 10.1891 12.3282C10.275 12.9766 10.8219 13.2344 11.2672 12.836C11.4859 12.6407 11.4703 11.4688 11.2516 11.2501C11.0484 11.0469 10.6031 11.0391 10.4 11.2422Z" fill="#393F4D"/>
<path d="M16.8672 11.2422C16.7188 11.3594 16.6797 11.4766 16.6563 11.9063C16.6329 12.211 16.6641 12.5157 16.7188 12.6485C16.8907 13.0703 17.5235 13.1485 17.7735 12.7891C17.8516 12.6719 17.8907 12.4219 17.8907 12.0157C17.8907 11.5078 17.8672 11.3828 17.7344 11.25C17.5391 11.0547 17.1094 11.0469 16.8672 11.2422Z" fill="#393F4D"/>
<path d="M13.3984 14.9219C13.3125 15.0156 13.25 15.2031 13.25 15.3516C13.25 15.7891 13.4531 15.9375 14.0391 15.9375C14.4297 15.9375 14.5625 15.9062 14.6875 15.7812C14.875 15.5938 14.8906 15.1797 14.7188 14.9375C14.6172 14.7891 14.5313 14.7656 14.0703 14.7656C13.6328 14.7656 13.5156 14.7969 13.3984 14.9219Z" fill="#393F4D"/>
<path d="M12.2656 17.0313C12.1641 17.1328 12.1094 17.2891 12.1094 17.5C12.1094 17.7735 12.1484 17.836 12.4375 18.0469C13.1719 18.5782 14.4688 18.6719 15.3125 18.25C15.5469 18.1328 15.8047 17.9688 15.8828 17.875C16.0781 17.6485 16.0547 17.25 15.8359 17.0469C15.6016 16.8203 15.2812 16.8282 14.8125 17.0703C14.2969 17.3282 13.7969 17.3282 13.2812 17.0703C12.8125 16.836 12.4766 16.8203 12.2656 17.0313Z" fill="#393F4D"/>
<path d="M29.1172 12.6719C28.9375 12.7812 28.7656 12.9688 28.6719 13.1641C28.5312 13.4609 28.5156 13.6484 28.5156 15.4062V17.3203L28.0781 17.3672C27.5859 17.4219 27.2031 17.6406 26.9766 18.0078C26.8594 18.2031 26.8359 18.4062 26.8359 19.2578C26.8359 20.4141 26.9219 20.6719 27.4453 21.0078L27.7344 21.1953V22.9297C27.7344 24.8672 27.8047 25.2969 28.2266 26.0078C28.5781 26.5938 29.2578 27.1953 29.875 27.4688L30.3906 27.6875V28.6172C30.3906 29.2266 30.4297 29.625 30.5 29.7969C30.6328 30.125 30.9844 30.4531 31.2656 30.5078L31.4766 30.5547L31.5 34.8828C31.5234 39.1328 31.5234 39.2109 31.6875 39.4297C31.7734 39.5469 31.9688 39.7266 32.1094 39.8203C32.3438 39.9844 32.4531 40 33.4297 40C34.625 40 34.8594 39.9219 35.1562 39.4375C35.3047 39.1875 35.3125 39.0312 35.3125 34.875V30.5625L35.5469 30.5234C35.8906 30.4531 36.3203 30.0156 36.4062 29.6484C36.4453 29.4766 36.4844 28.9531 36.4844 28.4922C36.4844 27.7578 36.5 27.6484 36.625 27.6094C37.8516 27.2031 38.8203 26.1016 39.0625 24.8516C39.1016 24.6172 39.1406 23.6875 39.1406 22.7812V21.1328L39.3984 21.0156C39.5312 20.9531 39.7266 20.7734 39.8281 20.625C40 20.3672 40.0078 20.2969 39.9844 19.2031L39.9609 18.0547L39.6875 17.7734C39.4141 17.4922 39.0547 17.3438 38.6172 17.3438H38.3672L38.3438 15.3203C38.3203 13.0625 38.3203 13.0703 37.7344 12.6719C37.5 12.5156 37.3906 12.5 36.4062 12.5C35.4219 12.5 35.3125 12.5156 35.0703 12.6797C34.5625 13.0156 34.5312 13.1641 34.5312 15.3672V17.3438H33.4375H32.3438V15.3672C32.3438 13.4766 32.3359 13.3906 32.1641 13.0938C31.875 12.5938 31.6094 12.5 30.4297 12.5C29.5312 12.5 29.3828 12.5234 29.1172 12.6719ZM31.0938 15.5469V17.3438H30.4297H29.7656V15.5469V13.75H30.4297H31.0938V15.5469ZM37.1094 15.5469V17.3438H36.4453H35.7812V15.5469V13.75H36.4453H37.1094V15.5469ZM38.8125 19.2734L38.8359 19.9219H33.4375H28.0469V19.2578V18.5938L33.4219 18.6094L38.7891 18.6328L38.8125 19.2734ZM37.875 22.9453C37.8516 24.5547 37.8359 24.7578 37.6875 25.0781C37.2891 25.9375 36.6484 26.3828 35.6094 26.5234L35.2344 26.5703V25.6719C35.2344 25.1641 35.1953 24.6875 35.1484 24.5781C34.9766 24.2109 34.3281 24.1484 34.1016 24.4766C34.0156 24.6016 33.9844 24.8828 33.9844 25.6016V26.5625H33.4375H32.8906V25.6641C32.8906 25.1641 32.8516 24.6875 32.8047 24.5781C32.6328 24.2109 31.9844 24.1484 31.7578 24.4766C31.6719 24.6016 31.6406 24.8828 31.6406 25.6016C31.6406 26.3438 31.6172 26.5625 31.5391 26.5625C31.2812 26.5625 30.4922 26.3828 30.2891 26.2812C29.9062 26.0781 29.4531 25.6094 29.2344 25.2031C29.0234 24.8125 29.0234 24.7812 29 22.9844L28.9766 21.1719H33.4375H37.9062L37.875 22.9453ZM35.2344 28.5156V29.2969H33.4375H31.6406V28.5156V27.7344H33.4375H35.2344V28.5156ZM34.0625 34.6875V38.8359L33.4219 38.8125L32.7734 38.7891L32.75 34.6641L32.7344 30.5469H33.3984H34.0625V34.6875Z" fill="#393F4D"/>
<path d="M13.1409 30.9922C12.9455 31.1641 12.1565 33.5156 12.1721 33.8828C12.1955 34.4609 12.5237 34.6875 13.3596 34.6875C13.6565 34.6875 13.9065 34.7109 13.9065 34.7422C13.9065 34.7812 13.844 35 13.7659 35.2422L13.633 35.6797L13.4924 35.5C13.3049 35.25 12.7502 35.2344 12.5393 35.4688C12.2737 35.7578 12.3518 36.0859 12.844 36.7812C13.3674 37.5234 13.5237 37.6562 13.9143 37.6562C14.2034 37.6562 15.5627 37.1094 15.8049 36.8984C16.008 36.7109 15.9768 36.2422 15.7424 36.0156C15.5862 35.8672 15.4924 35.8438 15.2346 35.8828C14.8596 35.9297 14.8596 35.9375 15.1174 35.1328C15.344 34.4375 15.3596 34.1484 15.2034 33.8359C15.0471 33.5391 14.7737 33.4375 14.1409 33.4375C13.8362 33.4375 13.594 33.4062 13.594 33.375C13.594 33.3438 13.719 32.9453 13.8674 32.5C14.0159 32.0547 14.1409 31.5781 14.1409 31.4375C14.1409 30.9609 13.5002 30.6797 13.1409 30.9922Z" fill="#393F4D"/>
</svg>
