<svg width="49" height="48" viewBox="0 0 49 48" fill="none" xmlns="http://www.w3.org/2000/svg">
<g clip-path="url(#clip0_13605_34122)">
<rect x="14.0391" y="40.6152" width="32.6154" height="4.30769" rx="2.15385" fill="#FF008A"/>
<path d="M33.7278 27.9995C33.7278 28.8492 11.9691 28.9226 9.42007 28.9226C6.87107 28.9226 4.80469 28.2338 4.80469 27.3842C4.80469 26.5345 6.87107 25.8457 9.42007 25.8457C11.9691 25.8457 33.7278 27.1499 33.7278 27.9995Z" fill="#FF008A"/>
<path d="M37.4261 25.5383C37.4261 27.4075 36.4618 28.9229 35.2722 28.9229C34.0827 28.9229 32.1953 24.9458 32.1953 23.0765C32.1953 21.2072 34.0827 22.1537 35.2722 22.1537C36.4618 22.1537 37.4261 23.669 37.4261 25.5383Z" fill="#FF008A"/>
<path d="M11.8434 15.966C10.9809 16.2285 10.3434 16.5754 9.65899 17.1379C8.70273 17.9348 8.28086 18.591 7.56836 20.3441L7.17461 21.3285L5.12148 21.3754C3.15273 21.4223 3.05898 21.4316 2.54336 21.6754C1.83086 22.0035 1.24961 22.566 0.865234 23.2691L0.546484 23.8598L0.518359 25.491C0.490234 26.6066 0.518359 27.2535 0.602734 27.5441C0.762109 28.1348 1.35273 28.9691 1.84961 29.3254L2.26211 29.6254L1.90586 30.1691C1.70898 30.4598 1.43711 31.0316 1.30586 31.4254L1.06211 32.1473V36.2066C1.06211 39.816 1.08086 40.2941 1.21211 40.491C1.49336 40.8848 1.87773 40.9691 3.49023 40.9691H4.99023L5.01836 43.2191L5.04648 45.4691L5.35586 45.7691L5.65586 46.0785L9.52773 46.1066L13.3996 46.1348L13.7277 45.9098L14.0465 45.6941L14.5152 45.8816C14.984 46.0785 15.0684 46.0785 30.3121 46.0785H45.6402L46.2684 45.7785C47.1121 45.3848 47.7684 44.7473 48.1527 43.9785C48.434 43.3973 48.4527 43.3035 48.4527 42.3285C48.4527 41.3723 48.434 41.2504 48.1621 40.6879C48.0027 40.3504 47.6746 39.8816 47.4402 39.6379C47.0371 39.2441 46.0059 38.6254 45.734 38.6254C45.6777 38.6254 45.584 38.316 45.5277 37.8848C45.0965 34.9879 42.584 32.9348 39.6871 33.1316C39.2465 33.1598 38.7965 33.2066 38.6934 33.2441C38.5059 33.291 38.4871 33.2535 38.4402 32.5598C38.384 31.6316 38.159 30.9566 37.6621 30.216L37.2684 29.6348L37.6434 29.3723C38.5715 28.7348 39.0215 27.7504 39.0965 26.2035C39.1621 24.966 39.0215 23.9441 38.7027 23.2879C38.4027 22.6785 37.6809 22.0035 36.9871 21.6754C36.4715 21.4316 36.3965 21.4223 34.4277 21.3941L32.3934 21.366L31.9527 20.2691C31.709 19.6691 31.3527 18.9191 31.1652 18.6098C30.4996 17.4848 29.1965 16.4629 27.8746 16.0035C27.2652 15.7973 27.2371 15.7973 19.9059 15.7785L12.5465 15.7598L11.8434 15.966ZM27.5934 18.2535C28.3809 18.6379 28.8121 19.0035 29.2059 19.6129C29.459 19.9973 32.6559 27.666 32.6559 27.8816C32.6559 27.9098 26.8527 27.9379 19.7652 27.9379C12.6777 27.9379 6.87461 27.9191 6.87461 27.9004C6.87461 27.816 9.91211 20.3629 10.0902 20.016C10.5309 19.1441 11.3746 18.4129 12.3309 18.0848C12.7996 17.916 13.2496 17.916 19.9059 17.9348L26.984 17.9535L27.5934 18.2535ZM6.21836 23.5973C6.21836 23.6441 5.83398 24.6379 5.35586 25.8191L4.48398 27.9566L4.03398 27.9004C3.48086 27.8348 3.04023 27.5816 2.79648 27.1691C2.63711 26.9066 2.60898 26.691 2.60898 25.7348C2.60898 24.4691 2.72148 24.1316 3.31211 23.7473C3.59336 23.5504 3.72461 23.5316 4.91523 23.5316C5.63711 23.5316 6.21836 23.5598 6.21836 23.5973ZM36.2184 23.7379C36.8559 24.1785 36.9215 24.3566 36.9215 25.6691C36.9215 26.7285 36.9027 26.8973 36.7152 27.1879C36.4527 27.6098 36.059 27.8348 35.4965 27.9098L35.0465 27.9566L34.184 25.8098C33.7059 24.6191 33.3121 23.6254 33.3121 23.5973C33.3121 23.5598 33.8934 23.5316 34.6152 23.5316C35.8059 23.5316 35.9371 23.5504 36.2184 23.7379ZM34.3996 30.2535C34.7184 30.3566 35.0277 30.5816 35.4309 30.9754C36.1715 31.716 36.3121 32.1285 36.3121 33.4598L36.3027 34.4535L35.9559 34.8473L35.609 35.241L34.9996 35.0535C34.5871 34.9223 34.1277 34.8566 33.5746 34.8566H32.7684L32.4027 34.4066C30.9027 32.5691 28.484 31.7254 26.1215 32.2129C24.8277 32.4754 23.7684 33.066 22.8121 34.041L22.2777 34.5941L21.6309 34.4535C19.8871 34.0879 18.3402 34.5566 17.1496 35.8129C16.484 36.516 16.1184 37.191 15.9496 37.9879C15.8371 38.5129 15.8277 38.5316 15.5465 38.5316C15.3777 38.5316 15.0402 38.5973 14.7871 38.6723C14.4027 38.7848 13.4184 38.8129 8.77773 38.8129H3.21836V35.6441C3.21836 31.8941 3.21836 31.8754 4.10898 30.9754C4.47461 30.6004 4.82148 30.3566 5.09336 30.2535C5.46836 30.1223 7.00586 30.1035 19.7277 30.1035C32.7684 30.0941 33.9684 30.1035 34.3996 30.2535ZM28.484 34.3598C29.5996 34.6504 30.4715 35.3254 31.1184 36.3848C31.4465 36.9285 31.8121 37.2191 32.1777 37.2191C32.2809 37.2191 32.6184 37.1535 32.9277 37.0691C33.6871 36.8816 34.3434 37.0035 35.0184 37.4816C35.4215 37.7629 35.5996 37.8285 35.9652 37.8285C36.3684 37.8285 36.4527 37.791 36.7152 37.491C36.884 37.3035 37.1184 36.966 37.2496 36.7504C37.3809 36.5254 37.7277 36.1691 38.0184 35.9535C40.4184 34.1723 43.6621 36.0754 43.3996 39.1035C43.3434 39.6754 43.3621 39.891 43.484 40.116C43.6715 40.491 44.0746 40.6879 44.6371 40.6879C45.6121 40.6879 46.334 41.3816 46.3434 42.3098C46.3434 43.0223 45.9871 43.5285 45.2934 43.8285C44.984 43.9504 43.2965 43.9691 30.2371 43.9691H15.5371L15.1246 43.7629C14.159 43.2754 13.9152 42.0941 14.609 41.2691C14.984 40.8191 15.3777 40.6879 16.3152 40.6879C17.6371 40.6879 17.9559 40.4066 17.984 39.2066C18.0027 38.3348 18.209 37.8191 18.7621 37.266C19.2777 36.741 19.8215 36.5254 20.609 36.516C21.1809 36.516 21.3402 36.5535 21.7996 36.816C22.409 37.1629 22.9246 37.2191 23.2715 36.9754C23.384 36.891 23.6371 36.591 23.8152 36.3098C24.8746 34.6598 26.6934 33.9004 28.484 34.3598ZM12.0309 42.4691V43.9691H9.59336H7.15586V42.4691V40.9691H9.59336H12.0309V42.4691Z" fill="#203066"/>
<ellipse cx="38.0403" cy="15.6928" rx="4.92308" ry="1.53846" fill="#FF008A"/>
<path d="M35.892 1.96897C32.4982 2.50334 29.8451 4.92209 28.9826 8.26897C28.7201 9.30022 28.7014 10.9783 28.9451 12.0377C29.367 13.8752 30.3045 15.4221 31.7576 16.6502C35.2732 19.6315 40.6639 19.0877 43.5607 15.4502C45.2482 13.3315 45.8201 10.3877 45.0232 7.81897C44.1514 4.99709 41.892 2.84084 39.0795 2.14709C38.1982 1.93147 36.6889 1.84709 35.892 1.96897ZM38.2639 4.18147C39.3701 4.40647 40.3826 4.93147 41.2451 5.75647C42.0982 6.55334 42.5857 7.31272 42.942 8.39084C43.2607 9.35647 43.2982 10.969 43.0264 11.8596C42.417 13.8752 40.8514 15.5158 38.9389 16.144C38.1795 16.3877 36.717 16.4721 35.9107 16.3127C34.0826 15.9565 32.4889 14.7565 31.5889 13.0315C31.1107 12.1221 30.9326 11.3627 30.9326 10.219C30.9326 8.57834 31.4576 7.23772 32.5826 6.04709C34.092 4.42522 36.1545 3.75022 38.2639 4.18147Z" fill="#203066"/>
<path d="M38.3375 8.26934C38.0656 8.54121 37.6156 9.02871 37.3344 9.35684L36.8094 9.95684L36.2187 9.57246C35.4406 9.06621 35.0281 9.04746 34.5687 9.50684C34.2969 9.77871 34.25 9.89121 34.25 10.2475C34.25 10.81 34.4094 10.9881 35.6281 11.7943C36.9687 12.685 37.2781 12.6943 38.0094 11.8693C40.55 8.99121 40.5125 9.04746 40.1281 8.26934C39.9875 7.97871 39.5937 7.78184 39.1625 7.78184C38.8719 7.78184 38.7406 7.85684 38.3375 8.26934Z" fill="#203066"/>
<path d="M8.97565 33.6942C8.62877 34.0411 8.55377 34.463 8.7694 34.913C8.9569 35.3348 9.28502 35.4755 10.2038 35.513C11.2163 35.5598 11.6475 35.4192 11.9381 34.9505C12.1631 34.5848 12.1725 34.3036 11.985 33.938C11.7319 33.4411 11.535 33.3755 10.3631 33.3755H9.2944L8.97565 33.6942Z" fill="#203066"/>
</g>
<defs>
<clipPath id="clip0_13605_34122">
<rect width="48" height="48" fill="white" transform="translate(0.5)"/>
</clipPath>
</defs>
</svg>
