<svg width="40" height="40" viewBox="0 0 40 40" fill="none" xmlns="http://www.w3.org/2000/svg">
<g clip-path="url(#clip0_15376_12917)">
<path d="M26.668 16.6666H31.668C33.9692 16.6666 35.8346 18.5321 35.8346 20.8333H30.8346C28.5334 20.8333 26.668 18.9678 26.668 16.6666Z" fill="#FF008A"/>
<path d="M23.332 30.8334H28.332C30.6332 30.8334 32.4987 32.6989 32.4987 35H27.4987C25.1975 35 23.332 33.1346 23.332 30.8334Z" fill="#FF008A"/>
<rect x="11.668" y="1.66663" width="9.16667" height="2.5" rx="1.25" fill="#FF008A"/>
<rect x="11.668" y="30.8334" width="4.16667" height="2.5" rx="1.25" fill="#FF008A"/>
<path d="M15.8359 0.0937729C15.7656 0.14846 15.6797 0.289085 15.6328 0.39846C15.5703 0.58596 15.5078 0.609398 15.0156 0.64846C13.6484 0.781273 12.0312 1.60159 11.0312 2.68752C10.5078 3.25002 9.96094 4.14846 9.67969 4.89846C9.4375 5.5469 9.42188 5.65627 9.39062 6.7969L9.35938 8.01565L9.13281 8.14065C8.71875 8.38284 8.65625 8.89065 8.99219 9.22659C9.13281 9.36721 9.22656 9.39065 9.57812 9.3594L10 9.32034V9.66409V10H9.4375C8.24219 10.0078 7.5 10.7266 7.5 11.875C7.5 12.4297 7.61719 12.75 7.96875 13.1563C8.35156 13.586 8.61719 13.6953 9.39844 13.75L10.0859 13.7891L10.2656 14.2344C10.3672 14.4766 10.5781 14.8594 10.7422 15.0781C11.0234 15.461 11.6641 16.0391 11.8906 16.1094C11.9688 16.1406 11.9375 16.3125 11.7734 16.8203L11.5547 17.5H11.2578C11.1016 17.5 10.9141 17.5469 10.8438 17.5938C10.7734 17.6485 10.4766 18.0703 10.1719 18.5235L9.61719 19.3594L9.00781 19.4922C7.60156 19.8047 6.26562 20.3828 5.40625 21.0391C4.76562 21.5235 3.94531 22.461 3.64844 23.0391C3.13281 24.0235 3.125 24.0625 3.125 27.5625V30.7188L2.92969 30.875C2.5625 31.1641 2.5 31.3985 2.5 32.5C2.5 33.6016 2.5625 33.836 2.92969 34.125L3.125 34.2813V36.9844C3.125 39.586 3.13281 39.6953 3.28125 39.8438C3.45312 40.0156 3.89062 40.0547 4.14062 39.9219C4.41406 39.7735 4.45312 39.4297 4.45312 36.8672V34.375H6.28906H8.125V37.0313C8.125 39.586 8.13281 39.6953 8.28125 39.8438C8.45312 40.0156 8.89062 40.0547 9.14062 39.9219C9.4375 39.7578 9.45312 39.5235 9.45312 33.9922V28.6328L10.4141 28.4063C10.9375 28.2813 11.4609 28.1328 11.5703 28.0781C11.8828 27.9219 11.9766 27.6172 11.8828 27.0235C11.6484 25.586 10.6016 23.6797 8.89062 21.586L8.42969 21.0235L8.72656 20.9453C9.36719 20.7735 9.72656 20.711 9.77344 20.7656C9.79688 20.7969 10.4453 21.5703 11.2109 22.4922C12.5547 24.1094 12.6172 24.2031 12.9922 25.0703C13.3672 25.9453 13.75 27.25 13.75 27.625C13.75 27.7266 13.8203 27.8828 13.9062 27.9688C14.0547 28.1172 14.1641 28.125 16.3203 28.125H18.5859L18.7422 27.9219C18.8359 27.8047 18.9062 27.6016 18.9062 27.461C18.9062 27.0781 19.2422 25.9922 19.6641 25.0078C20.0234 24.1797 20.1094 24.0625 21.4766 22.4219C22.5 21.1875 22.9453 20.711 23.0391 20.7344C23.1094 20.75 23.3672 20.8125 23.6172 20.8672C23.8672 20.9219 24.0859 20.9922 24.1016 21.0235C24.125 21.0469 23.875 21.4063 23.5469 21.8047C21.8984 23.8516 20.8438 25.875 20.7266 27.1875C20.6641 27.9531 20.7734 28.0469 22.1094 28.3828L23.1641 28.6406L23.2031 34.1563C23.2422 39.4375 23.25 39.6797 23.3906 39.836C23.6172 40.086 24.1562 40.0625 24.3672 39.7969C24.5234 39.5938 24.5312 39.5 24.5312 37.2969V35H26.3672H28.2031V36.1328V37.2656H27.0312C25.4453 37.2656 25.4375 37.2813 25.4844 38.8281C25.5078 39.6328 25.5234 39.711 25.6953 39.8516C25.9531 40.0625 26.4141 40.0469 26.625 39.8203C26.7656 39.6719 26.7969 39.5469 26.7969 39.1172V38.5938H30.3516H33.9062V39.0938C33.9062 39.7578 34.0859 40 34.5703 40C34.8438 40 34.9453 39.961 35.0703 39.7969C35.2188 39.6094 35.2344 39.4844 35.2344 38.6172C35.2344 37.6953 35.2266 37.6406 35.0391 37.461C34.8594 37.2735 34.8203 37.2656 33.7109 37.2656H32.5781V36.1406V35.0078L34.5547 34.9844C36.4609 34.961 36.5312 34.9531 36.8203 34.7813C36.9766 34.6797 37.1953 34.4453 37.3047 34.2656C37.5 33.9375 37.5 33.9063 37.5 32.211C37.5 30.25 37.4453 30 36.9453 29.4219C36.7734 29.2266 36.4375 28.9766 36.1875 28.8516C35.75 28.6406 35.7109 28.6328 34.1641 28.6094L32.5781 28.5781V27.5V26.4219L32.7969 26.3672C33.1953 26.2656 33.9453 25.8672 34.3516 25.5313C35.1797 24.8438 35.8281 23.7656 36.0547 22.6875C36.1328 22.3125 36.1719 21.6328 36.1719 20.4453C36.1719 18.9297 36.1562 18.6953 36.0078 18.2656C35.5547 16.9141 34.4844 16.0469 33.0547 15.8516C32.6641 15.7969 31.4609 15.7813 29.9062 15.7969C27.4766 15.8281 27.3672 15.836 26.9141 16.0156C26.2812 16.2656 26.0469 16.4141 25.5781 16.875C24.9219 17.5235 24.5312 18.4375 24.5312 19.3125C24.5312 19.5156 24.5078 19.6875 24.4766 19.6875C24.4375 19.6875 24.1016 19.6172 23.7109 19.5235L23.0078 19.3672L22.4766 18.5547C21.8203 17.5625 21.7344 17.4766 21.3438 17.4844L21.0391 17.4922L20.8438 16.8516L20.6406 16.211L20.8125 16.0938C21.3359 15.7344 21.9766 15.0078 22.2266 14.5078C22.375 14.211 22.5 13.9141 22.5 13.8594C22.5 13.7735 22.6562 13.75 23.1484 13.75C23.7422 13.75 23.8359 13.7266 24.2188 13.4922C24.5078 13.3281 24.7188 13.1172 24.8828 12.8594C25.0938 12.5156 25.1172 12.4063 25.1172 11.875C25.1172 11.3438 25.0938 11.2344 24.8828 10.8906C24.7188 10.6328 24.5078 10.4219 24.2188 10.25C23.8438 10.0313 23.7266 10 23.2266 10H22.6562V9.68752V9.37502H23.0078C23.7344 9.37502 24 8.72659 23.4766 8.2344L23.2031 7.97659V7.08596C23.2031 4.53909 21.7812 2.32034 19.4297 1.21096C18.7734 0.89846 17.7812 0.625023 17.2891 0.625023C16.9766 0.625023 16.9375 0.601585 16.8594 0.390648C16.8203 0.257835 16.7188 0.11721 16.6406 0.0781479C16.4375 -0.0312271 15.9922 -0.0156021 15.8359 0.0937729ZM17.5781 2.03909C19.0859 2.28127 20.375 3.16409 21.1641 4.51565C21.6562 5.35159 21.8203 5.9219 21.8594 6.96096L21.8906 7.8594L21.1172 7.76565C18.7188 7.46096 14.2266 7.4219 12.0312 7.68752C10.5469 7.87502 10.7031 7.95315 10.7031 6.96877C10.7031 6.01565 10.8125 5.55471 11.2109 4.76565C12.3359 2.56252 14.6484 1.57815 17.5781 2.03909ZM18.3203 8.86721C19.3516 8.90627 20.4922 9.00784 21.0781 9.10159L21.3359 9.14846L21.3125 11.2344C21.2891 13.3125 21.2891 13.3203 21.0781 13.7656C20.7422 14.4844 20.3203 14.8281 19.1016 15.3828C16.8047 16.4297 15.9219 16.4297 13.5625 15.4063C12.3203 14.8672 11.7812 14.4063 11.4922 13.6485C11.3359 13.211 11.3281 13.086 11.3438 11.1485L11.3672 9.10159L12.2656 9.00002C13.3438 8.88284 15.9141 8.76565 16.6797 8.80471C16.9844 8.81252 17.7188 8.84377 18.3203 8.86721ZM10 11.875V12.5H9.72656C9.30469 12.5 8.92188 12.3125 8.85938 12.0781C8.73438 11.5781 9.0625 11.2578 9.71094 11.25H10V11.875ZM23.6562 11.5235C24.0156 11.9453 23.7344 12.3985 23.0703 12.4766L22.6562 12.5235V11.875V11.2266L23.0703 11.2735C23.375 11.3125 23.5234 11.375 23.6562 11.5235ZM14.9766 17.3516C16.2344 17.6563 17.9219 17.4531 19.0859 16.8672C19.3125 16.75 19.3906 16.7344 19.4141 16.8125C19.5781 17.25 19.9219 18.3281 19.9219 18.3985C19.9219 18.4766 16.4844 21.4922 16.3359 21.5469C16.2734 21.5703 12.7812 18.5938 12.7109 18.4531C12.6953 18.4219 12.8047 18.0235 12.9531 17.5625L13.2188 16.7344L13.7578 16.961C14.0547 17.086 14.6016 17.2656 14.9766 17.3516ZM33.4766 17.3281C33.9453 17.5391 34.3984 17.9688 34.6328 18.3985C34.7891 18.6875 34.8047 18.8438 34.8281 20.3125C34.8594 22.086 34.8047 22.4844 34.4453 23.2578C33.9922 24.211 33.0938 24.9375 32.1094 25.1563C31.8281 25.2188 31.0938 25.2422 29.9609 25.2188L28.2344 25.1953L27.7266 24.9453C27.1016 24.6328 26.6328 24.1485 26.3203 23.4844C25.9297 22.6563 25.8438 22.0313 25.875 20.3125C25.8984 18.836 25.9062 18.7813 26.1094 18.3906C26.4297 17.7813 26.9766 17.3516 27.6328 17.1953C27.7969 17.1563 29.0938 17.125 30.5078 17.1328C33.0156 17.1485 33.0938 17.1563 33.4766 17.3281ZM21.5234 19.586L21.7734 19.9531L20.6406 21.3125C20.0156 22.0547 19.4844 22.6406 19.4453 22.6016C19.2656 22.4063 18.5938 21.5313 18.5938 21.4844C18.5938 21.4063 21.1953 19.1406 21.2422 19.1797C21.2578 19.2031 21.3828 19.3828 21.5234 19.586ZM12.6406 20.211C13.2734 20.75 13.8594 21.2578 13.9375 21.336C14.0781 21.4688 14.0703 21.4844 13.625 22.0625C13.375 22.3828 13.1406 22.6406 13.1172 22.6328C13.0859 22.625 12.5703 22.0235 11.9609 21.2969C10.7422 19.8281 10.8203 20.0313 11.2188 19.4141C11.2891 19.3047 11.3828 19.2188 11.4219 19.2188C11.4609 19.2188 12.0078 19.6641 12.6406 20.211ZM8.4375 23.2188C9.28906 24.3438 10 25.5313 10.3203 26.3516C10.4453 26.6953 10.5469 26.9766 10.5312 26.9922C10.5156 27 10.2656 27.0703 9.96875 27.1406L9.4375 27.2735L9.25 27.0703C9.01562 26.8203 8.51562 26.7969 8.28125 27.0313C8.13281 27.1797 8.125 27.2891 8.125 28.9063V30.625H6.28906H4.45312V27.5781C4.45312 24.0938 4.44531 24.1328 5.15625 23.1953C5.53906 22.6875 6.36719 21.9375 6.83594 21.6953L7.07031 21.5625L7.40625 21.9297C7.59375 22.1328 8.0625 22.711 8.4375 23.2188ZM16.3203 23.125C16.5547 23.125 16.6953 23.0547 17.0234 22.7735C17.25 22.5781 17.4609 22.4219 17.5 22.4219C17.5312 22.4219 17.8125 22.7344 18.125 23.125L18.6797 23.8203L18.3281 24.7031C18.1328 25.1875 17.8984 25.875 17.8047 26.2266L17.6328 26.875H16.3203H15.0078L14.8438 26.3047C14.6406 25.6094 14.2422 24.5078 14.0547 24.1328L13.9219 23.8594L14.5156 23.1094L15.1094 22.3594L15.5625 22.7422C15.9375 23.0547 16.0781 23.125 16.3203 23.125ZM25.1719 24.211C25.6875 25.2344 26.7891 26.1485 27.8359 26.4063L28.2031 26.5V27.5469V28.5938H26.7734C25.8281 28.5938 25.2109 28.6328 24.9375 28.7031L24.5312 28.8047V28.0469C24.5312 27.3985 24.5078 27.2578 24.3672 27.0781C24.1406 26.7891 23.5938 26.7891 23.375 27.0703L23.2188 27.2656L22.6641 27.1328C22.3594 27.0625 22.1094 26.9766 22.1094 26.9375C22.1094 26.7891 22.5312 25.7735 22.7891 25.3125C23.1406 24.6875 23.8516 23.6172 24.2969 23.0547L24.6328 22.6328L24.7734 23.1641C24.8438 23.4531 25.0234 23.9219 25.1719 24.211ZM31.25 27.5781V28.5938H30.3906H29.5312V27.5781V26.5625H30.3906H31.25V27.5781ZM35.5469 30.0469C35.7344 30.125 35.9219 30.2735 36.0156 30.4297C36.1641 30.6719 36.1719 30.7969 36.1562 32.1641L36.1328 33.6328H30.3516H24.5703L24.5469 32.1797C24.5312 30.7813 24.5312 30.7188 24.7031 30.461C25.0859 29.8985 24.8672 29.9219 30.3281 29.9219C34.6406 29.9219 35.2656 29.9375 35.5469 30.0469ZM8.125 32.5V33.125H5.97656H3.82812V32.5V31.875H5.97656H8.125V32.5ZM31.25 36.1328V37.2656H30.3906H29.5312V36.1328V35H30.3906H31.25V36.1328Z" fill="#393F4D"/>
<path d="M12.2101 29.6563C11.7335 29.8281 11.2101 30.3281 10.9679 30.8438C10.5538 31.7188 10.7335 32.8203 11.3898 33.4609C11.6788 33.7422 15.1945 35.8203 15.5304 35.9063C15.8507 35.9922 16.132 35.7969 16.4445 35.2734C16.7648 34.7109 16.6945 34.7266 17.3976 35.1328L17.7257 35.3203L17.5773 35.5703C17.3742 35.8984 17.382 36.1953 17.6007 36.4375C17.8038 36.6719 20.1007 37.5 20.546 37.5C20.8898 37.5 21.0226 37.3672 21.4679 36.5781C21.8038 35.9922 21.8585 35.7344 21.7179 35.4688C21.6007 35.25 19.5538 33.5234 19.3507 33.4766C19.0773 33.4063 18.7648 33.5625 18.5851 33.8672C18.4913 34.0156 18.4054 34.1406 18.3976 34.1406C18.382 34.1406 18.1554 34.0156 17.8976 33.8672L17.4288 33.5859L17.6945 33.0938C17.9835 32.5859 18.0382 32.2266 17.8742 32.0078C17.7492 31.8516 14.132 29.7578 13.757 29.625C13.3976 29.5 12.6085 29.5156 12.2101 29.6563ZM14.757 31.6953C15.5538 32.1484 16.2492 32.5547 16.3038 32.5938C16.4445 32.7031 15.4913 34.3203 15.3195 34.2578C14.9288 34.1094 12.3429 32.5469 12.2492 32.3984C11.9523 31.9453 12.0382 31.4531 12.4913 31.0703C12.9288 30.7031 13.132 30.7578 14.757 31.6953ZM19.8742 35.5859C20.0929 35.7813 20.2413 35.9531 20.2179 35.9844C20.1867 36.0078 19.921 35.9531 19.6242 35.8516L19.0851 35.6797L19.2101 35.4609C19.2804 35.3359 19.3742 35.2344 19.4132 35.2422C19.4601 35.2422 19.6632 35.3984 19.8742 35.5859Z" fill="#393F4D"/>
</g>
<defs>
<clipPath id="clip0_15376_12917">
<rect width="40" height="40" fill="white"/>
</clipPath>
</defs>
</svg>
