<svg width="48" height="48" viewBox="0 0 48 48" fill="none" xmlns="http://www.w3.org/2000/svg">
<g clip-path="url(#clip0_15376_12993)">
<path d="M36.572 26.8572L29.7148 32V32.5715H37.1434L38.8577 30.8572L41.7148 32V26.8572H36.572Z" fill="#FF008A"/>
<path d="M24.0017 32.0001C24.0017 34.8404 18.2706 35.9999 15.4302 35.9999C12.5899 35.9999 9.14453 34.8403 9.14453 32C9.14453 29.1596 12.5899 31.9998 15.4302 31.9998C18.2706 31.9998 24.0017 29.1597 24.0017 32.0001Z" fill="#FF008A"/>
<circle cx="10.2857" cy="18.2857" r="2.28571" fill="#FF008A"/>
<path d="M38.6043 24L35.4297 17.1428H41.144L38.6043 24Z" fill="#FF008A"/>
<path d="M13.8281 0.0655823C11.925 0.299957 9.90938 0.80621 8.85938 1.31246C7.47188 1.98746 6.4125 3.03746 5.70938 4.45308C5.19375 5.49371 5.0625 6.04683 4.99688 7.43433C4.94063 8.60621 4.93125 8.64371 4.65938 8.93433C3.51563 10.1531 2.53125 11.6156 1.73438 13.2562C1.05 14.6531 0.684375 15.7031 0.309375 17.3625L0.046875 18.5156L0.01875 32.9812L0 47.4468L0.271875 47.7281C0.665625 48.1125 1.275 48.1125 1.70625 47.7281L2.01562 47.4562L2.0625 33.1687L2.10938 18.8906L2.37188 17.7187C2.80313 15.825 3.55313 14.025 4.5375 12.5156L4.96875 11.8593V13.0593C4.96875 14.6812 5.1375 15 6 15C6.4875 15 6.7125 14.8781 6.89063 14.5312C7.0125 14.3062 7.03125 13.6875 7.03125 10.7156C7.03125 6.76871 7.07813 6.32808 7.6125 5.31558C8.01562 4.53746 8.97188 3.59996 9.75 3.21558C10.4062 2.88746 11.6438 2.53121 12.9844 2.29683C14.2781 2.06246 16.875 2.00621 18.2438 2.19371C19.6031 2.37183 21.3656 2.80308 22.0875 3.13121C23.2781 3.67496 24.1969 4.68746 24.6844 5.97183L24.8906 6.51558L24.9188 16.4531C24.9469 26.8406 24.9375 27.1031 24.5438 28.4062C24.3938 28.875 24.0094 29.8125 23.85 30.075C23.8406 30.0937 23.2875 29.8406 22.6219 29.5031C18.4125 27.4312 13.5 27.4406 9.29063 29.55C8.7 29.85 8.18438 30.0656 8.14688 30.0468C8.03438 29.9718 7.5 28.6125 7.29375 27.8625C7.125 27.225 7.09688 26.8125 7.05938 24.4687C7.02188 21.7125 6.975 21.3843 6.61875 21.1406C6.39375 20.9812 5.7 20.9531 5.42813 21.0937C5.00625 21.3187 4.96875 21.5906 4.96875 24.2062C4.96875 27.7593 5.25 29.1281 6.375 31.1718C8.19375 34.4437 11.4281 36.4687 15.3844 36.7968C17.3156 36.9562 19.875 36.3281 21.6562 35.2406C24.2625 33.6562 25.9313 31.4062 26.7469 28.3687C26.9438 27.6281 26.9438 27.4125 27 19.7343L27.0469 11.8593L27.4969 12.5625C28.1063 13.5 28.7906 14.9437 29.1563 16.0312C29.8406 18.0937 30 19.65 30 24.3562V27.4781L30.225 27.7031C30.7031 28.1812 31.4813 28.1156 31.8469 27.5718C32.0625 27.2531 32.0625 27.2437 32.0625 23.7656C32.0625 21.8437 32.0156 19.8375 31.9688 19.3031C31.5938 15.5062 30.1688 12.1875 27.675 9.32808L27.0281 8.56871L26.9813 7.31246C26.9344 6.21558 26.8875 5.94371 26.6531 5.27808C26.1375 3.84371 25.2844 2.71871 24.0656 1.86559C22.3594 0.674957 19.3313 -0.00941467 15.8625 0.00933456C14.8969 0.0187073 13.9875 0.046833 13.8281 0.0655823ZM18.1875 30.2531C18.675 30.3281 19.5 30.5343 20.025 30.7031C21.1594 31.0781 22.5281 31.7437 22.4719 31.9031C22.4156 32.0906 21.1781 33.0843 20.5219 33.4781C19.0125 34.3781 17.5125 34.7343 15.5625 34.6593C14.4375 34.6218 14.1938 34.575 13.3125 34.2843C12.7688 34.0968 12.0563 33.8062 11.7188 33.6187C11.1094 33.2906 9.5625 32.1 9.49688 31.9125C9.45938 31.7906 10.2844 31.3406 11.25 30.9562C13.3969 30.1031 15.825 29.8593 18.1875 30.2531Z" fill="#393F4D"/>
<path d="M33.9375 6.53437V13.0781L35.0344 18.5437L36.1219 24L38.0063 23.9812L39.8813 23.9531L40.9406 18.7031L41.9906 13.4531L42 6.72187V0H40.9688H39.9375V6.49687V12.9937L39.0469 17.4375C38.5594 19.8844 38.1562 21.9 38.1562 21.9094C38.1562 21.9281 38.0906 21.9375 38.0156 21.9375C37.8469 21.9375 37.95 22.3875 36.8906 17.0625L36 12.6187V6.30937V0H34.9688H33.9375V6.53437Z" fill="#393F4D"/>
<path d="M8.95313 13.0499C8.93438 13.1155 8.90625 13.3687 8.87813 13.6124C8.8125 14.278 8.33438 15.2155 7.74375 15.8062C7.14375 16.3968 6.50625 16.7249 5.60625 16.8937L4.96875 17.0155V18.0093V19.003L5.5875 19.1062C6.89063 19.3218 7.92188 20.0812 8.49375 21.2343C8.70938 21.6749 8.85938 22.1249 8.89688 22.4718L8.95313 23.0155L10.0125 23.0437L11.0625 23.0718V22.7437C11.0625 22.2093 11.4188 21.2249 11.8031 20.7093C12.4875 19.8187 13.2844 19.3124 14.3719 19.1155L15 19.003V17.9999V16.9968L14.4 16.8937C13.275 16.6874 12.4969 16.1999 11.8125 15.2905C11.4188 14.7749 11.0625 13.7999 11.0625 13.2562V12.9374H10.0312C9.28125 12.9374 8.98125 12.9655 8.95313 13.0499ZM10.9313 17.4655C11.1 17.6062 11.3063 17.7843 11.4 17.8593C11.5688 17.9812 11.5594 18.0093 11.2125 18.2905C10.8188 18.628 10.2188 19.2562 10.0969 19.4624C10.0406 19.5655 9.9375 19.4905 9.66563 19.1437C9.36563 18.7687 9.06563 18.4968 8.44688 18.028C8.41875 18.0093 8.50313 17.9249 8.63438 17.8405C8.94375 17.6343 9.9375 16.5937 9.9375 16.4718C9.9375 16.4155 10.0969 16.5562 10.2938 16.7812C10.4813 17.0062 10.7719 17.3155 10.9313 17.4655Z" fill="#393F4D"/>
<path d="M32.2781 28.6969L27.9375 31.4156V33V34.5844L32.2969 37.3031L36.6562 40.0312H42.3281H48V39V37.9688H42.675H37.35L34.2563 36.0375C32.5594 34.9781 31.1531 34.0875 31.1344 34.0687C31.1156 34.05 32.4469 34.0312 34.0969 34.0312H37.1063L37.3969 34.5375C37.7344 35.1375 38.3531 35.6437 39.0188 35.8687C39.7313 36.1031 40.7813 36.0187 41.4188 35.6719C42.075 35.3156 42.5906 34.7437 42.8344 34.0875C43.0219 33.5906 43.0313 33.3844 43.0313 30.7969V28.0312H45.5156H48V27V25.9687L42.3094 25.9781H36.6094L32.2781 28.6969ZM40.9688 29.0437V30.0656L40.2281 30.0187C38.9625 29.9437 37.9594 30.45 37.3969 31.4625L37.1063 31.9688H34.0969C32.4469 31.9688 31.1156 31.95 31.1344 31.9312C31.1531 31.9125 32.5594 31.0219 34.2563 29.9625L37.35 28.0312H39.1594H40.9688V29.0437ZM40.5938 32.3156C40.7813 32.4844 40.9031 32.7 40.9406 32.925C40.9875 33.2344 40.9594 33.3094 40.6594 33.6094C40.4063 33.8625 40.2563 33.9375 40.0031 33.9375C39.1313 33.9375 38.7469 32.8031 39.4313 32.2594C39.7875 31.9781 40.2469 32.0062 40.5938 32.3156Z" fill="#393F4D"/>
<path d="M30.2719 39.2718L30 39.5437V43.5V47.4562L30.2719 47.7281C30.6656 48.1125 31.275 48.1125 31.7063 47.7281L32.0156 47.4562V43.5V39.5437L31.7063 39.2718C31.275 38.8875 30.6656 38.8875 30.2719 39.2718Z" fill="#393F4D"/>
<path d="M10.9688 43.0312V44.0625H12H13.0312V43.0312V42H12H10.9688V43.0312Z" fill="#393F4D"/>
<path d="M15 43.0312V44.0625H16.0312H17.0625V43.0312V42H16.0312H15V43.0312Z" fill="#393F4D"/>
<path d="M18.9375 43.0312V44.0625H19.9688H21V43.0312V42H19.9688H18.9375V43.0312Z" fill="#393F4D"/>
</g>
<defs>
<clipPath id="clip0_15376_12993">
<rect width="48" height="48" fill="white"/>
</clipPath>
</defs>
</svg>
