<svg width="40" height="40" viewBox="0 0 40 40" fill="none" xmlns="http://www.w3.org/2000/svg">
<path d="M7.38281 0.140621C7.03906 0.304684 6.73438 0.570309 6.53125 0.874996C6.40625 1.07031 6.39844 1.07031 6.07031 0.960934C5.82812 0.874996 5.49219 0.851559 4.80469 0.874996C3.75781 0.906246 3.46094 1.00781 2.99219 1.5C2.53125 1.98437 2.47656 2.21875 2.4375 3.96093L2.40625 5.53906L2.03125 5.78125C1.5625 6.07812 0.929688 6.75 0.71875 7.15625C0.398438 7.78125 0.3125 8.26562 0.3125 9.375C0.3125 10.3516 0.328125 10.4531 0.46875 10.5859C0.695312 10.7891 1.13281 10.7812 1.35156 10.5625C1.50781 10.4062 1.53125 10.2891 1.5625 9.3125C1.59375 8.57812 1.64844 8.15625 1.73438 7.95312C1.92188 7.53906 2.46875 6.96875 2.92969 6.73437L3.32031 6.52343L5.96094 6.5C7.89844 6.48437 8.64062 6.5 8.71875 6.57031C8.78906 6.63281 8.82812 6.82812 8.82812 7.17968C8.82812 7.85156 8.57031 8.39843 8.10938 8.71875L7.78906 8.94531L6.07031 8.98437C3.91406 9.03125 4.0625 8.91406 4.0625 10.5469C4.0625 12.1875 3.88281 12.0625 6.22656 12.1094L8.08594 12.1484L8.67188 12.4297C10.0703 13.1016 10.7266 14.1484 10.8359 15.8359L10.8828 16.6406H7.76562C4.36719 16.6406 3.88281 16.5937 3.22656 16.2109C2.53125 15.7969 2 15.1953 1.74219 14.5156C1.67188 14.3281 1.59375 13.8125 1.57031 13.3672C1.52344 12.6484 1.49219 12.5391 1.33594 12.4141C1.09375 12.2187 0.664062 12.2266 0.46875 12.4219C0.335938 12.5547 0.3125 12.6797 0.3125 13.2812C0.3125 14.1719 0.414062 14.6641 0.757812 15.3906C1.375 16.6875 3.00781 17.8125 4.27344 17.8125H4.53125V28.0937C4.53125 35.3281 4.55469 38.4687 4.61719 38.7109C4.71875 39.125 5.14062 39.6406 5.55469 39.8437C5.84375 39.9922 6.03906 40 10.7812 40C15.4844 40 15.7188 39.9922 16 39.8516C16.1641 39.7656 16.4141 39.5859 16.5469 39.4453C17.0312 38.9453 17.0312 38.9609 17.0312 33.1094V27.8125H17.4141H17.7969L17.8281 28.2656C17.8516 28.5703 17.9141 28.8047 18.0312 28.9687C18.1406 29.125 18.9453 29.6719 20.2109 30.4687L22.2188 31.7187H27.3047C30.75 31.7187 32.4844 31.6875 32.6953 31.6328C32.8906 31.5781 33.1328 31.4219 33.3281 31.2109C33.6406 30.8906 33.6641 30.8828 34.2344 30.8437C35.25 30.7812 35.8438 30.2891 36.0234 29.3594C36.0938 29 36.1484 28.9062 36.2578 28.9062C36.3984 28.9062 36.4062 29.0781 36.4062 34.1016C36.4062 39.7344 36.3984 39.5859 36.8281 39.875C37.1172 40.0625 38.9766 40.0625 39.2656 39.875C39.7031 39.5859 39.6875 39.8047 39.6875 33.3516C39.6875 29.1562 39.6641 27.3125 39.6016 27.1094C39.4609 26.6484 38.9922 26.0937 38.5156 25.8281C38.1094 25.6016 38.0312 25.5859 37.0938 25.5625L36.1094 25.5312L36.0547 25.1719C35.9844 24.6953 35.7734 24.2891 35.4531 24.0234C35.0703 23.7031 34.75 23.5937 34.1641 23.5937C33.6406 23.5937 33.6328 23.5859 33.4531 23.3125C33.125 22.8047 32.8438 22.7344 30.9922 22.7344C29.3672 22.7344 29.3672 22.7344 29.1797 22.9297C28.9219 23.1797 28.9219 23.5391 29.1797 23.7891C29.3672 23.9844 29.375 23.9844 30.8828 23.9844C32.2031 23.9844 32.4141 24 32.4531 24.1094C32.4766 24.1797 32.5 25.5937 32.5 27.2578C32.5 29.5078 32.4766 30.3047 32.4062 30.375C32.3359 30.4453 31.1719 30.4687 27.6406 30.4687H22.9688V27.2266V23.9844H25.0391H27.1172L27.3047 23.7891C27.5625 23.5391 27.5625 23.1797 27.3047 22.9297L27.1172 22.7344H24.6406H22.1719L20.2422 23.9375C19.1875 24.6016 18.2422 25.2266 18.1484 25.3281C17.9219 25.5625 17.8125 25.875 17.8125 26.2578V26.5625H17.4219H17.0312V21.7891V17.0156L17.5391 16.4687C17.8203 16.1641 18.1484 15.7031 18.2812 15.4375C18.7422 14.4844 18.75 14.4297 18.75 9.79687V5.55468L18.5469 5.39843C18.4297 5.30468 18.2578 5.23437 18.1562 5.23437C17.6328 5.23437 17.5 5.51562 17.5 6.64062C17.5 7.61718 17.4297 7.83593 16.9922 8.17187C16.3906 8.625 15.5391 8.42187 15.1797 7.73437C15 7.40625 15 7.35156 15 4.99218V2.57812L15.2266 2.32812C15.4453 2.07812 15.4844 2.07031 16.1328 2.03906C17.1562 2 17.5 2.21093 17.5 2.875C17.5 3.64062 18.0234 4 18.5469 3.58593C18.7344 3.4375 18.75 3.375 18.75 2.85937C18.75 1.86718 18.2344 1.14843 17.3516 0.882809C16.8516 0.742184 15.3125 0.765621 15.0156 0.929684C14.8516 1.01562 14.8125 0.999996 14.5078 0.656246C14.0078 0.0937462 13.7422 -3.8147e-06 12.5156 -3.8147e-06C11.4609 -3.8147e-06 11.0859 0.0781212 10.7734 0.359371C10.6484 0.468746 10.6094 0.460934 10.3047 0.257809C9.98438 0.0468712 9.9375 0.0390587 8.83594 0.0156212C7.85156 -3.8147e-06 7.64844 0.0156212 7.38281 0.140621ZM9.64844 1.35937C9.75781 1.42968 9.88281 1.57812 9.92188 1.6875C9.96875 1.79687 10 2.84375 10 4.00781V6.13281L9.80469 5.84375C9.50781 5.39843 9.07031 5.23437 8.21875 5.23437H7.5V3.44531V1.66406L7.70312 1.46093C7.95312 1.21093 8.09375 1.17968 8.84375 1.20312C9.25 1.21875 9.50781 1.26562 9.64844 1.35937ZM13.5312 1.46875L13.75 1.71875V4.625V7.52343L13.5547 7.85937C13.0547 8.71093 11.8516 8.67968 11.4062 7.80468C11.2578 7.52343 11.25 7.33593 11.25 4.61718V1.73437L11.4453 1.49218C11.6875 1.21093 11.8125 1.17968 12.6484 1.20312C13.2812 1.21875 13.3125 1.23437 13.5312 1.46875ZM5.95312 2.33593L6.21094 2.5625L6.23438 3.89843L6.25781 5.23437H4.96875H3.67188V4.11718C3.67188 2.28906 3.78906 2.10937 4.96875 2.10937C5.66406 2.10937 5.71094 2.11718 5.95312 2.33593ZM11.5391 9.54687C11.8203 9.67187 12.0625 9.71875 12.5 9.71875C13.1484 9.71875 13.6172 9.55468 14.125 9.14843L14.4141 8.92187L14.6094 9.07812C15.2969 9.63281 16.2656 9.82031 17.0547 9.54687L17.5078 9.39843L17.4844 11.7891L17.4609 14.1875L17.1719 14.7812C16.7031 15.7109 15.9453 16.3125 14.9531 16.5234C14.625 16.5937 13.9688 16.6406 13.2734 16.6406H12.1328L12.0859 15.7578C12.0234 14.7266 11.9062 14.2266 11.5156 13.4453C11.1562 12.7187 10.3281 11.8594 9.60156 11.4609C8.76562 10.9922 8.08594 10.8594 6.58594 10.8594H5.3125V10.5547V10.25L6.66406 10.2187C7.9375 10.1953 8.03125 10.1875 8.4375 9.98437C8.67188 9.86718 9.03906 9.73437 9.24219 9.6875C9.70312 9.58593 10.125 9.375 10.3906 9.11718L10.5859 8.92968L10.875 9.15625C11.0312 9.27343 11.3281 9.45312 11.5391 9.54687ZM15.7812 19.875V22.0859L15.375 22.125C14.9062 22.1719 14.6875 22.375 14.6875 22.7656C14.6875 23.1562 14.9297 23.3594 15.3906 23.3594H15.7812V24.9609C15.7812 26.3047 15.7656 26.5625 15.6719 26.5625C15.6094 26.5625 15.4609 26.6484 15.3438 26.75C14.9375 27.0937 15.1328 27.8125 15.6328 27.8125C15.7734 27.8125 15.7812 27.9297 15.7812 31.0391V34.2656L15.2422 34.7969C14.9453 35.0937 14.6797 35.4219 14.6484 35.5312C14.5078 36.0859 15.1484 36.5312 15.6094 36.2031L15.7812 36.0859V37.2187C15.7812 38.3047 15.7734 38.3594 15.5938 38.5703L15.4062 38.7891H10.7812H6.15625L5.96875 38.5703C5.78906 38.3594 5.78125 38.3047 5.78125 37.1641V35.9766L6.32812 35.4297C6.95312 34.8047 7.05469 34.5312 6.80469 34.2031C6.59375 33.9375 6.30469 33.8672 6.00781 34.0156L5.78125 34.125V28.7422V23.3594H6.17188C6.64844 23.3594 6.875 23.1719 6.875 22.7812C6.875 22.375 6.66406 22.1719 6.1875 22.125L5.78125 22.0859V19.9922V17.8984L10.4531 17.8672C13.5547 17.8516 15.1953 17.8125 15.3516 17.7578C15.8047 17.5937 15.7812 17.4766 15.7812 19.875ZM21.7188 27.2187V29.9141L20.3906 29.0859L19.0547 28.25L19.0781 27.1953L19.1016 26.1484L20.3906 25.3437C21.1016 24.8984 21.6875 24.5312 21.7031 24.5312C21.7109 24.5312 21.7188 25.7422 21.7188 27.2187ZM34.6172 24.9922C34.8047 25.1406 34.8047 25.1562 34.8281 27.0391C34.8438 28.0859 34.8359 29.0234 34.8047 29.1172C34.7344 29.4219 34.4531 29.6094 34.0859 29.6094H33.75V27.2266V24.8437H34.0938C34.3125 24.8437 34.5 24.8984 34.6172 24.9922ZM37.8516 26.9062C38 26.9687 38.1953 27.1406 38.2812 27.2812C38.4297 27.5312 38.4375 27.6562 38.4375 33.1797V38.8281H38.0469H37.6562L37.6406 33.4062C37.6172 27.0625 37.7109 27.6562 36.7031 27.6562H36.0938V27.2266V26.7969H36.8359C37.3125 26.7969 37.6797 26.8359 37.8516 26.9062Z" fill="#393F4D"/>
<path d="M8.32066 22.1797C8.06284 22.2891 7.93784 22.4922 7.94566 22.7969C7.96128 23.2656 8.15659 23.3594 9.10972 23.3594C10.0628 23.3594 10.2347 23.2656 10.2347 22.75C10.2347 22.2656 10.0472 22.1484 9.18784 22.1328C8.79722 22.1172 8.40659 22.1406 8.32066 22.1797Z" fill="#393F4D"/>
<path d="M11.7197 22.1641C11.3056 22.3281 11.1806 22.8984 11.4853 23.2031C11.6181 23.3359 11.7431 23.3594 12.4541 23.3594C13.4228 23.3594 13.626 23.2578 13.626 22.7812C13.626 22.2812 13.4072 22.1484 12.5556 22.1328C12.165 22.125 11.7822 22.1328 11.7197 22.1641Z" fill="#393F4D"/>
<path d="M8.22711 25.3828C7.70367 25.5625 7.30524 25.8672 7.02399 26.3203C6.71149 26.8047 6.61774 27.2031 6.6568 27.8125C6.7193 28.6562 6.9068 28.9062 8.80524 30.7968C10.8599 32.8437 10.7193 32.789 11.6021 31.9297C12.2896 31.2734 12.3912 31.0156 12.0943 30.6718C11.9693 30.5234 11.8365 30.4609 11.6646 30.4531L11.4068 30.4453V28.789V27.1406L11.6802 26.875C11.8755 26.6875 11.9537 26.539 11.9537 26.3672C11.9537 25.8515 11.4849 25.5781 11.0162 25.8203C10.7818 25.9375 10.7662 25.9375 10.438 25.7031C9.79742 25.2422 8.97711 25.1172 8.22711 25.3828ZM9.5318 26.6484C10.188 27.039 10.1568 26.9453 10.1568 28.7422V30.3515L9.13336 29.3359C8.57086 28.7734 8.06305 28.2187 7.99274 28.0937C7.8443 27.8047 7.89899 27.25 8.10211 26.9609C8.28961 26.7031 8.7193 26.4843 9.02399 26.4843C9.1568 26.4843 9.38336 26.5625 9.5318 26.6484Z" fill="#393F4D"/>
<path d="M12.4065 25.3906C12.1644 25.5781 12.1019 25.8515 12.2269 26.1484C12.305 26.3359 12.4222 26.4062 12.844 26.5468C13.5394 26.7734 13.7737 26.7656 13.9769 26.5156C14.2034 26.2265 14.18 25.9687 13.9222 25.7031C13.719 25.4999 13.0394 25.2343 12.7347 25.2343C12.6565 25.2343 12.5081 25.3046 12.4065 25.3906Z" fill="#393F4D"/>
<path d="M13.8754 26.9767C13.7348 27.1173 13.6879 27.2736 13.6489 27.7267C13.5942 28.3829 13.6723 28.6251 13.9926 28.7501C14.5317 28.9767 14.9223 28.5236 14.9223 27.6876C14.9223 27.3204 14.8832 27.1564 14.7582 27.0001C14.5473 26.7345 14.1332 26.7189 13.8754 26.9767Z" fill="#393F4D"/>
<path d="M13.0078 28.8203C12.9219 28.8594 12.6875 29.0625 12.4844 29.2812C12.1875 29.5937 12.1094 29.7344 12.1094 29.9453C12.1094 30.2969 12.375 30.5469 12.75 30.5469C12.9844 30.5469 13.0859 30.4766 13.4609 30.0859C13.7109 29.8281 13.9062 29.5547 13.9062 29.4766C13.9062 29.1719 13.7969 28.9766 13.5859 28.8672C13.3438 28.7344 13.2344 28.7266 13.0078 28.8203Z" fill="#393F4D"/>
<path d="M8.55469 34.0156C8.42969 34.0703 8.04688 34.4062 7.71875 34.7499C7.16406 35.3203 7.10938 35.3984 7.10938 35.6874C7.10938 35.9374 7.15625 36.039 7.3125 36.164C7.6875 36.4609 7.85156 36.3906 8.64844 35.6093C9.04688 35.2109 9.39844 34.8046 9.42188 34.7109C9.50781 34.3906 9.39062 34.1406 9.10156 34.0156C8.78906 33.8906 8.84375 33.8906 8.55469 34.0156Z" fill="#393F4D"/>
<path d="M11.1719 33.961C11.1094 33.9844 10.7266 34.3204 10.3359 34.711C9.71094 35.3282 9.60938 35.461 9.60938 35.6875C9.60938 35.8594 9.67187 36.0079 9.80469 36.1329C10.1719 36.5079 10.4844 36.3672 11.3516 35.4844C11.8672 34.9454 11.9531 34.8204 11.9531 34.586C11.9531 34.1485 11.5469 33.8204 11.1719 33.961Z" fill="#393F4D"/>
<path d="M13.6328 33.9766C13.5469 34.0157 13.1719 34.3594 12.7969 34.7501C12.2422 35.3126 12.1094 35.4922 12.1094 35.6876C12.1094 36.0079 12.3281 36.2422 12.6797 36.3047C12.9609 36.3516 12.9922 36.3282 13.7188 35.6094C14.4062 34.9376 14.4688 34.8516 14.4688 34.5782C14.4688 34.1172 14.0391 33.8047 13.6328 33.9766Z" fill="#393F4D"/>
<path d="M23.4766 12.8828C23.3281 12.9766 23.1172 13.2656 22.8984 13.6875L22.5469 14.3516L21.8594 14.7187C21.1094 15.1172 20.9375 15.3281 20.9375 15.8281C20.9375 16.1875 21.2422 16.4922 22 16.8906C22.5234 17.1641 22.5625 17.2031 22.8906 17.8125C23.3047 18.5781 23.5 18.75 23.9453 18.75C24.3984 18.75 24.6016 18.5625 25.0312 17.7891C25.375 17.1641 25.3984 17.1406 26.0078 16.8125C26.7656 16.4062 26.9531 16.1953 26.9531 15.7422C26.9531 15.2969 26.8125 15.1484 26.0234 14.7031C25.3828 14.3437 25.3594 14.3203 24.9922 13.6719C24.4844 12.7578 24.0469 12.5312 23.4766 12.8828ZM24.2109 14.8828C24.3984 15.2187 24.5391 15.3516 24.8516 15.5078C25.0703 15.625 25.2266 15.7344 25.2031 15.7578C25.1797 15.7812 24.9922 15.9141 24.7891 16.0469C24.5703 16.1953 24.3281 16.4453 24.1797 16.6953L23.9375 17.0937L23.7266 16.6875C23.5625 16.3828 23.4141 16.2266 23.0781 16.0234L22.6406 15.7578L22.8984 15.6016C23.0469 15.5156 23.2422 15.3984 23.3359 15.3359C23.4375 15.2812 23.6016 15.0547 23.7109 14.8437C23.8203 14.625 23.9219 14.4531 23.9375 14.4531C23.9531 14.4531 24.0781 14.6484 24.2109 14.8828Z" fill="#393F4D"/>
<path d="M19.8438 18.3594C19.7188 18.4844 19.6875 18.6172 19.6875 19.0938C19.6875 19.6329 19.7031 19.6875 19.8906 19.836C20.1641 20.0547 20.4141 20.0391 20.6797 19.8125C20.8828 19.6407 20.8984 19.5782 20.8984 19.0625C20.8984 18.5704 20.875 18.4844 20.7109 18.3516C20.4688 18.1563 20.0469 18.1563 19.8438 18.3594Z" fill="#393F4D"/>
<path d="M18.2031 20C18.1094 20.0938 18.0469 20.2578 18.0469 20.4297C18.0469 20.8828 18.25 21.0156 18.9375 21.0156C19.4766 21.0156 19.5312 21 19.6797 20.8125C19.7734 20.6953 19.8438 20.5234 19.8438 20.4297C19.8438 20.3359 19.7734 20.1641 19.6797 20.0469C19.5312 19.8594 19.4766 19.8438 18.9375 19.8438C18.4609 19.8438 18.3281 19.875 18.2031 20Z" fill="#393F4D"/>
<path d="M20.8984 20C20.8125 20.0938 20.75 20.2813 20.75 20.4297C20.75 20.8906 20.9453 21.0156 21.6406 21.0156C22.3516 21.0156 22.5 20.9141 22.5 20.4141C22.5 19.9453 22.3359 19.8438 21.625 19.8438C21.1328 19.8438 21.0156 19.8672 20.8984 20Z" fill="#393F4D"/>
<path d="M20.0781 20.914C19.7578 21.0312 19.6875 21.1875 19.6875 21.7734C19.6875 22.2422 19.7188 22.375 19.8438 22.5C20.0469 22.7031 20.4688 22.7031 20.7109 22.5078C20.875 22.375 20.8984 22.289 20.8984 21.7969C20.8984 21.2812 20.8828 21.2187 20.6797 21.0469C20.4609 20.8594 20.3125 20.8281 20.0781 20.914Z" fill="#393F4D"/>
<path d="M24.2578 25.0234C24.0859 25.1719 24.0312 25.2812 24.0312 25.5078C24.0312 25.9844 24.2422 26.0938 25.125 26.0938C25.7578 26.0938 25.8828 26.0703 26.0156 25.9375C26.2187 25.7344 26.2187 25.3125 26.0234 25.0703C25.8906 24.9062 25.7969 24.8828 25.1797 24.8594C24.5312 24.8281 24.4609 24.8438 24.2578 25.0234Z" fill="#393F4D"/>
<path d="M24.2578 26.7422C24.0859 26.8906 24.0312 27 24.0312 27.2266C24.0312 27.7031 24.2422 27.8125 25.125 27.8125C25.7578 27.8125 25.8828 27.7891 26.0156 27.6562C26.2187 27.4531 26.2187 27.0312 26.0234 26.7891C25.8906 26.625 25.7969 26.6016 25.1797 26.5781C24.5312 26.5469 24.4609 26.5625 24.2578 26.7422Z" fill="#393F4D"/>
<path d="M24.2578 28.4609C24.0859 28.6094 24.0312 28.7187 24.0312 28.9453C24.0312 29.4219 24.2422 29.5312 25.125 29.5312C25.7578 29.5312 25.8828 29.5078 26.0156 29.375C26.2187 29.1719 26.2187 28.75 26.0234 28.5078C25.8906 28.3437 25.7969 28.3203 25.1797 28.2969C24.5312 28.2656 24.4609 28.2812 24.2578 28.4609Z" fill="#393F4D"/>
<path d="M19.8906 31.6484C19.7031 31.7969 19.6875 31.8515 19.6875 32.3906C19.6875 32.8672 19.7188 33 19.8438 33.125C20.0469 33.3281 20.4688 33.3281 20.7109 33.1328C20.875 33 20.8984 32.914 20.8984 32.4219C20.8984 31.9062 20.8828 31.8437 20.6797 31.6719C20.4141 31.4453 20.1641 31.4297 19.8906 31.6484Z" fill="#393F4D"/>
<path d="M18.2671 33.2813C17.978 33.5 17.9624 33.9531 18.228 34.2031C18.3765 34.3438 18.5015 34.375 18.939 34.375C19.3999 34.375 19.4859 34.3516 19.6655 34.1719C19.8296 34.0078 19.853 33.9219 19.8218 33.6875C19.7515 33.2734 19.603 33.1719 19.0015 33.1406C18.5562 33.1172 18.4468 33.1328 18.2671 33.2813Z" fill="#393F4D"/>
<path d="M21.0394 33.2188C20.7738 33.3438 20.6644 33.7578 20.8128 34.0469C20.9613 34.3359 21.0628 34.375 21.6878 34.375C22.305 34.375 22.5003 34.2266 22.5003 33.7578C22.5003 33.3203 22.2347 33.125 21.6488 33.1328C21.4066 33.1328 21.1332 33.1719 21.0394 33.2188Z" fill="#393F4D"/>
<path d="M19.8594 34.3985C19.7188 34.5469 19.6875 34.6719 19.6875 35.1329C19.6875 35.6407 19.7031 35.7032 19.8906 35.8516C20.2578 36.1407 20.6953 36.0235 20.8594 35.5938C21.0234 35.1485 20.8984 34.4454 20.625 34.2969C20.375 34.1641 20.0391 34.211 19.8594 34.3985Z" fill="#393F4D"/>
</svg>
