<svg width="40" height="40" viewBox="0 0 40 40" fill="none" xmlns="http://www.w3.org/2000/svg">
<g clip-path="url(#clip0_15376_14247)">
<rect x="14.7656" y="21.0156" width="8.98438" height="1.48438" fill="#FF008A"/>
<rect x="0.78125" y="37.8125" width="38.5156" height="1.48438" fill="#FF008A"/>
<rect x="8.75" y="31.0938" width="7.34375" height="2.03125" fill="#FF008A"/>
<path d="M14.8047 6.99219H19.8047L19.1406 9.88281L11.9141 10.5859L14.8047 6.99219Z" fill="#FF008A"/>
<path d="M25.0787 2.70312C22.9068 3.15625 18.149 4.14062 14.5006 4.89062C10.8443 5.64062 7.79747 6.29688 7.72716 6.35156C7.64903 6.39844 6.86778 7.3125 5.98497 8.38281C4.48497 10.1797 4.3756 10.3359 4.3756 10.625C4.3756 10.8359 4.43028 10.9922 4.53185 11.0938C4.6881 11.25 4.78966 11.25 11.7193 11.25H18.7506V12.2109C18.7506 13.1562 18.7428 13.1797 18.5631 13.2656C18.235 13.4141 17.7897 13.8594 17.649 14.1797C17.4772 14.5547 17.4537 15.3594 17.6022 15.7266C17.6647 15.8672 17.7975 16.0859 17.9068 16.2109L18.11 16.4453L16.5084 17.8125C15.6334 18.5625 14.7897 19.2891 14.6412 19.4219L14.3756 19.6719V21.2422C14.3756 22.7109 14.3834 22.8203 14.5318 22.9688C14.6881 23.125 14.7897 23.125 19.3756 23.125C23.9615 23.125 24.0631 23.125 24.2193 22.9688C24.3678 22.8203 24.3756 22.7109 24.3756 21.2422V19.6719L24.11 19.4219C23.9615 19.2891 23.1178 18.5625 22.2428 17.8125L20.6412 16.4453L20.8443 16.2109C20.9537 16.0859 21.0865 15.8672 21.149 15.7266C21.2975 15.3594 21.274 14.5547 21.1022 14.1797C20.9615 13.8594 20.5162 13.4141 20.1881 13.2656C20.0084 13.1797 20.0006 13.1562 20.0006 12.2109V11.25H24.0631H28.1256V22.1875V33.125H27.0318C25.5709 33.125 25.6256 33.0703 25.6256 34.5312V35.625H24.3756H23.1256V30.4688C23.1256 25.4141 23.1256 25.3125 22.9693 25.1562C22.8131 25 22.7115 25 17.9693 25H13.1256V19.5312C13.1256 14.1641 13.1256 14.0625 12.9693 13.9062C12.8209 13.7578 12.7115 13.75 11.2506 13.75C9.78966 13.75 9.68028 13.7578 9.53185 13.9062C9.38341 14.0547 9.3756 14.1641 9.3756 17.3438V20.625H8.4381H7.5006V17.3438C7.5006 14.1641 7.49278 14.0547 7.34435 13.9062C7.19591 13.7578 7.08653 13.75 5.6256 13.75C4.16466 13.75 4.05528 13.7578 3.90685 13.9062C3.75841 14.0547 3.7506 14.1641 3.7506 17.3438V20.625H2.96935C1.73497 20.625 1.8756 19.6641 1.8756 28.2812V35.625H1.09434C-0.0619052 35.625 0.000594884 35.5 0.000594884 37.8125C0.000594884 39.5859 0.00840739 39.6953 0.156845 39.8438C0.313095 40 0.414658 40 20.0006 40C39.5865 40 39.6881 40 39.8443 39.8438C39.9928 39.6953 40.0006 39.5859 40.0006 37.8125C40.0006 36.0391 39.9928 35.9297 39.8443 35.7812C39.6959 35.6328 39.5865 35.625 37.6568 35.625H35.6256V34.5312C35.6256 33.1172 35.6334 33.125 34.5318 33.125H33.7506V22.125V11.1328L34.6334 10.875C35.11 10.7344 35.5318 10.625 35.5709 10.625C35.6022 10.625 35.6256 11.2578 35.6256 12.0312C35.6256 13.3359 35.6334 13.4453 35.7818 13.5938C35.9303 13.7422 36.0397 13.75 37.8131 13.75C39.5865 13.75 39.6959 13.7422 39.8443 13.5938C39.9928 13.4453 40.0006 13.3359 40.0006 10.0156C40.0006 7.39062 39.9772 6.5625 39.9068 6.46875C39.8209 6.36719 35.7662 3.55469 33.9068 2.32031L33.2428 1.875L31.1334 1.88281L29.024 1.89062L25.0787 2.70312ZM32.5006 4.6875V6.25H30.2662C29.0397 6.25 28.0475 6.21875 28.0631 6.1875C28.0787 6.14844 28.4693 5.44531 28.9381 4.625L29.7975 3.125H31.149H32.5006V4.6875ZM27.9147 3.6875C27.8287 3.82812 27.4693 4.46094 27.11 5.09375L26.4537 6.25L20.5475 6.24219C17.3053 6.23438 14.7193 6.21094 14.8053 6.19531C14.8912 6.17188 17.899 5.54688 21.485 4.80469C25.0709 4.0625 28.024 3.44531 28.0318 3.44531C28.0475 3.4375 27.9928 3.55469 27.9147 3.6875ZM35.899 5.25781C36.6334 5.77344 37.2428 6.20312 37.2584 6.21875C37.274 6.23438 36.5162 6.25 35.5631 6.25H33.8287V5.03906V3.82031L34.2037 4.07812C34.4068 4.21875 35.1725 4.75 35.899 5.25781ZM12.1412 8.49219C11.6803 9.04688 11.2818 9.49219 11.2506 9.49219C11.2193 9.49219 10.8209 9.04688 10.36 8.49219L9.52403 7.5H11.2506H12.9772L12.1412 8.49219ZM18.3912 8.49219C17.9303 9.04688 17.5318 9.49219 17.5006 9.49219C17.4693 9.49219 17.0709 9.04688 16.61 8.49219L15.774 7.5H17.5006H19.2272L18.3912 8.49219ZM24.6412 8.49219C24.1803 9.04688 23.7818 9.49219 23.7506 9.49219C23.7193 9.49219 23.3209 9.04688 22.86 8.49219L22.024 7.5H23.7506H25.4772L24.6412 8.49219ZM32.5006 8.75V10H30.0006H27.5006V8.75V7.5H30.0006H32.5006V8.75ZM38.7506 7.86719V8.24219L36.2506 8.99219L33.7506 9.74219V8.625V7.5H36.2506H38.7506V7.86719ZM9.01622 9L9.85216 10H8.1256H6.40685L7.24278 8.98438C7.71153 8.42969 8.10997 7.98438 8.13341 7.99219C8.16466 8 8.55528 8.45312 9.01622 9ZM15.2662 9L16.1022 10H14.3756H12.6568L13.4928 8.98438C13.9615 8.42969 14.36 7.98438 14.3834 7.99219C14.4147 8 14.8053 8.45312 15.2662 9ZM21.5162 9L22.3522 10H20.6256H18.9068L19.7428 8.98438C20.2115 8.42969 20.61 7.98438 20.6334 7.99219C20.6647 8 21.0553 8.45312 21.5162 9ZM26.2506 9.375V10H25.7037H25.149L25.6725 9.375C25.9615 9.03125 26.2115 8.75 26.2272 8.75C26.235 8.75 26.2506 9.03125 26.2506 9.375ZM38.7506 11.0938V12.5H37.8131H36.8756V11.3438V10.1953L37.6803 9.95312C38.1178 9.8125 38.5397 9.70312 38.6178 9.69531C38.7428 9.6875 38.7506 9.80469 38.7506 11.0938ZM31.2897 11.3125C30.5084 11.9922 29.5475 12.7969 29.4772 12.8438C29.399 12.8906 29.3756 12.7109 29.3756 12.0781V11.25H30.3678C30.9147 11.25 31.3287 11.2812 31.2897 11.3125ZM32.4693 16.1484C32.4459 16.1719 30.235 14.6406 29.8678 14.3438C29.8522 14.3281 30.4381 13.8203 31.1568 13.2031L32.4615 12.0859L32.485 14.1016C32.4928 15.2109 32.485 16.1328 32.4693 16.1484ZM19.7662 14.6094C19.8522 14.6953 19.9225 14.8672 19.9225 15C19.9225 15.1328 19.8522 15.3047 19.7662 15.3906C19.6803 15.4766 19.5084 15.5469 19.3756 15.5469C19.2428 15.5469 19.0709 15.4766 18.985 15.3906C18.899 15.3047 18.8287 15.1328 18.8287 15C18.8287 14.8672 18.899 14.6953 18.985 14.6094C19.0709 14.5234 19.2428 14.4531 19.3756 14.4531C19.5084 14.4531 19.6803 14.5234 19.7662 14.6094ZM6.2506 17.8125V20.625H5.6256H5.0006V17.8125V15H5.6256H6.2506V17.8125ZM11.8756 19.0781V23.1641L11.2506 22.0703L10.6256 20.9766V17.9844V15H11.2506H11.8756V19.0781ZM31.8756 17.5C31.8756 17.5312 31.3287 17.9531 30.6647 18.4297L29.4537 19.2891V17.5V15.7109L30.6647 16.5703C31.3287 17.0469 31.8756 17.4688 31.8756 17.5ZM20.7115 18.2891L21.9381 19.3359L20.6568 19.3594C19.9537 19.3672 18.7975 19.3672 18.0943 19.3594L16.8131 19.3359L18.0709 18.2578C18.7662 17.6719 19.36 17.1953 19.4068 17.2109C19.4459 17.2266 20.0318 17.7109 20.7115 18.2891ZM32.5006 20.625C32.5006 21.6094 32.485 22.4219 32.4615 22.4219C32.36 22.4219 30.0006 20.6719 30.0162 20.6094C30.0475 20.5234 32.3443 18.8438 32.4459 18.8359C32.4772 18.8281 32.5006 19.6328 32.5006 20.625ZM23.1256 21.25V21.875H19.3756H15.6256V21.25V20.625H19.3756H23.1256V21.25ZM10.7428 23.9219C11.3912 25.0547 11.9772 26.0391 12.0553 26.1094C12.1803 26.2422 12.5084 26.25 17.0318 26.25H21.8756V30.9375V35.625H19.3756H16.8756V33.2812C16.8756 31.0391 16.8678 30.9297 16.7193 30.7812C16.5709 30.6328 16.4615 30.625 12.5006 30.625C8.53966 30.625 8.43028 30.6328 8.28185 30.7812C8.13341 30.9297 8.1256 31.0391 8.1256 33.2812V35.625H5.6256H3.1256V28.75V21.875H6.35216H9.57872L10.7428 23.9219ZM31.8756 23.75C31.8756 23.7812 31.3287 24.2031 30.6647 24.6797L29.4537 25.5391V23.75V21.9609L30.6647 22.8203C31.3287 23.2969 31.8756 23.7188 31.8756 23.75ZM32.5006 26.875C32.5006 27.8594 32.485 28.6719 32.4615 28.6719C32.36 28.6719 30.0006 26.9219 30.0162 26.8594C30.0475 26.7734 32.3443 25.0938 32.4459 25.0859C32.4772 25.0781 32.5006 25.8828 32.5006 26.875ZM32.0084 30.0312C32.0397 30.0547 29.5475 32.1875 29.4928 32.1875C29.4693 32.1875 29.4537 31.2891 29.4537 30.1953V28.2031L30.7272 29.1094C31.4225 29.6094 32.0006 30.0234 32.0084 30.0312ZM32.4772 33.1016C32.4615 33.1172 32.024 33.1172 31.5006 33.1094L30.5631 33.0859L31.5162 32.2734L32.4615 31.4609L32.485 32.2656C32.4928 32.7031 32.4928 33.0781 32.4772 33.1016ZM15.6256 33.75V35.625H12.5006H9.3756V33.75V31.875H12.5006H15.6256V33.75ZM34.3756 35V35.625H30.6256H26.8756V35V34.375H30.6256H34.3756V35ZM38.7506 37.8125V38.75H20.0006H1.25059V37.8125V36.875H20.0006H38.7506V37.8125Z" fill="#393F4D"/>
<path d="M5.15625 24.5312C5.05469 24.6328 5 24.7891 5 25C5 25.2109 5.05469 25.3672 5.15625 25.4688C5.30469 25.6172 5.41406 25.625 6.875 25.625C8.33594 25.625 8.44531 25.6172 8.59375 25.4688C8.69531 25.3672 8.75 25.2109 8.75 25C8.75 24.7891 8.69531 24.6328 8.59375 24.5312C8.44531 24.3828 8.33594 24.375 6.875 24.375C5.41406 24.375 5.30469 24.3828 5.15625 24.5312Z" fill="#393F4D"/>
<path d="M5.15625 27.6562C5.05469 27.7578 5 27.9141 5 28.125C5 28.3359 5.05469 28.4922 5.15625 28.5938C5.30469 28.7422 5.41406 28.75 8.125 28.75C10.8359 28.75 10.9453 28.7422 11.0938 28.5938C11.1953 28.4922 11.25 28.3359 11.25 28.125C11.25 27.9141 11.1953 27.7578 11.0938 27.6562C10.9453 27.5078 10.8359 27.5 8.125 27.5C5.41406 27.5 5.30469 27.5078 5.15625 27.6562Z" fill="#393F4D"/>
<path d="M13.9062 27.6562C13.8047 27.7578 13.75 27.9141 13.75 28.125C13.75 28.3359 13.8047 28.4922 13.9062 28.5938C14.0547 28.7422 14.1641 28.75 16.875 28.75C19.5859 28.75 19.6953 28.7422 19.8438 28.5938C19.9453 28.4922 20 28.3359 20 28.125C20 27.9141 19.9453 27.7578 19.8438 27.6562C19.6953 27.5078 19.5859 27.5 16.875 27.5C14.1641 27.5 14.0547 27.5078 13.9062 27.6562Z" fill="#393F4D"/>
</g>
<defs>
<clipPath id="clip0_15376_14247">
<rect width="40" height="40" fill="white"/>
</clipPath>
</defs>
</svg>
