<svg width="158" height="172" viewBox="0 0 158 172" fill="none" xmlns="http://www.w3.org/2000/svg">
<path d="M100.744 33.6584L100.745 33.6583C105.696 32.9717 110.168 33.8206 113.735 36.118C117.307 38.4181 119.64 41.9599 120.658 46.0331L100.744 33.6584ZM100.744 33.6584C98.5977 33.9567 96.7954 34.3287 95.1963 34.6588M100.744 33.6584L95.1963 34.6588M96.9979 136.966L96.9643 136.964C95.1111 136.864 93.4347 136.766 91.899 136.676C81.3691 136.06 77.4531 135.831 68.4891 138.051C67.4247 138.315 66.0633 138.695 64.5119 139.127C60.7453 140.176 55.8593 141.538 51.3872 142.316C37.1283 144.799 21.4247 137.443 17.9193 120.118C15.6099 108.709 19.476 100.753 24.469 92.6191L96.9979 136.966ZM96.9979 136.966L97.0314 136.967M96.9979 136.966L97.0314 136.967M97.0314 136.967C111.994 137.522 123.342 132.27 128.818 123.389M97.0314 136.967L128.818 123.389M95.1963 34.6588C90.4809 35.6321 87.5323 36.2407 82.7312 33.5188L95.1963 34.6588ZM128.818 123.389C134.36 114.401 133.105 102.968 125.429 93.0898M128.818 123.389L125.429 93.0898M125.429 93.0898C125.246 92.8542 125.066 92.6225 124.889 92.3946M125.429 93.0898L124.889 92.3946M124.889 92.3946C122.182 88.9117 120.17 86.324 118.673 84.1495M124.889 92.3946L118.673 84.1495M118.673 84.1495C117.085 81.8432 116.272 80.2742 115.87 78.9287M118.673 84.1495L115.87 78.9287M115.87 78.9287C115.12 76.4135 115.513 73.8579 117.805 66.6809M115.87 78.9287L117.805 66.6809M117.805 66.6809C118.067 65.8616 118.371 65.0045 118.689 64.1078M117.805 66.6809L118.689 64.1078M118.689 64.1078C120.391 59.3102 122.496 53.3787 120.659 46.0334L118.689 64.1078ZM82.7308 33.5186C66.8216 24.4966 54.8005 24.6986 46.8139 31.3856C39.3221 37.6584 36.9824 48.4548 37.2315 56.9816C37.5525 68.0056 36.0015 73.9544 33.813 78.3926C32.6848 80.6806 31.3272 82.6911 29.7217 84.9433C29.4605 85.3098 29.1915 85.6842 28.9163 86.0673C27.5325 87.9935 25.9901 90.1405 24.4693 92.6186L82.7308 33.5186Z" fill="#FFECF5" stroke="#FFD8EB" stroke-width="8"/>
<path d="M120.61 14.728C116.21 14.728 112.61 18.328 112.61 22.728C112.61 27.128 116.21 30.728 120.61 30.728C125.01 30.728 128.61 27.128 128.61 22.728C128.61 18.328 125.01 14.728 120.61 14.728ZM123.61 21.828C123.41 21.928 123.21 22.028 123.01 22.028C122.71 22.028 122.41 21.828 122.21 21.628C121.81 21.128 121.21 20.728 120.61 20.728C120.01 20.728 119.61 20.328 119.61 19.728C119.61 19.128 120.01 18.728 120.61 18.728C121.91 18.728 123.11 19.328 123.91 20.428C124.21 20.928 124.11 21.528 123.61 21.828Z" fill="#FFECF5"/>
<path d="M107.61 14.728C104.81 14.728 102.61 12.528 102.61 9.72803C102.61 6.92803 104.81 4.72803 107.61 4.72803C110.41 4.72803 112.61 6.92803 112.61 9.72803C112.61 12.528 110.41 14.728 107.61 14.728Z" fill="#FFECF5"/>
<path d="M104.11 26.728C101.61 26.728 99.6096 24.728 99.6096 22.228C99.6096 19.728 101.61 17.728 104.11 17.728C106.61 17.728 108.61 19.728 108.61 22.228C108.61 24.728 106.61 26.728 104.11 26.728Z" fill="#FFECF5"/>
<path d="M117.61 7.72803C117.01 7.72803 116.61 7.32803 116.61 6.72803V3.72803C116.61 3.12803 117.01 2.72803 117.61 2.72803C118.21 2.72803 118.61 3.12803 118.61 3.72803V6.72803C118.61 7.32803 118.21 7.72803 117.61 7.72803Z" fill="#FFECF5"/>
<path d="M124.61 11.728H121.61C121.01 11.728 120.61 11.328 120.61 10.728C120.61 10.128 121.01 9.72803 121.61 9.72803H124.61C125.21 9.72803 125.61 10.128 125.61 10.728C125.61 11.328 125.21 11.728 124.61 11.728Z" fill="#FFECF5"/>
<path d="M120.41 8.92812C120.11 8.92812 119.91 8.82812 119.71 8.62812C119.31 8.22812 119.31 7.62812 119.71 7.22812L121.81 5.12813C122.21 4.72813 122.81 4.72813 123.21 5.12813C123.61 5.52813 123.61 6.12813 123.21 6.52813L121.11 8.62812C120.91 8.82812 120.71 8.92812 120.41 8.92812Z" fill="#FFECF5"/>
<path d="M121.575 56.4438V53.5275C121.575 51.0485 119.68 49.1528 117.201 49.1528H41.2288C38.8957 49.1528 37 51.0485 37 53.5275V56.4438C37 58.436 38.2247 60.0505 39.9164 60.608V90.2172C38.1898 90.7969 37 92.3932 37 94.3568V97.2731C37 99.2367 38.1898 100.833 39.9164 101.413V132.27C39.9164 133.145 40.4996 133.728 41.3746 133.728H71.9966H86.5786H117.201C118.076 133.728 118.659 133.145 118.659 132.27V101.413C120.385 100.833 121.575 99.2367 121.575 97.2731V94.3568C121.575 92.3932 120.385 90.7967 118.659 90.2174V60.608C120.351 60.0505 121.575 58.436 121.575 56.4438ZM39.9164 53.5275C39.9164 52.6525 40.4996 52.0692 41.2288 52.0692H117.346C118.076 52.0692 118.659 52.6525 118.659 53.5275V56.4438C118.659 57.3188 118.076 57.9021 117.201 57.9021H41.3746H41.2288C40.4996 57.9021 39.9164 57.3188 39.9164 56.4438V53.5275ZM115.742 89.9822H42.8327V60.8184H115.742V89.9822ZM73.4549 130.812V110.397H85.1205V130.812H73.4549ZM115.742 130.812H88.0368V108.939C88.0368 108.064 87.4536 107.48 86.5786 107.48H71.9966C71.1216 107.48 70.5384 108.064 70.5384 108.939V130.812H42.8327V101.648H115.742V130.812ZM118.659 97.2731C118.659 98.0023 118.076 98.7314 117.201 98.7314H41.3746C40.4996 98.7314 39.9164 98.1481 39.9164 97.2731V94.3568C39.9164 93.6277 40.4996 92.8985 41.3746 92.8985H117.201C117.93 92.8985 118.659 93.4818 118.659 94.3568V97.2731Z" fill="#FF008A"/>
<path d="M70.5383 84.1494H71.9966H86.5786H88.0368C88.9118 84.1494 89.4951 83.5661 89.4951 82.6911C89.4951 81.8161 88.9118 81.2328 88.0368 81.2328V68.1091C88.0368 67.2342 87.4535 66.6509 86.5786 66.6509H71.9966C71.1216 66.6509 70.5383 67.2342 70.5383 68.1091V81.2328C69.6634 81.2328 69.0801 81.8161 69.0801 82.6911C69.0801 83.5661 69.6635 84.1494 70.5383 84.1494ZM80.7458 81.233V76.8584H85.1205V81.233H80.7458ZM85.1203 73.942H80.7457V69.5674H85.1203V73.942ZM77.8293 69.5674V73.942H73.4549V69.5674H77.8293ZM73.4549 76.8584H77.8295V81.233H73.4549V76.8584Z" fill="#FF008A"/>
<path d="M47.2073 84.1494H48.6655H63.2475H64.7058C65.5808 84.1494 66.164 83.5661 66.164 82.6911C66.164 81.8161 65.5808 81.2328 64.7058 81.2328V68.1091C64.7058 67.2342 64.1225 66.6509 63.2475 66.6509H48.6655C47.7906 66.6509 47.2073 67.2342 47.2073 68.1091V81.2328C46.3323 81.2328 45.749 81.8161 45.749 82.6911C45.749 83.5661 46.3325 84.1494 47.2073 84.1494ZM57.4146 81.233V76.8584H61.7892V81.233H57.4146ZM61.7892 73.942H57.4146V69.5674H61.7892V73.942ZM54.4983 69.5674V73.942H50.1236V69.5674H54.4983ZM50.1236 76.8584H54.4983V81.233H50.1236V76.8584Z" fill="#FF008A"/>
<path d="M93.8696 84.1494H95.3279H109.91H111.368C112.243 84.1494 112.826 83.5661 112.826 82.6911C112.826 81.8161 112.243 81.2328 111.368 81.2328V68.1091C111.368 67.2342 110.785 66.6509 109.91 66.6509H95.3279C94.4529 66.6509 93.8696 67.2342 93.8696 68.1091V81.2328C92.9946 81.2328 92.4114 81.8161 92.4114 82.6911C92.4114 83.5661 92.9946 84.1494 93.8696 84.1494ZM104.077 81.233V76.8584H108.452V81.233H104.077ZM108.452 73.942H104.077V69.5674H108.452V73.942ZM101.161 69.5674V73.942H96.786V69.5674H101.161ZM96.786 76.8584H101.161V81.233H96.786V76.8584Z" fill="#FF008A"/>
<path d="M47.2073 124.979H48.6655H63.2475H64.7058C65.5808 124.979 66.164 124.396 66.164 123.521C66.164 122.646 65.5808 122.062 64.7058 122.062V108.939C64.7058 108.064 64.1225 107.48 63.2475 107.48H48.6655C47.7906 107.48 47.2073 108.064 47.2073 108.939V122.062C46.3323 122.062 45.749 122.646 45.749 123.521C45.7492 124.396 46.3325 124.979 47.2073 124.979ZM57.4146 122.063V117.688H61.7892V122.063H57.4146ZM61.7892 114.772H57.4146V110.397H61.7892V114.772ZM54.4983 110.397V114.772H50.1236V110.397H54.4983ZM50.1236 117.688H54.4983V122.063H50.1236V117.688Z" fill="#FF008A"/>
<path d="M93.8696 124.979H95.3279H109.91H111.368C112.243 124.979 112.826 124.396 112.826 123.521C112.826 122.646 112.243 122.062 111.368 122.062V108.939C111.368 108.064 110.785 107.48 109.91 107.48H95.3279C94.4529 107.48 93.8696 108.064 93.8696 108.939V122.062C92.9946 122.062 92.4114 122.646 92.4114 123.521C92.4114 124.396 92.9946 124.979 93.8696 124.979ZM104.077 122.063V117.688H108.452V122.063H104.077ZM108.452 114.772H104.077V110.397H108.452V114.772ZM101.161 110.397V114.772H96.786V110.397H101.161ZM96.786 117.688H101.161V122.063H96.786V117.688Z" fill="#FF008A"/>
<path d="M82.2039 119.146H80.7456C79.8706 119.146 79.2874 119.73 79.2874 120.605C79.2874 121.48 79.8706 122.063 80.7456 122.063H82.2039C83.0789 122.063 83.6621 121.48 83.6621 120.605C83.6621 119.73 83.0789 119.146 82.2039 119.146Z" fill="#FF008A"/>
</svg>
