<svg width="16" height="16" viewBox="0 0 16 16" fill="none" xmlns="http://www.w3.org/2000/svg">
<g clip-path="url(#clip0_406_8985)">
<path fill-rule="evenodd" clip-rule="evenodd" d="M15.1381 2.19526C15.3984 2.45561 15.3984 2.87772 15.1381 3.13807L8.47141 9.80474C8.21106 10.0651 7.78895 10.0651 7.5286 9.80474L5.5286 7.80474C5.26825 7.54439 5.26825 7.12228 5.5286 6.86193C5.78895 6.60158 6.21106 6.60158 6.47141 6.86193L8 8.39052L14.1953 2.19526C14.4556 1.93491 14.8777 1.93491 15.1381 2.19526Z" fill="#FF0080" stroke="#858585" stroke-width="2" stroke-linecap="round" stroke-linejoin="round"/>
<path fill-rule="evenodd" clip-rule="evenodd" d="M3.33333 2.66667C3.15652 2.66667 2.98695 2.7369 2.86193 2.86193C2.7369 2.98695 2.66667 3.15652 2.66667 3.33333V12.6667C2.66667 12.8435 2.7369 13.013 2.86193 13.1381C2.98695 13.2631 3.15652 13.3333 3.33333 13.3333H12.6667C12.8435 13.3333 13.013 13.2631 13.1381 13.1381C13.2631 13.013 13.3333 12.8435 13.3333 12.6667V8C13.3333 7.63181 13.6318 7.33333 14 7.33333C14.3682 7.33333 14.6667 7.63181 14.6667 8V12.6667C14.6667 13.1971 14.456 13.7058 14.0809 14.0809C13.7058 14.456 13.1971 14.6667 12.6667 14.6667H3.33333C2.8029 14.6667 2.29419 14.456 1.91912 14.0809C1.54405 13.7058 1.33333 13.1971 1.33333 12.6667V3.33333C1.33333 2.8029 1.54405 2.29419 1.91912 1.91912C2.29419 1.54405 2.8029 1.33333 3.33333 1.33333H10.6667C11.0349 1.33333 11.3333 1.63181 11.3333 2C11.3333 2.36819 11.0349 2.66667 10.6667 2.66667H3.33333Z" fill="#FF0080" stroke="#858585" stroke-width="2" stroke-linecap="round" stroke-linejoin="round"/>
</g>
<rect x="0.5" y="0.5" width="15" height="15" stroke="white"/>
<defs>
<clipPath id="clip0_406_8985">
<rect width="16" height="16" fill="white"/>
</clipPath>
</defs>
</svg>
