<svg width="16" height="16" viewBox="0 0 16 16" fill="none" xmlns="http://www.w3.org/2000/svg">
<g clip-path="url(#clip0_16414_35868)">
<path d="M0 9.23913C0.407229 9.16277 0.814458 9.11187 1.24714 9.11187C3.58871 9.11187 5.5994 10.5117 6.49021 12.497L12.8532 6.13401C10.1807 2.62166 5.98118 0.356445 1.22169 0.356445C0.814458 0.356445 0.407229 0.381897 0 0.407349V9.23913Z" fill="#7DCEEA"/>
<path d="M0 9.23891C0.407229 9.16256 0.814458 9.11165 1.24714 9.11165C3.58871 9.11165 5.5994 10.5115 6.49021 12.4967L12.8532 6.13379" fill="#61BBE2"/>
<path d="M15.9584 15.0924C16.0348 15.1688 16.0093 15.3724 15.8566 15.4997C15.7039 15.6524 15.5257 15.6778 15.4494 15.6015L10.5881 10.7402C10.5117 10.6638 10.5372 10.4602 10.6899 10.333C10.8426 10.1802 11.0208 10.1548 11.0971 10.2311L15.9584 15.0924Z" fill="#203066"/>
<path d="M10.6899 10.333C10.8427 10.1802 11.0208 10.1548 11.0972 10.2311L15.9585 15.0924C16.0348 15.1688 16.0094 15.3724 15.8567 15.4997" fill="#203066"/>
<path d="M7.20283 11.2246H5.70117V12.7263H7.20283V11.2246Z" fill="#282B8B"/>
<path d="M7.78828 10.6387H6.28662V12.1403H7.78828V10.6387Z" fill="#282B8B"/>
<path d="M8.37373 10.0537H6.87207V11.5554H8.37373V10.0537Z" fill="#282B8B"/>
<path d="M8.95918 9.44238H7.45752V10.944H8.95918V9.44238Z" fill="#282B8B"/>
<path d="M9.54463 8.85742H8.04297V10.3591H9.54463V8.85742Z" fill="#282B8B"/>
<path d="M10.1296 8.27148H8.62793V9.79859H10.1296V8.27148Z" fill="#282B8B"/>
<path d="M10.715 7.68652H9.21338V9.18818H10.715V7.68652Z" fill="#282B8B"/>
<path d="M11.3259 7.10059H9.82422V8.60224H11.3259V7.10059Z" fill="#282B8B"/>
<path d="M11.9113 6.51562H10.4097V8.01728H11.9113V6.51562Z" fill="#282B8B"/>
<path d="M12.4968 5.93066H10.9951V7.43232H12.4968V5.93066Z" fill="#282B8B"/>
<path d="M13.0822 5.34473H11.5806V6.84638H13.0822V5.34473Z" fill="#282B8B"/>
<path d="M7.20283 11.2246H5.70117V12.7263H7.20283V11.2246Z" fill="#282B8B"/>
<path d="M7.78828 10.6387H6.28662V12.1403H7.78828V10.6387Z" fill="#282B8B"/>
<path d="M8.37373 10.0537H6.87207V11.5554H8.37373V10.0537Z" fill="#282B8B"/>
<path d="M8.95918 9.44238H7.45752V10.944H8.95918V9.44238Z" fill="#282B8B"/>
<path d="M9.54463 8.85742H8.04297V10.3591H9.54463V8.85742Z" fill="#282B8B"/>
<path d="M10.1296 8.27148H8.62793V9.79859H10.1296V8.27148Z" fill="#282B8B"/>
<path d="M10.715 7.68652H9.21338V9.18818H10.715V7.68652Z" fill="#282B8B"/>
<path d="M11.3259 7.10059H9.82422V8.60224H11.3259V7.10059Z" fill="#282B8B"/>
<path d="M11.9113 6.51562H10.4097V8.01728H11.9113V6.51562Z" fill="#282B8B"/>
<path d="M12.4968 5.93066H10.9951V7.43232H12.4968V5.93066Z" fill="#282B8B"/>
<path d="M13.0822 5.34473H11.5806V6.84638H13.0822V5.34473Z" fill="#282B8B"/>
<path d="M6.03205 11.555H6.61744V10.9696H7.22828V10.3842H7.81367V9.79879H8.39906V9.2134H8.98446V8.62801H9.56985V8.04262H10.1552V7.45723H10.7406V6.84638H11.326V6.26099H11.9369V5.6756H13.0822V5.34473H11.5805V5.93012H10.9952V6.51551H10.4098V7.1009H9.82437V7.68629H9.21352V8.27169H8.62813V8.85708H8.04274V9.44247H7.45735V10.0533H6.87196V10.6387H6.28656V11.2241H5.70117V12.7258H6.03205V11.555Z" fill="#0A4D7A"/>
<path d="M13.8968 5.16686C14.1513 5.42137 14.4313 5.57409 13.9222 6.08312L6.43941 13.566C5.93038 14.075 5.77767 13.795 5.52315 13.5405C5.26863 13.286 5.47224 12.6497 5.98128 12.1407L12.5224 5.59954C13.0314 5.11595 13.6423 4.91234 13.8968 5.16686Z" fill="#FF008A"/>
<path d="M13.8966 5.16699C14.1511 5.42151 14.4311 5.57422 13.922 6.08326L6.43921 13.5661C5.93018 14.0751 5.77747 13.7952 5.52295 13.5406" fill="#FF008A"/>
<path d="M11.5297 8.32288C11.9878 8.78101 12.2169 10.2827 11.4279 11.0717C10.6389 11.8607 9.13722 11.6316 8.67908 11.1735C8.22095 10.7154 8.95906 10.1809 9.74806 9.39186C10.5625 8.6283 11.0716 7.86475 11.5297 8.32288Z" fill="#FF008A"/>
<path d="M10.8932 9.29036C10.9441 9.34126 10.9441 9.44307 10.8932 9.51943L9.87515 10.5375C9.82425 10.5884 9.72244 10.5884 9.64609 10.5375C9.59518 10.4866 9.59518 10.3848 9.64609 10.3084L10.6387 9.31581C10.7151 9.23946 10.8169 9.23946 10.8932 9.29036Z" fill="#203066"/>
<path d="M11.0969 10.0542C11.1224 10.0797 11.1224 10.1561 11.0969 10.1815L10.537 10.7414C10.5115 10.7669 10.4352 10.7669 10.4097 10.7414C10.3843 10.716 10.3843 10.6396 10.4097 10.6142L10.9697 10.0542C11.0206 10.0288 11.0715 10.0288 11.0969 10.0542Z" fill="#203066"/>
<path d="M2.03595 3.74195C2.10623 3.74195 2.16321 3.4001 2.16321 2.9784C2.16321 2.5567 2.10623 2.21484 2.03595 2.21484C1.96567 2.21484 1.90869 2.5567 1.90869 2.9784C1.90869 3.4001 1.96567 3.74195 2.03595 3.74195Z" fill="white"/>
<path d="M2.03602 3.1051C2.45772 3.1051 2.79957 3.04813 2.79957 2.97785C2.79957 2.90756 2.45772 2.85059 2.03602 2.85059C1.61432 2.85059 1.27246 2.90756 1.27246 2.97785C1.27246 3.04813 1.61432 3.1051 2.03602 3.1051Z" fill="white"/>
<path d="M8.39899 5.34499C8.5255 5.34499 8.62806 4.68407 8.62806 3.86878C8.62806 3.0535 8.5255 2.39258 8.39899 2.39258C8.27248 2.39258 8.16992 3.0535 8.16992 3.86878C8.16992 4.68407 8.27248 5.34499 8.39899 5.34499Z" fill="white"/>
<path d="M8.39906 4.09778C9.21434 4.09778 9.87526 3.99522 9.87526 3.86871C9.87526 3.7422 9.21434 3.63965 8.39906 3.63965C7.58377 3.63965 6.92285 3.7422 6.92285 3.86871C6.92285 3.99522 7.58377 4.09778 8.39906 4.09778Z" fill="white"/>
<path d="M2.52677 6.37006C2.82517 6.07209 3.02681 5.79022 2.97714 5.74049C2.92748 5.69075 2.64533 5.89199 2.34693 6.18996C2.04854 6.48794 1.8469 6.76981 1.89656 6.81954C1.94622 6.86927 2.22838 6.66803 2.52677 6.37006Z" fill="white"/>
<path d="M2.35555 6.35464C2.65373 6.65283 2.93574 6.85427 2.98544 6.80457C3.03514 6.75487 2.8337 6.47286 2.53551 6.17468C2.23733 5.87649 1.95532 5.67505 1.90562 5.72475C1.85592 5.77445 2.05736 6.05646 2.35555 6.35464Z" fill="white"/>
<path d="M5.4718 4.1742C5.72482 4.1742 5.92994 4.14001 5.92994 4.09784C5.92994 4.05567 5.72482 4.02148 5.4718 4.02148C5.21878 4.02148 5.01367 4.05567 5.01367 4.09784C5.01367 4.14001 5.21878 4.1742 5.4718 4.1742Z" fill="white"/>
<path d="M5.47186 4.55591C5.51403 4.55591 5.54822 4.3508 5.54822 4.09778C5.54822 3.84476 5.51403 3.63965 5.47186 3.63965C5.42969 3.63965 5.39551 3.84476 5.39551 4.09778C5.39551 4.3508 5.42969 4.55591 5.47186 4.55591Z" fill="white"/>
<path d="M3.8621 2.38061C4.00169 2.24189 4.09878 2.11327 4.07896 2.09333C4.05915 2.07339 3.92992 2.16968 3.79034 2.3084C3.65075 2.44712 3.55366 2.57574 3.57348 2.59568C3.5933 2.61562 3.72252 2.51933 3.8621 2.38061Z" fill="white"/>
<path d="M3.79031 2.39747C3.92924 2.53684 4.05801 2.63373 4.07792 2.61388C4.09783 2.59403 4.00134 2.46496 3.86241 2.32559C3.72347 2.18622 3.5947 2.08933 3.57479 2.10918C3.55488 2.12903 3.65137 2.2581 3.79031 2.39747Z" fill="white"/>
<path d="M4.26249 5.17358C4.40208 5.03486 4.49917 4.90624 4.47935 4.8863C4.45954 4.86636 4.33032 4.96265 4.19073 5.10137C4.05114 5.24008 3.95405 5.3687 3.97387 5.38865C3.99369 5.40859 4.12291 5.3123 4.26249 5.17358Z" fill="white"/>
<path d="M4.19753 5.17286C4.33647 5.31223 4.46524 5.40912 4.48515 5.38927C4.50506 5.36942 4.40857 5.24035 4.26963 5.10098C4.1307 4.96161 4.00193 4.86472 3.98202 4.88457C3.96211 4.90442 4.0586 5.03349 4.19753 5.17286Z" fill="white"/>
<path d="M4.78497 7.35608C4.85526 7.35608 4.91223 7.2991 4.91223 7.22882C4.91223 7.15854 4.85526 7.10156 4.78497 7.10156C4.71469 7.10156 4.65771 7.15854 4.65771 7.22882C4.65771 7.2991 4.71469 7.35608 4.78497 7.35608Z" fill="white"/>
<path d="M6.66816 2.49451C6.93523 2.49451 7.15174 2.278 7.15174 2.01093C7.15174 1.74385 6.93523 1.52734 6.66816 1.52734C6.40108 1.52734 6.18457 1.74385 6.18457 2.01093C6.18457 2.278 6.40108 2.49451 6.66816 2.49451Z" fill="white"/>
<path d="M2.01038 4.98853C2.03849 4.98853 2.06128 4.96574 2.06128 4.93762C2.06128 4.90951 2.03849 4.88672 2.01038 4.88672C1.98226 4.88672 1.95947 4.90951 1.95947 4.93762C1.95947 4.96574 1.98226 4.98853 2.01038 4.98853Z" fill="white"/>
<path d="M6.6427 6.84692C6.67081 6.84692 6.6936 6.82413 6.6936 6.79602C6.6936 6.76791 6.67081 6.74512 6.6427 6.74512C6.61459 6.74512 6.5918 6.76791 6.5918 6.79602C6.5918 6.82413 6.61459 6.84692 6.6427 6.84692Z" fill="white"/>
<path d="M8.67883 6.87232C8.8194 6.87232 8.93335 6.75837 8.93335 6.6178C8.93335 6.47723 8.8194 6.36328 8.67883 6.36328C8.53827 6.36328 8.42432 6.47723 8.42432 6.6178C8.42432 6.75837 8.53827 6.87232 8.67883 6.87232Z" fill="white"/>
<path d="M6.97382 5.57459C7.12844 5.57459 7.25379 5.44924 7.25379 5.29462C7.25379 5.13999 7.12844 5.01465 6.97382 5.01465C6.81919 5.01465 6.69385 5.13999 6.69385 5.29462C6.69385 5.44924 6.81919 5.57459 6.97382 5.57459Z" fill="white"/>
<path d="M5.19214 2.34229C5.24837 2.34229 5.29395 2.29671 5.29395 2.24048C5.29395 2.18425 5.24837 2.13867 5.19214 2.13867C5.13591 2.13867 5.09033 2.18425 5.09033 2.24048C5.09033 2.29671 5.13591 2.34229 5.19214 2.34229Z" fill="white"/>
<path d="M2.03601 9.69703C2.34526 9.69703 2.59595 9.44634 2.59595 9.13709C2.59595 8.82784 2.34526 8.57715 2.03601 8.57715C1.72677 8.57715 1.47607 8.82784 1.47607 9.13709C1.47607 9.44634 1.72677 9.69703 2.03601 9.69703Z" fill="white"/>
<path d="M3.97052 8.70471C4.0408 8.70471 4.09778 8.64774 4.09778 8.57745C4.09778 8.50717 4.0408 8.4502 3.97052 8.4502C3.90024 8.4502 3.84326 8.50717 3.84326 8.57745C3.84326 8.64774 3.90024 8.70471 3.97052 8.70471Z" fill="white"/>
<path d="M5.54828 8.32312C5.64668 8.32312 5.72644 8.24336 5.72644 8.14496C5.72644 8.04656 5.64668 7.9668 5.54828 7.9668C5.44988 7.9668 5.37012 8.04656 5.37012 8.14496C5.37012 8.24336 5.44988 8.32312 5.54828 8.32312Z" fill="white"/>
</g>
<defs>
<clipPath id="clip0_16414_35868">
<rect width="16" height="16" fill="white"/>
</clipPath>
</defs>
</svg>
