<svg width="16" height="16" viewBox="0 0 16 16" fill="none" xmlns="http://www.w3.org/2000/svg">
<path d="M7.08651 2.10352H1.41732C0.982445 2.10352 0.629883 2.45605 0.629883 2.89095V4.67567C0.629883 5.11058 0.982445 5.46311 1.41732 5.46311H7.08648C7.52135 5.46311 7.87391 5.11058 7.87391 4.67567V2.89095C7.87391 2.45608 7.52135 2.10352 7.08651 2.10352Z" fill="#F7DC4D"/>
<path d="M4.25179 13.897C3.81692 13.897 3.46436 13.5444 3.46436 13.1095V4.81576C3.46436 4.38085 3.81692 4.02832 4.25179 4.02832C4.68667 4.02832 5.03923 4.38085 5.03923 4.81576V13.1095C5.0392 13.5444 4.68667 13.897 4.25179 13.897Z" fill="#203066"/>
<path d="M15.475 7.00564H9.42679C9.13689 7.00564 8.90186 6.77061 8.90186 6.4807C8.90186 4.52373 10.4939 2.93164 12.4509 2.93164C14.4079 2.93164 15.9999 4.52373 15.9999 6.4807C15.9999 6.77061 15.7649 7.00564 15.475 7.00564ZM10.0072 5.95573H14.8946C14.6528 4.82886 13.6489 3.98152 12.4509 3.98152C11.2529 3.98152 10.249 4.82883 10.0072 5.95573Z" fill="#203066"/>
<path d="M7.08663 2.10352H4.25488V5.46308H7.08663C7.52151 5.46308 7.87407 5.11055 7.87407 4.67564V2.89095C7.87404 2.45608 7.52148 2.10352 7.08663 2.10352Z" fill="#FFC107"/>
<path d="M4.25195 4.02832V13.8969C4.68683 13.8969 5.03939 13.5444 5.03939 13.1095V4.81573C5.03936 4.38088 4.68683 4.02832 4.25195 4.02832Z" fill="#203066"/>
<path d="M15.8645 6.13422C15.7649 6.02153 15.6217 5.95703 15.4713 5.95703H9.43071C9.2803 5.95703 9.13708 6.02156 9.03749 6.13422C8.93783 6.24691 8.8913 6.39691 8.90971 6.54616L9.74815 13.3488C9.78058 13.6118 10.0041 13.8095 10.2692 13.8095H14.6328C14.8978 13.8095 15.1214 13.6118 15.1538 13.3488L15.9923 6.54616C16.0107 6.39691 15.9641 6.24691 15.8645 6.13422Z" fill="#FF008A"/>
<path d="M15.8646 6.13422C15.765 6.02153 15.6218 5.95703 15.4714 5.95703H12.4204V13.8095H14.6329C14.898 13.8095 15.1215 13.6119 15.154 13.3488L15.9924 6.54622C16.0108 6.39691 15.9643 6.24691 15.8646 6.13422Z" fill="#FF008A"/>
<path d="M9.49477 11.2911H15.4077L15.5099 10.4619H9.39258L9.49477 11.2911Z" fill="#FF008A"/>
<path d="M15.251 12.5646L15.3532 11.7354H9.5498L9.65199 12.5646H15.251Z" fill="#FF008A"/>
<path d="M12.4204 10.4609V11.2901H15.4076L15.5098 10.4609H12.4204Z" fill="#203066"/>
<path d="M12.4204 11.7344V12.5636H15.2506L15.3528 11.7344H12.4204Z" fill="#203066"/>
<path d="M13.8183 6.44602H11.0218C10.7504 6.44602 10.5303 6.22592 10.5303 5.95445C10.5303 5.68298 10.7504 5.46289 11.0218 5.46289H13.8183C14.0898 5.46289 14.3099 5.68298 14.3099 5.95445C14.3099 6.22598 14.0898 6.44602 13.8183 6.44602Z" fill="#67D1D3"/>
<path d="M13.33 8.16879C13.079 8.16879 12.8755 7.96532 12.8755 7.71432V5.9541H13.7845V7.71432C13.7845 7.96526 13.581 8.16879 13.33 8.16879Z" fill="#67D1D3"/>
<path d="M12.1469 7.18328C11.8959 7.18328 11.6924 6.97981 11.6924 6.72881V5.78125H12.6014V6.72878C12.6014 6.97981 12.3978 7.18328 12.1469 7.18328Z" fill="#67D1D3"/>
<path d="M0.787437 4.02832H7.71641C8.15128 4.02832 8.50384 4.38085 8.50384 4.81573C8.50384 5.25063 8.15128 5.60316 7.71641 5.60316H0.787437C0.352562 5.60316 0 5.25063 0 4.81576C0 4.38085 0.352531 4.02832 0.787437 4.02832Z" fill="#203066"/>
<path d="M0.787437 5.60316H4.24906V4.02832H0.787437C0.352562 4.02832 0 4.38085 0 4.81576C0 5.25066 0.352531 5.60316 0.787437 5.60316Z" fill="#203066" fill-opacity="0.6"/>
<path d="M4.94249 12.7834H3.51796C3.38887 12.7834 3.28418 12.6787 3.28418 12.5496V10.56C3.28418 10.4309 3.38887 10.3262 3.51796 10.3262H4.94249C5.07159 10.3262 5.17627 10.4309 5.17627 10.56V12.5496C5.17624 12.6787 5.07159 12.7834 4.94249 12.7834Z" fill="#C6C5CA"/>
<path d="M4.94248 10.3262H4.25195V12.7835H4.94248C5.07158 12.7835 5.17627 12.6788 5.17627 12.5496V10.56C5.17623 10.4308 5.07161 10.3262 4.94248 10.3262Z" fill="#8A8A91"/>
</svg>
