<svg width="32" height="32" viewBox="0 0 32 32" fill="none" xmlns="http://www.w3.org/2000/svg">
<g clip-path="url(#clip0_15355_33270)">
<path d="M31.1143 26.8832C29.5225 24.2715 29.5225 21.652 31.1108 19.0369C31.2673 18.7798 31.4514 18.54 31.6027 18.2803C32.7224 16.3607 31.3421 13.9493 29.1192 13.9312C28.3616 13.9243 27.7416 14.2596 27.1267 14.6585C25.0629 15.9962 22.8356 16.328 20.4648 15.6721C19.5214 15.4116 18.6933 14.9224 17.8747 14.398C16.1986 13.3243 13.986 14.196 13.5208 16.1165C13.4124 16.5627 13.4494 17.0441 13.4185 17.5187H12.3685C11.9953 15.0419 10.0699 13.5761 8.09202 13.4274C7.06267 13.3492 6.10384 13.5908 5.2396 14.1547C4.01849 14.9516 3.32968 16.0967 3.119 17.5178H1.04999V14.447C1.52725 14.447 1.98732 14.4496 2.44653 14.447C2.91261 14.4444 3.09492 14.2665 3.09664 13.8065C3.09922 13.0113 3.10438 12.2161 3.09234 11.4209C3.0889 11.2112 3.15425 11.1303 3.36064 11.0728C4.76664 10.6825 6.16576 10.2646 7.57347 9.88037C7.93293 9.78323 8.16683 9.59753 8.36462 9.28891C9.74998 7.1268 11.1534 4.97759 12.5422 2.81893C13.3161 1.61623 14.4048 1.02735 15.8349 1.03165C18.5127 1.04024 21.1897 1.03337 23.8676 1.03423C25.6261 1.03423 26.8215 1.83373 27.4914 3.45681C28.3014 5.42119 29.1132 7.38385 29.9198 9.34994C30.0101 9.57088 30.1228 9.78151 30.3782 9.79096C30.9105 9.81159 31.4445 9.79698 31.9768 9.79698V8.77224C31.6638 8.77224 31.3731 8.75762 31.085 8.7774C30.8692 8.79201 30.7703 8.71808 30.6877 8.51433C29.9448 6.68493 29.1906 4.86068 28.4364 3.03557C27.6229 1.06603 26.0303 0.00346478 23.8951 0.0026051C21.2172 0.00174542 18.5403 0.00862289 15.8633 2.60507e-05C14.035 -0.00513205 12.6419 0.755688 11.6547 2.29194C10.3021 4.39731 8.93906 6.49665 7.56917 8.59084C7.47458 8.73527 7.29657 8.86766 7.13147 8.9158C4.91713 9.56315 2.69935 10.1976 0.480708 10.8269C0.169411 10.9154 -0.000856696 11.0848 3.24145e-06 11.4166C0.000863179 13.6088 -0.00171663 15.801 0.00258305 17.9941C0.00258305 18.3758 0.198649 18.5692 0.580461 18.5726C1.31227 18.5786 2.04322 18.5743 2.77416 18.5743H3.10868C3.52317 21.2127 5.5638 22.5805 7.45136 22.694C8.48157 22.755 9.43524 22.5031 10.2943 21.928C11.4862 21.1302 12.1561 19.9988 12.3685 18.5752C12.8836 18.5752 13.3772 18.5675 13.8699 18.5821C13.9542 18.5855 14.0617 18.6689 14.115 18.7454C15.3396 20.5147 15.7635 22.4472 15.3 24.562C15.0575 25.6642 14.4977 26.6081 13.8863 27.5383C13.1304 28.6859 13.3024 30.1534 14.2552 31.1214C15.2054 32.0886 16.6622 32.2639 17.8368 31.5496C18.112 31.3819 18.3709 31.1859 18.6555 31.0363C19.1233 30.7905 19.6066 30.5712 20.1449 30.3116V31.9717H21.1622C21.1622 31.3363 21.151 30.7157 21.1665 30.0958C21.1742 29.782 21.0599 29.5714 20.7976 29.4003C19.9514 28.8493 19.113 28.2862 18.2771 27.7205C18.1894 27.6612 18.0776 27.5555 18.075 27.4678C18.0578 26.8987 18.0561 26.3287 18.0733 25.7596C18.0819 25.4767 18.3184 25.2807 18.5867 25.2833C18.8559 25.2868 19.0769 25.4845 19.0906 25.7716C19.1078 26.1361 19.0966 26.5023 19.0975 26.8677V27.3268H20.1294V20.8989C20.1294 20.8345 20.1277 20.77 20.1303 20.7055C20.1415 20.3513 20.341 20.1261 20.6437 20.1244C20.9464 20.1235 21.1579 20.3479 21.1596 20.7012C21.1648 21.7646 21.1622 22.8289 21.1622 23.8932V24.2336H22.1941V19.875C22.1941 19.7779 22.189 19.6808 22.1984 19.5853C22.2251 19.2982 22.4323 19.0988 22.6998 19.0927C22.9801 19.0867 23.1977 19.2939 23.2235 19.5965C23.2312 19.6816 23.2261 19.7684 23.2261 19.8544C23.2269 21.1981 23.2269 22.5409 23.2269 23.8846V24.225H24.2588C24.2588 23.0524 24.2571 21.903 24.2597 20.7536C24.2606 20.3556 24.4669 20.1158 24.7886 20.1244C25.0981 20.1338 25.289 20.3651 25.2899 20.7493C25.2933 21.5764 25.2908 22.4042 25.2908 23.2321V24.2285H26.3236C26.3236 23.7359 26.3201 23.2648 26.3244 22.7937C26.3279 22.4163 26.5317 22.1842 26.8447 22.1885C27.156 22.1919 27.3486 22.424 27.3555 22.8048C27.3563 22.8796 27.3555 22.9553 27.3555 23.0301C27.3555 24.3411 27.309 25.6547 27.3727 26.9631C27.4122 27.7919 27.266 28.4624 26.5643 28.9748C26.4233 29.078 26.3425 29.341 26.3339 29.5353C26.3064 30.2007 26.3236 30.8678 26.3236 31.5341V31.9622H27.3667V31.4301C27.4991 31.5048 27.5971 31.5642 27.6995 31.6175C28.758 32.1694 29.802 32.135 30.772 31.4455C31.7412 30.7569 32.1213 29.7855 31.9536 28.6026C31.8598 27.9363 31.4488 27.4317 31.1143 26.8832ZM1.05773 11.7399C1.3673 11.6513 1.7001 11.555 2.05095 11.4544V13.3982H1.05773V11.7399ZM7.73256 21.6692C5.74697 21.6641 4.12684 20.0358 4.13028 18.0491C4.13372 16.0649 5.76417 14.4436 7.75148 14.4487C9.73708 14.453 11.3589 16.0821 11.3538 18.068C11.3495 20.0521 9.71902 21.6735 7.73256 21.6692ZM30.4194 30.4113C29.8003 31.0286 28.8673 31.1309 28.1088 30.6624C27.9626 30.5721 27.8216 30.4724 27.6762 30.3812C27.254 30.1156 27.2205 29.7674 27.5748 29.4029C28.5749 28.3756 28.3719 28.8656 28.3848 27.4265C28.3977 25.9547 28.3375 24.4804 28.4046 23.0112C28.4553 21.8901 27.6461 20.9144 26.3451 21.2136C26.1885 19.4323 25.6872 18.9535 24.2047 19.165C23.9226 18.4703 23.4281 18.0362 22.643 18.0663C21.931 18.0929 21.4804 18.5082 21.2172 19.1735C21.0719 19.1478 20.9283 19.1108 20.783 19.097C19.8809 19.0119 19.1078 19.7186 19.1001 20.6488C19.0906 21.7449 19.0975 22.8401 19.0975 23.9362V24.2955C18.7931 24.2955 18.5007 24.2491 18.229 24.305C17.5307 24.4486 17.05 25.0469 17.0371 25.7561C17.0242 26.4327 17.0379 27.1101 17.0311 27.7867C17.0285 28.0549 17.1583 28.2252 17.3707 28.3644C17.9718 28.759 18.5678 29.1605 19.2093 29.5886C18.9453 29.7176 18.7114 29.8173 18.493 29.9428C18.1215 30.1577 17.756 30.383 17.394 30.6134C16.583 31.1309 15.6457 31.0535 14.999 30.4096C14.3549 29.7674 14.2569 28.8115 14.7987 28.0214C15.5098 26.9838 16.086 25.8937 16.338 24.648C16.7714 22.4962 16.4085 20.488 15.2673 18.6182C15.1108 18.3611 14.9345 18.117 14.7729 17.8634C14.2724 17.0785 14.367 16.132 15.0076 15.501C15.6397 14.8777 16.5805 14.7711 17.3441 15.2826C18.3339 15.9472 19.3761 16.4896 20.5413 16.7621C23.1607 17.3742 25.5952 16.9289 27.8302 15.4339C28.3504 15.0858 28.8819 14.8631 29.5217 15.0144C30.7342 15.3007 31.3353 16.6375 30.7282 17.7258C30.582 17.988 30.3962 18.2279 30.2406 18.4849C28.4347 21.4637 28.4347 24.446 30.2363 27.4274C30.3747 27.6569 30.5364 27.8727 30.6766 28.1014C31.1444 28.863 31.0386 29.7941 30.4194 30.4113Z" fill="#242B3A"/>
<path d="M28.2939 8.94806C27.6335 7.22525 26.9756 5.50245 26.3066 3.78308C25.8801 2.68698 24.9651 2.06801 23.7896 2.06715C21.2639 2.06457 18.7374 2.06801 16.2118 2.06543C15.1902 2.06457 14.4145 2.49699 13.8805 3.36441C13.2665 4.36079 12.6534 5.35802 12.0402 6.35439C11.5062 7.22353 10.9653 8.08837 10.439 8.96181C10.1759 9.39939 10.4003 9.78625 10.9085 9.8043C10.9945 9.80688 11.0805 9.8043 11.1665 9.8043H19.3574C22.1419 9.8043 24.9255 9.80516 27.71 9.8043C28.2965 9.8043 28.5046 9.49825 28.2939 8.94806ZM19.0848 8.75205H11.8003C11.8467 8.66264 11.8837 8.57925 11.931 8.50274C12.864 6.98454 13.8031 5.46978 14.7301 3.94814C15.081 3.37387 15.5711 3.08759 16.2479 3.09533C17.1818 3.10565 18.1157 3.09791 19.0848 3.09791V8.75205ZM20.152 8.75119V3.10307C21.4428 3.10307 22.7095 3.08416 23.9762 3.11081C24.5532 3.1237 25.0279 3.42545 25.2463 3.96275C25.8869 5.53941 26.4889 7.13241 27.1184 8.75119H20.152Z" fill="#242B3A"/>
<path d="M5.65754 2.58128C5.56123 2.57354 5.46319 2.57354 5.3686 2.55721C4.36505 2.38527 3.6814 1.61757 3.61261 0.585952C3.58767 0.220587 3.39934 0.0073853 3.09923 0.00394657C2.78965 0.000507836 2.60132 0.217148 2.57552 0.607444C2.50415 1.69752 1.69495 2.50734 0.606266 2.5787C0.214135 2.60449 -0.00170968 2.79018 1.01994e-05 3.09967C0.00259001 3.40915 0.216715 3.58969 0.612286 3.61548C1.68377 3.68511 2.50157 4.49579 2.57466 5.55922C2.6039 5.97703 2.78879 6.19711 3.10439 6.19023C3.41052 6.18335 3.58509 5.96843 3.61433 5.5704C3.66334 4.88437 3.954 4.31182 4.54736 3.96881C4.87672 3.77796 5.28261 3.7023 5.66356 3.61978C5.97056 3.55358 6.18124 3.38938 6.18898 3.11084C6.19672 2.82027 5.98604 2.61051 5.65754 2.58128ZM3.08547 3.80117C2.87736 3.59914 2.59874 3.32748 2.36398 3.09967C2.59444 2.87357 2.86532 2.60535 3.11384 2.3612C3.32109 2.58815 3.58251 2.87701 3.79749 3.11342C3.59025 3.31373 3.31507 3.57851 3.08547 3.80117Z" fill="#242B3A"/>
<path d="M5.65327 24.7632C5.45205 24.7417 5.24566 24.7211 5.0539 24.6626C4.22836 24.409 3.67026 23.6775 3.6135 22.7989C3.5877 22.4051 3.40454 22.1893 3.09582 22.1885C2.81462 22.1876 2.5876 22.3879 2.5833 22.6991C2.5704 23.8468 1.63307 24.7641 0.505687 24.771C0.196969 24.7727 -0.00339615 25.0065 4.35987e-05 25.2876C0.00434329 25.5679 0.206429 25.7665 0.519446 25.7966C1.77581 25.9178 2.46806 26.6055 2.579 27.8435C2.60823 28.1719 2.81806 28.3825 3.10872 28.3739C3.38734 28.3662 3.58082 28.1616 3.61006 27.8469C3.72529 26.6004 4.41238 25.9143 5.66617 25.7966C5.97919 25.7665 6.183 25.5696 6.18901 25.2911C6.19417 24.9996 5.98435 24.7993 5.65327 24.7632ZM3.09926 25.9986C2.86966 25.7708 2.60393 25.5069 2.38121 25.2859C2.59362 25.0693 2.86536 24.7916 3.0898 24.5621C3.3065 24.7856 3.57222 25.0598 3.79495 25.2894C3.59716 25.4914 3.32456 25.7691 3.09926 25.9986Z" fill="#242B3A"/>
<path d="M11.8427 28.3763C10.6337 28.2766 9.90701 27.5493 9.80553 26.3397C9.77802 26.0053 9.57679 25.7972 9.28527 25.7998C8.99461 25.8024 8.79941 26.0105 8.77275 26.3483C8.67987 27.5304 7.92399 28.2921 6.75963 28.3754C6.40276 28.4012 6.18778 28.6024 6.19551 28.9041C6.20239 29.1939 6.41136 29.383 6.75189 29.4088C7.92743 29.4965 8.68417 30.2521 8.77275 31.4282C8.79855 31.7686 8.98773 31.9784 9.27753 31.9853C9.57765 31.9921 9.74878 31.7703 9.81585 31.4222C9.88465 31.0602 9.96462 30.6768 10.1469 30.3647C10.5047 29.7509 11.0894 29.4509 11.8023 29.4088C12.1678 29.3873 12.381 29.1964 12.3836 28.8964C12.3862 28.6041 12.1781 28.4038 11.8427 28.3763ZM9.29301 29.6177C9.07029 29.3933 8.80113 29.1225 8.57152 28.8921C8.78565 28.6729 9.05825 28.3961 9.28699 28.1631C9.51143 28.3909 9.77974 28.6626 10.0085 28.8964C9.79521 29.1113 9.52089 29.3881 9.29301 29.6177Z" fill="#242B3A"/>
<path d="M20.1024 10.8535H18.0781V11.8447H20.1024V10.8535Z" fill="#242B3A"/>
<path d="M28.3706 10.8359H26.3359V11.8418H28.3706V10.8359Z" fill="#242B3A"/>
<path d="M7.74222 15.4805C6.33279 15.4805 5.17359 16.629 5.16413 18.0354C5.15381 19.4591 6.30785 20.6308 7.72761 20.6369C9.15166 20.6437 10.3203 19.4866 10.3229 18.0655C10.3255 16.6419 9.16628 15.4796 7.74222 15.4805ZM7.75082 19.6052C6.89519 19.6095 6.19262 18.9063 6.19606 18.0501C6.1995 17.2084 6.89261 16.5155 7.73534 16.5121C8.5927 16.5087 9.29441 17.2102 9.29097 18.0664C9.28667 18.9089 8.59356 19.6018 7.75082 19.6052Z" fill="#242B3A"/>
</g>
<defs>
<clipPath id="clip0_15355_33270">
<rect width="32" height="32" fill="white"/>
</clipPath>
</defs>
</svg>
