<svg width="33" height="32" viewBox="0 0 33 32" fill="none" xmlns="http://www.w3.org/2000/svg">
<path d="M32.4991 29.7025C32.2057 29.1367 31.7424 28.8225 31.1024 28.8092C30.4274 28.7958 29.7507 28.8067 29.0407 28.8067C29.1732 28.085 29.2982 27.3925 29.4282 26.7017C29.7541 24.9642 30.0807 23.2258 30.4157 21.49C30.4357 21.3867 30.5149 21.2575 30.6041 21.21C31.3191 20.8242 31.6874 20.2042 31.5832 19.5242C31.4674 18.7733 30.9591 18.2833 30.1441 18.1358C30.1307 18.1333 30.1174 18.1308 30.1066 18.1292C29.9224 17.6825 29.8174 17.2442 29.5757 16.9017C29.3649 16.6033 29.0216 16.3758 28.6957 16.19C28.4899 16.0725 28.4032 15.9725 28.3741 15.7375C28.2107 14.395 27.2724 13.4717 25.9349 13.3517C25.0474 13.2725 24.3007 13.5983 23.7149 14.2675C23.5982 14.4017 23.4941 14.4458 23.3182 14.4267C22.2841 14.3125 21.4049 14.8683 21.0399 15.8425C21.0049 15.9358 20.9291 16.0525 20.8449 16.0833C19.8991 16.4242 19.4091 17.1033 19.3191 18.1042C19.2091 18.1275 19.0991 18.15 18.9899 18.175C18.3199 18.325 17.8391 18.8475 17.7416 19.5317C17.6507 20.1683 17.9924 20.8475 18.5941 21.1333C18.8241 21.2425 18.9024 21.3842 18.9449 21.6175C19.3816 23.9808 19.8282 26.3417 20.2716 28.7025C20.2757 28.7225 20.2682 28.7433 20.2641 28.7842H16.6749C16.6241 27.7958 16.2549 26.9642 15.4916 26.3283C14.7341 25.6967 13.8374 25.5408 12.8666 25.6133C12.8907 25.0567 12.9141 24.5342 12.9374 23.9933C13.6707 23.8467 14.1716 23.4292 14.3191 22.6658C14.4666 21.9033 14.0432 21.3792 13.4332 20.8325C13.5649 20.7492 13.6882 20.6992 13.7757 20.6125C19.6999 14.6942 25.6157 8.76667 31.5491 2.8575C32.3741 2.03583 32.2641 0.890833 31.5066 0.324167C31.3274 0.190833 31.1124 0.106667 30.9141 0H30.2266C29.7949 0.129167 29.4641 0.4 29.1499 0.715C24.0716 5.80083 18.9891 10.8808 13.9074 15.9642C13.0257 16.8467 12.1474 17.7325 11.2407 18.6433C10.7607 18.0717 10.2166 17.6658 9.44656 17.8142C8.68156 17.9617 8.27573 18.4717 8.13323 19.2017C5.73073 19.1233 3.8449 20.0283 2.81906 22.2175C1.64406 24.7258 2.30323 26.9267 4.3524 28.805H4.00656C3.41323 28.805 2.81906 28.7983 2.22573 28.8083C1.6374 28.8183 1.1924 29.0942 0.888229 29.5925C0.798229 29.7392 0.738229 29.905 0.664062 30.0625V30.6875C0.856562 31.37 1.29656 31.805 1.97656 32H31.3516C32.0332 31.8067 32.4699 31.3683 32.6641 30.6875V30.0625C32.6091 29.9425 32.5591 29.8192 32.4991 29.7025ZM21.3616 17.07C21.8507 17.0083 21.9249 16.9342 22.0016 16.4367C22.1199 15.6725 22.7724 15.2933 23.5049 15.5633C23.8991 15.7083 24.0966 15.6375 24.3074 15.2742C24.7341 14.5425 25.4949 14.2375 26.2491 14.495C27.0016 14.7525 27.4091 15.4542 27.2957 16.2992C27.2224 16.8425 27.3707 17.0267 27.9124 17.0667C28.4924 17.1092 28.9074 17.5408 28.9032 18.1142H20.4457C20.3807 17.6058 20.7899 17.1417 21.3616 17.07ZM19.0457 20.16C18.9224 20.0483 18.7999 19.84 18.8199 19.6925C18.8416 19.5308 19.0041 19.3633 19.1474 19.2525C19.2391 19.1817 19.4066 19.1975 19.5391 19.1975C22.9532 19.195 26.3666 19.195 29.7799 19.195C29.8424 19.195 29.9049 19.1925 29.9674 19.1967C30.3041 19.2192 30.5374 19.4467 30.5307 19.7442C30.5241 20.045 30.2941 20.2575 29.9441 20.2592C28.4974 20.2633 27.0507 20.2608 25.6049 20.2617H24.6682C22.9407 20.2617 21.2132 20.2633 19.4849 20.2575C19.3349 20.2567 19.1424 20.2483 19.0457 20.16ZM19.9724 21.3425H29.3549C28.8874 23.8317 28.4241 26.3008 27.9574 28.7858H21.3716C20.9057 26.3108 20.4424 23.8417 19.9724 21.3425ZM12.2507 19.1275C18.1616 13.2158 24.0732 7.30417 29.9849 1.3925C30.0291 1.34833 30.0724 1.30333 30.1182 1.26C30.3866 1.00917 30.6974 0.996667 30.9182 1.22833C31.1257 1.44417 31.1082 1.75667 30.8741 2.01C30.8316 2.05583 30.7857 2.09833 30.7416 2.1425C24.8232 8.06167 18.9041 13.98 12.9857 19.9008C12.9124 19.9742 12.8566 20.0642 12.7932 20.145C12.5141 19.8708 12.2716 19.6317 12.0141 19.3783C12.0966 19.2908 12.1716 19.2067 12.2507 19.1275ZM9.4049 18.98C9.6074 18.8217 9.82823 18.8192 10.0424 18.96C10.1191 19.0108 10.1841 19.0817 10.2507 19.1475C11.1641 20.0608 12.0799 20.9708 12.9874 21.89C13.1207 22.025 13.2132 22.1983 13.2774 22.2883C13.2907 22.7817 12.8624 23.0542 12.5116 22.8692C12.4216 22.8225 12.3424 22.7483 12.2699 22.6758C11.3332 21.7417 10.3974 20.8067 9.4649 19.8692C9.37823 19.7817 9.28573 19.6825 9.24573 19.5717C9.16656 19.3492 9.20823 19.1333 9.4049 18.98ZM3.44656 25.5183C2.7324 22.5908 5.3049 19.8125 8.2599 20.3258C8.3724 20.3458 8.4949 20.4125 8.57656 20.4933C9.6049 21.5117 10.6274 22.535 11.6474 23.5608C11.7149 23.6292 11.7857 23.7317 11.7874 23.8192C11.7966 24.3367 11.7899 24.8542 11.7791 25.3708C11.7757 25.545 11.6799 25.6208 11.4932 25.6083C11.2657 25.5925 11.0349 25.5975 10.8066 25.6092C10.4857 25.625 10.2866 25.8167 10.2741 26.1058C10.2607 26.4083 10.4574 26.6375 10.7832 26.6633C11.0316 26.6833 11.2824 26.6708 11.5316 26.6717C12.2399 26.675 12.9482 26.6542 13.6549 26.6867C14.7224 26.7367 15.6124 27.7142 15.5782 28.805H15.3116C12.7516 28.805 10.1907 28.8117 7.6299 28.8025C5.60406 28.795 3.92073 27.4633 3.44656 25.5183ZM30.8191 30.935H2.50906C2.43656 30.935 2.36323 30.9383 2.29073 30.9342C1.95573 30.9142 1.72323 30.685 1.73156 30.385C1.74073 30.0933 1.9649 29.8858 2.2899 29.8717C2.39406 29.8667 2.49823 29.87 2.6024 29.87H30.8182C31.3357 29.87 31.5849 30.035 31.5957 30.3842C31.6074 30.7442 31.3391 30.935 30.8191 30.935Z" fill="#242B3A"/>
<path d="M19.9322 5.34333C19.7789 5.31833 19.6206 5.32583 19.4656 5.31417C18.4372 5.24083 17.5406 4.87167 16.8531 4.08583C16.0147 3.1275 15.6881 1.96667 15.6106 0.725833C15.5906 0.4075 15.5089 0.161667 15.2281 0H14.9156C14.6456 0.131667 14.5572 0.3475 14.5164 0.646667C14.4314 1.2825 14.3497 1.93167 14.1489 2.53667C13.6397 4.07167 12.6039 5.04917 10.9564 5.285C10.7106 5.32 10.4572 5.3075 10.2097 5.34C9.9014 5.38 9.7139 5.60667 9.72723 5.8925C9.74056 6.16667 9.92806 6.35667 10.2306 6.39C10.3956 6.40833 10.5631 6.41417 10.7289 6.4275C12.1097 6.54333 13.1414 7.20417 13.8106 8.41917C14.2706 9.25583 14.4672 10.1658 14.5281 11.11C14.5539 11.5117 14.7531 11.7467 15.0681 11.7417C15.3831 11.7358 15.5489 11.4867 15.6081 11.0967C15.7081 10.4317 15.7864 9.75 15.9997 9.11833C16.4464 7.7975 17.3247 6.8675 18.7256 6.53583C19.1064 6.445 19.5081 6.43833 19.8997 6.39C20.1922 6.35417 20.3889 6.15167 20.3981 5.8825C20.4081 5.62 20.2181 5.39 19.9322 5.34333ZM15.0614 8.535C14.5747 7.35917 13.8056 6.4875 12.6964 5.865C13.8156 5.23667 14.5756 4.37083 15.0597 3.19583C15.5497 4.38 16.3189 5.24667 17.4214 5.86583C16.3197 6.48833 15.5464 7.35417 15.0614 8.535Z" fill="#242B3A"/>
<path d="M7.61073 11.7411C7.56906 11.7369 7.5274 11.7361 7.48573 11.7344C6.41906 11.6803 5.66573 11.1544 5.2924 10.1653C5.10406 9.66692 5.02573 9.12359 4.93406 8.59359C4.86906 8.21359 4.70156 7.99526 4.38656 8.00109C4.07906 8.00776 3.8899 8.23776 3.85406 8.61442C3.82323 8.93442 3.79156 9.25859 3.71656 9.56942C3.39073 10.9136 2.59656 11.6419 1.35073 11.7253C1.05823 11.7444 0.835729 11.8328 0.664062 12.0628V12.4378C0.816562 12.6861 1.02906 12.8053 1.33073 12.8128C2.29406 12.8361 2.98323 13.3044 3.4174 14.1578C3.6949 14.7044 3.82573 15.2886 3.85656 15.8986C3.87656 16.3011 4.07573 16.5328 4.3974 16.5328C4.7074 16.5328 4.89073 16.3161 4.9299 15.9278C4.95823 15.6486 4.9824 15.3661 5.0474 15.0944C5.2849 14.0986 5.72656 13.2503 6.79156 12.9236C7.05573 12.8428 7.34406 12.8394 7.62073 12.8011C7.9324 12.7569 8.12323 12.5511 8.12156 12.2628C8.11906 11.9719 7.9249 11.7728 7.61073 11.7411ZM4.3949 13.5761C4.03823 13.1636 3.64406 12.7061 3.26156 12.2628C3.6224 11.8494 4.02656 11.3869 4.3974 10.9619C4.7574 11.3753 5.1624 11.8394 5.53406 12.2653C5.1574 12.6986 4.75906 13.1569 4.3949 13.5761Z" fill="#242B3A"/>
<path d="M8.12904 1.60287C8.11987 1.9137 7.13737 2.9412 6.82487 2.9187C6.66071 2.90703 6.44737 2.80453 6.36487 2.67453C6.28237 2.5437 6.25654 2.26287 6.34154 2.1612C6.65071 1.78953 6.98737 1.42537 7.37154 1.13453C7.68654 0.897035 8.14071 1.20703 8.12904 1.60287Z" fill="#242B3A"/>
<path d="M8.14473 4.86514C8.0589 4.97347 7.97057 5.18181 7.8214 5.24514C7.6689 5.30931 7.40307 5.29847 7.28057 5.20097C6.9489 4.93847 6.65057 4.62681 6.3714 4.30597C6.1989 4.10764 6.2139 3.85764 6.39307 3.64931C6.56223 3.45181 6.81973 3.37014 7.00723 3.52597C7.38723 3.84264 7.72057 4.21514 8.06557 4.57264C8.1089 4.61764 8.10473 4.70931 8.14473 4.86514Z" fill="#242B3A"/>
<path d="M5.78268 3.96664C5.68601 4.14664 5.63934 4.28914 5.54768 4.39081C5.31018 4.65164 5.05684 4.89831 4.80184 5.14165C4.55434 5.37831 4.23851 5.38748 4.02434 5.17665C3.80101 4.95831 3.80185 4.65664 4.04268 4.40164C4.29268 4.13831 4.53268 3.85581 4.82184 3.64414C4.96934 3.53581 5.23601 3.49831 5.41268 3.55081C5.56101 3.59498 5.65684 3.81581 5.78268 3.96664Z" fill="#242B3A"/>
<path d="M5.75812 2.45958C5.66062 2.58208 5.57562 2.78541 5.43229 2.84374C5.27646 2.90624 5.01146 2.90374 4.89062 2.80791C4.55812 2.54458 4.26229 2.23124 3.98062 1.91208C3.80146 1.70874 3.82896 1.45958 4.00979 1.25708C4.18979 1.05541 4.44979 0.980411 4.65479 1.15208C5.01146 1.45124 5.32646 1.80041 5.64812 2.13874C5.70562 2.19958 5.70979 2.31041 5.75812 2.45958Z" fill="#242B3A"/>
<path d="M27.9049 8.53964C27.0233 8.51631 26.2983 9.20047 26.2741 10.0796C26.2491 10.9755 26.9349 11.7063 27.8274 11.7355C28.6991 11.7638 29.4516 11.0396 29.4683 10.1563C29.4849 9.28631 28.7849 8.56214 27.9049 8.53964ZM27.8458 10.6646C27.5524 10.6521 27.3291 10.4038 27.3424 10.1046C27.3549 9.81631 27.5783 9.60714 27.8716 9.60881C28.1674 9.61131 28.4083 9.85631 28.3991 10.1463C28.3908 10.433 28.1308 10.6771 27.8458 10.6646Z" fill="#242B3A"/>
<path d="M30.5497 11.7413C29.6572 11.7346 28.9314 12.4479 28.9297 13.3321C28.928 14.2121 29.6639 14.9413 30.5464 14.9346C31.4214 14.9279 32.1264 14.2154 32.1272 13.3363C32.128 12.4521 31.4314 11.7471 30.5497 11.7413ZM30.533 13.8671C30.2455 13.8671 29.9964 13.6146 30.0005 13.3271C30.0039 13.0479 30.2347 12.8163 30.5155 12.8079C30.8189 12.7996 31.0522 13.0229 31.0564 13.3254C31.0605 13.6246 30.8264 13.8671 30.533 13.8671Z" fill="#242B3A"/>
<path d="M27.3266 22.9537C27.3141 23.2337 27.1058 23.442 26.7924 23.4579C26.5224 23.4712 26.2516 23.4604 25.9808 23.4604C25.7208 23.4604 25.4599 23.472 25.1999 23.4579C24.8708 23.4404 24.6608 23.222 24.6641 22.9262C24.6674 22.6454 24.8699 22.4154 25.1808 22.4054C25.7216 22.387 26.2633 22.387 26.8041 22.4054C27.1291 22.4162 27.3399 22.6629 27.3266 22.9537Z" fill="#242B3A"/>
<path d="M23.5899 22.96C23.5616 23.2408 23.4057 23.425 23.1157 23.4517C22.9199 23.4692 22.7207 23.455 22.5232 23.455C22.5232 23.4542 22.5232 23.4533 22.5232 23.4533C22.3257 23.4533 22.1266 23.4692 21.9316 23.4492C21.6524 23.4217 21.4766 23.2183 21.4691 22.9517C21.4607 22.6833 21.6216 22.4442 21.8949 22.4242C22.3082 22.3925 22.7257 22.3917 23.1391 22.4192C23.4232 22.4375 23.6174 22.6958 23.5899 22.96Z" fill="#242B3A"/>
</svg>
