<svg width="32" height="32" viewBox="0 0 32 32" fill="none" xmlns="http://www.w3.org/2000/svg">
<g clip-path="url(#clip0_15355_33310)">
<path d="M31.6179 0H24.5572C24.3451 0.158901 24.1399 0.328166 23.9188 0.472559C23.8325 0.52852 23.7102 0.550628 23.6045 0.551319C22.6773 0.556846 21.7509 0.554774 20.8244 0.554774H2.39458C1.45568 0.554774 1.18278 0.759273 0.926465 1.65534C0.657714 2.59493 0.389654 3.53452 0.11814 4.47342C0.0905048 4.56876 0.0400708 4.65789 0 4.74977V5.12492C0.136793 5.38676 0.351656 5.51665 0.648042 5.53599C0.90712 5.55257 1.16482 5.59402 1.4232 5.62511C3.60223 5.8835 5.78125 6.14258 7.96097 6.40166C10.3362 6.68423 12.7114 6.96679 15.0867 7.25005C17.4619 7.53331 19.8378 7.81174 22.2124 8.10467C23.1084 8.21521 24.0066 8.41763 24.8163 7.80483C24.8225 7.79999 24.8356 7.80483 24.8764 7.80483C25.0028 7.97064 25.1431 8.14888 25.2778 8.33197C25.5161 8.65599 25.8305 8.82387 26.2367 8.82318C27.9439 8.8218 29.6503 8.82525 31.3575 8.8218C31.7886 8.82042 31.9883 8.6173 31.9917 8.18895C31.9965 7.59549 31.991 7.00203 31.9938 6.40857C31.9952 6.08178 31.8639 5.83376 31.6014 5.63548C31.5198 5.57399 31.4466 5.44549 31.4445 5.34531C31.43 4.72076 31.4314 4.0962 31.4432 3.47165C31.4452 3.37908 31.506 3.25195 31.5799 3.20152C31.8777 3.00117 31.9979 2.72827 31.9945 2.37938C31.9889 1.83773 31.9765 1.29539 31.9986 0.755128C32.0131 0.417289 31.904 0.172028 31.6179 0ZM23.257 7.12086C22.7547 7.03795 22.2448 7.00134 21.7405 6.92741C21.6562 6.91498 21.5305 6.82447 21.5166 6.75262C21.4227 6.26625 21.2949 6.08593 20.9867 6.06935C20.6696 6.05277 20.4824 6.2545 20.3726 6.76575C19.4744 6.65866 18.5721 6.55158 17.6795 6.44587C17.589 5.73013 17.4626 5.52908 17.1151 5.51734C16.7745 5.50559 16.6038 5.72391 16.5182 6.30908C15.6262 6.20269 14.7322 6.0956 13.794 5.98368C13.794 5.84274 13.7996 5.71147 13.7933 5.58021C13.7761 5.20022 13.5522 4.96325 13.2248 4.97085C12.9076 4.97845 12.7024 5.20921 12.6859 5.57537C12.6824 5.6562 12.679 5.73773 12.6741 5.84965C11.7587 5.74118 10.8647 5.63479 9.93065 5.52425C9.93065 5.32044 9.93756 5.15394 9.92927 4.98882C9.91131 4.64821 9.69576 4.42782 9.38624 4.42368C9.07397 4.41884 8.8522 4.63094 8.82456 4.97085C8.8142 5.09314 8.82249 5.2175 8.82249 5.39298C7.70672 5.25964 6.61998 5.13045 5.50836 4.9978C5.50836 4.78294 5.51595 4.5964 5.50697 4.41124C5.4897 4.08584 5.28037 3.87651 4.97845 3.8696C4.66134 3.862 4.44233 4.07271 4.42092 4.41401C4.41193 4.55564 4.41953 4.69934 4.41953 4.8686C3.34591 4.74079 2.31582 4.61782 1.26154 4.49277C1.522 3.57874 1.7721 2.68889 2.03394 1.80319C2.05328 1.73963 2.15415 1.68297 2.22877 1.65879C2.30407 1.63392 2.39389 1.65188 2.47679 1.65188H23.706C23.7122 1.79766 23.7212 1.9082 23.7219 2.01943C23.7226 3.13381 23.7226 4.2482 23.7226 5.36258C23.7226 6.15087 23.7226 6.15087 24.1516 6.86938C23.8822 7.05661 23.6086 7.17958 23.257 7.12086ZM30.8835 7.72883H30.5547C29.2026 7.72883 27.8499 7.72538 26.4979 7.73298C26.292 7.73436 26.1552 7.67978 26.0308 7.50499C25.6819 7.01308 25.3089 6.53845 24.951 6.05346C24.8923 5.97331 24.8239 5.87176 24.8232 5.78056C24.8156 4.24198 24.8177 2.7034 24.8177 1.12475H30.8822C30.8822 1.46949 30.8898 1.80871 30.8759 2.14724C30.8732 2.21011 30.7972 2.28611 30.7357 2.32618C30.469 2.50235 30.3419 2.74969 30.3412 3.06265C30.3384 3.95734 30.3391 4.85202 30.3398 5.74671C30.3405 6.07142 30.4683 6.32566 30.7467 6.50874C30.8117 6.55089 30.8746 6.6483 30.878 6.72361C30.8918 7.04417 30.8835 7.36543 30.8835 7.72883Z" fill="#242B3A"/>
<path d="M30.3328 24.3538C30.3225 23.6083 29.8852 23.1813 29.1369 23.1758C28.5331 23.171 27.93 23.1751 27.2363 23.1751C27.3531 23.0743 27.4035 23.0273 27.4574 22.9844C29.7318 21.1757 30.4558 18.0868 29.1342 15.5057C28.0198 13.3281 26.1786 12.1639 23.7329 12.1446C18.6411 12.1031 13.5487 12.1308 8.45625 12.1349C8.09354 12.1349 7.72254 12.1398 7.36743 12.2068C4.80843 12.6911 3.07018 14.1606 2.41868 16.6892C1.7741 19.1874 2.55479 21.3042 4.52793 22.9727C4.58596 23.0218 4.64054 23.0756 4.74901 23.1751C4.07817 23.1751 3.4778 23.1724 2.87743 23.1758C2.09121 23.18 1.65941 23.6049 1.65181 24.3883C1.64559 25.0025 1.64974 25.6174 1.65043 26.2316C1.65112 27.1877 2.04216 27.5802 2.99349 27.5815C3.27883 27.5822 3.56416 27.5815 3.84603 27.5815V30.8895C3.67746 30.8895 3.52409 30.8839 3.37071 30.8908C2.99418 30.9081 2.74685 31.1382 2.75445 31.4573C2.76205 31.7779 3.01146 31.9962 3.39213 31.9969C4.80843 31.9997 6.22472 32.0004 7.64102 31.9969C8.0286 31.9955 8.26073 31.7828 8.26142 31.4477C8.26142 31.1161 8.03067 30.906 7.64309 30.8901C7.49248 30.8846 7.34187 30.8895 7.19748 30.8895V27.605H24.7941V30.8915C24.6096 30.8915 24.4438 30.8812 24.2794 30.8936C23.9353 30.9198 23.7239 31.1382 23.7253 31.4491C23.7267 31.7738 23.9526 31.9949 24.316 31.9962C25.753 32.0011 27.1901 32.0004 28.6271 31.9962C28.9822 31.9949 29.2261 31.7655 29.2323 31.4553C29.2385 31.1465 29.0008 30.9143 28.645 30.8922C28.4827 30.8825 28.3189 30.8908 28.1241 30.8908V27.5815C28.491 27.5815 28.8219 27.5864 29.1521 27.5802C29.8852 27.567 30.3204 27.1442 30.3328 26.416C30.3439 25.7293 30.3425 25.0412 30.3328 24.3538ZM12.1193 13.2452C16.0448 13.2445 19.9704 13.241 23.896 13.2459C26.1593 13.2486 28.3272 15.1603 28.6112 17.3918C28.6202 17.4623 28.6119 17.5341 28.6119 17.6509H28.2132C25.3392 17.6509 22.4651 17.6509 19.5911 17.6523C19.4564 17.6523 19.3182 17.6509 19.1876 17.6778C18.9037 17.7366 18.7634 17.9328 18.7538 18.2119C18.7441 18.4765 18.9596 18.7114 19.2291 18.7459C19.3424 18.7604 19.4578 18.7535 19.5724 18.7535H28.6243C28.6015 19.3746 28.4205 19.9259 28.1476 20.4372C27.2032 22.2065 25.7109 23.1496 23.7094 23.1661C19.8778 23.1965 16.0455 23.1744 12.2139 23.1744H12.0536C12.0315 23.2021 12.0101 23.229 11.988 23.2567C11.95 23.229 11.9127 23.2021 11.8747 23.1744H12.0536C12.33 22.8276 12.5994 22.476 12.8924 22.1443C12.9559 22.0725 13.1197 22.069 13.2371 22.069C15.7257 22.0649 18.2149 22.0663 20.7034 22.0656C21.2554 22.0656 21.5062 21.8894 21.5 21.506C21.4945 21.1329 21.2506 20.9636 20.7145 20.9636C18.5064 20.9629 16.2991 20.9636 14.0917 20.9636H13.6807C14.5498 19.1072 14.5456 17.2882 13.6793 15.4442H20.6806C20.7953 15.4442 20.9107 15.4491 21.024 15.4352C21.3038 15.4014 21.4952 15.1851 21.5007 14.9081C21.5069 14.6269 21.3287 14.4058 21.0482 14.363C20.9252 14.3443 20.7988 14.3471 20.6744 14.3471C18.2066 14.3464 15.7388 14.3437 13.271 14.3513C13.043 14.3519 12.8882 14.2877 12.7321 14.1184C12.4599 13.8234 12.1517 13.5616 11.8298 13.259C11.9438 13.2535 12.0315 13.2452 12.1193 13.2452ZM3.30853 18.1822C3.31337 15.4456 5.54283 13.2376 8.2932 13.2445C11.0298 13.2514 13.2482 15.4871 13.2378 18.2271C13.2281 20.9574 10.9773 23.1903 8.24968 23.1744C5.51243 23.1592 3.3037 20.927 3.30853 18.1822ZM6.04371 30.8653H4.97976V27.5981H6.04371V30.8653ZM27.0007 30.8722H25.9409V27.6002H27.0007V30.8722ZM29.2178 26.4692H2.76274V24.2923H29.2178V26.4692Z" fill="#242B3A"/>
<path d="M11.875 23.1748C11.913 23.2024 11.9503 23.2294 11.9883 23.257C12.0104 23.2294 12.0318 23.2024 12.0539 23.1748H11.875Z" fill="white"/>
<path d="M29.2296 3.78605C29.1867 2.9266 28.529 2.27234 27.6675 2.20739C26.8702 2.14729 26.1117 2.72831 25.959 3.54562C25.9078 3.81921 25.9272 4.10523 25.9141 4.38504C25.9182 4.38504 25.9224 4.38573 25.9265 4.38573C25.9265 4.58332 25.923 4.78091 25.9272 4.9785C25.9458 5.88907 26.6554 6.6062 27.5501 6.62071C28.442 6.63522 29.1861 5.94158 29.2303 5.03377C29.2503 4.61855 29.2503 4.20126 29.2296 3.78605ZM28.1173 5.01581C28.0952 5.30045 27.8831 5.49458 27.6067 5.50771C27.311 5.52084 27.0644 5.33983 27.0471 5.04206C27.0229 4.62753 27.0236 4.20955 27.045 3.79503C27.0602 3.49864 27.3089 3.30451 27.5957 3.31349C27.8775 3.32316 28.1 3.53457 28.1193 3.83026C28.1318 4.02716 28.1214 4.22544 28.1214 4.42303C28.1207 4.42303 28.1207 4.42303 28.12 4.42303C28.12 4.62062 28.1325 4.81891 28.1173 5.01581Z" fill="#242B3A"/>
<path d="M17.6436 18.2201C17.6367 18.5096 17.4343 18.7279 17.1344 18.7479C16.9375 18.761 16.7393 18.7507 16.5417 18.7507V18.7514C16.3544 18.7514 16.1665 18.7603 15.98 18.7493C15.6843 18.7327 15.466 18.5172 15.4466 18.238C15.4273 17.9624 15.6235 17.6929 15.9164 17.675C16.3406 17.648 16.769 17.6487 17.1925 17.677C17.4771 17.6964 17.6512 17.9417 17.6436 18.2201Z" fill="#242B3A"/>
<path d="M24.8102 21.5489C24.7957 21.8218 24.5988 22.0367 24.3149 22.0588C24.1083 22.0747 23.899 22.0622 23.691 22.0622C23.5038 22.0629 23.3159 22.074 23.13 22.0601C22.8343 22.038 22.6243 21.8128 22.6174 21.5316C22.6098 21.2449 22.8012 20.9983 23.101 20.981C23.5155 20.9575 23.9335 20.9575 24.3474 20.9851C24.6479 21.0059 24.8254 21.2546 24.8102 21.5489Z" fill="#242B3A"/>
<path d="M24.8111 14.8918C24.8132 15.182 24.6156 15.4023 24.3206 15.4383C24.2999 15.441 24.2791 15.4424 24.2584 15.4424H23.6967V15.4383C23.4991 15.4383 23.3002 15.4521 23.104 15.4348C22.8255 15.4106 22.6273 15.1868 22.6176 14.916C22.6072 14.6279 22.7993 14.3785 23.0957 14.3626C23.5102 14.3412 23.9282 14.3412 24.3427 14.364C24.6287 14.3798 24.8097 14.612 24.8111 14.8918Z" fill="#242B3A"/>
<path d="M8.27697 14.3477C6.15045 14.3442 4.42464 16.0679 4.42188 18.1979C4.41843 20.3306 6.13456 22.0585 8.26039 22.0641C10.3945 22.0689 12.1245 20.3562 12.1321 18.2304C12.1403 16.0825 10.4214 14.3518 8.27697 14.3477ZM8.27559 20.9593C6.75013 20.9587 5.50863 19.7158 5.51554 18.1972C5.52245 16.6801 6.77777 15.4365 8.29217 15.4455C9.80035 15.4544 11.0246 16.6835 11.0329 18.1972C11.0412 19.7172 9.80104 20.9593 8.27559 20.9593Z" fill="#242B3A"/>
<path d="M8.26377 16.5567C7.35181 16.5608 6.62224 17.298 6.62501 18.2113C6.62846 19.1205 7.36839 19.8632 8.27413 19.8646C9.18609 19.866 9.94467 19.0977 9.93292 18.1851C9.92049 17.2759 9.17918 16.5525 8.26377 16.5567ZM8.28242 18.7516C7.97153 18.7543 7.73386 18.5167 7.73456 18.2044C7.73525 17.9032 7.95771 17.6724 8.25617 17.6628C8.56982 17.6517 8.8137 17.8818 8.81992 18.1933C8.82545 18.5042 8.59055 18.7488 8.28242 18.7516Z" fill="#242B3A"/>
</g>
<defs>
<clipPath id="clip0_15355_33310">
<rect width="32" height="32" fill="white"/>
</clipPath>
</defs>
</svg>
