<svg width="14" height="14" viewBox="0 0 14 14" fill="none" xmlns="http://www.w3.org/2000/svg">
<path d="M11.3748 7.29171C11.3748 6.48671 12.0282 5.83337 12.8332 5.83337V5.25004C12.8332 2.91671 12.2498 2.33337 9.9165 2.33337H4.08317C1.74984 2.33337 1.1665 2.91671 1.1665 5.25004V5.54171C1.9715 5.54171 2.62484 6.19504 2.62484 7.00004C2.62484 7.80504 1.9715 8.45837 1.1665 8.45837V8.75004C1.1665 11.0834 1.74984 11.6667 4.08317 11.6667H9.9165C12.2498 11.6667 12.8332 11.0834 12.8332 8.75004C12.0282 8.75004 11.3748 8.09671 11.3748 7.29171Z" stroke="#656B76" stroke-width="1.5" stroke-linecap="round" stroke-linejoin="round"/>
<path d="M5.8335 2.33337L5.8335 11.6667" stroke="#656B76" stroke-linecap="round" stroke-linejoin="round" stroke-dasharray="5 5"/>
</svg>
