<svg width="116" height="24" viewBox="0 0 116 24" fill="none" xmlns="http://www.w3.org/2000/svg">
<path fill-rule="evenodd" clip-rule="evenodd" d="M54 4C52.8954 4 52 4.89543 52 6C52 7.10457 52.8954 8 54 8C55.1046 8 56 7.10457 56 6C56 4.89543 55.1046 4 54 4ZM50 6C50 3.79086 51.7909 2 54 2C56.2091 2 58 3.79086 58 6C58 8.20914 56.2091 10 54 10C51.7909 10 50 8.20914 50 6Z" fill="#242B3A"/>
<path fill-rule="evenodd" clip-rule="evenodd" d="M54 16C52.8954 16 52 16.8954 52 18C52 19.1046 52.8954 20 54 20C55.1046 20 56 19.1046 56 18C56 16.8954 55.1046 16 54 16ZM50 18C50 15.7909 51.7909 14 54 14C56.2091 14 58 15.7909 58 18C58 20.2091 56.2091 22 54 22C51.7909 22 50 20.2091 50 18Z" fill="#242B3A"/>
<path fill-rule="evenodd" clip-rule="evenodd" d="M68.7072 3.29289C69.0977 3.68342 69.0977 4.31658 68.7072 4.70711L56.8272 16.5871C56.4367 16.9776 55.8035 16.9776 55.413 16.5871C55.0225 16.1966 55.0225 15.5634 55.413 15.1729L67.293 3.29289C67.6835 2.90237 68.3167 2.90237 68.7072 3.29289Z" fill="#242B3A"/>
<path fill-rule="evenodd" clip-rule="evenodd" d="M61.7625 13.774C62.1526 13.3831 62.7858 13.3826 63.1767 13.7727L68.7067 19.2927C69.0976 19.6829 69.0981 20.3161 68.708 20.7069C68.3178 21.0978 67.6846 21.0984 67.2937 20.7082L61.7637 15.1882C61.3729 14.798 61.3723 14.1649 61.7625 13.774Z" fill="#242B3A"/>
<path fill-rule="evenodd" clip-rule="evenodd" d="M55.413 7.41301C55.8035 7.02249 56.4367 7.02249 56.8272 7.41301L60.7072 11.293C61.0977 11.6835 61.0977 12.3167 60.7072 12.7072C60.3167 13.0977 59.6835 13.0977 59.293 12.7072L55.413 8.82722C55.0225 8.4367 55.0225 7.80353 55.413 7.41301Z" fill="#242B3A"/>
<line y1="11.5" x2="33" y2="11.5" stroke="#242B3A"/>
<line x1="83" y1="11.5" x2="116" y2="11.5" stroke="#242B3A"/>
</svg>
