<svg width="116" height="25" viewBox="0 0 116 25" fill="none" xmlns="http://www.w3.org/2000/svg">
<path fill-rule="evenodd" clip-rule="evenodd" d="M54 4.19922C52.8954 4.19922 52 5.09465 52 6.19922C52 7.30379 52.8954 8.19922 54 8.19922C55.1046 8.19922 56 7.30379 56 6.19922C56 5.09465 55.1046 4.19922 54 4.19922ZM50 6.19922C50 3.99008 51.7909 2.19922 54 2.19922C56.2091 2.19922 58 3.99008 58 6.19922C58 8.40836 56.2091 10.1992 54 10.1992C51.7909 10.1992 50 8.40836 50 6.19922Z" fill="#E9EAEB"/>
<path fill-rule="evenodd" clip-rule="evenodd" d="M54 16.1992C52.8954 16.1992 52 17.0946 52 18.1992C52 19.3038 52.8954 20.1992 54 20.1992C55.1046 20.1992 56 19.3038 56 18.1992C56 17.0946 55.1046 16.1992 54 16.1992ZM50 18.1992C50 15.9901 51.7909 14.1992 54 14.1992C56.2091 14.1992 58 15.9901 58 18.1992C58 20.4084 56.2091 22.1992 54 22.1992C51.7909 22.1992 50 20.4084 50 18.1992Z" fill="#E9EAEB"/>
<path fill-rule="evenodd" clip-rule="evenodd" d="M68.7072 3.49211C69.0977 3.88264 69.0977 4.5158 68.7072 4.90633L56.8272 16.7863C56.4367 17.1769 55.8035 17.1769 55.413 16.7863C55.0225 16.3958 55.0225 15.7626 55.413 15.3721L67.293 3.49211C67.6835 3.10159 68.3167 3.10159 68.7072 3.49211Z" fill="#E9EAEB"/>
<path fill-rule="evenodd" clip-rule="evenodd" d="M61.7625 13.9727C62.1526 13.5819 62.7858 13.5813 63.1767 13.9715L68.7067 19.4915C69.0976 19.8816 69.0981 20.5148 68.708 20.9057C68.3178 21.2965 67.6846 21.2971 67.2937 20.9069L61.7637 15.3869C61.3729 14.9968 61.3723 14.3636 61.7625 13.9727Z" fill="#E9EAEB"/>
<path fill-rule="evenodd" clip-rule="evenodd" d="M55.413 7.61223C55.8035 7.2217 56.4367 7.2217 56.8272 7.61223L60.7072 11.4922C61.0977 11.8828 61.0977 12.5159 60.7072 12.9064C60.3167 13.297 59.6835 13.297 59.293 12.9064L55.413 9.02644C55.0225 8.63592 55.0225 8.00275 55.413 7.61223Z" fill="#E9EAEB"/>
<line y1="11.6992" x2="33" y2="11.6992" stroke="#E9EAEB"/>
<line x1="83" y1="11.6992" x2="116" y2="11.6992" stroke="#E9EAEB"/>
</svg>
