<svg width="16" height="16" viewBox="0 0 16 16" fill="none" xmlns="http://www.w3.org/2000/svg">
<path d="M7.99999 9.33301C7.82318 9.33301 7.65361 9.40324 7.52859 9.52827C7.40356 9.65329 7.33332 9.82286 7.33332 9.99967V11.333C7.33332 11.5098 7.40356 11.6794 7.52859 11.8044C7.65361 11.9294 7.82318 11.9997 7.99999 11.9997C8.1768 11.9997 8.34637 11.9294 8.4714 11.8044C8.59642 11.6794 8.66666 11.5098 8.66666 11.333V9.99967C8.66666 9.82286 8.59642 9.65329 8.4714 9.52827C8.34637 9.40324 8.1768 9.33301 7.99999 9.33301ZM8.25332 7.38634C8.13264 7.33038 7.99798 7.31181 7.86666 7.33301L7.74666 7.37301L7.62666 7.43301L7.52666 7.51301C7.46325 7.57688 7.41343 7.65292 7.38021 7.73656C7.34698 7.8202 7.33103 7.90971 7.33332 7.99967C7.33282 8.08741 7.34963 8.17439 7.38281 8.25561C7.41599 8.33684 7.46487 8.41071 7.52666 8.47301C7.59006 8.5337 7.66482 8.58128 7.74666 8.61301C7.82578 8.65033 7.91254 8.66859 7.99999 8.66634C8.08773 8.66685 8.1747 8.65003 8.25593 8.61685C8.33715 8.58368 8.41103 8.53479 8.47332 8.47301C8.53511 8.41071 8.58399 8.33684 8.61717 8.25561C8.65035 8.17439 8.66716 8.08741 8.66666 7.99967C8.66716 7.91194 8.65035 7.82496 8.61717 7.74374C8.58399 7.66251 8.53511 7.58863 8.47332 7.52634C8.40852 7.46745 8.33411 7.4201 8.25332 7.38634ZM13.3333 5.95967C13.3264 5.89843 13.313 5.83809 13.2933 5.77967V5.71967C13.2613 5.65113 13.2185 5.58812 13.1667 5.53301L9.16666 1.53301C9.11155 1.48115 9.04854 1.4384 8.97999 1.40634H8.91332C8.8485 1.37168 8.77883 1.34696 8.70666 1.33301H4.66666C4.13622 1.33301 3.62752 1.54372 3.25244 1.91879C2.87737 2.29387 2.66666 2.80257 2.66666 3.33301V12.6663C2.66666 13.1968 2.87737 13.7055 3.25244 14.0806C3.62752 14.4556 4.13622 14.6663 4.66666 14.6663H11.3333C11.8638 14.6663 12.3725 14.4556 12.7475 14.0806C13.1226 13.7055 13.3333 13.1968 13.3333 12.6663V5.99967C13.3333 5.99967 13.3333 5.99967 13.3333 5.95967ZM9.33332 3.60634L11.06 5.33301H9.99999C9.82318 5.33301 9.65361 5.26277 9.52859 5.13775C9.40356 5.01272 9.33332 4.84315 9.33332 4.66634V3.60634ZM12 12.6663C12 12.8432 11.9298 13.0127 11.8047 13.1377C11.6797 13.2628 11.5101 13.333 11.3333 13.333H4.66666C4.48985 13.333 4.32028 13.2628 4.19525 13.1377C4.07023 13.0127 3.99999 12.8432 3.99999 12.6663V3.33301C3.99999 3.1562 4.07023 2.98663 4.19525 2.8616C4.32028 2.73658 4.48985 2.66634 4.66666 2.66634H7.99999V4.66634C7.99999 5.19677 8.2107 5.70548 8.58578 6.08055C8.96085 6.45563 9.46956 6.66634 9.99999 6.66634H12V12.6663Z" fill="#333333"/>
</svg>
