<svg width="63" height="63" viewBox="0 0 63 63" fill="none" xmlns="http://www.w3.org/2000/svg">
<path d="M62.4887 27.158V26.5521C61.1041 26.3872 59.8718 26.4671 58.7571 27.2529C58.2834 27.5865 57.7348 27.8189 57.2099 28.0737C57.0637 28.1437 56.8612 28.1874 56.7113 28.1475C55.1779 27.7314 53.6482 27.3029 52.1235 26.8607C51.8973 26.7944 51.6986 26.6358 51.4874 26.5196C51.6224 26.3159 51.7186 26.0673 51.8986 25.9162C52.7447 25.2003 53.3958 24.3483 53.8669 23.3451C54.6367 21.706 54.603 19.9544 54.453 18.2341C54.1931 15.2282 52.6509 13.0557 49.8103 11.9375C49.008 11.6214 48.1057 11.5602 47.2096 11.3741C47.4596 10.7794 47.6983 10.116 48.0145 9.49261C48.2282 9.07158 48.1344 8.82922 47.8133 8.51564C46.3111 7.05143 44.8377 5.55725 43.3517 4.07555C43.2155 3.93938 43.0668 3.81445 42.9181 3.67827C41.9846 4.28544 41.0985 4.88137 40.1862 5.43731C40.005 5.54725 39.6963 5.58348 39.5001 5.50852C38.4678 5.11499 37.4506 4.68022 36.4333 4.24421C36.2833 4.1805 36.0759 4.05806 36.0484 3.92813C35.8022 2.79 35.591 1.64438 35.3685 0.5H27.6202C27.399 1.64438 27.1853 2.78875 26.9454 3.92813C26.9191 4.04932 26.7492 4.17425 26.618 4.23047C25.5644 4.68022 24.5097 5.12873 23.4412 5.53851C23.2649 5.60722 22.9775 5.54725 22.8063 5.44106C21.8828 4.87262 20.9805 4.2692 20.0369 3.65578C18.3335 5.3636 16.6502 7.04269 14.9868 8.74301C14.8793 8.85295 14.8643 9.14654 14.9243 9.3102C15.1892 10.0211 15.4967 10.7157 15.7504 11.3229C14.6994 11.5865 13.6371 11.7027 12.706 12.1149C10.0516 13.2893 8.64819 15.4131 8.51572 18.3091C8.45074 19.7108 8.377 21.1288 8.81316 22.5093C9.24556 23.876 10.0079 25.0029 11.1014 25.9237C11.2789 26.0736 11.3701 26.3259 11.5013 26.5308C11.3064 26.6395 11.1176 26.7645 10.9152 26.8532C9.44551 27.4978 8.12456 27.2992 6.84359 26.296C4.9915 24.8467 2.89322 24.1109 0.5 24.4645V45.1607C3.72428 46.2463 6.93732 47.362 10.1791 48.3914C10.7827 48.5838 11.5026 48.4739 12.1574 48.4027C12.3074 48.3864 12.4124 47.9554 12.5561 47.6831C13.3896 48.1803 14.2132 48.6863 15.0505 49.1648C15.3517 49.3359 15.5042 49.5346 15.5717 49.8944C15.7916 51.0762 16.4915 51.887 17.6349 52.2881C17.9149 52.3855 18.2123 52.4317 18.4873 52.4979C18.7972 54.2332 19.5058 54.9828 21.2067 55.4413C21.3479 55.4801 21.5166 55.6725 21.5466 55.8186C21.8378 57.2354 22.6713 58.1099 24.0898 58.3872C24.4384 58.456 24.5284 58.6246 24.5884 58.9394C24.9146 60.6548 26.5605 61.8629 28.2114 61.3419C29.2149 61.0246 29.7635 61.2819 30.5058 61.8554C32.3504 63.2821 34.9836 62.2102 35.4422 59.9227C35.4735 59.7702 35.506 59.6178 35.536 59.4791C37.2294 59.2368 38.0667 58.4547 38.4603 56.8356C38.5003 56.6694 38.7378 56.4658 38.9127 56.4333C40.2087 56.1884 41.2285 55.2377 41.4134 53.9734C41.4722 53.5736 41.6184 53.4487 42.0045 53.3837C43.3417 53.1626 44.3865 52.0195 44.4403 50.6814C44.4602 50.193 44.6727 49.9906 45.0664 49.7944C50.6951 46.9959 56.3139 44.1787 61.9464 41.3865C62.3713 41.1754 62.5025 40.9367 62.5 40.4707C62.48 36.0332 62.4887 31.5956 62.4887 27.158ZM47.5646 13.4992C49.5604 13.5054 51.5874 15.0258 52.1798 16.9923C52.6309 18.489 52.5959 20.0269 52.3435 21.541C52.0973 23.0152 51.2063 24.0984 49.9215 24.8405C49.6004 25.0267 49.4754 25.2365 49.4904 25.6063C49.5191 26.3309 49.5179 27.058 49.4941 27.7826C49.4829 28.1487 49.5954 28.3061 49.969 28.3923C51.4162 28.7284 52.8521 29.1069 54.4768 29.5155C50.7551 31.4756 47.1759 33.3609 43.4917 35.3011C43.448 33.086 43.8254 30.8972 42.0445 29.1369C43.1293 28.8608 44.0928 28.596 45.0651 28.3773C45.4188 28.2986 45.5175 28.1387 45.5088 27.8014C45.4888 27.0555 45.5313 26.3072 45.4863 25.5639C45.4713 25.334 45.3151 25.0229 45.1264 24.908C43.323 23.8161 42.4332 22.2332 42.5082 20.1343C42.5457 19.0936 42.5169 18.018 42.7719 17.0235C43.3143 14.8947 45.3301 13.4917 47.5646 13.4992ZM41.5072 35.9482C41.5134 36.348 41.3509 36.5104 40.9698 36.4679C40.7111 36.4379 40.4486 36.4167 40.1999 36.348C38.4153 35.8495 36.6357 35.3335 34.8511 34.8376C32.5291 34.1917 30.1997 33.567 27.8777 32.9211C25.9719 32.3914 24.056 32.4039 22.129 32.7699C21.9902 32.7974 21.8515 32.8212 21.7103 32.8336C21.6578 32.8386 21.6003 32.8099 21.5491 32.7974C21.4316 31.3045 22.3152 30.0826 23.8411 29.6804C25.457 29.2544 27.0741 28.8258 28.7087 28.481C29.3686 28.3423 29.5586 28.0675 29.5023 27.4353C29.4461 26.8144 29.5223 26.1835 29.4723 25.5626C29.4548 25.329 29.3036 25.0154 29.1149 24.8992C27.3128 23.8036 26.433 22.2144 26.5142 20.1156C26.5542 19.0749 26.513 17.9942 26.7854 17.0073C27.3253 15.0421 28.7475 13.8827 30.7483 13.5791C32.9066 13.2518 34.6024 14.1413 35.6884 15.9891C36.1196 16.7224 36.3221 17.6394 36.4345 18.4977C36.5545 19.4072 36.5345 20.3604 36.4095 21.2712C36.1983 22.8129 35.351 24.0035 34.0038 24.788C33.5902 25.0292 33.4589 25.2953 33.4852 25.7488C33.5214 26.4121 33.5164 27.0793 33.4914 27.7439C33.4764 28.1312 33.5952 28.3049 33.9951 28.3998C35.6797 28.7958 37.3581 29.2244 39.0352 29.6566C40.6024 30.0614 41.4359 31.0696 41.4922 32.6825C41.5297 33.7694 41.4897 34.86 41.5072 35.9482ZM39.86 27.6115C39.7238 27.6452 39.5726 27.7127 39.4489 27.6827C38.1954 27.3829 36.9319 27.1143 35.7034 26.732C35.2398 26.5871 35.4835 26.2335 35.7684 26.0099C36.7407 25.2478 37.5005 24.312 37.9392 23.1577C38.9527 20.4891 38.9452 15.7042 36.0721 13.2805C33.9038 11.4528 31.4706 10.9556 28.8562 12.035C26.1581 13.1494 24.7246 15.2757 24.5034 18.1941C24.4722 18.6151 24.4997 19.0412 24.4997 19.4622C24.3834 21.4399 24.7634 23.2826 26.0506 24.8467C26.4068 25.2778 26.8604 25.6276 27.2466 26.0373C27.3678 26.1673 27.4753 26.3709 27.4678 26.5358C27.464 26.6295 27.2278 26.757 27.0779 26.7957C25.9868 27.083 24.8921 27.3529 23.7973 27.6227C23.6649 27.6565 23.5136 27.6989 23.3874 27.669C22.1739 27.3766 20.9605 27.0805 19.7545 26.7582C19.3796 26.6583 19.3946 26.3097 19.7857 26.0011C20.6555 25.314 21.3754 24.4944 21.799 23.4725C22.8275 21.0013 22.7651 18.4877 21.9302 15.9803C21.8053 15.6068 21.7828 15.3344 22.0002 14.9809C24.1685 11.4553 27.3403 9.54383 31.4456 9.52883C35.656 9.51259 38.8852 11.4803 41.0448 15.117C41.1547 15.3032 41.0735 15.6418 41.0048 15.8879C40.2037 18.7288 40.0512 21.536 41.5984 24.1859C41.9933 24.8642 42.6594 25.3815 43.1855 25.9874C43.3167 26.1385 43.4517 26.3434 43.4542 26.5258C43.4567 26.6208 43.1893 26.7682 43.0218 26.8119C41.9708 27.0918 40.9148 27.3491 39.86 27.6115ZM17.4075 9.14904C18.2698 8.24578 19.1559 7.36127 20.0632 6.50173C20.1769 6.39304 20.5093 6.37555 20.6555 6.46175C21.3666 6.88028 22.0577 7.33628 22.7388 7.80352C23.0025 7.98343 23.2037 8.02216 23.4936 7.83726C24.9321 6.92026 26.4917 6.27561 28.1539 5.89456C28.5 5.81461 28.6575 5.66469 28.7187 5.31238C28.8537 4.53905 29.0512 3.77822 29.1911 3.00614C29.2561 2.65258 29.3836 2.48892 29.776 2.49641C30.9258 2.5214 32.0755 2.5164 33.2252 2.49891C33.5727 2.49267 33.7289 2.6101 33.7914 2.95491C33.9363 3.74698 34.0888 4.53905 34.2975 5.31613C34.355 5.52851 34.5899 5.79837 34.7924 5.85209C36.462 6.28935 38.0354 6.934 39.5163 7.82101C39.6863 7.92221 40.0237 7.91471 40.1962 7.81102C41.0235 7.31754 41.8221 6.77408 42.6606 6.22813C43.6842 7.24633 44.6865 8.23454 45.6712 9.23899C45.7562 9.3252 45.7425 9.52259 45.7475 9.66876C45.75 9.74122 45.6875 9.81493 45.6562 9.88989C44.7539 12.0712 44.7539 12.0712 42.4769 13.5217C39.8088 9.67875 36.1646 7.51618 31.4431 7.53367C26.7429 7.55241 23.1225 9.72123 20.5018 13.5491C19.777 13.0707 19.1046 12.6346 18.4423 12.1824C18.3185 12.0987 18.2061 11.9638 18.1461 11.8263C17.8437 11.1455 17.54 10.4646 17.2875 9.76496C17.225 9.5913 17.2825 9.28022 17.4075 9.14904ZM13.0747 28.3748C13.4021 28.3086 13.4984 28.1612 13.4921 27.8451C13.4759 27.0605 13.5121 26.2722 13.4696 25.4889C13.4584 25.2803 13.2884 25.0029 13.1085 24.893C11.3326 23.8098 10.4503 22.2407 10.5153 20.1668C10.549 19.1261 10.509 18.0479 10.7652 17.056C11.3226 14.8959 13.2609 13.5329 15.5367 13.5017C17.4925 13.4729 19.5008 14.9309 20.1481 16.9036C20.6755 18.5127 20.6418 20.1755 20.2944 21.7984C20.0032 23.1552 19.1246 24.1696 17.9086 24.853C17.585 25.0354 17.4625 25.2503 17.4787 25.6201C17.5087 26.3035 17.5262 26.9918 17.4787 27.674C17.4437 28.1724 17.6612 28.3324 18.0961 28.4285C19.0121 28.6297 19.9169 28.8758 20.8405 29.1057C20.5031 29.6679 20.0994 30.1476 19.9144 30.7011C19.6832 31.3957 19.602 32.1478 19.5158 32.8811C19.4783 33.2022 19.4433 33.3821 19.0721 33.4483C18.2073 33.6057 17.3525 33.8219 16.484 34.0155C16.484 33.4483 16.4577 32.9261 16.4927 32.4089C16.5189 32.0366 16.389 31.8329 16.0665 31.6493C14.4944 30.7535 12.936 29.8315 11.2489 28.8471C11.9375 28.6647 12.4998 28.4898 13.0747 28.3748ZM2.83573 43.8751C2.43832 43.7502 2.5083 43.4741 2.5083 43.2055C2.50456 41.0892 2.5058 38.9741 2.5058 36.8577V26.4509C2.88947 26.5283 3.24689 26.5158 3.51058 26.667C5.75009 27.9438 7.97084 29.2494 10.1978 30.5486C10.2653 30.5886 10.3228 30.6448 10.4116 30.7136C9.20682 35.5284 8.00334 40.3408 6.7911 45.1869C5.42891 44.7322 4.13794 44.2849 2.83573 43.8751ZM12.0524 41.895C11.6213 43.4029 11.1926 44.9108 10.739 46.5012C10.0316 46.2638 9.38803 46.0502 8.69318 45.8178C9.86917 41.1216 11.0339 36.4679 12.2174 31.7342C12.9672 32.169 13.6621 32.5313 14.2994 32.9748C14.4369 33.0698 14.4519 33.4808 14.3882 33.7094C13.6246 36.4417 12.8348 39.1677 12.0524 41.895ZM19.2021 50.2579C18.7859 50.6227 18.2073 50.5078 17.8337 50.128C17.4712 49.7594 17.3638 49.1473 17.7162 48.7525C18.3573 48.0329 19.0596 47.367 19.7595 46.7036C19.9069 46.5637 20.1556 46.5324 20.4781 46.4038C20.7443 46.6037 21.1579 46.7661 21.2891 47.0559C21.4316 47.3707 21.4666 47.9317 21.2766 48.1628C20.6555 48.9211 19.9407 49.6108 19.2021 50.2579ZM22.4989 53.0464C21.9465 53.5711 21.2941 53.5899 20.8342 53.1276C20.3868 52.6779 20.3881 52.0419 20.8892 51.506C21.4391 50.9176 22.0152 50.3529 22.6013 49.8007C22.9538 49.4683 23.4249 49.3534 23.8261 49.612C24.1448 49.8182 24.3497 50.2004 24.6284 50.5315C24.3972 50.9276 24.281 51.2336 24.0748 51.4585C23.5724 52.0095 23.04 52.5329 22.4989 53.0464ZM25.5157 56.0335C24.9721 56.552 24.2985 56.5845 23.8448 56.1397C23.3737 55.6787 23.3899 55.0303 23.9211 54.4731C24.4634 53.9059 24.9858 53.3025 25.6069 52.834C25.9069 52.6079 26.4592 52.5129 26.8117 52.6254C27.1353 52.7278 27.344 53.1901 27.6302 53.5261C27.3953 53.9234 27.2666 54.247 27.0479 54.4894C26.5617 55.0266 26.0393 55.5325 25.5157 56.0335ZM30.3309 57.0892C29.6598 57.8838 28.8825 58.5896 28.1289 59.3117C28.0139 59.4229 27.7952 59.4242 27.4628 59.5266C27.2228 59.3305 26.8154 59.1443 26.6692 58.8345C26.5317 58.5434 26.528 58.0012 26.7142 57.7788C27.3428 57.0267 28.0551 56.3346 28.7912 55.685C29.2024 55.3227 29.7135 55.4239 30.1134 55.7849C30.5158 56.1497 30.6683 56.6894 30.3309 57.0892ZM33.4252 59.5766C33.3665 59.8839 33.039 60.2662 32.7441 60.3787C31.918 60.6922 31.4131 60.0838 30.8795 59.5716C31.3469 59.0231 31.7956 58.4959 32.2829 57.9237C32.7478 58.4222 33.5989 58.6746 33.4252 59.5766ZM42.2195 51.0912C41.7921 51.5922 41.0073 51.5934 40.3774 51.0712C38.9002 49.8506 37.4318 48.6201 35.9596 47.3945C35.6984 47.1771 35.436 46.9635 35.1336 46.7148C34.7024 47.2308 34.2938 47.7206 33.8576 48.2415C35.5172 49.627 37.1419 50.9825 38.7653 52.3393C38.859 52.4167 38.9577 52.4867 39.0452 52.5704C39.5101 53.0139 39.6063 53.5249 39.3126 53.9796C39.0152 54.4419 38.3454 54.6243 37.8055 54.3532C37.558 54.2283 37.3393 54.0384 37.1231 53.8597C35.4785 52.4954 33.8376 51.1262 32.143 49.7157C31.7193 50.2167 31.3094 50.7014 30.8583 51.2349C31.4469 51.7296 32.0105 52.2069 32.5766 52.6791C33.6764 53.5961 34.7799 54.5081 35.8759 55.4301C36.4983 55.9523 36.6395 56.5045 36.3008 56.9992C35.9384 57.524 35.2061 57.6664 34.5874 57.1729C33.6177 56.3983 32.6891 55.5638 31.8206 54.678C31.1694 54.0134 30.4484 53.5824 29.5061 53.4687C29.2586 51.8158 28.3838 50.8264 26.7779 50.5015C26.6405 50.474 26.468 50.2679 26.438 50.1192C26.1531 48.6975 25.3057 47.8605 23.8986 47.5331C23.7123 47.4907 23.4774 47.2446 23.4337 47.0547C22.8613 44.5598 20.1381 43.654 18.2248 45.3568C17.49 46.0115 16.8114 46.7298 16.0715 47.4532C15.1842 46.921 14.2644 46.385 13.3671 45.8128C13.2409 45.7329 13.1397 45.4455 13.1809 45.2956C13.9895 42.3872 14.8156 39.4825 15.6616 36.5841C15.7141 36.4055 15.9516 36.1968 16.1378 36.1556C18.6347 35.6034 21.1254 35.0012 23.6449 34.5715C25.5407 34.2491 27.384 34.7264 29.2811 35.4547C28.9762 35.6134 28.7712 35.7246 28.5625 35.8295C27.1053 36.5629 25.6294 37.2625 24.196 38.0383C22.8963 38.7417 22.3352 40.0572 22.5451 41.6451C22.7138 42.9294 23.7186 44.0376 25.0571 44.3649C25.9556 44.5848 26.8167 44.4511 27.6165 43.9676C28.7387 43.2917 29.8622 42.6183 30.9882 41.9487C32.1255 41.2741 32.9778 41.359 33.9563 42.2398C36.597 44.6135 39.2364 46.9872 41.8746 49.3622C42.5444 49.9643 42.6631 50.5727 42.2195 51.0912ZM59.9156 40.1597C54.6667 42.7657 49.4229 45.3856 44.1878 48.0229C43.7766 48.229 43.5405 48.1915 43.2043 47.8855C40.5799 45.498 37.9367 43.1293 35.2935 40.7593C33.5889 39.2314 31.9043 39.0753 29.9322 40.2521C28.8587 40.8918 27.7927 41.5414 26.7154 42.1748C25.8956 42.6558 25.077 42.4834 24.6784 41.7663C24.256 41.0055 24.5347 40.0972 25.3607 39.6749C27.1553 38.7592 28.9562 37.8584 30.762 36.9664C31.8818 36.4155 33.0453 36.3792 34.2363 36.7278C35.9559 37.23 37.6792 37.7235 39.4039 38.2082C39.7888 38.3169 40.1862 38.3944 40.5824 38.4556C41.3234 38.5693 41.9795 38.3769 42.6531 38.0196C48.3444 34.995 54.0544 32.0029 59.7581 29.002C59.9668 28.892 60.178 28.7909 60.4829 28.6372V29.3306C60.4829 32.6375 60.4717 35.9445 60.4954 39.2514C60.4992 39.7324 60.3317 39.9535 59.9156 40.1597Z" fill="#FF008A"/>
</svg>
