<svg width="48" height="48" viewBox="0 0 48 48" fill="none" xmlns="http://www.w3.org/2000/svg">
<g clip-path="url(#clip0_15707_78029)">
<path d="M9.71415 31.4287L12.5713 32.0001V36.5716L11.9999 37.7144L8.57129 33.7144L9.71415 31.4287Z" fill="#FF008A"/>
<path d="M21.1426 2.28613H17.714L17.1426 9.7147L19.9997 10.8576L21.1426 9.14328V2.28613Z" fill="#FF008A"/>
<path d="M28.8258 16L26.2861 18.449L29.4607 21.7143L32.0004 18.449L28.8258 16Z" fill="#FF008A"/>
<path d="M11.429 15.4287L2.28613 18.2859L4.57185 20.5716L13.7147 20.0001V16.5716L11.429 15.4287Z" fill="#FF008A"/>
<path d="M8.85938 0.168552C8.44688 0.365429 8.08125 0.684177 7.8375 1.0498C7.6875 1.28418 7.67813 1.28418 7.28438 1.15293C6.99375 1.0498 6.59063 1.02168 5.76562 1.0498C4.50938 1.0873 4.15313 1.20918 3.59063 1.7998C3.0375 2.38105 2.97188 2.6623 2.925 4.75293L2.8875 6.64668L2.4375 6.9373C1.875 7.29355 1.11563 8.0998 0.8625 8.5873C0.478125 9.3373 0.375 9.91855 0.375 11.2498C0.375 12.4217 0.39375 12.5436 0.5625 12.7029C0.834375 12.9467 1.35938 12.9373 1.62188 12.6748C1.80938 12.4873 1.8375 12.3467 1.875 11.1748C1.9125 10.2936 1.97813 9.7873 2.08125 9.54355C2.30625 9.04668 2.9625 8.3623 3.51563 8.08105L3.98438 7.82793L7.15313 7.7998C9.47813 7.78105 10.3688 7.7998 10.4625 7.88418C10.5469 7.95918 10.5938 8.19355 10.5938 8.61543C10.5938 9.42168 10.2844 10.0779 9.73125 10.4623L9.34688 10.7342L7.28438 10.7811C4.69688 10.8373 4.875 10.6967 4.875 12.6561C4.875 14.6248 4.65938 14.4748 7.47188 14.5311L9.70312 14.5779L10.4062 14.9154C12.0844 15.7217 12.8719 16.9779 13.0031 19.0029L13.0594 19.9686H9.31875C5.24063 19.9686 4.65938 19.9123 3.87188 19.4529C3.0375 18.9561 2.4 18.2342 2.09063 17.4186C2.00625 17.1936 1.9125 16.5748 1.88438 16.0404C1.82812 15.1779 1.79063 15.0467 1.60313 14.8967C1.3125 14.6623 0.796875 14.6717 0.5625 14.9061C0.403125 15.0654 0.375 15.2154 0.375 15.9373C0.375 17.0061 0.496875 17.5967 0.909375 18.4686C1.65 20.0248 3.60938 21.3748 5.12813 21.3748H5.4375V33.7123C5.4375 42.3936 5.46563 46.1623 5.54063 46.4529C5.6625 46.9498 6.16875 47.5686 6.66563 47.8123C7.0125 47.9904 7.24688 47.9998 12.9375 47.9998C18.5813 47.9998 18.8625 47.9904 19.2 47.8217C19.3969 47.7186 19.6969 47.5029 19.8563 47.3342C20.4375 46.7342 20.4375 46.7529 20.4375 39.7311V33.3748H20.8969H21.3563L21.3938 33.9186C21.4219 34.2842 21.4969 34.5654 21.6375 34.7623C21.7688 34.9498 22.7344 35.6061 24.2531 36.5623L26.6625 38.0623H32.7656C36.9 38.0623 38.9813 38.0248 39.2344 37.9592C39.4688 37.8936 39.7594 37.7061 39.9938 37.4529C40.3688 37.0686 40.3969 37.0592 41.0813 37.0123C42.3 36.9373 43.0125 36.3467 43.2281 35.2311C43.3125 34.7998 43.3781 34.6873 43.5094 34.6873C43.6781 34.6873 43.6875 34.8936 43.6875 40.9217C43.6875 47.6811 43.6781 47.5029 44.1938 47.8498C44.5406 48.0748 46.7719 48.0748 47.1188 47.8498C47.6438 47.5029 47.625 47.7654 47.625 40.0217C47.625 34.9873 47.5969 32.7748 47.5219 32.5311C47.3531 31.9779 46.7906 31.3123 46.2188 30.9936C45.7313 30.7217 45.6375 30.7029 44.5125 30.6748L43.3313 30.6373L43.2656 30.2061C43.1813 29.6342 42.9281 29.1467 42.5438 28.8279C42.0844 28.4436 41.7 28.3123 40.9969 28.3123C40.3688 28.3123 40.3594 28.3029 40.1438 27.9748C39.75 27.3654 39.4125 27.2811 37.1906 27.2811C35.2406 27.2811 35.2406 27.2811 35.0156 27.5154C34.7063 27.8154 34.7063 28.2467 35.0156 28.5467C35.2406 28.7811 35.25 28.7811 37.0594 28.7811C38.6438 28.7811 38.8969 28.7998 38.9438 28.9311C38.9719 29.0154 39 30.7123 39 32.7092C39 35.4092 38.9719 36.3654 38.8875 36.4498C38.8031 36.5342 37.4062 36.5623 33.1688 36.5623H27.5625V32.6717V28.7811H30.0469H32.5406L32.7656 28.5467C33.075 28.2467 33.075 27.8154 32.7656 27.5154L32.5406 27.2811H29.5688H26.6063L24.2906 28.7248C23.025 29.5217 21.8906 30.2717 21.7781 30.3936C21.5063 30.6748 21.375 31.0498 21.375 31.5092V31.8748H20.9062H20.4375V26.1467V20.4186L21.0469 19.7623C21.3844 19.3967 21.7781 18.8436 21.9375 18.5248C22.4906 17.3811 22.5 17.3154 22.5 11.7561V6.66543L22.2563 6.47793C22.1156 6.36543 21.9094 6.28105 21.7875 6.28105C21.1594 6.28105 21 6.61855 21 7.96855C21 9.14043 20.9156 9.40293 20.3906 9.80605C19.6688 10.3498 18.6469 10.1061 18.2156 9.28105C18 8.8873 18 8.82168 18 5.99043V3.09355L18.2719 2.79355C18.5344 2.49355 18.5813 2.48418 19.3594 2.44668C20.5875 2.3998 21 2.65293 21 3.4498C21 4.36855 21.6281 4.7998 22.2563 4.30293C22.4813 4.1248 22.5 4.0498 22.5 3.43105C22.5 2.24043 21.8813 1.37793 20.8219 1.05918C20.2219 0.890427 18.375 0.918552 18.0188 1.11543C17.8219 1.21855 17.775 1.1998 17.4094 0.787304C16.8094 0.112305 16.4906 -0.000198364 15.0188 -0.000198364C13.7531 -0.000198364 13.3031 0.0935516 12.9281 0.431053C12.7781 0.562302 12.7313 0.552929 12.3656 0.309177C11.9813 0.0560532 11.925 0.0466766 10.6031 0.0185547C9.42188 -0.000198364 9.17813 0.0185547 8.85938 0.168552ZM11.5781 1.63105C11.7094 1.71543 11.8594 1.89355 11.9062 2.0248C11.9625 2.15605 12 3.4123 12 4.80918V7.35918L11.7656 7.0123C11.4094 6.47793 10.8844 6.28105 9.8625 6.28105H9V4.13418V1.99668L9.24375 1.75293C9.54375 1.45293 9.7125 1.41543 10.6125 1.44355C11.1 1.4623 11.4094 1.51855 11.5781 1.63105ZM16.2375 1.7623L16.5 2.0623V5.5498V9.02793L16.2656 9.43105C15.6656 10.4529 14.2219 10.4154 13.6875 9.36543C13.5094 9.02793 13.5 8.80293 13.5 5.54043V2.08105L13.7344 1.79043C14.025 1.45293 14.175 1.41543 15.1781 1.44355C15.9375 1.4623 15.975 1.48105 16.2375 1.7623ZM7.14375 2.80293L7.45313 3.0748L7.48125 4.67793L7.50938 6.28105H5.9625H4.40625V4.94043C4.40625 2.74668 4.54688 2.53105 5.9625 2.53105C6.79688 2.53105 6.85313 2.54043 7.14375 2.80293ZM13.8469 11.4561C14.1844 11.6061 14.475 11.6623 15 11.6623C15.7781 11.6623 16.3406 11.4654 16.95 10.9779L17.2969 10.7061L17.5312 10.8936C18.3563 11.5592 19.5188 11.7842 20.4656 11.4561L21.0094 11.2779L20.9813 14.1467L20.9531 17.0248L20.6063 17.7373C20.0438 18.8529 19.1344 19.5748 17.9438 19.8279C17.55 19.9123 16.7625 19.9686 15.9281 19.9686H14.5594L14.5031 18.9092C14.4281 17.6717 14.2875 17.0717 13.8188 16.1342C13.3875 15.2623 12.3938 14.2311 11.5219 13.7529C10.5188 13.1904 9.70312 13.0311 7.90313 13.0311H6.375V12.6654V12.2998L7.99688 12.2623C9.525 12.2342 9.6375 12.2248 10.125 11.9811C10.4062 11.8404 10.8469 11.6811 11.0906 11.6248C11.6438 11.5029 12.15 11.2498 12.4688 10.9404L12.7031 10.7154L13.05 10.9873C13.2375 11.1279 13.5938 11.3436 13.8469 11.4561ZM18.9375 23.8498V26.5029L18.45 26.5498C17.8875 26.6061 17.625 26.8498 17.625 27.3186C17.625 27.7873 17.9156 28.0311 18.4688 28.0311H18.9375V29.9529C18.9375 31.5654 18.9188 31.8748 18.8063 31.8748C18.7313 31.8748 18.5531 31.9779 18.4125 32.0998C17.925 32.5123 18.1594 33.3748 18.7594 33.3748C18.9281 33.3748 18.9375 33.5154 18.9375 37.2467V41.1186L18.2906 41.7561C17.9344 42.1123 17.6156 42.5061 17.5781 42.6373C17.4094 43.3029 18.1781 43.8373 18.7313 43.4436L18.9375 43.3029V44.6623C18.9375 45.9654 18.9281 46.0311 18.7125 46.2842L18.4875 46.5467H12.9375H7.3875L7.1625 46.2842C6.94688 46.0311 6.9375 45.9654 6.9375 44.5967V43.1717L7.59375 42.5154C8.34375 41.7654 8.46563 41.4373 8.16563 41.0436C7.9125 40.7248 7.56563 40.6404 7.20938 40.8186L6.9375 40.9498V34.4904V28.0311H7.40625C7.97813 28.0311 8.25 27.8061 8.25 27.3373C8.25 26.8498 7.99688 26.6061 7.425 26.5498L6.9375 26.5029V23.9904V21.4779L12.5438 21.4404C16.2656 21.4217 18.2344 21.3748 18.4219 21.3092C18.9656 21.1123 18.9375 20.9717 18.9375 23.8498ZM26.0625 32.6623V35.8967L24.4688 34.9029L22.8656 33.8998L22.8938 32.6342L22.9219 31.3779L24.4688 30.4123C25.3219 29.8779 26.025 29.4373 26.0438 29.4373C26.0531 29.4373 26.0625 30.8904 26.0625 32.6623ZM41.5406 29.9904C41.7656 30.1686 41.7656 30.1873 41.7938 32.4467C41.8125 33.7029 41.8031 34.8279 41.7656 34.9404C41.6813 35.3061 41.3438 35.5311 40.9031 35.5311H40.5V32.6717V29.8123H40.9125C41.175 29.8123 41.4 29.8779 41.5406 29.9904ZM45.4219 32.2873C45.6 32.3623 45.8344 32.5686 45.9375 32.7373C46.1156 33.0373 46.125 33.1873 46.125 39.8154V46.5936H45.6562H45.1875L45.1688 40.0873C45.1406 32.4748 45.2531 33.1873 44.0438 33.1873H43.3125V32.6717V32.1561H44.2031C44.775 32.1561 45.2156 32.2029 45.4219 32.2873Z" fill="#282B8B"/>
<path d="M9.98362 26.6156C9.67424 26.7469 9.52424 26.9906 9.53362 27.3562C9.55237 27.9187 9.78674 28.0312 10.9305 28.0312C12.0742 28.0312 12.2805 27.9187 12.2805 27.3C12.2805 26.7187 12.0555 26.5781 11.0242 26.5594C10.5555 26.5406 10.0867 26.5687 9.98362 26.6156Z" fill="#282B8B"/>
<path d="M14.0621 26.5969C13.5652 26.7937 13.4152 27.4781 13.7808 27.8438C13.9402 28.0031 14.0902 28.0312 14.9433 28.0312C16.1058 28.0312 16.3496 27.9094 16.3496 27.3375C16.3496 26.7375 16.0871 26.5781 15.0652 26.5594C14.5965 26.55 14.1371 26.5594 14.0621 26.5969Z" fill="#282B8B"/>
<path d="M9.87195 30.4595C9.24382 30.6752 8.7657 31.0408 8.4282 31.5845C8.0532 32.1658 7.9407 32.6439 7.98757 33.3752C8.06257 34.3877 8.28757 34.6877 10.5657 36.9564C13.0313 39.4127 12.8626 39.347 13.9219 38.3158C14.7469 37.5283 14.8688 37.2189 14.5126 36.8064C14.3626 36.6283 14.2032 36.5533 13.9969 36.5439L13.6876 36.5345V34.547V32.5689L14.0157 32.2502C14.2501 32.0252 14.3438 31.847 14.3438 31.6408C14.3438 31.022 13.7813 30.6939 13.2188 30.9845C12.9376 31.1252 12.9188 31.1252 12.5251 30.8439C11.7563 30.2908 10.7719 30.1408 9.87195 30.4595ZM11.4376 31.9783C12.2251 32.447 12.1876 32.3345 12.1876 34.4908V36.422L10.9594 35.2033C10.2844 34.5283 9.67507 33.8627 9.5907 33.7127C9.41257 33.3658 9.4782 32.7002 9.72195 32.3533C9.94695 32.0439 10.4626 31.7814 10.8282 31.7814C10.9876 31.7814 11.2594 31.8752 11.4376 31.9783Z" fill="#282B8B"/>
<path d="M14.8867 30.4682C14.5961 30.6932 14.5211 31.0213 14.6711 31.3776C14.7648 31.6026 14.9054 31.6869 15.4117 31.8557C16.2461 32.1276 16.5273 32.1182 16.7711 31.8182C17.0429 31.4713 17.0148 31.1619 16.7054 30.8432C16.4617 30.5994 15.6461 30.2807 15.2804 30.2807C15.1867 30.2807 15.0086 30.3651 14.8867 30.4682Z" fill="#282B8B"/>
<path d="M16.6505 32.3715C16.4817 32.5402 16.4255 32.7277 16.3786 33.2715C16.313 34.059 16.4067 34.3496 16.7911 34.4996C17.438 34.7715 17.9067 34.2277 17.9067 33.2246C17.9067 32.784 17.8599 32.5871 17.7099 32.3996C17.4567 32.0809 16.9599 32.0621 16.6505 32.3715Z" fill="#282B8B"/>
<path d="M15.6094 34.5844C15.5063 34.6312 15.225 34.875 14.9813 35.1375C14.625 35.5125 14.5312 35.6812 14.5312 35.9344C14.5312 36.3562 14.85 36.6562 15.3 36.6562C15.5813 36.6562 15.7031 36.5719 16.1531 36.1031C16.4531 35.7937 16.6875 35.4656 16.6875 35.3719C16.6875 35.0062 16.5563 34.7719 16.3031 34.6406C16.0125 34.4812 15.8813 34.4719 15.6094 34.5844Z" fill="#282B8B"/>
<path d="M10.2656 40.8182C10.1156 40.8839 9.65625 41.287 9.2625 41.6995C8.59688 42.3839 8.53125 42.4776 8.53125 42.8245C8.53125 43.1245 8.5875 43.2464 8.775 43.3964C9.225 43.7526 9.42188 43.6682 10.3781 42.7307C10.8563 42.2526 11.2781 41.7651 11.3063 41.6526C11.4094 41.2682 11.2688 40.9682 10.9219 40.8182C10.5469 40.6682 10.6125 40.6682 10.2656 40.8182Z" fill="#282B8B"/>
<path d="M13.4062 40.7528C13.3312 40.7809 12.8719 41.184 12.4031 41.6528C11.6531 42.3934 11.5312 42.5528 11.5312 42.8247C11.5312 43.0309 11.6062 43.209 11.7656 43.359C12.2062 43.809 12.5812 43.6403 13.6219 42.5809C14.2406 41.934 14.3437 41.784 14.3437 41.5028C14.3437 40.9778 13.8562 40.584 13.4062 40.7528Z" fill="#282B8B"/>
<path d="M16.3594 40.7714C16.2562 40.8183 15.8062 41.2308 15.3562 41.6996C14.6906 42.3746 14.5312 42.5902 14.5312 42.8246C14.5312 43.2089 14.7937 43.4902 15.2156 43.5652C15.5531 43.6214 15.5906 43.5933 16.4625 42.7308C17.2875 41.9246 17.3625 41.8214 17.3625 41.4933C17.3625 40.9402 16.8469 40.5652 16.3594 40.7714Z" fill="#282B8B"/>
<path d="M28.1719 15.4594C27.9938 15.5719 27.7406 15.9187 27.4781 16.425L27.0563 17.2219L26.2313 17.6625C25.3313 18.1406 25.125 18.3937 25.125 18.9937C25.125 19.425 25.4906 19.7906 26.4 20.2687C27.0281 20.5969 27.075 20.6437 27.4688 21.375C27.9656 22.2937 28.2 22.5 28.7344 22.5C29.2781 22.5 29.5219 22.275 30.0375 21.3469C30.45 20.5969 30.4781 20.5687 31.2094 20.175C32.1188 19.6875 32.3438 19.4344 32.3438 18.8906C32.3438 18.3562 32.175 18.1781 31.2281 17.6437C30.4594 17.2125 30.4313 17.1844 29.9906 16.4062C29.3813 15.3094 28.8563 15.0375 28.1719 15.4594ZM29.0531 17.8594C29.2781 18.2625 29.4469 18.4219 29.8219 18.6094C30.0844 18.75 30.2719 18.8812 30.2438 18.9094C30.2156 18.9375 29.9906 19.0969 29.7469 19.2562C29.4844 19.4344 29.1938 19.7344 29.0156 20.0344L28.725 20.5125L28.4719 20.025C28.275 19.6594 28.0969 19.4719 27.6938 19.2281L27.1688 18.9094L27.4781 18.7219C27.6562 18.6187 27.8906 18.4781 28.0031 18.4031C28.125 18.3375 28.3219 18.0656 28.4531 17.8125C28.5844 17.55 28.7063 17.3438 28.725 17.3438C28.7438 17.3438 28.8938 17.5781 29.0531 17.8594Z" fill="#282B8B"/>
<path d="M23.8125 22.0307C23.6625 22.1807 23.625 22.34 23.625 22.9119C23.625 23.5588 23.6438 23.6244 23.8688 23.8025C24.1969 24.065 24.4969 24.0463 24.8156 23.7744C25.0594 23.5682 25.0781 23.4932 25.0781 22.8744C25.0781 22.2838 25.05 22.1807 24.8531 22.0213C24.5625 21.7869 24.0563 21.7869 23.8125 22.0307Z" fill="#282B8B"/>
<path d="M21.8438 24C21.7313 24.1125 21.6562 24.3094 21.6562 24.5156C21.6562 25.0594 21.9 25.2188 22.725 25.2188C23.3719 25.2188 23.4375 25.2 23.6156 24.975C23.7281 24.8344 23.8125 24.6281 23.8125 24.5156C23.8125 24.4031 23.7281 24.1969 23.6156 24.0563C23.4375 23.8313 23.3719 23.8125 22.725 23.8125C22.1531 23.8125 21.9938 23.85 21.8438 24Z" fill="#282B8B"/>
<path d="M25.0775 24C24.9744 24.1125 24.8994 24.3375 24.8994 24.5156C24.8994 25.0688 25.1338 25.2188 25.9682 25.2188C26.8213 25.2188 26.9994 25.0969 26.9994 24.4969C26.9994 23.9344 26.8025 23.8125 25.9494 23.8125C25.3588 23.8125 25.2182 23.8406 25.0775 24Z" fill="#282B8B"/>
<path d="M24.0938 25.0965C23.7094 25.2371 23.625 25.4246 23.625 26.1277C23.625 26.6902 23.6625 26.8496 23.8125 26.9996C24.0563 27.2433 24.5625 27.2433 24.8531 27.009C25.05 26.8496 25.0781 26.7465 25.0781 26.1558C25.0781 25.5371 25.0594 25.4621 24.8156 25.2558C24.5531 25.0308 24.375 24.9933 24.0938 25.0965Z" fill="#282B8B"/>
<path d="M29.1088 30.0281C28.9025 30.2063 28.8369 30.3375 28.8369 30.6094C28.8369 31.1813 29.09 31.3125 30.1494 31.3125C30.9088 31.3125 31.0588 31.2844 31.2182 31.125C31.4619 30.8813 31.4619 30.375 31.2275 30.0844C31.0682 29.8875 30.9557 29.8594 30.215 29.8313C29.4369 29.7938 29.3525 29.8125 29.1088 30.0281Z" fill="#282B8B"/>
<path d="M29.1088 32.0906C28.9025 32.2688 28.8369 32.4 28.8369 32.6719C28.8369 33.2438 29.09 33.375 30.1494 33.375C30.9088 33.375 31.0588 33.3469 31.2182 33.1875C31.4619 32.9438 31.4619 32.4375 31.2275 32.1469C31.0682 31.95 30.9557 31.9219 30.215 31.8938C29.4369 31.8563 29.3525 31.875 29.1088 32.0906Z" fill="#282B8B"/>
<path d="M29.1088 34.1531C28.9025 34.3313 28.8369 34.4625 28.8369 34.7344C28.8369 35.3063 29.09 35.4375 30.1494 35.4375C30.9088 35.4375 31.0588 35.4094 31.2182 35.25C31.4619 35.0063 31.4619 34.5 31.2275 34.2094C31.0682 34.0125 30.9557 33.9844 30.215 33.9563C29.4369 33.9188 29.3525 33.9375 29.1088 34.1531Z" fill="#282B8B"/>
<path d="M23.8688 37.9777C23.6438 38.1558 23.625 38.2215 23.625 38.8683C23.625 39.4402 23.6625 39.5996 23.8125 39.7496C24.0563 39.9933 24.5625 39.9933 24.8531 39.759C25.05 39.5996 25.0781 39.4965 25.0781 38.9058C25.0781 38.2871 25.0594 38.2121 24.8156 38.0058C24.4969 37.734 24.1969 37.7152 23.8688 37.9777Z" fill="#282B8B"/>
<path d="M21.9192 39.9375C21.5723 40.2 21.5535 40.7438 21.8723 41.0438C22.0504 41.2125 22.2004 41.25 22.7254 41.25C23.2785 41.25 23.3817 41.2219 23.5973 41.0063C23.7942 40.8094 23.8223 40.7063 23.7848 40.425C23.7004 39.9281 23.5223 39.8063 22.8004 39.7688C22.266 39.7406 22.1348 39.7594 21.9192 39.9375Z" fill="#282B8B"/>
<path d="M25.2465 39.8625C24.9278 40.0125 24.7965 40.5094 24.9746 40.8563C25.1528 41.2031 25.2746 41.25 26.0246 41.25C26.7653 41.25 26.9996 41.0719 26.9996 40.5094C26.9996 39.9844 26.6809 39.75 25.9778 39.7594C25.6871 39.7594 25.359 39.8063 25.2465 39.8625Z" fill="#282B8B"/>
<path d="M23.8313 41.2776C23.6625 41.4558 23.625 41.6058 23.625 42.1589C23.625 42.7683 23.6438 42.8433 23.8688 43.0214C24.3094 43.3683 24.8344 43.2276 25.0312 42.712C25.2281 42.1776 25.0781 41.3339 24.75 41.1558C24.45 40.9964 24.0469 41.0526 23.8313 41.2776Z" fill="#282B8B"/>
</g>
<defs>
<clipPath id="clip0_15707_78029">
<rect width="48" height="48" fill="white"/>
</clipPath>
</defs>
</svg>
