<svg width="49" height="48" viewBox="0 0 49 48" fill="none" xmlns="http://www.w3.org/2000/svg">
<path d="M11.1287 21.6252L9.77539 22.4379L10.6776 23.7668C11.5799 25.1177 12.4931 26.4026 12.9332 26.9737L13.1753 27.2812L13.7804 26.7541C14.3086 26.2928 15.4969 25.4911 15.86 25.3593C15.937 25.3373 15.5189 24.8211 14.9358 24.2281C13.7034 22.9541 13.0763 22.1414 12.7242 21.3726L12.4711 20.8125L11.1287 21.6252Z" fill="#FF008A"/>
<path d="M15.277 1.04082C12.802 1.39707 11.0676 2.4752 10.2426 4.1627C9.5957 5.46582 9.45508 6.23457 9.45508 8.29707C9.45508 9.43145 9.50195 10.2283 9.57695 10.5002C9.64258 10.7346 9.68945 10.9596 9.68008 11.0158C9.54883 12.8158 9.5582 12.9189 9.81133 13.4533C10.0738 13.9783 10.5988 14.4752 11.002 14.5783C11.1613 14.6158 11.2832 14.7564 11.3957 15.0377C11.6957 15.7596 12.4645 16.8283 13.177 17.5033C14.3863 18.6471 15.8863 19.2471 17.5551 19.2471C19.1113 19.2471 20.2645 18.7689 21.352 17.6627C22.927 16.0596 23.8738 13.5752 24.1645 10.2846C24.2113 9.70332 24.202 9.6377 23.9863 9.42207C23.6957 9.13145 23.602 9.13145 23.3207 9.42207C23.1238 9.60957 23.0863 9.74082 23.0863 10.1908C23.0863 12.2064 22.0926 15.1502 20.9395 16.5564C20.3957 17.2221 19.5238 17.8408 18.8395 18.0471C18.2207 18.2346 16.9363 18.2252 16.2051 18.0377C14.5926 17.6252 13.102 16.2564 12.277 14.4189C12.0707 13.9689 11.9676 13.8471 11.5738 13.6502C10.9363 13.3314 10.7113 12.9471 10.7113 12.1971C10.7113 11.8783 10.7676 11.4752 10.8426 11.3064C10.9551 11.0439 11.0301 10.9877 11.3676 10.9314C11.5926 10.8939 12.0895 10.7439 12.4832 10.5939L13.1957 10.3127H15.7738C17.302 10.3127 18.502 10.2752 18.7082 10.2096C18.9332 10.1533 19.3176 9.88145 19.7207 9.51582C20.7988 8.52207 21.7551 8.1752 23.602 8.09082C24.3051 8.0627 24.877 8.08145 25.1207 8.14707C25.9176 8.3627 26.4051 9.08457 25.852 9.2252C25.5238 9.30957 25.2895 9.68457 25.4301 9.92832C25.5895 10.2377 25.8238 10.3127 26.227 10.2096C26.9207 10.0127 27.3145 9.31895 27.1176 8.63457C26.902 7.86582 26.2082 7.28457 25.1207 6.9377L24.6707 6.79707L24.352 5.85957C23.302 2.8502 22.0176 1.50957 19.7582 1.07832C18.9613 0.918947 16.2238 0.900196 15.277 1.04082ZM19.627 2.19395C21.2582 2.54082 22.2238 3.4877 23.0395 5.55957C23.1801 5.90645 23.2832 6.21582 23.2551 6.23457C23.2363 6.25332 22.8613 6.16895 22.4301 6.0377C20.752 5.5502 19.8988 5.42832 18.9426 5.53145C16.927 5.75645 16.0832 6.19707 14.152 8.04395C13.4301 8.7377 12.802 9.25332 12.4457 9.44082C11.8551 9.7502 10.7676 10.0314 10.6457 9.9002C10.5988 9.8627 10.5707 9.10332 10.5801 8.22207C10.5895 6.89082 10.627 6.4877 10.7863 5.87832C11.1895 4.39707 11.9676 3.40332 13.177 2.82207C14.227 2.31582 14.2457 2.33457 13.6832 3.16895C13.1207 3.99395 12.8207 4.69707 12.6895 5.5127C12.5957 6.09395 12.6613 6.30957 12.9707 6.46895C13.2238 6.60957 13.5988 6.3752 13.6645 6.01895C13.9645 4.5752 14.302 3.88145 15.1176 3.08457C15.4176 2.79395 15.877 2.44707 16.1582 2.31582C16.6176 2.08145 16.7395 2.0627 17.827 2.0627C18.4832 2.0627 19.2895 2.12832 19.627 2.19395ZM21.2207 6.81582C21.7832 6.94707 22.2332 7.07832 22.2145 7.09707C22.1957 7.11582 21.8676 7.21895 21.4832 7.32207C20.5457 7.58457 19.8238 7.97832 19.1113 8.63457L18.5113 9.1877H16.5145H14.5176L14.7988 8.89707C15.3145 8.34395 16.4113 7.44395 16.8801 7.19082C18.0801 6.53457 19.5613 6.4127 21.2207 6.81582Z" fill="#282B8B" stroke="#282B8B" stroke-width="0.3"/>
<path d="M12.8587 18.5527C12.6712 18.7027 12.6243 18.8433 12.5868 19.3683L12.5399 20.0058L10.618 21.159C9.55866 21.7871 8.42429 22.4433 8.08679 22.6027C5.90241 23.6808 3.01491 25.9402 2.07741 27.2996C1.36491 28.3496 1.30866 28.5465 1.36491 30.1402C1.46804 32.8965 2.05866 36.0933 2.98679 38.9433C3.58679 40.7808 3.67116 40.959 3.94304 41.034C4.16804 41.0902 5.40554 40.959 6.03366 40.8183C6.24929 40.7715 6.46491 40.959 8.04929 42.534C9.83991 44.3152 10.8618 45.2058 12.0712 46.0121C12.4368 46.2465 12.7837 46.4996 12.8399 46.5558C12.9055 46.6215 13.243 46.7621 13.5805 46.8746C14.1243 47.0621 14.3399 47.0808 15.1087 47.034C16.0462 46.9777 17.3399 46.6965 17.7993 46.4527C17.9493 46.3777 18.118 46.3121 18.1837 46.3121C18.3618 46.3121 21.043 45.4308 23.9118 44.4277C25.4587 43.884 26.7149 43.4996 26.9212 43.4996C27.2305 43.4996 27.6243 43.5746 29.4524 43.9777C30.2868 44.1558 33.0805 44.034 34.7399 43.7433C35.4993 43.6121 36.2399 43.4433 36.3899 43.359C37.1399 42.9746 37.7118 42.1496 37.7118 41.4371V41.0621H42.4368C46.6087 41.0621 47.1805 41.0433 47.3118 40.9121C47.443 40.7808 47.4618 40.1058 47.4618 34.8746C47.4618 29.6433 47.443 28.9683 47.3118 28.8371C47.1805 28.7058 45.9337 28.6871 34.9837 28.6871H22.7962L22.5712 28.9215L22.3368 29.1465V33.2058C22.3368 36.7308 22.3555 37.2933 22.4868 37.4808C22.6743 37.7527 23.1337 37.7621 23.293 37.4996C23.3962 37.3308 23.518 37.3121 24.3337 37.3121C25.1868 37.3121 25.2712 37.2933 25.4774 37.0777C25.768 36.7965 25.768 36.7027 25.4774 36.4215C25.2712 36.2058 25.1774 36.1871 24.3524 36.1871H23.4618V34.8746V33.5621H25.5243H27.5868V34.0777C27.5868 34.509 27.6243 34.6402 27.8212 34.8277C27.943 34.959 28.093 35.0621 28.1493 35.0621C28.2055 35.0621 28.3555 34.959 28.4774 34.8277C28.6743 34.6402 28.7118 34.509 28.7118 34.0777V33.5621H37.5243H46.3368V34.8746V36.1777L37.693 36.2058C27.6149 36.234 28.9274 36.0746 26.9212 37.5746L25.6649 38.5027L20.9024 39.234L16.1305 39.9558L15.6618 39.5058C15.4087 39.2527 14.8368 38.6152 14.3962 38.0808C13.768 37.3215 13.6087 37.0777 13.6555 36.909C13.6837 36.759 13.3368 35.8402 12.5493 33.984C11.3212 31.1152 11.1337 30.8058 10.7212 31.0215C10.243 31.284 10.2524 31.3496 11.4055 34.0496C12.268 36.0558 12.4743 36.6183 12.3899 36.7215C12.1837 36.9558 10.5899 37.9777 9.77429 38.3902C9.33366 38.6058 8.62116 38.9152 8.18054 39.0746C7.34616 39.3652 5.48991 39.8058 4.86179 39.8621L4.49616 39.8902L4.17741 38.9527C3.23054 36.159 2.46179 31.959 2.46179 29.559C2.46179 28.9121 2.49929 28.7715 2.75241 28.3121C3.12741 27.6652 4.29929 26.4933 5.47116 25.6215C6.75554 24.6558 9.15554 23.1558 9.24929 23.259C9.26804 23.2777 9.69929 23.9058 10.2055 24.6558C11.8743 27.1215 12.8399 28.3121 13.1493 28.3121C13.2055 28.3121 13.618 27.9652 14.0774 27.534C14.893 26.7652 15.7368 26.2308 16.2899 26.1183L16.5712 26.0621L17.593 28.4715C18.5305 30.7121 18.868 31.3121 19.1587 31.3121C19.2055 31.3121 19.3462 31.2183 19.4587 31.0965C19.618 30.9371 19.8243 30.2433 20.3587 28.0965C20.9962 25.5277 21.0618 25.3121 21.2493 25.3121C21.5962 25.3215 22.1868 25.6496 22.8899 26.2402C23.2649 26.5496 23.6212 26.8121 23.6774 26.8121C23.7243 26.8121 23.9305 26.6527 24.118 26.4465C24.5774 25.9683 24.9618 24.9746 25.0274 24.1215L25.0837 23.4465L27.0618 24.4402C28.9368 25.3777 29.068 25.4621 29.4993 25.9871C30.0805 26.6996 30.3243 26.859 30.5774 26.7183C30.6805 26.6621 30.8118 26.5402 30.868 26.4371C30.9993 26.2027 30.9149 26.0433 30.2212 25.1996L29.6962 24.5433L25.5899 22.4902C23.3399 21.3652 21.4274 20.4371 21.3524 20.4371C21.2493 20.4371 21.2118 20.334 21.2118 20.0621C21.2118 19.7808 21.1462 19.6215 20.9774 19.4527C20.6962 19.1621 20.6024 19.1621 20.3024 19.4621C20.0868 19.6777 20.068 19.7433 20.1243 20.2215C20.1993 20.8215 20.2837 21.0277 20.6774 21.4402C20.9493 21.7308 20.9587 21.759 20.9024 22.4527C20.8649 23.0246 20.7712 23.334 20.4712 23.9808C20.218 24.5152 19.9462 25.3871 19.6649 26.5308C19.0555 28.9683 19.0462 29.0058 18.9712 28.9121C18.9337 28.8652 18.5493 28.0027 18.118 26.9996C17.443 25.4058 17.293 25.134 16.9555 24.8433C16.2149 24.2246 14.9118 22.9215 14.4618 22.359C13.7399 21.4496 13.7118 21.3558 13.7118 20.0152C13.7118 18.8902 13.7024 18.8246 13.4774 18.609C13.2055 18.3277 13.1399 18.3183 12.8587 18.5527ZM12.718 21.4777C12.8118 21.9746 13.5805 23.0246 14.6399 24.1121L15.6618 25.1808L14.9868 25.5277C14.6118 25.7246 14.0399 26.1183 13.7118 26.409C13.1493 26.9246 13.1212 26.934 12.9899 26.7558C12.6618 26.3246 11.0774 24.0746 10.6274 23.409L10.1399 22.6871L10.6274 22.3777C11.9024 21.5902 12.5493 21.2058 12.5962 21.1965C12.6337 21.1871 12.6805 21.3183 12.718 21.4777ZM23.9868 23.1183C24.0899 23.5215 23.968 24.4965 23.7524 24.9746L23.5555 25.4246L23.2087 25.1246C23.0212 24.9558 22.5805 24.684 22.243 24.534C21.9055 24.3746 21.6243 24.2433 21.6055 24.234C21.5868 24.2152 21.6618 23.8965 21.7649 23.5215C21.8774 23.1371 21.9805 22.6308 22.0087 22.3871L22.0649 21.9371L22.993 22.4058C23.7337 22.7808 23.9399 22.9215 23.9868 23.1183ZM27.5868 31.1246V32.4371H25.5243H23.4618V31.1246V29.8121H25.5243H27.5868V31.1246ZM46.3368 31.1246V32.4371H37.5243H28.7118V31.1246V29.8121H37.5243H46.3368V31.1246ZM32.8368 37.4996C32.8368 37.7715 32.5274 37.9308 31.4305 38.2027C30.3243 38.484 29.9587 38.709 29.7055 39.2621C29.3774 39.984 29.7805 40.7996 30.5399 40.9683C30.7462 41.0152 32.1899 41.0621 33.7555 41.0621H36.5868V41.3808C36.5868 41.7558 36.2587 42.2058 35.8649 42.3652C35.7149 42.4215 34.8899 42.5715 34.0274 42.7027C32.0212 43.0027 30.2962 43.0215 29.1618 42.7496C28.7305 42.6465 27.9899 42.5246 27.5024 42.4683L26.6212 42.3652L24.9712 42.9465C21.6618 44.0996 17.7618 45.3652 16.7587 45.6183C16.0368 45.7965 15.4743 45.8808 14.8743 45.8808C14.0868 45.8902 13.9837 45.8715 13.4305 45.5715C12.6149 45.1496 11.8837 44.6152 10.6555 43.5652C9.37116 42.4496 7.46804 40.509 7.58054 40.4152C7.62741 40.3777 8.02116 40.2277 8.46179 40.0871C9.53991 39.7308 10.8055 39.1027 11.8837 38.3902L12.7743 37.7996L13.618 38.8121C14.6118 40.0027 15.5774 40.9215 15.8868 40.9871C16.1587 41.034 25.9743 39.5433 26.1805 39.4215C26.2555 39.3746 26.8743 38.934 27.5399 38.4371C28.2149 37.9402 28.843 37.4808 28.9462 37.4246C29.068 37.359 29.7712 37.3215 30.9899 37.3121C32.7712 37.3121 32.8368 37.3215 32.8368 37.4996ZM46.3368 38.6246V39.9371H38.518C33.5962 39.9371 30.6712 39.8996 30.6337 39.8433C30.5024 39.6371 30.9805 39.3933 31.993 39.1402C33.3712 38.8027 33.6993 38.5308 33.9055 37.5652L33.9618 37.3121H40.1493H46.3368V38.6246Z" fill="#282B8B" stroke="#282B8B" stroke-width="0.3"/>
<path d="M5.98789 43.0875C5.86602 43.2094 5.83789 43.5188 5.83789 45C5.83789 46.9406 5.86602 47.0625 6.40039 47.0625C6.92539 47.0625 6.96289 46.9406 6.96289 45.0844C6.96289 43.4156 6.96289 43.3969 6.72852 43.1719C6.46602 42.9 6.19414 42.8719 5.98789 43.0875Z" fill="#282B8B" stroke="#282B8B" stroke-width="0.3"/>
<path d="M27.0723 44.6719C26.8566 44.8781 26.8379 44.9625 26.8379 45.8344C26.8379 46.875 26.9223 47.0625 27.4004 47.0625C27.8879 47.0625 27.9629 46.875 27.9629 45.75C27.9629 44.9531 27.9348 44.7 27.8129 44.5875C27.6066 44.3719 27.3348 44.4 27.0723 44.6719Z" fill="#282B8B" stroke="#282B8B" stroke-width="0.3"/>
<path d="M19.0407 6.4861C17.2557 6.71895 15.9885 7.4064 14.479 8.95871L13.9941 9.46875H16.2199H18.4457L19.1619 8.80347C20.0655 7.99406 20.7927 7.56163 21.8505 7.24008C22.5557 7.02941 22.6328 6.98506 22.4235 6.89635C22.0929 6.77439 20.0434 6.36413 19.8561 6.37522C19.779 6.38631 19.4043 6.43066 19.0407 6.4861Z" fill="#FF008A"/>
<path d="M23.4629 31.125V32.4375H25.5254H27.5879V31.125V29.8125H25.5254H23.4629V31.125Z" fill="#FF008A"/>
<path d="M33.9621 37.5656C33.9621 37.9312 33.5965 38.5312 33.2403 38.775C33.0715 38.8875 32.4715 39.0937 31.909 39.2344C30.9059 39.4781 30.5965 39.6375 30.7278 39.8438C30.7653 39.9094 33.259 39.9375 38.5653 39.9375H46.3371V38.625V37.3125H42.8403H39.3434L39.1278 37.6031C38.4996 38.4469 37.3465 38.4656 36.709 37.6312L36.4746 37.3125H35.2184H33.9621V37.5656Z" fill="#FF008A"/>
</svg>
