<svg width="48" height="48" viewBox="0 0 48 48" fill="none" xmlns="http://www.w3.org/2000/svg">
<g clip-path="url(#clip0_15707_78014)">
<rect x="17.7188" y="25.2188" width="10.7812" height="1.78125" fill="#FF008A"/>
<rect x="0.9375" y="45.375" width="46.2188" height="1.78125" fill="#FF008A"/>
<rect x="10.5" y="37.3125" width="8.8125" height="2.4375" fill="#FF008A"/>
<path d="M17.7656 8.39062H23.7656L22.9688 11.8594L14.2969 12.7031L17.7656 8.39062Z" fill="#FF008A"/>
<path d="M30.0935 3.24375C27.4872 3.7875 21.7779 4.96875 17.3997 5.86875C13.0122 6.76875 9.35599 7.55625 9.27161 7.62187C9.17786 7.67812 8.24036 8.775 7.18099 10.0594C5.38099 12.2156 5.24974 12.4031 5.24974 12.75C5.24974 13.0031 5.31536 13.1906 5.43724 13.3125C5.62474 13.5 5.74661 13.5 14.0622 13.5H22.4997V14.6531C22.4997 15.7875 22.4904 15.8156 22.2747 15.9187C21.881 16.0969 21.3466 16.6312 21.1779 17.0156C20.9716 17.4656 20.9435 18.4312 21.1216 18.8719C21.1966 19.0406 21.356 19.3031 21.4872 19.4531L21.731 19.7344L19.8091 21.375C18.7591 22.275 17.7466 23.1469 17.5685 23.3062L17.2497 23.6062V25.4906C17.2497 27.2531 17.2591 27.3844 17.4372 27.5625C17.6247 27.75 17.7466 27.75 23.2497 27.75C28.7529 27.75 28.8747 27.75 29.0622 27.5625C29.2404 27.3844 29.2497 27.2531 29.2497 25.4906V23.6062L28.931 23.3062C28.7529 23.1469 27.7404 22.275 26.6904 21.375L24.7685 19.7344L25.0122 19.4531C25.1435 19.3031 25.3029 19.0406 25.3779 18.8719C25.556 18.4312 25.5279 17.4656 25.3216 17.0156C25.1529 16.6312 24.6185 16.0969 24.2247 15.9187C24.0091 15.8156 23.9997 15.7875 23.9997 14.6531V13.5H28.8747H33.7497V26.625V39.75H32.4372C30.6841 39.75 30.7497 39.6844 30.7497 41.4375V42.75H29.2497H27.7497V36.5625C27.7497 30.4969 27.7497 30.375 27.5622 30.1875C27.3747 30 27.2529 30 21.5622 30H15.7497V23.4375C15.7497 16.9969 15.7497 16.875 15.5622 16.6875C15.3841 16.5094 15.2529 16.5 13.4997 16.5C11.7466 16.5 11.6154 16.5094 11.4372 16.6875C11.2591 16.8656 11.2497 16.9969 11.2497 20.8125V24.75H10.1247H8.99974V20.8125C8.99974 16.9969 8.99036 16.8656 8.81224 16.6875C8.63411 16.5094 8.50286 16.5 6.74974 16.5C4.99661 16.5 4.86536 16.5094 4.68724 16.6875C4.50911 16.8656 4.49974 16.9969 4.49974 20.8125V24.75H3.56224C2.08099 24.75 2.24974 23.5969 2.24974 33.9375V42.75H1.31224C-0.0752627 42.75 -0.000262702 42.6 -0.000262702 45.375C-0.000262702 47.5031 0.0091123 47.6344 0.187237 47.8125C0.374737 48 0.496613 48 23.9997 48C47.5029 48 47.6247 48 47.8122 47.8125C47.9904 47.6344 47.9997 47.5031 47.9997 45.375C47.9997 43.2469 47.9904 43.1156 47.8122 42.9375C47.6341 42.7594 47.5029 42.75 45.1872 42.75H42.7497V41.4375C42.7497 39.7406 42.7591 39.75 41.4372 39.75H40.4997V26.55V13.3594L41.5591 13.05C42.131 12.8812 42.6372 12.75 42.6841 12.75C42.7216 12.75 42.7497 13.5094 42.7497 14.4375C42.7497 16.0031 42.7591 16.1344 42.9372 16.3125C43.1154 16.4906 43.2466 16.5 45.3747 16.5C47.5029 16.5 47.6341 16.4906 47.8122 16.3125C47.9904 16.1344 47.9997 16.0031 47.9997 12.0187C47.9997 8.86875 47.9716 7.875 47.8872 7.7625C47.7841 7.64062 42.9185 4.26562 40.6872 2.78437L39.8904 2.25L37.3591 2.25937L34.8279 2.26875L30.0935 3.24375ZM38.9997 5.625V7.5H36.3185C34.8466 7.5 33.656 7.4625 33.6747 7.425C33.6935 7.37812 34.1622 6.53437 34.7247 5.55L35.756 3.75H37.3779H38.9997V5.625ZM33.4966 4.425C33.3935 4.59375 32.9622 5.35312 32.531 6.1125L31.7435 7.5L24.656 7.49062C20.7654 7.48125 17.6622 7.45312 17.7654 7.43437C17.8685 7.40625 21.4779 6.65625 25.781 5.76562C30.0841 4.875 33.6279 4.13437 33.6372 4.13437C33.656 4.125 33.5904 4.26562 33.4966 4.425ZM43.0779 6.30937C43.9591 6.92812 44.6904 7.44375 44.7091 7.4625C44.7279 7.48125 43.8185 7.5 42.6747 7.5H40.5935V6.04688V4.58437L41.0435 4.89375C41.2872 5.0625 42.206 5.7 43.0779 6.30937ZM14.5685 10.1906C14.0154 10.8562 13.5372 11.3906 13.4997 11.3906C13.4622 11.3906 12.9841 10.8562 12.431 10.1906L11.4279 9H13.4997H15.5716L14.5685 10.1906ZM22.0685 10.1906C21.5154 10.8562 21.0372 11.3906 20.9997 11.3906C20.9622 11.3906 20.4841 10.8562 19.931 10.1906L18.9279 9H20.9997H23.0716L22.0685 10.1906ZM29.5685 10.1906C29.0154 10.8562 28.5372 11.3906 28.4997 11.3906C28.4622 11.3906 27.9841 10.8562 27.431 10.1906L26.4279 9H28.4997H30.5716L29.5685 10.1906ZM38.9997 10.5V12H35.9997H32.9997V10.5V9H35.9997H38.9997V10.5ZM46.4997 9.44062V9.89062L43.4997 10.7906L40.4997 11.6906V10.35V9H43.4997H46.4997V9.44062ZM10.8185 10.8L11.8216 12H9.74974H7.68724L8.69036 10.7812C9.25286 10.1156 9.73099 9.58125 9.75911 9.59062C9.79661 9.6 10.2654 10.1437 10.8185 10.8ZM18.3185 10.8L19.3216 12H17.2497H15.1872L16.1904 10.7812C16.7529 10.1156 17.231 9.58125 17.2591 9.59062C17.2966 9.6 17.7654 10.1437 18.3185 10.8ZM25.8185 10.8L26.8216 12H24.7497H22.6872L23.6904 10.7812C24.2529 10.1156 24.731 9.58125 24.7591 9.59062C24.7966 9.6 25.2654 10.1437 25.8185 10.8ZM31.4997 11.25V12H30.8435H30.1779L30.806 11.25C31.1529 10.8375 31.4529 10.5 31.4716 10.5C31.481 10.5 31.4997 10.8375 31.4997 11.25ZM46.4997 13.3125V15H45.3747H44.2497V13.6125V12.2344L45.2154 11.9437C45.7404 11.775 46.2466 11.6437 46.3404 11.6344C46.4904 11.625 46.4997 11.7656 46.4997 13.3125ZM37.5466 13.575C36.6091 14.3906 35.456 15.3562 35.3716 15.4125C35.2779 15.4688 35.2497 15.2531 35.2497 14.4937V13.5H36.4404C37.0966 13.5 37.5935 13.5375 37.5466 13.575ZM38.9622 19.3781C38.9341 19.4062 36.281 17.5687 35.8404 17.2125C35.8216 17.1937 36.5247 16.5844 37.3872 15.8438L38.9529 14.5031L38.981 16.9219C38.9904 18.2531 38.981 19.3594 38.9622 19.3781ZM23.7185 17.5312C23.8216 17.6344 23.906 17.8406 23.906 18C23.906 18.1594 23.8216 18.3656 23.7185 18.4687C23.6154 18.5719 23.4091 18.6562 23.2497 18.6562C23.0904 18.6562 22.8841 18.5719 22.781 18.4687C22.6779 18.3656 22.5935 18.1594 22.5935 18C22.5935 17.8406 22.6779 17.6344 22.781 17.5312C22.8841 17.4281 23.0904 17.3437 23.2497 17.3437C23.4091 17.3437 23.6154 17.4281 23.7185 17.5312ZM7.49974 21.375V24.75H6.74974H5.99974V21.375V18H6.74974H7.49974V21.375ZM14.2497 22.8937V27.7969L13.4997 26.4844L12.7497 25.1719V21.5812V18H13.4997H14.2497V22.8937ZM38.2497 21C38.2497 21.0375 37.5935 21.5437 36.7966 22.1156L35.3435 23.1469V21V18.8531L36.7966 19.8844C37.5935 20.4562 38.2497 20.9625 38.2497 21ZM24.8529 21.9469L26.3247 23.2031L24.7872 23.2312C23.9435 23.2406 22.556 23.2406 21.7122 23.2312L20.1747 23.2031L21.6841 21.9094C22.5185 21.2062 23.231 20.6344 23.2872 20.6531C23.3341 20.6719 24.0372 21.2531 24.8529 21.9469ZM38.9997 24.75C38.9997 25.9312 38.981 26.9062 38.9529 26.9062C38.831 26.9062 35.9997 24.8062 36.0185 24.7312C36.056 24.6281 38.8122 22.6125 38.9341 22.6031C38.9716 22.5937 38.9997 23.5594 38.9997 24.75ZM27.7497 25.5V26.25H23.2497H18.7497V25.5V24.75H23.2497H27.7497V25.5ZM12.8904 28.7062C13.6685 30.0656 14.3716 31.2469 14.4654 31.3312C14.6154 31.4906 15.0091 31.5 20.4372 31.5H26.2497V37.125V42.75H23.2497H20.2497V39.9375C20.2497 37.2469 20.2404 37.1156 20.0622 36.9375C19.8841 36.7594 19.7529 36.75 14.9997 36.75C10.2466 36.75 10.1154 36.7594 9.93724 36.9375C9.75911 37.1156 9.74974 37.2469 9.74974 39.9375V42.75H6.74974H3.74974V34.5V26.25H7.62161H11.4935L12.8904 28.7062ZM38.2497 28.5C38.2497 28.5375 37.5935 29.0437 36.7966 29.6156L35.3435 30.6469V28.5V26.3531L36.7966 27.3844C37.5935 27.9562 38.2497 28.4625 38.2497 28.5ZM38.9997 32.25C38.9997 33.4312 38.981 34.4062 38.9529 34.4062C38.831 34.4062 35.9997 32.3062 36.0185 32.2312C36.056 32.1281 38.8122 30.1125 38.9341 30.1031C38.9716 30.0938 38.9997 31.0594 38.9997 32.25ZM38.4091 36.0375C38.4466 36.0656 35.456 38.625 35.3904 38.625C35.3622 38.625 35.3435 37.5469 35.3435 36.2344V33.8437L36.8716 34.9312C37.706 35.5312 38.3997 36.0281 38.4091 36.0375ZM38.9716 39.7219C38.9529 39.7406 38.4279 39.7406 37.7997 39.7312L36.6747 39.7031L37.8185 38.7281L38.9529 37.7531L38.981 38.7188C38.9904 39.2437 38.9904 39.6937 38.9716 39.7219ZM18.7497 40.5V42.75H14.9997H11.2497V40.5V38.25H14.9997H18.7497V40.5ZM41.2497 42V42.75H36.7497H32.2497V42V41.25H36.7497H41.2497V42ZM46.4997 45.375V46.5H23.9997H1.49974V45.375V44.25H23.9997H46.4997V45.375Z" fill="#282B8B"/>
<path d="M6.1875 29.4375C6.06563 29.5594 6 29.7469 6 30C6 30.2531 6.06563 30.4406 6.1875 30.5625C6.36563 30.7406 6.49688 30.75 8.25 30.75C10.0031 30.75 10.1344 30.7406 10.3125 30.5625C10.4344 30.4406 10.5 30.2531 10.5 30C10.5 29.7469 10.4344 29.5594 10.3125 29.4375C10.1344 29.2594 10.0031 29.25 8.25 29.25C6.49688 29.25 6.36563 29.2594 6.1875 29.4375Z" fill="#282B8B"/>
<path d="M6.1875 33.1875C6.06563 33.3094 6 33.4969 6 33.75C6 34.0031 6.06563 34.1906 6.1875 34.3125C6.36563 34.4906 6.49688 34.5 9.75 34.5C13.0031 34.5 13.1344 34.4906 13.3125 34.3125C13.4344 34.1906 13.5 34.0031 13.5 33.75C13.5 33.4969 13.4344 33.3094 13.3125 33.1875C13.1344 33.0094 13.0031 33 9.75 33C6.49688 33 6.36563 33.0094 6.1875 33.1875Z" fill="#282B8B"/>
<path d="M16.6875 33.1875C16.5656 33.3094 16.5 33.4969 16.5 33.75C16.5 34.0031 16.5656 34.1906 16.6875 34.3125C16.8656 34.4906 16.9969 34.5 20.25 34.5C23.5031 34.5 23.6344 34.4906 23.8125 34.3125C23.9344 34.1906 24 34.0031 24 33.75C24 33.4969 23.9344 33.3094 23.8125 33.1875C23.6344 33.0094 23.5031 33 20.25 33C16.9969 33 16.8656 33.0094 16.6875 33.1875Z" fill="#282B8B"/>
</g>
<defs>
<clipPath id="clip0_15707_78014">
<rect width="48" height="48" fill="white"/>
</clipPath>
</defs>
</svg>
