<svg width="48" height="48" viewBox="0 0 48 48" fill="none" xmlns="http://www.w3.org/2000/svg">
<g clip-path="url(#clip0_15707_78146)">
<rect x="4" y="45" width="21" height="2" fill="#FF008A"/>
<path d="M45.7635 10.6092L46.8029 13.3834C47.0977 14.1701 46.8192 15.0563 46.1275 15.533C45.583 15.9084 44.8783 15.9608 44.2842 15.6702L41.6231 14.3684C39.5555 13.357 39.3425 10.4934 41.2376 9.18721C42.8497 8.07616 45.0766 8.77587 45.7635 10.6092Z" fill="#FF008A"/>
<path d="M22.5858 32.5H7.85078C7.62371 32.5 7.4034 32.4227 7.22609 32.2809C6.48795 31.6904 6.9055 30.5 7.85078 30.5H22.5858C23.4767 30.5 23.9229 31.5771 23.2929 32.2071C23.1054 32.3946 22.851 32.5 22.5858 32.5Z" fill="#FF008A"/>
<path d="M0.35625 0.131083C0.2625 0.196707 0.15 0.365458 0.09375 0.506083C0.028125 0.674833 0 4.62171 0 12.553V24.3467L0.215625 24.5436C0.43125 24.7498 0.478125 24.7498 3.61875 24.7498C6.80625 24.7498 6.81563 24.7498 7.00313 24.5342C7.34063 24.178 7.32188 23.803 6.94688 23.428L6.675 23.1561H4.13438H1.59375V13.7061C1.59375 8.51233 1.62188 3.66546 1.65938 2.92483L1.71563 1.59358H14.3813H27.0469L28.2 3.69358L29.3438 5.79358V14.4748V23.1561H26.1188C24.2063 23.1561 22.7906 23.1936 22.6406 23.2498C22.4062 23.3436 22.125 23.8217 22.125 24.1405C22.125 24.2248 22.2281 24.3936 22.3594 24.5155L22.5844 24.7498H27.8156H33.0469L33.1594 25.3311C33.5063 27.1405 34.9875 28.6967 36.975 29.3248C37.725 29.5686 39.3469 29.5311 40.125 29.2592C42.0938 28.5655 43.35 27.103 43.8188 24.9092L43.875 24.6561H45.7313C47.5594 24.6561 47.5969 24.6561 47.7938 24.4405L48 24.2248V18.9561V13.6967L45.9656 10.4436C43.7344 6.88108 43.2094 6.22483 42.1406 5.65296C40.7531 4.93108 40.2 4.86546 34.9313 4.79046L30.6188 4.73421L29.4375 2.54983C28.7813 1.34983 28.1719 0.290457 28.0781 0.187332C27.9094 -0.000167847 27.75 -0.000167847 14.2125 -0.000167847C3.12188 0.00920677 0.4875 0.0279579 0.35625 0.131083ZM37.2 10.9123C37.2188 15.3842 37.2188 15.4123 37.425 15.628L37.6219 15.8436H42.0188H46.4062V19.453V23.0623H45.0656H43.725L43.5563 22.4998C43.0875 20.953 41.7563 19.5842 40.1625 19.0217C39.4688 18.7686 38.175 18.6842 37.3875 18.8342C35.5875 19.1905 33.9281 20.6623 33.3563 22.4155L33.15 23.0623H32.0438H30.9375V14.7186V6.37483L34.0594 6.39358L37.1719 6.42171L37.2 10.9123ZM41.0906 6.96546C41.5781 7.20921 41.9344 7.47171 42.2531 7.81858C42.6281 8.24046 46.4062 14.1186 46.4062 14.2873C46.4062 14.3155 44.6813 14.3436 42.5625 14.3436H38.7188V10.4436V6.54358L39.5531 6.58108C40.2844 6.61858 40.4813 6.66546 41.0906 6.96546ZM39.9844 20.6061C41.5688 21.3467 42.5063 23.0717 42.2063 24.6748C41.9062 26.3061 40.7531 27.478 39.15 27.8061C38.5031 27.9373 38.3719 27.9373 37.725 27.8061C36.0938 27.478 34.9406 26.278 34.6688 24.628C34.3594 22.7811 35.5969 20.9248 37.4906 20.3811C38.1938 20.1748 39.2625 20.2686 39.9844 20.6061Z" fill="#282B8B"/>
<path d="M37.4994 21.8438C36.9744 22.0875 36.5151 22.5187 36.2526 23.0156C35.9619 23.55 35.9713 24.6375 36.2526 25.1812C36.6463 25.9219 37.6307 26.5312 38.4369 26.5312C38.9244 26.5312 39.6651 26.2406 40.0401 25.9031C40.5463 25.4437 40.7994 24.9281 40.8557 24.225C40.8932 23.7469 40.8557 23.5594 40.6682 23.1469C40.2369 22.2094 39.5432 21.7312 38.5307 21.6844C38.0619 21.6562 37.8276 21.6937 37.4994 21.8438ZM39.0276 23.4187C39.3088 23.6719 39.3932 23.9812 39.2807 24.3375C39.1494 24.7312 38.8682 24.9375 38.4557 24.9375C38.0151 24.9375 37.7901 24.7875 37.6307 24.4031C37.4994 24.1125 37.5088 24.0469 37.6588 23.7375C37.9401 23.1562 38.5776 23.0062 39.0276 23.4187Z" fill="#282B8B"/>
<path d="M5.56875 3.65625C5.30625 3.75937 5.0625 4.10625 5.0625 4.3875C5.0625 4.50937 5.18438 4.73437 5.33438 4.88437L5.61563 5.15625L14.25 5.1375L22.8938 5.10938L23.0719 4.88437C23.2688 4.65 23.3063 4.21875 23.1562 3.9375C23.1094 3.84375 22.9313 3.72187 22.7719 3.66562C22.4062 3.54375 5.87813 3.525 5.56875 3.65625Z" fill="#282B8B"/>
<path d="M11.9549 12.2636C11.3483 12.6093 10.7418 13.5082 10.3906 14.5454C10.1033 15.4097 9.89043 17 10.0607 17C10.1139 17 10.6566 16.8444 11.2632 16.6543C13.764 15.8591 16.435 15.8591 18.8507 16.6543C19.4147 16.8444 19.9042 17 19.9362 17C19.9681 17 20 16.7061 20 16.3431C19.9894 14.9084 19.2125 13.1452 18.2441 12.4019C17.7227 12.0043 17.6376 11.987 15.0516 12.0043C13.0084 12.0043 12.2848 12.0734 11.9549 12.2636Z" fill="#FF008A"/>
<path d="M5.65312 6.90937C5.38125 6.96562 5.0625 7.36875 5.0625 7.65937C5.0625 7.79062 5.18437 8.00625 5.33437 8.16562L5.60625 8.4375H14.2031H22.7906L23.0156 8.20312C23.4281 7.8 23.2969 7.13437 22.7719 6.94687C22.5562 6.87187 20.0156 6.84375 14.1656 6.85312C9.6 6.8625 5.76562 6.89062 5.65312 6.90937Z" fill="#282B8B"/>
<path d="M11.6344 11.625C10.2281 12.1406 9.14062 13.3313 8.82188 14.7281C8.76562 14.9531 8.71875 15.45 8.71875 15.8156C8.71875 16.5 8.71875 16.5 8.46563 16.5C7.70625 16.5 6.95625 16.9875 6.64688 17.6719C6.4125 18.1781 6.39375 20.175 6.60938 20.7C6.9 21.3938 7.56563 21.8438 8.2875 21.8438H8.7L8.76562 22.2375C8.84063 22.6781 9.3 24.1594 9.46875 24.4688C9.525 24.5719 9.75938 24.8906 9.99375 25.1719L10.4062 25.6875H8.7C6.87188 25.6875 6.09375 25.8 5.15625 26.175C3.40313 26.8781 1.9125 28.3313 1.19063 30.0563C0.69375 31.2188 0.65625 31.7063 0.65625 36.2438C0.65625 40.2844 0.646875 40.4344 0.46875 40.6875C0.084375 41.2313 0 41.6719 0 43.1719C0 44.5781 0 44.6063 0.290625 45.1781C0.796875 46.1813 1.70625 46.6875 3.01875 46.6875H3.65625V47.1C3.65625 47.3719 3.72188 47.5875 3.85313 47.7563L4.04063 48H14.7094H25.3781L25.575 47.7844C25.725 47.625 25.7813 47.4469 25.7813 47.1281V46.6875H26.5125C26.9438 46.6875 27.4313 46.6219 27.6844 46.5375C28.2844 46.3313 28.9875 45.6844 29.2594 45.075C29.4656 44.6156 29.4844 44.4563 29.4844 43.1156V41.6531L29.1844 41.0625L28.875 40.4719V36.5063C28.875 34.1813 28.8375 32.2406 28.7719 31.8188C28.65 30.9281 28.2563 29.8125 27.7875 29.0344C27.3375 28.3031 26.1844 27.15 25.4813 26.7281C24.0844 25.9125 23.0625 25.6875 20.7094 25.6875H19.0312L19.4438 25.1719C19.6781 24.8906 19.9125 24.5813 19.9594 24.4875C20.1375 24.15 20.6156 22.6875 20.6719 22.2656L20.7375 21.8438H21.15C21.6844 21.8438 22.0969 21.6656 22.4719 21.2719C22.9125 20.8031 22.9688 20.5594 22.9688 19.1906C22.9688 18.1875 22.9313 17.8781 22.7906 17.5688C22.5469 17.0438 22.0688 16.6969 21.3938 16.5656L20.8406 16.4625L20.7375 15.4875C20.6531 14.6719 20.5781 14.3906 20.3063 13.8281C19.875 12.9469 19.2 12.2813 18.2906 11.8313L17.5875 11.4844L14.8688 11.4656C12.3656 11.4375 12.1031 11.4563 11.6344 11.625ZM17.3531 13.0969C18.0656 13.3219 18.8625 14.1188 19.0688 14.8125C19.2 15.2625 19.2656 15.8438 19.1906 15.8438C19.1719 15.8438 18.7594 15.7594 18.2719 15.6563C15.7875 15.1406 13.3219 15.1875 10.4625 15.8156L10.1906 15.8719L10.2656 15.4125C10.3875 14.5406 10.7906 13.8656 11.4375 13.4438C12.1313 12.9844 12.3656 12.9469 14.6813 12.9375C16.4813 12.9375 16.9406 12.9656 17.3531 13.0969ZM17.8969 17.1469C18.375 17.25 18.7969 17.3531 18.825 17.3813C18.9938 17.5594 18.2344 18.4875 17.7094 18.7594C16.8656 19.1813 14.9438 19.4063 13.6406 19.2188C11.9531 18.9844 11.2313 18.6 10.7812 17.7094L10.6031 17.3719L11.325 17.2125C12.7406 16.9125 13.1063 16.8844 15.0469 16.9219C16.5844 16.9406 17.2031 16.9969 17.8969 17.1469ZM8.7 19.1906C8.67188 20.2406 8.6625 20.2969 8.475 20.325C8.09063 20.3813 7.96875 20.1188 7.96875 19.2563C7.96875 18.3094 8.05313 18.0938 8.44688 18.0938H8.72813L8.7 19.1906ZM21.3563 18.2063C21.4313 18.2813 21.4688 18.6469 21.4688 19.2188C21.4688 20.175 21.4031 20.3438 21.0281 20.3438C20.8125 20.3438 20.8125 20.3344 20.8125 19.2188C20.8125 18.1031 20.8125 18.0938 21.0281 18.0938C21.15 18.0938 21.2906 18.1406 21.3563 18.2063ZM11.1562 20.1469C13.0031 21.1125 17.1562 20.9906 18.7594 19.9219C18.9563 19.7906 19.1438 19.6875 19.1719 19.6875C19.2563 19.6875 19.2188 21.6188 19.125 22.1344C18.9938 22.8188 18.4688 23.8688 18.0094 24.3469C15.4969 26.9438 11.1844 25.7906 10.3594 22.2938C10.2844 21.9563 10.2188 21.2438 10.2188 20.6344V19.575L10.4344 19.725C10.5469 19.8094 10.875 19.9969 11.1562 20.1469ZM22.8281 27.4219C24.8344 27.8438 26.5406 29.475 27.0469 31.4531C27.15 31.8656 27.1875 32.5313 27.1875 34.0031V36H26.4938H25.7906L25.7625 33.0375L25.7344 30.075L25.4719 29.85L25.2094 29.625H14.7188H4.22813L3.98438 29.8313L3.75 30.0469L3.70313 33L3.66563 35.9531L2.95312 35.9813L2.23125 36.0094L2.26875 33.8719C2.30625 31.8375 2.31563 31.6969 2.55938 31.0313C3.2625 29.0719 4.97813 27.6563 7.03125 27.3469C7.1625 27.3281 10.6219 27.3 14.7188 27.3C20.925 27.2906 22.2844 27.3094 22.8281 27.4219ZM24.1875 32.7188V34.3125H14.7188H5.25V32.7188V31.125H14.7188H24.1875V32.7188ZM24.1875 37.9688V40.0313L23.8125 40.3688C23.6063 40.5563 23.325 40.9406 23.1844 41.2313C22.9313 41.7469 22.9219 41.8219 22.9219 43.1719C22.9219 44.5125 22.9313 44.5969 23.175 45.0469C23.3063 45.3 23.5969 45.6844 23.8031 45.8906C24.0188 46.0875 24.1875 46.2938 24.1875 46.3313C24.1875 46.3688 19.9313 46.4063 14.7188 46.4063C8.45625 46.4063 5.25 46.3781 5.25 46.3125C5.25 46.2563 5.41875 46.0594 5.63438 45.8719C5.84063 45.6844 6.12188 45.3094 6.2625 45.0563C6.47813 44.625 6.50625 44.4469 6.54375 43.35C6.6 41.7281 6.46875 41.2781 5.76562 40.5188L5.25 39.9563V37.9313V35.9063H14.7188H24.1875V37.9688ZM3.73125 38.55L3.75938 39.5625H3.35625C3.13125 39.5625 2.79375 39.5906 2.60625 39.6188L2.25 39.6844V38.5875V37.4906L2.98125 37.5188L3.70313 37.5469L3.73125 38.55ZM27.1875 38.5781V39.6563H26.4844H25.7813V38.5781V37.5H26.4844H27.1875V38.5781ZM4.37813 41.3438C4.92188 41.6719 5.01562 41.9156 5.01562 43.0781C5.01562 44.2688 4.875 44.6438 4.3125 44.925C3.9 45.1313 2.75625 45.15 2.29688 44.9625C1.725 44.7188 1.59375 44.3719 1.59375 43.0594C1.59375 41.9625 1.60313 41.9063 1.84688 41.625C2.18438 41.2219 2.35313 41.1656 3.28125 41.1656C3.90938 41.1563 4.14375 41.1938 4.37813 41.3438ZM27.2531 41.3438C27.8063 41.6719 27.8906 41.9156 27.8906 43.125C27.8906 44.3438 27.7594 44.7 27.225 44.9531C26.7656 45.1688 25.4438 45.1406 25.0594 44.9063C24.5719 44.6156 24.4688 44.3063 24.4688 43.1063C24.4688 41.8969 24.5906 41.5875 25.1344 41.3156C25.6031 41.0813 26.8594 41.1 27.2531 41.3438Z" fill="#282B8B"/>
<path d="M13.0582 23.2504C12.6926 23.4004 12.5332 23.9723 12.7488 24.366C13.0301 24.9004 14.7926 25.191 15.8988 24.891C16.8363 24.6379 17.1644 24.0098 16.6394 23.4848C16.3769 23.2223 16.1426 23.1941 15.6082 23.391C15.0832 23.5785 14.6144 23.5598 13.9957 23.3441C13.4051 23.1379 13.3582 23.1285 13.0582 23.2504Z" fill="#282B8B"/>
<path d="M10.585 36.9375L10.3037 37.2094L10.3318 40.5375C10.36 43.8656 10.36 43.875 10.5756 44.0812L10.7912 44.2969H14.7193H18.6475L18.8631 44.0812C19.0787 43.875 19.0787 43.8656 19.1068 40.5375L19.135 37.2094L18.8537 36.9375L18.5818 36.6562H14.7193H10.8568L10.585 36.9375ZM17.5318 40.4531V42.75H14.7193H11.9068V40.4531V38.1562H14.7193H17.5318V40.4531Z" fill="#282B8B"/>
<path d="M32.2967 32.2219C31.8748 32.325 31.6873 32.625 31.6873 33.2063V33.75H30.5623C29.4842 33.75 29.4186 33.7594 29.2029 33.9844C28.8842 34.2938 28.8936 34.7438 29.2311 35.175C29.3717 35.3625 29.9811 36.0375 30.5904 36.6844L31.6873 37.8469V40.3781V42.9094L31.9311 43.1344L32.1748 43.3594H39.8436H47.5123L47.7561 43.1344L47.9998 42.9094V37.7813V32.6531L47.7561 32.4281L47.5123 32.2031L40.0029 32.1938C35.8686 32.1844 32.3998 32.1938 32.2967 32.2219ZM46.4061 37.7813V41.7188H39.8436H33.2811V39.4688V37.2281L32.7279 36.5906C32.4279 36.2344 32.0717 35.85 31.9311 35.7281C31.7998 35.5969 31.6873 35.4656 31.6873 35.4188C31.6873 35.3813 31.9592 35.3438 32.2873 35.3438C32.8311 35.3438 32.9154 35.3156 33.0842 35.1C33.2248 34.9125 33.2811 34.7156 33.2811 34.35V33.8438H39.8436H46.4061V37.7813Z" fill="#282B8B"/>
<path d="M34.875 35.5969C34.575 35.7094 34.4062 35.9438 34.4062 36.2531C34.4062 37.0313 34.6687 37.125 36.9469 37.125C39.1031 37.125 39.4594 37.0125 39.4687 36.3563C39.4781 35.6063 39.2437 35.5313 36.9187 35.5406C35.8687 35.5406 34.95 35.5688 34.875 35.5969Z" fill="#282B8B"/>
<path d="M40.5269 35.6252C40.1144 35.794 39.9738 36.5065 40.3019 36.8346C40.6769 37.2096 41.9425 37.219 42.3082 36.8627C42.6082 36.5627 42.5707 36.0377 42.2425 35.7565C42.0269 35.569 41.8863 35.5315 41.3613 35.5408C41.0144 35.5408 40.6394 35.5783 40.5269 35.6252Z" fill="#282B8B"/>
<path d="M43.4529 35.6438C42.9841 35.9156 42.8998 36.4031 43.256 36.8156C43.4716 37.0594 43.5279 37.0781 44.231 37.0781C44.8966 37.0781 45.0091 37.05 45.2248 36.8531C45.6185 36.4781 45.5248 35.9063 45.0279 35.6438C44.7654 35.5031 43.6966 35.5031 43.4529 35.6438Z" fill="#282B8B"/>
<path d="M34.8269 38.55C34.3769 38.7938 34.2644 39.3656 34.5831 39.7594L34.7612 39.9844H40.03H45.2987L45.4769 39.7594C45.655 39.5438 45.7112 39.15 45.5987 38.8594C45.4394 38.4469 45.2894 38.4375 40.0112 38.4375C36.58 38.4469 34.9581 38.475 34.8269 38.55Z" fill="#282B8B"/>
</g>
<defs>
<clipPath id="clip0_15707_78146">
<rect width="48" height="48" fill="white"/>
</clipPath>
</defs>
</svg>
