<svg width="49" height="48" viewBox="0 0 49 48" fill="none" xmlns="http://www.w3.org/2000/svg">
<path d="M12.2002 16H24.2002C24.2002 18.2091 22.4093 20 20.2002 20H12.2002V16Z" fill="#FF008A"/>
<path d="M34.2002 36L31.7002 38V39.5H34.2002H43.7002L42.7002 38L41.2002 37H38.7002L36.7002 36H34.2002Z" fill="#FF008A"/>
<path d="M4.2002 43.5C4.2002 42.1193 5.31948 41 6.7002 41H26.2002V46H6.7002C5.31948 46 4.2002 44.8807 4.2002 43.5Z" fill="#FF008A"/>
<path d="M22.2002 3H30.2002V8H27.2002C24.4388 8 22.2002 5.76142 22.2002 3Z" fill="#FF008A"/>
<path d="M24.6504 1.6875C23.2254 1.85625 22.0254 2.44687 20.9566 3.51562C20.3379 4.13437 20.1223 4.425 19.766 5.15625C19.0441 6.62812 18.8379 8.25 19.3254 8.64375C19.5035 8.78437 19.7285 8.8125 20.8816 8.8125H22.2316V9.60938V10.4062H21.7723C21.416 10.4062 21.2473 10.4625 21.041 10.6312L20.7785 10.8562L20.7504 12.8344L20.7223 14.8125H20.0379H19.3535L19.3066 13.8937C19.2691 13.1719 19.2129 12.8625 19.0254 12.45C18.5941 11.5125 17.7129 10.7344 16.766 10.4531L16.3723 10.3406L16.3254 8.86875C16.2785 7.45312 16.2691 7.37812 16.0535 7.20937C15.9316 7.11562 15.6973 7.03125 15.5285 7.03125H15.2285L15.1723 6.34687C15.1348 5.98125 15.0879 5.1 15.0504 4.40625C14.9941 3.00937 14.9004 2.57812 14.6379 2.4375C14.5348 2.38125 13.4754 2.34375 12.0785 2.34375C9.14413 2.34375 9.30351 2.27812 9.20038 3.57187C9.15351 4.05937 9.09726 5.03437 9.05976 5.7375L8.99413 7.03125H8.64726C8.40351 7.03125 8.23476 7.09687 8.09413 7.24687C7.90663 7.44375 7.88788 7.575 7.86913 8.89687L7.84101 10.3406L7.46601 10.4531C6.87538 10.6219 6.36913 10.9219 5.97538 11.3156C5.19726 12.0844 4.88788 12.8625 4.88788 14.0344V14.8125H3.58476C2.44101 14.8125 2.25351 14.8312 2.06601 14.9906L1.84101 15.1687V18.075C1.84101 21.5062 1.80351 21.375 2.78788 21.375H3.37851L3.40663 32.0344L3.43476 42.7031L3.65038 43.2562C4.20351 44.7094 5.29101 45.75 6.71601 46.1906C7.25038 46.35 8.14101 46.3594 26.2629 46.3594C44.6941 46.3594 45.2566 46.35 45.6035 46.1812C45.8004 46.0875 46.0723 45.8531 46.2129 45.675L46.466 45.3469L46.4941 42.8062C46.5129 41.4094 46.4941 40.1719 46.466 40.0594C46.391 39.7312 45.941 39.2719 45.5285 39.0844C45.2941 38.9719 44.9285 38.9062 44.5348 38.9062H43.9254L43.7098 38.4C43.0816 36.8812 41.3473 36.0562 39.8285 36.5344L39.2754 36.7031L38.8723 36.3281C37.8691 35.4 36.8004 35.0156 35.4035 35.0812C34.4473 35.1375 33.7535 35.3625 33.0129 35.8687L32.5441 36.1875V35.1562V34.125L32.8535 34.3125C33.266 34.5656 33.6316 34.5469 33.9035 34.2656C34.1848 33.9937 34.2035 33.5812 33.9598 33.2719C33.866 33.15 33.5098 32.8594 33.1629 32.625L32.5441 32.2031V26.7937V21.375H33.1441C33.6879 21.375 33.7723 21.3469 33.941 21.1312C34.1285 20.8875 34.1379 20.775 34.1379 18.0937C34.1379 15.4125 34.1285 15.3 33.941 15.0562L33.7535 14.8125H31.5973H29.4504V12.8531C29.4504 10.575 29.4316 10.5187 28.6723 10.4344L28.2316 10.3781V9.60938V8.83125L28.8691 8.79375C29.4504 8.75625 29.5066 8.76562 29.6848 8.99062C29.7879 9.12187 30.0879 9.45 30.3504 9.72187C31.1473 10.5094 32.9566 11.25 33.4629 10.9781C33.791 10.8 33.9785 10.4531 33.9035 10.1344C33.8285 9.75937 33.6223 9.60938 32.966 9.42188C31.6535 9.05625 30.8379 8.24062 30.6316 7.11562C30.5754 6.81562 30.6035 6.76875 30.8098 6.675C30.9504 6.60938 31.5223 6.5625 32.1691 6.5625C32.7973 6.5625 33.3879 6.51562 33.5191 6.45937C33.9129 6.27187 33.9598 5.99062 33.9316 3.95625C33.9035 2.1375 33.8941 2.0625 33.6879 1.85625L33.4723 1.64062L29.3754 1.63125C27.1254 1.62187 24.9973 1.65 24.6504 1.6875ZM30.0129 4.26562V5.33437L29.741 5.475C29.3379 5.69062 28.6254 6.53437 28.5035 6.94687L28.391 7.3125H24.5098C22.3816 7.3125 20.6379 7.30312 20.6379 7.28437C20.6379 7.09687 21.0035 6.1125 21.2191 5.69062C21.5754 5.025 22.5879 4.05 23.291 3.70312C24.2473 3.24375 24.5285 3.20625 27.3691 3.19687L30.0129 3.1875V4.26562ZM32.3566 4.125V5.0625H31.9348H31.5129V4.125V3.1875H31.9348H32.3566V4.125ZM13.5598 5.26875C13.5879 6.05625 13.6441 6.77812 13.6629 6.8625C13.7098 7.02187 13.5879 7.03125 12.1066 7.03125H10.4941L10.5504 6.44062C10.5785 6.12187 10.6254 5.40937 10.6629 4.84687L10.7191 3.84375H12.1066H13.4941L13.5598 5.26875ZM14.8254 9.42188V10.3125H12.1066H9.38788V9.42188V8.53125H12.1066H14.8254V9.42188ZM26.6379 9.60938V10.4062H25.1848H23.7316V9.60938V8.8125H25.1848H26.6379V9.60938ZM16.3535 11.9437C17.2629 12.2719 17.7316 12.975 17.8066 14.1187L17.8535 14.8125H12.116H6.38788V14.175C6.39726 13.125 6.80038 12.4406 7.65351 12.0375L8.12226 11.8125L12.0598 11.8219C15.1066 11.8219 16.0816 11.85 16.3535 11.9437ZM27.9504 13.4062V14.8125H25.1379H22.3254V13.4062V12H25.1379H27.9504V13.4062ZM11.5441 18.0937V19.875H7.46601H3.38788V18.0937V16.3125H7.46601H11.5441V18.0937ZM23.4504 19.7719V23.2406L23.1973 23.1094C23.0566 23.0344 22.8316 22.9969 22.7004 23.0344C22.166 23.1562 22.1848 22.9219 22.1379 28.3687L22.091 33.3937L21.866 33.5719C21.6035 33.7875 21.4816 33.7969 21.2379 33.6187C21.0691 33.4875 21.0598 33.3094 21.0129 29.3906L20.966 25.2937L20.741 25.1156C20.4598 24.8906 19.9723 24.8906 19.691 25.1156L19.466 25.2937L19.4379 30.225L19.4098 35.1562L19.1754 35.3062C18.8848 35.5031 18.5191 35.3719 18.3879 35.0062C18.3316 34.8656 18.2941 32.8969 18.2941 30.0375C18.2941 25.4344 18.2848 25.3031 18.1066 25.125C17.816 24.8344 17.2348 24.8719 16.991 25.1812C16.7941 25.425 16.7941 25.5281 16.7941 29.4C16.7941 33.2531 16.7848 33.3844 16.6066 33.5625C16.3629 33.8062 16.1754 33.7969 15.9035 33.5156L15.6691 33.2906V29.3344C15.6691 25.3969 15.6691 25.3687 15.4629 25.1531C15.2004 24.8719 14.6848 24.8625 14.3848 25.1437L14.1691 25.3406V28.05V30.7594L13.9348 30.9844C13.6629 31.2656 13.6066 31.275 13.2879 31.0219L13.0441 30.8344V23.5687V16.3125H18.2473H23.4504V19.7719ZM32.6379 18.0937V19.875H28.7941H24.9504V18.0937V16.3125H28.7941H32.6379V18.0937ZM11.5441 26.2687C11.5441 31.0406 11.5535 31.1719 11.741 31.5656C12.1066 32.3156 12.941 32.7844 13.7848 32.7L14.1691 32.6625V33.0844C14.1691 33.7312 14.366 34.2281 14.7879 34.6594C15.2285 35.1 15.7254 35.2781 16.4004 35.2406C16.7941 35.2125 16.8316 35.2312 16.8973 35.4656C17.2254 36.7031 18.6504 37.3031 19.8598 36.7031C20.366 36.45 20.7879 35.9531 20.8816 35.4844C20.9285 35.2031 20.9379 35.2031 21.566 35.2031C22.4191 35.2031 23.0004 34.8656 23.3754 34.1344L23.6379 33.6375V30.7312C23.6379 29.1375 23.6754 27.8438 23.7129 27.8625C23.7598 27.8719 25.4285 29.0531 27.416 30.4687L31.0441 33.0375V35.9719V38.9062H28.5598C26.5348 38.9062 26.0098 38.9344 25.7285 39.0469C25.2598 39.2437 25.0535 39.4406 24.8473 39.8906C24.6973 40.2187 24.6691 40.5375 24.6691 42.5437V44.8125L15.9316 44.7937L7.18476 44.7656L6.71601 44.5312C6.11601 44.2406 5.55351 43.6687 5.25351 43.0781L5.02851 42.6094L5.00038 31.9875L4.98163 21.375H8.26288H11.5441V26.2687ZM31.0441 26.25V31.125L30.0879 30.4406C29.5535 30.0656 27.9691 28.9406 26.5629 27.9469L24.0035 26.1281L24.3035 25.8375C24.8754 25.2844 24.9504 24.9937 24.9504 23.0812V21.375H27.9973H31.0441V26.25ZM36.6223 36.7594C37.2504 36.9469 37.691 37.3031 38.4598 38.2312C38.7785 38.6156 39.1441 38.625 39.7348 38.25C40.2129 37.95 40.8223 37.875 41.3285 38.0719C41.6004 38.175 42.2004 38.7 42.2004 38.8312C42.2004 38.8687 40.0535 38.9062 37.4285 38.9062H32.6473L32.7504 38.6156C33.0316 37.8 33.9035 36.975 34.7848 36.7125C35.3941 36.5156 35.9004 36.5344 36.6223 36.7594ZM44.9004 40.4812C44.9848 40.5469 45.0129 41.0437 44.9941 42.6656L44.966 44.7656H35.591H26.216L26.1879 42.7125C26.1691 41.2781 26.1973 40.6219 26.2723 40.5375C26.366 40.425 27.8848 40.4062 35.5816 40.4062C40.6348 40.4062 44.8348 40.4437 44.9004 40.4812Z" fill="#282B8B"/>
<path d="M40.7011 10.0035C39.7073 10.1723 38.7417 10.6691 37.973 11.4098C36.3605 12.966 35.9573 15.291 36.9511 17.316C37.523 18.4692 38.7136 19.491 39.9417 19.8848C41.2542 20.3067 43.0073 20.1004 44.123 19.3973C46.5511 17.8785 47.3011 14.6723 45.7823 12.3285C44.6855 10.6316 42.6136 9.68477 40.7011 10.0035ZM42.9698 11.8316C43.6542 12.1504 44.3386 12.8348 44.6948 13.5473C44.9386 14.0535 44.9667 14.2035 44.9667 15.0473C44.9667 15.891 44.9386 16.041 44.7042 16.5285C44.3573 17.2223 43.673 17.9066 42.9792 18.2535C42.4917 18.4879 42.3417 18.516 41.498 18.516C40.6542 18.516 40.5042 18.4879 39.998 18.2441C39.2855 17.8879 38.6573 17.2598 38.3105 16.5566C37.9636 15.8442 37.8792 14.7098 38.1136 13.9879C38.4511 12.9754 39.2011 12.1785 40.2042 11.7566C40.973 11.4285 42.1917 11.466 42.9698 11.8316Z" fill="#282B8B"/>
<path d="M41.0106 12.5158C40.7294 12.7126 40.6544 13.1345 40.8325 13.4908C40.9825 13.772 41.0669 13.8189 41.6575 13.922C42.1075 13.997 42.5481 14.4376 42.6231 14.8876C42.7262 15.497 42.7731 15.5814 43.0919 15.7126C43.4575 15.8626 43.9262 15.7501 44.0762 15.4689C44.3762 14.9158 44.0481 13.8283 43.3825 13.1626C42.6794 12.4595 41.5356 12.1501 41.0106 12.5158Z" fill="#282B8B"/>
<path d="M37.0639 23.2123C35.4796 23.9998 35.1327 26.156 36.3983 27.3842C37.6639 28.6217 39.7639 28.2748 40.5514 26.6998C41.0389 25.7248 40.8139 24.3842 40.0358 23.6529C39.2671 22.931 38.0014 22.7435 37.0639 23.2123ZM38.7327 24.6279C38.8827 24.7123 39.0702 24.9185 39.1639 25.0779C39.6327 25.9498 38.5639 26.9717 37.7296 26.4467C37.0921 26.0529 36.9889 25.2935 37.4952 24.8248C37.9171 24.431 38.3014 24.3654 38.7327 24.6279Z" fill="#282B8B"/>
</svg>
