<svg width="24" height="24" viewBox="0 0 24 24" fill="none" xmlns="http://www.w3.org/2000/svg">
<path d="M16.7185 20.5771C16.7185 20.6878 16.7241 20.7798 16.7172 20.8704C16.7035 21.0493 16.7028 21.2319 16.661 21.4045C16.4635 22.223 15.7917 22.7158 14.8707 22.7176C12.9579 22.7214 11.0451 22.7195 9.13233 22.7183C9.02298 22.7176 8.91362 22.7089 8.80552 22.697C8.01566 22.6113 7.39078 21.9873 7.30704 21.1962C7.2858 20.9974 7.28392 20.7954 7.2733 20.5915H0.0065C0.0065 21.0468 -0.0103719 21.4845 0.0102493 21.9203C0.0496171 22.762 0.450169 23.388 1.20191 23.7719C1.39937 23.8726 1.62183 23.9258 1.83242 24.0008H22.1725C22.2449 23.9783 22.3174 23.9558 22.3899 23.9345C23.2148 23.6913 23.7334 23.1535 23.9496 22.3212C23.9628 22.2705 23.9834 22.2218 24.0002 22.1717V20.5771H16.7185ZM1.28002 22.278C1.05193 22.2737 0.865718 22.0886 0.861344 21.8634C0.85697 21.6346 1.05818 21.4288 1.28814 21.4276C1.51935 21.4263 1.71806 21.6271 1.71556 21.8603C1.71369 22.0986 1.52122 22.283 1.28002 22.278ZM3.00158 22.278C2.75975 22.2768 2.57603 22.0898 2.58041 21.8478C2.58478 21.6202 2.7685 21.4338 2.9947 21.4276C3.22779 21.422 3.42525 21.6158 3.42775 21.8522C3.43025 22.0936 3.24403 22.2793 3.00158 22.278ZM6.00291 22.2774C5.78482 22.2862 5.56611 22.2793 5.3474 22.2793C5.13681 22.2793 4.9256 22.2862 4.71564 22.2774C4.46631 22.2668 4.29759 22.0961 4.29259 21.8659C4.28697 21.639 4.45381 21.4388 4.69564 21.4313C5.13994 21.4182 5.58548 21.4176 6.02978 21.4326C6.27348 21.4407 6.43345 21.6383 6.4272 21.8691C6.42095 22.1017 6.25598 22.2674 6.00291 22.2774Z" fill="white"/>
<path d="M23.1469 19.4162V19.695H0.868514C0.864764 19.6125 0.857891 19.53 0.857891 19.4474C0.857266 14.578 0.857266 9.70922 0.857891 4.83981C0.857891 3.94184 1.38717 3.41532 2.28763 3.41532C5.66951 3.41469 9.0514 3.41532 12.4327 3.41532H12.6601C12.6695 3.43658 12.6795 3.45784 12.6889 3.47847C12.487 3.67295 12.2827 3.86555 12.0827 4.06253C11.8046 4.33767 11.7309 4.66284 11.8684 5.02866C11.9402 5.21876 11.9515 5.3976 11.8015 5.55143C11.6509 5.70526 11.4722 5.70151 11.2816 5.62897C10.9067 5.4864 10.578 5.56269 10.2968 5.84971C10.1824 5.96727 10.0612 6.07858 9.95123 6.19989C9.48507 6.71454 9.48882 7.45867 9.96685 7.96206C10.1656 8.17029 10.3837 8.35977 10.6024 8.56675C10.5205 8.65305 10.4693 8.70932 10.4155 8.76373C8.95204 10.2282 7.48981 11.694 6.0232 13.1548C5.92134 13.2561 5.79262 13.3411 5.66139 13.4005C5.20022 13.61 4.73343 13.8082 4.26602 14.004C3.88421 14.164 3.59114 14.4204 3.39055 14.7812C3.0225 15.4428 2.65319 16.1044 2.29013 16.7685C2.05642 17.195 2.10891 17.5508 2.44885 17.8966C2.67318 18.1255 2.89814 18.3531 3.1281 18.5763C3.44054 18.8784 3.80423 18.944 4.17978 18.7408C4.88653 18.3587 5.58765 17.966 6.28628 17.5689C6.61559 17.3813 6.84242 17.0968 6.99052 16.7479C7.19548 16.267 7.39857 15.7855 7.60853 15.3065C7.65165 15.2096 7.71102 15.1114 7.78538 15.0364C9.28948 13.5243 10.7973 12.0154 12.3046 10.5065C12.332 10.479 12.362 10.4552 12.4252 10.399C12.6026 10.5859 12.7745 10.7754 12.9551 10.9555C13.54 11.5389 14.2961 11.5383 14.886 10.958C14.9809 10.8648 15.0753 10.7716 15.1678 10.676C15.4321 10.4015 15.5008 10.0819 15.3671 9.7261C15.2959 9.53601 15.2828 9.35779 15.4327 9.20333C15.5821 9.04888 15.7602 9.05075 15.9514 9.12329C16.3363 9.27024 16.665 9.18082 16.9543 8.89004C17.9516 7.88702 18.9527 6.88838 19.9525 5.88848C20.3781 5.46326 20.7968 5.03116 21.2304 4.61407C21.5704 4.28702 21.8678 3.94497 21.8566 3.44158C22.5127 3.39093 23.0851 3.93559 23.142 4.64533C23.1482 4.72287 23.1463 4.80104 23.1463 4.8792C23.1469 9.72485 23.1469 14.5705 23.1469 19.4162Z" fill="white"/>
<path d="M20.9393 3.20448C20.3263 1.72496 19.2858 0.67566 17.8073 0.0572133C17.5474 -0.0515934 17.3537 -0.00469397 17.1568 0.193534C15.714 1.64492 14.2655 3.09129 12.8157 4.53517C12.712 4.63897 12.6776 4.71839 12.7251 4.87472C13.0138 5.82459 12.1759 6.73757 11.2167 6.49557C10.9405 6.42616 10.7999 6.49244 10.6611 6.69192C10.6524 6.70443 10.6405 6.71506 10.6299 6.72694C10.4043 6.98082 10.4024 7.1853 10.6374 7.42167C11.6135 8.40093 12.5908 9.37894 13.5694 10.3557C13.7631 10.5489 13.9424 10.5808 14.1361 10.4695C14.4142 10.3094 14.5442 10.0718 14.4892 9.83356C14.4648 9.72788 14.453 9.61907 14.4448 9.57029C14.4467 8.63168 15.299 8.0076 16.1326 8.28212C16.2676 8.32652 16.3514 8.31839 16.4557 8.21209C17.9042 6.74382 19.3558 5.27993 20.8105 3.81792C20.9924 3.63533 21.0399 3.4471 20.9393 3.20448ZM14.5736 5.81396C14.3511 6.03533 14.0968 6.04283 13.9137 5.85023C13.735 5.66263 13.7512 5.42814 13.9693 5.20927C15.0491 4.12621 16.1314 3.04564 17.2112 1.96196C17.3593 1.81313 17.5386 1.74184 17.7174 1.84127C17.8442 1.91193 17.9261 2.06388 18.0398 2.19208C17.9486 2.34716 17.9029 2.47785 17.8155 2.56602C16.7388 3.65284 15.6571 4.73402 14.5736 5.81396ZM19.1102 3.6841C19.0696 3.74101 19.0177 3.78916 18.9678 3.83918C17.9198 4.88785 16.8731 5.9384 15.8202 6.98332C15.7152 7.08713 15.5752 7.15529 15.5071 7.20156C15.0997 7.18905 14.901 6.83074 15.0685 6.55247C15.1085 6.48681 15.1659 6.43116 15.2209 6.37613C16.2632 5.33184 17.3062 4.28879 18.3491 3.24575C18.4041 3.19072 18.4591 3.13382 18.5222 3.08879C18.6909 2.96936 18.9153 2.98749 19.0596 3.12694C19.2065 3.26826 19.2308 3.51339 19.1102 3.6841Z" fill="white"/>
<path d="M11.8353 9.85722C11.7559 9.90537 11.6703 9.93727 11.611 9.99667C10.1344 11.4687 8.65839 12.9413 7.19053 14.4215C7.04618 14.5672 6.92808 14.751 6.84122 14.9374C6.62376 15.4039 6.42879 15.8804 6.23008 16.355C6.12947 16.5951 5.97013 16.7733 5.74017 16.899C5.08466 17.2586 4.43291 17.6256 3.79427 17.9815C3.53994 17.7257 3.29312 17.4774 3.02441 17.2079C3.28312 16.7421 3.59306 16.2618 3.82427 15.7465C4.09922 15.1343 4.52227 14.7379 5.16277 14.5465C6.00699 14.2952 6.66313 13.7743 7.26989 13.1396C8.48342 11.8695 9.74569 10.6458 10.9867 9.40199C11.0467 9.34196 11.0961 9.26942 11.1623 9.1875C11.3916 9.41449 11.5829 9.60522 11.8353 9.85722Z" fill="white"/>
<path d="M15.8427 21.1357C15.7983 21.5296 15.4484 21.846 15.0372 21.8473C13.0144 21.8529 10.9917 21.8535 8.96956 21.8473C8.51839 21.846 8.17533 21.4927 8.15408 21.0438C8.14658 20.8968 8.15283 20.7498 8.15283 20.5879H15.8458C15.8458 20.7799 15.8621 20.96 15.8427 21.1357Z" fill="white"/>
</svg>
