<svg width="48" height="48" viewBox="0 0 48 48" fill="none" xmlns="http://www.w3.org/2000/svg">
<g clip-path="url(#clip0_15707_78080)">
<path d="M32 20H38C40.7614 20 43 22.2386 43 25H37C34.2386 25 32 22.7614 32 20Z" fill="#FF008A"/>
<path d="M28 37H34C36.7614 37 39 39.2386 39 42H33C30.2386 42 28 39.7614 28 37Z" fill="#FF008A"/>
<rect x="14" y="2" width="11" height="3" rx="1.5" fill="#FF008A"/>
<rect x="14" y="37" width="5" height="3" rx="1.5" fill="#FF008A"/>
<path d="M19.0031 0.112625C18.9188 0.178249 18.8156 0.347 18.7594 0.478249C18.6844 0.703247 18.6094 0.731373 18.0188 0.778248C16.3781 0.937622 14.4375 1.922 13.2375 3.22512C12.6094 3.90012 11.9531 4.97825 11.6156 5.87825C11.325 6.65637 11.3063 6.78762 11.2688 8.15637L11.2313 9.61887L10.9594 9.76888C10.4625 10.0595 10.3875 10.6689 10.7906 11.072C10.9594 11.2407 11.0719 11.2689 11.4938 11.2314L12 11.1845V11.597V12.0001H11.325C9.89063 12.0095 9 12.872 9 14.2501C9 14.9157 9.14063 15.3001 9.5625 15.7876C10.0219 16.3032 10.3406 16.4345 11.2781 16.5001L12.1031 16.547L12.3188 17.0814C12.4406 17.372 12.6938 17.8314 12.8906 18.0939C13.2281 18.5532 13.9969 19.247 14.2688 19.3314C14.3625 19.3689 14.325 19.5751 14.1281 20.1845L13.8656 21.0001H13.5094C13.3219 21.0001 13.0969 21.0564 13.0125 21.1126C12.9281 21.1782 12.5719 21.6845 12.2063 22.2282L11.5406 23.2314L10.8094 23.3907C9.12188 23.7657 7.51875 24.4595 6.4875 25.247C5.71875 25.8282 4.73438 26.9532 4.37813 27.647C3.75938 28.8282 3.75 28.8751 3.75 33.0751V36.8626L3.51562 37.0501C3.075 37.397 3 37.6782 3 39.0001C3 40.322 3.075 40.6033 3.51562 40.9501L3.75 41.1376V44.3814C3.75 47.5033 3.75938 47.6345 3.9375 47.8126C4.14375 48.0189 4.66875 48.0658 4.96875 47.9064C5.29688 47.7283 5.34375 47.3158 5.34375 44.2408V41.2501H7.54688H9.75V44.4376C9.75 47.5033 9.75938 47.6345 9.9375 47.8126C10.1438 48.0189 10.6688 48.0658 10.9688 47.9064C11.325 47.7095 11.3438 47.4283 11.3438 40.7908V34.3595L12.4969 34.0876C13.125 33.9376 13.7531 33.7595 13.8844 33.6939C14.2594 33.5064 14.3719 33.1407 14.2594 32.4282C13.9781 30.7032 12.7219 28.4157 10.6688 25.9032L10.1156 25.2282L10.4719 25.1345C11.2406 24.9282 11.6719 24.8532 11.7281 24.9189C11.7563 24.9564 12.5344 25.8845 13.4531 26.9907C15.0656 28.9314 15.1406 29.0439 15.5906 30.0845C16.0406 31.1345 16.5 32.7001 16.5 33.1501C16.5 33.272 16.5844 33.4595 16.6875 33.5626C16.8656 33.7407 16.9969 33.7501 19.5844 33.7501H22.3031L22.4906 33.5064C22.6031 33.3657 22.6875 33.122 22.6875 32.9532C22.6875 32.4939 23.0906 31.1908 23.5969 30.0095C24.0281 29.0157 24.1313 28.8751 25.7719 26.9064C27 25.4251 27.5344 24.8532 27.6469 24.8814C27.7313 24.9001 28.0406 24.9751 28.3406 25.0407C28.6406 25.1064 28.9031 25.1908 28.9219 25.2282C28.95 25.2564 28.65 25.6876 28.2563 26.1657C26.2781 28.622 25.0125 31.0501 24.8719 32.6251C24.7969 33.5439 24.9281 33.6564 26.5312 34.0595L27.7969 34.3689L27.8438 40.9876C27.8906 47.3251 27.9 47.6158 28.0688 47.8033C28.3406 48.1033 28.9875 48.0751 29.2406 47.7564C29.4281 47.5126 29.4375 47.4001 29.4375 44.7564V42.0001H31.6406H33.8438V43.3595V44.7189H32.4375C30.5344 44.7189 30.525 44.7376 30.5813 46.5939C30.6094 47.5595 30.6281 47.6533 30.8344 47.822C31.1438 48.0751 31.6969 48.0564 31.95 47.7845C32.1188 47.6064 32.1563 47.4564 32.1563 46.9408V46.3126H36.4219H40.6875V46.9126C40.6875 47.7095 40.9031 48.0001 41.4844 48.0001C41.8125 48.0001 41.9344 47.9533 42.0844 47.7564C42.2625 47.5314 42.2812 47.3814 42.2812 46.3408C42.2812 45.2345 42.2719 45.1689 42.0469 44.9533C41.8313 44.7283 41.7844 44.7189 40.4531 44.7189H39.0938V43.3689V42.0095L41.4656 41.9814C43.7531 41.9532 43.8375 41.9439 44.1844 41.7376C44.3719 41.6157 44.6344 41.3345 44.7656 41.1189C45 40.7251 45 40.6876 45 38.6532C45 36.3001 44.9344 36.0001 44.3344 35.3064C44.1281 35.072 43.725 34.772 43.425 34.622C42.9 34.3689 42.8531 34.3595 40.9969 34.3314L39.0938 34.2939V33.0001V31.7064L39.3563 31.6407C39.8344 31.5189 40.7344 31.0407 41.2219 30.6376C42.2156 29.8126 42.9938 28.5189 43.2656 27.2251C43.3594 26.7751 43.4062 25.9595 43.4062 24.5345C43.4062 22.7157 43.3875 22.4345 43.2094 21.9189C42.6656 20.297 41.3813 19.2564 39.6656 19.022C39.1969 18.9564 37.7531 18.9376 35.8875 18.9564C32.9719 18.9939 32.8406 19.0032 32.2969 19.2189C31.5375 19.5189 31.2563 19.697 30.6938 20.2501C29.9063 21.0282 29.4375 22.1251 29.4375 23.1751C29.4375 23.4189 29.4094 23.6251 29.3719 23.6251C29.325 23.6251 28.9219 23.5407 28.4531 23.4282L27.6094 23.2407L26.9719 22.2657C26.1844 21.0751 26.0813 20.972 25.6125 20.9814L25.2469 20.9907L25.0125 20.222L24.7688 19.4532L24.975 19.3126C25.6031 18.8814 26.3719 18.0095 26.6719 17.4095C26.85 17.0532 27 16.697 27 16.6314C27 16.5282 27.1875 16.5001 27.7781 16.5001C28.4906 16.5001 28.6031 16.472 29.0625 16.1907C29.4094 15.9939 29.6625 15.7407 29.8594 15.4314C30.1125 15.0189 30.1406 14.8876 30.1406 14.2501C30.1406 13.6126 30.1125 13.4814 29.8594 13.0689C29.6625 12.7595 29.4094 12.5064 29.0625 12.3001C28.6125 12.0376 28.4719 12.0001 27.8719 12.0001H27.1875V11.6251V11.2501H27.6094C28.4813 11.2501 28.8 10.472 28.1719 9.88137L27.8438 9.572V8.50325C27.8438 5.447 26.1375 2.7845 23.3156 1.45325C22.5281 1.07825 21.3375 0.750122 20.7469 0.750122C20.3719 0.750122 20.325 0.722 20.2313 0.468872C20.1844 0.309498 20.0625 0.140747 19.9688 0.0938721C19.725 -0.0373764 19.1906 -0.0186272 19.0031 0.112625ZM21.0938 2.447C22.9031 2.73763 24.45 3.797 25.3969 5.41887C25.9875 6.422 26.1844 7.10637 26.2313 8.35325L26.2688 9.43137L25.3406 9.31887C22.4625 8.95325 17.0719 8.90637 14.4375 9.22512C12.6562 9.45012 12.8438 9.54387 12.8438 8.36263C12.8438 7.21887 12.975 6.66575 13.4531 5.71887C14.8031 3.07512 17.5781 1.89388 21.0938 2.447ZM21.9844 10.6407C23.2219 10.6876 24.5906 10.8095 25.2938 10.922L25.6031 10.9782L25.575 13.4814C25.5469 15.9751 25.5469 15.9845 25.2938 16.5189C24.8906 17.3814 24.3844 17.7939 22.9219 18.4595C20.1656 19.7157 19.1063 19.7157 16.275 18.4876C14.7844 17.8407 14.1375 17.2876 13.7906 16.3782C13.6031 15.8532 13.5938 15.7032 13.6125 13.3783L13.6406 10.922L14.7188 10.8001C16.0125 10.6595 19.0969 10.5189 20.0156 10.5658C20.3813 10.5751 21.2625 10.6126 21.9844 10.6407ZM12 14.2501V15.0001H11.6719C11.1656 15.0001 10.7063 14.7751 10.6313 14.4939C10.4813 13.8939 10.875 13.5095 11.6531 13.5001H12V14.2501ZM28.3875 13.8282C28.8188 14.3345 28.4813 14.8783 27.6844 14.972L27.1875 15.0282V14.2501V13.472L27.6844 13.5282C28.05 13.5751 28.2281 13.6501 28.3875 13.8282ZM17.9719 20.822C19.4813 21.1876 21.5063 20.9439 22.9031 20.2407C23.175 20.1001 23.2688 20.0814 23.2969 20.1751C23.4938 20.7001 23.9062 21.9939 23.9062 22.0782C23.9062 22.172 19.7812 25.7907 19.6031 25.8564C19.5281 25.8845 15.3375 22.3126 15.2531 22.1439C15.2344 22.1064 15.3656 21.6282 15.5438 21.0751L15.8625 20.0814L16.5094 20.3532C16.8656 20.5032 17.5219 20.7189 17.9719 20.822ZM40.1719 20.7939C40.7344 21.047 41.2781 21.5626 41.5594 22.0782C41.7469 22.4251 41.7656 22.6126 41.7938 24.3751C41.8313 26.5033 41.7656 26.9814 41.3344 27.9095C40.7906 29.0532 39.7125 29.9251 38.5312 30.1876C38.1938 30.2626 37.3125 30.2907 35.9531 30.2626L33.8813 30.2345L33.2719 29.9345C32.5219 29.5595 31.9594 28.9782 31.5844 28.1814C31.1156 27.1876 31.0125 26.4376 31.05 24.3751C31.0781 22.6032 31.0875 22.5376 31.3313 22.0689C31.7156 21.3376 32.3719 20.822 33.1594 20.6345C33.3563 20.5876 34.9125 20.5501 36.6094 20.5595C39.6188 20.5782 39.7125 20.5876 40.1719 20.7939ZM25.8281 23.5032L26.1281 23.9439L24.7688 25.5751C24.0188 26.4657 23.3813 27.1689 23.3344 27.122C23.1188 26.8876 22.3125 25.8376 22.3125 25.7814C22.3125 25.6876 25.4344 22.9689 25.4906 23.0157C25.5094 23.0439 25.6594 23.2595 25.8281 23.5032ZM15.1688 24.2533C15.9281 24.9001 16.6313 25.5095 16.725 25.6032C16.8938 25.7626 16.8844 25.7814 16.35 26.4751C16.05 26.8595 15.7688 27.1689 15.7406 27.1595C15.7031 27.1501 15.0844 26.4282 14.3531 25.5564C12.8906 23.7939 12.9844 24.0376 13.4625 23.297C13.5469 23.1657 13.6594 23.0626 13.7063 23.0626C13.7531 23.0626 14.4094 23.597 15.1688 24.2533ZM10.125 27.8626C11.1469 29.2126 12 30.6376 12.3844 31.622C12.5344 32.0345 12.6562 32.372 12.6375 32.3907C12.6188 32.4001 12.3188 32.4845 11.9625 32.5689L11.325 32.7282L11.1 32.4845C10.8188 32.1845 10.2188 32.1564 9.9375 32.4376C9.75938 32.6157 9.75 32.747 9.75 34.6876V36.7501H7.54688H5.34375V33.0939C5.34375 28.9126 5.33438 28.9595 6.1875 27.8345C6.64688 27.2251 7.64062 26.3251 8.20312 26.0345L8.48438 25.8751L8.8875 26.3158C9.1125 26.5595 9.675 27.2533 10.125 27.8626ZM19.5844 27.7501C19.8656 27.7501 20.0344 27.6657 20.4281 27.3282C20.7 27.0939 20.9531 26.9064 21 26.9064C21.0375 26.9064 21.375 27.2814 21.75 27.7501L22.4156 28.5845L21.9938 29.6439C21.7594 30.2251 21.4781 31.0501 21.3656 31.472L21.1594 32.2501H19.5844H18.0094L17.8125 31.5658C17.5688 30.7314 17.0906 29.4095 16.8656 28.9595L16.7063 28.6314L17.4188 27.7314L18.1313 26.8314L18.675 27.2907C19.125 27.6657 19.2938 27.7501 19.5844 27.7501ZM30.2063 29.0532C30.825 30.2814 32.1469 31.3783 33.4031 31.6876L33.8438 31.8001V33.0564V34.3126H32.1281C30.9938 34.3126 30.2531 34.3595 29.925 34.4439L29.4375 34.5657V33.6564C29.4375 32.8782 29.4094 32.7095 29.2406 32.4939C28.9688 32.147 28.3125 32.147 28.05 32.4845L27.8625 32.7189L27.1969 32.5595C26.8313 32.4751 26.5312 32.372 26.5312 32.3251C26.5312 32.147 27.0375 30.9282 27.3469 30.3751C27.7688 29.6251 28.6219 28.3407 29.1563 27.6657L29.5594 27.1595L29.7281 27.797C29.8125 28.1439 30.0281 28.7064 30.2063 29.0532ZM37.5 33.0939V34.3126H36.4688H35.4375V33.0939V31.8751H36.4688H37.5V33.0939ZM42.6562 36.0564C42.8813 36.1501 43.1063 36.3282 43.2188 36.5157C43.3969 36.8064 43.4062 36.9564 43.3875 38.597L43.3594 40.3595H36.4219H29.4844L29.4563 38.6157C29.4375 36.9376 29.4375 36.8626 29.6438 36.5532C30.1031 35.8782 29.8406 35.9064 36.3938 35.9064C41.5688 35.9064 42.3188 35.9251 42.6562 36.0564ZM9.75 39.0001V39.7501H7.17188H4.59375V39.0001V38.2501H7.17188H9.75V39.0001ZM37.5 43.3595V44.7189H36.4688H35.4375V43.3595V42.0001H36.4688H37.5V43.3595Z" fill="#282B8B"/>
<path d="M14.6543 35.5875C14.0824 35.7938 13.4543 36.3938 13.1636 37.0125C12.6668 38.0625 12.8824 39.3844 13.6699 40.1531C14.0168 40.4906 18.2355 42.9844 18.6386 43.0875C19.023 43.1906 19.3605 42.9563 19.7355 42.3281C20.1199 41.6531 20.0355 41.6719 20.8793 42.1594L21.273 42.3844L21.0949 42.6844C20.8511 43.0781 20.8605 43.4344 21.123 43.725C21.3668 44.0063 24.123 45 24.6574 45C25.0699 45 25.2293 44.8406 25.7636 43.8938C26.1668 43.1906 26.2324 42.8813 26.0636 42.5625C25.923 42.3 23.4668 40.2281 23.223 40.1719C22.8949 40.0875 22.5199 40.275 22.3043 40.6406C22.1918 40.8188 22.0886 40.9688 22.0793 40.9688C22.0605 40.9688 21.7886 40.8188 21.4793 40.6406L20.9168 40.3031L21.2355 39.7125C21.5824 39.1031 21.648 38.6719 21.4511 38.4094C21.3011 38.2219 16.9605 35.7094 16.5105 35.55C16.0793 35.4 15.1324 35.4188 14.6543 35.5875ZM17.7105 38.0344C18.6668 38.5781 19.5011 39.0656 19.5668 39.1125C19.7355 39.2438 18.5918 41.1844 18.3855 41.1094C17.9168 40.9313 14.8136 39.0563 14.7011 38.8781C14.3449 38.3344 14.448 37.7438 14.9918 37.2844C15.5168 36.8438 15.7605 36.9094 17.7105 38.0344ZM23.8511 42.7031C24.1136 42.9375 24.2918 43.1438 24.2636 43.1813C24.2261 43.2094 23.9074 43.1438 23.5511 43.0219L22.9043 42.8156L23.0543 42.5531C23.1386 42.4031 23.2511 42.2813 23.298 42.2906C23.3543 42.2906 23.598 42.4781 23.8511 42.7031Z" fill="#282B8B"/>
</g>
<defs>
<clipPath id="clip0_15707_78080">
<rect width="48" height="48" fill="white"/>
</clipPath>
</defs>
</svg>
