<svg width="19" height="24" viewBox="0 0 19 24" fill="none" xmlns="http://www.w3.org/2000/svg">
<g clip-path="url(#clip0_54_6247)">
<path d="M17.7244 4.89746L13.7042 1.12852C13.2729 0.724219 12.6883 0.495117 12.0798 0.495117H2.3C1.03021 0.499609 0 1.46543 0 2.65586V21.3434C0 22.5338 1.03021 23.4996 2.3 23.4996H16.1C17.3698 23.4996 18.4 22.5338 18.4 21.3434V6.4248C18.4 5.8543 18.1556 5.30176 17.7244 4.89746ZM15.9131 6.24961H12.2667V2.83105L15.9131 6.24961ZM2.3 21.3434V2.65586H9.96667V7.32773C9.96667 7.9252 10.4794 8.40586 11.1167 8.40586H16.1V21.3434H2.3ZM14.2888 14.8881C13.7042 14.349 12.0367 14.4973 11.2029 14.5961C10.3788 14.1244 9.82771 13.473 9.43959 12.5162C9.62646 11.793 9.92354 10.6924 9.69834 10.0006C9.49709 8.82363 7.88709 8.94043 7.65709 9.73555C7.44625 10.4588 7.63792 11.465 7.9925 12.7498C7.51334 13.8234 6.79938 15.2654 6.29625 16.092C5.33792 16.5547 4.04417 17.2689 3.8525 18.1674C3.69438 18.8771 5.09833 20.6471 7.49896 16.7658C8.57229 16.4334 9.74146 16.0246 10.7765 15.8629C11.6821 16.3211 12.741 16.6266 13.4502 16.6266C14.6721 16.6266 14.7919 15.3598 14.2888 14.8881ZM4.79646 18.383C5.04083 17.7676 5.97042 17.0578 6.25313 16.8107C5.34271 18.1719 4.79646 18.4145 4.79646 18.383ZM8.70646 9.8209C9.06104 9.8209 9.0275 11.2629 8.79271 11.6537C8.58188 11.0293 8.58667 9.8209 8.70646 9.8209ZM7.53729 15.9572C8.00209 15.198 8.39979 14.2951 8.72084 13.5C9.11854 14.1783 9.62646 14.7219 10.1631 15.0947C9.16646 15.2879 8.29917 15.6832 7.53729 15.9572ZM13.8431 15.7326C13.8431 15.7326 13.6035 16.0021 12.0558 15.3822C13.7377 15.2654 14.0156 15.6248 13.8431 15.7326Z" fill="#858585"/>
</g>
<defs>
<clipPath id="clip0_54_6247">
<rect width="18.4" height="23" fill="white" transform="translate(0 0.5)"/>
</clipPath>
</defs>
</svg>
