<svg width="49" height="48" viewBox="0 0 49 48" fill="none" xmlns="http://www.w3.org/2000/svg">
<g clip-path="url(#clip0_15707_2815)">
<path d="M47.4076 3.20826C44.5089 3.20693 41.6088 3.20027 38.7101 3.21759C38.3396 3.21893 38.0957 3.10696 37.8545 2.83506C37.1588 2.04998 36.4218 1.3009 35.7288 0.513162C35.4036 0.143952 35.0438 0 34.552 0C26.7874 0.011996 19.0229 0.00799733 11.257 0.00933022C10.3374 0.00933022 10.1068 0.238587 10.1068 1.15695C10.1055 4.82239 10.1015 8.48784 10.1135 12.1533C10.1148 12.4892 10.0229 12.6251 9.69502 12.7504C4.39338 14.7684 1.29076 18.5765 0.595068 24.2213C-0.121947 30.0367 3.32319 35.8294 8.73812 38.094C9.18192 38.2806 9.63505 38.4445 10.1055 38.6271C10.1055 40.2972 10.1055 41.962 10.1068 43.6268C10.1068 44.5785 10.3294 44.7997 11.2837 44.7997C13.532 44.8011 15.7803 44.7997 18.1046 44.7997V46.895C18.1073 47.7481 18.3538 47.9987 19.2001 48H47.3943C48.2486 48 48.5004 47.7507 48.5004 46.9044V4.3159C48.5004 3.46018 48.2526 3.20826 47.4076 3.20826ZM35.7275 2.88437C38.0584 5.4062 40.3254 7.86005 42.6564 10.3832H35.7275V2.88437ZM2.10773 25.5541C2.11439 18.963 7.51199 13.5981 14.1277 13.6061C20.7528 13.6141 26.1157 19.007 26.1024 25.6501C26.0891 32.2266 20.7021 37.6075 14.1357 37.6008C7.47201 37.5955 2.09973 32.2146 2.10773 25.5541ZM11.7235 43.1736V38.9883C14.7901 39.5108 17.6901 39.047 20.3783 37.6621C22.2321 39.5175 24.0593 41.3476 25.8838 43.1736H11.7235ZM19.7439 46.3899V44.8277C19.8745 44.8197 20.0184 44.8011 20.161 44.8011C22.5227 44.7997 24.8843 44.7931 27.2446 44.8131C27.4765 44.8144 27.747 44.9424 27.9269 45.097C28.3627 45.4715 28.7559 45.8954 29.257 46.3899H19.7439ZM33.1593 45.7341C32.1757 46.2086 31.1388 46.0113 30.2872 45.1636C28.1522 43.0377 26.0238 40.905 23.8914 38.7751C23.233 38.118 22.572 37.4622 21.9629 36.8557C23.1051 35.7148 24.2072 34.6138 25.3414 33.4808C25.3441 33.4808 25.4294 33.5395 25.5027 33.6128C28.2454 36.3559 30.9922 39.095 33.7257 41.8461C34.9745 43.1043 34.6879 44.997 33.1593 45.7341ZM26.5182 32.3599C26.3889 32.2306 26.2277 32.1346 26.1171 32.0507C28.4947 26.955 28.3361 22.0873 25.0549 17.5955C21.7857 13.121 17.2103 11.4882 11.7328 12.1773V1.63679H34.1028V2.19394C34.1028 5.09297 34.1015 7.992 34.1028 10.891C34.1028 11.7667 34.3467 12.0053 35.237 12.0067H43.6653V43.1869H36.1219C36.0913 43.1123 36.046 43.0417 36.034 42.9643C35.8887 42.0207 35.4236 41.2582 34.7546 40.5918C32.0051 37.8514 29.265 35.1016 26.5182 32.3599ZM46.8758 46.3619H35.0971C35.345 45.8967 35.5689 45.4209 35.8527 44.981C35.9287 44.8624 36.1819 44.8091 36.3552 44.8077C38.954 44.7971 41.5529 44.8011 44.153 44.7997C45.0673 44.7997 45.3005 44.5665 45.3005 43.6481C45.3005 32.9504 45.2992 22.2539 45.3085 11.5575C45.3085 11.0896 45.1713 10.7378 44.8541 10.3979C43.2255 8.65845 41.6168 6.9017 40.0016 5.15028C39.9256 5.06764 39.8563 4.97834 39.7323 4.83172H46.8758V46.3619Z" fill="#FF008A"/>
<path d="M31.6798 8.04248H14.9473V9.58063H31.6798V8.04248Z" fill="#FF008A"/>
<path d="M42.0779 14.4326H27.7256V15.9708H42.0779V14.4326Z" fill="#FF008A"/>
<path d="M42.0796 18.4297H27.7354V19.9705H42.0796V18.4297Z" fill="#FF008A"/>
<path d="M42.0781 22.438H29.3438V23.9788H42.0781V22.438Z" fill="#FF008A"/>
<path d="M31.6908 4.04932H22.1377V5.57148H31.6908V4.04932Z" fill="#FF008A"/>
<path d="M42.0791 26.439H34.1426V27.9771H42.0791V26.439Z" fill="#FF008A"/>
<path d="M19.6643 4.0332H14.9277V5.57269H19.6643V4.0332Z" fill="#FF008A"/>
<path d="M32.481 26.439H29.3438V27.9771H32.481V26.439Z" fill="#FF008A"/>
<path d="M14.254 15.2071C8.37794 15.1831 3.71735 19.8016 3.70802 25.6543C3.70002 31.3298 8.38061 35.9869 14.1061 36.0015C19.7955 36.0162 24.4935 31.3391 24.5028 25.6516C24.5121 19.9429 19.8875 15.2298 14.254 15.2071ZM14.0554 34.4021C9.26288 34.3914 5.30997 30.4327 5.30731 25.641C5.30464 20.7666 9.24689 16.7973 14.0794 16.8079C18.9852 16.8173 22.9008 20.7399 22.9008 25.641C22.9008 30.4767 18.9266 34.4114 14.0554 34.4021Z" fill="#FF008A"/>
</g>
<defs>
<clipPath id="clip0_15707_2815">
<rect width="48" height="48" fill="white" transform="translate(0.5)"/>
</clipPath>
</defs>
</svg>
