<svg width="20" height="25" viewBox="0 0 20 25" fill="none" xmlns="http://www.w3.org/2000/svg">
<path fill-rule="evenodd" clip-rule="evenodd" d="M6.60486 2C6.60486 1.17157 7.25629 0.5 8.05987 0.5H9.02987C9.40253 0.5 9.74246 0.644427 9.99988 0.881946C10.2573 0.644427 10.5972 0.5 10.9699 0.5H11.9399C12.7435 0.5 13.3949 1.17157 13.3949 2V2.58535C13.5466 2.53007 13.7098 2.5 13.8799 2.5H14.8499C15.6535 2.5 16.3049 3.17157 16.3049 3.99999V7.49999H17.6647C18.522 7.49999 19.1934 8.26013 19.1134 9.14L17.7578 24.0466C17.7328 24.3216 17.4964 24.5236 17.2297 24.4978C16.963 24.472 16.767 24.2282 16.792 23.9533L18.1476 9.04666C18.1743 8.75337 17.9505 8.49999 17.6647 8.49999H16.2703C16.1956 8.89084 16.0037 9.25472 15.7274 9.57768C15.3697 9.99583 14.8673 10.3513 14.2715 10.6377C13.6733 10.9254 12.9755 11.1461 12.2213 11.2923C11.4664 11.4386 10.663 11.5085 9.85728 11.4992C9.05158 11.4898 8.25507 11.4013 7.51353 11.2373C6.77295 11.0736 6.09422 10.8361 5.5204 10.5329C4.94913 10.2311 4.47441 9.8601 4.15094 9.42583C3.93861 9.14078 3.79237 8.82863 3.72949 8.49999H2.33502C2.04928 8.49999 1.82546 8.75337 1.85213 9.04666L3.12527 23.0466C3.14863 23.3036 3.35783 23.5 3.60815 23.5H14.8499C15.1178 23.5 15.3349 23.7238 15.3349 24C15.3349 24.2761 15.1178 24.5 14.8499 24.5H3.60815C2.85719 24.5 2.22959 23.9108 2.15949 23.14L0.886361 9.14C0.806346 8.26013 1.4778 7.49999 2.33502 7.49999H3.69484V3.99999C3.69484 3.17157 4.34627 2.5 5.14985 2.5H6.11985C6.28991 2.5 6.45316 2.53007 6.60486 2.58535V2ZM4.66484 7.91785C4.67167 7.96027 4.67326 8.00431 4.66896 8.04915C4.64665 8.28194 4.7139 8.53972 4.92028 8.81678C5.13099 9.09967 5.47636 9.38599 5.96282 9.64302C6.1592 9.74677 6.37392 9.84328 6.60486 9.93131V3.99999C6.60486 3.72385 6.38771 3.49999 6.11985 3.49999H5.14985C4.88199 3.49999 4.66484 3.72385 4.66484 3.99999V7.91785ZM7.52759 10.2156C7.58998 10.2308 7.6531 10.2455 7.71695 10.2596C8.28404 10.385 8.89211 10.4629 9.51488 10.4896V2C9.51488 1.72386 9.29773 1.5 9.02987 1.5H8.05987C7.79201 1.5 7.57486 1.72386 7.57486 2V9.99998C7.57486 10.0772 7.55789 10.1503 7.52759 10.2156ZM10.4849 10.4896C11.0192 10.4667 11.5439 10.406 12.0421 10.3095C12.1724 10.2842 12.3 10.2567 12.4249 10.227V2C12.4249 1.72386 12.2078 1.5 11.9399 1.5H10.9699C10.702 1.5 10.4849 1.72386 10.4849 2V10.4896ZM13.3949 9.93131C13.5586 9.8689 13.7144 9.80214 13.8615 9.73144C14.3757 9.48419 14.7554 9.20203 14.9999 8.91622C15.2407 8.63482 15.3342 8.37082 15.3349 8.13754V3.99999C15.3349 3.72385 15.1178 3.49999 14.8499 3.49999H13.8799C13.612 3.49999 13.3949 3.72385 13.3949 3.99999V9.93131Z" fill="#FF008A"/>
<path d="M12.0535 18.1572C12.509 17.1574 12.0922 15.9663 11.1224 15.4966C10.1526 15.027 8.99717 15.4567 8.54161 16.4565C8.08605 17.4562 8.5029 18.6474 9.47267 19.117C9.71511 19.2345 9.81932 19.5322 9.70543 19.7822C9.59154 20.0321 9.30268 20.1396 9.06023 20.0221C7.60558 19.3177 6.98031 17.5309 7.66365 16.0313C8.34699 14.5316 10.0802 13.887 11.5348 14.5915C12.9895 15.296 13.6148 17.0828 12.9314 18.5824C12.5977 19.3147 12.0128 19.8436 11.3335 20.1103C11.0832 20.2086 10.803 20.079 10.7076 19.821C10.6123 19.5629 10.7379 19.2741 10.9882 19.1758C11.4421 18.9976 11.8309 18.6457 12.0535 18.1572Z" fill="#FF008A"/>
</svg>
