<svg width="21" height="20" viewBox="0 0 21 20" fill="none" xmlns="http://www.w3.org/2000/svg">
<g clip-path="url(#clip0_15514_68084)">
<path d="M19.9975 8.26113L11.8397 8.26074C11.4795 8.26074 11.1875 8.5527 11.1875 8.91293V11.519C11.1875 11.8791 11.4795 12.1712 11.8397 12.1712H16.4337C15.9306 13.4767 14.9917 14.57 13.7938 15.2647L15.7527 18.6557C18.895 16.8384 20.7527 13.6497 20.7527 10.0803C20.7527 9.57203 20.7152 9.20871 20.6403 8.79961C20.5834 8.48879 20.3135 8.26113 19.9975 8.26113Z" fill="#167EE6"/>
<path d="M10.7496 16.0871C8.50137 16.0871 6.53871 14.8587 5.48461 13.041L2.09375 14.9955C3.81934 17.9862 7.05191 20.0001 10.7496 20.0001C12.5635 20.0001 14.2751 19.5117 15.7496 18.6606V18.6559L13.7907 15.2649C12.8947 15.7846 11.8578 16.0871 10.7496 16.0871Z" fill="#12B347"/>
<path d="M15.75 18.6603V18.6557L13.7911 15.2646C12.8951 15.7843 11.8583 16.0868 10.75 16.0868V19.9998C12.5639 19.9998 14.2756 19.5114 15.75 18.6603Z" fill="#0F993E"/>
<path d="M4.66305 10.0002C4.66305 8.89207 4.96547 7.85531 5.48504 6.95934L2.09418 5.00488C1.23836 6.47469 0.75 8.18164 0.75 10.0002C0.75 11.8188 1.23836 13.5258 2.09418 14.9956L5.48504 13.0411C4.96547 12.1452 4.66305 11.1084 4.66305 10.0002Z" fill="#FFD500"/>
<path d="M10.7496 3.91305C12.2156 3.91305 13.5623 4.43398 14.6141 5.30051C14.8736 5.51426 15.2507 5.49883 15.4884 5.26113L17.3349 3.41465C17.6046 3.14496 17.5854 2.70352 17.2973 2.45359C15.535 0.924727 13.242 0 10.7496 0C7.05191 0 3.81934 2.01395 2.09375 5.00465L5.48461 6.9591C6.53871 5.14141 8.50137 3.91305 10.7496 3.91305Z" fill="#FF4B26"/>
<path d="M14.6145 5.30051C14.874 5.51426 15.2512 5.49883 15.4889 5.26113L17.3354 3.41465C17.605 3.14496 17.5858 2.70352 17.2977 2.45359C15.5354 0.924688 13.2425 0 10.75 0V3.91305C12.216 3.91305 13.5627 4.43398 14.6145 5.30051Z" fill="#D93F21"/>
</g>
<defs>
<clipPath id="clip0_15514_68084">
<rect width="20" height="20" fill="white" transform="translate(0.75)"/>
</clipPath>
</defs>
</svg>
