<svg width="62" height="63" viewBox="0 0 62 63" fill="none" xmlns="http://www.w3.org/2000/svg">
<path d="M61.8886 52.1224C61.2153 49.8718 59.9802 47.9844 58.1072 46.57C57.2031 45.8887 56.1794 45.364 55.2171 44.773C56.9157 42.6451 57.3096 41.9008 57.3597 40.3379C57.4194 38.5344 56.7994 36.9748 55.4932 35.7155C53.2586 33.56 49.734 33.4616 47.3945 35.4781C46.2126 36.4953 45.4941 37.7805 45.3133 39.3223C45.0566 41.5197 45.8429 43.3442 47.5462 44.8425C45.6039 45.5868 44.0361 46.7121 42.7671 48.2427C40.1175 45.2929 39.7236 44.7779 35.4272 42.8824C39.9803 39.479 39.3926 33.7699 36.4767 30.9235C33.4057 27.9285 28.583 27.935 25.5201 30.9235C22.6413 33.7312 21.989 39.4515 26.5712 42.884C22.5105 44.7036 22.1376 45.0071 19.2329 48.2427C17.9574 46.6992 16.3703 45.5771 14.4764 44.8441C17.6167 42.0299 17.1533 38.021 15.0043 35.8414C12.7536 33.5568 9.06911 33.418 6.67953 35.554C5.43146 36.6696 4.74365 38.0727 4.65 39.7389C4.53375 41.7845 5.35073 43.4539 6.91042 44.8376C6.70698 44.9296 6.56651 44.9958 6.42443 45.0556C4.79693 45.7401 3.41807 46.7654 2.2701 48.1054C1.20609 49.347 0.52151 50.7937 0 52.3275V53.5384C0.0403646 53.6272 0.0920312 53.7127 0.121094 53.8048C0.616771 55.3192 1.78896 56.1878 3.3874 56.1911C7.54333 56.1975 11.6993 56.1927 15.8568 56.1927H16.6754C16.6754 56.7029 16.6738 57.1775 16.6754 57.6538C16.6899 60.5955 18.5903 62.4975 21.5272 62.4975C27.8435 62.5007 34.1581 62.5007 40.4744 62.4975C43.4113 62.4975 45.3084 60.5972 45.3246 57.6522C45.3262 57.1921 45.3246 56.7319 45.3246 56.1927H57.949C60.3289 56.1927 61.0813 55.7002 62 53.5384V52.3275C61.9629 52.2597 61.9112 52.1951 61.8886 52.1224ZM6.5649 40.0989C6.55036 37.845 8.40391 35.9786 10.6659 35.9722C12.9522 35.9657 14.7799 37.7772 14.7896 40.0586C14.7993 42.3335 12.9716 44.187 10.7063 44.1999C8.45719 44.2112 6.57943 42.3528 6.5649 40.0989ZM17.9703 50.5466C17.4956 51.7365 17.1033 52.9604 16.6496 54.2552H16.162C11.9867 54.2552 7.81135 54.2568 3.63604 54.2552C2.19745 54.2552 1.64042 53.4835 2.14901 52.1402C3.37932 48.8998 5.70594 46.8784 9.11594 46.2939C12.6438 45.6869 15.5807 46.8622 17.8654 49.6393C18.1124 49.9396 18.1205 50.1704 17.9703 50.5466ZM25.181 36.4581C25.173 33.2097 27.7741 30.6038 31.0145 30.6135C34.2356 30.6232 36.8157 33.2097 36.819 36.4291C36.8206 39.6259 34.2098 42.2511 31.0145 42.2608C27.8241 42.2705 25.1891 39.6501 25.181 36.4581ZM43.3403 58.3239C43.2579 59.6139 42.0857 60.5552 40.6875 60.5584C37.439 60.5681 34.1904 60.5616 30.9419 60.5616C27.7934 60.5616 24.645 60.5632 21.4982 60.56C19.664 60.5584 18.692 59.5073 18.5968 57.6668C18.445 54.7299 19.0376 52.0223 20.7199 49.5795C23.6068 45.3898 28.8413 43.3506 33.7884 44.5018C38.792 45.6659 42.6234 49.7458 43.3112 54.7606C43.471 55.9295 43.4161 57.1404 43.3403 58.3239ZM47.2104 40.0376C47.2266 37.7611 49.064 35.9593 51.3551 35.9722C53.6106 35.9867 55.4658 37.8725 55.4351 40.1215C55.4044 42.3787 53.5202 44.2241 51.2711 44.1999C49.0058 44.1757 47.1943 42.3189 47.2104 40.0376ZM58.6384 54.2504C54.2419 54.2617 49.8454 54.2536 45.4489 54.252C45.3908 54.252 45.331 54.2326 45.3617 54.2375C44.8709 52.8813 44.3978 51.6219 43.9716 50.348C43.9086 50.1591 43.999 49.8491 44.1282 49.6764C46.6259 46.3537 51.2436 45.1928 55.0444 46.9317C57.4646 48.0392 59.0954 49.8718 59.943 52.392C60.2869 53.4173 59.7121 54.2472 58.6384 54.2504Z" fill="#FF008A"/>
<path d="M18.9714 14.9481C18.6953 14.3055 18.1495 14.1118 17.5021 14.0843C16.0506 14.0214 14.6007 13.9423 13.1492 13.8906C12.7746 13.8777 12.5889 13.7405 12.4581 13.3788C11.9673 12.0161 11.4377 10.6648 10.9194 9.31176C10.6207 8.53033 10.1703 8.15414 9.53088 8.17674C8.7801 8.20419 8.38937 8.66595 8.14557 9.32952C7.64667 10.6906 7.11224 12.0387 6.61979 13.403C6.49708 13.7405 6.32109 13.8745 5.9675 13.8874C4.61771 13.9358 3.26792 14.0408 1.91812 14.0601C1.09469 14.0714 0.427865 14.2894 0 15.0305V15.8781C0.293854 16.1994 0.557031 16.5594 0.888021 16.8371C1.87776 17.6654 2.87234 18.4904 3.90891 19.259C4.38359 19.6125 4.51437 19.9338 4.33516 20.5118C3.92828 21.818 3.59891 23.1484 3.24208 24.4707C3.0225 25.286 3.16297 25.8253 3.71031 26.1966C4.30932 26.6035 4.88411 26.4824 5.45406 26.103C6.68115 25.2893 7.92276 24.4998 9.14338 23.678C9.44047 23.4761 9.65359 23.4761 9.95068 23.6763C11.1697 24.4981 12.4129 25.2876 13.6368 26.1046C14.2099 26.4889 14.7831 26.5954 15.3805 26.1966C15.9036 25.8463 16.0635 25.2844 15.8633 24.5288C15.4903 23.1274 15.1222 21.7244 14.7169 20.3326C14.5991 19.929 14.6394 19.6868 14.9946 19.4139C16.1781 18.505 17.3342 17.5605 18.4886 16.6143C19.065 16.1429 19.2265 15.5423 18.9714 14.9481ZM13.3849 18.224C12.6212 18.7843 12.4323 19.4446 12.7068 20.3326C13.0426 21.4208 13.3106 22.5316 13.6513 23.7926C12.5663 23.0806 11.6089 22.4896 10.6918 21.839C9.91677 21.2884 9.21443 21.2578 8.4249 21.8261C7.4949 22.4977 6.51 23.0935 5.42661 23.8023C5.77536 22.5268 6.05792 21.395 6.39698 20.281C6.65531 19.4382 6.46641 18.8053 5.75437 18.2692C4.8276 17.5701 3.94281 16.8178 2.90786 15.9814C4.25604 15.9072 5.43469 15.8135 6.61495 15.7893C7.46422 15.7715 7.95505 15.3824 8.23276 14.6042C8.62833 13.495 9.06427 12.4004 9.54219 11.1459C9.98943 12.318 10.4286 13.332 10.7612 14.3782C11.076 15.3679 11.6557 15.8184 12.71 15.8087C13.8111 15.7958 14.9123 15.912 16.1878 15.9814C15.169 16.8032 14.3036 17.5492 13.3849 18.224Z" fill="#FF008A"/>
<path d="M60.0818 14.0601C58.732 14.0391 57.3822 13.9358 56.0324 13.8874C55.6772 13.8745 55.5029 13.7372 55.3818 13.4014C54.8877 12.0387 54.3549 10.689 53.856 9.32791C53.6122 8.66434 53.2182 8.20419 52.4691 8.17675C51.8281 8.15414 51.3824 8.52872 51.0821 9.31338C50.5638 10.6664 50.0343 12.0177 49.5434 13.382C49.4126 13.7437 49.2254 13.8777 48.8508 13.8906C47.3799 13.9439 45.909 14.0133 44.4381 14.0908C43.647 14.1328 43.1723 14.4622 42.9914 15.0644C42.7816 15.7586 43.0641 16.2688 43.6034 16.6951C44.7255 17.5847 45.8267 18.5034 46.9601 19.3768C47.3121 19.6497 47.4235 19.8838 47.2879 20.3326C46.881 21.6824 46.5322 23.0499 46.1641 24.4093C45.9348 25.2554 46.0737 25.8285 46.621 26.1966C47.2426 26.6148 47.8287 26.4663 48.4164 26.0723C49.6048 25.2764 50.8189 24.5175 52.0024 23.7119C52.3383 23.4842 52.5724 23.4729 52.9131 23.7054C54.0788 24.4998 55.2768 25.2473 56.4458 26.0368C57.0448 26.4421 57.6389 26.6374 58.2896 26.1966C58.858 25.8124 58.9807 25.2764 58.732 24.3528C58.3913 23.0886 58.0894 21.8132 57.6842 20.57C57.4775 19.9371 57.6293 19.6012 58.1427 19.2251C59.1518 18.4872 60.1125 17.6832 61.0683 16.8775C61.4138 16.5853 61.6932 16.2139 62.0016 15.8781V15.0305C61.5737 14.2862 60.9069 14.0731 60.0818 14.0601ZM56.4296 18.1175C55.5723 18.7326 55.2978 19.4317 55.6546 20.4602C56.0147 21.5016 56.2439 22.5881 56.5652 23.7894C55.5287 23.1113 54.5696 22.5365 53.6703 21.881C52.8307 21.2691 52.0896 21.2642 51.2484 21.8858C50.3636 22.5397 49.4094 23.1 48.3486 23.7926C48.6732 22.5962 48.9137 21.5387 49.2512 20.5118C49.5886 19.4898 49.39 18.7391 48.4794 18.1062C47.6059 17.4975 46.8083 16.779 45.8977 16.046C46.1141 16.0024 46.2513 15.9556 46.3918 15.9475C47.4396 15.8878 48.4859 15.8071 49.5354 15.7877C50.3814 15.7732 50.8755 15.3857 51.1467 14.5994C51.468 13.6662 51.841 12.7507 52.1946 11.8305C52.264 11.6496 52.348 11.4736 52.4739 11.1814C52.9373 12.4004 53.3748 13.4967 53.7688 14.6075C54.0465 15.3889 54.5422 15.7715 55.3882 15.7893C56.5685 15.8135 57.7455 15.9088 59.0985 15.9831C58.1201 16.7709 57.3063 17.4894 56.4296 18.1175Z" fill="#FF008A"/>
<path d="M31.9819 1.90465C31.9415 2.89114 31.977 3.88085 31.9674 4.86895C31.9609 5.57612 31.5766 5.98944 30.9712 5.9733C30.3915 5.95715 30.0412 5.55513 30.0347 4.86733C30.0266 3.87923 30.0621 2.88952 30.0218 1.90304C29.9992 1.3105 30.1429 0.840668 30.6386 0.5H31.3651C31.8576 0.842283 32.0045 1.31211 31.9819 1.90465Z" fill="#FF008A"/>
<path d="M39.9547 14.3842C39.6528 14.1921 39.2394 14.1162 38.8713 14.0936C37.4618 14.0016 36.0523 13.9418 34.6411 13.8966C34.2439 13.8837 34.0405 13.7448 33.9016 13.3574C33.406 11.9753 32.8586 10.611 32.35 9.2322C32.1159 8.59769 31.7058 8.21343 31.0228 8.17952C30.3964 8.14884 29.9314 8.51373 29.6504 9.2435C29.1354 10.5771 28.601 11.9043 28.1343 13.254C27.9664 13.7465 27.7016 13.8918 27.2253 13.9063C25.7948 13.9499 24.3643 14.0177 22.9354 14.0968C22.1491 14.1388 21.7115 14.4714 21.521 15.1091C21.3192 15.7872 21.6147 16.2716 22.1297 16.6817C23.2793 17.6004 24.4143 18.5368 25.5736 19.4442C25.8707 19.6751 25.9563 19.8785 25.8465 20.2563C25.4364 21.6674 25.0666 23.0898 24.6888 24.509C24.4822 25.284 24.6291 25.8055 25.1441 26.1865C25.6447 26.5578 26.2275 26.5417 26.8863 26.1155C28.1198 25.3163 29.3582 24.5203 30.5756 23.6953C30.8953 23.4789 31.1197 23.4838 31.4329 23.6953C32.6358 24.5058 33.8516 25.2985 35.0738 26.0816C35.3531 26.2608 35.6761 26.3754 35.8149 26.4416C36.9597 26.4642 37.6039 25.6359 37.3552 24.6753C36.9823 23.2335 36.6012 21.7917 36.1782 20.3645C36.0506 19.9302 36.1104 19.6783 36.4753 19.3974C37.6572 18.4868 38.818 17.5487 39.9676 16.5977C40.7491 15.9503 40.7523 14.8928 39.9547 14.3842ZM34.7897 18.2704C34.0728 18.8048 33.8903 19.4361 34.1454 20.2773C34.4764 21.3687 34.7493 22.4779 35.048 23.5774C34.9979 23.6032 34.9479 23.6291 34.8994 23.6549C33.9242 23.0188 32.9393 22.3939 31.977 21.7401C31.3102 21.2864 30.6886 21.2799 30.0218 21.7417C29.2113 22.3035 28.3733 22.8283 27.5466 23.3691C27.3868 23.4725 27.2221 23.5709 26.9024 23.7679C27.214 22.6022 27.4094 21.5931 27.7581 20.6389C28.1795 19.4829 27.8873 18.6837 26.8911 17.9992C26.0515 17.4244 25.2911 16.735 24.3578 15.9842C25.7044 15.9099 26.8798 15.8163 28.0568 15.7905C28.898 15.7727 29.4018 15.4078 29.6811 14.6199C30.0735 13.5091 30.5142 12.4177 30.9986 11.1519C31.4442 12.3192 31.8737 13.3105 32.1982 14.3325C32.5163 15.3319 33.0814 15.8308 34.1745 15.8115C35.2708 15.7937 36.3703 15.9132 37.641 15.9826C36.6028 16.8205 35.718 17.5745 34.7897 18.2704Z" fill="#FF008A"/>
<path d="M41.6997 6.50164C41.4865 6.84553 41.3784 7.14099 41.1733 7.3299C39.9139 8.49237 38.6384 9.63708 37.3564 10.7737C36.8947 11.1854 36.3231 11.1644 35.9501 10.7689C35.5788 10.3749 35.5949 9.77431 36.0389 9.36745C37.3322 8.18399 38.6255 6.9973 39.9656 5.86551C40.1997 5.66853 40.6986 5.61525 41.0038 5.71535C41.2766 5.80738 41.4494 6.20133 41.6997 6.50164Z" fill="#FF008A"/>
<path d="M26.4336 10.179C26.1979 10.468 26.0332 10.8636 25.7813 10.9314C25.4455 11.0218 24.9514 10.9766 24.6834 10.7764C23.9439 10.2226 23.2868 9.56067 22.5973 8.94069C22.0129 8.41435 21.4235 7.89285 20.8471 7.35683C20.3595 6.90314 20.2982 6.33644 20.6679 5.91665C21.049 5.48234 21.6076 5.45813 22.113 5.90374C23.3966 7.03876 24.6721 8.18347 25.9315 9.34755C26.1349 9.53484 26.2334 9.83838 26.4336 10.179Z" fill="#FF008A"/>
</svg>
