<svg width="14" height="16" viewBox="0 0 14 16" fill="none" xmlns="http://www.w3.org/2000/svg">
<g clip-path="url(#clip0_37_6074)">
<path d="M13.7708 5.69091L13.994 4.44091C14.035 4.21106 13.8583 4 13.6248 4H11.287L11.744 1.44091C11.785 1.21106 11.6083 1 11.3748 1H10.1051C10.0171 1 9.93186 1.03097 9.86436 1.08748C9.79687 1.14399 9.75141 1.22244 9.73594 1.30909L9.25541 4H6.17307L6.63004 1.44091C6.6711 1.21106 6.49438 1 6.26088 1H4.99113C4.90311 1 4.81789 1.03097 4.7504 1.08748C4.6829 1.14399 4.63744 1.22244 4.62197 1.30909L4.14144 4H1.66969C1.58167 4 1.49645 4.03097 1.42896 4.08748C1.36147 4.14399 1.31601 4.22244 1.30054 4.30909L1.07732 5.55909C1.03629 5.78894 1.213 6 1.44647 6H3.78429L3.07 10H0.598255C0.51023 10 0.425011 10.031 0.357521 10.0875C0.29003 10.144 0.244569 10.2224 0.229099 10.3091L0.00587991 11.5591C-0.0351513 11.7889 0.141567 12 0.375036 12H2.71285L2.25588 14.5591C2.21485 14.7889 2.39157 15 2.62504 15H3.89479C3.98281 15 4.06803 14.969 4.13552 14.9125C4.20301 14.856 4.24847 14.7776 4.26394 14.6909L4.7445 12H7.82682L7.36985 14.5591C7.32879 14.7889 7.5055 15 7.739 15H9.00876C9.09678 15 9.182 14.969 9.24949 14.9125C9.31698 14.856 9.36244 14.7776 9.37791 14.6909L9.85844 12H12.3302C12.4182 12 12.5034 11.969 12.5709 11.9125C12.6384 11.856 12.6839 11.7776 12.6993 11.6909L12.9226 10.4409C12.9636 10.2111 12.7869 10 12.5534 10H10.2156L10.9299 6H13.4016C13.4897 6 13.5749 5.96903 13.6424 5.91252C13.7099 5.85601 13.7553 5.77756 13.7708 5.69091ZM8.18397 10H5.10166L5.81594 6H8.89826L8.18397 10Z" fill="#858585"/>
</g>
<defs>
<clipPath id="clip0_37_6074">
<rect width="14" height="16" fill="white"/>
</clipPath>
</defs>
</svg>
