<svg width="25" height="24" viewBox="0 0 25 24" fill="none" xmlns="http://www.w3.org/2000/svg">
<path d="M21.72 12C22.2178 11.4524 22.4956 10.7401 22.5 10C22.5 9.20435 22.1839 8.44129 21.6213 7.87868C21.0587 7.31607 20.2956 7 19.5 7H14.32C14.4797 6.54818 14.5289 6.06466 14.4634 5.58993C14.3979 5.11519 14.2196 4.66306 13.9435 4.27138C13.6674 3.8797 13.3014 3.55988 12.8763 3.33868C12.4512 3.11748 11.9792 3.00135 11.5 3H5.5C4.70435 3 3.94129 3.31607 3.37868 3.87868C2.81607 4.44129 2.5 5.20435 2.5 6C2.50441 6.74005 2.78221 7.45236 3.28 8C2.78805 8.55002 2.51607 9.26207 2.51607 10C2.51607 10.7379 2.78805 11.45 3.28 12C2.78805 12.55 2.51607 13.2621 2.51607 14C2.51607 14.7379 2.78805 15.45 3.28 16C2.78221 16.5476 2.50441 17.2599 2.5 18C2.5 18.7956 2.81607 19.5587 3.37868 20.1213C3.94129 20.6839 4.70435 21 5.5 21H19.5C20.0778 20.9969 20.6423 20.8271 21.1259 20.5108C21.6094 20.1946 21.9914 19.7455 22.2259 19.2174C22.4603 18.6894 22.5373 18.1049 22.4476 17.5341C22.3578 16.9633 22.1052 16.4306 21.72 16C22.212 15.45 22.4839 14.7379 22.4839 14C22.4839 13.2621 22.212 12.55 21.72 12ZM11.5 19H5.5C5.23478 19 4.98043 18.8946 4.79289 18.7071C4.60536 18.5196 4.5 18.2652 4.5 18C4.5 17.7348 4.60536 17.4804 4.79289 17.2929C4.98043 17.1054 5.23478 17 5.5 17H11.5C11.7652 17 12.0196 17.1054 12.2071 17.2929C12.3946 17.4804 12.5 17.7348 12.5 18C12.5 18.2652 12.3946 18.5196 12.2071 18.7071C12.0196 18.8946 11.7652 19 11.5 19ZM11.5 15H5.5C5.23478 15 4.98043 14.8946 4.79289 14.7071C4.60536 14.5196 4.5 14.2652 4.5 14C4.5 13.7348 4.60536 13.4804 4.79289 13.2929C4.98043 13.1054 5.23478 13 5.5 13H11.5C11.7652 13 12.0196 13.1054 12.2071 13.2929C12.3946 13.4804 12.5 13.7348 12.5 14C12.5 14.2652 12.3946 14.5196 12.2071 14.7071C12.0196 14.8946 11.7652 15 11.5 15ZM11.5 11H5.5C5.23478 11 4.98043 10.8946 4.79289 10.7071C4.60536 10.5196 4.5 10.2652 4.5 10C4.5 9.73478 4.60536 9.48043 4.79289 9.29289C4.98043 9.10536 5.23478 9 5.5 9H11.5C11.7652 9 12.0196 9.10536 12.2071 9.29289C12.3946 9.48043 12.5 9.73478 12.5 10C12.5 10.2652 12.3946 10.5196 12.2071 10.7071C12.0196 10.8946 11.7652 11 11.5 11ZM11.5 7H5.5C5.23478 7 4.98043 6.89464 4.79289 6.70711C4.60536 6.51957 4.5 6.26522 4.5 6C4.5 5.73478 4.60536 5.48043 4.79289 5.29289C4.98043 5.10536 5.23478 5 5.5 5H11.5C11.7652 5 12.0196 5.10536 12.2071 5.29289C12.3946 5.48043 12.5 5.73478 12.5 6C12.5 6.26522 12.3946 6.51957 12.2071 6.70711C12.0196 6.89464 11.7652 7 11.5 7ZM20.19 18.71C20.1014 18.8035 19.9942 18.8776 19.8755 18.9275C19.7567 18.9774 19.6288 19.0021 19.5 19H14.32C14.5598 18.3549 14.5598 17.6451 14.32 17H19.5C19.7652 17 20.0196 17.1054 20.2071 17.2929C20.3946 17.4804 20.5 17.7348 20.5 18C20.4981 18.133 20.4698 18.2643 20.4165 18.3862C20.3633 18.5082 20.2863 18.6182 20.19 18.71ZM20.19 14.71C20.1014 14.8035 19.9942 14.8776 19.8755 14.9275C19.7567 14.9774 19.6288 15.0021 19.5 15H14.32C14.5598 14.3549 14.5598 13.6451 14.32 13H19.5C19.7652 13 20.0196 13.1054 20.2071 13.2929C20.3946 13.4804 20.5 13.7348 20.5 14C20.4981 14.133 20.4698 14.2643 20.4165 14.3862C20.3633 14.5082 20.2863 14.6182 20.19 14.71ZM20.19 10.71C20.1014 10.8035 19.9942 10.8776 19.8755 10.9275C19.7567 10.9774 19.6288 11.0021 19.5 11H14.32C14.5598 10.3549 14.5598 9.6451 14.32 9H19.5C19.7652 9 20.0196 9.10536 20.2071 9.29289C20.3946 9.48043 20.5 9.73478 20.5 10C20.4981 10.133 20.4698 10.2643 20.4165 10.3862C20.3633 10.5082 20.2863 10.6182 20.19 10.71Z" fill="#858585"/>
</svg>
