<svg width="16" height="16" viewBox="0 0 16 16" fill="none" xmlns="http://www.w3.org/2000/svg">
<path d="M11.3333 14.4199H3.33333C2.8029 14.4199 2.29419 14.2092 1.91912 13.8341C1.54405 13.4591 1.33333 12.9504 1.33333 12.4199V7.08659C1.33333 6.90978 1.2631 6.74021 1.13807 6.61518C1.01305 6.49016 0.843478 6.41992 0.666667 6.41992C0.489856 6.41992 0.320286 6.49016 0.195262 6.61518C0.0702379 6.74021 0 6.90978 0 7.08659L0 12.4199C0 13.304 0.351189 14.1518 0.976311 14.7769C1.60143 15.4021 2.44928 15.7533 3.33333 15.7533H11.3333C11.5101 15.7533 11.6797 15.683 11.8047 15.558C11.9298 15.433 12 15.2634 12 15.0866C12 14.9098 11.9298 14.7402 11.8047 14.6152C11.6797 14.4902 11.5101 14.4199 11.3333 14.4199ZM14 2.41992H4.66667C4.13623 2.41992 3.62753 2.63064 3.25245 3.00571C2.87738 3.38078 2.66667 3.88949 2.66667 4.41992V11.0866C2.66667 11.617 2.87738 12.1257 3.25245 12.5008C3.62753 12.8759 4.13623 13.0866 4.66667 13.0866H14C14.5304 13.0866 15.0391 12.8759 15.4142 12.5008C15.7893 12.1257 16 11.617 16 11.0866V4.41992C16 3.88949 15.7893 3.38078 15.4142 3.00571C15.0391 2.63064 14.5304 2.41992 14 2.41992ZM13.7267 3.75326L9.80667 7.67326C9.74469 7.73574 9.67096 7.78534 9.58972 7.81918C9.50848 7.85303 9.42134 7.87045 9.33333 7.87045C9.24533 7.87045 9.15819 7.85303 9.07695 7.81918C8.99571 7.78534 8.92198 7.73574 8.86 7.67326L4.94 3.75326H13.7267ZM14.6667 11.0866C14.6667 11.2634 14.5964 11.433 14.4714 11.558C14.3464 11.683 14.1768 11.7533 14 11.7533H4.66667C4.48986 11.7533 4.32029 11.683 4.19526 11.558C4.07024 11.433 4 11.2634 4 11.0866V4.66659L7.92 8.58659C8.295 8.96112 8.80333 9.1715 9.33333 9.1715C9.86334 9.1715 10.3717 8.96112 10.7467 8.58659L14.6667 4.66659V11.0866Z" fill="black"/>
</svg>
