<svg width="20" height="12" viewBox="0 0 20 12" fill="none" xmlns="http://www.w3.org/2000/svg">
<path fill-rule="evenodd" clip-rule="evenodd" d="M9.65268 10.0243C8.64276 10.856 7.33272 11.3581 5.90121 11.3581C2.70705 11.3581 0.117676 8.85833 0.117676 5.77474C0.117676 2.69115 2.70705 0.191406 5.90121 0.191406C7.33272 0.191406 8.64276 0.693488 9.65268 1.52519C10.6626 0.693488 11.9727 0.191406 13.4042 0.191406C16.5983 0.191406 19.1877 2.69115 19.1877 5.77474C19.1877 8.85833 16.5983 11.3581 13.4042 11.3581C11.9727 11.3581 10.6626 10.856 9.65268 10.0243Z" fill="#ED0006"/>
<path fill-rule="evenodd" clip-rule="evenodd" d="M9.65259 10.0243C10.8961 9.0002 11.6846 7.47637 11.6846 5.77474C11.6846 4.07311 10.8961 2.54927 9.65259 1.52519C10.6625 0.693487 11.9726 0.191406 13.4041 0.191406C16.5982 0.191406 19.1876 2.69115 19.1876 5.77474C19.1876 8.85833 16.5982 11.3581 13.4041 11.3581C11.9726 11.3581 10.6625 10.856 9.65259 10.0243Z" fill="#F9A000"/>
<path fill-rule="evenodd" clip-rule="evenodd" d="M9.65263 10.0225C10.8962 8.99841 11.6847 7.47459 11.6847 5.77297C11.6847 4.07135 10.8962 2.54752 9.65263 1.52344C8.40911 2.54752 7.62061 4.07135 7.62061 5.77297C7.62061 7.47459 8.40911 8.99841 9.65263 10.0225Z" fill="#FF5E00"/>
</svg>
