<svg width="16" height="16" viewBox="0 0 16 16" fill="none" xmlns="http://www.w3.org/2000/svg">
<g clip-path="url(#clip0_16422_48503)">
<path d="M15.0527 6.26768C14.8902 5.88125 14.62 5.60264 14.2714 5.4623L14.2667 5.46055C14.108 5.39839 13.9391 5.36659 13.7687 5.3668H13.7499C12.9519 5.37881 12.1371 6.05703 11.7229 7.05459C11.4191 7.78408 11.3842 8.56865 11.6297 9.15342C11.792 9.54014 12.0627 9.81875 12.4128 9.95908L12.4166 9.96055C12.5753 10.0227 12.7442 10.0545 12.9147 10.0543C13.7203 10.0543 14.5436 9.37607 14.9654 8.36533C15.2654 7.63672 15.2985 6.85273 15.0527 6.26768ZM11.8641 10.5702C11.4038 10.2937 10.9688 10.032 10.6846 9.56211C9.9006 8.26133 9.42716 7.47617 8.18585 7.47617C6.94454 7.47617 6.46993 8.26133 5.68419 9.56211C5.39943 10.0326 4.96349 10.2945 4.50177 10.5723C3.97238 10.8904 3.4254 11.2191 3.18927 11.866C3.09747 12.0992 3.05123 12.3478 3.05304 12.5984C3.05304 13.6517 3.87335 14.5086 4.88117 14.5086C5.40118 14.5086 5.9546 14.3284 6.54025 14.1377C7.10333 13.9543 7.68546 13.7647 8.18878 13.7647C8.6921 13.7647 9.27277 13.9543 9.8338 14.1377C10.4183 14.3272 10.9691 14.5074 11.4905 14.5074C12.4969 14.5074 13.3157 13.6505 13.3157 12.5973C13.3166 12.3465 13.2693 12.0979 13.1766 11.8648C12.9404 11.2174 12.3932 10.8884 11.8641 10.5702ZM5.08038 6.44639C5.42902 6.88379 5.8714 7.12461 6.32609 7.12461C6.38816 7.12461 6.45015 7.12001 6.51154 7.11084C7.45988 6.97139 8.05079 5.81416 7.85685 4.47412C7.7757 3.91074 7.5589 3.38604 7.24835 2.99697C6.90031 2.56045 6.45734 2.31992 6.00294 2.31992C5.94087 2.31992 5.87888 2.32453 5.81749 2.33369C4.86915 2.47314 4.27824 3.63037 4.47218 4.97041C4.55304 5.53291 4.76984 6.05703 5.08038 6.44639ZM9.86046 7.11084C9.92185 7.12001 9.98384 7.12461 10.0459 7.12461C10.5009 7.12461 10.943 6.88379 11.2916 6.44639C11.6019 6.05703 11.8175 5.53291 11.8995 4.96982C12.0935 3.63037 11.5026 2.47314 10.5542 2.33311C10.4928 2.32394 10.4308 2.31934 10.3688 2.31934C9.91437 2.31992 9.4714 2.56045 9.12335 2.99697C8.81281 3.38604 8.59601 3.91074 8.51515 4.47471C8.3212 5.81416 8.91212 6.97139 9.86046 7.11084ZM3.95509 9.96055L3.95919 9.95908C4.3087 9.81875 4.57911 9.54043 4.74113 9.154C4.98663 8.56807 4.95206 7.78438 4.64884 7.05488C4.22902 6.04531 3.40607 5.3668 2.60128 5.3668C2.43086 5.36655 2.26191 5.39835 2.10324 5.46055L2.09913 5.46201C1.7505 5.60117 1.48009 5.88066 1.31808 6.26709C1.07257 6.85303 1.10714 7.63672 1.41036 8.36621C1.83019 9.37578 2.65314 10.0543 3.45792 10.0543C3.62805 10.0544 3.79669 10.0226 3.95509 9.96055Z" fill="#656B76"/>
</g>
<defs>
<clipPath id="clip0_16422_48503">
<rect width="15" height="15" fill="white" transform="translate(0.685852 0.913574)"/>
</clipPath>
</defs>
</svg>
