<svg width="81" height="81" viewBox="0 0 81 81" fill="none" xmlns="http://www.w3.org/2000/svg">
<g clip-path="url(#clip0_125_1579)">
<path d="M23.0938 0.8125C22.1562 1.1875 21.1406 2.14062 20.6406 3.125C20.3281 3.75 20.25 4.14062 20.2188 5.60938L20.1562 7.375H16.2031C11.6719 7.375 10.9688 7.5 9.26562 8.64062C7.70312 9.6875 6.84375 10.8125 6.0625 12.8438C5.73438 13.6875 5.73438 13.875 5.6875 27.7969C5.64062 43.5312 5.59375 42.7969 6.6875 43.25C7.39062 43.5469 8 43.4219 8.53125 42.8906L8.9375 42.4844V32.9844V23.4688H37.375C68.9375 23.4688 66.3906 23.5625 66.75 22.4375C66.9844 21.7656 66.7344 20.9375 66.2031 20.5938C65.8594 20.375 63.0469 20.3438 37.3594 20.3438H8.90625L8.98438 17.3281C9.01562 15.6562 9.125 14.0781 9.23438 13.75C9.60938 12.5469 10.9219 11.2656 12.2188 10.8125C12.5625 10.6875 14.1406 10.5938 16.4844 10.5469L20.1875 10.4688V11.8906C20.1875 14.2812 21.0312 15.8281 22.8125 16.7031C24.0312 17.2969 25.8281 17.3281 26.9531 16.75C28.7656 15.8438 29.5781 14.4375 29.6875 12.0312L29.7656 10.5H42.7812H55.8125V11.9062C55.8125 14.2812 56.6562 15.8281 58.4375 16.7031C59.6562 17.2969 61.4531 17.3281 62.5781 16.75C64.3906 15.8438 65.2031 14.4375 65.3125 12.0156L65.3906 10.4688L69.4688 10.5312C73.4688 10.5781 73.5625 10.5938 74.4062 10.9844C75.6562 11.5625 76.2031 12.1094 76.7812 13.2812L77.2969 14.3281L77.3438 44.25C77.375 65.4062 77.3281 74.4062 77.2031 75C76.9219 76.3906 75.9375 77.2188 74.5625 77.2188C73.2031 77.2188 72.2188 76.4062 71.9219 75.0312C71.8281 74.5938 71.75 73.25 71.75 72.0469V69.8438L71.2969 69.3906L70.8438 68.9375H61.0781H51.3281L50.9219 69.3438C50.3594 69.9062 50.25 70.5312 50.6094 71.25C50.8125 71.6562 51.0469 71.8906 51.4375 72.0156C51.8281 72.1562 54.2812 72.2031 60.3125 72.2031L68.625 72.2188V74.0156C68.625 75.4062 68.6875 75.9844 68.9219 76.5938L69.2188 77.375H38C15.2812 77.375 6.54688 77.3281 5.9375 77.2031C4.32812 76.8594 3.625 75.6562 3.625 73.2344V72.2188L21.4531 72.1875L39.2812 72.1406L39.7344 71.625C40.375 70.9219 40.375 70.0312 39.7344 69.3906L39.2812 68.9375H31.25H23.2188L23.9844 68.125C27.6719 64.2031 28.5469 58.3594 26.1875 53.5781C24.6562 50.4531 21.9531 48.125 18.5469 46.9688C16.9219 46.4219 13.7344 46.2656 11.9375 46.6562C7.21875 47.6562 3.4375 51.2969 2.15625 56.0469C2.01562 56.5625 1.85938 57.6875 1.8125 58.5469C1.59375 61.9688 2.70312 65.125 5.04688 67.8594L5.98438 68.9375H3.70312H1.40625L0.953125 69.4062L0.484375 69.875L0.53125 73.0312C0.578125 76.0938 0.59375 76.2344 1 77.0938C1.53125 78.25 2.75 79.4688 3.90625 80L4.79688 80.4219H40.5H76.2031L77.0938 80C78.25 79.4688 79.4688 78.25 80 77.0938L80.4219 76.2031L80.4688 45.0312C80.5 16.9062 80.4844 13.7812 80.25 13C79.5312 10.5156 77.5156 8.45312 75.0469 7.6875C74.1719 7.40625 73.6094 7.375 69.7188 7.375H65.3906L65.3125 5.6875C65.2344 3.78125 64.9531 2.96875 64.0469 1.95312C63.2344 1.0625 62.2031 0.59375 60.8594 0.53125C59.375 0.453125 58.3281 0.796875 57.375 1.6875C56.2031 2.78125 55.9062 3.54688 55.8438 5.60938L55.7812 7.375H42.7656H29.7656L29.6875 5.6875C29.6094 3.78125 29.3281 2.96875 28.4219 1.95312C27.5625 1 26.5938 0.59375 25.1094 0.546875C24.1562 0.515625 23.6719 0.578125 23.0938 0.8125ZM25.8906 4.15625C26.0938 4.35938 26.2969 4.76562 26.3594 5.04688C26.4062 5.34375 26.4375 7.25 26.4062 9.29688L26.3594 13.0312L25.8438 13.4844C25.2969 13.9844 24.9531 14.0312 24.3281 13.75C23.5312 13.3906 23.4688 13.0469 23.4688 8.70312V4.6875L23.9219 4.23438C24.5156 3.64062 25.3438 3.60938 25.8906 4.15625ZM61.5156 4.15625C61.7188 4.35938 61.9219 4.76562 61.9844 5.04688C62.0312 5.34375 62.0625 7.25 62.0312 9.29688L61.9844 13.0312L61.4688 13.4844C60.9219 13.9844 60.5781 14.0312 59.9531 13.75C59.1562 13.3906 59.0938 13.0469 59.0938 8.70312V4.6875L59.5469 4.23438C60.1406 3.64062 60.9688 3.60938 61.5156 4.15625ZM17.875 50.2344C20.7344 51.3438 22.9219 53.6406 23.8281 56.5156C24.3125 58.0469 24.3125 60.4531 23.8281 61.9844C22.9219 64.8594 20.7656 67.1406 17.875 68.2812C16.9219 68.6562 16.625 68.6875 14.7188 68.7031C12.2969 68.7031 11.5781 68.5312 9.8125 67.5C7.82812 66.3438 6.17188 64.25 5.48438 62.0625C3.89062 56.9531 6.96875 51.4062 12.2188 49.9531C12.8281 49.7969 13.6094 49.7344 14.9531 49.7812C16.5156 49.8125 17 49.8906 17.875 50.2344Z" fill="#333333"/>
<path d="M18.3906 55.1094C18.125 55.25 16.7969 56.4687 15.4219 57.8437L12.9375 60.3281L11.875 59.3125C10.8906 58.3906 10.75 58.3125 10.0938 58.3125C9.125 58.3125 8.46875 58.9375 8.46875 59.8437C8.46875 60.6094 8.92188 61.2656 10.6875 62.9375C12.1562 64.3437 12.6406 64.5625 13.4844 64.2031C14.2812 63.8594 20.6562 57.375 20.6719 56.8906C20.7188 55.875 20.4219 55.2969 19.6875 55.0469C19.0625 54.8281 18.9531 54.8281 18.3906 55.1094Z" fill="#4C40ED"/>
<path d="M71.4219 20.7969C71.0625 21.1562 70.9688 21.3906 70.9688 21.9062C70.9688 23.7969 73.7656 24.0781 74.1719 22.2344C74.5 20.7031 72.5469 19.6875 71.4219 20.7969Z" fill="#333333"/>
<path d="M19.0312 32.125C16.6875 33.1094 15.3125 35.1562 15.3125 37.6875C15.3125 40.2812 16.7969 42.4062 19.2031 43.3125C20.5 43.7969 22.5469 43.7187 23.8125 43.125C24.9688 42.5937 26.1875 41.375 26.7188 40.2187C27.0938 39.4375 27.1406 39.1406 27.1406 37.6875C27.1406 36.2344 27.0938 35.9375 26.7188 35.1562C26.1875 34 24.9688 32.7812 23.8125 32.25C23.0781 31.9062 22.6562 31.8281 21.4375 31.7812C20.1562 31.75 19.8281 31.7969 19.0312 32.125ZM22.4844 35.2812C24.2031 36.1094 24.4375 38.6406 22.9062 39.8125C21.9844 40.5312 20.4375 40.5 19.5625 39.7656C18.2969 38.7187 18.2344 36.8125 19.4375 35.7031C20.1719 35 21.5 34.8281 22.4844 35.2812Z" fill="#333333"/>
<path d="M33.8438 32.0312C31.5 32.8593 29.875 35.1718 29.875 37.6875C29.875 40.2812 31.6562 42.7031 34.0625 43.4062C35.4375 43.8125 37.2344 43.6562 38.4688 43.0468C42.9531 40.8437 42.9531 34.5468 38.4688 32.3281C37.5938 31.8906 37.2812 31.8281 36.0469 31.7812C35 31.75 34.4375 31.8125 33.8438 32.0312ZM37.0469 35.2656C38.1406 35.8125 38.7656 37.1875 38.4688 38.3125C38.1406 39.5468 37.125 40.3437 35.8906 40.3437C33.7656 40.3437 32.4844 38.1562 33.5469 36.3281C33.7812 35.9375 34.1875 35.5312 34.5312 35.3437C35.2188 34.9843 36.4375 34.9375 37.0469 35.2656Z" fill="#333333"/>
<path d="M48.625 31.9688C47.5781 32.3125 46.7969 32.8281 46 33.6875C44.9219 34.8906 44.5 35.9688 44.5 37.6875C44.5 39.4063 44.9219 40.4844 46 41.6875C47.25 43.0313 48.5625 43.625 50.4219 43.625C52.8906 43.625 54.8125 42.4063 55.875 40.1875C56.3125 39.2656 56.3594 39.0313 56.3594 37.6875C56.3594 36.3438 56.3125 36.1094 55.875 35.1875C55.125 33.6094 53.8125 32.4531 52.2344 31.9688C51.375 31.7188 49.3906 31.7031 48.625 31.9688ZM51.7344 35.3594C52.625 35.8594 53.0781 36.6406 53.0781 37.6875C53.0781 39.2344 51.9531 40.3438 50.4062 40.3438C49.5 40.3438 48.8438 39.9844 48.2188 39.1563C47.8438 38.6719 47.7656 38.4219 47.7656 37.6875C47.7656 36.9531 47.8438 36.7031 48.2188 36.2188C48.4531 35.8906 48.875 35.5 49.1562 35.3281C49.8125 34.9219 50.9844 34.9375 51.7344 35.3594Z" fill="#333333"/>
<path d="M62.7812 32.125C60.4375 33.1094 59.0625 35.1562 59.0625 37.6875C59.0625 40.2812 60.5469 42.4062 62.9531 43.3125C64.25 43.7969 66.2969 43.7187 67.5625 43.125C68.7188 42.5937 69.9375 41.375 70.4688 40.2187C70.8438 39.4375 70.8906 39.1406 70.8906 37.6875C70.8906 36.2344 70.8438 35.9375 70.4688 35.1562C69.9375 34 68.7188 32.7812 67.5625 32.25C66.8281 31.9062 66.4062 31.8281 65.1875 31.7812C63.9062 31.75 63.5781 31.7969 62.7812 32.125ZM66.2344 35.2812C67.9531 36.1094 68.1875 38.6406 66.6562 39.8125C65.7344 40.5312 64.1875 40.5 63.3125 39.7656C62.0469 38.7187 61.9844 36.8125 63.1875 35.7031C63.9219 35 65.25 34.8281 66.2344 35.2812Z" fill="#333333"/>
<path d="M33.8438 48.2812C31.5 49.1093 29.875 51.4218 29.875 53.9375C29.875 56.5312 31.6562 58.9531 34.0625 59.6562C35.4375 60.0625 37.2344 59.9062 38.4688 59.2968C42.9531 57.0937 42.9531 50.7968 38.4688 48.5781C37.5938 48.1406 37.2812 48.0781 36.0469 48.0312C35 48 34.4375 48.0625 33.8438 48.2812ZM37.0469 51.5156C38.1406 52.0625 38.7656 53.4375 38.4688 54.5625C38.1406 55.7968 37.125 56.5937 35.8906 56.5937C33.7656 56.5937 32.4844 54.4062 33.5469 52.5781C33.7812 52.1875 34.1875 51.7812 34.5312 51.5937C35.2188 51.2343 36.4375 51.1875 37.0469 51.5156Z" fill="#4C40ED"/>
<path d="M48.625 48.2188C47.5781 48.5625 46.7969 49.0781 46 49.9375C44.9219 51.1406 44.5 52.2188 44.5 53.9375C44.5 55.6563 44.9219 56.7344 46 57.9375C47.25 59.2813 48.5625 59.875 50.4219 59.875C52.8906 59.875 54.8125 58.6563 55.875 56.4375C56.3125 55.5156 56.3594 55.2813 56.3594 53.9375C56.3594 52.5938 56.3125 52.3594 55.875 51.4375C55.125 49.8594 53.8125 48.7031 52.2344 48.2188C51.375 47.9688 49.3906 47.9531 48.625 48.2188ZM51.7344 51.6094C52.625 52.1094 53.0781 52.8906 53.0781 53.9375C53.0781 55.4844 51.9531 56.5938 50.4062 56.5938C49.5 56.5938 48.8438 56.2344 48.2188 55.4063C47.8438 54.9219 47.7656 54.6719 47.7656 53.9375C47.7656 53.2031 47.8438 52.9531 48.2188 52.4688C48.4531 52.1406 48.875 51.75 49.1562 51.5781C49.8125 51.1719 50.9844 51.1875 51.7344 51.6094Z" fill="#4C40ED"/>
<path d="M62.7812 48.375C60.4375 49.3594 59.0625 51.4062 59.0625 53.9375C59.0625 56.5312 60.5469 58.6562 62.9531 59.5625C64.25 60.0469 66.2969 59.9687 67.5625 59.375C68.7188 58.8437 69.9375 57.625 70.4688 56.4687C70.8438 55.6875 70.8906 55.3906 70.8906 53.9375C70.8906 52.4844 70.8438 52.1875 70.4688 51.4062C69.9375 50.25 68.7188 49.0312 67.5625 48.5C66.8281 48.1562 66.4062 48.0781 65.1875 48.0312C63.9062 48 63.5781 48.0469 62.7812 48.375ZM66.2344 51.5312C67.9531 52.3594 68.1875 54.8906 66.6562 56.0625C65.7344 56.7812 64.1875 56.75 63.3125 56.0156C62.0469 54.9687 61.9844 53.0625 63.1875 51.9531C63.9219 51.25 65.25 51.0781 66.2344 51.5312Z" fill="#4C40ED"/>
<path d="M45.0002 69.2969C44.0939 70.1406 44.4064 71.6406 45.5471 72.0156C46.9064 72.4688 48.0783 71.2031 47.5314 69.875C47.1252 68.9063 45.7502 68.5938 45.0002 69.2969Z" fill="#333333"/>
</g>
<defs>
<clipPath id="clip0_125_1579">
<rect width="80" height="80" fill="white" transform="translate(0.5 0.5)"/>
</clipPath>
</defs>
</svg>
