<svg width="16" height="16" viewBox="0 0 16 16" fill="none" xmlns="http://www.w3.org/2000/svg">
<path d="M8 4.5C6.6745 4.5 5.6 6.06687 5.6 8C5.6 9.93281 6.6745 11.5 8 11.5C9.325 11.5 10.4 9.93344 10.4 8C10.4 6.06687 9.3255 4.5 8 4.5ZM9 9.75C9 9.88812 8.9105 10 8.8 10H7.2C7.0895 10 7 9.88812 7 9.75V9.25C7 9.11188 7.0895 9 7.2 9H7.6V7.2675L7.58825 7.27719C7.56641 7.29541 7.5419 7.30807 7.51614 7.31445C7.49038 7.32082 7.46387 7.32079 7.43812 7.31434C7.41237 7.3079 7.38789 7.29518 7.36608 7.2769C7.34426 7.25862 7.32555 7.23514 7.311 7.20781L7.089 6.79187C7.07442 6.76457 7.06429 6.73394 7.05919 6.70174C7.05409 6.66954 7.05412 6.6364 7.05928 6.60421C7.06443 6.57202 7.07461 6.54142 7.08923 6.51416C7.10386 6.48689 7.12264 6.4635 7.1445 6.44531L7.52775 6.12594C7.62629 6.04381 7.74207 5.99999 7.8605 6H8.2C8.3105 6 8.4 6.11188 8.4 6.25V9H8.8C8.9105 9 9 9.11188 9 9.25V9.75ZM15.2 2H0.8C0.35825 2 0 2.44781 0 3V13C0 13.5522 0.35825 14 0.8 14H15.2C15.6418 14 16 13.5522 16 13V3C16 2.44781 15.6418 2 15.2 2ZM14.8 10.5C13.9163 10.5 13.2 11.3953 13.2 12.5H2.8C2.8 11.3953 2.08375 10.5 1.2 10.5V5.5C2.08375 5.5 2.8 4.60469 2.8 3.5H13.2C13.2 4.60469 13.9163 5.5 14.8 5.5V10.5Z" fill="#858585"/>
</svg>
