<svg width="60" height="60" viewBox="0 0 60 60" fill="none" xmlns="http://www.w3.org/2000/svg">
<path d="M28.0041 59.9996C18.9824 59.9996 11.6692 52.6863 11.6692 43.6647C11.6692 34.6432 18.9824 27.3281 28.0041 27.3281C37.0274 27.3281 44.3408 34.6431 44.3408 43.6647C44.3408 52.6864 37.0274 59.9996 28.0041 59.9996Z" fill="#EAC6BB"/>
<path d="M34.4751 41.7295H41.4532V6.64834C41.4532 4.72391 39.8876 3.16016 37.9649 3.16016C36.0405 3.16016 34.4751 4.72391 34.4751 6.64834V41.7295Z" fill="#EAC6BB"/>
<path d="M26.8743 38.5711H33.8506V3.48818C33.8506 1.56551 32.2851 0 30.3626 0C28.438 0 26.8743 1.5654 26.8743 3.48818V38.5711Z" fill="#EAC6BB"/>
<path d="M19.2717 41.7295H26.2481V6.64834C26.2481 4.72391 24.6826 3.16016 22.7599 3.16016C20.8355 3.16016 19.2717 4.72391 19.2717 6.64834V41.7295Z" fill="#EAC6BB"/>
<path d="M11.6692 43.6653H18.6455V12.9677C18.6455 11.0432 17.0818 9.47949 15.1574 9.47949C13.2348 9.47949 11.6692 11.0432 11.6692 12.9677V43.6653Z" fill="#EAC6BB"/>
<path d="M56.2631 12.4404H3.73706V39.9541H56.2631V12.4404Z" fill="#8CC153"/>
<path d="M11.2406 16.1924H48.7589C48.7589 18.2652 50.4381 19.9443 52.5109 19.9443V32.4504C50.4381 32.4504 48.7589 34.1293 48.7589 36.2022H11.2406C11.2406 34.1293 9.56147 32.4504 7.48877 32.4504V19.9443C9.56159 19.9443 11.2406 18.2652 11.2406 16.1924Z" fill="#A0D468"/>
<path d="M29.9997 32.4501C33.4534 32.4501 36.2531 29.6504 36.2531 26.1967C36.2531 22.7431 33.4534 19.9434 29.9997 19.9434C26.5461 19.9434 23.7463 22.7431 23.7463 26.1967C23.7463 29.6504 26.5461 32.4501 29.9997 32.4501Z" fill="#8CC153"/>
<path d="M51.1119 33.9274L51.1138 33.9255C51.6831 32.8177 51.7894 31.5544 51.4104 30.3677C51.0295 29.1811 50.2111 28.2125 49.1032 27.6412C48.435 27.2969 47.717 27.1211 46.97 27.1211C45.2142 27.1211 43.6227 28.0915 42.819 29.6516L34.4751 45.8237L43.0462 49.9106L51.1101 33.931L51.1119 33.9274Z" fill="#EAC6BB"/>
</svg>
