<svg width="82" height="78" viewBox="0 0 82 78" fill="none" xmlns="http://www.w3.org/2000/svg">
<path d="M69.0055 11.6677C67.8337 7.07062 63.8385 4.1002 57.8305 4.96237C52.6533 5.70667 48.8087 7.8157 43.0476 4.58301C21.0393 -7.76981 14.275 7.51419 14.6645 19.0211C15.2219 35.5402 10.1262 38.1721 5.18142 46.3185C1.72449 52.0119 -0.55565 56.9506 0.91764 64.0624C3.12305 74.7134 12.7308 79.2994 21.7533 77.6842C26.1839 76.8919 30.9143 75.3417 33.8491 74.5993C41.7319 72.6064 44.8186 73.1255 55.1871 73.6366C75.3943 74.293 83.0858 59.311 73.1208 46.603C64.5907 35.7249 63.8913 35.0727 67.0637 24.9702C68.3964 20.7279 70.3463 16.9259 69.0055 11.6677Z" fill="#FFECF5"/>
<path d="M75.4045 24.6926C72.0312 24.6926 69.2712 27.4237 69.2712 30.7616C69.2712 34.0995 72.0312 36.8306 75.4045 36.8306C78.7779 36.8306 81.5379 34.0995 81.5379 30.7616C81.5379 27.4237 78.7779 24.6926 75.4045 24.6926ZM77.7045 30.0788C77.5512 30.1547 77.3979 30.2306 77.2445 30.2306C77.0145 30.2306 76.7845 30.0788 76.6312 29.9271C76.3245 29.5478 75.8645 29.2444 75.4045 29.2444C74.9445 29.2444 74.6379 28.9409 74.6379 28.4857C74.6379 28.0306 74.9445 27.7271 75.4045 27.7271C76.4012 27.7271 77.3212 28.1823 77.9345 29.0168C78.1645 29.3961 78.0879 29.8513 77.7045 30.0788Z" fill="#FFECF5"/>
<path d="M65.4379 24.6926C63.2912 24.6926 61.6045 23.0237 61.6045 20.8995C61.6045 18.7754 63.2912 17.1064 65.4379 17.1064C67.5845 17.1064 69.2712 18.7754 69.2712 20.8995C69.2712 23.0237 67.5845 24.6926 65.4379 24.6926Z" fill="#FFECF5"/>
<path d="M62.7545 33.7961C60.8379 33.7961 59.3045 32.2788 59.3045 30.3823C59.3045 28.4857 60.8379 26.9685 62.7545 26.9685C64.6712 26.9685 66.2045 28.4857 66.2045 30.3823C66.2045 32.2788 64.6712 33.7961 62.7545 33.7961Z" fill="#FFECF5"/>
<path d="M73.1045 19.3823C72.6445 19.3823 72.3379 19.0788 72.3379 18.6237V16.3478C72.3379 15.8926 72.6445 15.5892 73.1045 15.5892C73.5645 15.5892 73.8712 15.8926 73.8712 16.3478V18.6237C73.8712 19.0788 73.5645 19.3823 73.1045 19.3823Z" fill="#FFECF5"/>
<path d="M78.4712 22.4168H76.1712C75.7112 22.4168 75.4045 22.1133 75.4045 21.6582C75.4045 21.203 75.7112 20.8995 76.1712 20.8995H78.4712C78.9312 20.8995 79.2379 21.203 79.2379 21.6582C79.2379 22.1133 78.9312 22.4168 78.4712 22.4168Z" fill="#FFECF5"/>
<path d="M75.2512 20.2926C75.0212 20.2926 74.8679 20.2168 74.7145 20.0651C74.4079 19.7616 74.4079 19.3064 74.7145 19.003L76.3245 17.4099C76.6312 17.1064 77.0912 17.1064 77.3979 17.4099C77.7045 17.7133 77.7045 18.1685 77.3979 18.4719L75.7879 20.0651C75.6345 20.2168 75.4812 20.2926 75.2512 20.2926Z" fill="#FFECF5"/>
<g clip-path="url(#clip0_16414_36250)">
<path d="M61.4622 39.5295C61.4622 39.9809 61.2829 40.4137 60.9634 40.7332C60.6443 41.0523 60.2115 41.2316 59.7601 41.2316H23.1641C22.5562 41.2316 21.9941 40.907 21.69 40.3804C21.3862 39.8538 21.3862 39.2049 21.69 38.6783C21.9941 38.1518 22.5562 37.8271 23.1641 37.8271H59.7601C60.2115 37.8271 60.6443 38.0064 60.9634 38.3259C61.2829 38.645 61.4622 39.0778 61.4622 39.5295V39.5295Z" fill="#FF008A"/>
<path d="M27.119 40.8139V57.4681C27.119 57.809 26.9839 58.1358 26.7429 58.3769C26.5018 58.6176 26.175 58.753 25.8341 58.753H25.1084C24.7675 58.753 24.4407 58.6176 24.1996 58.3769C23.9589 58.1358 23.8235 57.809 23.8235 57.4681V40.8139C23.8235 40.5834 24.0101 40.3965 24.2406 40.3965H26.7019C26.8126 40.3965 26.9186 40.4407 26.997 40.5188C27.0751 40.5972 27.119 40.7031 27.119 40.8139H27.119Z" fill="#FF008A"/>
<path d="M58.0042 58.753H45.0212C44.6803 58.753 44.3535 58.6176 44.1128 58.3769C43.8717 58.1358 43.7363 57.809 43.7363 57.4681V40.8139C43.7363 40.5834 43.9229 40.3965 44.1534 40.3965H58.872C58.9824 40.3965 59.0887 40.4407 59.1668 40.5188C59.2452 40.5972 59.2891 40.7031 59.2891 40.8139V57.4681C59.2891 57.809 59.1537 58.1358 58.9126 58.3769C58.6716 58.6176 58.3448 58.753 58.0042 58.753H58.0042ZM44.5705 41.231L44.5702 57.4681C44.5702 57.7171 44.7722 57.9188 45.0209 57.9188H58.0038C58.2526 57.9188 58.4542 57.7171 58.4542 57.4681V41.231H44.5705Z" fill="#FF008A"/>
<path d="M50.3404 24.974C50.4409 24.8946 50.4995 24.773 50.4989 24.6446V24.3066C50.3945 24.3066 50.2902 24.265 50.1861 24.2397L50.1858 24.24C50.0098 24.1968 49.8369 24.1411 49.6685 24.0729L49.3891 23.9561C49.3138 23.9228 49.2389 23.8808 49.1637 23.8392L49.0722 23.7643L48.851 23.6184L48.5213 23.3597L48.325 23.1763L48.3254 23.176C48.2469 23.0972 48.1403 23.0527 48.0293 23.0527C47.9179 23.0527 47.8113 23.0972 47.7328 23.176C47.5677 23.3354 47.5619 23.5982 47.7204 23.7643C48.4672 24.5086 48.8868 25.5198 48.8868 26.5739C48.8868 27.6283 48.4671 28.6395 47.7204 29.3838C47.6416 29.4651 47.5997 29.5752 47.6035 29.6882C47.6064 29.8015 47.6525 29.9091 47.7328 29.9888C47.8958 30.1504 48.1583 30.1504 48.3212 29.9888C48.3923 29.9177 48.463 29.8511 48.5382 29.7884C48.6134 29.726 48.6509 29.6924 48.7133 29.6424C48.8676 29.5243 49.0309 29.4184 49.2015 29.3255L49.4102 29.217C49.4896 29.1754 49.5728 29.1418 49.6522 29.1085H49.6519C49.8193 29.0422 49.9909 28.9865 50.165 28.9417C50.2735 28.9168 50.3779 28.896 50.4864 28.8793V28.5368C50.4902 28.4065 50.4326 28.2817 50.3311 28.2C50.2297 28.1181 50.0955 28.0883 49.9691 28.1197C49.7774 28.1667 49.5895 28.2269 49.4057 28.2989C49.826 27.1888 49.826 25.9634 49.4057 24.853C49.5879 24.9247 49.7745 24.9833 49.9649 25.0284C50.0914 25.0716 50.2309 25.0514 50.3404 24.974L50.3404 24.974Z" fill="#FF008A"/>
<path d="M50.3404 24.974C50.4409 24.8946 50.4995 24.773 50.4989 24.6446V24.3066C50.3945 24.3066 50.2902 24.265 50.1861 24.2397L50.1858 24.24C50.0098 24.1968 49.8369 24.1411 49.6685 24.0729L49.3891 23.9561C49.3116 23.9225 49.2364 23.8834 49.1637 23.8392L49.0722 23.7643L48.851 23.6184L48.5213 23.3597L48.325 23.1763L48.3254 23.176C48.2469 23.0972 48.1403 23.0527 48.0293 23.0527C47.9179 23.0527 47.8113 23.0972 47.7328 23.176C47.5677 23.3354 47.5619 23.5982 47.7204 23.7643C48.4672 24.5086 48.8868 25.5198 48.8868 26.5739C48.8868 27.6283 48.4671 28.6395 47.7204 29.3838C47.6416 29.4651 47.5997 29.5752 47.6035 29.6882C47.6064 29.8015 47.6525 29.9091 47.7328 29.9888C47.8958 30.1504 48.1583 30.1504 48.3212 29.9888C48.3923 29.9177 48.463 29.8511 48.5382 29.7884L48.7133 29.6424C48.8676 29.5243 49.0309 29.4184 49.2015 29.3255C49.2687 29.2852 49.3385 29.249 49.4099 29.217C49.4886 29.1764 49.5693 29.1402 49.6519 29.1085C49.8193 29.0422 49.9909 28.9865 50.165 28.9417C50.2735 28.9168 50.3779 28.896 50.4864 28.8793V28.5368C50.4902 28.4065 50.4326 28.2817 50.3311 28.2C50.2297 28.1181 50.0955 28.0883 49.9691 28.1197C49.7774 28.1667 49.5895 28.2269 49.4057 28.2989C49.826 27.1888 49.826 25.9634 49.4057 24.853C49.5879 24.9247 49.7745 24.9833 49.9649 25.0284C50.0914 25.0716 50.2309 25.0514 50.3404 24.974L50.3404 24.974Z" fill="#FF008A"/>
<path d="M49.6641 23.1547V22.3538H32.8305V33.0922H49.6641V30.0217C49.8859 29.9004 50.1231 29.8091 50.3693 29.7505C50.5338 29.7109 50.7012 29.6843 50.8699 29.6712H51.1535C51.3453 29.6705 51.5364 29.6872 51.7253 29.7214C51.9471 29.7611 52.1638 29.8254 52.3719 29.9132V34.5022C52.3719 34.8402 52.2377 35.1642 51.9993 35.4036C51.7608 35.6428 51.4372 35.7778 51.0995 35.7788H31.4002C31.0615 35.7788 30.7369 35.6444 30.4974 35.4049C30.258 35.1655 30.1235 34.8409 30.1235 34.5022V20.9186C30.1303 20.5844 30.2676 20.2659 30.5061 20.0319C30.7449 19.7979 31.0659 19.667 31.4001 19.667H51.0994C51.433 19.668 51.7528 19.7995 51.9906 20.0335C52.2285 20.2672 52.3651 20.5851 52.3719 20.9186V23.2631C52.1619 23.3549 51.942 23.4222 51.7166 23.4634C51.6123 23.4634 51.4954 23.4967 51.2995 23.5092H51.0533C50.8222 23.5079 50.5924 23.4769 50.3693 23.4174C50.1244 23.3588 49.8878 23.2704 49.6641 23.1545L49.6641 23.1547Z" fill="#FF008A"/>
<path d="M44.9832 38.6609H37.5154C37.382 38.6606 37.2565 38.5966 37.178 38.4887C37.0996 38.3805 37.0778 38.2413 37.1191 38.1142L38.0535 35.2482C38.1118 35.069 38.2827 34.9512 38.4709 34.9605H44.0443C44.2326 34.9512 44.4035 35.069 44.4618 35.2482L45.4003 38.1142C45.4429 38.2448 45.4189 38.3882 45.3353 38.4974C45.2521 38.6065 45.1202 38.6677 44.9832 38.6609H44.9832ZM38.0913 37.8264H44.4073L43.744 35.7947H38.7379L38.0913 37.8264Z" fill="#FF008A"/>
<path d="M48.5545 22.3534H47.4946C47.6617 22.274 47.8439 22.2327 48.0289 22.2324C48.2107 22.2331 48.3903 22.2744 48.5545 22.3534H48.5545Z" fill="#FF008A"/>
<path d="M54.5489 30.0216C54.3882 30.1727 54.1379 30.1727 53.9772 30.0216C53.4109 29.4499 52.683 29.0655 51.8914 28.9202C51.5386 28.8597 51.1801 28.8427 50.8232 28.8702C50.6097 28.8872 50.3978 28.9208 50.1891 28.9704C49.4909 29.1455 48.8536 29.5076 48.3453 30.0175C48.2672 30.0972 48.1606 30.1423 48.0492 30.1426C47.9403 30.1433 47.8353 30.1014 47.7569 30.0258C47.6769 29.9461 47.6305 29.8385 47.6276 29.7255C47.6237 29.6122 47.666 29.5024 47.7444 29.4208C48.4996 28.6717 48.9221 27.6506 48.9173 26.5872C48.9128 25.5235 48.481 24.5062 47.7194 23.7639C47.6404 23.6855 47.5962 23.5789 47.5962 23.4678C47.5962 23.3564 47.6404 23.2498 47.7194 23.1714C47.7979 23.0926 47.9045 23.0481 48.0155 23.0481C48.1269 23.0481 48.2335 23.0926 48.312 23.1714C48.8228 23.6855 49.465 24.0491 50.1682 24.2229C50.5626 24.3269 50.972 24.3609 51.3783 24.3228C52.3453 24.2665 53.2576 23.8551 53.9398 23.1672C54.1021 23.0081 54.3617 23.0081 54.5236 23.1672C54.6075 23.245 54.6559 23.3535 54.6575 23.4678C54.6603 23.5814 54.6165 23.6915 54.5364 23.7722C53.7896 24.5164 53.37 25.5276 53.37 26.5821C53.37 27.6362 53.7897 28.6474 54.5364 29.3916C54.6293 29.4691 54.6837 29.5831 54.6863 29.7037C54.6885 29.8247 54.6386 29.9406 54.5489 30.0216L54.5489 30.0216Z" fill="#FF008A"/>
<path d="M41.2784 30.8556C41.1996 30.9337 41.093 30.977 40.982 30.9763C40.8712 30.977 40.7646 30.9337 40.6859 30.8556C40.1657 30.3371 39.4442 30.0733 38.7124 30.1338C38.1285 30.1824 37.5808 30.4385 37.1689 30.8556C37.0907 30.9344 36.9841 30.9789 36.8728 30.9789C36.7614 30.9789 36.6548 30.9344 36.5766 30.8556C36.4963 30.7769 36.4512 30.6693 36.4512 30.5573C36.4512 30.4449 36.4963 30.3374 36.5766 30.259C37.0402 29.7903 37.3004 29.1577 37.3004 28.4984C37.3004 27.8393 37.0402 27.2064 36.5766 26.7378C36.4147 26.5752 36.4147 26.3124 36.5766 26.1498C36.7393 25.9878 37.0021 25.9878 37.1647 26.1498C37.6317 26.6191 38.2675 26.8819 38.9294 26.8796H39.0796C39.6868 26.8416 40.2592 26.5835 40.69 26.154C40.8523 25.9949 41.1119 25.9949 41.2742 26.154C41.3561 26.2321 41.4029 26.3406 41.4035 26.4542C41.4051 26.5666 41.3616 26.6748 41.2825 26.7545C40.8174 27.2234 40.5565 27.8569 40.5565 28.5173C40.5565 29.1774 40.8174 29.8109 41.2825 30.2799C41.4349 30.4422 41.4329 30.6957 41.2783 30.8557L41.2784 30.8556Z" fill="#FF008A"/>
<path d="M57.2025 42.0654H45.8216C45.5912 42.0654 45.4045 42.2524 45.4045 42.4829V47.2054C45.4045 47.3158 45.4484 47.4221 45.5268 47.5002C45.6049 47.5786 45.7112 47.6225 45.8216 47.6225H57.2025C57.3133 47.6225 57.4195 47.5786 57.4976 47.5002C57.5757 47.4221 57.6199 47.3158 57.6199 47.2054V42.4829C57.6199 42.3721 57.5757 42.2661 57.4976 42.1877C57.4195 42.1096 57.3133 42.0654 57.2025 42.0654H57.2025ZM52.4549 45.2614H50.5651C50.3349 45.2614 50.148 45.0744 50.148 44.844C50.148 44.6138 50.3349 44.4269 50.5651 44.4269H52.4549C52.6854 44.4269 52.8724 44.6138 52.8724 44.844C52.8724 45.0744 52.6854 45.2614 52.4549 45.2614Z" fill="#FF008A"/>
<path d="M57.2025 48.3984H45.8216C45.5912 48.3984 45.4045 48.5854 45.4045 48.8155V56.5253C45.4045 56.6361 45.4484 56.742 45.5268 56.8201C45.6049 56.8986 45.7112 56.9424 45.8216 56.9424H57.2025C57.3133 56.9424 57.4195 56.8986 57.4976 56.8201C57.5757 56.742 57.6199 56.6361 57.6199 56.5253V48.8155C57.6199 48.7051 57.5757 48.5988 57.4976 48.5207C57.4195 48.4423 57.3133 48.3984 57.2025 48.3984L57.2025 48.3984ZM55.9509 53.9971H55.9512C55.9512 54.2276 55.7643 54.4142 55.5338 54.4142C55.3036 54.4142 55.1167 54.2276 55.1167 53.9971V51.4065C55.1167 51.176 55.3036 50.9891 55.5338 50.9891C55.7643 50.9891 55.9512 51.176 55.9512 51.4065L55.9509 53.9971Z" fill="#FF008A"/>
</g>
<defs>
<clipPath id="clip0_16414_36250">
<rect width="40" height="40" fill="white" transform="translate(21.4622 19)"/>
</clipPath>
</defs>
</svg>
