<svg width="81" height="81" viewBox="0 0 81 81" fill="none" xmlns="http://www.w3.org/2000/svg">
<g clip-path="url(#clip0_125_2051)">
<path d="M37.4219 0.8125C34.1406 1.67188 31.25 4.01562 29.7969 6.96875C28.7031 9.1875 28.4688 10.3438 28.4688 13.6562V16.4375H27.5C26.9531 16.4375 26.25 16.5156 25.9375 16.5938C25.0156 16.8594 24.0625 17.6719 23.5938 18.6094L23.1562 19.4688V29.8281C23.1562 38.375 23.1875 40.2969 23.375 40.7188C23.7031 41.5 24.7031 42.5469 25.5 42.9062C26.1719 43.2188 26.4844 43.2344 33.3594 43.2812L40.5 43.3281V41.9219V40.5156L33.6406 40.4688L26.7812 40.4219L26.375 40.0469L25.9688 39.6719V29.8438V20.0156L26.3594 19.6406L26.7344 19.25H40.5H54.2656L54.6406 19.6406L55.0312 20.0156V24.9531V29.875H56.4375H57.8438V24.6562V19.4375L57.4062 18.6094C56.9219 17.6719 55.9531 16.8438 55.0625 16.5938C54.7031 16.5 51.2188 16.4375 45.5469 16.4375H36.5938V14.2031C36.5938 12.9844 36.6719 11.7188 36.75 11.4062C37.1719 9.89062 38.8594 8.625 40.4375 8.625C42.5156 8.625 44.0938 10.0469 44.375 12.2031C44.6094 13.8438 44.625 13.8438 48.2656 13.9062C52.5 13.9688 52.6406 13.8906 52.4844 11.4844C52.1562 6.39062 48.3281 1.92188 43.2812 0.734375C41.8594 0.40625 38.8438 0.4375 37.4219 0.8125ZM42.7656 3.54688C45.3281 4.21875 47.5938 6.07812 48.75 8.46875C49.1094 9.20312 49.4531 10.0938 49.5 10.4531L49.6094 11.125H48.3594H47.125L46.8594 10.2969C46.3125 8.57812 45.0938 7.23438 43.3125 6.375C42.3594 5.92188 42.1875 5.89062 40.5 5.89062C38.8125 5.89062 38.6406 5.92188 37.6719 6.375C35.8594 7.23438 34.6719 8.59375 34.0938 10.4688C33.8438 11.2812 33.7812 11.9219 33.7812 13.9531V16.4375H32.5312H31.2812V13.8906C31.2812 12.1875 31.3594 11.0312 31.5156 10.3594C32.2656 7.20312 35 4.40625 38.1719 3.5625C39.2969 3.25 41.6094 3.25 42.7656 3.54688Z" fill="#333333"/>
<path d="M10.8913 19.25C7.79751 19.8906 5.37563 22.2656 4.64126 25.375C4.43813 26.2188 4.40688 29.4688 4.40688 48.0312V69.7188H3.00063C1.40688 69.7188 0.719383 69.9531 0.563133 70.5625C0.516258 70.7656 0.500633 72.2656 0.531883 73.875C0.578758 76.625 0.610008 76.875 0.953758 77.5312C1.45376 78.4844 2.45376 79.5 3.39126 80L4.17251 80.4219H40.5006H76.8288L77.61 80C78.5475 79.5 79.5475 78.4844 80.0475 77.5312C80.3913 76.875 80.4225 76.625 80.4694 73.875C80.5006 72.2656 80.485 70.7656 80.4381 70.5625C80.2819 69.9531 79.5944 69.7188 78.0006 69.7188H76.5944V48.0312C76.5944 29.375 76.5631 26.2188 76.36 25.375C75.7194 22.6406 73.8288 20.5156 71.1881 19.5312C70.3288 19.2188 69.9381 19.1875 65.3913 19.125L60.5006 19.0625V20.4844V21.8906L65.1569 21.9375L69.7975 21.9844L70.6881 22.4219C71.7663 22.9531 73.0163 24.2656 73.4069 25.2969C73.6881 26.0156 73.7038 27.0469 73.7506 47.875L73.7819 69.7188H62.9069H52.0163L50.6725 71.0469L49.3131 72.375H40.5006H31.6881L30.3288 71.0469L28.985 69.7188H18.0944H7.21938V48.1719C7.21938 26.9844 7.21938 26.6094 7.53188 25.6094C7.93813 24.2969 9.03188 23.0469 10.3131 22.4219L11.2038 21.9844L15.86 21.9375L20.5006 21.8906V20.4844V19.0938L16.0163 19.1094C13.5319 19.125 11.235 19.1875 10.8913 19.25ZM29.11 73.8594L30.485 75.1875H40.5006H50.5163L51.8913 73.8594L53.2663 72.5312H65.485H77.6881V74.2344C77.6881 76.125 77.485 76.6406 76.4538 77.3281L75.9225 77.6875H40.5006H5.07876L4.54751 77.3281C3.51626 76.6406 3.31313 76.125 3.31313 74.2344V72.5312H15.5163H27.735L29.11 73.8594Z" fill="#333333"/>
<path d="M39.6413 23.1719C36.3132 23.6094 34.2819 27.0938 35.4382 30.3906C35.9226 31.7656 37.4382 33.2656 38.6726 33.5625L39.0944 33.6562V35.125V36.5938H40.5007H41.9069V35.125V33.6562L42.3444 33.5625C43.5788 33.25 45.0632 31.7812 45.6101 30.3125C45.9226 29.4375 45.9226 27.5 45.5944 26.625C44.7038 24.2031 42.2976 22.8125 39.6413 23.1719ZM41.5632 26.1875C43.0163 26.9531 43.5007 28.75 42.5788 30.0156C42.2194 30.5 41.0632 31.125 40.5007 31.125C39.9382 31.125 38.7819 30.5 38.4226 30.0156C38.0163 29.4375 37.8444 28.5625 38.0319 27.875C38.4382 26.3906 40.2663 25.5156 41.5632 26.1875Z" fill="#4C40ED"/>
<path d="M12.4702 24.6562C11.9702 24.8125 11.4702 25.1406 10.9702 25.6406C9.62641 26.9844 9.72016 25.4844 9.72016 47.1875V66.3125L10.1733 66.7656L10.6264 67.2188H40.5014H70.3764L70.8295 66.7656L71.2827 66.3125V47.1875C71.2827 25.4844 71.3608 26.9844 70.0327 25.6562C68.9077 24.5156 68.3764 24.4062 64.0639 24.4062H60.5014V25.8125V27.2188H64.0014C67.4858 27.2188 67.517 27.2188 67.9545 27.5938L68.392 27.9688L68.4389 46.1875L68.4702 64.4062H40.5014H12.5327L12.5639 46.1875L12.6108 27.9688L13.0483 27.5938C13.4858 27.2188 13.517 27.2188 17.0014 27.2188H20.5014V25.8125V24.4062L16.8764 24.4219C14.1108 24.4219 13.0483 24.4844 12.4702 24.6562Z" fill="#333333"/>
<path d="M52.2969 32.5156C50.9531 32.7344 50.1562 33 48.9375 33.6406C45.25 35.5469 43.1562 39 43.1562 43.1562C43.1562 48.125 46.3281 52.2656 51.125 53.5625C52.6562 53.9844 55.25 53.9375 56.75 53.4844C60.25 52.4219 62.9062 49.8906 64 46.5781C64.3437 45.5781 64.4687 44.8594 64.5312 43.5312C64.5781 42.3281 64.5469 41.7656 64.4219 41.6875C64.3281 41.625 63.6875 41.6562 63 41.7656L61.75 41.9375V42.9844C61.75 47.0469 58.8125 50.4219 54.7812 51C53.625 51.1719 53.375 51.1562 52.1562 50.8437C49.1719 50.1094 47.0781 48.125 46.2187 45.2031C45.1406 41.5312 47.2969 37.2656 50.9531 35.8125C53.0312 35 55.1406 35.0937 57.2656 36.0781C58 36.4219 58.5312 36.5937 58.5937 36.5C60.0312 34.4219 60.0625 34.3594 59.8594 34.2187C59.2969 33.8281 57.3594 32.9844 56.5469 32.7812C55.4062 32.4844 53.3125 32.3594 52.2969 32.5156Z" fill="#333333"/>
<path d="M58 39.6406L53.8594 43.7812L52.3438 42.2656L50.8125 40.7344L49.7969 41.75L48.7812 42.7812L51.0156 45C53.125 47.0938 53.2969 47.2188 53.8594 47.2188C54.4531 47.2188 54.625 47.0625 59.3594 42.3438L64.25 37.4531L63.2812 36.4844C62.75 35.9375 62.2656 35.5 62.2188 35.5C62.1719 35.5 60.2812 37.3594 58 39.6406Z" fill="#4C40ED"/>
<path d="M24.4378 47.2344C22.7034 47.5625 20.8128 48.9531 19.9847 50.4688C18.0628 54.0156 19.3909 58.2188 23.0003 59.9375L24.0159 60.4219H40.5159H57.0003L58.1878 59.8281C59.5472 59.1562 60.5785 58.1406 61.1878 56.8594C61.891 55.375 61.9066 55.4375 60.5472 55.1094C59.8753 54.9531 59.2503 54.7969 59.1566 54.7656C59.0472 54.7344 58.891 54.9375 58.7972 55.2188C58.5316 56.0312 57.7035 56.9062 56.8441 57.3125L56.0472 57.6875H40.5003H24.9534L24.1566 57.3125C21.6409 56.1406 21.1878 52.8281 23.2972 50.9219C24.4378 49.8906 24.5784 49.875 33.7347 49.875H41.9066V48.4688V47.0625L33.5159 47.0781C28.8909 47.0938 24.8128 47.1562 24.4378 47.2344Z" fill="#333333"/>
<path d="M25.8125 53.7812V55.1875H27.2188H28.625V53.7812V52.375H27.2188H25.8125V53.7812Z" fill="#333333"/>
<path d="M31.125 53.7812V55.1875H32.5312H33.9375V53.7812V52.375H32.5312H31.125V53.7812Z" fill="#333333"/>
<path d="M36.4375 53.7812V55.1875H37.8438H39.25V53.7812V52.375H37.8438H36.4375V53.7812Z" fill="#333333"/>
<path d="M41.75 53.7812V55.1875H43.1562H44.5625V53.7812V52.375H43.1562H41.75V53.7812Z" fill="#333333"/>
</g>
<defs>
<clipPath id="clip0_125_2051">
<rect width="80" height="80" fill="white" transform="translate(0.5 0.5)"/>
</clipPath>
</defs>
</svg>
