<svg width="34" height="14" viewBox="0 0 34 14" fill="none" xmlns="http://www.w3.org/2000/svg">
<path d="M18.5273 1.89742L16.1755 2.40216V0.495386L18.5273 0V1.89742Z" fill="#635BFF"/>
<path d="M8.96998 1.08414L6.68374 1.57012L6.67437 9.05614C6.67437 10.4393 7.71442 11.458 9.10116 11.458C9.86949 11.458 10.4317 11.3178 10.7409 11.1496V9.2524C10.4411 9.3739 8.96061 9.80381 8.96061 8.42062V5.10285H10.7409V3.11219H8.96061L8.96998 1.08414Z" fill="#635BFF"/>
<path fill-rule="evenodd" clip-rule="evenodd" d="M33.9969 7.23359C33.9969 4.84106 32.835 2.9532 30.6144 2.9532C28.3844 2.9532 27.0351 4.84106 27.0351 7.2149C27.0351 10.028 28.628 11.4486 30.9142 11.4486C32.0292 11.4486 32.8725 11.1962 33.5097 10.8411V8.97192C32.8725 9.28968 32.1417 9.48594 31.2141 9.48594C30.3052 9.48594 29.4994 9.16819 29.3963 8.06538H33.9781C33.9781 8.01387 33.9815 7.89685 33.9854 7.76203L33.9854 7.76172L33.9854 7.76142L33.9854 7.76116C33.9907 7.57816 33.9969 7.3626 33.9969 7.23359ZM29.3681 6.34585C29.3681 5.28965 30.0146 4.85034 30.6049 4.85034C31.1765 4.85034 31.7855 5.28965 31.7855 6.34585H29.3681Z" fill="#635BFF"/>
<path d="M3.43263 4.98141C2.93603 4.98141 2.6362 5.1216 2.6362 5.48609C2.6362 5.88405 3.15222 6.05911 3.7924 6.27629C4.83604 6.63035 6.20967 7.09636 6.21548 8.82256C6.21548 10.4955 4.87559 11.4581 2.92666 11.4581C2.12085 11.4581 1.24009 11.2992 0.368693 10.9254V8.70106C1.15576 9.13097 2.14896 9.44873 2.92666 9.44873C3.45137 9.44873 3.82617 9.30854 3.82617 8.87863C3.82617 8.43781 3.26679 8.23632 2.59147 7.99307C1.563 7.62261 0.265625 7.15529 0.265625 5.59824C0.265625 3.94402 1.53055 2.95336 3.43263 2.95336C4.21033 2.95336 4.97866 3.07486 5.75635 3.38327V5.57955C5.04425 5.19637 4.14474 4.98141 3.43263 4.98141Z" fill="#635BFF"/>
<path d="M13.6551 3.80373L13.5052 3.11213H11.4813V11.2897H13.8237V5.74766C14.3766 5.02803 15.3135 5.15887 15.604 5.26168V3.11213C15.3042 2.99998 14.2079 2.79437 13.6551 3.80373Z" fill="#635BFF"/>
<path d="M16.1753 3.11225H18.5272V11.2899H16.1753V3.11225Z" fill="#635BFF"/>
<path fill-rule="evenodd" clip-rule="evenodd" d="M21.5817 3.68218C21.9096 3.38311 22.4999 2.9532 23.4182 2.9532C25.0579 2.9532 26.6039 4.42984 26.6133 7.14014C26.6133 10.1028 25.086 11.4486 23.4088 11.4486C22.5843 11.4486 22.0877 11.1028 21.7504 10.8598L21.741 13.5047L19.3985 14V3.10273H21.4599L21.5817 3.68218ZM21.7504 8.95367C21.9753 9.19668 22.3032 9.39297 22.8561 9.39297C23.7181 9.39297 24.299 8.45828 24.299 7.20579C24.299 5.98135 23.7087 5.02796 22.8561 5.02796C22.322 5.02796 21.9847 5.2149 21.741 5.48596L21.7504 8.95367Z" fill="#635BFF"/>
</svg>
