<svg width="75" height="17" viewBox="0 0 75 17" fill="none" xmlns="http://www.w3.org/2000/svg">
<path d="M56.7821 3.41142C57.7593 3.41142 58.2304 4.35365 58.2304 5.10394C58.2304 5.87169 57.7069 6.79647 56.7123 6.79647H54.4614V3.41142H56.7821ZM51.8965 13.1827H54.4614V9.03111H56.8345C59.5739 9.03111 60.7953 7.11175 60.7953 5.10515C60.7953 3.13344 59.5739 1.16174 56.8345 1.16174H51.8965V13.1827ZM67.5305 13.1827H69.9373V5.03415H67.5305V5.94148C66.8687 5.0516 65.6984 4.85846 65.1575 4.85846C64.6054 4.86053 64.0592 4.97226 63.5507 5.18718C63.0422 5.40209 62.5814 5.7159 62.1951 6.11038C61.8089 6.50486 61.5048 6.97215 61.3007 7.48512C61.0965 7.99808 60.9964 8.54649 61.0059 9.0985C60.9962 9.65061 61.0963 10.1991 61.3003 10.7122C61.5044 11.2253 61.8084 11.6928 62.1947 12.0874C62.581 12.482 63.0418 12.7959 63.5504 13.0109C64.059 13.2259 64.6053 13.3377 65.1575 13.3397C65.7682 13.3397 67.0245 13.0257 67.5305 12.2567V13.1827ZM63.5173 9.0997C63.5239 8.83838 63.5819 8.58092 63.6881 8.34206C63.7943 8.10321 63.9466 7.88765 64.1362 7.70774C64.3259 7.52782 64.5491 7.38709 64.7933 7.2936C65.0374 7.2001 65.2975 7.15569 65.5588 7.16289C65.8165 7.15668 66.0728 7.20228 66.3125 7.29697C66.5523 7.39167 66.7706 7.53354 66.9544 7.71416C67.1383 7.89479 67.2841 8.1105 67.383 8.3485C67.482 8.5865 67.5321 8.84195 67.5305 9.0997C67.5335 9.35782 67.4842 9.61388 67.3857 9.8525C67.2873 10.0911 67.1416 10.3074 66.9574 10.4883C66.7732 10.6692 66.5544 10.811 66.3141 10.9052C66.0738 10.9994 65.8169 11.0441 65.5588 11.0365C65.2975 11.0437 65.0374 10.9993 64.7933 10.9058C64.5491 10.8123 64.3259 10.6716 64.1362 10.4917C63.9466 10.3117 63.7943 10.0962 63.6881 9.85734C63.5819 9.61848 63.5239 9.36102 63.5173 9.0997ZM71.6484 0.602173V13.1827H74.0744V0.602173H71.6484Z" fill="#00CBFB"/>
<path d="M27.7571 2.85314C28.7342 2.85314 29.2054 3.79537 29.2054 4.54566C29.2054 5.31341 28.6819 6.23819 27.6873 6.23819H25.4364V2.85314H27.7571ZM22.8721 12.6244H25.437V8.47283H27.8101C30.5495 8.47283 31.7709 6.55347 31.7709 4.54686C31.7709 2.57516 30.5495 0.603455 27.8101 0.603455H22.8721V12.6244ZM38.5055 12.6244H40.9122V4.47587H38.5055V5.3832C37.8437 4.49332 36.6734 4.30018 36.1325 4.30018C35.5804 4.30225 35.0342 4.41398 34.5257 4.6289C34.0171 4.84381 33.5564 5.15762 33.1701 5.5521C32.7839 5.94658 32.4798 6.41387 32.2757 6.92683C32.0715 7.4398 31.9713 7.9882 31.9809 8.54021C31.9712 9.09232 32.0713 9.64086 32.2753 10.154C32.4794 10.6671 32.7834 11.1345 33.1697 11.5291C33.5559 11.9237 34.0168 12.2376 34.5254 12.4526C35.034 12.6676 35.5803 12.7794 36.1325 12.7815C36.7432 12.7815 37.9995 12.4674 38.5055 11.6984V12.6244ZM34.4923 8.54142C34.4989 8.2801 34.5569 8.02264 34.6631 7.78378C34.7693 7.54492 34.9216 7.32937 35.1112 7.14945C35.3009 6.96954 35.5241 6.82881 35.7682 6.73532C36.0124 6.64182 36.2725 6.59741 36.5338 6.60461C36.7915 6.5984 37.0478 6.644 37.2875 6.73869C37.5273 6.83339 37.7455 6.97525 37.9294 7.15588C38.1133 7.33651 38.259 7.55222 38.358 7.79022C38.457 8.02822 38.5071 8.28367 38.5055 8.54142C38.5085 8.79954 38.4592 9.0556 38.3607 9.29422C38.2622 9.53283 38.1165 9.74908 37.9324 9.92998C37.7482 10.1109 37.5294 10.2527 37.2891 10.3469C37.0487 10.4411 36.7918 10.4858 36.5338 10.4782C36.2725 10.4854 36.0124 10.441 35.7682 10.3475C35.5241 10.254 35.3009 10.1133 35.1112 9.93338C34.9216 9.75347 34.7693 9.53791 34.6631 9.29906C34.5569 9.0602 34.4989 8.80274 34.4923 8.54142ZM50.3358 4.47587H47.7533L45.9387 9.09978L44.1415 4.47587H41.559L44.6998 11.7863L42.7444 16.6196H45.3093L50.3358 4.47587Z" fill="#1E4686"/>
<path d="M3.79688 15.5819L4.18195 13.2134L5.28543 6.22755L5.76407 3.09882H11.0844C12.3501 3.09882 13.3016 3.43395 13.9123 4.0949C14.2046 4.41429 14.4144 4.80021 14.5236 5.21914C14.634 5.65113 14.6694 6.09886 14.6283 6.54283C14.5143 8.00582 14.0083 9.22843 13.1647 10.0789C12.7437 10.4973 12.2425 10.8263 11.6911 11.0462C11.1398 11.266 10.5497 11.3722 9.95627 11.3584H8.90935C8.88322 11.4326 8.86497 11.5093 8.8549 11.5873L8.47283 14.1035L8.26706 15.5831L3.79688 15.5819Z" fill="#00CBFB"/>
<g style="mix-blend-mode:multiply">
<g style="mix-blend-mode:multiply">
<path fill-rule="evenodd" clip-rule="evenodd" d="M3.09354 0H8.34146C8.90921 0 9.57924 0.00827569 10.2301 0.127833C10.8842 0.248009 11.562 0.487663 12.1228 0.981778L12.1299 0.988008L12.1367 0.994457C12.513 1.34755 12.8021 1.78319 12.9813 2.26705C13.1595 2.74823 13.2242 3.26404 13.1704 3.77426C13.0368 5.41835 12.4722 6.75929 11.5549 7.69485C10.6317 8.6363 9.3943 9.12237 8.01294 9.12237H6.04915C6.04262 9.13505 6.03459 9.15266 6.02574 9.17636C6.00371 9.23532 5.98029 9.32206 5.96084 9.44564C5.96083 9.44568 5.96084 9.44561 5.96084 9.44564L5.4494 12.6995L5.44914 12.7012L5.26305 13.8636H0.925781L1.13441 12.3752L1.14029 12.3358L2.61517 2.99714L2.64502 2.81269L2.64525 2.81122L2.91099 1.14252V1.13577L3.09354 0ZM4.11435 1.23186V1.23774L3.83317 3.00342L3.80344 3.1871L3.80308 3.18934L2.32973 12.5184L2.32538 12.5475L2.30958 12.6602H4.23701L4.26064 12.5127L4.26091 12.511L4.77207 9.2588C4.82686 8.91057 4.93067 8.57641 5.14305 8.32246C5.38256 8.03608 5.70186 7.91901 6.02438 7.91901H8.01294C9.10058 7.91901 10.0187 7.54272 10.6956 6.85234C11.3769 6.15758 11.8566 5.10005 11.9715 3.6699L11.9722 3.66163L11.9731 3.65339C12.0085 3.32564 11.9674 2.99414 11.8529 2.685C11.7395 2.37883 11.5572 2.10288 11.3202 1.87846C10.9805 1.58211 10.5372 1.40775 10.0126 1.31139C9.48107 1.21374 8.90998 1.20336 8.34146 1.20336H4.11893L4.11435 1.23186Z" fill="#008EF6"/>
</g>
</g>
</svg>
