<svg width="16" height="16" viewBox="0 0 16 16" fill="none" xmlns="http://www.w3.org/2000/svg">
<path d="M13.7667 12.6601L13.7667 12.668C13.7663 12.8308 13.7318 12.9917 13.6655 13.1404C13.5994 13.2888 13.503 13.4216 13.3825 13.5306C13.2548 13.6467 13.103 13.733 12.9379 13.7833C12.774 13.8333 12.6011 13.8465 12.4315 13.8221C9.83638 13.4824 7.42474 12.2993 5.56765 10.4549L5.56644 10.4537C3.70773 8.595 2.51436 6.1749 2.17138 3.56882C2.14695 3.39919 2.16018 3.22623 2.21018 3.06225C2.26062 2.89679 2.34723 2.74462 2.46372 2.61676L2.83333 2.9535M13.7667 12.6601L3.33333 2.7335M13.7667 12.6601L13.7664 12.6523L13.7068 10.6038M13.7667 12.6601L13.7068 10.6038M2.83333 2.9535L2.46213 2.61851C2.57252 2.49619 2.70757 2.39863 2.85839 2.33228C3.00854 2.26621 3.17094 2.23255 3.33497 2.2335M2.83333 2.9535C2.89641 2.8836 2.97358 2.82785 3.05976 2.78993L5.91999 10.1002C4.13831 8.31847 2.99468 5.99841 2.66666 3.50016C2.65218 3.40239 2.65962 3.30261 2.68844 3.20806C2.71727 3.11352 2.76676 3.02656 2.83333 2.9535ZM3.33497 2.2335C3.33569 2.2335 3.33641 2.23351 3.33713 2.23351L3.33333 2.7335M3.33497 2.2335H3.33333V2.7335M3.33497 2.2335H5.32806M3.33333 2.7335H5.33333M5.32806 2.2335C5.32575 2.23354 5.32343 2.23359 5.32111 2.23365L5.33333 2.7335M5.32806 2.2335C5.59533 2.22856 5.85627 2.31555 6.06715 2.48004C6.27987 2.64596 6.42851 2.88047 6.48778 3.14365L6.49999 3.19789V3.2535C6.49999 3.32605 6.51535 3.38846 6.54235 3.49819C6.55512 3.55008 6.5705 3.61256 6.58809 3.6917L6.58825 3.69244C6.66005 4.01787 6.75556 4.33761 6.87401 4.64911L7.03852 5.08173L6.61987 5.27909L5.68654 5.71909L5.68193 5.72126L5.68192 5.72124C5.64181 5.73965 5.61065 5.77321 5.59525 5.81457L5.59233 5.82242L5.58915 5.83016C5.5735 5.86828 5.57254 5.91074 5.5863 5.94938M5.32806 2.2335H5.33333V2.7335M5.33333 2.7335L5.5863 5.94938M5.5863 5.94938C5.5841 5.9447 5.58191 5.94001 5.57972 5.93532L5.12666 6.14683M5.5863 5.94938L5.12666 5.64016C5.05998 5.80247 5.05998 5.98452 5.12666 6.14683M5.5863 5.94938C6.49487 7.88696 8.05319 9.44529 9.99078 10.3539M5.5863 5.94938L10.3 10.8135C10.4654 10.7519 10.5997 10.6273 10.6733 10.4668M5.5863 5.94938C5.58719 5.95188 5.58814 5.95436 5.58915 5.95683L5.12666 6.14683M5.5863 5.94938L5.12666 6.14683M9.99078 10.3539C9.98828 10.353 9.98579 10.352 9.98333 10.351L9.79333 10.8135L10.0048 10.3604C10.0001 10.3582 9.99546 10.3561 9.99078 10.3539ZM9.99078 10.3539C10.0294 10.3676 10.0719 10.3667 10.11 10.351L10.1177 10.3478L10.1256 10.3449C10.1665 10.3297 10.1998 10.299 10.2184 10.2594M10.2184 10.2594L10.2174 10.2616L10.6733 10.4668M10.2184 10.2594L10.6374 9.32831L10.8281 8.90456L11.2646 9.06375C11.5878 9.18159 11.9184 9.27784 12.2543 9.35188L12.2591 9.35294L12.2591 9.35297C12.4162 9.38921 12.5892 9.42027 12.7599 9.44556L12.7783 9.44829L12.7965 9.45238C13.0597 9.51165 13.2942 9.66029 13.4601 9.873C13.6229 10.0817 13.7098 10.3394 13.7068 10.6038M10.2184 10.2594C10.2186 10.259 10.2187 10.2586 10.2189 10.2582L10.6733 10.4668M10.6733 10.4668L13.7068 10.6038M7.19987 5.16097C7.12369 5.34989 6.98099 5.5043 6.79882 5.59512L6.49901 5.73199L6.00245 5.95868L6.27174 6.43349C6.65985 7.11782 7.1334 7.75001 7.681 8.31486L7.6864 8.32043L7.69196 8.32582C8.25681 8.87342 8.88901 9.34698 9.57333 9.73508L10.0397 9.9996L10.2711 9.51589L10.4166 9.21151C10.5072 9.02766 10.6624 8.88362 10.8525 8.80695C11.0426 8.7303 11.2543 8.72641 11.4471 8.79598C11.7524 8.91032 12.0652 9.00341 12.3834 9.07459C12.3982 9.07799 12.4169 9.08263 12.4386 9.08804C12.5414 9.11365 12.713 9.15641 12.8805 9.16521C13.2046 9.23763 13.4959 9.41569 13.7083 9.67195C13.9284 9.93749 14.0502 10.2707 14.0533 10.6156V12.6135V12.6142C14.0536 12.8255 14.0092 13.0346 13.923 13.2276C13.837 13.4204 13.7111 13.5929 13.5538 13.7337C13.2785 13.9788 12.9227 14.114 12.5541 14.1135L12.5346 14.1135L12.5152 14.1149C12.4582 14.1193 12.4009 14.1196 12.3438 14.1158C9.68379 13.7652 7.21313 12.5485 5.3136 10.6533C3.415 8.75039 2.19723 6.27422 1.84912 3.60874L1.84912 3.60874L1.8487 3.60567C1.81933 3.39116 1.83675 3.17283 1.89976 2.96569C1.96269 2.75879 2.06961 2.56794 2.2132 2.40624C2.35402 2.24896 2.52646 2.12318 2.71923 2.03712C2.91225 1.95095 3.12129 1.90655 3.33267 1.90683H3.33333H5.33999V1.90688L5.34726 1.90678C5.70461 1.90158 6.05207 2.02414 6.32707 2.2524L6.64641 1.86766L6.32707 2.2524C6.60002 2.47895 6.78379 2.79484 6.84588 3.1439C6.86737 3.2997 6.89603 3.4641 6.93233 3.6239C7.00433 3.94349 7.09724 4.258 7.21047 4.56541C7.28043 4.75845 7.27666 4.97053 7.19987 5.16097ZM8.97999 2.16683H8.95878L8.93765 2.16863C8.89297 2.17242 8.84861 2.15832 8.81433 2.12941C8.78005 2.1005 8.75866 2.05916 8.75486 2.01448C8.75107 1.9698 8.76517 1.92544 8.79408 1.89117C8.81992 1.86052 8.8557 1.84018 8.89491 1.8335H8.89548H8.89639H8.89729H8.89819H8.8991H8.9H8.9009H8.90181H8.90271H8.90362H8.90452H8.90543H8.90633H8.90723H8.90814H8.90904H8.90995H8.91085H8.91176H8.91266H8.91357H8.91448H8.91538H8.91629H8.91719H8.9181H8.91901H8.91991H8.92082H8.92173H8.92263H8.92354H8.92445H8.92535H8.92626H8.92717H8.92807H8.92898H8.92989H8.9308H8.9317H8.93261H8.93352H8.93443H8.93534H8.93625H8.93715H8.93806H8.93897H8.93988H8.94079H8.9417H8.94261H8.94352H8.94443H8.94534H8.94624H8.94715H8.94806H8.94897H8.94988H8.95079H8.9517H8.95261H8.95352H8.95443H8.95535H8.95626H8.95717H8.95808H8.95899H8.9599H8.96081H8.96172H8.96263H8.96354H8.96446H8.96537H8.96628H8.96719H8.9681H8.96901H8.96993H8.97084H8.97175H8.97266H8.97357H8.97449H8.9754H8.97631H8.97722H8.97814H8.97905H8.97996H8.98088H8.98179H8.9827H8.98361H8.98453H8.98544H8.98635H8.98727H8.98818H8.98909H8.99001H8.99092H8.99184H8.99275H8.99366H8.99458H8.99549H8.99641H8.99732H8.99823H8.99915H9.00006H9.00098H9.00189H9.00281H9.00372H9.00464H9.00555H9.00647H9.00738H9.0083H9.00921H9.01013H9.01104H9.01196H9.01287H9.01379H9.0147H9.01562H9.01653H9.01745H9.01836H9.01928H9.0202H9.02111H9.02203H9.02294H9.02386H9.02477H9.02569H9.02661H9.02752H9.02844H9.02935H9.03027H9.03119H9.0321H9.03302H9.03394H9.03485H9.03577H9.03669H9.0376H9.03852H9.03944H9.04035H9.04127H9.04219H9.0431H9.04402H9.04494H9.04585H9.04677H9.04769H9.0486H9.04952H9.05044H9.05136H9.05227H9.05319H9.05411H9.05502H9.05594H9.05686H9.05778H9.05869H9.05961H9.06053H9.06145H9.06236H9.06328H9.0642H9.06512H9.06603H9.06695H9.06787H9.06879H9.0697H9.07062H9.07154H9.07246H9.07337H9.07429H9.07521H9.07613H9.07704H9.07796H9.07888H9.0798H9.08072H9.08163H9.08255H9.08347H9.08439H9.08531H9.08622H9.08714H9.08806H9.08898H9.0899H9.09081H9.09173H9.09265H9.09357H9.09448H9.0954H9.09632H9.09724H9.09816H9.09907H9.09999H9.10091H9.10183H9.10275H9.10366H9.10458H9.1055H9.10642H9.10734H9.10825H9.10917H9.11009H9.11101H9.11193H9.11284H9.11376H9.11468H9.1156H9.11652H9.11743H9.11835H9.11927H9.12019H9.1211H9.12202H9.12294H9.12386H9.12478H9.12569H9.12661H9.12753H9.12845H9.12936H9.13028H9.1312H9.13212H9.13303H9.13395H9.13487H9.13579H9.1367H9.13762H9.13854H9.13946H9.14037H9.14129H9.14221H9.14313H9.14404H9.14496H9.14588H9.1468H9.14771H9.14863H9.14955H9.15046H9.15138H9.1523H9.15322H9.15413H9.15505H9.15597H9.15688H9.1578H9.15872H9.15963H9.16055H9.16147H9.16238H9.1633H9.16422H9.16513H9.16605H9.16697H9.16788H9.1688H9.16971H9.17063H9.17155H9.17246H9.17338H9.1743H9.17521H9.17613H9.17704H9.17796H9.17887H9.17979H9.18071H9.18162H9.18254H9.18345H9.18437H9.18528H9.1862H9.18711H9.18803H9.18894H9.18986H9.19078H9.19169H9.19261H9.19352H9.19443H9.19535H9.19626H9.19718H9.19809H9.19901H9.19992H9.20084H9.20175H9.20267H9.20358H9.20449H9.20541H9.20632H9.20724H9.20815H9.20906H9.20998H9.21089H9.2118H9.21272H9.21363H9.21454H9.21546H9.21637H9.21728H9.2182H9.21911H9.22002H9.22094H9.22185H9.22276H9.22367H9.22459H9.2255H9.22641H9.22732H9.22824H9.22915H9.23006H9.23097H9.23188H9.2328H9.23371H9.23462H9.23553H9.23644H9.23735H9.23826H9.23917H9.24009H9.241H9.24191H9.24282H9.24373H9.24464H9.24555H9.24646H9.24737H9.24828H9.24919H9.2501H9.25101H9.25192H9.25283H9.25374H9.25465H9.25556H9.25647H9.25738H9.25829H9.2592H9.2601H9.26101H9.26192H9.26283H9.26374H9.26465H9.26556H9.26646H9.26737H9.26828H9.26919H9.2701H9.271H9.27191H9.27282H9.27373H9.27463H9.27554H9.27645H9.27735H9.27826H9.27917H9.28007H9.28098H9.28189H9.28279H9.2837H9.2846H9.28551H9.28641H9.28732H9.28823H9.28913H9.29004H9.29094H9.29185H9.29275H9.29366H9.29456H9.29546H9.29637H9.29727H9.29818H9.29908H9.29998H9.30089H9.30179H9.30269H9.3036H9.3045H9.3054H9.30631H9.30721H9.30811H9.30901H9.30992H9.31082H9.31172H9.31262H9.31352H9.31443H9.31533H9.31623H9.31713H9.31803H9.31893H9.31983H9.32073H9.32163H9.32253H9.32343H9.32433H9.32523H9.32613H9.32703H9.32793H9.32883H9.32973H9.33063H9.33153H9.33243H9.333C10.6137 1.83518 11.8414 2.3451 12.7465 3.25128C13.6516 4.15753 14.16 5.386 14.16 6.66683V6.66773V6.66863V6.66953V6.67042V6.67132V6.67222V6.67312V6.67402V6.67492V6.67582V6.67672V6.67762V6.67852V6.67942V6.68032V6.68122V6.68212V6.68303V6.68393V6.68483V6.68573V6.68663V6.68753V6.68843V6.68934V6.69024V6.69114V6.69204V6.69295V6.69385V6.69475V6.69565V6.69656V6.69746V6.69836V6.69927V6.70017V6.70108V6.70198V6.70288V6.70379V6.70469V6.7056V6.7065V6.7074V6.70831V6.70921V6.71012V6.71102V6.71193V6.71284V6.71374V6.71465V6.71555V6.71646V6.71736V6.71827V6.71918V6.72008V6.72099V6.7219V6.7228V6.72371V6.72462V6.72552V6.72643V6.72734V6.72824V6.72915V6.73006V6.73097V6.73188V6.73278V6.73369V6.7346V6.73551V6.73642V6.73732V6.73823V6.73914V6.74005V6.74096V6.74187V6.74278V6.74369V6.7446V6.74551V6.74642V6.74732V6.74823V6.74914V6.75005V6.75096V6.75187V6.75278V6.75369V6.75461V6.75552V6.75643V6.75734V6.75825V6.75916V6.76007V6.76098V6.76189V6.7628V6.76371V6.76463V6.76554V6.76645V6.76736V6.76827V6.76918V6.7701V6.77101V6.77192V6.77283V6.77374V6.77466V6.77557V6.77648V6.77739V6.77831V6.77922V6.78013V6.78104V6.78196V6.78287V6.78378V6.7847V6.78561V6.78652V6.78744V6.78835V6.78926V6.79018V6.79109V6.79201V6.79292V6.79383V6.79475V6.79566V6.79658V6.79749V6.7984V6.79932V6.80023V6.80115V6.80206V6.80298V6.80389V6.80481V6.80572V6.80664V6.80755V6.80847V6.80938V6.8103V6.81121V6.81213V6.81304V6.81396V6.81487V6.81579V6.8167V6.81762V6.81853V6.81945V6.82036V6.82128V6.8222V6.82311V6.82403V6.82494V6.82586V6.82678V6.82769V6.82861V6.82952V6.83044V6.83136V6.83227V6.83319V6.83411V6.83502V6.83594V6.83686V6.83777V6.83869V6.83961V6.84052V6.84144V6.84236V6.84327V6.84419V6.84511V6.84602V6.84694V6.84786V6.84877V6.84969V6.85061V6.85153V6.85244V6.85336V6.85428V6.85519V6.85611V6.85703V6.85795V6.85886V6.85978V6.8607V6.86162V6.86253V6.86345V6.86437V6.86529V6.8662V6.86712V6.86804V6.86896V6.86987V6.87079V6.87171V6.87263V6.87354V6.87446V6.87538V6.8763V6.87721V6.87813V6.87905V6.87997V6.88089V6.8818V6.88272V6.88364V6.88456V6.88548V6.88639V6.88731V6.88823V6.88915V6.89007V6.89098V6.8919V6.89282V6.89374V6.89465V6.89557V6.89649V6.89741V6.89833V6.89924V6.90016V6.90108V6.902V6.90292V6.90383V6.90475V6.90567V6.90659V6.90751V6.90842V6.90934V6.91026V6.91118V6.9121V6.91301V6.91393V6.91485V6.91577V6.91669V6.9176V6.91852V6.91944V6.92036V6.92127V6.92219V6.92311V6.92403V6.92495V6.92586V6.92678V6.9277V6.92862V6.92953V6.93045V6.93137V6.93229V6.93321V6.93412V6.93504V6.93596V6.93688V6.93779V6.93871V6.93963V6.94055V6.94146V6.94238V6.9433V6.94421V6.94513V6.94605V6.94697V6.94788V6.9488V6.94972V6.95063V6.95155V6.95247V6.95339V6.9543V6.95522V6.95614V6.95705V6.95797V6.95889V6.9598V6.96072V6.96164V6.96255V6.96347V6.96439V6.9653V6.96622V6.96714V6.96805V6.96897V6.96988V6.9708V6.97172V6.97263V6.97355V6.97447V6.97538V6.9763V6.97721V6.97813V6.97904V6.97996V6.98088V6.98179V6.98271V6.98362V6.98454V6.98545V6.98637V6.98728V6.9882V6.98912V6.99003V6.99095V6.99186V6.99278V6.99369V6.99461V6.99552V6.99643V6.99735V6.99826V6.99918V7.00009V7.00101V7.00192V7.00284V7.00375V7.00466V7.00558V7.00649V7.00741V7.00832V7.00923V7.01015V7.01106V7.01197V7.01289V7.0138V7.01471V7.01563V7.01654V7.01745V7.01837V7.01928V7.02019V7.02111V7.02202V7.02293V7.02384V7.02476V7.02567V7.02658V7.02749V7.02841V7.02932V7.03023V7.03114V7.03205V7.03297V7.03388V7.03479V7.0357V7.03661V7.03752V7.03843V7.03935V7.04026V7.04117V7.04208V7.04299V7.0439V7.04481V7.04572V7.04663V7.04754V7.04845V7.04936V7.05027V7.05118V7.05209V7.053V7.05391V7.05482V7.05573V7.05664V7.05755V7.05846V7.05937V7.06028V7.06118V7.06209V7.063V7.06391V7.06482V7.06573V7.06663V7.06754V7.06845V7.06936V7.07027V7.07117V7.07208V7.07299V7.0739V7.0748V7.07571V7.07662V7.07752V7.07843V7.07934V7.08024V7.08115V7.08206V7.08296V7.08387V7.08477V7.08568V7.08659V7.08749V7.0884V7.0893V7.09021V7.09111V7.09202V7.09292V7.09383V7.09473V7.09563V7.09654V7.09744V7.09835V7.09925V7.10015V7.10106V7.10196V7.10287V7.10341C14.1535 7.13923 14.1353 7.17208 14.1082 7.19677C14.0773 7.22485 14.0371 7.24034 13.9954 7.24016H13.9933H13.9689C13.9305 7.23344 13.8955 7.21343 13.8702 7.18339C13.8418 7.14964 13.8279 7.10601 13.8316 7.06204L13.8333 7.04114V7.02016V7.01946V7.01876V7.01805V7.01735V7.01665V7.01595V7.01524V7.01454V7.01384V7.01314V7.01244V7.01174V7.01103V7.01033V7.00963V7.00893V7.00823V7.00753V7.00683V7.00613V7.00543V7.00473V7.00403V7.00333V7.00263V7.00193V7.00123V7.00053V6.99983V6.99914V6.99844V6.99774V6.99704V6.99634V6.99564V6.99494V6.99425V6.99355V6.99285V6.99215V6.99146V6.99076V6.99006V6.98936V6.98867V6.98797V6.98727V6.98658V6.98588V6.98518V6.98449V6.98379V6.9831V6.9824V6.98171V6.98101V6.98031V6.97962V6.97892V6.97823V6.97753V6.97684V6.97614V6.97545V6.97475V6.97406V6.97337V6.97267V6.97198V6.97128V6.97059V6.9699V6.9692V6.96851V6.96782V6.96712V6.96643V6.96574V6.96504V6.96435V6.96366V6.96296V6.96227V6.96158V6.96089V6.9602V6.9595V6.95881V6.95812V6.95743V6.95674V6.95604V6.95535V6.95466V6.95397V6.95328V6.95259V6.9519V6.9512V6.95051V6.94982V6.94913V6.94844V6.94775V6.94706V6.94637V6.94568V6.94499V6.9443V6.94361V6.94292V6.94223V6.94154V6.94085V6.94016V6.93947V6.93878V6.93809V6.9374V6.93671V6.93603V6.93534V6.93465V6.93396V6.93327V6.93258V6.93189V6.9312V6.93052V6.92983V6.92914V6.92845V6.92776V6.92707V6.92639V6.9257V6.92501V6.92432V6.92364V6.92295V6.92226V6.92157V6.92089V6.9202V6.91951V6.91882V6.91814V6.91745V6.91676V6.91608V6.91539V6.9147V6.91401V6.91333V6.91264V6.91195V6.91127V6.91058V6.9099V6.90921V6.90852V6.90784V6.90715V6.90646V6.90578V6.90509V6.90441V6.90372V6.90303V6.90235V6.90166V6.90098V6.90029V6.89961V6.89892V6.89823V6.89755V6.89686V6.89618V6.89549V6.89481V6.89412V6.89344V6.89275V6.89207V6.89138V6.8907V6.89001V6.88933V6.88864V6.88796V6.88727V6.88659V6.8859V6.88522V6.88453V6.88385V6.88316V6.88248V6.88179V6.88111V6.88043V6.87974V6.87906V6.87837V6.87769V6.877V6.87632V6.87564V6.87495V6.87427V6.87358V6.8729V6.87221V6.87153V6.87085V6.87016V6.86948V6.86879V6.86811V6.86743V6.86674V6.86606V6.86537V6.86469V6.86401V6.86332V6.86264V6.86196V6.86127V6.86059V6.8599V6.85922V6.85854V6.85785V6.85717V6.85648V6.8558V6.85512V6.85443V6.85375V6.85307V6.85238V6.8517V6.85102V6.85033V6.84965V6.84896V6.84828V6.8476V6.84691V6.84623V6.84555V6.84486V6.84418V6.8435V6.84281V6.84213V6.84145V6.84076V6.84008V6.83939V6.83871V6.83803V6.83734V6.83666V6.83598V6.83529V6.83461V6.83393V6.83324V6.83256V6.83187V6.83119V6.83051V6.82982V6.82914V6.82846V6.82777V6.82709V6.8264V6.82572V6.82504V6.82435V6.82367V6.82299V6.8223V6.82162V6.82093V6.82025V6.81957V6.81888V6.8182V6.81751V6.81683V6.81615V6.81546V6.81478V6.81409V6.81341V6.81273V6.81204V6.81136V6.81067V6.80999V6.8093V6.80862V6.80794V6.80725V6.80657V6.80588V6.8052V6.80451V6.80383V6.80314V6.80246V6.80177V6.80109V6.80041V6.79972V6.79904V6.79835V6.79767V6.79698V6.7963V6.79561V6.79493V6.79424V6.79356V6.79287V6.79218V6.7915V6.79081V6.79013V6.78944V6.78876V6.78807V6.78739V6.7867V6.78602V6.78533V6.78464V6.78396V6.78327V6.78259V6.7819V6.78121V6.78053V6.77984V6.77916V6.77847V6.77778V6.7771V6.77641V6.77572V6.77504V6.77435V6.77366V6.77298V6.77229V6.7716V6.77092V6.77023V6.76954V6.76886V6.76817V6.76748V6.76679V6.76611V6.76542V6.76473V6.76404V6.76336V6.76267V6.76198V6.76129V6.76061V6.75992V6.75923V6.75854V6.75785V6.75716V6.75648V6.75579V6.7551V6.75441V6.75372V6.75303V6.75234V6.75166V6.75097V6.75028V6.74959V6.7489V6.74821V6.74752V6.74683V6.74614V6.74545V6.74476V6.74407V6.74338V6.74269V6.742V6.74131V6.74062V6.73993V6.73924V6.73855V6.73786V6.73717V6.73648V6.73579V6.7351V6.73441V6.73371V6.73302V6.73233V6.73164V6.73095V6.73026V6.72957V6.72887V6.72818V6.72749V6.7268V6.7261V6.72541V6.72472V6.72403V6.72333V6.72264V6.72195V6.72126V6.72056V6.71987V6.71918V6.71848V6.71779V6.7171V6.7164V6.71571V6.71501V6.71432V6.71363V6.71293V6.71224V6.71154V6.71085V6.71015V6.70946V6.70876V6.70807V6.70737V6.70668V6.70598V6.70529V6.70459V6.7039V6.7032V6.7025V6.70181V6.70111V6.70041V6.69972V6.69902V6.69832V6.69763V6.69693V6.69623V6.69554V6.69484V6.69414V6.69344V6.69275V6.69205V6.69135V6.69065V6.68995V6.68925V6.68856V6.68786V6.68716V6.68646V6.68576V6.68506V6.68436V6.68366V6.68296V6.68226V6.68156V6.68086V6.68016V6.67946V6.67876V6.67806V6.67736V6.67666V6.67596V6.67526V6.67455V6.67385V6.67315V6.67245V6.67175V6.67105V6.67034V6.66964V6.66894V6.66824V6.66753V6.66683C13.8333 5.47336 13.3592 4.32876 12.5153 3.48485C11.6714 2.64094 10.5268 2.16683 9.33333 2.16683H8.97999ZM11.2155 6.78468C11.1842 6.75343 11.1667 6.71103 11.1667 6.66683C11.1667 6.1806 10.9735 5.71428 10.6297 5.37047C10.2859 5.02665 9.81956 4.8335 9.33333 4.8335C9.28912 4.8335 9.24673 4.81594 9.21548 4.78468C9.18422 4.75342 9.16666 4.71103 9.16666 4.66683C9.16666 4.62263 9.18422 4.58023 9.21547 4.54898C9.24673 4.51772 9.28912 4.50016 9.33333 4.50016C9.90796 4.50016 10.4591 4.72844 10.8654 5.13476C11.2717 5.54109 11.5 6.09219 11.5 6.66683C11.5 6.71103 11.4824 6.75343 11.4512 6.78468C11.4199 6.81594 11.3775 6.8335 11.3333 6.8335C11.2891 6.8335 11.2467 6.81594 11.2155 6.78468Z" fill="#333333" stroke="#333333"/>
</svg>
