<svg width="29" height="48" viewBox="0 0 29 48" fill="none" xmlns="http://www.w3.org/2000/svg">
<path d="M22.9375 14.8018V32.8018H6.0625V14.8018C6.0625 5.80176 11.6875 1.30176 14.5 1.30176C17.3125 1.30176 22.9375 5.80176 22.9375 14.8018Z" stroke="#111827" stroke-width="2" stroke-linecap="round" stroke-linejoin="round"/>
<path d="M6.0625 32.8018L1.84375 38.8018H27.1562L22.9375 32.8018H6.0625Z" stroke="#111827" stroke-width="2" stroke-linecap="round" stroke-linejoin="round"/>
<path d="M14.5 22.3018C16.83 22.3018 18.7188 20.287 18.7188 17.8018C18.7188 15.3165 16.83 13.3018 14.5 13.3018C12.17 13.3018 10.2812 15.3165 10.2812 17.8018C10.2812 20.287 12.17 22.3018 14.5 22.3018Z" stroke="#111827" stroke-width="2" stroke-linecap="round" stroke-linejoin="round"/>
<path d="M14.5 38.8018V46.3018" stroke="#111827" stroke-width="2" stroke-linecap="round" stroke-linejoin="round"/>
<path d="M20.125 38.8018V43.3018" stroke="#111827" stroke-width="2" stroke-linecap="round" stroke-linejoin="round"/>
<path d="M8.875 38.8018V43.3018" stroke="#111827" stroke-width="2" stroke-linecap="round" stroke-linejoin="round"/>
</svg>
