<svg width="62" height="63" viewBox="0 0 62 63" fill="none" xmlns="http://www.w3.org/2000/svg">
<path d="M53.0466 33.6016V33.6013C53.0531 31.0654 53.0532 28.5298 53.0533 25.994C53.0534 24.2179 53.0535 22.4417 53.0558 20.6653C53.0576 18.7629 52.4801 17.0772 51.2066 15.6676C47.9395 12.0525 44.6602 8.44976 41.3802 4.84621C40.8417 4.25456 40.3031 3.6629 39.7646 3.07115C38.238 1.39372 36.3314 0.598179 34.064 0.600003C30.7075 0.602112 27.3511 0.602078 23.9947 0.602045L53.0466 33.6016ZM53.0466 33.6016C53.0466 33.8039 53.0612 33.9849 53.1408 34.1429M53.0466 33.6016L53.1408 34.1429M0.00503844 54.8372L0.105038 54.8371C0.108684 59.2543 3.25465 62.3945 7.68426 62.3963C20.3002 62.4019 32.916 62.4055 45.5319 62.3871C46.9793 62.3853 48.4422 62.3685 49.852 62.1265M0.00503844 54.8372L49.852 62.1265M0.00503844 54.8372L0.105038 54.8371C0.0998711 49.397 0.101034 43.9579 0.102196 38.5184C0.102695 36.187 0.103193 33.8556 0.103193 31.524C0.103193 29.218 0.102395 26.9121 0.101596 24.6062M0.00503844 54.8372L0.101596 24.6062M49.852 62.1265C56.0545 61.0582 60.919 56.0035 61.7583 49.8731C62.6384 43.4426 59.3714 37.2875 53.5891 34.5352M49.852 62.1265L53.5891 34.5352M53.5891 34.5352C53.3643 34.4287 53.2223 34.3048 53.1408 34.1429M53.5891 34.5352L53.1408 34.1429M7.84472 3.34298H7.84475C16.5168 3.34114 25.1889 3.34114 33.8629 3.34667H33.8632C34.1994 3.34791 34.5389 3.37989 34.8952 3.41344C35.0735 3.43023 35.256 3.44741 35.4444 3.46134L35.537 3.46819V3.56107V4.36739C35.537 5.70521 35.5368 7.04281 35.5366 8.38032C35.5362 11.0551 35.5358 13.7296 35.537 16.4049C35.5389 17.8424 35.9877 19.0002 36.7867 19.7995C37.5857 20.5988 38.7451 21.0498 40.1877 21.0544C41.963 21.0599 43.7399 21.0618 45.5149 21.0525L45.515 21.0525C46.0451 21.0507 46.4473 20.918 46.7156 20.6878C46.9817 20.4594 47.128 20.1247 47.128 19.6912C47.128 19.2593 46.978 18.9209 46.7095 18.6886C46.4392 18.4546 46.0376 18.3187 45.5188 18.3169C45.5188 18.3169 45.5187 18.3169 45.5187 18.3169L45.5191 18.2169C44.7376 18.2146 43.9565 18.2152 43.1754 18.2159L7.84472 3.34298ZM7.84472 3.34298C6.28761 3.34392 5.03476 3.80732 4.1711 4.67246M7.84472 3.34298L4.1711 4.67246M38.4136 5.77902L38.524 5.88062C38.5757 5.92815 38.628 5.97395 38.6798 6.0192C38.7823 6.1088 38.8823 6.19623 38.9691 6.29057L38.9695 6.29098C40.0958 7.52862 41.2215 8.76643 42.3471 10.0042C44.5727 12.4515 46.798 14.8986 49.0275 17.3432L49.0275 17.3432C49.8373 18.2318 50.2992 19.2716 50.303 20.475C50.3148 23.7968 50.3124 27.1186 50.3101 30.4391C50.3095 31.2689 50.3089 32.0986 50.3085 32.9282C50.3085 32.983 50.2994 33.0353 50.2895 33.0819C50.2849 33.1032 50.2806 33.1217 50.2765 33.1392C50.2708 33.1639 50.2655 33.1865 50.2607 33.2123L50.2422 33.3109L50.1436 33.2921C40.9307 31.5309 32.6151 38.6748 32.5473 47.6918L32.5466 47.7869L32.4516 47.7909C32.3698 47.7944 32.2859 47.7991 32.2008 47.8038C32.0209 47.8139 31.8353 47.8242 31.6519 47.8242C30.5367 47.8249 29.4216 47.8246 28.3065 47.8243C26.3544 47.8237 24.4025 47.8232 22.4505 47.8279C21.9179 47.8297 21.4953 47.9761 21.2094 48.2205C20.9253 48.4633 20.7678 48.8096 20.7748 49.2319C20.7817 49.6439 20.9426 49.9809 21.2223 50.2166C21.5035 50.4537 21.9126 50.5949 22.4247 50.5967H22.4248C24.1871 50.6046 25.9494 50.6031 27.7126 50.6016C28.4177 50.601 29.123 50.6004 29.8285 50.6004H32.774H32.8542L32.8716 50.6788C33.6564 54.215 35.4632 57.1032 38.4484 59.4788L38.6724 59.657H38.3862H37.5225C34.2239 59.657 30.9254 59.6572 27.6269 59.6574C21.0297 59.6578 14.4326 59.6583 7.83549 59.657C6.28102 59.6561 5.03042 59.1912 4.16841 58.3239C3.30647 57.4567 2.84494 56.1991 2.84494 54.6361C2.84309 39.209 2.84309 23.7818 2.84494 8.35286M38.4136 5.77902L2.84494 8.35286M38.4136 5.77902L38.3623 5.92002M38.4136 5.77902L38.3623 5.92002M2.84494 8.35286C2.84494 6.79245 3.30746 5.53758 4.1711 4.67246M2.84494 8.35286L4.1711 4.67246M38.3623 5.92002C38.3461 5.96451 38.3327 5.99655 38.3213 6.02382C38.3177 6.03236 38.3144 6.04042 38.3111 6.04826C38.2992 6.07753 38.2843 6.11475 38.2843 6.15711C38.2838 7.06624 38.2826 7.9753 38.2814 8.88433M38.3623 5.92002L38.2814 8.88433M0.101596 24.6062C0.0996807 19.0722 0.097765 13.5383 0.106884 8.00435L0.101596 24.6062ZM38.2814 8.88433C38.2779 11.4581 38.2744 14.0315 38.288 16.6048L38.2814 8.88433ZM5.67403 0.827827C6.305 0.675121 6.97787 0.612906 7.63276 0.611074L0.106884 8.0043C0.11419 4.49367 2.32974 1.6433 5.67403 0.827827ZM35.3389 47.7097C35.3538 54.3184 40.6653 59.6385 47.2556 59.646C53.815 59.6553 59.1595 54.2886 59.167 47.693C59.1744 41.1904 53.755 35.8023 47.2405 35.8283C40.6641 35.8581 35.3259 41.1847 35.3389 47.7097Z" fill="#FF008A" stroke="white" stroke-width="0.2"/>
<mask id="path-2-inside-1_16489_103760" fill="white">
<path d="M8.13629 46.1863C8.13629 45.9685 8.13444 45.749 8.1326 45.5312C8.13444 45.749 8.13444 45.9667 8.13444 46.1863C8.13629 46.6697 8.12891 47.1531 8.12891 47.6365C8.12891 47.1531 8.13629 46.6697 8.13629 46.1863Z"/>
</mask>
<path d="M8.13629 46.1863C8.13629 45.9685 8.13444 45.749 8.1326 45.5312C8.13444 45.749 8.13444 45.9667 8.13444 46.1863C8.13629 46.6697 8.12891 47.1531 8.12891 47.6365C8.12891 47.1531 8.13629 46.6697 8.13629 46.1863Z" fill="white"/>
<path d="M8.13444 46.1863H7.93444L7.93444 46.187L8.13444 46.1863ZM8.33629 46.1863C8.33629 45.9676 8.33443 45.7471 8.33259 45.5296L7.9326 45.5329C7.93445 45.7508 7.93629 45.9695 7.93629 46.1863H8.33629ZM7.9326 45.5329C7.93444 45.7497 7.93444 45.9666 7.93444 46.1863H8.33444C8.33444 45.9668 8.33444 45.7483 8.33259 45.5296L7.9326 45.5329ZM7.93444 46.187C7.9363 46.6731 7.92891 47.1459 7.92891 47.6365H8.32891C8.32891 47.1603 8.33628 46.6663 8.33444 46.1855L7.93444 46.187ZM8.32891 47.6365C8.32891 47.3957 8.33074 47.1548 8.33259 46.9129C8.33444 46.6713 8.33629 46.4289 8.33629 46.1863H7.93629C7.93629 46.4271 7.93445 46.668 7.9326 46.9099C7.93076 47.1515 7.92891 47.3939 7.92891 47.6365H8.32891Z" fill="white" mask="url(#path-2-inside-1_16489_103760)"/>
<path d="M11.1389 51.4241C12.5674 51.4388 13.9976 51.4388 15.4279 51.4241C17.1645 51.4075 18.4029 50.2044 18.4361 48.4792M11.1389 51.4241L11.14 51.3241M11.1389 51.4241L11.14 51.3241C11.14 51.3241 11.14 51.3241 11.14 51.3241M11.1389 51.4241L8.23444 46.1856M11.14 51.3241C12.5677 51.3388 13.9973 51.3388 15.4269 51.3241L15.427 51.3241C17.1107 51.308 18.3039 50.1472 18.3361 48.4774L18.4361 48.4792M11.14 51.3241C9.46269 51.3062 8.27923 50.1388 8.2381 48.4657L8.2381 48.4655C8.23075 48.19 8.22891 47.9142 8.22891 47.636C8.22891 47.4231 8.23036 47.2085 8.23181 46.9934C8.23364 46.7239 8.23546 46.4537 8.23444 46.1856M18.4361 48.4792L18.3361 48.4773L15.5774 41.1024C17.2568 41.1652 18.4084 42.3792 18.4379 44.0509C18.4619 45.527 18.4638 47.0031 18.4361 48.4792ZM8.23444 46.1856V46.1854V46.1856ZM8.23627 44.1119L8.23627 44.1119C8.22822 44.5254 8.23003 44.9374 8.23184 45.3518L8.23627 44.1119ZM8.23627 44.1119C8.25246 43.2739 8.53672 42.562 9.01886 42.0527M8.23627 44.1119L9.01886 42.0527M9.01886 42.0527C9.50067 41.5437 10.1857 41.231 11.0152 41.2005L9.01886 42.0527ZM15.5737 41.2023C17.1984 41.263 18.3093 42.4324 18.338 44.0526L11.0153 41.2005C12.5318 41.1452 14.0555 41.1434 15.5735 41.2023L15.5737 41.2023ZM15.4593 48.5276H15.5593V48.4276V44.1174V44.0174H15.4593H11.0946H10.9946V44.1174V48.4276V48.5276H11.0946H15.4593Z" fill="#FF008A" stroke="white" stroke-width="0.2"/>
<path d="M18.3421 14.5636L18.3421 14.5636C18.3224 13.7019 18.0151 12.9845 17.503 12.4809C16.9909 11.9773 16.2674 11.6812 15.4036 11.674L18.3421 14.5636ZM18.3421 14.5636C18.3537 15.0589 18.3509 15.5543 18.3482 16.0509C18.347 16.2688 18.3458 16.4869 18.3458 16.7053C18.3458 16.9311 18.347 17.1564 18.3482 17.3814C18.3509 17.8941 18.3537 18.4052 18.3421 18.9172C18.3233 19.7483 18.0339 20.4545 17.5462 20.9595C17.0587 21.4641 16.3675 21.7735 15.5339 21.8013L15.5338 21.8013C14.0394 21.8529 12.5395 21.8529 11.0432 21.8013C10.2115 21.7726 9.51842 21.4623 9.03043 20.9569C8.5423 20.4514 8.25397 19.7449 8.2423 18.9144L8.2423 18.9143C8.22016 17.4612 8.21832 16.0102 8.24229 14.5593L8.2423 14.5592M18.3421 14.5636L8.2423 14.5592M8.2423 14.5592C8.25577 13.698 8.56241 12.9814 9.07597 12.4786C9.58963 11.9756 10.3168 11.6803 11.1825 11.674L8.2423 14.5592ZM15.4616 18.9863H15.5616V18.8863V14.5465V14.4465H15.4616H11.1191H11.0191V14.5465V18.8863V18.9863H11.1191H15.4616Z" fill="#FF008A" stroke="white" stroke-width="0.2"/>
<path d="M10.9046 36.6357C12.4936 36.68 14.0881 36.68 15.6771 36.6357C17.1886 36.5951 18.3642 35.3976 18.4306 33.8846M10.9046 36.6357L10.9074 36.5357C10.9074 36.5357 10.9074 36.5357 10.9074 36.5357C9.4471 36.4948 8.29388 35.3399 8.25289 33.8837C8.21049 32.295 8.21049 30.7045 8.25289 29.1176C8.29207 27.6579 9.44698 26.5048 10.9055 26.4638C12.4945 26.4214 14.0854 26.4214 15.6726 26.4638C17.1315 26.503 18.2664 27.655 18.3307 29.1174C18.3307 29.1175 18.3307 29.1175 18.3307 29.1175L18.4306 29.1131C18.4547 29.6665 18.4483 30.2208 18.4419 30.7748C18.439 31.0279 18.4361 31.281 18.4361 31.5339C18.4361 31.779 18.4388 32.0241 18.4415 32.2692C18.4475 32.8081 18.4534 33.3468 18.4306 33.8846M10.9046 36.6357C9.39127 36.5933 8.19538 35.3958 8.15293 33.8864L10.9046 36.6357ZM18.4306 33.8846L18.3307 33.8802C18.3307 33.8803 18.3307 33.8803 18.3307 33.8804L18.4306 33.8846ZM15.4612 33.8019H15.5612V33.7019V29.3364V29.2364H15.4612H11.1316H11.0316V29.3364V33.7019V33.8019H11.1316H15.4612Z" fill="#FF008A" stroke="white" stroke-width="0.2"/>
<path d="M33.5326 20.527L33.5324 20.5272C33.2153 20.8055 32.7311 21.0162 32.3197 21.0301L32.3194 21.0301C31.117 21.0742 29.9136 21.0669 28.7086 21.0596C28.2533 21.0568 27.7978 21.054 27.3421 21.054L27.342 21.054C26.9775 21.0544 26.6131 21.055 26.2489 21.0556C24.975 21.0577 23.7021 21.0598 22.428 21.054C21.9091 21.0513 21.4994 20.9154 21.2196 20.6844C20.9417 20.4549 20.783 20.1245 20.7761 19.7113L20.7761 19.7111C20.7683 19.285 20.9249 18.9404 21.2079 18.7006C21.4928 18.4592 21.9147 18.3166 22.4478 18.3166L22.4479 18.3166C24.0977 18.3147 25.7471 18.3147 27.3965 18.3147H27.3965C29.0459 18.3147 30.6954 18.3147 32.3454 18.3129L32.3453 18.2129V18.3129C32.6618 18.3129 32.9383 18.3716 33.1672 18.4983C33.3948 18.6242 33.5814 18.8207 33.7143 19.1073C33.955 19.6312 33.9366 20.1744 33.5326 20.527Z" fill="#FF008A" stroke="white" stroke-width="0.2"/>
<path d="M22.4013 35.8273C21.8943 35.8264 21.4872 35.6844 21.2084 35.4458C20.9311 35.2085 20.7727 34.8692 20.7719 34.4546C20.771 34.0441 20.9278 33.7078 21.2048 33.4721C21.4833 33.2351 21.8913 33.0934 22.4015 33.0917L22.4017 33.0917C23.5918 33.085 24.7828 33.0861 25.9738 33.0872C26.4205 33.0876 26.8672 33.088 27.3139 33.088C27.7612 33.088 28.2082 33.0876 28.6552 33.0872C29.8463 33.0861 31.0365 33.085 32.2279 33.0917L32.228 33.0917C32.7572 33.0944 33.159 33.2271 33.4271 33.4571C33.6929 33.6853 33.8393 34.0195 33.8393 34.453C33.8384 34.8817 33.6868 35.2208 33.4171 35.4543C33.1456 35.6893 32.7439 35.8264 32.2283 35.8273C28.9526 35.8328 25.677 35.8328 22.4013 35.8273ZM22.4013 35.8273L22.4011 35.9273L22.4013 35.8273Z" fill="#FF008A" stroke="white" stroke-width="0.2"/>
<path d="M29.2887 15.1704L29.2887 15.1704C29.7983 15.1677 30.2027 15.0227 30.4777 14.7812C30.7514 14.5409 30.9054 14.198 30.9037 13.7799C30.902 13.3628 30.7464 13.0249 30.4714 12.7884C30.1947 12.5505 29.7886 12.4078 29.2752 12.4015C28.4841 12.3939 27.6925 12.3959 26.9005 12.3979C26.5403 12.3988 26.18 12.3997 25.8197 12.3997C25.4678 12.3997 25.1163 12.3985 24.765 12.3973C23.9633 12.3946 23.1628 12.3918 22.3626 12.4034L29.2887 15.1704ZM29.2887 15.1704C26.984 15.1833 24.6793 15.1833 22.3747 15.1704L22.3741 15.2704L22.3748 15.1704C21.877 15.1668 21.4724 15.014 21.1962 14.7654C20.921 14.5178 20.7667 14.1697 20.7762 13.7597L20.7762 13.7595M29.2887 15.1704L20.7762 13.7595M20.7762 13.7595C20.7849 13.3581 20.9423 13.0255 21.2127 12.7903M20.7762 13.7595L21.2127 12.7903M21.2127 12.7903C21.4841 12.5542 21.8765 12.4105 22.3626 12.4034L21.2127 12.7903Z" fill="#FF008A" stroke="white" stroke-width="0.2"/>
<path d="M29.422 30.0048C30.3669 29.9919 31.0054 29.3811 31.0036 28.5416C30.9999 27.7039 30.3466 27.0802 29.4128 27.0747L29.422 30.0048ZM29.422 30.0048C28.5735 30.0178 27.7241 30.0152 26.8751 30.0125C26.5256 30.0114 26.1762 30.0103 25.8269 30.0103C25.4743 30.0103 25.1216 30.0113 24.7689 30.0123C23.946 30.0146 23.1231 30.017 22.3002 30.0066L29.422 30.0048ZM29.4204 29.9048L29.4206 29.9048C29.8717 29.8986 30.2427 29.7501 30.4996 29.5101C30.7559 29.2706 30.9044 28.9351 30.9036 28.542L29.4204 29.9048ZM29.4204 29.9048C28.573 29.9178 27.725 29.9152 26.8764 29.9125C26.5267 29.9114 26.1769 29.9103 25.8269 29.9103C25.4736 29.9103 25.1206 29.9113 24.7678 29.9123C23.9452 29.9146 23.1235 29.9169 22.3014 29.9066L22.3013 29.9066M29.4204 29.9048L22.3013 29.9066M22.3013 29.9066C21.8303 29.9013 21.4428 29.7492 21.1769 29.5039M22.3013 29.9066L21.1769 29.5039M21.1769 29.5039C20.9118 29.2593 20.762 28.9173 20.7724 28.5184L21.1769 29.5039ZM29.4122 27.1747C30.298 27.18 30.9001 27.7657 30.9036 28.5418L29.4122 27.1747Z" fill="#FF008A" stroke="white" stroke-width="0.2"/>
<path d="M22.3689 41.9468L22.3689 41.9468C21.8695 41.9485 21.4646 42.0972 21.1889 42.3414C20.9144 42.5845 20.7612 42.9279 20.7724 43.3367L22.3689 41.9468ZM22.3689 41.9468C24.6977 41.9375 27.0246 41.9375 29.3515 41.9468C29.8319 41.9494 30.2207 42.0946 30.4876 42.3336C30.7535 42.5718 30.9054 42.9093 30.9037 43.3132C30.901 43.7158 30.7445 44.0533 30.4758 44.2923M22.3689 41.9468L30.4758 44.2923M30.4758 44.2923C30.2063 44.532 29.8175 44.6779 29.3437 44.6824L30.4758 44.2923Z" fill="#FF008A" stroke="white" stroke-width="0.2"/>
<path d="M45.7417 50.0521C47.7496 47.6424 49.68 45.3268 51.6122 43.0112L53.1706 45.5949L53.0938 45.5308C53.0937 45.5308 53.0937 45.5309 53.0937 45.5309C52.4624 46.288 51.8317 47.0455 51.2011 47.8028C49.8276 49.4525 48.4543 51.1018 47.0757 52.7469C46.6229 53.287 46.2226 53.5394 45.8283 53.5535C45.4333 53.5677 45.0089 53.3443 44.5046 52.8419C43.1518 51.4912 41.7992 50.1407 40.4521 48.7847C40.2093 48.5402 40.0577 48.2815 40.0025 48.0105C39.9476 47.7405 39.9864 47.4487 40.1406 47.1334C40.4034 46.5976 41.0045 46.2721 41.579 46.424C41.9149 46.5145 42.2567 46.7327 42.5173 46.9825C43.252 47.6894 43.9683 48.4148 44.7064 49.1622C44.998 49.4575 45.2931 49.7562 45.594 50.0586L45.6714 50.1365L45.7417 50.0521Z" fill="#FF008A" stroke="white" stroke-width="0.2"/>
</svg>
