<svg width="81" height="81" viewBox="0 0 81 81" fill="none" xmlns="http://www.w3.org/2000/svg">
<path d="M41.25 1.00212C37.75 2.76266 34.95 6.15089 33.8167 9.98754C33.3167 11.6484 33.2 15.1861 33.5667 17.0131C34.1833 20.0691 35.9167 23.092 38.1833 25.0352C39.7667 26.4138 39.9 26.829 39.9667 30.6989L40.0333 33.9542L37.4833 34.0206C33.8333 34.1037 33.9167 34.0539 29.0833 38.8206C26.5833 41.2787 25.0167 42.7071 24.6167 42.8732C24.2667 43.0227 23.3833 43.1721 22.65 43.2386L21.3333 43.3382V41.6441C21.3333 39.0365 22.5167 39.3023 10.6667 39.3023C0.883333 39.3023 0.666667 39.3023 0.333333 39.6345C0 39.9666 0 40.1825 0 59.8973C0 79.6121 0 79.828 0.333333 80.1602C0.666667 80.4924 0.883333 80.4924 10.6667 80.4924C22.5167 80.4924 21.3333 80.7581 21.3333 78.1505V76.4564L22.8833 76.5561C23.7167 76.6059 24.6333 76.7222 24.9167 76.8384C25.1833 76.9381 26.2 77.619 27.1833 78.3332C28.15 79.064 29.3167 79.828 29.7667 80.0273L30.5833 80.4093L45.2 80.4592C59.5667 80.4924 59.8167 80.4924 60.7167 80.1602C61.95 79.6952 63.2 78.4329 63.6833 77.1872C64.1333 75.9748 64.0833 73.9485 63.5667 72.9187L63.2333 72.2378L63.7833 72.0384C64.4833 71.7727 65.7 70.5935 66.2 69.68C66.5167 69.0488 66.5833 68.7001 66.5833 67.2883C66.5833 65.7935 66.5333 65.5278 66.1333 64.7305L65.6667 63.8503L66.4 63.1361C67.5 62.0731 67.8833 61.226 67.9667 59.615C68.0167 58.6517 67.9667 58.0371 67.7667 57.4724C67.4667 56.5922 66.6333 55.4295 65.9833 54.9811L65.5333 54.6821L65.9167 54.1008C66.5333 53.1375 66.7167 52.3403 66.6333 50.8621C66.55 49.3008 66.1833 48.4538 65.1667 47.4406C63.8333 46.1119 63.5333 46.0289 59.5333 45.9791L55.9833 45.9292L56.0333 36.6781C56.0833 28.3902 56.1167 27.3605 56.3667 26.7958C56.5167 26.4636 57.2833 25.5667 58.05 24.8027C60.6333 22.2781 62.0167 19.6705 62.5167 16.382C62.6333 15.6512 62.7833 15.1031 62.85 15.1529C62.9167 15.1861 63.5333 16.3654 64.2167 17.7771C65.4833 20.3681 65.8667 20.8664 66.6667 20.8664C67.4667 20.8664 67.85 20.3681 69.1167 17.7605C70.1 15.7342 70.4667 15.1695 70.8 15.0367C71.0333 14.937 72.5333 14.3391 74.1333 13.6913C76.8333 12.5951 77.05 12.4623 77.2667 11.9474C77.4667 11.4823 77.4667 11.3163 77.2667 10.8512C77.05 10.3197 76.85 10.2035 73.7333 8.9744L70.4333 7.64568L69.1333 4.42355C68.4167 2.6464 67.7 1.08517 67.55 0.968903C67.2167 0.736382 66.2667 0.703163 65.8333 0.935684C65.65 1.03534 65.0333 2.33083 64.2333 4.35712C62.9333 7.61246 62.9167 7.62907 62.25 7.91143L61.5833 8.19378L60.95 7.01455C59.5833 4.5066 57.4167 2.38066 54.9 1.08517C53.5167 0.370979 52.9167 0.321152 52.3 0.885857C52.0167 1.13499 52 1.60004 52 7.89482L51.9833 14.638L50 16.1162L48 17.5778L46 16.1162L44.0167 14.638L44 7.89482C44 1.60004 43.9833 1.13499 43.7 0.885857C43.1 0.337761 42.5 0.370979 41.25 1.00212ZM41.5167 16.2823C41.5667 16.3488 42.9167 17.3619 44.5 18.5411C46.9833 20.3847 47.4833 20.7003 48 20.7003C48.5167 20.7003 49.0167 20.3847 51.5 18.5411C53.0833 17.3619 54.4333 16.3488 54.4833 16.2823C54.5333 16.2325 54.6167 13.492 54.6667 10.1869L54.75 4.17442L56.05 5.40348C57.3 6.59933 59 8.95779 58.7667 9.20692C58.7 9.27336 58.1167 9.55571 57.4667 9.82146C56.0667 10.4028 55.7333 10.901 56.0667 11.8976C56.2333 12.4291 56.3833 12.5287 58.0667 13.2097L59.8667 13.9571L59.8 15.2027C59.7 16.7141 59.05 18.7238 58.2 20.119C57.8667 20.6671 56.8667 21.8795 55.9667 22.8096C54.8333 23.9722 54.1833 24.7861 53.8667 25.467L53.4167 26.4304L53.3667 36.1798L53.3333 45.9458H51.3333H49.3333V38.9701C49.3333 32.2103 49.3167 31.9777 49 31.6622C48.7833 31.4463 48.45 31.33 48 31.33C47.55 31.33 47.2167 31.4463 47 31.6622C46.6833 31.9777 46.6667 32.2103 46.6667 38.9701V45.9458H45.4333C44.0167 45.9458 43.2333 45.7133 42.95 45.215C42.8 44.9493 42.7333 42.5078 42.6667 35.6483L42.5833 26.4304L42.1333 25.467C41.8167 24.8027 41.1667 23.9889 40.1167 22.8927C37.0667 19.7536 36.05 17.2955 36.2 13.4422C36.3333 10.2699 37.5333 7.71212 39.95 5.40348L41.25 4.17442L41.3333 10.1869C41.3833 13.492 41.4667 16.2325 41.5167 16.2823ZM67.5 7.96126L68.25 9.82146L70.1167 10.5689C71.15 10.9841 72 11.3495 72 11.3993C72 11.4491 71.1667 11.8145 70.15 12.2131L68.3167 12.9273L67.5333 14.4886C67.1 15.3522 66.7167 16.0498 66.6667 16.0498C66.6167 16.0498 66.2333 15.3522 65.8 14.4886L65.0167 12.9273L63.1833 12.2131C62.1667 11.8145 61.3333 11.4491 61.3333 11.3993C61.3333 11.3495 62.1833 10.9841 63.2167 10.5689L65.0833 9.82146L65.8333 7.96126C66.25 6.9315 66.6167 6.08445 66.6667 6.08445C66.7167 6.08445 67.0833 6.9315 67.5 7.96126ZM40 41.1293C40 46.0953 40.05 46.3777 41.05 47.4074C42.1667 48.57 41.55 48.5036 52.3333 48.6033C62.0167 48.6863 62.0833 48.6863 62.6667 49.0517C63.35 49.4669 64 50.5133 64 51.1943C64 51.9417 63.3667 53.0378 62.7 53.4531C62.1 53.8351 61.9833 53.8351 55.95 53.9181C50.1167 54.0012 49.8 54.0178 49.5667 54.3167C49.2667 54.732 49.2667 55.7617 49.5667 56.1769C49.8 56.4759 50.1167 56.4925 56.5333 56.5755C62.8667 56.6586 63.2833 56.6752 63.8167 56.9908C65.9 58.2032 65.5333 61.0766 63.2167 61.7077C62.8167 61.824 60.2 61.8904 56.3 61.8904C50.2167 61.8904 49.9833 61.907 49.6667 62.2226C49.45 62.4385 49.3333 62.7707 49.3333 63.2191C49.3333 64.3817 49.65 64.5478 52.05 64.5644C53.1667 64.581 55.9667 64.6309 58.25 64.6973C62.05 64.7803 62.45 64.8302 62.8667 65.1291C63.4 65.5111 64 66.6239 64 67.2053C64 67.8862 63.35 68.999 62.7 69.3976C62.1 69.7796 61.9833 69.7796 55.95 69.8627C50.1167 69.9457 49.8 69.9623 49.5667 70.2613C49.2167 70.7429 49.2667 71.7893 49.6667 72.1879C49.95 72.4703 50.2333 72.5201 51.55 72.5367C52.3833 72.5367 54.5667 72.6031 56.3667 72.653L59.65 72.7692L60.1833 73.2675C61.35 74.3637 61.4167 75.709 60.3833 76.855C59.95 77.3367 59.6167 77.5194 58.95 77.6689C57.6333 77.9512 31.7667 77.835 31.0833 77.536C30.8167 77.4197 29.8 76.7222 28.8167 76.008C26.3167 74.1312 25.8667 73.9651 23.3833 73.882L21.3333 73.8156V59.8973V45.9791L23.2167 45.9126C26.0833 45.813 26.25 45.7133 31 41.0462C35.5333 36.595 35.3167 36.7113 38.4667 36.6615L40 36.6448V41.1293ZM18.6667 59.8973V77.835H10.6667H2.66667V59.8973V41.9597H10.6667H18.6667V59.8973Z" fill="#333333"/>
<path d="M8.91797 67.5208C7.46797 68.1851 6.66797 69.5139 6.66797 71.2246C6.68464 73.583 8.28464 75.1775 10.668 75.1775C13.068 75.1775 14.668 73.583 14.668 71.1914C14.668 69.464 13.7846 68.0855 12.3013 67.471C11.4346 67.1056 9.7513 67.1388 8.91797 67.5208ZM11.5013 70.3609C11.6846 70.5436 11.8346 70.909 11.8346 71.1914C11.8346 71.4737 11.6846 71.8391 11.5013 72.0218C11.318 72.2045 10.9513 72.354 10.668 72.354C10.3846 72.354 10.018 72.2045 9.83464 72.0218C9.6513 71.8391 9.5013 71.4737 9.5013 71.1914C9.5013 70.909 9.6513 70.5436 9.83464 70.3609C10.018 70.1782 10.3846 70.0287 10.668 70.0287C10.9513 70.0287 11.318 70.1782 11.5013 70.3609Z" fill="#4C40ED"/>
<path d="M25.7831 18.2422C25.6331 18.3584 24.9164 19.9197 24.1997 21.6968L22.8997 24.919L19.6664 26.2144C17.8831 26.9286 16.3164 27.6428 16.2164 27.7923C15.9331 28.1577 15.9331 29.1874 16.2164 29.5528C16.3164 29.7023 17.8831 30.4165 19.6664 31.1307L22.9164 32.4262L24.1664 34.9673C25.4664 37.6082 25.8831 38.1396 26.6664 38.1396C27.4497 38.1396 27.8664 37.6082 29.1664 34.9673L30.4164 32.4262L33.6664 31.1307C35.4497 30.4165 37.0164 29.7023 37.1331 29.5528C37.2331 29.4034 37.3331 29.0047 37.3331 28.6726C37.3331 28.3404 37.2331 27.9418 37.1331 27.7923C37.0164 27.6428 35.4497 26.9286 33.6664 26.2144L30.4331 24.919L29.1331 21.6968C28.4164 19.9197 27.6997 18.3584 27.5497 18.2422C27.3997 18.1425 26.9997 18.0429 26.6664 18.0429C26.3331 18.0429 25.9331 18.1425 25.7831 18.2422ZM27.4997 25.2345L28.2497 27.0947L30.1164 27.8421C31.1497 28.2573 31.9997 28.6227 31.9997 28.6726C31.9997 28.7224 31.1664 29.0878 30.1497 29.4864L28.3164 30.2006L27.5331 31.7618C27.0997 32.6255 26.7164 33.3231 26.6664 33.3231C26.6164 33.3231 26.2331 32.6421 25.8331 31.8117C24.9997 30.1342 24.9831 30.1175 22.6331 29.2373C21.9164 28.9715 21.3331 28.7224 21.3331 28.6726C21.3331 28.6227 22.1831 28.2573 23.2164 27.8421L25.0831 27.0947L25.8331 25.2345C26.2497 24.2048 26.6164 23.3577 26.6664 23.3577C26.7164 23.3577 27.0831 24.2048 27.4997 25.2345Z" fill="#4C40ED"/>
<path d="M68.4513 24.8857C68.3013 25.002 67.5846 26.5632 66.868 28.3404L65.568 31.5625L62.3346 32.858C60.5513 33.5722 58.9846 34.2864 58.8846 34.4358C58.768 34.5853 58.668 34.9839 58.668 35.3161C58.668 35.6483 58.768 36.0469 58.8846 36.1964C58.9846 36.3459 60.5513 37.0601 62.3346 37.7742L65.5846 39.0531L66.8346 41.6109C68.1346 44.2517 68.5513 44.7832 69.3346 44.7832C70.118 44.7832 70.5346 44.2517 71.8346 41.6109L73.0846 39.0697L76.3346 37.7742C78.118 37.0601 79.6846 36.3459 79.8013 36.1964C79.9013 36.0469 80.0013 35.6483 80.0013 35.3161C80.0013 34.9839 79.9013 34.5853 79.8013 34.4358C79.6846 34.2864 78.118 33.5722 76.3346 32.8414L73.1013 31.5293L71.8013 28.3238C71.0846 26.5466 70.368 25.002 70.218 24.8857C70.068 24.7861 69.668 24.6864 69.3346 24.6864C69.0013 24.6864 68.6013 24.7861 68.4513 24.8857ZM70.168 31.8781L70.918 33.7383L72.7846 34.4857C73.818 34.9009 74.668 35.2663 74.668 35.3161C74.668 35.3659 73.8346 35.7313 72.818 36.13L70.9846 36.8441L70.2013 38.4054C69.768 39.269 69.3846 39.9666 69.3346 39.9666C69.2846 39.9666 68.9013 39.2857 68.5013 38.4552C67.668 36.7777 67.6513 36.7611 65.3013 35.8808C64.5846 35.6151 64.0013 35.3659 64.0013 35.3161C64.0013 35.2663 64.8513 34.9009 65.8846 34.4857L67.7513 33.7383L68.5013 31.8781C68.918 30.8483 69.2846 30.0013 69.3346 30.0013C69.3846 30.0013 69.7513 30.8483 70.168 31.8781Z" fill="#4C40ED"/>
</svg>
