<svg width="14" height="14" viewBox="0 0 14 14" fill="none" xmlns="http://www.w3.org/2000/svg">
<g clip-path="url(#clip0_15424_14007)">
<path d="M4.07812 12.9883L9.69727 13.2207L9.90234 13.5352H4.07812V12.9883Z" fill="#242B3A"/>
<path d="M7.60547 4.89453H6.56856L6.375 6.04297L7.60547 5.95684V4.89453Z" fill="#242B3A"/>
<rect x="10.7188" y="1.50391" width="2.84375" height="0.464844" fill="#242B3A"/>
<path d="M0.601562 9.95312H5.46875C5.90669 9.95312 6.26172 10.3081 6.26172 10.7461H0.601562V9.95312Z" fill="#242B3A"/>
<path d="M6.29323 0.216015C5.91589 0.235155 5.90769 0.237889 5.90222 0.437499C5.90222 0.505858 5.89128 0.620702 5.88308 0.69453C5.86394 0.823046 5.85847 0.828515 5.73269 0.877733L5.5987 0.929687L5.43191 0.779296C5.15847 0.530468 5.10105 0.538671 4.76198 0.861327L4.51589 1.09375H2.70026C0.652217 1.09375 0.734249 1.08555 0.493624 1.30156C0.419796 1.36992 0.329561 1.48203 0.294014 1.55312L0.231124 1.68164L0.222921 6.06758C0.214717 11.0852 0.192842 10.6449 0.460811 10.9129C0.717842 11.1699 0.583858 11.1562 2.97097 11.1562H5.02995V11.5937V12.0312H4.81667C4.5405 12.0312 4.38191 12.0859 4.20964 12.2418C3.96628 12.4605 3.95261 12.507 3.94167 13.1414C3.93073 13.691 3.93073 13.6937 3.99362 13.7375C4.05105 13.7758 4.33269 13.7812 6.9987 13.7812C9.66472 13.7812 9.94636 13.7758 10.0038 13.7375C10.0667 13.6937 10.0667 13.691 10.0557 13.1414C10.0448 12.507 10.0311 12.4605 9.78776 12.2418C9.6155 12.0859 9.45691 12.0312 9.18073 12.0312H8.96745V11.5937V11.1562H11.0401C13.3753 11.1562 13.2632 11.1672 13.5038 10.9484C13.5776 10.8801 13.6678 10.768 13.7034 10.6969L13.7663 10.5684L13.7745 6.18242C13.7827 1.16758 13.8018 1.60508 13.5393 1.33984C13.2796 1.08008 13.3944 1.09375 11.2917 1.09375H9.47058L9.29558 0.91328C9.07136 0.686327 8.9155 0.590624 8.80612 0.615233C8.76237 0.623437 8.653 0.699999 8.56003 0.784764L8.3905 0.935155L8.26198 0.880467L8.13347 0.82578L8.11159 0.596093C8.07878 0.276171 8.07331 0.254296 8.00495 0.237889C7.90105 0.213281 6.65417 0.196874 6.29323 0.216015ZM7.65495 0.883203C7.65495 1.02266 7.66862 1.1293 7.6905 1.15664C7.73698 1.21953 8.30026 1.45469 8.43972 1.46836C8.54636 1.48203 8.5655 1.47383 8.70222 1.34258L8.84714 1.20586L9.29011 1.64883L9.73581 2.09453L9.65105 2.17383C9.51433 2.30508 9.45144 2.42266 9.46784 2.52383C9.48698 2.65508 9.72487 3.20742 9.77956 3.2457C9.80691 3.26758 9.91355 3.28125 10.053 3.28125H10.28V3.9375V4.59375H10.053C9.91355 4.59375 9.80691 4.60742 9.77956 4.62656C9.71941 4.67578 9.48151 5.23633 9.46784 5.37305C9.45691 5.47422 9.46784 5.49609 9.59362 5.63281L9.73034 5.7832L9.28737 6.22617L8.84714 6.66914L8.70222 6.53242C8.5655 6.40117 8.54636 6.39297 8.43972 6.40664C8.29753 6.42031 7.73425 6.65547 7.6905 6.71836C7.66862 6.7457 7.65495 6.85234 7.65495 6.9918V7.21875H6.9987H6.34245V6.9918C6.34245 6.85234 6.32878 6.7457 6.30964 6.71836C6.26042 6.65547 5.69714 6.42031 5.55769 6.40664C5.45105 6.39297 5.43191 6.40117 5.29519 6.53242L5.15026 6.66914L4.7073 6.22617L4.26159 5.78047L4.34636 5.70117C4.48308 5.56992 4.54597 5.45234 4.52956 5.35117C4.51042 5.21992 4.27253 4.66758 4.21784 4.62656C4.1905 4.60742 4.08386 4.59375 3.94441 4.59375H3.71745V3.9375V3.28125H3.94441C4.08386 3.28125 4.1905 3.26758 4.21784 3.2457C4.278 3.19922 4.51589 2.63867 4.52956 2.50195C4.5405 2.40078 4.52956 2.37891 4.40378 2.24219L4.26706 2.0918L4.71003 1.64883L5.15026 1.20586L5.29519 1.34258C5.43191 1.47383 5.45105 1.48203 5.55769 1.46836C5.69987 1.45469 6.26315 1.21953 6.30964 1.15664C6.32878 1.1293 6.34245 1.02266 6.34245 0.883203V0.656249H6.9987H7.65495V0.883203ZM3.88151 1.7418C3.60261 2.04805 3.59714 2.10273 3.84323 2.37344L3.99636 2.5457L3.94167 2.67422L3.88698 2.80273L3.6573 2.82461C3.31003 2.86016 3.31276 2.85742 3.29089 2.975C3.26355 3.10625 3.26355 4.76875 3.29089 4.9C3.31276 5.01758 3.31003 5.01758 3.66003 5.05039L3.88698 5.07226L3.93894 5.20352L3.99089 5.3375L3.8405 5.5043C3.67917 5.68203 3.64636 5.75312 3.6737 5.86797C3.69558 5.95 4.82761 7.09297 5.00261 7.20781C5.1448 7.30351 5.22136 7.28164 5.43464 7.09297L5.60691 6.93984L5.73542 6.9918L5.86394 7.04375L5.87761 7.29258C5.89948 7.68633 5.80651 7.65625 7.00144 7.65625C8.13894 7.65625 8.08972 7.66719 8.09519 7.44297C8.09519 7.37187 8.10612 7.2543 8.11433 7.18047C8.13347 7.05195 8.13894 7.04648 8.26745 6.99453L8.40144 6.94258L8.51355 7.04922C8.828 7.34727 8.86081 7.34727 9.20261 7.03555C9.34753 6.90703 9.65925 6.59258 9.89987 6.33828C10.4303 5.77227 10.4276 5.7832 10.1214 5.46328L9.99831 5.33477L10.0557 5.20352L10.1104 5.07226L10.3401 5.05039C10.6874 5.01484 10.6846 5.01758 10.7065 4.9C10.7339 4.76875 10.7339 3.10625 10.7065 2.975C10.6846 2.85742 10.6874 2.85742 10.3374 2.82461L10.1104 2.80273L10.0585 2.67148L10.0065 2.5375L10.1569 2.3707C10.3975 2.10547 10.3948 2.04805 10.1159 1.74453L9.92175 1.53398L11.3518 1.54766C12.1393 1.55586 12.8475 1.5668 12.9268 1.575C13.1018 1.59414 13.2112 1.67617 13.2741 1.84023C13.3124 1.94414 13.3151 2.35703 13.3096 6.18516C13.3014 10.4016 13.3014 10.4152 13.244 10.4918C13.2139 10.5328 13.1292 10.5984 13.0581 10.634L12.9268 10.6996H7.04519C3.80769 10.6996 1.10612 10.6887 1.0405 10.6777C0.955733 10.6641 0.892842 10.6285 0.819014 10.5547C0.717842 10.4535 0.715108 10.4453 0.695967 10.1965C0.687764 10.0543 0.682296 8.11836 0.687764 5.89258C0.693233 2.69609 0.704171 1.83203 0.731514 1.78555C0.750655 1.75273 0.810811 1.68984 0.865499 1.64883L0.963936 1.57226L2.07409 1.55859C2.68386 1.55039 3.38659 1.53945 3.62995 1.53672L4.07839 1.53125L3.88151 1.7418ZM8.52995 11.5937V12.0312H6.9987H5.46745V11.5937V11.1562H6.9987H8.52995V11.5937ZM9.30105 12.5234C9.49519 12.5781 9.57448 12.7367 9.61003 13.1305L9.62917 13.3437H6.9987H4.36823L4.38737 13.1305C4.42019 12.7449 4.48034 12.6164 4.66081 12.5344C4.72644 12.5043 5.17487 12.4988 6.97136 12.4961C8.40964 12.4961 9.23542 12.507 9.30105 12.5234Z" fill="#242B3A"/>
<path d="M6.36484 1.58593C5.91641 1.71718 5.55273 1.9414 5.23281 2.27773C4.98945 2.53749 4.81719 2.82187 4.69414 3.1664C4.61211 3.40156 4.60938 3.40976 4.60938 3.93749C4.61211 4.44335 4.61484 4.48163 4.68594 4.68945C4.80625 5.05038 4.98672 5.34023 5.26562 5.62187C5.40234 5.75585 5.58555 5.91718 5.67578 5.9746C5.89453 6.11679 6.21719 6.25351 6.44687 6.30273C6.6875 6.35468 7.31367 6.35468 7.55156 6.30546C8.29805 6.14687 8.9707 5.56171 9.26875 4.81249C9.39453 4.49531 9.41641 4.32304 9.40273 3.82265C9.38906 3.40702 9.38086 3.36054 9.30156 3.14179C9.03359 2.41445 8.48125 1.87031 7.75391 1.62421C7.5543 1.55585 7.49414 1.54765 7.04297 1.53945C6.61367 1.53398 6.52617 1.53945 6.36484 1.58593ZM7.48047 2.06445C7.5707 2.08632 7.74844 2.15742 7.87695 2.22031C8.06016 2.31054 8.15312 2.3789 8.3418 2.56757C8.7 2.93124 8.8668 3.2621 8.91328 3.71601C8.97891 4.34218 8.76289 4.9246 8.30898 5.3457C8.12031 5.5207 7.93984 5.64921 7.91523 5.6246C7.9043 5.6164 7.89062 5.5289 7.88516 5.4332L7.86875 5.25546L8.05742 5.06679C8.38828 4.73593 8.54141 4.36406 8.54141 3.89648C8.54141 3.58202 8.49492 3.38788 8.35 3.11171C8.10937 2.6496 7.47773 2.26406 7.26992 2.45273C7.22617 2.49374 7.2207 2.55117 7.2207 3.14452V3.78984L7.11133 3.89648L7.00195 4.00312L6.89258 3.89648L6.7832 3.78984V3.14726C6.7832 2.40898 6.7832 2.40624 6.56719 2.40624C6.26914 2.40898 5.82617 2.76445 5.62656 3.1582C5.50898 3.39609 5.4625 3.60117 5.4625 3.89648C5.45977 4.36132 5.61562 4.73593 5.94648 5.06679L6.13516 5.25546L6.11875 5.4332C6.11328 5.5289 6.09961 5.6164 6.08867 5.6246C6.03672 5.67929 5.57187 5.26093 5.40508 5.00937C5.17266 4.65117 5.08242 4.36132 5.08242 3.95117C5.07969 3.62577 5.1207 3.40976 5.22461 3.18281C5.4625 2.65507 5.89727 2.26406 6.44141 2.08906C6.6793 2.00976 7.2207 1.99882 7.48047 2.06445ZM7.95078 3.43437C8.04375 3.62851 8.04648 3.63398 8.03555 3.92656C8.02461 4.31484 7.95625 4.45702 7.65273 4.74413L7.43945 4.94374V5.38398C7.43945 5.81327 7.43945 5.82148 7.3793 5.84062C7.3 5.86523 6.63555 5.86523 6.59453 5.84062C6.57539 5.82695 6.56445 5.67382 6.56445 5.38398V4.94374L6.3457 4.7414C6.10508 4.51171 6.01758 4.36132 5.96016 4.07695C5.90273 3.77343 6.02578 3.36054 6.23359 3.16093L6.31016 3.0871L6.32656 3.39609C6.3375 3.56562 6.3457 3.79257 6.3457 3.90195V4.09609L6.6082 4.34492C6.86523 4.58827 6.87344 4.59374 7.00469 4.59374C7.1332 4.59374 7.14141 4.58827 7.39844 4.34492L7.6582 4.09609V3.57382V3.05156L7.75664 3.14726C7.80859 3.19648 7.89609 3.32773 7.95078 3.43437Z" fill="#242B3A"/>
<path d="M1.1375 2.02891C1.09922 2.08359 1.09375 2.47734 1.09375 5.6875C1.09375 8.75273 1.09922 9.29414 1.13203 9.34062C1.17031 9.39258 1.26055 9.39258 7 9.39258C12.7395 9.39258 12.8297 9.39258 12.868 9.34062C12.9008 9.29414 12.9062 8.75273 12.9062 5.68203C12.9062 2.11367 12.9062 2.07812 12.8516 2.02344C12.7996 1.97148 12.7613 1.96875 11.7578 1.96875H10.7188V2.1875V2.40625H11.5938H12.4688V5.6875V8.96875H7H1.53125V5.6875V2.40625H2.40625H3.28125V2.1875V1.96875H2.23125H1.17852L1.1375 2.02891Z" fill="#242B3A"/>
<path d="M5.25 8.3125V8.53125H6.5625H7.875V8.3125V8.09375H6.5625H5.25V8.3125Z" fill="#242B3A"/>
<path d="M8.3125 8.3125V8.53125H8.53125H8.75V8.3125V8.09375H8.53125H8.3125V8.3125Z" fill="#242B3A"/>
<path d="M10.7188 10.0625V10.2812H10.9375H11.1562V10.0625V9.84375H10.9375H10.7188V10.0625Z" fill="#242B3A"/>
<path d="M11.5938 10.0625V10.2812H11.8125H12.0312V10.0625V9.84375H11.8125H11.5938V10.0625Z" fill="#242B3A"/>
<path d="M12.4688 10.0625V10.2812H12.6875H12.9062V10.0625V9.84375H12.6875H12.4688V10.0625Z" fill="#242B3A"/>
</g>
<defs>
<clipPath id="clip0_15424_14007">
<rect width="14" height="14" fill="white"/>
</clipPath>
</defs>
</svg>
