<svg width="14" height="14" viewBox="0 0 14 14" fill="none" xmlns="http://www.w3.org/2000/svg">
<path d="M2.58398 0.049242C2.46367 0.106664 2.35703 0.199633 2.28594 0.306273C2.24219 0.374633 2.23945 0.374633 2.12461 0.336351C2.03984 0.306273 1.92227 0.29807 1.68164 0.306273C1.31523 0.317211 1.21133 0.352757 1.04727 0.525023C0.885938 0.694554 0.866797 0.776586 0.853125 1.38635L0.842187 1.9387L0.710938 2.02346C0.546875 2.12737 0.325391 2.36252 0.251562 2.50471C0.139453 2.72346 0.109375 2.89299 0.109375 3.28127C0.109375 3.62307 0.114844 3.65862 0.164062 3.7051C0.243359 3.7762 0.396484 3.77346 0.473047 3.6969C0.527734 3.64221 0.535937 3.6012 0.546875 3.2594C0.557812 3.00237 0.576953 2.85471 0.607031 2.78362C0.672656 2.6387 0.864062 2.43909 1.02539 2.35705L1.16211 2.28323L2.08633 2.27502C2.76445 2.26956 3.02422 2.27502 3.05156 2.29963C3.07617 2.32151 3.08984 2.38987 3.08984 2.51291C3.08984 2.74807 2.99961 2.93948 2.83828 3.05159L2.72617 3.13088L2.12461 3.14456C1.36992 3.16096 1.42188 3.11995 1.42188 3.69143C1.42188 4.26565 1.35898 4.2219 2.1793 4.23831L2.83008 4.25198L3.03516 4.35041C3.52461 4.58557 3.7543 4.95198 3.79258 5.5426L3.80898 5.82424H2.71797C1.52852 5.82424 1.35898 5.80784 1.1293 5.67385C0.885938 5.52893 0.7 5.31838 0.609766 5.08049C0.585156 5.01487 0.557812 4.8344 0.549609 4.67854C0.533203 4.42698 0.522266 4.3887 0.467578 4.34495C0.382812 4.27659 0.232422 4.27932 0.164062 4.34768C0.117578 4.39416 0.109375 4.43791 0.109375 4.64846C0.109375 4.96018 0.144922 5.13245 0.265234 5.38674C0.48125 5.84065 1.05273 6.2344 1.4957 6.2344H1.58594V9.83284C1.58594 12.3649 1.59414 13.4641 1.61602 13.5489C1.65156 13.6938 1.79922 13.8742 1.94414 13.9453C2.04531 13.9973 2.11367 14 3.77344 14C5.41953 14 5.50156 13.9973 5.6 13.9481C5.65742 13.918 5.74492 13.8551 5.79141 13.8059C5.96094 13.6309 5.96094 13.6364 5.96094 11.5883V9.7344H6.09492H6.22891L6.23984 9.89299C6.24805 9.99963 6.26992 10.0817 6.31094 10.1391C6.34922 10.1938 6.63086 10.3852 7.07383 10.6641L7.77656 11.1016H9.55664C10.7625 11.1016 11.3695 11.0906 11.4434 11.0715C11.5117 11.0524 11.5965 10.9977 11.6648 10.9239C11.7742 10.8117 11.7824 10.809 11.982 10.7953C12.3375 10.7735 12.5453 10.6012 12.6082 10.2758C12.6328 10.15 12.652 10.1172 12.6902 10.1172C12.7395 10.1172 12.7422 10.1774 12.7422 11.9356C12.7422 13.9071 12.7395 13.8551 12.8898 13.9563C12.991 14.0219 13.6418 14.0219 13.743 13.9563C13.8961 13.8551 13.8906 13.9317 13.8906 11.6731C13.8906 10.2047 13.8824 9.5594 13.8605 9.48831C13.8113 9.32698 13.6473 9.13284 13.4805 9.03987C13.3383 8.96057 13.3109 8.9551 12.9828 8.9469L12.6383 8.93596L12.6191 8.81018C12.5945 8.64338 12.5207 8.5012 12.4086 8.40823C12.2746 8.29612 12.1625 8.25784 11.9574 8.25784C11.7742 8.25784 11.7715 8.2551 11.7086 8.1594C11.5938 7.98166 11.4953 7.95706 10.8473 7.95706C10.2785 7.95706 10.2785 7.95706 10.2129 8.02541C10.1227 8.11291 10.1227 8.2387 10.2129 8.3262C10.2785 8.39456 10.2812 8.39456 10.809 8.39456C11.2711 8.39456 11.3449 8.40002 11.3586 8.43831C11.3668 8.46291 11.375 8.95784 11.375 9.54026C11.375 10.3278 11.3668 10.6067 11.3422 10.6313C11.3176 10.6559 10.9102 10.6641 9.67422 10.6641H8.03906V9.52932V8.39456H8.76367H9.49102L9.55664 8.3262C9.64687 8.2387 9.64687 8.11291 9.55664 8.02541L9.49102 7.95706H8.62422H7.76016L7.08477 8.37815C6.71562 8.61057 6.38477 8.82932 6.35195 8.86487C6.27266 8.9469 6.23438 9.05627 6.23438 9.19026V9.2969H6.09766H5.96094V7.6262V5.95549L6.13867 5.76409C6.23711 5.65745 6.35195 5.49612 6.39844 5.40315C6.55977 5.06956 6.5625 5.05041 6.5625 3.42893V1.94416L6.49141 1.88948C6.45039 1.85666 6.39023 1.83206 6.35469 1.83206C6.17148 1.83206 6.125 1.93049 6.125 2.32424C6.125 2.66604 6.10039 2.7426 5.94727 2.86018C5.73672 3.01877 5.43867 2.94768 5.31289 2.70706C5.25 2.59221 5.25 2.57307 5.25 1.74729V0.902368L5.3293 0.814867C5.40586 0.727367 5.41953 0.724633 5.64648 0.713696C6.00469 0.700024 6.125 0.773851 6.125 1.00627C6.125 1.27424 6.3082 1.40002 6.49141 1.2551C6.55703 1.20315 6.5625 1.18127 6.5625 1.0008C6.5625 0.653539 6.38203 0.401977 6.07305 0.309008C5.89805 0.259789 5.35938 0.267992 5.25547 0.325414C5.19805 0.355493 5.18437 0.350023 5.07773 0.229711C4.90273 0.032836 4.80977 2.38419e-05 4.38047 2.38419e-05C4.01133 2.38419e-05 3.88008 0.0273676 3.7707 0.125805C3.72695 0.164086 3.71328 0.161351 3.60664 0.0902576C3.49453 0.0164299 3.47812 0.0136957 3.09258 0.00549221C2.74805 2.38419e-05 2.67695 0.00549221 2.58398 0.049242ZM3.37695 0.475804C3.41523 0.500414 3.45898 0.552367 3.47266 0.590649C3.48906 0.62893 3.5 0.995336 3.5 1.40276V2.14651L3.43164 2.04534C3.32773 1.88948 3.17461 1.83206 2.87656 1.83206H2.625V1.20588V0.582445L2.69609 0.511352C2.78359 0.423852 2.83281 0.412914 3.09531 0.421117C3.2375 0.426586 3.32773 0.442992 3.37695 0.475804ZM4.73594 0.514086L4.8125 0.601586V1.61877V2.63323L4.74414 2.7508C4.56914 3.04885 4.14805 3.03791 3.99219 2.73166C3.94023 2.63323 3.9375 2.5676 3.9375 1.61604V0.607055L4.00586 0.522289C4.09063 0.423852 4.13438 0.412914 4.42695 0.421117C4.64844 0.426586 4.65937 0.432055 4.73594 0.514086ZM2.08359 0.817601L2.17383 0.896898L2.18203 1.36448L2.19023 1.83206H1.73906H1.28516V1.44104C1.28516 0.801195 1.32617 0.738305 1.73906 0.738305C1.98242 0.738305 1.99883 0.741039 2.08359 0.817601ZM4.03867 3.34143C4.13711 3.38518 4.22187 3.40159 4.375 3.40159C4.60195 3.40159 4.76602 3.34416 4.94375 3.20198L5.04492 3.12268L5.11328 3.17737C5.35391 3.37151 5.69297 3.43713 5.96914 3.34143L6.12773 3.28948L6.11953 4.1262L6.11133 4.96565L6.01016 5.17346C5.84609 5.49885 5.58086 5.7094 5.23359 5.78323C5.11875 5.80784 4.88906 5.82424 4.6457 5.82424H4.24648L4.23008 5.51526C4.2082 5.15432 4.16719 4.97932 4.03047 4.70588C3.90469 4.45159 3.61484 4.1508 3.36055 4.01135C3.06797 3.84729 2.83008 3.80081 2.30508 3.80081H1.85938V3.69416V3.58752L2.33242 3.57659C2.77813 3.56838 2.81094 3.56565 2.95312 3.49455C3.03516 3.45354 3.16367 3.40705 3.23477 3.39065C3.39609 3.3551 3.54375 3.28127 3.63672 3.19104L3.70508 3.12541L3.80625 3.20471C3.86094 3.24573 3.96484 3.30862 4.03867 3.34143ZM5.52344 6.95627V7.7301L5.38125 7.74377C5.21719 7.76018 5.14062 7.83127 5.14062 7.96799C5.14062 8.10471 5.22539 8.17581 5.38672 8.17581H5.52344V8.73635C5.52344 9.20666 5.51797 9.2969 5.48516 9.2969C5.46328 9.2969 5.41133 9.32698 5.37031 9.36252C5.22813 9.48284 5.29648 9.7344 5.47148 9.7344C5.5207 9.7344 5.52344 9.77541 5.52344 10.8637V11.993L5.33477 12.1789C5.23086 12.2828 5.13789 12.3977 5.12695 12.436C5.07773 12.6301 5.30195 12.786 5.46328 12.6711L5.52344 12.6301V13.0266C5.52344 13.4067 5.5207 13.4258 5.45781 13.4996L5.39219 13.5762H3.77344H2.15469L2.08906 13.4996C2.02617 13.4258 2.02344 13.4067 2.02344 13.0074V12.5918L2.21484 12.4004C2.43359 12.1817 2.46914 12.086 2.38164 11.9711C2.30781 11.8781 2.20664 11.8535 2.10273 11.9055L2.02344 11.9438V10.0598V8.17581H2.16016C2.32695 8.17581 2.40625 8.11018 2.40625 7.97346C2.40625 7.83127 2.33242 7.76018 2.16562 7.74377L2.02344 7.7301V6.99729V6.26448L3.65859 6.25354C4.74414 6.24807 5.31836 6.2344 5.37305 6.21526C5.53164 6.15784 5.52344 6.11682 5.52344 6.95627ZM7.60156 9.52659V10.4699L7.13672 10.1801L6.66914 9.88752L6.67734 9.51838L6.68555 9.15198L7.13672 8.87034C7.38555 8.71448 7.59062 8.58596 7.59609 8.58596C7.59883 8.58596 7.60156 9.00979 7.60156 9.52659ZM12.116 8.74729C12.1816 8.79924 12.1816 8.80471 12.1898 9.4637C12.1953 9.8301 12.1926 10.1582 12.1816 10.191C12.157 10.2977 12.0586 10.3633 11.9301 10.3633H11.8125V9.52932V8.69534H11.9328C12.0094 8.69534 12.075 8.71448 12.116 8.74729ZM13.248 9.41721C13.3 9.43909 13.3684 9.49924 13.3984 9.54846C13.4504 9.63596 13.4531 9.67971 13.4531 11.6129V13.5899H13.3164H13.1797L13.1742 11.6922C13.166 9.4719 13.1988 9.67971 12.8461 9.67971H12.6328V9.52932V9.37893H12.8926C13.0594 9.37893 13.1879 9.3926 13.248 9.41721Z" fill="#242B3A"/>
<path d="M2.91262 7.76289C2.82239 7.80117 2.77864 7.87227 2.78137 7.97891C2.78684 8.14297 2.8552 8.17578 3.18879 8.17578C3.52239 8.17578 3.58254 8.14297 3.58254 7.9625C3.58254 7.79297 3.51692 7.75195 3.21614 7.74648C3.07942 7.74102 2.9427 7.74922 2.91262 7.76289Z" fill="#242B3A"/>
<path d="M4.10209 7.75742C3.95717 7.81484 3.91342 8.01445 4.02006 8.12109C4.06655 8.16758 4.1103 8.17578 4.35912 8.17578C4.69819 8.17578 4.76928 8.14023 4.76928 7.97344C4.76928 7.79844 4.69272 7.75195 4.39467 7.74648C4.25795 7.74375 4.12397 7.74648 4.10209 7.75742Z" fill="#242B3A"/>
<path d="M2.88066 8.88395C2.69746 8.94684 2.558 9.05348 2.45957 9.21208C2.35019 9.38161 2.31738 9.52106 2.33105 9.73434C2.35293 10.0297 2.41855 10.1172 3.083 10.7789C3.80215 11.4953 3.75293 11.4761 4.06191 11.1754C4.30254 10.9457 4.33808 10.8554 4.23418 10.7351C4.19043 10.6832 4.14394 10.6613 4.08379 10.6586L3.99355 10.6558V10.0761V9.49919L4.08925 9.40622C4.15761 9.34059 4.18496 9.28864 4.18496 9.22848C4.18496 9.04801 4.0209 8.95231 3.85683 9.03708C3.7748 9.07809 3.76933 9.07809 3.65449 8.99606C3.43027 8.83473 3.14316 8.79098 2.88066 8.88395ZM3.3373 9.32692C3.56699 9.46364 3.55605 9.43083 3.55605 10.0597V10.623L3.19785 10.2675C3.00097 10.0707 2.82324 9.87653 2.79863 9.83278C2.74668 9.73161 2.76582 9.53747 2.83691 9.43629C2.90254 9.34606 3.05293 9.2695 3.15957 9.2695C3.20605 9.2695 3.28535 9.29684 3.3373 9.32692Z" fill="#242B3A"/>
<path d="M4.34268 8.88676C4.25791 8.95239 4.23604 9.04809 4.27979 9.15199C4.30713 9.21762 4.34815 9.24223 4.49581 9.29145C4.73916 9.37074 4.8212 9.36801 4.89229 9.28051C4.97159 9.17934 4.96338 9.0891 4.87315 8.99614C4.80206 8.92504 4.56416 8.83207 4.45752 8.83207C4.43018 8.83207 4.37823 8.85668 4.34268 8.88676Z" fill="#242B3A"/>
<path d="M4.85835 9.44185C4.80913 9.49107 4.79272 9.54576 4.77905 9.70435C4.75991 9.93404 4.78725 10.0188 4.89936 10.0626C5.08804 10.1418 5.22475 9.98326 5.22475 9.69068C5.22475 9.56216 5.21108 9.50474 5.16733 9.45005C5.0935 9.35708 4.94858 9.35161 4.85835 9.44185Z" fill="#242B3A"/>
<path d="M4.55664 10.0871C4.52656 10.1008 4.44453 10.1719 4.37344 10.2484C4.26953 10.3578 4.24219 10.407 4.24219 10.4809C4.24219 10.6039 4.33516 10.6914 4.46641 10.6914C4.54844 10.6914 4.58398 10.6668 4.71523 10.5301C4.80273 10.4398 4.87109 10.3441 4.87109 10.3168C4.87109 10.2102 4.83281 10.1418 4.75898 10.1035C4.67422 10.057 4.63594 10.0543 4.55664 10.0871Z" fill="#242B3A"/>
<path d="M2.99023 11.9054C2.94648 11.9246 2.8125 12.0422 2.69766 12.1625C2.50352 12.3621 2.48438 12.3894 2.48438 12.4906C2.48438 12.5781 2.50078 12.6136 2.55547 12.6574C2.68672 12.7613 2.74414 12.7367 3.02305 12.4633C3.1625 12.3238 3.28555 12.1816 3.29375 12.1488C3.32383 12.0367 3.28281 11.9492 3.18164 11.9054C3.07227 11.8617 3.09141 11.8617 2.99023 11.9054Z" fill="#242B3A"/>
<path d="M3.90625 11.8864C3.88437 11.8946 3.75039 12.0122 3.61367 12.1489C3.39492 12.3649 3.35938 12.4114 3.35938 12.4907C3.35938 12.5508 3.38125 12.6028 3.42773 12.6465C3.55625 12.7778 3.66562 12.7286 3.96914 12.4196C4.14961 12.2309 4.17969 12.1872 4.17969 12.1051C4.17969 11.952 4.0375 11.8372 3.90625 11.8864Z" fill="#242B3A"/>
<path d="M4.77539 11.8919C4.74531 11.9055 4.61406 12.0259 4.48281 12.1626C4.28867 12.3595 4.24219 12.4223 4.24219 12.4907C4.24219 12.6028 4.31875 12.6848 4.4418 12.7067C4.54023 12.7231 4.55117 12.7149 4.80547 12.4634C5.04609 12.2282 5.06797 12.1981 5.06797 12.1024C5.06797 11.9411 4.91758 11.8317 4.77539 11.8919Z" fill="#242B3A"/>
<path d="M8.2168 4.50898C8.16484 4.5418 8.09102 4.64297 8.01445 4.79062L7.89141 5.02305L7.65078 5.15156C7.38828 5.29102 7.32812 5.36484 7.32812 5.53984C7.32812 5.66562 7.43477 5.77227 7.7 5.91172C7.8832 6.00742 7.89687 6.02109 8.01172 6.23437C8.15664 6.50234 8.225 6.5625 8.38086 6.5625C8.53945 6.5625 8.61055 6.49687 8.76094 6.22617C8.88125 6.00742 8.88945 5.99922 9.10273 5.88437C9.36797 5.74219 9.43359 5.66836 9.43359 5.50977C9.43359 5.35391 9.38437 5.30195 9.1082 5.14609C8.88398 5.02031 8.87578 5.01211 8.74727 4.78516C8.56953 4.46523 8.41641 4.38594 8.2168 4.50898ZM8.47383 5.20898C8.53945 5.32656 8.58867 5.37305 8.69805 5.42773C8.77461 5.46875 8.8293 5.50703 8.82109 5.51523C8.81289 5.52344 8.74727 5.56992 8.67617 5.61641C8.59961 5.66836 8.51484 5.75586 8.46289 5.84336L8.37812 5.98281L8.3043 5.84062C8.24687 5.73398 8.19492 5.6793 8.07734 5.6082L7.92422 5.51523L8.01445 5.46055C8.06641 5.43047 8.13477 5.38945 8.16758 5.36758C8.20312 5.34844 8.26055 5.26914 8.29883 5.19531C8.33711 5.11875 8.37266 5.05859 8.37812 5.05859C8.38359 5.05859 8.42734 5.12695 8.47383 5.20898Z" fill="#242B3A"/>
<path d="M6.94531 6.42582C6.90156 6.46957 6.89062 6.51605 6.89062 6.68285C6.89062 6.87152 6.89609 6.89066 6.96172 6.94261C7.05742 7.01917 7.14492 7.01371 7.23789 6.93441C7.30898 6.87425 7.31445 6.85238 7.31445 6.67191C7.31445 6.49964 7.30625 6.46957 7.24883 6.42308C7.16406 6.35472 7.01641 6.35472 6.94531 6.42582Z" fill="#242B3A"/>
<path d="M6.375 7C6.34219 7.03281 6.32031 7.09023 6.32031 7.15039C6.32031 7.30898 6.39141 7.35547 6.63203 7.35547C6.8207 7.35547 6.83984 7.35 6.8918 7.28438C6.92461 7.24336 6.94922 7.1832 6.94922 7.15039C6.94922 7.11758 6.92461 7.05742 6.8918 7.01641C6.83984 6.95078 6.8207 6.94531 6.63203 6.94531C6.46523 6.94531 6.41875 6.95625 6.375 7Z" fill="#242B3A"/>
<path d="M7.31758 7C7.2875 7.03281 7.26562 7.09844 7.26562 7.15039C7.26562 7.31172 7.33398 7.35547 7.57734 7.35547C7.82617 7.35547 7.87812 7.31992 7.87812 7.14492C7.87812 6.98086 7.8207 6.94531 7.57187 6.94531C7.39961 6.94531 7.35859 6.95352 7.31758 7Z" fill="#242B3A"/>
<path d="M7.02734 7.31997C6.91523 7.36098 6.89062 7.41567 6.89062 7.62075C6.89062 7.78481 6.90156 7.83129 6.94531 7.87504C7.01641 7.94614 7.16406 7.94614 7.24883 7.87778C7.30625 7.83129 7.31445 7.80122 7.31445 7.62895C7.31445 7.44848 7.30898 7.42661 7.23789 7.36645C7.16133 7.30083 7.10938 7.28989 7.02734 7.31997Z" fill="#242B3A"/>
<path d="M8.49336 8.7582C8.4332 8.81016 8.41406 8.84844 8.41406 8.92773C8.41406 9.09453 8.48789 9.13281 8.79688 9.13281C9.01836 9.13281 9.06211 9.12461 9.10859 9.07812C9.17969 9.00703 9.17969 8.85938 9.11133 8.77461C9.06484 8.71719 9.03203 8.70898 8.81602 8.70078C8.58906 8.68984 8.56445 8.69531 8.49336 8.7582Z" fill="#242B3A"/>
<path d="M8.49336 9.35977C8.4332 9.41172 8.41406 9.45 8.41406 9.5293C8.41406 9.69609 8.48789 9.73438 8.79688 9.73438C9.01836 9.73438 9.06211 9.72617 9.10859 9.67969C9.17969 9.60859 9.17969 9.46094 9.11133 9.37617C9.06484 9.31875 9.03203 9.31055 8.81602 9.30234C8.58906 9.29141 8.56445 9.29688 8.49336 9.35977Z" fill="#242B3A"/>
<path d="M8.49336 9.96133C8.4332 10.0133 8.41406 10.0516 8.41406 10.1309C8.41406 10.2977 8.48789 10.3359 8.79688 10.3359C9.01836 10.3359 9.06211 10.3277 9.10859 10.2812C9.17969 10.2102 9.17969 10.0625 9.11133 9.97773C9.06484 9.92031 9.03203 9.91211 8.81602 9.90391C8.58906 9.89297 8.56445 9.89844 8.49336 9.96133Z" fill="#242B3A"/>
<path d="M6.96172 11.077C6.89609 11.129 6.89062 11.1481 6.89062 11.3368C6.89062 11.5036 6.90156 11.55 6.94531 11.5938C7.01641 11.6649 7.16406 11.6649 7.24883 11.5965C7.30625 11.55 7.31445 11.52 7.31445 11.3477C7.31445 11.1672 7.30898 11.1454 7.23789 11.0852C7.14492 11.0059 7.05742 11.0004 6.96172 11.077Z" fill="#242B3A"/>
<path d="M6.39232 11.6484C6.29114 11.725 6.28567 11.8836 6.37864 11.9711C6.4306 12.0203 6.47435 12.0312 6.62747 12.0312C6.7888 12.0312 6.81888 12.023 6.88177 11.9602C6.93919 11.9027 6.94739 11.8727 6.93646 11.7906C6.91185 11.6457 6.85989 11.6102 6.64935 11.5992C6.49349 11.591 6.45521 11.5965 6.39232 11.6484Z" fill="#242B3A"/>
<path d="M7.36047 11.6266C7.2675 11.6703 7.22922 11.8152 7.28118 11.9164C7.33313 12.0176 7.36868 12.0312 7.58743 12.0312C7.80344 12.0312 7.8718 11.9793 7.8718 11.8152C7.8718 11.6621 7.77883 11.5938 7.57375 11.5965C7.48899 11.5965 7.39329 11.6102 7.36047 11.6266Z" fill="#242B3A"/>
<path d="M6.95078 12.0395C6.90156 12.0914 6.89062 12.1352 6.89062 12.2965C6.89062 12.4742 6.89609 12.4961 6.96172 12.5481C7.09023 12.6492 7.24336 12.6082 7.30078 12.4578C7.3582 12.302 7.31445 12.0559 7.21875 12.0039C7.13125 11.9574 7.01367 11.9739 6.95078 12.0395Z" fill="#242B3A"/>
</svg>
