<svg width="46" height="46" viewBox="0 0 46 46" fill="none" xmlns="http://www.w3.org/2000/svg">
<path d="M2.91579 1.03138C1.92372 1.36491 1.10947 2.12727 0.772542 3.02304C0.529204 3.69963 0.426253 5.15765 0.557281 6.1106C0.744465 7.44473 1.4464 8.46438 2.52271 8.97897C3.01874 9.21721 3.16849 9.23627 4.63788 9.28392L6.21022 9.33156L6.38804 9.79851C6.94023 11.2946 8.26924 12.2952 9.8135 12.4096L10.4967 12.4572L10.5154 27.9998L10.5435 43.5424L10.8149 44.0951C11.1425 44.7431 11.7602 45.3626 12.4153 45.6866C12.8178 45.8962 13.0143 45.9248 13.866 45.9248C14.7271 45.9248 14.9049 45.8962 15.3167 45.6866C15.9531 45.3626 16.6363 44.6479 16.9358 43.9903L17.1885 43.4471L17.2166 27.9522L17.2353 12.4572L17.9279 12.4096C19.4441 12.3048 20.9509 11.1231 21.3533 9.69368L21.475 9.30297L23.0754 9.26486C24.5916 9.23627 24.7039 9.22674 25.1906 8.97897C25.8925 8.62638 26.4728 8.02602 26.8191 7.28272C27.0999 6.69189 27.1092 6.60613 27.1373 5.24341C27.156 4.30952 27.128 3.66152 27.0531 3.38516C26.8004 2.41315 26.1452 1.65079 25.2 1.19338L24.6759 0.94561L13.9596 0.926552C5.9856 0.917023 3.15913 0.94561 2.91579 1.03138ZM24.5542 2.97539C24.7414 3.09928 24.9941 3.35657 25.1157 3.54716C25.3123 3.86164 25.331 4.01411 25.331 5.09094C25.331 6.16777 25.3123 6.32024 25.1157 6.63472C24.9941 6.82531 24.7414 7.0826 24.5542 7.20649L24.2079 7.42567H13.866C2.29809 7.42567 3.21528 7.48284 2.66309 6.74907C2.42911 6.4346 2.40104 6.31071 2.37296 5.46259C2.3168 4.16658 2.39168 3.75681 2.75669 3.33751C3.31824 2.67998 2.71925 2.70857 14.0064 2.73716L24.2079 2.75621L24.5542 2.97539ZM19.4815 9.37921C19.4815 9.55074 18.8825 10.1511 18.5082 10.3607C18.1338 10.5609 18.0308 10.5704 14.1468 10.599C11.4888 10.618 10.01 10.599 9.69183 10.5228C9.19579 10.4179 8.68104 10.0463 8.34411 9.5698L8.14757 9.28392H13.8099C17.3944 9.28392 19.4815 9.32203 19.4815 9.37921ZM15.4571 13.8104V15.0016H13.866H12.275V13.8104V12.6192H13.866H15.4571V13.8104ZM15.4571 18.7658V20.624H13.866H12.275V18.7658V16.9075H13.866H15.4571V18.7658ZM15.4571 24.2929V26.1511H13.866H12.275V24.2929V22.4346H13.866H15.4571V24.2929ZM15.4384 35.5091C15.4103 42.3703 15.4009 42.9993 15.2512 43.2756C14.9236 43.876 14.1842 44.2476 13.5384 44.1237C13.0986 44.038 12.4247 43.3709 12.3405 42.9325C12.303 42.7515 12.275 39.3399 12.275 35.3375V28.057H13.866H15.4664L15.4384 35.5091Z" fill="white"/>
<path d="M4.64741 4.27095C3.91739 4.59495 4.00162 5.71943 4.76908 5.94814C5.01241 6.02438 7.82952 6.04343 14.0721 6.02438L23.0382 5.99579L23.2909 5.73849C23.6465 5.36684 23.6465 4.81413 23.2909 4.44248L23.0382 4.18518L13.9785 4.16613C6.63155 4.14707 4.87203 4.16613 4.64741 4.27095Z" fill="white"/>
<path d="M13.3885 39.2542C13.0328 39.4448 12.9018 39.8641 12.9486 40.5979C12.986 41.1506 13.0235 41.2649 13.2481 41.4555C13.5476 41.7223 14.0904 41.7605 14.3993 41.5413C14.68 41.3412 14.8298 40.798 14.7736 40.2071C14.7175 39.6354 14.5771 39.359 14.2682 39.2161C13.9687 39.0731 13.688 39.0922 13.3885 39.2542Z" fill="white"/>
<path d="M41.1481 2.20318C41.0452 2.23177 40.6895 2.45095 40.3526 2.70825C39.426 3.38484 38.6866 3.81367 38.0128 4.05191C37.4419 4.25203 37.1985 4.27108 34.3627 4.31873C31.3584 4.37591 31.3116 4.37591 30.8717 4.61414C30.357 4.87144 29.9733 5.28121 29.6644 5.88157C29.4866 6.2151 29.4492 6.43428 29.4492 7.1871L29.4398 8.08288L29.1684 8.14958C27.5492 8.49265 26.6133 10.5129 27.3621 12.0471C27.5024 12.333 27.6054 12.5713 27.596 12.5808C27.5867 12.5903 27.1 12.7523 26.5197 12.9524C25.3498 13.3432 24.938 13.629 24.6011 14.277C24.2455 14.9727 24.3016 15.3634 25.9769 22.9489C26.8286 26.8274 27.5212 30.0007 27.5118 30.0007C27.4931 30.0102 27.3246 30.0865 27.1281 30.1818C26.9222 30.2771 26.735 30.4486 26.6882 30.5915C26.6227 30.7535 26.604 33.0883 26.6133 37.0525L26.6414 43.2753L26.9222 43.7422C27.1 44.0281 27.3808 44.314 27.6616 44.4951L28.1201 44.7809L34.6341 44.8095C39.1452 44.8286 41.2979 44.8095 41.6254 44.7333C42.1963 44.6094 42.786 44.1329 43.0948 43.5516L43.3007 43.1609V36.9572C43.3007 30.1246 43.3194 30.3533 42.7204 30.1341C42.552 30.0674 42.4116 29.9816 42.4116 29.9435C42.4116 29.8959 43.1042 26.6844 43.9559 22.7964C44.8918 18.5081 45.5001 15.5254 45.5001 15.2205C45.5001 14.582 45.2193 13.953 44.7701 13.5719C44.5642 13.4003 44.0307 13.1526 43.3943 12.9429C42.8328 12.7523 42.3554 12.5808 42.3367 12.5713C42.3274 12.5617 42.421 12.3235 42.552 12.0376C43.0855 10.8655 42.683 9.26453 41.6909 8.57841L41.3914 8.36876L41.6254 8.01617C42.1963 7.14899 42.5988 5.40509 42.5988 3.7279C42.5988 2.9179 42.5894 2.88931 42.2993 2.5653C41.9904 2.2413 41.5506 2.09836 41.1481 2.20318ZM40.6895 5.01439C40.3994 6.44381 40.2871 6.75828 39.8659 7.24428C39.4728 7.69217 38.9487 7.9304 38.0877 8.04476C37.2828 8.14005 36.9833 8.39735 36.9833 8.95959C36.9833 9.77913 37.3296 9.95066 38.9674 9.95066C40.39 9.95066 40.5959 10.0174 40.8486 10.551C41.0171 10.8941 41.0171 10.9131 40.8486 11.2562C40.5398 11.8947 40.0812 11.9709 38.0596 11.7041C36.5528 11.5135 33.3519 11.5135 31.9387 11.7041C31.3491 11.7898 30.5723 11.8566 30.2166 11.8566C29.6083 11.8566 29.5521 11.8375 29.2526 11.5326C28.8221 11.0942 28.8221 10.713 29.2526 10.2747L29.5708 9.95066H30.9466C31.7702 9.95066 32.3973 9.91254 32.519 9.84583C32.8559 9.6743 33.0524 9.3503 33.0524 8.98818C33.0524 8.47359 32.7717 8.17817 32.1727 8.04476C31.6392 7.9304 31.4427 7.77793 31.2835 7.34911C31.2087 7.14899 31.218 7.00605 31.3116 6.75828C31.555 6.16745 31.7047 6.13886 34.7184 6.13886C37.133 6.13886 37.4887 6.1198 38.1438 5.94827C38.8364 5.75768 40.3994 5.06203 40.5023 4.8905C40.6053 4.71897 40.7269 4.81426 40.6895 5.01439ZM37.0301 13.4861C39.5851 13.7148 43.5347 14.7249 43.6657 15.1823C43.6938 15.2681 42.9825 18.632 42.1027 22.6725L40.493 30.0102L39.2482 30.0388L38.0128 30.0674V28.7238C38.0128 26.8941 37.835 26.5129 37.0114 26.5129C36.7774 26.5129 36.6089 26.5891 36.4311 26.7607C36.1878 27.0084 36.1878 27.037 36.1597 28.5332L36.1316 30.0579H35.0179H33.9041L33.876 28.5236L33.848 26.9894L33.5859 26.7607C33.4174 26.6177 33.2022 26.532 32.9963 26.532C32.1914 26.532 32.0229 26.9036 32.0229 28.7238V30.0579H30.722C29.4492 30.0579 29.4211 30.0484 29.3743 29.8387C29.3462 29.7243 28.6162 26.3986 27.7551 22.4438C26.6601 17.3932 26.2202 15.2109 26.2858 15.1156C26.3981 14.9251 27.6241 14.5058 29.262 14.096C31.817 13.4575 34.4376 13.2479 37.0301 13.4861ZM41.4757 32.7261V33.4885H40.39C39.3231 33.4885 39.3044 33.4885 39.0329 33.7649C38.7428 34.0698 38.6773 34.4796 38.8738 34.8512C39.0797 35.2515 39.2295 35.2896 40.3807 35.2991H41.4757V35.9662V36.6332H40.493C39.4447 36.6332 39.0423 36.7476 38.8551 37.1002C38.6492 37.5004 38.799 38.1103 39.164 38.3485C39.3044 38.4343 39.7349 38.501 40.4275 38.5201L41.4757 38.5582V39.1681V39.778H40.5491C39.5103 39.778 39.1172 39.8828 38.9113 40.2068C38.5931 40.7023 38.8083 41.3884 39.3418 41.579C39.5009 41.6362 40.0437 41.6839 40.5491 41.6839H41.4757V42.1889C41.4757 42.4653 41.4289 42.7416 41.3634 42.8083C41.2791 42.8941 39.7162 42.9227 34.9055 42.9227H28.56L28.4664 42.6749C28.4103 42.5415 28.3728 42.2652 28.3728 42.065V41.7029L29.4959 41.6648C30.5723 41.6362 30.6284 41.6267 30.8717 41.3694C31.0683 41.1788 31.1338 41.0168 31.1338 40.7309C31.1338 40.445 31.0683 40.283 30.8717 40.0924C30.6284 39.8351 30.5723 39.8256 29.4959 39.797L28.3728 39.7589V39.1585V38.5582L29.4866 38.5296C30.5067 38.4915 30.6284 38.4724 30.8343 38.2723C31.1338 37.9864 31.218 37.6529 31.087 37.2431C30.9185 36.7476 30.619 36.6332 29.4024 36.6332H28.3728V35.9662V35.2991H29.4866C30.4506 35.2991 30.6284 35.2705 30.8249 35.1085C31.2835 34.7464 31.218 33.8983 30.7033 33.6314C30.5161 33.5266 30.1324 33.4885 29.4024 33.4885H28.3728V32.7261V31.9638H34.9243H41.4757V32.7261Z" fill="white"/>
</svg>
