<svg width="52" height="13" viewBox="0 0 52 13" fill="none" xmlns="http://www.w3.org/2000/svg">
<path d="M10.9683 0H2.31296C1.11308 0 0.140625 0.972451 0.140625 2.17233V10.8277C0.140625 12.0275 1.11308 13 2.31296 13H10.9683C12.1682 13 13.1406 12.0275 13.1406 10.8277V2.17233C13.1406 0.972451 12.1682 0 10.9683 0ZM10.7775 9.95063C10.7775 10.3297 10.4703 10.6368 10.0913 10.6368H3.18999C2.81094 10.6368 2.50379 10.3297 2.50379 9.95063V3.04937C2.50379 2.67032 2.81094 2.36316 3.18999 2.36316H10.0913C10.4703 2.36316 10.7775 2.67032 10.7775 3.04937V9.95063ZM5.26168 8.26453C5.0434 8.26453 4.86825 8.08808 4.86825 7.8698V5.11452C4.86825 4.89624 5.0434 4.71848 5.26168 4.71848H8.02088C8.23785 4.71848 8.4143 4.89493 8.4143 5.11452V7.86849C8.4143 8.08677 8.23785 8.26322 8.02088 8.26322H5.26168V8.26453ZM16.5873 8.07631H18.0068C18.0774 8.88015 18.6224 9.50754 19.7217 9.50754C20.7033 9.50754 21.3071 9.02262 21.3071 8.28936C21.3071 7.60316 20.834 7.296 19.9818 7.09471L18.8812 6.85813C17.6866 6.59803 16.7873 5.82948 16.7873 4.5747C16.7873 3.19053 18.0173 2.24422 19.6145 2.24422C21.3058 2.24422 22.3946 3.13171 22.4887 4.444H21.1163C20.9529 3.82968 20.4432 3.4637 19.6158 3.4637C18.7401 3.4637 18.1375 3.93686 18.1375 4.54072C18.1375 5.14458 18.6577 5.51056 19.557 5.71184L20.6457 5.94842C21.8404 6.20853 22.656 6.93002 22.656 8.19526C22.656 9.80424 21.4496 10.7623 19.723 10.7623C17.782 10.761 16.7063 9.70883 16.5873 8.07631ZM27.7339 13V10.646L27.8267 9.61341H27.7339C27.4085 10.3558 26.7249 10.7623 25.7969 10.7623C24.3003 10.7623 23.1867 9.54414 23.1867 7.67635C23.1867 5.80857 24.3003 4.59039 25.7969 4.59039C26.7131 4.59039 27.3627 5.0191 27.7339 5.69224H27.8267V4.70541H29.0567V13H27.7339ZM27.7797 7.67505C27.7797 6.48039 27.049 5.78373 26.155 5.78373C25.261 5.78373 24.5303 6.48039 24.5303 7.67505C24.5303 8.8697 25.261 9.56636 26.155 9.56636C27.049 9.56636 27.7797 8.871 27.7797 7.67505ZM30.0383 8.29067V4.70541H31.361V8.17434C31.361 9.11412 31.8132 9.56636 32.5674 9.56636C33.4954 9.56636 34.0993 8.90499 34.0993 7.87241V4.70541H35.422V10.6447H34.1921V9.41474H34.0993C33.8091 10.2042 33.1713 10.761 32.1858 10.761C30.7689 10.761 30.0383 9.85653 30.0383 8.29067ZM36.2272 8.98602C36.2272 7.87241 37.0049 7.2228 38.3851 7.14177L40.0203 7.0372V6.5732C40.0203 6.01639 39.6138 5.68047 38.8949 5.68047C38.2335 5.68047 37.8388 6.01639 37.7342 6.49216H36.4115C36.5513 5.28574 37.5486 4.58908 38.8936 4.58908C40.4137 4.58908 41.3417 5.23869 41.3417 6.49216V10.6447H40.1118V9.54283H40.019C39.7406 10.2735 39.1602 10.761 38.0466 10.761C36.9814 10.761 36.2272 10.0421 36.2272 8.98602ZM40.0216 8.25538V7.94168L38.6871 8.03449C37.9682 8.08023 37.6427 8.34818 37.6427 8.88146C37.6427 9.3337 38.0139 9.65916 38.5354 9.65916C39.4765 9.65916 40.0216 9.05661 40.0216 8.25538ZM42.3285 10.646V4.70541H43.5585V5.84255H43.6513C43.8251 5.06485 44.4172 4.70541 45.2982 4.70541H45.902V5.90006H45.1479C44.2891 5.90006 43.6513 6.45687 43.6513 7.51297V10.6447H42.3285V10.646ZM51.9537 7.91947H47.4404C47.5097 9.00955 48.2756 9.62518 49.1226 9.62518C49.8415 9.62518 50.2937 9.33501 50.5499 8.84748H51.8609C51.5015 10.0539 50.4454 10.761 49.1109 10.761C47.3594 10.761 46.1295 9.45003 46.1295 7.67505C46.1295 5.90006 47.3934 4.58908 49.1226 4.58908C50.8623 4.58908 51.9995 5.78373 51.9995 7.26855C52.0008 7.56002 51.9772 7.71034 51.9537 7.91947ZM50.6898 7.00322C50.644 6.17977 49.9591 5.62296 49.1239 5.62296C48.3345 5.62296 47.6744 6.12226 47.511 7.00322H50.6898Z" fill="#1A1A1A"/>
</svg>
