<svg width="16" height="14" viewBox="0 0 16 14" fill="none" xmlns="http://www.w3.org/2000/svg">
<g clip-path="url(#clip0_37_6070)">
<path d="M14.6695 4.68931L10.6111 4.10689L8.79725 0.486577C8.47225 -0.158735 7.53058 -0.166938 7.2028 0.486577L5.38892 4.10689L1.33058 4.68931C0.602805 4.79322 0.311138 5.67642 0.838916 6.18228L3.77503 8.99869L3.08058 12.9772C2.95558 13.6963 3.72503 14.235 4.36947 13.8987L8.00003 12.0202L11.6306 13.8987C12.275 14.2323 13.0445 13.6963 12.9195 12.9772L12.225 8.99869L15.1611 6.18228C15.6889 5.67642 15.3972 4.79322 14.6695 4.68931ZM10.7945 8.53931L11.4528 12.3237L8.00003 10.5381L4.54725 12.3237L5.20558 8.53931L2.41114 5.85962L6.27225 5.30728L8.00003 1.86197L9.72781 5.30728L13.5889 5.85962L10.7945 8.53931Z" fill="#858585"/>
</g>
<defs>
<clipPath id="clip0_37_6070">
<rect width="16" height="14" fill="white"/>
</clipPath>
</defs>
</svg>
