<svg width="24" height="25" viewBox="0 0 24 25" fill="none" xmlns="http://www.w3.org/2000/svg">
<path fill-rule="evenodd" clip-rule="evenodd" d="M12 1.5C12.3806 1.5 12.7283 1.71607 12.8967 2.05738L15.7543 7.84647L22.1447 8.78051C22.5212 8.83555 22.8339 9.09956 22.9513 9.46157C23.0687 9.82358 22.9704 10.2208 22.6978 10.4864L18.0746 14.9894L19.1656 21.351C19.23 21.7261 19.0757 22.1053 18.7678 22.3291C18.4598 22.5528 18.0515 22.5823 17.7146 22.4051L12 19.3998L6.28548 22.4051C5.94856 22.5823 5.54027 22.5528 5.2323 22.3291C4.92432 22.1053 4.77007 21.7261 4.83442 21.351L5.92551 14.9894L1.3023 10.4864C1.02968 10.2208 0.931405 9.82358 1.04878 9.46157C1.16616 9.09956 1.47884 8.83555 1.8554 8.78051L8.24577 7.84647L11.1033 2.05738C11.2718 1.71607 11.6194 1.5 12 1.5ZM12 4.75925L9.80674 9.20262C9.6612 9.49747 9.38001 9.70193 9.05466 9.74949L4.14844 10.4666L7.69776 13.9236C7.93364 14.1534 8.0413 14.4845 7.98564 14.809L7.14821 19.6917L11.5346 17.3849C11.826 17.2317 12.1741 17.2317 12.4655 17.3849L16.8518 19.6917L16.0144 14.809C15.9588 14.4845 16.0664 14.1534 16.3023 13.9236L19.8516 10.4666L14.9454 9.74949C14.62 9.70193 14.3389 9.49747 14.1933 9.20262L12 4.75925Z" fill="#FFC107"/>
</svg>
