<svg width="32" height="50" viewBox="0 0 32 50" fill="none" xmlns="http://www.w3.org/2000/svg">
<path d="M17.0877 1.18854C16.5834 1.34901 15.5748 1.76164 14.8641 2.10549C14.1305 2.42643 11.9069 3.22877 9.93547 3.87064C2.11842 6.41519 1.36193 7.05706 0.55959 11.6648C0.101111 14.3469 0.238655 16.1808 1.15561 19.5506C1.54532 20.926 1.9121 22.8287 2.0038 23.7457C2.16426 25.6484 2.32473 25.5567 2.85198 23.1726C3.12707 21.9347 3.17292 20.9489 3.0583 19.115L2.92075 16.708L3.70017 15.9286C4.73174 14.92 6.15302 14.5303 10.8983 14.0259C15.7581 13.4987 19.3343 13.4758 20.3888 13.9113L21.1911 14.2552L22.3144 12.9944C23.7586 11.4126 24.6068 10.1518 25.5237 8.36372C26.9679 5.49823 26.3031 3.20584 23.621 1.69286C22.4978 1.07392 22.131 0.982223 20.1825 0.936375C18.7841 0.890527 17.6838 0.982223 17.0877 1.18854Z" fill="white"/>
<path d="M26.8762 9.46408C26.4865 9.78501 25.5008 11.0458 24.6526 12.2837L23.1396 14.5073L24.5839 14.8741C25.3862 15.0804 26.2115 15.3326 26.4178 15.4243C27.0826 15.6994 27.564 17.3728 27.7474 20.2383C27.862 21.7513 28.0683 23.5623 28.2288 24.25L28.5038 25.5108L28.8019 24.3188C28.9623 23.654 29.6271 22.1181 30.269 20.8802C31.5986 18.2898 31.8737 16.8914 31.5986 14.3239C31.1401 9.89963 28.9852 7.69894 26.8762 9.46408Z" fill="white"/>
<path d="M2.66859 31.9295C2.73736 32.8006 3.14999 34.9555 3.58554 36.6748C4.0211 38.3941 4.36496 40.0904 4.36496 40.4114C4.36496 42.4516 7.50553 45.4317 13.1448 48.7328C14.2452 49.3976 15.2997 49.9248 15.506 49.9248C15.6894 49.9248 17.2482 49.0766 18.9904 48.045C21.4891 46.555 22.5665 45.7527 24.24 44.0792C26.0051 42.337 26.349 41.8556 26.4636 41.0991C26.5324 40.5948 26.9679 38.6233 27.4035 36.7436C28.2058 33.1903 28.6872 29.6371 28.16 31.0126C28.0224 31.3794 27.3118 32.3422 26.6012 33.1445C24.9965 34.9326 23.9649 36.6289 23.5752 38.119C23.4147 38.7379 23.2772 39.2881 23.2772 39.311C23.2543 39.3569 22.5665 38.715 21.7413 37.9127C19.8615 36.0558 18.8299 35.712 15.3684 35.712C12.0903 35.712 11.1046 36.0558 9.2019 37.9127C8.37664 38.715 7.71185 39.3569 7.68892 39.311C7.68892 39.2881 7.55138 38.7379 7.39091 38.119C7.00121 36.6289 5.96963 34.9326 4.36496 33.1445C3.65432 32.3422 2.94367 31.3794 2.80613 31.0126C2.57689 30.4395 2.55397 30.577 2.66859 31.9295ZM20.2742 38.5775C20.7785 38.8296 21.3974 39.311 21.6496 39.6549C22.2227 40.4572 22.2456 42.039 21.6725 42.9101C20.916 44.0563 17.7754 45.1566 17.317 44.4231C17.2482 44.3084 17.3399 43.8958 17.5462 43.529C17.7296 43.1393 17.8901 42.635 17.8901 42.4058C17.8901 41.4888 15.2997 41.0303 13.7867 41.6722C12.9843 41.9931 12.8927 42.4745 13.4199 43.529C13.9242 44.4689 13.6721 44.744 12.48 44.5606C9.8667 44.2168 8.39957 42.5204 8.94974 40.5031C9.49991 38.5316 11.0587 37.9814 15.9415 38.0731C18.8299 38.119 19.5177 38.2107 20.2742 38.5775Z" fill="white"/>
</svg>
