<svg width="53" height="60" viewBox="0 0 53 60" fill="none" xmlns="http://www.w3.org/2000/svg">
<path d="M39.923 30.4722H13.5383C12.4601 30.4722 11.6356 29.5843 11.7624 28.5061L13.0309 15.3137C12.9675 6.94167 19.1197 0.0917969 26.7307 0.0917969C34.3416 0.0917969 40.4938 6.94167 40.4938 15.3137L41.7623 28.5061C41.8257 29.5843 40.9378 30.4722 39.923 30.4722Z" fill="#FFAC5A"/>
<path d="M38.4009 14.2988H36.6885V19.9436H38.4009C39.3523 19.9436 40.1768 19.3094 40.1768 18.4849V15.6942C40.1768 14.9331 39.4157 14.2988 38.4009 14.2988Z" fill="#448FFC"/>
<path d="M13.3489 15.7571V18.5478C13.3489 19.3089 14.11 20.0066 15.1248 20.0066H16.8372V14.3618H15.1248C14.11 14.2984 13.3489 14.9326 13.3489 15.7571Z" fill="#448FFC"/>
<path d="M49.3737 57.8711H4.15186V39.6682C4.15186 36.7507 6.24487 34.1503 9.35269 33.1989L22.3548 29.2665C25.2723 28.3786 28.3167 28.3786 31.1074 29.2665L44.1094 33.1989C47.2173 34.1503 49.3103 36.7507 49.3103 39.6682L49.3737 57.8711Z" fill="#F99653"/>
<path d="M37.3227 42.2061H29.7751V43.8551H37.3227V42.2061Z" fill="#FFD551"/>
<path d="M31.5513 21.2754H21.9741V34.5946H31.5513V21.2754Z" fill="#EDBF9A"/>
<path d="M37.6402 14.7423C37.6402 22.0996 32.7565 29.5837 26.7946 29.5837C20.8326 29.5837 15.8855 22.0362 15.8855 14.7423C15.8855 7.44847 20.7692 2.94531 26.7946 2.94531C32.8199 2.94531 37.6402 7.38504 37.6402 14.7423Z" fill="#FFD9B6"/>
<path d="M14.5534 44.6797H14.2363C13.9192 44.6797 13.6021 44.9334 13.6021 45.3139V57.8086H15.2511V45.3774C15.1877 44.9968 14.8705 44.6797 14.5534 44.6797Z" fill="#E08344"/>
<path d="M39.3527 44.6797H39.0356C38.7185 44.6797 38.4014 44.9334 38.4014 45.3139V57.8086H40.0504V45.3774C39.987 44.9968 39.7333 44.6797 39.3527 44.6797Z" fill="#E08344"/>
<path d="M31.5512 30.1558L26.7943 34.4687L21.974 30.1558L21.2764 29.585L16.2024 31.1072L23.7499 37.957L26.7943 34.5955L29.7753 37.957L37.3863 31.1072L32.2489 29.585L31.5512 30.1558Z" fill="#E08344"/>
<path d="M31.1078 24.6367C30.3467 24.6367 30.1564 24.6367 29.205 24.5733H28.2537V23.8122H29.205C33.5813 23.9391 35.0401 24.0025 36.372 22.8608C37.7674 21.7192 37.5137 18.8017 37.5137 18.7382L38.2748 18.6748C38.2748 18.8017 38.5919 22.0363 36.8794 23.4317C35.6109 24.4465 33.9619 24.6367 31.1078 24.6367Z" fill="white"/>
<path d="M30.0295 25.461H27.4291C27.0486 25.461 26.7314 25.1438 26.7314 24.7633V23.8119C26.7314 23.4314 27.0486 23.1143 27.4291 23.1143H30.0295C30.4101 23.1143 30.7272 23.4314 30.7272 23.8119V24.7633C30.7906 25.1438 30.4735 25.461 30.0295 25.461Z" fill="#448FFC"/>
<path d="M9.35275 36.624H44.1729C45.378 36.624 46.3294 37.6388 46.2025 38.8439L44.934 58.5056H8.65508L7.38658 38.8439C7.25973 37.6388 8.14768 36.624 9.35275 36.624Z" fill="#EFEEED"/>
<path d="M29.0772 53.6213C29.0772 52.6065 28.443 51.782 27.555 51.4648V53.2407C27.555 53.6213 27.3013 54.0018 26.8574 54.0018C26.4134 54.0653 25.9694 53.6847 25.9694 53.2407V51.4648C25.0181 51.782 24.3838 52.7333 24.4472 53.8116C24.5107 54.6995 25.1449 55.4606 25.9694 55.7777V58.1244H27.4916V55.7777C28.443 55.4606 29.0772 54.6361 29.0772 53.6213Z" fill="#80B2F9"/>
<path d="M33.4537 55.3981H34.9759V51.9732H33.4537C33.2634 51.3389 33.0731 50.7047 32.6926 50.1973L33.7708 49.1191L31.3607 46.6455L30.2825 47.7237C29.7116 47.4066 29.1408 47.1529 28.5066 46.9626V45.4404H25.0816V46.9626C24.4474 47.1529 23.8766 47.3432 23.3057 47.7237L22.2275 46.6455L19.8174 49.1191L20.8956 50.1973C20.5785 50.7681 20.3248 51.3389 20.1345 51.9732H18.6123V55.3981H20.1345C20.2613 55.9689 20.515 56.4763 20.7687 56.9837C20.7687 57.0472 20.8322 57.1106 20.8956 57.174L19.8174 58.2522L21.6567 60.0916H22.7983L23.3057 59.5842C23.6229 59.7744 24.0034 59.9647 24.3205 60.0916H29.2677C29.6482 59.9647 29.9653 59.7744 30.2825 59.5842L30.7899 60.0916H31.9315L33.8342 58.2522L32.756 57.174C32.8194 57.1106 32.8194 57.0472 32.8829 56.9203C33.1366 56.4763 33.3268 55.9689 33.4537 55.3981ZM27.5552 57.4277C27.3015 57.4911 27.0478 57.4911 26.7941 57.4911C26.5404 57.4911 26.2867 57.4911 26.033 57.4277C25.6525 57.3643 25.2719 57.174 24.8914 56.9837C23.7497 56.3495 22.9886 55.081 22.9886 53.6856C22.9886 51.5926 24.7011 49.8802 26.7941 49.8802C28.8871 49.8802 30.5996 51.5926 30.5996 53.6856C30.5996 55.081 29.8385 56.2861 28.6968 56.9837C28.3797 57.174 27.9357 57.3009 27.5552 57.4277Z" fill="#80B2F9"/>
<path d="M52.9889 58.5055C52.9889 58.9495 52.7986 59.3301 52.5449 59.6472C52.2912 59.9643 51.8473 60.0912 51.4033 60.0912H2.18572C1.29777 60.0912 0.600098 59.3935 0.600098 58.5055C0.600098 58.0616 0.790371 57.681 1.04407 57.3639C1.29777 57.0468 1.74174 56.9199 2.18572 56.9199H51.4033C52.2913 56.9833 52.9889 57.681 52.9889 58.5055Z" fill="#448FFC"/>
<path d="M36.2448 5.29217C35.4837 7.00464 34.4055 8.52684 33.137 9.85876C29.9657 13.2203 25.4626 15.3133 20.452 15.3133C18.7395 15.3133 17.0905 15.0596 15.5049 14.6156C15.7586 6.87779 20.896 2.12094 27.3653 1.93066C27.4922 1.93066 27.619 1.93066 27.7459 1.93066C31.1074 1.93066 34.0249 3.13573 36.2448 5.29217Z" fill="#FFAC5A"/>
<path d="M37.6401 13.0308C35.1665 12.46 32.8832 11.3817 30.9805 9.85955C32.249 8.52763 33.3272 7.00544 34.0883 5.29297C35.9276 7.19571 37.2595 9.79612 37.6401 13.0308Z" fill="#FFAC5A"/>
</svg>
