<svg width="15" height="18" viewBox="0 0 15 18" fill="none" xmlns="http://www.w3.org/2000/svg">
<g clip-path="url(#clip0_54_6252)">
<path d="M9.21439 14.625H9.98582C10.0881 14.625 10.1862 14.5806 10.2586 14.5014C10.3309 14.4223 10.3715 14.315 10.3715 14.2031V6.60938C10.3715 6.49749 10.3309 6.39018 10.2586 6.31106C10.1862 6.23195 10.0881 6.1875 9.98582 6.1875H9.21439C9.11209 6.1875 9.01398 6.23195 8.94164 6.31106C8.86931 6.39018 8.82867 6.49749 8.82867 6.60938V14.2031C8.82867 14.315 8.86931 14.4223 8.94164 14.5014C9.01398 14.5806 9.11209 14.625 9.21439 14.625ZM14.4858 2.8125H11.8369L10.7441 0.819141C10.6069 0.569185 10.4129 0.362352 10.1809 0.218797C9.94896 0.0752423 9.68695 -0.000138635 9.42042 1.91407e-07H6.17978C5.91336 -1.71833e-05 5.65148 0.0754214 5.41963 0.218971C5.18778 0.36252 4.99387 0.569287 4.85678 0.819141L3.76328 2.8125H1.11438C0.977986 2.8125 0.847176 2.87176 0.750729 2.97725C0.654281 3.08274 0.600098 3.22582 0.600098 3.375L0.600098 3.9375C0.600098 4.08668 0.654281 4.22976 0.750729 4.33525C0.847176 4.44074 0.977986 4.5 1.11438 4.5H1.62867V16.3125C1.62867 16.7601 1.79122 17.1893 2.08056 17.5057C2.3699 17.8222 2.76234 18 3.17153 18H12.4287C12.8379 18 13.2303 17.8222 13.5196 17.5057C13.809 17.1893 13.9715 16.7601 13.9715 16.3125V4.5H14.4858C14.6222 4.5 14.753 4.44074 14.8495 4.33525C14.9459 4.22976 15.0001 4.08668 15.0001 3.9375V3.375C15.0001 3.22582 14.9459 3.08274 14.8495 2.97725C14.753 2.87176 14.6222 2.8125 14.4858 2.8125ZM6.12353 1.7898C6.14072 1.75851 6.16504 1.73264 6.19411 1.7147C6.22318 1.69677 6.25601 1.6874 6.28938 1.6875H9.31081C9.34414 1.68746 9.3769 1.69686 9.40591 1.71479C9.43492 1.73272 9.45919 1.75856 9.47635 1.7898L10.0376 2.8125H5.56263L6.12353 1.7898ZM12.4287 16.3125H3.17153V4.5H12.4287V16.3125ZM5.61438 14.625H6.38581C6.48811 14.625 6.58622 14.5806 6.65855 14.5014C6.73089 14.4223 6.77153 14.315 6.77153 14.2031V6.60938C6.77153 6.49749 6.73089 6.39018 6.65855 6.31106C6.58622 6.23195 6.48811 6.1875 6.38581 6.1875H5.61438C5.51209 6.1875 5.41398 6.23195 5.34164 6.31106C5.26931 6.39018 5.22867 6.49749 5.22867 6.60938V14.2031C5.22867 14.315 5.26931 14.4223 5.34164 14.5014C5.41398 14.5806 5.51209 14.625 5.61438 14.625Z" fill="#FF0101"/>
</g>
<defs>
<clipPath id="clip0_54_6252">
<rect width="14.4" height="18" fill="white" transform="translate(0.600098)"/>
</clipPath>
</defs>
</svg>
