<svg width="25" height="24" viewBox="0 0 25 24" fill="none" xmlns="http://www.w3.org/2000/svg">
<path d="M24.4983 12.0004C24.4983 18.0612 20.0059 23.0717 14.1698 23.8848C13.6242 23.9605 13.0659 24 12.4992 24C11.845 24 11.2026 23.9479 10.5771 23.847C4.86379 22.9271 0.5 17.9729 0.5 12.0004C0.5 5.37295 5.87276 0 12.5 0C19.1272 0 24.5 5.37295 24.5 12.0004H24.4983Z" fill="#1C1C1B"/>
<path d="M5.36651 5.29199L10.9007 12.6914L5.33203 18.7075H6.58568L11.4615 13.4405L15.4007 18.7075H19.6661L13.8208 10.892L19.0044 5.29199H17.7508L13.2608 10.1428L9.63276 5.29199H5.36734H5.36651ZM7.20955 6.21523H9.16864L17.8214 17.7843H15.8623L7.20955 6.21523Z" fill="white"/>
</svg>
