<svg width="46" height="41" viewBox="0 0 46 41" fill="none" xmlns="http://www.w3.org/2000/svg">
<path d="M24.0731 10.5514L24.1656 10.579L24.1712 10.5725C24.4771 10.6136 24.7743 10.4266 24.8643 10.123C25.6363 7.52899 28.0689 5.71651 30.7787 5.71651C31.13 5.71651 31.4148 5.43163 31.4148 5.08037C31.4148 4.72911 31.13 4.44424 30.7787 4.44424C27.398 4.44424 24.5572 6.69515 23.6451 9.76038C23.5447 10.0972 23.7365 10.4511 24.0731 10.5514Z" fill="#333333" stroke="#E1E1E1" stroke-width="0.3"/>
<path d="M37.5842 28.9008H34.6674C34.399 28.9008 34.1813 28.6831 34.1813 28.4146C34.1813 28.1462 34.399 27.9285 34.6674 27.9285H37.5842C41.6048 27.9285 44.8761 24.6572 44.8761 20.6366C44.8761 16.6159 41.6048 13.3446 37.5842 13.3446H37.514C37.3731 13.3446 37.239 13.2835 37.1467 13.1769C37.0543 13.0703 37.0126 12.929 37.0328 12.7894C37.0762 12.4866 37.098 12.1824 37.098 11.8862C37.098 8.40174 34.2628 5.56651 30.7783 5.56651C29.4227 5.56651 28.1299 5.99014 27.0396 6.7919C26.8 6.96795 26.4597 6.88982 26.3212 6.62627C23.2332 0.746205 15.1678 -0.0434277 10.9863 5.07171C9.22483 7.22664 8.53271 10.0299 9.08731 12.762C9.14843 13.0637 8.91751 13.345 8.6109 13.345H8.4161C4.39549 13.345 1.12416 16.6163 1.12416 20.6369C1.12416 24.6575 4.39549 27.9289 8.4161 27.9289H11.3328C11.6013 27.9289 11.819 28.1466 11.819 28.415C11.819 28.6834 11.6013 28.9011 11.3328 28.9011H8.4161C3.8593 28.9011 0.151855 25.1937 0.151855 20.6369C0.151855 16.2079 3.65404 12.5814 8.03449 12.3814C7.62301 9.54685 8.40985 6.68771 10.2335 4.45642C14.7104 -1.02052 23.29 -0.406625 26.9169 5.70056C28.0739 4.97518 29.3978 4.59464 30.7782 4.59464C34.9998 4.59464 38.3451 8.18786 38.0524 12.3859C42.3925 12.6293 45.8482 16.2367 45.8482 20.6365C45.8482 25.1937 42.1408 28.9008 37.584 28.9008L37.5842 28.9008Z" fill="#333333"/>
<path d="M10.6315 28.1402C10.6315 34.9245 16.1507 40.4436 22.9349 40.4436C29.7191 40.4436 35.2383 34.9244 35.2383 28.1402C35.2383 21.3559 29.7191 15.8368 22.9349 15.8368C16.1506 15.8368 10.6315 21.356 10.6315 28.1402ZM11.904 28.1402C11.904 22.058 16.8526 17.1093 22.9349 17.1093C29.0171 17.1093 33.9658 22.0579 33.9658 28.1402C33.9658 34.2224 29.0171 39.1711 22.9349 39.1711C16.8527 39.1711 11.904 34.2225 11.904 28.1402Z" fill="#333333" stroke="#E1E1E1" stroke-width="0.3"/>
<path d="M22.6511 33.0328C22.6511 33.3121 22.8777 33.5387 23.1571 33.5387C23.4363 33.5387 23.663 33.3125 23.663 33.0328V23.7792C23.663 23.4999 23.4364 23.2733 23.1571 23.2733C22.8777 23.2733 22.6511 23.4999 22.6511 23.7792V33.0328Z" fill="#333333" stroke="#FF0080" stroke-width="0.3"/>
<path d="M23.157 24.4957L20.6677 26.9851L20.6676 26.9852L20.5615 26.8791L23.157 24.4957ZM23.157 24.4957L25.6465 26.9852C25.7452 27.0839 25.8751 27.1334 26.0042 27.1334L23.157 24.4957ZM23.5148 23.4225C23.3172 23.225 22.9967 23.2248 22.7992 23.4226L26.0042 27.1334C26.1331 27.1334 26.2632 27.0843 26.362 26.9851C26.5596 26.7875 26.5595 26.4673 26.3619 26.2697L23.5148 23.4225Z" fill="#333333" stroke="#FF0080" stroke-width="0.3"/>
</svg>
