<svg width="16" height="17" viewBox="0 0 16 17" fill="none" xmlns="http://www.w3.org/2000/svg">
<g clip-path="url(#clip0_16414_36692)">
<path d="M13.5304 13.6146C13.3465 13.6146 13.1888 13.457 13.1888 13.2731V10.6196C13.1888 9.93647 12.6371 9.38475 11.954 9.38475H9.56322C9.37932 9.38475 9.22168 9.22711 9.22168 9.0432C9.22168 8.8593 9.37932 8.70166 9.56322 8.70166H11.954C13.0049 8.70166 13.8719 9.56866 13.8719 10.6196V13.2731C13.8719 13.457 13.7406 13.6146 13.5304 13.6146Z" fill="#4A555B"/>
<path d="M8.77482 15.2701C8.77482 15.4802 8.59091 15.6642 8.38073 15.6642H3.99321C3.78303 15.6642 3.59912 15.4802 3.59912 15.2701C3.59912 15.0599 3.78303 14.876 3.99321 14.876H8.407C8.59091 14.876 8.77482 15.0599 8.77482 15.2701Z" fill="#6FA4AD"/>
<path d="M10.1413 15.1911C10.1413 15.2962 10.0625 15.4013 9.93117 15.4013H2.41721C2.31212 15.4013 2.20703 15.3225 2.20703 15.1911C2.20703 15.086 2.28585 14.981 2.41721 14.981H9.95744C10.0625 14.981 10.1413 15.0598 10.1413 15.1911Z" fill="#80AFBA"/>
<path d="M3.38934 15.5588C3.38934 16.0054 3.0478 16.3469 2.60117 16.3469C2.15453 16.3469 1.81299 16.0054 1.81299 15.5588V14.9019C1.81299 14.4553 2.15453 14.1138 2.60117 14.1138C3.0478 14.1138 3.38934 14.4553 3.38934 14.9019V15.5588Z" fill="#185B6B"/>
<path d="M2.60107 14.1138C3.04771 14.1138 3.38925 14.4553 3.38925 14.9019V15.5588C3.38925 16.0054 3.04771 16.3469 2.60107 16.3469" fill="#0D4049"/>
<path d="M8.98511 14.9019C8.98511 14.4553 9.32665 14.1138 9.77328 14.1138C10.2199 14.1138 10.5615 14.4553 10.5615 14.9019V15.5588C10.5615 16.0054 10.2199 16.3469 9.77328 16.3469C9.32665 16.3469 8.98511 16.0054 8.98511 15.5588V14.9019Z" fill="#185B6B"/>
<path d="M9.77328 16.3469C9.32665 16.3469 8.98511 16.0054 8.98511 15.5588V14.9019C8.98511 14.4553 9.32665 14.1138 9.77328 14.1138" fill="#0D4049"/>
<path d="M10.1938 11.1451C10.1938 13.352 10.5091 15.1386 8.30221 15.1386H4.0986C1.8917 15.1386 2.20698 13.352 2.20698 11.1451V8.25515C2.20698 6.04825 3.99351 4.26172 6.20041 4.26172C8.4073 4.26172 10.1938 6.04825 10.1938 8.25515V11.1451Z" fill="#FF008A"/>
<path d="M3.20508 15.0071C3.44153 15.0859 3.73053 15.1385 4.09835 15.1385H8.30196C8.66977 15.1385 8.95877 15.0859 9.19523 15.0071V8.30762H3.20508V15.0071Z" fill="#FF008A"/>
<path d="M10.1937 12.2485C9.95725 12.3274 9.69453 12.3799 9.4318 12.3799C9.30044 12.3799 3.54674 12.3799 2.1543 12.3799C2.1543 12.6164 2.1543 12.8528 2.1543 13.063H9.30044C9.40553 13.063 9.45807 13.063 9.45807 13.063C9.7208 13.063 9.95725 13.0104 10.1937 12.9579C10.1937 12.7477 10.1937 12.485 10.1937 12.2485Z" fill="#FF008A"/>
<path d="M6.51561 5.02362C6.51561 4.7609 6.54188 4.52444 6.6207 4.28799C6.48933 4.26172 6.3317 4.26172 6.17406 4.26172C6.09525 4.26172 5.99015 4.26172 5.91134 4.26172C5.85879 4.49817 5.83252 4.7609 5.83252 5.02362V6.46862H6.51561V5.02362Z" fill="#FF008A"/>
<path d="M6.1741 4.26172C3.9672 4.26172 2.18066 6.04825 2.18066 8.25515V8.41279C2.54848 8.64924 2.99511 8.7806 3.46802 8.7806H8.88017C9.35308 8.7806 9.79971 8.64924 10.1675 8.41279V8.25515C10.1938 6.04825 8.38099 4.26172 6.1741 4.26172Z" fill="#203066"/>
<path d="M6.17427 4.26172C4.5191 4.26172 3.1792 6.20589 3.1792 8.57042V8.72806C3.4682 8.96451 3.78347 9.12215 4.15128 9.12215H8.19726C8.53881 9.12215 8.88035 8.99078 9.16935 8.72806V8.57042C9.16935 6.17962 7.82945 4.26172 6.17427 4.26172Z" fill="white" fill-opacity="0.7"/>
<path d="M7.01455 8.20264H5.35938V9.12218H7.01455V8.20264Z" fill="white"/>
<path d="M7.43525 5.49647C7.43525 5.89056 6.85726 6.36346 6.17417 6.36346C5.49108 6.36346 4.91309 5.89056 4.91309 5.49647C4.91309 5.10238 5.49108 4.78711 6.17417 4.78711C6.85726 4.78711 7.43525 5.10238 7.43525 5.49647Z" fill="#2CAFFF"/>
<path d="M6.17417 6.20583C6.87065 6.20583 7.43525 5.88824 7.43525 5.49647C7.43525 5.1047 6.87065 4.78711 6.17417 4.78711C5.47769 4.78711 4.91309 5.1047 4.91309 5.49647C4.91309 5.88824 5.47769 6.20583 6.17417 6.20583Z" fill="#1B4B68"/>
<path d="M7.43525 5.49658C7.43525 5.89067 6.85726 6.20594 6.17417 6.20594C5.49108 6.20594 4.91309 5.89067 4.91309 5.49658" fill="#0F3D54"/>
<path d="M7.04112 8.22892C7.04112 8.30774 6.9623 8.38656 6.88348 8.38656H5.46476C5.38595 8.38656 5.30713 8.30774 5.30713 8.22892C5.30713 8.15011 5.38595 8.07129 5.46476 8.07129H6.88348C6.98857 8.09756 7.04112 8.15011 7.04112 8.22892Z" fill="#FF008A"/>
<path d="M4.17742 13.7985C4.17742 13.8511 4.15114 13.8774 4.0986 13.8774H3.62569C3.57315 13.8774 3.54688 13.8248 3.54688 13.7985C3.54688 13.746 3.59942 13.7197 3.62569 13.7197H4.0986C4.12487 13.7197 4.17742 13.746 4.17742 13.7985Z" fill="#FF008A"/>
<path d="M4.17742 14.245C4.17742 14.2975 4.15114 14.3238 4.0986 14.3238H3.62569C3.57315 14.3238 3.54688 14.2975 3.54688 14.245C3.54688 14.1924 3.59942 14.1662 3.62569 14.1662H4.0986C4.12487 14.1399 4.17742 14.1924 4.17742 14.245Z" fill="#FF008A"/>
<path d="M4.17742 14.6657C4.17742 14.7183 4.15114 14.7445 4.0986 14.7445H3.62569C3.57315 14.7445 3.54688 14.692 3.54688 14.6657C3.54688 14.6132 3.59942 14.5869 3.62569 14.5869H4.0986C4.12487 14.5869 4.17742 14.6395 4.17742 14.6657Z" fill="#FF008A"/>
<path d="M9.30049 1.10889C7.38259 1.10889 5.83251 2.68524 5.83251 4.57687V6.02186H6.5156V4.57687C6.5156 3.05306 7.75041 1.79197 9.30049 1.79197C10.8243 1.79197 12.0854 3.02678 12.0854 4.57687V9.17457C12.0854 10.6721 10.9294 11.8806 9.43186 11.9595C9.30049 11.9595 2.3908 11.9595 1.89163 11.9595C1.86535 11.9595 1.86535 11.9595 1.86535 11.9595C1.20854 11.9595 0.683087 11.434 0.683087 10.7772V10.5407C0.683087 9.88393 1.20854 9.35848 1.86535 9.35848H2.2069V8.67539H1.86535C0.840722 8.67539 0 9.51611 0 10.5407V10.7772C0 11.8018 0.840722 12.6425 1.86535 12.6425H2.2069H9.30049C9.40558 12.6425 9.45813 12.6425 9.45813 12.6425C11.3235 12.5637 12.7685 11.0399 12.7685 9.17457V4.57687C12.7685 2.68524 11.2184 1.10889 9.30049 1.10889Z" fill="#626262"/>
<path d="M9.30049 1.73975C7.38259 1.73975 5.83251 3.28983 5.83251 5.20773V6.04845H6.5156V5.20773V4.60346C6.5156 3.07965 7.75041 1.81856 9.30049 1.81856C10.8243 1.81856 12.0854 3.05337 12.0854 4.60346V5.20773V9.17489V9.77915C12.0854 11.2767 10.9294 12.4852 9.43186 12.564C9.30049 12.564 2.3908 12.564 1.89163 12.564C1.86535 12.564 1.86535 12.564 1.86535 12.564C1.20854 12.564 0.683087 12.0386 0.683087 11.3818V11.1453C0.683087 11.0928 0.683087 11.014 0.70936 10.9614C0.70936 10.9089 0.683087 10.8301 0.683087 10.7775V10.5411C0.683087 9.88424 1.20854 9.35879 1.86535 9.35879H2.2069V9.27998H1.86535C0.893268 9.27998 0.10509 10.0156 0 10.9614C0.10509 11.9072 0.893268 12.6429 1.86535 12.6429H2.2069H9.30049C9.40558 12.6429 9.45813 12.6429 9.45813 12.6429C11.3235 12.564 12.7685 11.0402 12.7685 9.17489V5.20773C12.7685 3.28983 11.2184 1.73975 9.30049 1.73975Z" fill="#203066" fill-opacity="0.6"/>
<path d="M14.3973 13.1683C14.3973 13.4048 14.1871 13.6149 13.9506 13.6149H13.1625C12.926 13.6149 12.7158 13.4048 12.7158 13.1683C12.7158 12.9319 12.926 12.7217 13.1625 12.7217H13.9506C14.1871 12.7217 14.3973 12.9319 14.3973 13.1683Z" fill="#FF008A"/>
<path d="M15.8686 13.7987C15.8686 14.0877 15.6321 14.3242 15.3432 14.3242H11.7701C11.4811 14.3242 11.2446 14.0877 11.2446 13.7987V13.7462C11.2446 13.4572 11.4811 13.2207 11.7701 13.2207H15.3432C15.6321 13.2207 15.8686 13.4572 15.8686 13.7462V13.7987Z" fill="#203066"/>
<path d="M15.8686 13.7988C15.8686 14.0878 15.6321 14.3243 15.3432 14.3243H11.7701C11.4811 14.3243 11.2446 14.0878 11.2446 13.7988V13.7463C11.2446 13.4573 11.4811 13.4835 11.7701 13.4835H15.3432C15.6321 13.4835 15.8686 13.4573 15.8686 13.7463V13.7988Z" fill="#203066" fill-opacity="0.7"/>
<path d="M0.73584 9.04311V9.59483C0.73584 9.7262 0.788385 9.83129 0.867203 9.93638C1.07738 9.59483 1.4452 9.35838 1.86556 9.35838H2.2071V8.67529H1.86556C1.4452 8.67529 1.05111 8.80666 0.73584 9.04311Z" fill="#4A555B"/>
<path d="M15.9737 14.3766C15.9737 14.4554 15.9212 14.508 15.8423 14.508H11.2446C11.1658 14.508 11.1133 14.4554 11.1133 14.3766V14.0088C11.1133 13.93 11.1658 13.8774 11.2446 13.8774H15.8686C15.9474 13.8774 16 13.93 16 14.0088V14.3766H15.9737Z" fill="#185B6B"/>
<path d="M15.8686 13.8774C15.9474 13.8774 16 13.93 16 14.0088V14.3766C16 14.4554 15.9474 14.508 15.8686 14.508H11.2446C11.1658 14.508 11.1133 14.4554 11.1133 14.3766" fill="#0D4049"/>
</g>
<defs>
<clipPath id="clip0_16414_36692">
<rect width="16" height="16" fill="white" transform="translate(0 0.728027)"/>
</clipPath>
</defs>
</svg>
