<svg width="25" height="8" viewBox="0 0 25 8" fill="none" xmlns="http://www.w3.org/2000/svg">
<path d="M22.958 0.271851H21.4388C20.9794 0.271851 20.6261 0.418049 20.4141 0.893196L17.517 7.72799H19.5662C19.5662 7.72799 19.9195 6.81425 19.9902 6.59495C20.2022 6.59495 22.216 6.59495 22.4987 6.59495C22.5694 6.8508 22.746 7.69144 22.746 7.69144H24.5832L22.958 0.271851ZM20.5555 5.05986C20.7321 4.62127 21.3328 2.97653 21.3328 2.97653C21.3328 3.01308 21.5094 2.53793 21.5801 2.28208L21.7214 2.93998C21.7214 2.93998 22.11 4.73092 22.1807 5.09641H20.5555V5.05986Z" fill="#3362AB"/>
<path d="M17.6583 5.27919C17.6583 6.81428 16.3157 7.83767 14.2312 7.83767C13.3479 7.83767 12.5 7.65492 12.0406 7.43562L12.3233 5.75434L12.5706 5.86399C13.2066 6.15638 13.6306 6.26603 14.4079 6.26603C14.9732 6.26603 15.5738 6.04673 15.5738 5.53504C15.5738 5.20609 15.3265 4.98679 14.5492 4.6213C13.8072 4.2558 12.8179 3.671 12.8179 2.61106C12.8179 1.14907 14.1959 0.162231 16.1391 0.162231C16.881 0.162231 17.517 0.30843 17.9057 0.491179L17.623 2.09937L17.4817 1.95317C17.1284 1.80697 16.6691 1.66077 15.9978 1.66077C15.2558 1.69732 14.9025 2.02627 14.9025 2.31866C14.9025 2.64761 15.3265 2.90346 15.9978 3.23241C17.1284 3.78065 17.6583 4.402 17.6583 5.27919Z" fill="#3362AB"/>
<path d="M0.416626 0.345051L0.451957 0.198853H3.49046C3.91443 0.198853 4.23242 0.345051 4.33841 0.820197L5.00971 4.10967C4.33841 2.35528 2.78383 0.929847 0.416626 0.345051Z" fill="#F9B50B"/>
<path d="M9.28481 0.271901L6.21098 7.69149H4.12643L2.35986 1.47804C3.63179 2.31869 4.69173 3.63447 5.08038 4.54822L5.29237 5.31576L7.20026 0.235352H9.28481V0.271901Z" fill="#3362AB"/>
<path d="M10.0974 0.235352H12.0407L10.8041 7.69149H8.86084L10.0974 0.235352Z" fill="#3362AB"/>
</svg>
