<svg width="16" height="17" viewBox="0 0 16 17" fill="none" xmlns="http://www.w3.org/2000/svg">
<g clip-path="url(#clip0_16414_36067)">
<path d="M4.13794 0.594727H3.67172C1.64709 0.594727 0 2.24182 0 4.26791C0 5.24863 0.381875 6.17066 1.07541 6.8641L1.85559 6.08391C1.37056 5.59888 1.10344 4.95398 1.10344 4.26645C1.10344 2.85023 2.2555 1.69816 3.67172 1.69816H4.13794C8.54919 1.69816 12.1379 5.28691 12.1379 9.69816V10.5258H13.2414V9.69816C13.2414 4.67851 9.15759 0.594727 4.13794 0.594727Z" fill="#203066"/>
<path d="M0.731141 6.67316L1.66036 8.29488L3.34467 6.61057L1.72295 5.68135C1.66892 5.65038 1.60089 5.65947 1.55686 5.70347L0.753266 6.50707C0.709266 6.5511 0.700203 6.61913 0.731141 6.67316Z" fill="#626262"/>
<path d="M5.51729 16.0428H1.37935C0.922289 16.0428 0.551758 15.6723 0.551758 15.2153V10.5256C0.551758 7.93556 2.65138 5.83594 5.24141 5.83594H6.62073C7.07779 5.83594 7.44832 6.20647 7.44832 6.66353V14.1118C7.44832 15.1783 6.58376 16.0428 5.51729 16.0428Z" fill="#FF008A" fill-opacity="0.42"/>
<path d="M1.6552 15.2152V12.7324H0.551758V15.2152C0.551758 15.6722 0.922289 16.0428 1.37935 16.0428H2.48279C2.0257 16.0428 1.6552 15.6722 1.6552 15.2152Z" fill="#F4F5F5"/>
<path d="M4.41396 15.4912H1.70605C1.82005 15.8119 2.12315 16.0429 2.48296 16.0429H4.41399V15.4912H4.41396Z" fill="#F4F5F5"/>
<path d="M13.2411 14.6641H12.1377C11.9853 14.6641 11.8618 14.7876 11.8618 14.9399V15.4917H13.517V14.9399C13.517 14.7876 13.3935 14.6641 13.2411 14.6641Z" fill="#203066"/>
<path d="M6.6206 5.83594H6.34473V13.0083H7.44816V6.66353C7.4482 6.20644 7.07766 5.83594 6.6206 5.83594Z" fill="#FF008A"/>
<path d="M5.24154 16.319C6.61272 16.319 7.72429 15.2075 7.72429 13.8363C7.72429 12.4651 6.61272 11.3535 5.24154 11.3535C3.87035 11.3535 2.75879 12.4651 2.75879 13.8363C2.75879 15.2075 3.87035 16.319 5.24154 16.319Z" fill="#626262"/>
<path d="M5.24113 15.491C6.15526 15.491 6.89631 14.75 6.89631 13.8359C6.89631 12.9217 6.15526 12.1807 5.24113 12.1807C4.32699 12.1807 3.58594 12.9217 3.58594 13.8359C3.58594 14.75 4.32699 15.491 5.24113 15.491Z" fill="#F4F5F5"/>
<path d="M13.2416 10.25H12.1382V14.6638H13.2416V10.25Z" fill="#D7DEED"/>
<path d="M1.98726 8.81476C2.31273 8.14235 2.85766 7.59745 3.53004 7.27198C3.82498 7.12923 4.14323 7.02738 4.47804 6.97663C4.75466 6.9347 4.96551 6.70907 4.96551 6.42926V5.84473C2.50395 5.9876 0.551758 8.02873 0.551758 10.5261V13.2847H1.10348C1.40816 13.2847 1.6552 13.0377 1.6552 12.733V10.2503C1.65523 9.73548 1.77673 9.24973 1.98726 8.81476Z" fill="#F4F5F5"/>
<path d="M11.8623 15.2158H15.1726C15.6297 15.2158 16.0002 15.5864 16.0002 16.0434C16.0002 16.1958 15.8767 16.3193 15.7244 16.3193H11.8623C11.71 16.3193 11.5864 16.1958 11.5864 16.0434V15.4917C11.5865 15.3393 11.71 15.2158 11.8623 15.2158Z" fill="#626262"/>
<path d="M1.70598 15.4912H0.602539C0.716539 15.8119 1.01963 16.0429 1.37945 16.0429H2.48288C2.12304 16.043 1.81998 15.8119 1.70598 15.4912Z" fill="#626262"/>
</g>
<defs>
<clipPath id="clip0_16414_36067">
<rect width="16" height="16" fill="white" transform="translate(0 0.274414)"/>
</clipPath>
</defs>
</svg>
