<svg width="40" height="40" viewBox="0 0 40 40" fill="none" xmlns="http://www.w3.org/2000/svg">
<path d="M5.11539 0.1875C4.64664 0.40625 4.35758 0.703125 4.14664 1.17188C3.99821 1.49219 3.98258 1.67969 3.98258 3.41406V5.3125H3.40446C1.99821 5.3125 0.88883 6.00781 0.279455 7.26562L0.0372677 7.77344L0.0138302 22.5391C-0.00179485 36.1094 0.00601766 37.3281 0.123205 37.6953C0.459143 38.7031 1.27946 39.5234 2.29508 39.8672C2.65446 39.9922 4.05289 40 19.9982 40C35.9123 40 37.342 39.9922 37.7013 39.8672C38.717 39.5312 39.5373 38.7109 39.8732 37.6953C39.9904 37.3281 39.9982 36.1328 39.9826 22.5391L39.9591 7.77344L39.717 7.26562C39.1076 6.00781 37.9982 5.3125 36.592 5.3125H36.0138V3.41406C36.0138 1.67969 35.9982 1.49219 35.8498 1.17188C35.6388 0.703125 35.3498 0.40625 34.881 0.1875C34.5216 0.015625 34.3888 0 33.3107 0C32.2013 0 32.1154 0.0078125 31.7248 0.203125C31.2482 0.445312 30.8341 0.953125 30.7091 1.46094C30.6623 1.64062 30.6232 2.57031 30.6232 3.54688V5.3125H19.9982H9.37321V3.54688C9.37321 2.57031 9.33414 1.64062 9.28727 1.46094C9.16227 0.953125 8.74821 0.445312 8.27164 0.203125C7.88102 0.0078125 7.79508 0 6.68571 0C5.60758 0 5.47477 0.015625 5.11539 0.1875ZM7.61539 1.45312C7.95133 1.58594 7.96696 1.76562 7.96696 5.39062V8.84375L7.74039 9.07031C7.51383 9.28906 7.49039 9.29688 6.71696 9.29688C5.92789 9.29688 5.67789 9.23438 5.49039 8.99219C5.42008 8.89844 5.39664 7.99219 5.38883 5.34375C5.38883 1.03125 5.27164 1.40625 6.59977 1.40625C7.08414 1.40625 7.54508 1.42969 7.61539 1.45312ZM34.4435 1.60938C34.6076 1.8125 34.6076 1.89062 34.6076 5.34375C34.5998 7.99219 34.5763 8.89844 34.506 8.99219C34.3185 9.23438 34.0685 9.29688 33.2795 9.29688C32.506 9.29688 32.4826 9.28906 32.256 9.07031L32.0295 8.84375V5.39062C32.0295 2.5 32.0451 1.90625 32.1466 1.71875C32.2091 1.60156 32.3029 1.48438 32.3576 1.46094C32.4123 1.4375 32.8732 1.41406 33.3732 1.41406C34.2638 1.40625 34.2873 1.40625 34.4435 1.60938ZM3.99821 8.02344C4.02164 9.46875 4.06071 9.60938 4.56071 10.1016C5.06071 10.6016 5.28727 10.6641 6.67789 10.6641C8.06852 10.6641 8.20914 10.625 8.77164 10.0938C9.24821 9.63281 9.37321 9.17188 9.37321 7.85156V6.71875H19.9982H30.6232V7.85156C30.6232 9.17188 30.7482 9.63281 31.2248 10.0938C31.7873 10.625 31.9279 10.6641 33.3185 10.6641C34.7091 10.6641 34.9357 10.6016 35.4357 10.1016C35.9357 9.60938 35.9748 9.46875 35.9982 8.02344L36.0295 6.71875H36.5451C37.4279 6.71875 38.0841 7.13281 38.4279 7.89062C38.5841 8.22656 38.592 8.39062 38.592 12.0859V15.9375H19.9982H1.40446V12.0859C1.40446 8.39062 1.41227 8.22656 1.56852 7.89062C1.91227 7.13281 2.56852 6.71875 3.45133 6.71875H3.96696L3.99821 8.02344ZM38.592 27.1641C38.592 33.9844 38.5685 37.0859 38.506 37.2969C38.3966 37.7031 37.7013 38.3984 37.2951 38.5078C36.8654 38.625 3.13102 38.625 2.70133 38.5078C2.29508 38.3984 1.59977 37.7031 1.49039 37.2969C1.42789 37.0859 1.40446 33.9844 1.40446 27.1641V17.3438H19.9982H38.592V27.1641Z" fill="white"/>
<path d="M12.4453 8.67969C11.9766 8.8125 11.9531 8.96094 11.9531 11.3281C11.9531 13.6797 11.9766 13.8203 12.4297 13.9766C12.7812 14.1016 27.2188 14.1016 27.5703 13.9766C28.0234 13.8203 28.0469 13.6797 28.0469 11.3281C28.0469 8.92188 28.0234 8.82031 27.5156 8.67969C27.1406 8.57031 12.8047 8.57812 12.4453 8.67969ZM26.6406 11.3281V12.6562H20H13.3594V11.3281V10H20H26.6406V11.3281Z" fill="white"/>
<path d="M4.33594 19.3906C4 19.586 3.99219 19.6485 3.98438 21.6875V23.6485L4.1875 23.836L4.39062 24.0235L6.52344 24.0469C8.875 24.0703 9.14844 24.0313 9.29688 23.6328C9.34375 23.5156 9.375 22.6172 9.375 21.5938V19.75L9.14844 19.5235L8.92188 19.2969H6.70312C5.1875 19.3047 4.44531 19.3281 4.33594 19.3906ZM7.96875 21.6797V22.6563H6.67969H5.39062V21.6797V20.7031H6.67969H7.96875V21.6797Z" fill="white"/>
<path d="M13.0078 19.3906C12.6719 19.5859 12.6641 19.6484 12.6562 21.6875V23.6484L12.8594 23.8359C13.0625 24.0234 13.0625 24.0234 15.1406 24.0469C16.5078 24.0625 17.3281 24.0391 17.5156 23.9844C18.0312 23.8359 18.0547 23.7031 18.0312 21.5547L18.0078 19.6719L17.7891 19.4844L17.5703 19.2969H15.3672C13.8594 19.3047 13.1172 19.3281 13.0078 19.3906ZM16.6406 21.6797V22.6563H15.3516H14.0625V21.6797V20.7031H15.3516H16.6406V21.6797Z" fill="white"/>
<path d="M22.209 19.4844L21.9903 19.6719L21.9668 21.5547C21.9434 23.7031 21.9668 23.8359 22.4824 23.9844C22.6699 24.0391 23.4903 24.0625 24.8574 24.0469C26.9356 24.0234 26.9356 24.0234 27.1387 23.8359L27.3418 23.6484V21.6875C27.334 20.2656 27.3106 19.6953 27.2403 19.6016C27.0215 19.3203 26.8418 19.2969 24.6153 19.2969H22.4278L22.209 19.4844ZM25.9356 21.6797V22.6563H24.6465H23.3574V21.6797V20.7031H24.6465H25.9356V21.6797Z" fill="white"/>
<path d="M30.8516 19.5235L30.625 19.75V21.5938C30.625 22.6172 30.6562 23.5156 30.7031 23.6328C30.8516 24.0313 31.125 24.0703 33.4766 24.0469L35.6094 24.0235L35.8125 23.836L36.0156 23.6485V21.6875C36.0078 20.2656 35.9844 19.6953 35.9141 19.6016C35.6953 19.3203 35.5156 19.2969 33.2812 19.2969H31.0781L30.8516 19.5235ZM34.6094 21.6797V22.6563H33.3203H32.0312V21.6797V20.7031H33.3203H34.6094V21.6797Z" fill="white"/>
<path d="M4.45312 25.9922C4.39062 26.0156 4.25781 26.1094 4.16406 26.1953C3.98438 26.3516 3.98438 26.3828 3.98438 28.3125C3.99219 29.7344 4.01562 30.3047 4.08594 30.3984C4.30469 30.6797 4.48438 30.7031 6.71875 30.7031H8.92188L9.14844 30.4766L9.375 30.25V28.4062C9.375 27.3828 9.34375 26.4844 9.29688 26.3672C9.14844 25.9766 8.875 25.9375 6.625 25.9453C5.49219 25.9453 4.51562 25.9688 4.45312 25.9922ZM7.96875 28.3203V29.2969H6.67969H5.39062V28.3203V27.3438H6.67969H7.96875V28.3203Z" fill="white"/>
<path d="M13.125 25.9922C13.0625 26.0156 12.9297 26.1094 12.8359 26.1953C12.6562 26.3516 12.6562 26.3828 12.6562 28.3125C12.6641 29.7344 12.6875 30.3047 12.7578 30.3984C12.9766 30.6797 13.1562 30.7031 15.3828 30.7031H17.5703L17.7891 30.5156L18.0078 30.3281L18.0312 28.4688C18.0469 27.1328 18.0312 26.5469 17.9609 26.3828C17.7891 25.9766 17.5703 25.9375 15.2969 25.9453C14.1641 25.9453 13.1875 25.9688 13.125 25.9922ZM16.6406 28.3203V29.2969H15.3516H14.0625V28.3203V27.3438H15.3516H16.6406V28.3203Z" fill="white"/>
<path d="M22.373 26.0469C21.9746 26.2266 21.9433 26.4141 21.9667 28.4688L21.9902 30.3281L22.2089 30.5156L22.4277 30.7031H24.6152C26.8417 30.7031 27.0214 30.6797 27.2402 30.3984C27.3105 30.3047 27.3339 29.7344 27.3417 28.3125V26.3516L27.1386 26.1641L26.9355 25.9766L24.7792 25.9609C23.0917 25.9453 22.5605 25.9609 22.373 26.0469ZM25.9355 28.3203V29.2969H24.6464H23.3574V28.3203V27.3438H24.6464H25.9355V28.3203Z" fill="white"/>
<path d="M31.0312 26.0547C30.8906 26.1172 30.7422 26.2578 30.7031 26.3672C30.6562 26.4844 30.625 27.3828 30.625 28.4062V30.25L30.8516 30.4766L31.0781 30.7031H33.2812C35.5156 30.7031 35.6953 30.6797 35.9141 30.3984C35.9844 30.3047 36.0078 29.7344 36.0156 28.3125V26.3516L35.8125 26.1641L35.6094 25.9766L33.4531 25.9609C31.7109 25.9453 31.2422 25.9609 31.0312 26.0547ZM34.6094 28.3203V29.2969H33.3203H32.0312V28.3203V27.3438H33.3203H34.6094V28.3203Z" fill="white"/>
<path d="M25.375 33.8984L23.9453 35.6172L23.2031 34.875L22.4609 34.1406L21.9531 34.6484L21.4453 35.1641L22.5469 36.25C23.6094 37.2969 23.6641 37.3438 23.9766 37.3438C24.3906 37.3438 24.3984 37.3359 26.3281 35.0156C27.5312 33.5625 27.8828 33.0938 27.8203 33.0156C27.7734 32.9609 27.5234 32.75 27.2656 32.5469L26.8047 32.1797L25.375 33.8984Z" fill="white"/>
<path d="M33.3984 33.875C32.6328 34.7891 31.9844 35.5469 31.9609 35.5469C31.9375 35.5469 31.5938 35.2188 31.1953 34.8281L30.4688 34.1094L30 34.5703C29.7422 34.8281 29.5312 35.0703 29.5312 35.1172C29.5312 35.1641 30.0156 35.6875 30.6094 36.2734C31.6484 37.2969 31.7031 37.3438 32.0156 37.3438C32.3125 37.3438 32.3672 37.3047 32.7578 36.8594C33.7266 35.7578 35.8594 33.1562 35.8516 33.0859C35.8516 33.0156 35.1328 32.3906 34.8906 32.25C34.8281 32.2188 34.2812 32.8125 33.3984 33.875Z" fill="white"/>
<path d="M4.17969 32.8516L3.98438 33.0391V35V36.9609L4.17969 37.1484L4.36719 37.3438H6.65625C9.0625 37.3359 9.09375 37.3359 9.28125 36.9766C9.41406 36.7422 9.41406 33.2578 9.28125 33.0234C9.09375 32.6641 9.0625 32.6641 6.65625 32.6562H4.36719L4.17969 32.8516ZM7.96875 35V35.9375H6.67969H5.39062V35V34.0625H6.67969H7.96875V35Z" fill="white"/>
<path d="M12.8516 32.8516L12.6562 33.0391V35V36.9609L12.8516 37.1484L13.0391 37.3438H15.3281C17.7344 37.3359 17.7656 37.3359 17.9531 36.9766C18.0859 36.7422 18.0859 33.2578 17.9531 33.0234C17.7656 32.6641 17.7344 32.6641 15.3281 32.6562H13.0391L12.8516 32.8516ZM16.6406 35V35.9375H15.3516H14.0625V35V34.0625H15.3516H16.6406V35Z" fill="white"/>
</svg>
