<svg width="49" height="48" viewBox="0 0 49 48" fill="none" xmlns="http://www.w3.org/2000/svg">
<path d="M37.5173 29.7512C37.5011 28.5475 36.7648 27.57 35.6273 27.165C34.8311 26.8813 34.0673 26.985 33.2911 27.355C32.9423 26.535 32.3348 26.03 31.5148 25.7887C30.7023 25.55 29.9173 25.6613 29.1911 26.0613C28.2373 24.6413 26.9498 24.4037 25.4573 24.885V16.8188C29.7536 16.0163 32.2811 13.5013 32.7848 9.40375C33.2436 5.68 31.2098 1.6025 26.8811 0.37875C26.3161 0.21875 25.7311 0.125 25.1561 0H23.6561C23.0523 0.1425 22.4298 0.23 21.8498 0.43625C18.6536 1.57125 16.8111 3.90125 16.2848 7.18875C15.7511 10.5262 16.9111 13.265 19.6486 15.2925C19.8998 15.4787 20.0098 15.6513 19.9936 15.975C19.9461 16.895 19.9298 17.8175 19.9298 18.7388C19.9323 23.69 19.9423 28.6412 19.9486 33.5925C19.9486 33.7637 19.9336 33.9362 19.9211 34.19C19.6211 33.9287 19.4098 33.7463 19.2011 33.56C17.9848 32.4838 16.7823 31.3913 15.5448 30.3388C15.2236 30.0663 14.8186 29.83 14.4136 29.73C13.2873 29.455 12.0948 30.0212 11.4948 31.0325C10.8873 32.0537 11.0061 33.1862 11.8323 34.1512C14.4423 37.2012 17.0586 40.2438 19.6573 43.3025C19.8198 43.495 19.9261 43.7938 19.9336 44.0462C19.9661 45.045 19.9573 46.0462 19.9423 47.045C19.9361 47.4775 20.0661 47.8063 20.4686 48H20.8436C21.2398 47.7988 21.3661 47.4725 21.3586 47.0387C21.3398 45.945 21.3348 44.8512 21.3611 43.7575C21.3711 43.2875 21.2211 42.9312 20.9161 42.5775C18.2423 39.4787 15.5811 36.37 12.9211 33.2588C12.3736 32.62 12.3986 31.9725 12.9648 31.4312C13.5011 30.9187 14.0986 30.9275 14.7148 31.4662C15.4198 32.0837 16.1198 32.7088 16.8211 33.33C17.8973 34.2825 18.9761 35.2325 20.0461 36.1912C20.3111 36.43 20.5886 36.57 20.9361 36.4212C21.2923 36.2675 21.3611 35.9525 21.3523 35.6037C21.3473 35.4162 21.3523 35.2287 21.3523 35.0412C21.3473 28.885 21.3436 22.73 21.3411 16.5737C21.3411 16.3713 21.3436 16.1675 21.3673 15.9663C21.4286 15.4613 21.7261 15.1487 22.2023 15.0025C23.2186 14.6875 24.0098 15.2775 24.0098 16.365C24.0148 20.5675 24.0111 24.77 24.0136 28.9725C24.0136 29.5562 24.2411 29.8312 24.7011 29.835C25.1548 29.84 25.4061 29.5487 25.4161 28.9862C25.4261 28.3925 25.4111 27.7987 25.4298 27.2062C25.4461 26.6812 25.7311 26.3312 26.2173 26.1525C27.1748 25.7987 28.0098 26.3538 28.0348 27.3775C28.0548 28.2362 28.0348 29.0963 28.0411 29.955C28.0461 30.5125 28.3061 30.8213 28.7436 30.815C29.1798 30.8088 29.4348 30.4975 29.4436 29.9387C29.4536 29.345 29.4348 28.7512 29.4573 28.1575C29.4786 27.5687 29.8636 27.1737 30.4448 27.0925C31.4086 26.9587 32.0498 27.5025 32.0636 28.485C32.0761 29.39 32.0623 30.2975 32.0686 31.2025C32.0723 31.7913 32.2948 32.065 32.7523 32.07C33.2098 32.075 33.4586 31.79 33.4698 31.2225C33.4811 30.6612 33.4586 30.0975 33.4836 29.5362C33.5161 28.8487 33.9873 28.4188 34.6723 28.41C35.5098 28.4 36.1048 28.9862 36.1136 29.86C36.1236 31.0312 36.1136 32.2038 36.1186 33.375C36.1211 33.8887 36.3848 34.2038 36.7998 34.2125C37.2336 34.2225 37.5186 33.8975 37.5211 33.36C37.5261 32.1575 37.5336 30.9537 37.5173 29.7512ZM25.2148 15.1637C24.5898 13.4737 22.2623 13.0237 20.8786 14.1362C20.8186 14.185 20.7548 14.2262 20.6673 14.29C19.0698 13.2162 18.0636 11.755 17.6848 9.87375C17.0111 6.525 18.8836 3.045 22.0211 1.86875C26.5973 0.15125 32.0986 3.50375 31.3586 9.41875C30.9623 12.5912 28.8798 14.6825 25.7448 15.335C25.5473 15.375 25.3348 15.49 25.2148 15.1637Z" fill="#FF008A"/>
<path d="M48.3111 16.956C47.4723 12.8473 43.4873 9.89852 39.3561 10.3348C35.0398 10.7898 31.7136 14.4323 31.7473 18.6685C31.7811 23.0935 34.6411 26.4248 39.0423 27.0273C42.9236 27.5598 46.8136 25.4485 48.0423 21.4023C48.2398 20.7498 48.3498 20.0723 48.4998 19.406V17.8123C48.4373 17.5273 48.3698 17.2423 48.3111 16.956ZM40.1323 25.766C36.3423 25.7723 33.1686 22.616 33.1523 18.8248C33.1361 14.816 36.1873 11.7298 40.1423 11.7535C44.1148 11.776 47.0936 14.801 47.0923 18.811C47.0911 22.601 43.9311 25.7585 40.1323 25.766Z" fill="#FF008A"/>
<path d="M9.79375 27.1189C4.9925 27.6339 1.20375 24.0752 0.59 19.8589C0.5725 19.7377 0.53125 19.6202 0.5 19.5002V17.8127C0.71375 17.0502 0.92375 16.2877 1.1425 15.5277C1.18125 15.3939 1.2525 15.2702 1.31375 15.1439C1.59375 14.5689 1.945 14.3789 2.36125 14.5727C2.77875 14.7664 2.85375 15.1652 2.5825 15.7402C1.7925 17.4139 1.695 19.1314 2.275 20.8852C3.29125 23.9527 6.155 25.9577 9.22625 25.7564C12.52 25.5427 15.1362 23.2202 15.75 19.9677C16.265 17.2389 15.0963 14.4952 12.755 12.9339C10.3525 11.3314 7.4475 11.3014 5.08625 12.8452C4.9075 12.9614 4.6675 13.1327 4.50625 13.0902C4.25375 13.0227 3.96 12.8414 3.83625 12.6227C3.655 12.2989 3.85125 11.9989 4.15 11.7877C5.335 10.9464 6.64875 10.4414 8.09625 10.3289C12.4538 9.99016 16.3362 12.9739 17.1462 17.2664C18.0338 21.9689 14.5325 26.6102 9.79375 27.1189Z" fill="#FF008A"/>
<path d="M35.626 42.3926C34.7448 43.2514 34.3448 44.1526 34.5035 45.3589C34.5735 45.8801 34.496 46.4201 34.521 46.9501C34.541 47.3876 34.4323 47.7451 34.0623 48.0001H33.5935C33.2098 47.7864 33.0923 47.4589 33.101 47.0264C33.1235 45.8864 33.121 44.7451 33.1048 43.6051C33.0985 43.2339 33.2173 42.9526 33.471 42.6864C33.9873 42.1426 34.5098 41.6014 34.9698 41.0114C35.7223 40.0476 36.076 38.9251 36.1135 37.7051C36.126 37.2776 36.2848 36.9739 36.7398 36.9139C37.206 36.8526 37.5348 37.1901 37.5185 37.7351C37.4673 39.5214 36.9035 41.1464 35.626 42.3926Z" fill="#FF008A"/>
<path d="M11.8933 21.4865C11.1646 19.5115 10.4358 17.5365 9.66333 15.579C9.55708 15.3102 9.20958 15.1377 8.87833 14.834C8.55833 15.149 8.26083 15.3377 8.11583 15.6077C7.88208 16.0427 7.74583 16.5327 7.56958 16.999C7.01458 18.4727 6.45458 19.944 5.90583 21.4202C5.75083 21.839 5.93458 22.2527 6.29958 22.3927C6.65208 22.5277 7.08708 22.389 7.16333 21.984C7.35083 20.9865 7.98958 20.8577 8.81708 20.9752C8.89458 20.9865 8.97458 20.9877 9.05083 20.9752C9.84458 20.8515 10.4621 20.9977 10.5696 21.9465C10.5708 21.9602 10.5833 21.974 10.5908 21.9877C10.7821 22.379 11.1521 22.5365 11.5196 22.3865C11.8521 22.2502 12.0346 21.8677 11.8933 21.4865ZM8.12833 19.5277C8.37458 18.8665 8.61458 18.2202 8.89083 17.4752C9.16458 18.204 9.40208 18.8377 9.66208 19.5277H8.12833Z" fill="#FF008A"/>
<path d="M26.3787 7.97118C27.205 6.26868 26.2562 4.73243 24.4025 4.71868C23.935 4.71618 23.4662 4.70743 22.9987 4.72243C22.445 4.73993 22.1937 4.98118 22.19 5.53868C22.18 7.47368 22.18 9.40743 22.1912 11.3424C22.1937 11.8474 22.4762 12.1399 22.975 12.1474C23.7225 12.1587 24.4725 12.1512 25.2187 12.1062C25.8587 12.0674 26.3687 11.7387 26.7575 11.2337C27.5112 10.2537 27.3775 9.07993 26.3787 7.97118ZM23.5937 6.98118C23.6112 6.70743 23.6125 6.20993 23.6787 6.19993C24.0837 6.13993 24.525 6.12243 24.9125 6.23493C25.085 6.28493 25.235 6.66493 25.2575 6.90743C25.2887 7.24243 25.0262 7.45118 24.6962 7.48118C24.3575 7.51118 24.0125 7.48743 23.6137 7.48743C23.605 7.28743 23.585 7.13243 23.5937 6.98118ZM25.1212 10.6899C24.6325 10.7387 24.1362 10.7012 23.6225 10.7012C23.6112 10.5737 23.5937 10.4687 23.5925 10.3624C23.59 9.89743 23.5912 9.43368 23.5912 8.92243C24.1237 8.92243 24.6187 8.88618 25.1062 8.93368C25.5525 8.97743 25.8262 9.37118 25.82 9.83243C25.815 10.2812 25.56 10.6462 25.1212 10.6899Z" fill="#FF008A"/>
<path d="M42.5173 21.5089C41.6286 22.3951 40.5611 22.6289 39.3686 22.3201C37.6786 21.8814 36.5636 20.4351 36.5723 18.7289C36.5873 15.9776 39.5186 14.1639 41.9223 15.4214C42.0461 15.4864 42.1686 15.5576 42.2811 15.6414C42.6148 15.8851 42.7098 16.2601 42.5286 16.5839C42.3373 16.9214 41.9273 17.0489 41.5561 16.8289C40.9786 16.4864 40.3873 16.3339 39.7223 16.5001C38.5961 16.7814 37.8986 17.7814 37.9898 19.0001C38.0661 20.0264 38.9961 20.9339 40.0598 21.0251C40.6386 21.0751 41.1298 20.8989 41.5511 20.4951C41.9386 20.1239 42.3173 20.1001 42.6211 20.3989C42.9361 20.7089 42.9036 21.1239 42.5173 21.5089Z" fill="#FF008A"/>
</svg>
