<svg width="40" height="40" viewBox="0 0 40 40" fill="none" xmlns="http://www.w3.org/2000/svg">
<path d="M1.35938 0.1875C0.851562 0.421875 0.421875 0.851562 0.1875 1.35938L0 1.75781V20V38.2422L0.1875 38.6406C0.421875 39.1484 0.851562 39.5781 1.35938 39.8125L1.75781 40H16.5625H31.3672L31.7656 39.8125C32.2734 39.5781 32.7031 39.1484 32.9375 38.6406L33.125 38.2422V34.8984V31.5469L32.8984 31.3203C32.5938 31.0234 32.1406 31.0078 31.8203 31.2812L31.6016 31.4688L31.5625 34.6641C31.5234 38.0938 31.5234 38.0703 31.1016 38.2969C30.8125 38.4531 2.30469 38.4453 2.01562 38.2891C1.57812 38.0547 1.60156 39.2422 1.60156 20C1.60156 0.757812 1.57812 1.94531 2.01562 1.71094C2.30469 1.55469 30.8125 1.54688 31.1016 1.70312C31.5312 1.92969 31.5234 1.78906 31.5625 6.70312L31.6016 11.2656L31.8203 11.4531C32.1406 11.7266 32.5938 11.7109 32.8984 11.4141L33.125 11.1875V6.46875V1.75781L32.9375 1.35938C32.7031 0.851562 32.2734 0.421875 31.7656 0.1875L31.3672 0H16.5625H1.75781L1.35938 0.1875Z" fill="white"/>
<path d="M15.0762 4.34375C13.7481 4.625 12.6231 5.21875 11.6231 6.16406C10.1543 7.55469 9.47463 9.0625 9.39651 11.1016C9.34963 12.3047 9.46682 13.0781 9.84182 14.0469C10.4903 15.7109 11.9278 17.2344 13.5528 17.9766C14.5996 18.4453 15.1465 18.5547 16.5606 18.5547C17.6699 18.5547 17.9356 18.5312 18.459 18.375C19.8028 17.9844 20.8418 17.3594 21.7793 16.3672C23.1153 14.9609 23.7481 13.3594 23.7481 11.4062C23.7481 9.35938 23.1153 7.8125 21.6778 6.35938C20.5762 5.24219 19.4903 4.64062 18.0293 4.34375C17.2871 4.1875 15.7793 4.1875 15.0762 4.34375ZM17.9121 6.00781C21.1934 6.85156 22.9668 10.3594 21.709 13.5078C21.5684 13.8594 21.334 14.2812 21.1153 14.6016C21.0996 14.6172 20.8731 14.3906 20.6074 14.1016C20.334 13.8047 19.8496 13.3906 19.5293 13.1797C19.209 12.9688 18.9434 12.7734 18.9512 12.75C18.9512 12.7188 19.0371 12.5156 19.1387 12.3047C19.3106 11.9531 19.334 11.8125 19.334 10.8594C19.334 9.88281 19.3184 9.77344 19.1309 9.375C18.5996 8.24219 17.3028 7.57031 16.0918 7.79688C15.1465 7.96875 14.3731 8.55469 13.9903 9.375C13.8028 9.77344 13.7871 9.88281 13.7871 10.8594C13.7871 11.8125 13.8106 11.9531 13.9824 12.3047C14.084 12.5156 14.1699 12.7188 14.1699 12.75C14.1778 12.7734 13.9121 12.9688 13.5918 13.1797C13.2715 13.3906 12.7871 13.8047 12.5137 14.1016C12.1153 14.5312 12.0059 14.6172 11.9434 14.5312C11.7168 14.1875 11.2403 13.1016 11.1387 12.6875C10.959 12 10.9746 10.7969 11.1699 10.0469C11.6621 8.125 13.2559 6.52344 15.1699 6.01562C15.9512 5.8125 17.1231 5.8125 17.9121 6.00781ZM17.0762 9.53906C17.5684 9.77344 17.7559 10.125 17.7637 10.8125C17.7637 11.2422 17.7324 11.4375 17.6074 11.6406C17.1231 12.4766 15.9981 12.4766 15.5137 11.6484C15.3965 11.4453 15.3574 11.2344 15.3574 10.8594C15.3574 10.1875 15.5528 9.79688 16.0137 9.55469C16.4278 9.33594 16.6543 9.32812 17.0762 9.53906ZM18.209 14.3594C18.7324 14.6094 18.9824 14.7891 19.3653 15.1953C19.6309 15.4844 19.8418 15.7734 19.8262 15.8359C19.7871 16.0156 18.6387 16.6094 17.9668 16.7891C16.8184 17.1016 15.2559 16.9688 14.2637 16.4766C13.709 16.1953 13.2793 15.8984 13.2793 15.8047C13.2793 15.75 13.4981 15.4766 13.7637 15.1953C14.1309 14.7969 14.3887 14.6094 14.8731 14.375C15.6543 14 15.709 13.9922 16.7168 14.0156C17.5059 14.0312 17.5762 14.0469 18.209 14.3594Z" fill="white"/>
<path d="M36.0147 9.79688C35.7803 9.84375 35.4131 9.96875 35.1943 10.0781C34.3193 10.5 34.3272 10.4766 28.9756 19.7734C26.2412 24.5156 23.9834 28.4609 23.96 28.5313C23.9365 28.6094 23.749 30.1172 23.5537 31.8828C23.1709 35.3281 23.1709 35.4063 23.5459 35.6641C23.6318 35.7266 23.8506 35.7812 24.0303 35.7812C24.3897 35.7812 24.4443 35.7422 27.999 33.1094L29.71 31.8359L34.624 23.3203C37.3272 18.6328 39.6318 14.6094 39.749 14.375C39.9287 13.9922 39.9522 13.8516 39.9522 13.0469C39.96 12.1563 39.9522 12.1328 39.6631 11.5469C39.1943 10.5938 38.3662 9.96875 37.2959 9.77344C36.749 9.67188 36.5693 9.67188 36.0147 9.79688ZM37.5225 11.5781C37.7022 11.6797 37.9522 11.9063 38.0772 12.0938C38.2725 12.3672 38.3193 12.5234 38.3428 12.9531C38.3662 13.4688 38.3584 13.4922 37.9053 14.2969C37.6553 14.75 37.4287 15.1172 37.4053 15.1172C37.3818 15.1172 36.7256 14.75 35.9443 14.2969L34.5381 13.4844L34.8193 12.9688C35.2256 12.2344 35.5303 11.8125 35.749 11.6719C36.3193 11.2969 36.9522 11.2656 37.5225 11.5781ZM35.4522 15.9297C36.0615 16.2891 36.5615 16.5859 36.5615 16.6016C36.5615 16.6484 28.835 30.0234 28.7725 30.0859C28.6865 30.1641 25.8897 28.5391 25.9209 28.4297C25.9287 28.3828 27.6865 25.3281 29.8193 21.6328L33.6943 14.9219L34.0147 15.1016C34.1943 15.2031 34.835 15.5781 35.4522 15.9297ZM26.7334 30.9219C27.1475 31.1641 27.4756 31.3828 27.4522 31.4141C27.4365 31.4453 26.8897 31.8594 26.249 32.3359C25.4209 32.9453 25.0772 33.1641 25.0772 33.0625C25.0772 32.9922 25.1475 32.3281 25.2334 31.6016C25.3193 30.8672 25.3897 30.2422 25.3897 30.2109C25.3897 30.1719 25.5225 30.2188 25.6865 30.3125C25.8428 30.4063 26.3193 30.6797 26.7334 30.9219Z" fill="white"/>
<path d="M5.77166 21.3203C5.27166 21.8203 5.61541 22.6562 6.32634 22.6562C6.93572 22.6562 7.29509 22.1719 7.10759 21.6094C6.99822 21.2656 6.73259 21.0938 6.32634 21.0938C6.06853 21.0938 5.95134 21.1406 5.77166 21.3203Z" fill="white"/>
<path d="M9.10742 21.2969C8.81836 21.5938 8.81836 22.1562 9.10742 22.4531L9.31836 22.6562H15.2324H21.1465L21.3574 22.4531C21.5215 22.2891 21.5605 22.1719 21.5605 21.875C21.5605 21.5781 21.5215 21.4609 21.3574 21.2969L21.1465 21.0938H15.2324H9.31836L9.10742 21.2969Z" fill="white"/>
<path d="M5.77166 25.6953C5.27166 26.1953 5.61541 27.0312 6.32634 27.0312C6.73259 27.0312 6.99822 26.8594 7.10759 26.5156C7.29509 25.9531 6.93572 25.4688 6.32634 25.4688C6.06853 25.4688 5.95134 25.5156 5.77166 25.6953Z" fill="white"/>
<path d="M9.10742 25.6719C8.81836 25.9688 8.81836 26.5312 9.10742 26.8281L9.31836 27.0312H15.2324H21.1465L21.3574 26.8281C21.5215 26.6641 21.5605 26.5469 21.5605 26.25C21.5605 25.9531 21.5215 25.8359 21.3574 25.6719L21.1465 25.4688H15.2324H9.31836L9.10742 25.6719Z" fill="white"/>
<path d="M5.77166 30.0703C5.27166 30.5703 5.61541 31.4062 6.32634 31.4062C6.93572 31.4062 7.29509 30.9219 7.10759 30.3594C6.99822 30.0156 6.73259 29.8438 6.32634 29.8438C6.06853 29.8438 5.95134 29.8906 5.77166 30.0703Z" fill="white"/>
<path d="M9.10742 30.0469C8.81836 30.3438 8.81836 30.9062 9.10742 31.2031L9.31836 31.4062H15.2324H21.1465L21.3574 31.2031C21.5215 31.0391 21.5605 30.9219 21.5605 30.625C21.5605 30.3281 21.5215 30.2109 21.3574 30.0469L21.1465 29.8438H15.2324H9.31836L9.10742 30.0469Z" fill="white"/>
<path d="M15.9844 34.4219C15.8203 34.5859 15.7812 34.7031 15.7812 35C15.7812 35.2969 15.8203 35.4141 15.9844 35.5781L16.1953 35.7812H18.6719H21.1484L21.3594 35.5781C21.6484 35.2812 21.6484 34.7188 21.3594 34.4219L21.1484 34.2188H18.6719H16.1953L15.9844 34.4219Z" fill="white"/>
</svg>
