<svg width="40" height="40" viewBox="0 0 40 40" fill="none" xmlns="http://www.w3.org/2000/svg">
<path d="M2.48258 0.148424C1.37321 0.507799 0.490393 1.39842 0.123205 2.54686C0.00601766 2.89842 -0.00179485 3.52342 0.0138302 8.4453L0.0372677 13.9453L0.32633 14.5312C0.85758 15.625 1.89664 16.3906 3.08414 16.5625C3.38883 16.6015 4.07633 16.6406 4.62321 16.6406H5.62321L7.02946 18.5156C8.48258 20.4453 8.58414 20.5469 9.02164 20.4375C9.16227 20.3984 9.61539 19.8515 10.6232 18.5156L12.0295 16.6406H24.2013C31.9513 16.6406 36.5607 16.6094 36.9123 16.5625C38.2795 16.3594 39.4435 15.3672 39.8498 14.0547C39.9904 13.6094 39.9982 13.2656 39.9982 8.28905C39.9982 3.68749 39.9826 2.9453 39.8732 2.5703C39.5373 1.42967 38.631 0.499987 37.4904 0.148424C37.0295 0.00779915 36.5451 -1.33514e-05 23.4357 -1.33514e-05H9.84977L9.69352 0.203112C9.41227 0.554674 9.53727 1.02342 9.94352 1.17186C10.0998 1.22655 14.4123 1.24999 23.5529 1.24999H36.9279L37.4045 1.48436C37.9123 1.74217 38.256 2.07811 38.5295 2.60155L38.7091 2.92967L38.7326 8.18749L38.756 13.4453L38.5451 13.914C38.2951 14.4687 37.7482 15 37.2013 15.2109C36.8498 15.3437 36.256 15.3515 24.1388 15.375C11.7091 15.3906 11.4513 15.3984 11.2873 15.5469C11.2013 15.625 10.6232 16.3828 9.99821 17.2187C9.37321 18.0547 8.84977 18.7422 8.82633 18.7422C8.80289 18.7422 8.27946 18.0547 7.65446 17.2187C7.02946 16.3828 6.45133 15.6328 6.36539 15.5469C6.22477 15.4219 6.03727 15.3984 4.64664 15.375C3.11539 15.3515 3.07633 15.3437 2.63883 15.1328C2.07633 14.8594 1.53727 14.2734 1.34977 13.7265C1.21696 13.3515 1.20914 12.9531 1.20914 8.28124C1.20914 3.62499 1.21696 3.21092 1.34977 2.83592C1.54508 2.27342 2.03727 1.74217 2.61539 1.47655L3.08414 1.24999H5.12321C6.34196 1.24999 7.25602 1.21874 7.39664 1.17186C7.80289 1.02342 7.92789 0.554674 7.64664 0.203112L7.49039 -1.33514e-05L5.20914 0.00779915C3.21696 0.00779915 2.87321 0.0234241 2.48258 0.148424Z" fill="#FFF3F3"/>
<path d="M8.29688 3.95312C8.19531 4.01562 7.875 4.5625 7.57812 5.15625C7.25 5.80469 6.98438 6.25781 6.89844 6.28125C6.82031 6.30469 6.35156 6.375 5.85938 6.44531C4.60156 6.61719 4.5625 6.625 4.34375 6.85156C4.17969 7.01562 4.14062 7.125 4.14062 7.44531V7.83594L5.04688 8.71094L5.95312 9.57812L5.75 10.8125C5.54688 12.0156 5.54688 12.0547 5.67969 12.3359C5.78906 12.5469 5.89844 12.6484 6.15625 12.7344L6.49219 12.8516L7.64062 12.2578L8.78906 11.6641L9.9375 12.2578L11.0859 12.8516L11.4219 12.7344C11.6797 12.6484 11.7891 12.5469 11.8984 12.3281C12.0391 12.0469 12.0312 12.0156 11.8281 10.8125L11.6172 9.58594L12.5234 8.71094L13.4375 7.83594V7.45312C13.4297 6.77344 13.25 6.66406 11.7812 6.45312L10.5859 6.28125L10.0312 5.19531C9.72656 4.60156 9.39062 4.04688 9.29688 3.96875C9.07812 3.78906 8.53906 3.78125 8.29688 3.95312ZM9.82812 7.375C9.94531 7.42969 10.3984 7.52344 10.8438 7.57812C11.2812 7.63281 11.6406 7.70312 11.6406 7.72656C11.6406 7.75781 11.375 8.03906 11.0547 8.35938C10.7344 8.67969 10.4297 9.05469 10.3906 9.1875C10.3125 9.42188 10.3828 10.0312 10.5938 11C10.625 11.1719 10.5781 11.1562 9.82812 10.7656C9.26562 10.4844 8.9375 10.3594 8.75 10.3672C8.58594 10.375 8.17188 10.5391 7.71094 10.7812C6.99219 11.1641 6.94531 11.1719 6.98438 11.0078C7.00781 10.9062 7.08594 10.4922 7.15625 10.0938C7.3125 9.1875 7.28906 9.11719 6.52344 8.35938C6.20312 8.03906 5.9375 7.75781 5.9375 7.72656C5.9375 7.70312 6.29688 7.63281 6.74219 7.57812C7.17969 7.52344 7.64062 7.42188 7.75781 7.35156C7.92188 7.26562 8.10156 6.98438 8.38281 6.40625L8.78906 5.58594L9.20312 6.42188C9.5 7.03125 9.67188 7.28906 9.82812 7.375Z" fill="#FFF3F3"/>
<path d="M19.5078 3.91406C19.4297 3.96093 19.125 4.49218 18.8203 5.10156C18.5156 5.71093 18.25 6.22656 18.2344 6.24218C18.2188 6.25781 17.6875 6.35156 17.0469 6.44531C16.4141 6.53906 15.8203 6.65625 15.7266 6.71093C15.4609 6.85156 15.3125 7.11718 15.3125 7.45312C15.3125 7.74218 15.375 7.82031 16.2422 8.70312L17.1641 9.64843L16.9844 10.6641C16.7422 12.0234 16.7422 12.2031 17.0156 12.5156C17.3828 12.9219 17.7188 12.8672 18.9609 12.2031L19.9922 11.6562L21.0312 12.2031C22.1797 12.8125 22.5 12.8828 22.8672 12.6094C23.2422 12.3281 23.2578 12.1484 23.0312 10.8359L22.8281 9.64843L23.7188 8.75C24.4375 8.02343 24.625 7.78906 24.6562 7.57031C24.7109 7.24218 24.5391 6.85156 24.2812 6.71093C24.1875 6.65625 23.5859 6.53906 22.9531 6.44531C22.3125 6.35156 21.7812 6.25781 21.7656 6.24218C21.75 6.22656 21.5078 5.75 21.2188 5.17968C20.9375 4.61718 20.6328 4.07812 20.5312 3.99218C20.3438 3.8125 19.7578 3.76562 19.5078 3.91406ZM20.3828 6.38281C20.5938 6.80468 20.8359 7.21093 20.9219 7.29687C21.0312 7.39062 21.3594 7.47656 21.9453 7.57031C22.4141 7.64062 22.8203 7.71875 22.8438 7.74218C22.8672 7.76562 22.6094 8.05468 22.2656 8.39062C21.9141 8.72656 21.6172 9.07812 21.5859 9.20312C21.5391 9.38281 21.6328 10.2578 21.7734 10.9531L21.8203 11.1875L21.0625 10.7812C20.0703 10.25 19.9297 10.25 18.9531 10.7734C18.5234 11 18.2031 11.125 18.2031 11.0703C18.2031 11.0234 18.2578 10.6797 18.3203 10.3125C18.5156 9.17968 18.5312 9.21093 17.7656 8.4375C17.3984 8.0625 17.125 7.73437 17.1641 7.71093C17.1953 7.69531 17.5703 7.63281 17.9922 7.57031C18.4141 7.51562 18.8594 7.41406 18.9766 7.33593C19.1328 7.24218 19.3125 6.96093 19.5781 6.41406C19.7812 5.97656 19.9609 5.625 19.9766 5.625C19.9844 5.625 20.1719 5.96875 20.3828 6.38281Z" fill="#FFF3F3"/>
<path d="M30.7175 3.95312C30.616 4.01562 30.2957 4.5625 29.9988 5.16406C29.5847 5.99219 29.4129 6.25781 29.2801 6.28906C29.1785 6.3125 28.6316 6.39844 28.0613 6.47656C27.491 6.5625 26.9363 6.67969 26.8347 6.75C26.7332 6.8125 26.616 6.99219 26.5613 7.14844C26.405 7.61719 26.5535 7.875 27.5144 8.77344L28.3738 9.58594L28.1629 10.8359L27.9441 12.0938L28.0926 12.3516C28.2019 12.5312 28.3504 12.6562 28.5769 12.7344L28.9051 12.8438L30.0535 12.2578L31.2019 11.6641L32.3347 12.25C33.3035 12.7422 33.5144 12.8281 33.7254 12.7812C34.0379 12.7109 34.3582 12.3906 34.3894 12.125C34.405 12.0078 34.3269 11.3906 34.2254 10.75L34.03 9.58594L34.8582 8.78125C35.3191 8.34375 35.7254 7.90625 35.7722 7.82031C35.9285 7.53125 35.8738 7.13281 35.6472 6.875C35.4363 6.64062 35.3738 6.625 34.1785 6.45312C33.3816 6.33594 32.9207 6.23438 32.905 6.17188C32.7566 5.74219 31.8504 4.05469 31.7097 3.95312C31.4754 3.79688 30.9441 3.78906 30.7175 3.95312ZM32.241 7.36719C32.366 7.42969 32.8191 7.52344 33.2644 7.57812C33.7019 7.63281 34.0613 7.70312 34.0613 7.72656C34.0613 7.75781 33.78 8.05469 33.4363 8.39844C33.0066 8.82031 32.7957 9.09375 32.7722 9.25781C32.7488 9.38281 32.7957 9.86719 32.8738 10.3203L33.0222 11.1562L32.155 10.7344C31.1472 10.2344 31.1785 10.2344 30.116 10.7969C29.7097 11.0078 29.3738 11.1719 29.3738 11.1562C29.3738 11.1406 29.4441 10.7422 29.5301 10.2734C29.6472 9.61719 29.6707 9.35938 29.6082 9.17188C29.5613 9.03906 29.2488 8.65625 28.9051 8.32812C28.5691 8 28.3347 7.71094 28.3816 7.69531C28.4363 7.67969 28.8347 7.61719 29.2801 7.55469C29.8269 7.47656 30.1394 7.39062 30.2488 7.28906C30.3347 7.21094 30.5847 6.79688 30.7957 6.36719L31.1941 5.58594L31.6082 6.42188C31.9129 7.02344 32.0925 7.28906 32.241 7.36719Z" fill="#FFF3F3"/>
<path d="M6.95217 22.5781C5.29592 22.9297 3.88967 23.6875 2.63185 24.9141C1.31154 26.1953 0.452166 27.7812 0.116229 29.5547C-0.0400212 30.3672 -0.0400212 32.0625 0.124041 32.8906C0.459979 34.6562 1.35842 36.2969 2.71779 37.5859C3.80373 38.6328 5.07717 39.3516 6.5381 39.7422C7.24123 39.9375 7.42873 39.9531 8.7881 39.9531C10.1553 39.9531 10.335 39.9375 11.0537 39.7422C11.9756 39.4922 13.3428 38.8359 14.0694 38.2891C15.624 37.1094 16.8115 35.3516 17.3272 33.4531C17.5147 32.7656 17.5303 32.5625 17.5303 31.2109C17.5381 29.8203 17.5225 29.6797 17.3194 28.9531C16.9053 27.4609 16.21 26.2266 15.1631 25.1406C13.8584 23.7656 12.249 22.8828 10.4444 22.5391C9.57717 22.375 7.81154 22.3906 6.95217 22.5781ZM9.74123 23.7109C12.1397 23.9375 14.585 25.7344 15.6631 28.0781C16.1787 29.1797 16.2881 29.7344 16.2881 31.1719C16.2881 32.2734 16.2647 32.5547 16.1084 33.1094C15.874 33.9688 15.5615 34.6406 15.0303 35.4453L14.585 36.1094L14.3819 35.5781C13.8975 34.3516 12.8272 33.125 11.6865 32.5L11.0928 32.1719L11.4053 31.8516C11.7569 31.4844 12.1162 30.8359 12.2647 30.2969C12.3272 30.0703 12.3506 29.6406 12.3272 29.1875C12.3037 28.5391 12.2647 28.3906 12.0069 27.875C11.624 27.0938 11.0694 26.5391 10.3194 26.1797C9.78029 25.9297 9.64748 25.8984 8.92873 25.875C7.95217 25.8359 7.34279 26.0078 6.63967 26.5312C4.95998 27.7656 4.70998 30.1016 6.06935 31.7734C6.26467 32.0078 6.40529 32.2109 6.38967 32.2266C6.37404 32.2344 6.18654 32.3359 5.9756 32.4453C4.70998 33.0781 3.60842 34.3438 3.12404 35.7109L2.99123 36.1016L2.58498 35.5078C1.55373 34.0156 1.11623 32.3828 1.26467 30.5312C1.5381 26.9922 4.49123 24.0156 8.06935 23.6797C8.42092 23.6484 8.83498 23.625 8.98342 23.6406C9.13185 23.6562 9.4756 23.6875 9.74123 23.7109ZM9.81154 27.3281C10.2022 27.5312 10.6709 28 10.874 28.3984C10.9678 28.5781 11.0537 28.9297 11.0772 29.2266C11.124 29.9297 10.9444 30.4609 10.4756 30.9609C9.98342 31.4922 9.61623 31.6562 8.89748 31.7031C8.38185 31.7344 8.24123 31.7109 7.88185 31.5469C7.27248 31.2656 6.99123 30.9922 6.70217 30.4141C6.37404 29.75 6.35842 29.1484 6.65529 28.5156C6.9131 27.9375 7.17092 27.6562 7.65529 27.3906C8.33498 27.0234 9.1631 27 9.81154 27.3281ZM9.93654 33.1719C11.2178 33.4766 12.4522 34.4922 13.0303 35.7031C13.2022 36.0703 13.3819 36.5391 13.4209 36.7422L13.499 37.1172L13.1319 37.3906C12.6084 37.7812 11.46 38.3281 10.7412 38.5234C10.2881 38.6484 9.81154 38.7031 9.02248 38.7266C7.76467 38.7656 6.92873 38.625 5.89748 38.2031C5.32717 37.9609 4.20998 37.2891 4.10842 37.1172C4.03029 36.9922 4.20998 36.3438 4.49904 35.7422C5.4756 33.6797 7.70217 32.625 9.93654 33.1719Z" fill="#FFF3F3"/>
<path d="M21.1481 23.3125C20.0388 23.7109 19.5466 25.125 20.1091 26.2734C20.2263 26.5156 20.445 26.8125 20.5856 26.9219C21.1559 27.3594 20.8903 27.3438 29.9216 27.3438C39.2575 27.3438 38.7809 27.375 39.3591 26.7969C39.7497 26.3984 39.9216 25.9141 39.9216 25.2031C39.9216 24.5391 39.7575 24.1328 39.3356 23.7266C38.7653 23.1719 39.2731 23.2031 29.8903 23.2031C23.0388 23.2109 21.3903 23.2266 21.1481 23.3125ZM38.4528 24.6797C38.6716 24.875 38.7106 24.9609 38.7106 25.2734C38.7106 25.5859 38.6716 25.6719 38.4528 25.8672L38.2028 26.0938H29.9606C23.7419 26.0938 21.6794 26.0703 21.5231 26C21.1403 25.8281 20.9841 25.25 21.2028 24.8516C21.4294 24.4453 21.07 24.4609 29.9372 24.4531H38.2028L38.4528 24.6797Z" fill="#FFF3F3"/>
<path d="M21.2318 29.2344C20.8646 29.3281 20.3489 29.7734 20.1302 30.1875C19.8958 30.625 19.8802 31.7734 20.1068 32.1875C20.3099 32.5703 20.6068 32.875 20.9739 33.0703L21.2864 33.2422H29.9583H38.6302L38.9583 33.0703C40.3333 32.3359 40.3333 30.0781 38.9583 29.3594C38.6927 29.2188 38.4661 29.1797 37.7161 29.1562C36.8255 29.125 36.8021 29.125 36.6068 29.3281C36.3646 29.5625 36.3411 29.9062 36.5521 30.1641C36.6849 30.3359 36.7786 30.3516 37.5364 30.3906C38.3333 30.4297 38.3802 30.4453 38.5599 30.6484C38.763 30.8828 38.8177 31.3672 38.6693 31.6484C38.4505 32.0469 38.7474 32.0312 29.9427 32.0312C23.5755 32.0312 21.7083 32.0078 21.5599 31.9297C21.4505 31.875 21.3021 31.7031 21.2239 31.5391C21.0989 31.2969 21.0911 31.2109 21.1693 30.9766C21.2161 30.8281 21.3489 30.6328 21.4583 30.5469C21.6536 30.3906 21.763 30.3906 27.9661 30.3906C34.0443 30.3906 34.2864 30.3828 34.4583 30.2422C34.5989 30.1328 34.6458 30.0156 34.6458 29.7656C34.6458 29.5156 34.5989 29.3984 34.4583 29.2891C34.2864 29.1484 34.0443 29.1406 27.8958 29.1484C24.0286 29.1562 21.4114 29.1875 21.2318 29.2344Z" fill="#FFF3F3"/>
<path d="M21.2263 35.1875C20.1169 35.586 19.6247 37 20.1872 38.1485C20.6091 39.0235 21.1091 39.2188 22.8903 39.2188C23.9841 39.2188 24.1403 39.2031 24.3044 39.0703C24.5622 38.8594 24.5622 38.3281 24.3044 38.1172C24.1481 37.9844 23.9841 37.9688 22.9528 37.9688C21.6794 37.9688 21.4294 37.9063 21.2653 37.5391C21.07 37.1094 21.2263 36.5938 21.6013 36.4219C21.7575 36.3516 23.82 36.3281 30.0466 36.3281H38.2966L38.57 36.6016C38.82 36.8516 38.8434 36.9063 38.8044 37.211C38.7731 37.4453 38.6872 37.6016 38.5153 37.7578L38.2809 37.9688H32.4138H26.5544L26.3669 38.1641C26.2419 38.2813 26.1716 38.4453 26.1716 38.5938C26.1716 38.7422 26.2419 38.9063 26.3669 39.0235L26.5544 39.2188H32.445C39.0778 39.2188 38.8669 39.2344 39.4372 38.6563C39.8669 38.2266 40.0231 37.75 39.9919 36.961C39.9528 36.2031 39.6872 35.711 39.1091 35.3516L38.7263 35.1172L30.1247 35.1016C23.0778 35.086 21.4684 35.1016 21.2263 35.1875Z" fill="#FFF3F3"/>
</svg>
