<svg width="25" height="24" viewBox="0 0 25 24" fill="none" xmlns="http://www.w3.org/2000/svg">
<path d="M24.5 12C24.5 5.37258 19.1274 0 12.5 0C5.87259 0 0.5 5.37258 0.5 12C0.5 18.6274 5.87259 24 12.5 24C19.1274 24 24.5 18.6274 24.5 12Z" fill="#FF0209"/>
<path d="M17.5941 17.3147C17.2365 17.3535 16.8706 17.3602 16.5198 17.3594C13.7835 17.3568 11.0472 17.3543 8.31177 17.3526C7.45083 17.3526 6.51316 17.3248 5.84785 16.7775C5.09822 16.1594 4.94223 15.0877 4.88152 14.118C4.79719 12.7891 4.79045 11.4559 4.85959 10.1261C4.89754 9.3959 4.96415 8.64795 5.27867 7.98686C5.50466 7.51212 5.88158 7.08545 6.36391 6.86115C6.92466 6.60059 7.51155 6.64697 8.1153 6.64613C9.5606 6.64444 11.0059 6.6436 12.4512 6.64191C13.9538 6.64023 15.4573 6.63938 16.9599 6.6377C17.6699 6.6377 18.4322 6.65203 19.0115 7.06268C19.7595 7.59223 19.9627 8.59989 20.0563 9.51142C20.2291 11.1903 20.2317 12.8869 20.063 14.5657C19.993 15.258 19.8767 15.99 19.4205 16.5153C18.9685 17.0364 18.2981 17.2371 17.5949 17.3138L17.5941 17.3147Z" fill="white"/>
<path d="M14.9489 11.9998L10.8711 9.64551V14.3541L14.9489 11.9998Z" fill="#FF0209"/>
</svg>
