<svg width="16" height="16" viewBox="0 0 16 16" fill="none" xmlns="http://www.w3.org/2000/svg">
<g clip-path="url(#clip0_59_74065)">
<path d="M5.78788 13.3776L5.78786 13.3776L0.587858 8.17758C0.470728 8.06045 0.470698 7.8705 0.587863 7.75331C0.587867 7.7533 0.587871 7.7533 0.587876 7.7533L1.71921 6.62193L1.71922 6.62192C1.83636 6.50477 2.02631 6.50477 2.14345 6.62192L2.14347 6.62194L5.64644 10.1249L5.99999 10.4784L6.35355 10.1249L13.8565 2.62194C13.9737 2.5048 14.1636 2.50479 14.2808 2.62193C14.2808 2.62194 14.2808 2.62194 14.2808 2.62194L15.4121 3.75331L15.4121 3.75331C15.5293 3.87045 15.5293 4.06041 15.4121 4.1776L6.21214 13.3776C6.21214 13.3776 6.21213 13.3776 6.21213 13.3776C6.09494 13.4948 5.905 13.4947 5.78788 13.3776Z" fill="#333333" stroke="#333333"/>
</g>
<defs>
<clipPath id="clip0_59_74065">
<rect width="16" height="16" fill="white"/>
</clipPath>
</defs>
</svg>
