<svg width="16" height="16" viewBox="0 0 16 16" fill="none" xmlns="http://www.w3.org/2000/svg">
<path d="M3.42857 2.5H3.92857V2V0.5H5.21429V2V2.5H5.71429H10.2857H10.7857V2V0.5H12.0714V2V2.5H12.5714H14.2857C15.0208 2.5 15.5 3.00864 15.5 3.5V14.5C15.5 14.9914 15.0208 15.5 14.2857 15.5H1.71429C0.979197 15.5 0.5 14.9914 0.5 14.5V3.5C0.5 3.00864 0.979197 2.5 1.71429 2.5H3.42857ZM14.7857 5V4.5H14.2857H1.71429H1.21429V5V14.3125C1.21429 14.7524 1.59937 15 1.92857 15H14.0714C14.4006 15 14.7857 14.7524 14.7857 14.3125V5ZM5.21429 7.5V8.5H3.92857V7.5H5.21429ZM8.64286 7.5V8.5H7.35714V7.5H8.64286ZM12.0714 7.5V8.5H10.7857V7.5H12.0714ZM7.35714 10.5H8.64286V11.5H7.35714V10.5ZM3.92857 10.5H5.21429V11.5H3.92857V10.5ZM10.7857 10.5H12.0714V11.5H10.7857V10.5Z" fill="#333333" stroke="#333333"/>
</svg>
