<svg width="16" height="16" viewBox="0 0 16 16" fill="none" xmlns="http://www.w3.org/2000/svg">
<g clip-path="url(#clip0_59_74156)">
<path d="M11.2292 1.74559C11.1296 1.66597 11.0198 1.57301 10.9007 1.47222C10.1942 0.874067 9.16165 0 8 0C6.84359 0 5.81955 0.864654 5.10377 1.46903C4.98384 1.57029 4.87257 1.66424 4.77078 1.74559L0.5 6.29642M11.2292 1.74559L11.2292 1.7456L11.2292 1.74559ZM11.2292 1.74559C11.9645 2.33019 15.309 5.01978 15.4558 5.14113M15.4558 5.14113L15.1372 5.52647M15.4558 5.14113C15.626 5.28187 15.7631 5.45846 15.8572 5.6583C15.9512 5.85814 16 6.07628 16 6.29716V14.5C16 15.3284 15.3284 16 14.5 16H1.5C0.671562 16 0 15.3284 0 14.5V6.29641L0.5 6.29642M15.4558 5.14113L15.1372 5.52649C15.1372 5.52648 15.1372 5.52648 15.1372 5.52647M15.1372 5.52647C14.9942 5.40828 11.6535 2.72171 10.918 2.13696L10.917 2.13616C10.7987 2.0416 10.678 1.93932 10.5523 1.83281C10.2664 1.59069 9.95479 1.3267 9.58733 1.08182C9.06988 0.736989 8.53468 0.5 8 0.5C7.46834 0.5 6.93753 0.733806 6.42189 1.07659C6.05475 1.32065 5.74122 1.58552 5.45117 1.83056C5.32481 1.93731 5.2029 2.04031 5.08295 2.13617L5.08195 2.13697C4.31793 2.74443 0.989951 5.42118 0.864911 5.52395L0.547371 5.13778L0.864859 5.52399C0.750787 5.61781 0.658909 5.73572 0.595824 5.86926C0.532731 6.00282 0.500006 6.1487 0.5 6.29641C0.5 6.29641 0.5 6.29642 0.5 6.29642M15.1372 5.52647C15.2507 5.6203 15.3421 5.73803 15.4048 5.87126C15.4675 6.00448 15.5 6.14991 15.5 6.29716V14.5C15.5 15.0523 15.0523 15.5 14.5 15.5H1.5C0.947705 15.5 0.5 15.0523 0.5 14.5V6.29642M15 6.38691C15.0001 6.28435 14.9772 6.18308 14.9331 6.09052C14.8889 5.99795 14.8246 5.91644 14.7449 5.85197L14.7448 5.85194C14.2489 5.45104 11.3446 3.11489 10.6057 2.52738C10.5323 2.46875 10.4372 2.38837 10.3283 2.29624C10.0949 2.0988 9.7976 1.8474 9.51301 1.6405C9.29385 1.48115 9.05414 1.32574 8.80901 1.20877C8.56813 1.09381 8.28934 1 8 1C7.71223 1 7.43542 1.09231 7.19562 1.20626C6.9519 1.32208 6.71374 1.47613 6.4955 1.63456C6.21279 1.83981 5.91723 2.08937 5.68113 2.28873C5.5698 2.38273 5.4717 2.46557 5.39439 2.52733C4.65557 3.11471 1.7514 5.4506 1.25545 5.85104L1.25537 5.85111C1.09344 5.98192 1 6.17858 1 6.38584V14.3125C1 14.4948 1.07243 14.6697 1.20136 14.7986C1.3303 14.9276 1.50516 15 1.6875 15H14.3125C14.4948 15 14.6697 14.9276 14.7986 14.7986C14.9276 14.6697 15 14.4948 15 14.3125V6.38691ZM15 6.38691L14.5 6.3865M15 6.38691V6.3865H14.5M14.5 6.3865V14.3125C14.5 14.3622 14.4802 14.4099 14.4451 14.4451C14.4099 14.4802 14.3622 14.5 14.3125 14.5H1.6875C1.63777 14.5 1.59008 14.4802 1.55492 14.4451C1.51975 14.4099 1.5 14.3622 1.5 14.3125V6.38584C1.5 6.32919 1.5255 6.27566 1.56956 6.24006L5.70594 2.91841C5.80312 2.84079 5.91264 2.74817 6.03113 2.64798C6.60479 2.16288 7.3887 1.5 8 1.5C8.61416 1.5 9.41047 2.1745 9.97724 2.65456C10.0937 2.75324 10.2005 2.8437 10.2941 2.91841C11.0307 3.50406 13.9348 5.84006 14.4305 6.24078C14.4522 6.25835 14.4697 6.28055 14.4818 6.30576C14.4938 6.33098 14.5 6.35856 14.5 6.3865ZM5.70594 9.58159C5.79946 9.6563 5.90626 9.74676 6.02276 9.84544C6.58953 10.3255 7.38584 11 8 11C8.61133 11 9.39532 10.337 9.96898 9.85194C10.0874 9.75177 10.1969 9.65919 10.2941 9.58159C10.6689 9.28362 11.6048 8.53253 12.4992 7.81384C12.6592 7.68522 12.8929 7.70928 13.0235 7.86781L13.5003 8.44675C13.6331 8.60797 13.6086 8.84659 13.4458 8.97741C12.5403 9.705 11.5934 10.4648 11.2292 10.7544C11.1274 10.8357 11.0162 10.9297 10.8963 11.0309C10.1805 11.6353 9.15644 12.5 8 12.5C6.83799 12.5 5.80453 11.625 5.09878 11.0274C4.97982 10.9267 4.87017 10.8338 4.77078 10.7544C4.41831 10.4742 3.46628 9.71022 2.55431 8.97734C2.3915 8.8465 2.36703 8.60791 2.49978 8.44669M5.70594 9.58159C5.33112 9.28359 4.39525 8.53253 3.50094 7.81375C3.34087 7.68509 3.10716 7.70916 2.97659 7.86769L2.49978 8.44669M5.70594 9.58159L5.39477 9.97297C5.39462 9.97285 5.39448 9.97274 5.39433 9.97262M5.70594 9.58159L5.39389 9.97227C5.39404 9.97239 5.39419 9.9725 5.39433 9.97262M2.49978 8.44669L2.78923 8.68502L2.78921 8.68504L2.49978 8.44669ZM2.96618 8.66687C3.84758 9.37511 4.74338 10.0938 5.08194 10.363L5.08296 10.3638C5.20107 10.4582 5.32168 10.5604 5.44733 10.6669C5.7328 10.9087 6.04433 11.1727 6.41188 11.4177C6.92955 11.7627 7.46515 12 8 12C8.53166 12 9.06247 11.7662 9.57811 11.4234C9.94527 11.1793 10.2588 10.9144 10.5489 10.6694C10.6752 10.5626 10.7971 10.4597 10.917 10.3638L10.9181 10.363C11.2679 10.0849 12.1589 9.37 13.0339 8.66694L12.716 8.281C11.8522 8.97508 10.9684 9.68424 10.6056 9.97268C10.5283 10.0344 10.4302 10.1172 10.319 10.2112C10.0829 10.4106 9.78727 10.6602 9.50451 10.8654C9.28627 11.0239 9.04811 11.1779 8.80438 11.2937C8.56458 11.4077 8.28777 11.5 8 11.5C7.71066 11.5 7.43187 11.4062 7.19099 11.2912C6.94586 11.1743 6.70615 11.0188 6.48699 10.8595C6.2024 10.6526 5.90515 10.4012 5.67169 10.2038C5.56276 10.1116 5.46771 10.0312 5.39433 9.97262M2.96618 8.66687L5.39433 9.97262M2.96618 8.66687L3.28404 8.28089" fill="#333333" stroke="#333333"/>
</g>
<defs>
<clipPath id="clip0_59_74156">
<rect width="16" height="16" fill="white"/>
</clipPath>
</defs>
</svg>
