<svg width="16" height="16" viewBox="0 0 16 16" fill="none" xmlns="http://www.w3.org/2000/svg">
<g clip-path="url(#clip0_59_74034)">
<path d="M11.2311 10.192L10.7752 10.7752L10.192 11.2311C9.17393 12.0271 7.89412 12.5 6.5 12.5C3.18552 12.5 0.5 9.81448 0.5 6.5C0.5 3.18552 3.18552 0.5 6.5 0.5C9.81448 0.5 12.5 3.18552 12.5 6.5C12.5 7.89412 12.0271 9.17393 11.2311 10.192ZM11 11H11.625H12.1344C12.2036 11 12.2665 11.0267 12.3121 11.0723L15.4258 14.186C15.426 14.1863 15.4263 14.1865 15.4265 14.1868C15.5234 14.2854 15.5231 14.4448 15.4246 14.5433L14.5402 15.4277L14.5383 15.4296C14.4444 15.5245 14.2875 15.5272 14.1879 15.4277L11.0723 12.3121C11.0267 12.2665 11 12.2036 11 12.1344V11.625V11ZM2 6.5C2 8.9889 4.01474 11 6.5 11C8.9889 11 11 8.98526 11 6.5C11 4.0111 8.98526 2 6.5 2C4.0111 2 2 4.01474 2 6.5Z" fill="#333333" stroke="#333333"/>
</g>
<defs>
<clipPath id="clip0_59_74034">
<rect width="16" height="16" fill="white"/>
</clipPath>
</defs>
</svg>
