<svg width="16" height="16" viewBox="0 0 16 16" fill="none" xmlns="http://www.w3.org/2000/svg">
<path d="M1.5 1.5H14.5C15.0523 1.5 15.5 1.9477 15.5 2.5V13.5C15.5 14.0523 15.0523 14.5 14.5 14.5H1.5C0.947705 14.5 0.5 14.0523 0.5 13.5V2.5C0.5 1.9477 0.947705 1.5 1.5 1.5ZM1.6875 14H14.3125C14.4948 14 14.6697 13.9276 14.7986 13.7986C14.9276 13.6697 15 13.4948 15 13.3125V2.6875C15 2.50516 14.9276 2.3303 14.7986 2.20136C14.6697 2.07243 14.4948 2 14.3125 2H1.6875C1.50516 2 1.33029 2.07243 1.20136 2.20136C1.07243 2.3303 1 2.50516 1 2.6875V13.3125C1 13.4948 1.07243 13.6697 1.20136 13.7986C1.3303 13.9276 1.50516 14 1.6875 14ZM6.5 10.75H12.5V11.25H6.5V10.75ZM6.5 7.75H12.5V8.25H6.5V7.75ZM6.5 4.75H12.5V5.25H6.5V4.75ZM4.625 5C4.625 5.34517 4.34517 5.625 4 5.625C3.65483 5.625 3.375 5.34517 3.375 5C3.375 4.65483 3.65483 4.375 4 4.375C4.34517 4.375 4.625 4.65483 4.625 5ZM4.625 8C4.625 8.34517 4.34517 8.625 4 8.625C3.65483 8.625 3.375 8.34517 3.375 8C3.375 7.65483 3.65483 7.375 4 7.375C4.34517 7.375 4.625 7.65483 4.625 8ZM4.625 11C4.625 11.3452 4.34517 11.625 4 11.625C3.65483 11.625 3.375 11.3452 3.375 11C3.375 10.6548 3.65483 10.375 4 10.375C4.34517 10.375 4.625 10.6548 4.625 11Z" fill="#333333" stroke="#333333"/>
</svg>
