<svg width="16" height="16" viewBox="0 0 16 16" fill="none" xmlns="http://www.w3.org/2000/svg">
<g clip-path="url(#clip0_59_74971)">
<path d="M10.1667 2.5H10.6667H14C14.4543 2.5 14.8466 2.63884 15.1141 2.83945C15.3814 3.03998 15.5 3.27871 15.5 3.5V14.5C15.5 14.7213 15.3814 14.96 15.1141 15.1605C14.8466 15.3612 14.4543 15.5 14 15.5H2C1.54572 15.5 1.15342 15.3612 0.885938 15.1605C0.618562 14.96 0.5 14.7213 0.5 14.5V3.5C0.5 3.27871 0.618562 3.03998 0.885938 2.83945C1.15342 2.63884 1.54572 2.5 2 2.5H5.33333H5.83333V2C5.83333 1.6415 6.02661 1.2777 6.4151 0.986328C6.80357 0.694975 7.3626 0.5 8 0.5C8.6374 0.5 9.19643 0.694975 9.5849 0.986328C9.97339 1.2777 10.1667 1.6415 10.1667 2V2.5ZM4.5 3.5V3H4H2.25C2.08259 3 1.91262 3.05069 1.77344 3.15508C1.63465 3.25917 1.5 3.44201 1.5 3.6875V14.3125C1.5 14.558 1.63465 14.7408 1.77344 14.8449C1.91262 14.9493 2.08259 15 2.25 15H13.75C13.9174 15 14.0874 14.9493 14.2266 14.8449C14.3653 14.7408 14.5 14.558 14.5 14.3125V3.6875C14.5 3.44201 14.3653 3.25917 14.2266 3.15508C14.0874 3.05069 13.9174 3 13.75 3H12H11.5V3.5V4.5H4.5V3.5ZM9.5 2C9.5 1.60057 9.28427 1.27649 9.00781 1.06914C8.73196 0.862252 8.37404 0.75 8 0.75C7.62596 0.75 7.26804 0.862252 6.99219 1.06914C6.71573 1.27649 6.5 1.60057 6.5 2C6.5 2.39943 6.71573 2.72351 6.99219 2.93086C7.26804 3.13775 7.62596 3.25 8 3.25C8.37404 3.25 8.73196 3.13775 9.00781 2.93086C9.28427 2.72351 9.5 2.39943 9.5 2Z" fill="#333333" stroke="#333333"/>
</g>
<defs>
<clipPath id="clip0_59_74971">
<rect width="16" height="16" fill="white"/>
</clipPath>
</defs>
</svg>
