<svg width="16" height="16" viewBox="0 0 16 16" fill="none" xmlns="http://www.w3.org/2000/svg">
<g clip-path="url(#clip0_59_74092)">
<path d="M15.1058 5.85404L15.1054 5.85398L10.7361 5.18804L10.4729 5.14793L10.3593 4.90715L8.40726 0.771012C8.4072 0.770884 8.40714 0.770755 8.40708 0.770626C8.31771 0.582755 8.15589 0.5 7.99864 0.5C7.84381 0.5 7.68442 0.57992 7.59428 0.770209C7.59425 0.770282 7.59421 0.770354 7.59418 0.770427L5.64123 4.90691L5.52756 5.14766L5.26435 5.18774L0.894799 5.85305L0.894454 5.85311C0.544053 5.90621 0.343257 6.40551 0.646628 6.71425L0.646729 6.71435L3.80762 9.9331L3.98545 10.1142L3.94424 10.3646L3.19626 14.9104C3.19624 14.9105 3.19622 14.9106 3.19621 14.9107C3.14005 15.255 3.39958 15.5 3.6464 15.5C3.709 15.5 3.77685 15.4849 3.84778 15.4456L3.84964 15.4445L7.75859 13.2983L7.99928 13.1661L8.23995 13.2983L12.1486 15.4452L12.1486 15.4452C12.2198 15.4843 12.288 15.4994 12.3506 15.4994C12.5998 15.4994 12.8581 15.2544 12.8023 14.9117L15.1058 5.85404ZM15.1058 5.85404C15.4561 5.90713 15.657 6.4066 15.3534 6.71541L15.3533 6.71554L12.1918 9.93366L12.014 10.1147L12.0551 10.3651L12.8022 14.9113L15.1058 5.85404ZM11.9034 9.56007L11.9034 9.56005L14.3706 7.04818L15.0555 6.3508L14.0892 6.20352L10.6793 5.68383L10.6793 5.68383L10.196 5.61019L9.97589 5.1438L9.52372 5.35719L9.97589 5.14379L8.45261 1.91598L7.50043 2.12933L7.49954 12.0415L7.49951 12.3374L7.75886 12.4798L8.42687 12.8467L8.42692 12.8467L11.4755 14.5214L12.3763 15.0162L12.2096 14.002L11.6269 10.4567L11.6269 10.4567L11.5403 9.92966L11.9034 9.56007Z" fill="#333333" stroke="#333333"/>
</g>
<defs>
<clipPath id="clip0_59_74092">
<rect width="16" height="16" fill="white"/>
</clipPath>
</defs>
</svg>
