<svg width="12" height="15" viewBox="0 0 12 15" fill="none" xmlns="http://www.w3.org/2000/svg">
<g clip-path="url(#clip0_90_12048)">
<path d="M7.33236 12.1919H7.92611C8.00484 12.1919 8.08035 12.1573 8.13603 12.0958C8.1917 12.0343 8.22298 11.9508 8.22298 11.8638V5.95752C8.22298 5.8705 8.1917 5.78704 8.13603 5.7255C8.08035 5.66396 8.00484 5.62939 7.92611 5.62939H7.33236C7.25362 5.62939 7.17811 5.66396 7.12243 5.7255C7.06676 5.78704 7.03548 5.8705 7.03548 5.95752V11.8638C7.03548 11.9508 7.06676 12.0343 7.12243 12.0958C7.17811 12.1573 7.25362 12.1919 7.33236 12.1919ZM11.3896 3.00439H9.35086L8.50971 1.454C8.40415 1.25959 8.25482 1.09872 8.07628 0.98707C7.89774 0.875416 7.69608 0.816787 7.49094 0.816895H4.99669C4.79164 0.816881 4.59007 0.875556 4.41163 0.987205C4.23318 1.09885 4.08393 1.25967 3.97841 1.454L3.13677 3.00439H1.09798C0.993 3.00439 0.892318 3.05049 0.818085 3.13254C0.743852 3.21458 0.702148 3.32586 0.702148 3.44189L0.702148 3.87939C0.702148 3.99543 0.743852 4.10671 0.818085 4.18875C0.892318 4.2708 0.993 4.31689 1.09798 4.31689H1.49382V13.5044C1.49382 13.8525 1.61893 14.1863 1.84163 14.4325C2.06433 14.6786 2.36637 14.8169 2.68131 14.8169H9.80631C10.1213 14.8169 10.4233 14.6786 10.646 14.4325C10.8687 14.1863 10.9938 13.8525 10.9938 13.5044V4.31689H11.3896C11.4946 4.31689 11.5953 4.2708 11.6695 4.18875C11.7438 4.10671 11.7855 3.99543 11.7855 3.87939V3.44189C11.7855 3.32586 11.7438 3.21458 11.6695 3.13254C11.5953 3.05049 11.4946 3.00439 11.3896 3.00439ZM4.9534 2.20896C4.96663 2.18463 4.98535 2.1645 5.00772 2.15055C5.0301 2.13661 5.05537 2.12931 5.08105 2.12939H7.40658C7.43222 2.12936 7.45744 2.13668 7.47977 2.15062C7.5021 2.16456 7.52078 2.18467 7.53398 2.20896L7.96594 3.00439H4.52169L4.9534 2.20896ZM9.80631 13.5044H2.68131V4.31689H9.80631V13.5044ZM4.56152 12.1919H5.15527C5.23401 12.1919 5.30952 12.1573 5.3652 12.0958C5.42087 12.0343 5.45215 11.9508 5.45215 11.8638V5.95752C5.45215 5.8705 5.42087 5.78704 5.3652 5.7255C5.30952 5.66396 5.23401 5.62939 5.15527 5.62939H4.56152C4.48279 5.62939 4.40728 5.66396 4.3516 5.7255C4.29593 5.78704 4.26465 5.8705 4.26465 5.95752V11.8638C4.26465 11.9508 4.29593 12.0343 4.3516 12.0958C4.40728 12.1573 4.48279 12.1919 4.56152 12.1919Z" fill="#E63C3C"/>
</g>
<defs>
<clipPath id="clip0_90_12048">
<rect width="11.0833" height="14" fill="white" transform="translate(0.702148 0.816895)"/>
</clipPath>
</defs>
</svg>
