<svg width="12" height="14" viewBox="0 0 12 14" fill="none" xmlns="http://www.w3.org/2000/svg">
<path d="M11.5594 2.677L8.9375 0.382861C8.65625 0.136768 8.275 -0.00268555 7.87813 -0.00268555H1.5C0.671875 4.88281e-05 0 0.587939 0 1.31255V12.6875C0 13.4122 0.671875 14 1.5 14H10.5C11.3281 14 12 13.4122 12 12.6875V3.60669C12 3.25942 11.8406 2.9231 11.5594 2.677ZM10.3781 3.50005H8V1.41919L10.3781 3.50005ZM1.5 12.6875V1.31255H6.5V4.1563C6.5 4.51997 6.83437 4.81255 7.25 4.81255H10.5V12.6875H1.5ZM8.125 6.12505H7.225C7.0875 6.12505 6.9625 6.19067 6.89687 6.29731C6.33437 7.20239 6.20312 7.45669 6.00313 7.87505C5.56875 7.07935 5.7875 7.402 5.10938 6.29731C5.04375 6.19067 4.91562 6.12505 4.77812 6.12505H3.875C3.58437 6.12505 3.40625 6.39849 3.55 6.61724L4.99687 8.75005L3.55 10.8829C3.40313 11.1016 3.58437 11.375 3.875 11.375H4.77812C4.91562 11.375 5.04062 11.3094 5.10625 11.2028C5.78437 10.109 5.825 9.97231 6 9.62505C6.46562 10.4508 6.18438 10.0598 6.89375 11.2028C6.95938 11.3094 7.0875 11.375 7.225 11.375H8.125C8.41562 11.375 8.59375 11.1016 8.45 10.8829L7 8.75005C7.02187 8.71997 7.94687 7.36919 8.44687 6.61724C8.59375 6.39849 8.4125 6.12505 8.125 6.12505Z" fill="white"/>
</svg>
