<svg width="14" height="16" viewBox="0 0 14 16" fill="none" xmlns="http://www.w3.org/2000/svg">
<g clip-path="url(#clip0_91_7819)">
<path d="M13.4968 3.05933L10.5004 0.437451C10.179 0.156201 9.74328 -0.00317383 9.28971 -0.00317383H2.00042C1.05399 -4.88281e-05 0.286133 0.671826 0.286133 1.49995V14.5C0.286133 15.3281 1.05399 16 2.00042 16H12.2861C13.2326 16 14.0004 15.3281 14.0004 14.5V4.12183C14.0004 3.72495 13.8183 3.34058 13.4968 3.05933ZM12.1468 3.99995H9.42899V1.62183L12.1468 3.99995ZM2.00042 14.5V1.49995H7.7147V4.74995C7.7147 5.16558 8.09685 5.49995 8.57185 5.49995H12.2861V14.5H2.00042ZM10.9361 10.0093C10.5004 9.63433 9.25756 9.73745 8.63613 9.8062C8.02185 9.47808 7.61113 9.02495 7.32185 8.35933C7.46113 7.8562 7.68256 7.09058 7.5147 6.60933C7.3647 5.79058 6.1647 5.87183 5.99328 6.42495C5.83613 6.92808 5.97899 7.62808 6.24328 8.52183C5.88613 9.2687 5.35399 10.2718 4.97899 10.8468C4.2647 11.1687 3.30042 11.6656 3.15756 12.2906C3.0397 12.7843 4.08613 14.0156 5.87542 11.3156C6.67542 11.0843 7.54685 10.8 8.31828 10.6875C8.99328 11.0062 9.78256 11.2187 10.3111 11.2187C11.2218 11.2187 11.3111 10.3375 10.9361 10.0093ZM3.86113 12.4406C4.04328 12.0125 4.73613 11.5187 4.94685 11.3468C4.26828 12.2937 3.86113 12.4625 3.86113 12.4406ZM6.77542 6.48433C7.0397 6.48433 7.0147 7.48745 6.8397 7.75933C6.68256 7.32495 6.68613 6.48433 6.77542 6.48433ZM5.90399 10.7531C6.25042 10.225 6.54685 9.59683 6.78613 9.0437C7.08256 9.51558 7.46113 9.8937 7.86113 10.1531C7.11828 10.2875 6.47185 10.5625 5.90399 10.7531ZM10.604 10.5968C10.604 10.5968 10.4254 10.7843 9.27185 10.3531C10.5254 10.2718 10.7326 10.5218 10.604 10.5968Z" fill="white"/>
</g>
<defs>
<clipPath id="clip0_91_7819">
<rect width="13.7143" height="16" fill="white" transform="translate(0.286133)"/>
</clipPath>
</defs>
</svg>
