<svg width="16" height="16" viewBox="0 0 16 16" fill="none" xmlns="http://www.w3.org/2000/svg">
<path d="M8.375 8.05313V8.30768L8.58084 8.45744L10.567 9.90248L10.1256 10.5106L7.625 8.69337V3.75H8.375V8.05313ZM0.75 8C0.75 3.99489 3.99489 0.75 8 0.75C12.0051 0.75 15.25 3.99489 15.25 8C15.25 12.0051 12.0051 15.25 8 15.25C3.99489 15.25 0.75 12.0051 0.75 8ZM1.25 8C1.25 11.7293 4.27073 14.75 8 14.75C11.7293 14.75 14.75 11.7293 14.75 8C14.75 4.27073 11.7293 1.25 8 1.25C4.27073 1.25 1.25 4.27073 1.25 8Z" fill="#333333" stroke="#333333"/>
</svg>
