<svg width="16" height="16" viewBox="0 0 16 16" fill="none" xmlns="http://www.w3.org/2000/svg">
<g clip-path="url(#clip0_59_75031)">
<path d="M14.2857 15H14.7857V14.5V13.7C14.7857 11.8757 13.1113 10.5 11.2 10.5C10.9994 10.5 10.7952 10.5467 10.6124 10.5942C10.525 10.6169 10.4457 10.6389 10.3647 10.6613C10.2482 10.6935 10.1281 10.7267 9.97508 10.7647C9.50186 10.8822 8.87424 11 8 11C7.13313 11 6.50454 10.8823 6.02844 10.7646C5.87477 10.7266 5.75373 10.6933 5.63649 10.6611C5.55489 10.6386 5.47513 10.6167 5.38749 10.594C5.20428 10.5467 4.99959 10.5 4.8 10.5C2.88866 10.5 1.21429 11.8757 1.21429 13.7V14.5V15H1.71429H14.2857ZM8 10.5C8.89956 10.5 9.48943 10.3647 9.97712 10.2326C10.037 10.2164 10.0941 10.2007 10.149 10.1855C10.5413 10.0774 10.8223 10 11.2 10C13.6387 10 15.5 11.718 15.5 13.7V14.5C15.5 14.9914 15.0208 15.5 14.2857 15.5H1.71429C0.979197 15.5 0.5 14.9914 0.5 14.5V13.7C0.5 11.718 2.36134 10 4.8 10C5.17969 10 5.46126 10.0777 5.85378 10.1859C5.90823 10.2009 5.96482 10.2165 6.0241 10.2326C6.51137 10.3647 7.10038 10.5 8 10.5ZM12.6429 4.5C12.6429 6.64761 10.6279 8.5 8 8.5C5.37205 8.5 3.35714 6.64761 3.35714 4.5C3.35714 2.35239 5.37205 0.5 8 0.5C10.6279 0.5 12.6429 2.35239 12.6429 4.5ZM11.9286 4.5C11.9286 2.51011 10.1006 1 8 1C5.89937 1 4.07143 2.51011 4.07143 4.5C4.07143 6.48989 5.89937 8 8 8C10.1006 8 11.9286 6.48989 11.9286 4.5Z" fill="#333333" stroke="#333333"/>
</g>
<defs>
<clipPath id="clip0_59_75031">
<rect width="16" height="16" fill="white"/>
</clipPath>
</defs>
</svg>
