<svg width="16" height="14" viewBox="0 0 16 14" fill="none" xmlns="http://www.w3.org/2000/svg">
<path d="M8.86832 6.64645L8.51477 7L8.86832 7.35355L10.696 9.18125L10.1812 9.69602L8.35355 7.86832L8 7.51477L7.64645 7.86832L5.81875 9.69602L5.30398 9.18125L7.13168 7.35355L7.48523 7L7.13168 6.64645L5.30398 4.81875L5.81875 4.30398L7.64645 6.13168L8 6.48523L8.35355 6.13168L10.1812 4.30398L10.696 4.81875L8.86832 6.64645ZM1.5 0.5H14.5C15.052 0.5 15.5 0.948017 15.5 1.5V12.5C15.5 13.052 15.052 13.5 14.5 13.5H1.5C0.948017 13.5 0.5 13.052 0.5 12.5V1.5C0.5 0.948017 0.948017 0.5 1.5 0.5ZM14.3125 13C14.6918 13 15 12.6918 15 12.3125V1.6875C15 1.30823 14.6918 1 14.3125 1H1.6875C1.30823 1 1 1.30823 1 1.6875V12.3125C1 12.6918 1.30823 13 1.6875 13H14.3125Z" fill="#333333" stroke="#333333"/>
</svg>
