<svg width="16" height="16" viewBox="0 0 16 16" fill="none" xmlns="http://www.w3.org/2000/svg">
<g clip-path="url(#clip0_59_74981)">
<path d="M6.37458 9.84265L6.72671 10.1976L7.08169 9.84551L11.4102 5.55179L11.9384 6.08426L6.72249 11.2583L4.06165 8.57592L4.59411 8.04774L6.37458 9.84265ZM11.3222 5.46303L11.3224 5.46325C11.3223 5.46318 11.3222 5.4631 11.3221 5.46302L11.3222 5.46303ZM0.75 8C0.75 3.99592 3.99592 0.75 8 0.75C12.0041 0.75 15.25 3.99592 15.25 8C15.25 12.0041 12.0041 15.25 8 15.25C3.99592 15.25 0.75 12.0041 0.75 8ZM14.75 8C14.75 4.26917 11.7302 1.25 8 1.25C4.26917 1.25 1.25 4.26976 1.25 8C1.25 11.7308 4.26976 14.75 8 14.75C11.7308 14.75 14.75 11.7302 14.75 8Z" fill="#333333" stroke="#333333"/>
</g>
<defs>
<clipPath id="clip0_59_74981">
<rect width="16" height="16" fill="white"/>
</clipPath>
</defs>
</svg>
