<svg width="16" height="16" viewBox="0 0 16 16" fill="none" xmlns="http://www.w3.org/2000/svg">
<path d="M13.8375 4.50004H15.3375L14.1375 3.60004L10.9667 1.22192L10.1667 0.621918V1.62192V4.00004V4.50004H10.6667H13.8375ZM1.5 14.5V15H2H14H14.5V14.5V5.50004V5.00004H14H9.66667C9.48654 5.00004 9.34446 4.94511 9.25885 4.8809C9.17386 4.81715 9.16667 4.76624 9.16667 4.75004V1.50004V1.00004H8.66667H2H1.5V1.50004V14.5ZM11.6167 0.837543L15.1125 3.45942C15.3873 3.66553 15.5 3.91201 15.5 4.12192V14.5C15.5 14.7213 15.3814 14.9601 15.1141 15.1606C14.8466 15.3612 14.4543 15.5 14 15.5H2C1.54572 15.5 1.15342 15.3612 0.885937 15.1606C0.618562 14.9601 0.5 14.7213 0.5 14.5V1.50004C0.5 1.27878 0.618546 1.03994 0.886214 0.838898C1.15386 0.637876 1.54632 0.49834 2.00074 0.496918H10.5042C10.9389 0.496918 11.3386 0.628982 11.6167 0.837543Z" fill="#333333" stroke="#333333"/>
</svg>
