<svg width="16" height="16" viewBox="0 0 16 16" fill="none" xmlns="http://www.w3.org/2000/svg">
<g clip-path="url(#clip0_59_74991)">
<path d="M9.1 3V3.5H9.6H11.6C11.7308 3.5 11.8984 3.57337 12.0496 3.76235C12.1987 3.94874 12.3 4.2136 12.3 4.5V5.50123C11.328 5.52524 10.4358 5.89811 9.69518 6.5H0.5V4.5C0.5 4.2136 0.601322 3.94874 0.750434 3.76235C0.901616 3.57337 1.06922 3.5 1.2 3.5H3.2H3.7V3V1.5C3.7 1.2136 3.80132 0.948738 3.95043 0.762348C4.10162 0.57337 4.26922 0.5 4.4 0.5H8.4C8.53078 0.5 8.69838 0.57337 8.84957 0.762348C8.99868 0.948738 9.1 1.2136 9.1 1.5V3ZM8 3.5H8.5V3V2V1.5H8H4.8H4.3V2V3V3.5H4.8H8ZM9.3 11.5C9.3 9.17907 10.7847 7.5 12.4 7.5C14.0153 7.5 15.5 9.17907 15.5 11.5C15.5 13.8209 14.0153 15.5 12.4 15.5C10.7847 15.5 9.3 13.8209 9.3 11.5ZM13.7572 12.5C14.2652 12.5 14.5 12.0297 14.5 11.6966V11.3034C14.5 10.9703 14.2652 10.5 13.7572 10.5H13.3V9.30375C13.3 8.97061 13.0652 8.50031 12.5573 8.50031H12.243C11.735 8.50031 11.5003 8.97062 11.5003 9.30375V11.6966C11.5003 12.0297 11.735 12.5 12.243 12.5H13.7572ZM5.2 10.5H7.57054C7.52483 10.8244 7.5 11.1582 7.5 11.5C7.5 12.2011 7.60024 12.8738 7.78232 13.5H1.2C1.06922 13.5 0.901616 13.4266 0.750434 13.2377C0.601322 13.0513 0.5 12.7864 0.5 12.5V8.5H4.3V9.5C4.3 9.94251 4.60451 10.5 5.2 10.5Z" fill="#333333" stroke="#333333"/>
</g>
<defs>
<clipPath id="clip0_59_74991">
<rect width="16" height="16" fill="white"/>
</clipPath>
</defs>
</svg>
